<svg width="99" height="63" viewBox="0 0 99 63" fill="none" xmlns="http://www.w3.org/2000/svg">
<path d="M52.9216 1.53421C43.5216 5.13421 28.7216 13.1342 26.8216 15.4342C24.6216 18.2342 24.3216 21.6342 26.1216 23.4342C28.1216 25.4342 28.9216 24.8342 28.9216 21.1342C28.9216 17.4342 28.0216 17.9342 55.9216 4.83421C59.2216 3.23421 60.6216 0.634206 58.4216 0.0342058C57.9216 -0.165794 55.4216 0.534206 52.9216 1.53421Z" fill="#ECECEC"/>
<path d="M77.3216 2.03421C77.0216 2.83421 77.9216 12.7342 79.3216 23.9342C80.7216 35.1342 81.9216 44.6342 81.9216 45.0342C81.9216 45.4342 80.9216 46.0342 79.7216 46.5342C77.1216 47.5342 71.9216 46.0342 71.9216 44.3342C71.9216 43.6342 71.5216 42.4342 70.9216 41.6342C70.2216 40.4342 69.2216 40.7342 65.4216 43.5342C60.6216 46.9342 54.9216 48.3342 50.5216 47.2342C47.3216 46.4342 47.3216 45.4342 50.4216 40.8342C53.3216 36.6342 53.6216 32.8342 51.4216 28.6342C47.9216 21.8342 40.9216 27.0342 39.1216 37.8342C38.4216 41.6342 38.1216 41.9342 32.9216 43.5342C25.6216 45.8342 15.9216 50.8342 13.4216 53.6342C10.7216 56.7342 7.22158 57.8342 4.82158 56.6342C2.32158 55.2342 2.42158 53.6342 4.92158 53.6342C7.72158 53.6342 19.1216 48.3342 20.7216 46.3342C22.5216 44.2342 21.3216 42.3342 18.7216 43.2342C16.7216 43.8342 16.7216 43.7342 18.3216 41.5342C20.6216 38.2342 20.3216 34.5342 17.4216 30.2342L14.9216 26.5342L16.9216 22.6342C19.8216 16.9342 19.4216 15.8342 15.6216 19.4342C13.8216 21.2342 12.0216 22.6342 11.6216 22.6342C11.3216 22.6342 9.92158 21.5342 8.52158 20.1342C2.72158 14.3342 -0.578423 19.4342 4.52158 26.2342C7.02158 29.4342 7.12158 30.0342 6.12158 33.4342C5.52158 35.4342 4.32158 39.8342 3.42158 43.1342C2.62158 46.4342 1.42158 51.0342 0.721577 53.4342C-0.378423 57.2342 -0.278423 57.8342 1.42158 59.5342C5.42158 63.5342 7.92158 63.1342 16.6216 57.3342C22.2216 53.6342 27.1216 51.3342 32.7216 49.7342L40.8216 47.3342L44.0216 50.1342C45.8216 51.6342 48.4216 53.2342 49.8216 53.8342C53.4216 55.1342 60.1216 53.9342 64.1216 51.2342L67.5216 48.9342L70.9216 51.3342C75.2216 54.2342 79.1216 54.2342 82.4216 51.3342C86.1216 48.1342 86.5216 43.5342 84.4216 27.9342C82.6216 15.1342 82.6216 14.3342 84.3216 13.4342C86.3216 12.3342 85.8216 10.0342 82.2216 4.33421C79.7216 0.434208 78.2216 -0.265792 77.3216 2.03421ZM48.4216 34.7342C49.1216 36.9342 47.7216 38.6342 45.1216 38.6342C43.5216 38.6342 42.5216 36.1342 43.3216 34.1342C44.1216 31.8342 47.7216 32.3342 48.4216 34.7342ZM14.4216 36.1342C14.4216 37.4342 13.6216 38.2342 12.0216 38.4342C8.82158 38.9342 7.22158 37.2342 8.92158 35.1342C10.7216 32.9342 14.4216 33.6342 14.4216 36.1342ZM15.9216 44.0342C15.9216 44.7342 4.62158 50.7342 4.22158 50.2342C3.52158 49.6342 7.22158 47.1342 11.3216 45.5342C13.6216 44.5342 15.5216 43.8342 15.7216 43.7342C15.8216 43.6342 15.9216 43.8342 15.9216 44.0342Z" fill="#ECECEC"/>
<path d="M90.1216 2.3342C89.5216 3.5342 89.6216 7.43421 90.5216 13.4342C91.2216 18.5342 92.3216 29.5342 93.0216 37.9342C93.6216 46.3342 94.6216 53.5342 95.0216 54.0342C96.5216 55.6342 98.1216 49.3342 98.0216 42.4342C97.9216 38.7342 97.2216 31.1342 96.4216 25.6342C94.6216 13.4342 94.6216 13.6342 96.4216 13.6342C98.6216 13.6342 98.2216 9.73421 95.6216 5.23421C93.0216 0.634208 91.4216 -0.165795 90.1216 2.3342Z" fill="#ECECEC"/>
<path d="M3.42157 3.43421C2.52157 4.33421 2.92157 7.53421 4.02157 8.23421C6.42157 9.63421 15.7216 9.53421 17.0216 8.03421C19.1216 5.43421 15.8216 3.33421 9.42157 3.13421C6.42157 3.03421 3.72157 3.23421 3.42157 3.43421Z" fill="#ECECEC"/>
<path d="M63.9216 6.53421C62.4216 9.43421 62.7216 14.2342 64.4216 16.0342C67.4216 19.0342 71.3216 14.8342 68.4216 11.6342C67.6216 10.7342 66.9216 8.73421 66.9216 7.33421C66.9216 4.13421 65.4216 3.83421 63.9216 6.53421Z" fill="#ECECEC"/>
<path d="M40.5216 15.4342C39.4216 16.4342 39.9216 19.5342 41.2216 20.3342C41.8216 20.7342 44.0216 21.1342 45.9216 21.3342C47.8216 21.4342 50.5216 21.6342 51.9216 21.8342C53.8216 22.0342 54.5216 21.6342 54.7216 20.0342C54.9216 18.9342 54.3216 17.3342 53.4216 16.6342C51.8216 15.3342 41.5216 14.3342 40.5216 15.4342Z" fill="#ECECEC"/>
<path d="M66.8216 23.3342C62.5216 25.5342 59.3216 27.8342 59.1216 28.8342C58.9216 29.8342 59.3216 30.6342 60.1216 30.6342C62.7216 30.6342 76.4216 23.1342 76.4216 21.7342C76.4216 19.1342 74.4216 19.5342 66.8216 23.3342Z" fill="#ECECEC"/>
<path d="M26.0216 33.7342C24.8216 37.2342 26.0216 40.6342 28.5216 40.6342C30.4216 40.6342 31.5216 37.8342 30.0216 36.3342C29.4216 35.7342 28.9216 34.2342 28.9216 32.9342C28.9216 29.6342 27.3216 30.1342 26.0216 33.7342Z" fill="#ECECEC"/>
<path d="M64.5216 56.2342C63.8216 58.1342 66.4216 61.6342 68.5216 61.6342C69.2216 61.6342 70.4216 60.6342 71.0216 59.4342C72.0216 57.6342 71.8216 57.0342 70.3216 55.9342C67.9216 54.1342 65.2216 54.3342 64.5216 56.2342Z" fill="#ECECEC"/>
</svg>
