<svg width="21" height="23" viewBox="0 0 21 23" fill="none" xmlns="http://www.w3.org/2000/svg">
<path d="M7.47883 0.0136409C6.91292 0.0535593 6.22022 0.241411 5.6872 0.502054C3.71476 1.46949 2.59704 3.58516 2.91404 5.7525C3.14181 7.31401 4.11394 8.68532 5.52517 9.44142L5.7412 9.55648V10.2633L5.50169 10.3173C3.67954 10.7212 2.34814 11.59 1.42767 12.973C0.734968 14.018 0.295866 15.3822 0.108014 17.094C0.0258295 17.8384 0.00234814 18.2916 0.00234814 19.3365L0 20.3579L0.0798368 20.5106C0.507198 21.3301 2.30353 21.9241 5.35376 22.2576C6.79317 22.4149 8.19501 22.4971 9.87393 22.5182L10.778 22.5323L10.6676 22.4853C10.4751 22.4032 10.2543 22.2505 10.1275 22.1073C10.0406 22.0134 9.81523 21.6447 9.38082 20.8957C9.04034 20.3016 8.73508 19.7568 8.7069 19.684C8.62707 19.4891 8.59889 19.306 8.61298 19.0782C8.6435 18.5757 8.9065 18.1601 9.36438 17.8924L9.55693 17.7797V17.296L9.55458 16.8146L9.38317 16.7136C9.07556 16.5328 8.89945 16.352 8.76561 16.082C8.6435 15.8425 8.61767 15.725 8.61767 15.4268C8.61767 15.1826 8.62707 15.1216 8.67873 14.976C8.71395 14.8844 8.94876 14.4453 9.20471 14.0015C10.0853 12.4729 10.0641 12.5057 10.2942 12.3273C10.8038 11.9375 11.4026 11.9117 11.9896 12.2568C12.0671 12.3015 12.1399 12.339 12.1516 12.339C12.1634 12.339 12.2573 12.285 12.363 12.2216C12.4686 12.1559 12.6494 12.0549 12.7645 11.9939L12.9758 11.8882L12.9617 11.5054L12.7269 11.3458C12.006 10.855 11.0762 10.4699 10.1862 10.2961L10.0383 10.2656V9.54474L10.198 9.46491C11.4401 8.8356 12.4029 7.62866 12.7527 6.26439C12.8608 5.84173 12.903 5.48716 12.903 5.00579C12.903 3.69083 12.4217 2.48858 11.5176 1.55167C10.4492 0.441002 9.04504 -0.0943735 7.47883 0.0136409Z" fill="#4C7380"/>
<path d="M13.983 12.891L13.6707 12.9919C13.1047 13.1774 12.5177 13.5132 12.0645 13.9124L11.8461 14.1026L11.3014 13.788C11.0008 13.6142 10.7472 13.478 10.7378 13.4874C10.7284 13.4944 10.4725 13.9335 10.1649 14.4619C9.66707 15.326 9.61306 15.427 9.65063 15.4528C9.67177 15.4692 9.92537 15.6172 10.2118 15.7815L10.7331 16.0821L10.6791 16.3052C10.5124 16.9932 10.5171 17.653 10.6909 18.3293L10.7355 18.5101L10.1766 18.8341C9.86666 19.0102 9.61541 19.1605 9.61541 19.1676C9.61541 19.1887 10.7308 21.1189 10.7425 21.1212C10.7496 21.1212 11.0032 20.978 11.3061 20.8042L11.8532 20.4872L11.9729 20.5999C12.4449 21.0437 13.0273 21.3865 13.673 21.6026L13.9712 21.7012L13.9783 22.3516L13.983 22.9997H16.2372V22.3422C16.2372 21.7763 16.2419 21.6848 16.2724 21.6848C16.3499 21.6848 16.8312 21.5063 17.0989 21.3795C17.5239 21.1776 17.9161 20.9122 18.2472 20.5999L18.3646 20.4896L18.914 20.8042C19.3438 21.0508 19.4706 21.1142 19.4917 21.0907C19.5058 21.0766 19.7641 20.6351 20.0623 20.1139C20.4803 19.3883 20.6024 19.1605 20.5765 19.1464C20.5601 19.1347 20.3065 18.9867 20.0153 18.82L19.4846 18.5124L19.5387 18.2823C19.6561 17.7892 19.6889 17.3384 19.6396 16.8992C19.6208 16.7067 19.5222 16.1995 19.487 16.1103C19.4823 16.0962 19.7124 15.9483 20.0083 15.7792C20.3018 15.6101 20.5554 15.4622 20.5742 15.4504C20.6 15.4317 20.5014 15.2438 20.0505 14.4642C19.7453 13.9335 19.4893 13.4944 19.4799 13.4851C19.4729 13.4757 19.2193 13.6119 18.9187 13.7856L18.3693 14.105L18.2613 14.0087C18.0311 13.8044 17.7916 13.6189 17.6085 13.4968C17.268 13.2761 16.7585 13.0436 16.3828 12.9379L16.2372 12.8957V11.6112H13.983V12.891ZM15.6619 15.1781C16.4297 15.3823 17.0449 16.0093 17.2398 16.7936C17.3009 17.0401 17.2962 17.599 17.2281 17.8455C17.1201 18.2353 16.9087 18.5946 16.6223 18.8693C16.2888 19.1863 15.8943 19.3836 15.4552 19.454C15.2087 19.4939 14.7508 19.4728 14.5348 19.4094C13.7387 19.184 13.1235 18.5218 12.9615 17.7188C12.9122 17.4792 12.9239 16.9861 12.9826 16.7654C13.2081 15.9201 13.8937 15.2884 14.7508 15.1334C14.9457 15.0982 15.4529 15.1217 15.6619 15.1781Z" fill="#4C7380"/>
</svg>
