<svg width="24" height="24" viewBox="0 0 24 24" fill="none" xmlns="http://www.w3.org/2000/svg">
<path d="M11.3787 0.196281C11.1352 0.383598 11.1352 0.392963 11.1352 1.71355V3.03413L10.03 1.94769C9.42125 1.33891 8.82184 0.833158 8.68135 0.795694C8.24116 0.683306 7.77286 1.05794 7.7635 1.52623C7.7635 1.74165 8.07257 2.10691 9.44935 3.53052L11.1352 5.28193V7.48291V9.69325L9.31823 7.87627L7.49189 6.04993L7.46379 4.00818C7.43569 2.04135 7.42633 1.96642 7.22965 1.76038C6.94867 1.4794 6.42418 1.4794 6.14321 1.76038C5.95589 1.95706 5.93716 2.07882 5.8997 3.19335L5.8716 4.42028L5.24409 3.8115C4.51355 3.09033 4.28877 2.95921 3.91414 3.0435C3.58633 3.11843 3.36155 3.40877 3.36155 3.7834C3.36155 3.99881 3.5395 4.23296 4.26067 4.97286L5.15979 5.89071L3.5676 5.91881C2.16272 5.94691 1.95668 5.96564 1.77872 6.12486C1.50712 6.36837 1.50712 6.94905 1.78809 7.2113C1.98477 7.38925 2.10653 7.39861 4.3356 7.39861H6.68643L8.27862 8.99081L9.87081 10.583H7.29521H4.72897L3.31472 9.17813C2.0316 7.90437 1.86302 7.77325 1.57268 7.77325C1.21677 7.77325 0.84214 8.04486 0.823408 8.31647C0.795311 8.72856 0.907701 8.90652 1.69443 9.71198L2.54672 10.5643L1.48838 10.6017C0.476872 10.6298 0.430043 10.6392 0.214629 10.8921C-0.056981 11.2105 -0.0757127 11.5102 0.186531 11.838C0.373848 12.0815 0.383214 12.0815 1.75063 12.0815H3.12741L1.97541 13.2335C0.926433 14.2825 0.832774 14.4043 0.832774 14.7227C0.832774 15.1723 1.12312 15.4532 1.56331 15.4532C1.86302 15.4532 2.04097 15.294 3.58633 13.7674L5.29092 12.0815H7.81969H10.3391L8.51277 13.9079L6.67706 15.7436L4.3075 15.7998C2.17209 15.856 1.90985 15.8747 1.75063 16.0339C1.52585 16.2587 1.53521 16.7738 1.75999 17.0548C1.92858 17.2702 1.99414 17.2796 3.5395 17.3264L5.14106 17.3732L4.25131 18.263C3.54887 18.9654 3.36155 19.1996 3.36155 19.415C3.36155 19.799 3.50204 20.005 3.82984 20.1268C4.25131 20.2673 4.53228 20.1268 5.24409 19.415L5.8716 18.8062L5.8997 20.0238C5.92779 21.0634 5.96526 21.2694 6.11511 21.438C6.34926 21.6909 6.91121 21.7003 7.21091 21.4567C7.43569 21.2788 7.43569 21.2507 7.46379 19.2277L7.49189 17.1672L9.31823 15.3502L11.1352 13.5332V15.7342V17.9446L10.4702 18.5908C10.105 18.9561 9.34633 19.7428 8.78438 20.3422C7.98828 21.2039 7.7635 21.4942 7.7635 21.7003C7.77286 22.2154 8.28799 22.5619 8.77501 22.3746C8.9155 22.3278 9.50555 21.8126 10.0862 21.232L11.1352 20.183V21.5129C11.1352 22.8335 11.1352 22.8429 11.3787 23.0302C11.6597 23.255 11.8657 23.2737 12.1935 23.1239C12.5401 22.9646 12.6337 22.6556 12.6337 21.6066V20.6513L13.5048 21.5036C13.9731 21.9719 14.4413 22.384 14.5256 22.4121C14.7504 22.4964 15.2374 22.309 15.3498 22.103C15.406 22.0093 15.4435 21.7939 15.4435 21.6253C15.4435 21.3537 15.2655 21.1477 14.0386 19.902L12.6337 18.4878V15.9215V13.3459L14.2259 14.9381L15.8181 16.5303V18.8811C15.8181 21.1102 15.8275 21.232 16.0054 21.4286C16.2958 21.7377 16.8671 21.7096 17.12 21.3912C17.2979 21.157 17.3167 21.0166 17.3167 19.5836V18.0288L18.2345 18.9467C19.0119 19.7241 19.1898 19.8552 19.4521 19.8552C19.8642 19.8552 20.2201 19.4993 20.2201 19.0966C20.2201 18.853 20.0889 18.6657 19.5083 18.0757L18.7965 17.3451L20.0328 17.3077C21.2597 17.2796 21.269 17.2796 21.5032 17.008C21.6811 16.7926 21.7186 16.6708 21.6811 16.4554C21.5594 15.8653 21.5407 15.8653 19.2648 15.7998L17.1855 15.7436L15.3498 13.9079L13.5235 12.0815H15.7245H17.9254L19.6769 13.7674C21.1754 15.2097 21.4751 15.4532 21.7186 15.4532C22.112 15.4532 22.4679 15.088 22.4679 14.6946C22.4679 14.4324 22.3087 14.2357 21.3252 13.2335L20.1826 12.0815H21.5126C22.7488 12.0815 22.8425 12.0722 23.0298 11.8755C23.2265 11.6601 23.2733 11.2386 23.1235 10.9576C22.983 10.6954 22.5241 10.583 21.5875 10.583H20.7352L21.5032 9.80564C22.2993 9.00017 22.4679 8.75666 22.4679 8.42886C22.4679 8.11042 22.0558 7.77325 21.6624 7.77325C21.344 7.77325 21.2129 7.88564 19.9016 9.17813L18.478 10.583H16.2771H14.0854L15.6776 8.99081L17.2698 7.39861H19.2367C20.8289 7.39861 21.2503 7.37052 21.4095 7.25813C21.8216 6.96778 21.7561 6.21852 21.2878 6.0031C21.1567 5.94691 20.5666 5.90008 19.9204 5.90008H18.7871L19.5083 5.15081C20.1077 4.5233 20.2201 4.35472 20.2201 4.09247C20.2201 3.67101 19.9016 3.3713 19.4333 3.3713C19.1243 3.3713 18.9931 3.45559 18.2064 4.22359L17.3167 5.08525V3.54925C17.3073 1.90087 17.2792 1.76974 16.8203 1.60116C16.5206 1.4794 16.0429 1.62926 15.9118 1.87277C15.8556 1.97579 15.8181 3.03413 15.8181 4.37345V6.69618L14.2259 8.28837L12.6337 9.88056V7.30496V4.73871L14.0386 3.32447C15.303 2.04135 15.4435 1.87277 15.4435 1.58243C15.4435 0.973646 14.9939 0.645842 14.4413 0.842524C14.3009 0.89872 13.8326 1.31082 13.4111 1.76038L12.6431 2.5752L12.6337 1.61052C12.6337 0.336769 12.4652 -0.000402451 11.847 -0.000402451C11.7253 -0.000402451 11.5192 0.0838909 11.3787 0.196281Z" fill="#17627C"/>
</svg>
