<svg width="143" height="69" viewBox="0 0 143 69" fill="none" xmlns="http://www.w3.org/2000/svg">
<path d="M51.2097 3.2056C36.7097 8.2056 32.1097 11.4056 33.7097 15.5056C34.3097 17.1056 34.6097 17.1056 36.6097 14.6056C38.2097 12.5056 42.0097 10.7056 51.3097 7.5056C59.6097 4.6056 63.9097 2.6056 64.1097 1.5056C64.6097 -0.894401 62.1097 -0.494401 51.2097 3.2056Z" fill="#ECECEC"/>
<path d="M98.8097 1.8056C98.5097 2.4056 98.9097 3.9056 99.7097 5.1056C100.61 6.3056 101.31 9.2056 101.31 11.6056C101.31 15.2056 100.91 16.0056 98.3097 17.6056C95.2097 19.4056 94.3097 21.9056 96.8097 21.9056C98.8097 21.9056 117.31 13.0056 117.31 12.0056C117.31 10.1056 115.81 10.1056 111.11 12.0056C108.41 13.0056 105.71 13.7056 105.21 13.4056C104.71 13.0056 104.31 11.3056 104.31 9.6056C104.31 4.2056 100.61 -0.994398 98.8097 1.8056Z" fill="#ECECEC"/>
<path d="M121.41 2.7056C120.71 3.9056 121.31 11.3056 123.21 26.0056C126.11 48.1056 126.01 50.9056 122.31 50.9056C120.61 50.9056 120.31 50.2056 120.31 46.6056C120.31 41.2056 118.41 37.5056 115.41 37.1056C112.21 36.6056 105.51 43.7056 105.11 48.1056C104.41 55.1056 95.0097 54.1056 92.6097 46.8056C92.0097 44.8056 90.9097 34.9056 90.2097 24.8056C89.0097 6.1056 88.3097 1.9056 86.2097 1.9056C85.3097 1.9056 85.2097 4.0056 85.7097 9.6056C86.0097 13.9056 86.8097 25.0056 87.3097 34.3056C88.5097 52.8056 89.4097 55.9056 94.4097 57.9056C97.1097 59.1056 98.5097 59.0056 103.91 57.5056C108.51 56.3056 112.11 56.0056 116.61 56.5056C122.01 57.0056 123.11 56.8056 125.51 55.0056C129.31 51.9056 129.71 48.3056 127.91 30.8056C126.01 12.1056 126.01 12.8056 127.81 13.5056C129.61 14.2056 128.91 12.0056 125.31 4.9056C123.01 0.405598 122.71 0.205598 121.41 2.7056ZM116.11 45.0056C116.41 46.9056 113.61 50.2056 112.01 49.6056C111.41 49.4056 110.51 48.5056 109.91 47.5056C109.01 46.2056 109.21 45.5056 110.81 44.3056C113.21 42.5056 115.71 42.9056 116.11 45.0056Z" fill="#ECECEC"/>
<path d="M134.31 5.6056C134.31 7.2056 135.41 18.9056 136.81 31.7056C138.21 44.5056 139.31 55.6056 139.31 56.2056C139.41 56.9056 140.01 56.3056 140.81 54.9056C142.51 52.0056 142.71 45.0056 141.41 36.4056C140.91 33.1056 140.21 26.7056 139.81 22.2056C139.31 15.3056 139.41 14.0056 140.71 13.7056C142.01 13.5056 141.91 12.6056 139.81 8.1056C137.11 2.4056 134.31 1.1056 134.31 5.6056Z" fill="#ECECEC"/>
<path d="M4.60966 15.1056C1.00966 22.4056 -0.890341 30.4056 0.409659 33.8056C1.00966 35.2056 2.10966 40.3056 2.80966 45.2056C5.20966 61.6056 9.90966 63.3056 18.3097 50.9056C23.2097 43.7056 25.0097 43.4056 30.1097 48.8056C35.6097 54.6056 40.0097 55.0056 55.5097 50.9056C62.3097 49.1056 71.2097 47.4056 75.3097 47.0056C81.9097 46.5056 82.8097 46.2056 82.8097 44.4056C82.8097 42.8056 81.9097 42.3056 77.8097 41.6056C64.2097 39.5056 60.9097 38.9056 60.1097 38.1056C59.7097 37.7056 61.9097 35.4056 65.0097 33.1056L70.7097 28.9056L72.8097 30.9056C75.6097 33.6056 76.3097 33.4056 76.3097 30.1056C76.3097 26.9056 73.8097 22.9056 71.9097 22.9056C71.2097 22.9056 68.4097 24.6056 65.7097 26.8056C59.4097 31.7056 55.6097 33.6056 49.4097 35.0056C40.1097 37.0056 40.2097 40.6056 49.6097 42.4056C52.5097 42.9056 54.7097 43.8056 54.5097 44.4056C54.0097 46.3056 46.8097 48.0056 41.5097 47.6056C36.9097 47.3056 35.7097 46.7056 32.0097 43.1056C25.5097 36.8056 24.9097 37.0056 14.1097 49.7056C9.70966 55.1056 5.60966 53.5056 4.60966 46.1056C4.10966 42.6056 4.50966 41.7056 7.80966 38.0056C10.3097 35.3056 11.3097 33.4056 10.9097 32.2056C10.4097 31.0056 10.0097 30.8056 9.10966 31.7056C7.40966 33.4056 4.60966 33.2056 3.90966 31.3056C2.50966 27.7056 3.50966 22.2056 6.30966 17.0056C9.50966 11.2056 9.90966 9.9056 8.30966 9.9056C7.80966 9.9056 6.10966 12.3056 4.60966 15.1056Z" fill="#ECECEC"/>
<path d="M64.6097 10.6056C62.7097 11.3056 63.0097 13.3056 65.3097 15.4056C67.1097 17.0056 67.6097 17.1056 69.8097 15.9056C71.9097 14.8056 72.5097 14.8056 74.1097 16.2056C77.9097 19.6056 80.6097 16.7056 77.3097 12.7056C75.7097 10.7056 75.2097 10.6056 73.4097 11.7056C71.7097 12.7056 70.8097 12.7056 68.5097 11.6056C67.0097 10.8056 65.2097 10.4056 64.6097 10.6056Z" fill="#ECECEC"/>
<path d="M45.8097 21.3056C45.0097 25.4056 45.7097 26.9056 48.3097 26.9056C51.0097 26.9056 51.8097 25.1056 49.9097 23.0056C49.0097 22.0056 48.3097 20.7056 48.3097 20.1056C48.3097 17.3056 46.3097 18.2056 45.8097 21.3056Z" fill="#ECECEC"/>
<path d="M19.9097 24.7056C19.6097 24.9056 19.8097 26.0056 20.4097 27.0056C21.1097 28.5056 22.4097 28.9056 25.6097 28.7056C27.9097 28.6056 30.5097 28.9056 31.4097 29.3056C33.4097 30.2056 34.9097 27.1056 33.3097 25.5056C32.2097 24.4056 20.8097 23.7056 19.9097 24.7056Z" fill="#ECECEC"/>
<path d="M108.31 28.4056C108.31 31.7056 111.91 33.7056 114.01 31.6056C115.31 30.3056 115.31 29.9056 113.41 28.0056C110.51 25.1056 108.31 25.3056 108.31 28.4056Z" fill="#ECECEC"/>
<path d="M97.0097 30.1056C95.7097 33.5056 95.6097 34.4056 96.4097 36.6056C96.9097 38.0056 98.1097 38.9056 99.3097 38.9056C101.61 38.9056 102.01 36.7056 99.9097 34.9056C99.1097 34.3056 98.3097 32.5056 98.0097 31.1056C97.8097 28.9056 97.5097 28.7056 97.0097 30.1056Z" fill="#ECECEC"/>
<path d="M71.9097 53.8056C64.4097 56.8056 62.3097 58.9056 67.0097 58.9056C70.9097 58.8056 80.8097 54.6056 80.8097 52.9056C80.8097 50.7056 79.1097 50.8056 71.9097 53.8056Z" fill="#ECECEC"/>
<path d="M9.60966 63.1056C4.60966 64.9056 1.30966 66.7056 1.30966 67.5056C1.30966 69.5056 3.20966 69.3056 11.5097 66.3056C19.0097 63.6056 21.3097 62.3056 21.3097 60.8056C21.3097 59.4056 18.3097 60.0056 9.60966 63.1056Z" fill="#ECECEC"/>
</svg>
