<svg width="26" height="20" viewBox="0 0 26 20" fill="none" xmlns="http://www.w3.org/2000/svg">
<path d="M13.9126 0.32538C13.7424 0.772118 13.8913 1.62305 14.1466 1.62305C14.2743 1.62305 14.3806 1.2614 14.4232 0.814664C14.487 0.0275546 14.1466 -0.291544 13.9126 0.32538Z" fill="#17627C"/>
<path d="M11.9131 1.83552C11.9131 2.13334 12.53 2.58008 12.9555 2.58008C13.3171 2.58008 13.232 2.13334 12.8278 1.81424C12.3173 1.43132 11.9131 1.4526 11.9131 1.83552Z" fill="#17627C"/>
<path d="M15.6991 1.75042C15.3162 1.96315 15.1673 2.58008 15.4864 2.58008C15.7629 2.58008 16.5926 1.94188 16.5926 1.70788C16.5926 1.4526 16.1671 1.47387 15.6991 1.75042Z" fill="#17627C"/>
<path d="M13.4021 2.9195C13.2745 3.21732 13.1894 3.60024 13.1894 3.77043C13.1894 4.0257 12.2321 4.06825 6.93507 4.06825C0.702017 4.06825 0.65947 4.06825 0.340372 4.53626C0.0425465 4.94045 0 5.87648 0 10.4715C0 15.6196 0.0638197 16.6195 0.404191 16.6195C0.468011 16.6195 0.65947 16.3216 0.808383 15.9813C1.59549 14.2369 4.06319 13.5987 5.55231 14.7474C6.23306 15.258 6.61598 15.7898 6.89253 16.662C6.99889 17.0236 7.44563 17.0449 12.1896 17.0449H17.359L17.6355 16.3004C18.1673 14.8112 19.8054 13.8965 21.4009 14.1943C22.3369 14.3645 23.5707 15.5558 23.7622 16.428C23.8686 17.0024 23.9537 17.0662 24.6557 17.0024C25.4215 16.9386 25.4215 16.9173 25.4853 15.8962C25.5492 14.8538 25.3151 14.2794 23.7622 11.5139C23.1666 10.4715 21.8902 8.15271 21.3796 7.19542L20.9541 6.40831H18.7843H16.5931V5.70629C16.5931 4.94045 16.0826 4.06825 15.6571 4.06825C15.5082 4.06825 15.2316 3.68533 15.0402 3.21732C14.7849 2.53658 14.6147 2.36639 14.168 2.36639C13.7638 2.36639 13.551 2.5153 13.4021 2.9195ZM9.53041 7.30178L9.59423 9.17383H11.1684H12.7639V10.5566V11.9393H11.1684H9.59423L9.53041 13.7901L9.46659 15.6622H8.29656H7.12653L7.06271 13.7901L6.99889 11.9393H5.42467H3.82918V10.5566V9.17383H5.42467H7.02017V7.40815C7.02017 6.42958 7.08399 5.55738 7.16908 5.47228C7.25417 5.38719 7.80728 5.34464 8.40293 5.38719L9.46659 5.45101L9.53041 7.30178ZM21.2094 9.7482C22.6985 12.4925 22.9751 13.1094 22.8687 13.3647C22.8049 13.5987 22.1667 13.6412 20.167 13.5987L17.5504 13.5348L17.4866 11.3224C17.4653 10.0886 17.4866 8.96109 17.5291 8.81218C17.6142 8.62072 18.0822 8.53563 19.0821 8.53563H20.5287L21.2094 9.7482Z" fill="#17627C"/>
<path d="M2.87282 14.8546C2.31972 15.0035 1.2986 16.1523 1.12841 16.8117C0.915682 17.6414 1.51133 18.9816 2.31972 19.5347C3.74502 20.492 5.57452 19.8538 6.1489 18.1945C6.51054 17.1521 6.36163 16.4926 5.57452 15.6204C4.9576 14.9184 3.80884 14.5993 2.87282 14.8546ZM4.34067 16.8117C4.91505 17.4499 4.61722 18.1094 3.72375 18.1094C3.19192 18.1094 2.97919 18.003 2.87282 17.6627C2.72391 17.1947 3.25574 16.4076 3.72375 16.4076C3.87266 16.4076 4.14921 16.599 4.34067 16.8117Z" fill="#17627C"/>
<path d="M19.8473 14.8534C19.592 14.896 19.0814 15.2789 18.7198 15.6831C17.5923 16.9808 17.9752 18.9592 19.5069 19.6825C20.4429 20.1292 20.9109 20.1079 21.8895 19.5974C22.4851 19.2995 22.8042 18.9379 23.0595 18.2997C23.3999 17.47 23.3999 17.3211 23.0808 16.534C22.5702 15.1725 21.3151 14.5343 19.8473 14.8534ZM21.3577 16.8744C21.8469 17.5551 21.4428 18.1508 20.5706 18.0657C19.7834 17.9806 19.5494 17.3211 20.1025 16.7467C20.5706 16.2787 20.9747 16.3213 21.3577 16.8744Z" fill="#17627C"/>
</svg>
