<svg width="168" height="121" viewBox="0 0 168 121" fill="none" xmlns="http://www.w3.org/2000/svg">
<path d="M148.88 68.8C142.37 76.8 142.01 76.87 134.47 72.08C133.73 72.56 132.93 73.08 132.1 73.63C128.55 75.77 126.1 75.53 123.1 72.68C122.26 71.88 121.6 70.89 120.83 70.02C117.69 66.45 115.19 66.13 110.13 68.84C112.35 70.22 114.51 71.4 116.49 72.84C118.95 74.61 119.05 76.27 117.73 79.84C116.82 82.35 115.24 82.84 112.73 82.74C108.76 82.6592 104.792 82.9606 100.88 83.64C96.8799 84.37 96.4599 85.05 96.9999 89.1C97.7599 94.7 98.8099 100.26 99.7299 105.84C100.712 110.672 100.181 115.69 98.2099 120.21C97.5499 119.46 97.0699 119.21 97.0099 118.81C95.7499 110.92 94.4899 103.04 93.3199 95.14C92.3799 88.78 93.4899 82.9 97.6499 77.74C98.3871 76.7241 98.8519 75.5364 98.9999 74.29C99.5399 70.46 101 67.29 104.57 65.38C107.725 63.5462 110.972 61.8773 114.3 60.38C118.16 58.81 121.64 59.38 124.6 62.91C129.05 68.12 133.77 67.61 137.86 61.84C138.359 61.3417 138.905 60.8929 139.49 60.5C139.25 64.64 140.49 67.27 145.28 66.71L148.72 59.71C151.72 62.44 153 66.89 157.94 66.91C157.78 62.2 155.84 58.13 153.81 54.21C151.35 49.48 152.88 45.36 154.87 40.21C155.603 41.3338 156.271 42.499 156.87 43.7C159.81 51.21 161.87 58.89 161.22 67.08C161.14 68.08 161.39 69.21 160.98 70.08C160.14 71.79 159.25 74.22 157.83 74.7C156.41 75.18 154.24 73.7 152.66 72.7C151.3 71.78 150.33 70.32 148.88 68.8Z" fill="black"/>
<path d="M32.4301 69.18C25.8401 76.59 20.4301 77 15.2801 70.71C11.8001 70.99 8.68015 71.71 5.68015 71.37C0.750149 70.81 -0.429852 68.06 1.88015 63.59C4.19015 59.12 8.02015 56.69 12.6401 54.81C13.3701 51.12 13.9501 47.2 18.1901 43.81C18.4801 46.96 18.6801 49.03 18.8601 51.1C19.1901 54.73 19.2501 58.41 19.8601 61.99C20.3902 64.87 22.8601 65.77 26.0901 64.79C28.7101 63.99 29.1802 62.3 28.5802 59.79C27.5802 55.42 26.8201 50.98 26.0001 46.56C25.3001 42.86 26.0002 39.69 30.1502 37C30.7901 39.36 31.4202 41.29 31.8302 43.26C32.9501 48.63 33.8302 54.04 35.1101 59.38C35.7301 62.05 37.1101 64.38 40.7301 64.38C41.6501 61 40.0601 57.93 39.5501 54.78C39.0401 51.63 38.1301 48.23 37.5501 45C37.1999 43.5525 37.3503 42.029 37.9768 40.678C38.6033 39.3269 39.669 38.2278 41.0001 37.56C41.5937 38.3189 42.0784 39.157 42.4401 40.05C43.8701 46.38 45.5901 52.69 46.4401 59.05C46.8891 62.9942 46.5491 66.9884 45.4401 70.8C44.1001 75.45 39.7501 76.35 35.9501 73.24C34.6601 71.9925 33.4822 70.6339 32.4301 69.18ZM13.7701 61.78L13.1601 60.47L10.1001 62L10.6201 63.12L13.7701 61.78Z" fill="black"/>
<path d="M58.4199 23.7197C62.6799 35.5797 63.1699 66.8897 58.8499 73.9697C58.5236 72.8357 58.2631 71.6838 58.0699 70.5197C56.9199 59.2797 55.9199 47.9997 54.6399 36.7997C53.9999 31.1597 54.4199 28.8997 58.4199 23.7197Z" fill="black"/>
<path d="M22.3701 17.7101L23.4301 24.8801C24.6259 23.7691 25.7358 22.569 26.7501 21.2901C27.5708 19.703 28.276 18.0587 28.8601 16.3701L30.6601 21.4801C34.7801 22.7101 33.0601 17.8101 35.6601 16.9501C37.6601 19.9501 36.2301 22.8601 35.0201 25.4901C34.0201 27.6101 32.4201 29.2201 29.4301 28.3301C28.2901 27.9901 26.7201 28.8001 25.4301 29.3301C21.6901 30.8201 19.1101 29.3301 18.9801 25.3301C18.8901 22.5001 19.2501 19.8201 22.3701 17.7101Z" fill="black"/>
<path d="M47.9302 14.7899C49.3202 11.8799 50.1002 8.49992 54.7202 9.44992C55.3402 9.57992 56.2902 8.44992 56.9802 7.83992C58.1802 6.70992 59.0902 4.94992 60.4802 4.43992C62.1402 3.83992 64.8202 3.54992 65.8702 4.43992C66.9202 5.32992 67.1302 8.19992 66.5402 9.74992C64.7002 14.5199 58.6502 17.0699 53.7102 15.7499C51.9202 15.3299 50.0602 15.1499 47.9302 14.7899ZM57.7502 9.66992L58.2902 10.8599C59.6459 10.6844 60.9841 10.3933 62.2902 9.98992C62.5873 9.7863 62.8259 9.5083 62.982 9.18369C63.1382 8.85907 63.2065 8.49918 63.1802 8.13992C62.9702 7.61992 61.7402 6.95992 61.3502 7.13992C60.0811 7.88042 58.8768 8.72676 57.7502 9.66992Z" fill="black"/>
<path d="M120.48 9.79995L128.61 7.38995L128.56 6.17995L122.31 5.74995C125.31 -1.85005 129.2 -0.680046 135.39 2.33995C134.71 9.45995 127.25 13.7 120.48 9.79995Z" fill="black"/>
<path d="M167.55 97.3799C163.46 105.27 155.55 106.83 149.41 110.76L148.2 109.76C148.77 108.6 149.02 106.97 149.95 106.37C155.07 103.03 160.36 99.9399 165.61 96.8099C165.8 96.7199 166.21 96.9999 167.55 97.3799Z" fill="black"/>
<path d="M101.61 109.68C102.08 108.56 102.23 106.97 103.06 106.41C108.27 102.93 113.63 99.69 119.21 96.21C120.44 99.21 119.44 101 117.8 102.04C112.91 105.12 107.8 107.92 102.8 110.83L101.61 109.68Z" fill="black"/>
<path d="M0.459961 96.8C1.11996 95.5 1.45996 93.71 2.50996 92.99C7.40996 89.66 12.51 86.62 17.9 83.27C19.22 86.47 18.05 88.34 16 89.59C11.31 92.41 6.49996 95.03 1.74996 97.73L0.459961 96.8Z" fill="black"/>
<path d="M165.3 86.2199L160.91 93.1599L154.35 89.0799L158.6 82.6899L165.3 86.2199Z" fill="black"/>
<path d="M21.1699 14.2C24.7999 9.50996 30.5399 8.74996 36.1099 6.45996C35.7299 7.82996 35.7499 10.01 34.9099 10.46C30.6599 12.49 26.2199 14.17 21.1699 14.2Z" fill="black"/>
</svg>
