<svg width="16" height="36" viewBox="0 0 16 36" fill="none" xmlns="http://www.w3.org/2000/svg">
<path d="M5.98295 0.534795C5.23132 1.34577 5.03352 1.84027 5.03352 2.92816C5.03352 5.26218 7.28843 6.72589 9.46421 5.77646C10.5125 5.30174 10.651 4.9457 9.78069 4.9457C8.96971 4.9457 8.1983 4.53033 7.44666 3.67979C6.59613 2.71058 6.43789 1.62269 6.93239 0.317216C7.13019 -0.19706 6.53679 -0.0586012 5.98295 0.534795Z" fill="#17627C"/>
<path d="M7.40659 7.81436C7.40659 8.86269 7.42637 8.90225 7.96042 8.90225C8.4747 8.90225 8.49448 8.86269 8.49448 7.81436C8.49448 6.76602 8.4747 6.72646 7.96042 6.72646C7.42637 6.72646 7.40659 6.76602 7.40659 7.81436Z" fill="#17627C"/>
<path d="M6.04263 10.4445C4.02508 11.5719 1.63172 13.7477 0.959205 15.0532C0.365809 16.2597 0.326249 17.7234 0.880085 18.752C1.71084 20.2948 1.09766 20.1959 8.02061 20.1366L14.2117 20.0772L14.8051 19.2069C16.1501 17.2092 15.5963 15.0729 13.1634 12.818C11.8183 11.5719 8.59423 9.49502 8.02061 9.49502C7.8426 9.49502 6.9525 9.9104 6.04263 10.4445ZM9.10851 12.4818C12.3128 14.4993 13.7568 16.3191 13.2227 17.6839C13.1238 17.9608 12.4711 18.0004 8.02061 18.0004H2.91741L2.68005 17.4861C2.16578 16.3586 3.84706 14.3213 6.67558 12.6202C7.3481 12.2049 7.9415 11.8686 8.02061 11.8686C8.07995 11.8686 8.55467 12.1455 9.10851 12.4818Z" fill="#17627C"/>
<path d="M1.7106 20.9082C1.29522 20.9874 1.25566 21.0863 1.315 22.3126L1.37434 23.6379H14.6268L14.7455 21.0269L14.1126 20.8885C13.4203 20.75 2.44245 20.7698 1.7106 20.9082Z" fill="#17627C"/>
<path d="M2.06656 31.6485H5.82473V24.33H2.06656V31.6485Z" fill="#17627C"/>
<path d="M6.61557 31.6485H9.38475V24.33H6.61557V31.6485Z" fill="#17627C"/>
<path d="M10.1764 31.6485H13.7368V24.33H10.1764V31.6485Z" fill="#17627C"/>
<path d="M0.286133 32.5191C0.286133 32.6774 0.563051 33.5279 0.919088 34.3982L1.53226 36.0004L7.9805 35.9608L14.409 35.9015L15.0419 34.3191C15.3979 33.4488 15.6946 32.6181 15.7144 32.4796C15.7144 32.3016 14.0529 32.2422 8.00028 32.2422C1.43336 32.2422 0.286133 32.2818 0.286133 32.5191Z" fill="#17627C"/>
</svg>
