<svg width="12" height="23" viewBox="0 0 12 23" fill="none" xmlns="http://www.w3.org/2000/svg">
<path fill-rule="evenodd" clip-rule="evenodd" d="M5.62151 0.0652934C5.67933 0.0454323 5.76414 0.0218472 5.81232 0.0119167C5.86629 0.00198611 5.96844 -0.00173785 6.08216 0.000744791C6.24406 0.00571007 6.28068 0.0106753 6.40018 0.0491562C6.47535 0.0727413 6.58136 0.121153 6.63533 0.15591C6.69893 0.195632 6.76254 0.252732 6.80494 0.309833C6.85891 0.380588 6.87626 0.42031 6.88589 0.498514C6.8936 0.560579 6.88782 0.622645 6.8724 0.666092C6.85891 0.703331 6.82036 0.76788 6.78759 0.808843C6.75483 0.848565 6.68351 0.90939 6.63147 0.944147C6.57558 0.980145 6.47921 1.02235 6.40018 1.04718C6.32501 1.06952 6.24792 1.08814 6.22672 1.08814C6.20551 1.08814 6.17275 1.09807 6.15347 1.11048C6.1342 1.12166 6.11878 1.14276 6.12071 1.15641C6.12071 1.17007 6.16118 1.22344 6.20937 1.27434C6.25948 1.32523 6.352 1.41212 6.4156 1.46674C6.47921 1.52136 6.64496 1.63929 6.78374 1.72866C6.92251 1.81804 7.10562 1.92355 7.19042 1.96451C7.27523 2.00547 7.41015 2.06754 7.48917 2.1023C7.5682 2.13581 7.7513 2.20657 7.89393 2.25994C8.03656 2.31208 8.2505 2.40021 8.36615 2.45607C8.48179 2.51069 8.67454 2.61869 8.79211 2.69441C8.90775 2.77013 9.05616 2.87688 9.1217 2.9315C9.1853 2.98612 9.27782 3.06928 9.32408 3.1177C9.37226 3.16611 9.45128 3.25548 9.49947 3.31631C9.54766 3.37713 9.60933 3.46402 9.63824 3.50871C9.66716 3.5534 9.71149 3.6316 9.73654 3.6825C9.76353 3.73339 9.80015 3.8178 9.82135 3.86869C9.84062 3.91959 9.87146 4.02262 9.88688 4.09834C9.90423 4.17406 9.91965 4.28578 9.92736 4.45832H2.15986L2.16565 4.3466C2.16757 4.28578 2.18299 4.17406 2.20034 4.09834C2.21576 4.02262 2.2466 3.91959 2.26587 3.86869C2.28707 3.8178 2.32177 3.7396 2.34297 3.69491C2.36417 3.65022 2.40465 3.57823 2.43356 3.53354C2.46054 3.48885 2.52607 3.39699 2.57811 3.32872C2.63208 3.26045 2.71496 3.16611 2.76315 3.1177C2.81133 3.06928 2.89807 2.9886 2.95974 2.9377C3.01949 2.88681 3.1467 2.79247 3.24115 2.72792C3.33559 2.66461 3.48207 2.57524 3.56688 2.53179C3.65169 2.48835 3.80395 2.41635 3.90418 2.37415C4.0044 2.3307 4.19136 2.25622 4.31857 2.20781C4.44578 2.16064 4.6578 2.06878 4.79079 2.00547C4.92378 1.94093 5.13194 1.82548 5.25337 1.74604C5.37672 1.66784 5.53863 1.54991 5.6138 1.48536C5.68704 1.42081 5.78919 1.32523 5.8393 1.27434C5.88749 1.22344 5.92797 1.16883 5.92797 1.15393C5.92797 1.13779 5.91447 1.11669 5.89905 1.10676C5.88364 1.09683 5.84123 1.08442 5.80847 1.08069C5.77377 1.07573 5.70246 1.05835 5.64849 1.04221C5.59645 1.02483 5.51743 0.992558 5.47502 0.971456C5.43262 0.949112 5.36323 0.898218 5.32276 0.857255C5.28035 0.817532 5.23024 0.750501 5.20904 0.709538C5.18206 0.652437 5.17435 0.608991 5.18013 0.52334C5.18784 0.426517 5.19747 0.399208 5.25915 0.31604C5.30348 0.255215 5.36516 0.196873 5.42298 0.160875C5.47502 0.127359 5.56368 0.0851545 5.62151 0.0652934ZM2.17336 4.58742C2.18685 4.57376 2.21383 4.55763 2.23696 4.55142C2.25816 4.54521 3.90418 4.54149 9.86375 4.54521L9.90037 4.57625C9.93507 4.60355 9.93892 4.62714 9.93699 4.98588L9.88495 5.01071C9.83099 5.03677 9.82135 5.03677 6.04361 5.03677C2.26587 5.03677 2.25624 5.03677 2.15023 4.98588V4.79968C2.15023 4.67679 2.15794 4.6048 2.17336 4.58742ZM2.13288 5.18201C2.10204 5.20063 1.92665 5.35207 1.74354 5.51965C1.58476 5.66497 1.38104 5.85043 1.25683 5.96351L1.2563 5.96399L1.25618 5.9641L1.25561 5.96462L1.25463 5.96551L1.25459 5.96555L1.20579 6.00997L1.10313 6.1029L1.10287 6.10313L1.10227 6.10368C0.968646 6.2246 0.773682 6.40104 0.610221 6.54994C0.32689 6.80814 0.220882 6.91241 0.22281 6.93847C0.22281 6.96082 0.240157 6.98068 0.27485 6.99682L0.328818 7.02288H11.7584C11.8471 6.98068 11.8644 6.96082 11.8644 6.93847C11.8663 6.91241 11.7603 6.80814 11.477 6.54994C11.3133 6.40086 11.1181 6.22417 10.9845 6.10323L10.9842 6.10301L10.984 6.10283L10.8814 6.00997L10.8328 5.9657L10.8325 5.96546C10.7085 5.85258 10.5034 5.66581 10.3437 5.51965C10.1606 5.35207 9.98518 5.20063 9.95434 5.18201L9.89845 5.14725H2.18878L2.13288 5.18201ZM0.180407 7.399C0.2151 7.36549 0.269068 7.33818 0.338455 7.31583L0.444463 7.28232H11.6428L11.7488 7.31708C11.8143 7.33818 11.874 7.37045 11.9068 7.40149C11.9377 7.4288 11.9704 7.47721 11.9801 7.50948C11.9935 7.54796 11.9993 8.95562 11.9993 11.4879C11.9993 14.9462 11.9955 15.4154 11.9704 15.4725C11.955 15.5085 11.9126 15.5582 11.8798 15.583C11.8451 15.6078 11.7815 15.6389 11.7391 15.6513C11.6659 15.6724 11.4307 15.6736 6.04361 15.6736C0.656479 15.6736 0.421334 15.6724 0.348092 15.6513C0.305689 15.6389 0.242084 15.6078 0.209318 15.583C0.174624 15.5582 0.132221 15.5085 0.116802 15.4725C0.0917455 15.4154 0.0878906 14.9462 0.0878906 11.4879C0.0878906 8.95562 0.0956003 7.54796 0.107165 7.50948C0.116802 7.47721 0.149568 7.42755 0.180407 7.399ZM0.261358 15.9728C0.240157 15.9864 0.22281 16.0125 0.22281 16.0324C0.22281 16.056 0.40206 16.2273 0.86464 16.6443L1.23949 16.9842C1.47603 17.1987 1.69469 17.397 1.80329 17.4946C1.96712 17.6436 2.11746 17.7764 2.13481 17.7876C2.16757 17.8087 2.37188 17.8099 6.03783 17.8099C9.13326 17.8099 9.91387 17.8075 9.93892 17.795C9.95627 17.7864 10.1047 17.656 10.2704 17.5058L10.554 17.2493C10.7497 17.0723 10.9969 16.8486 11.2168 16.6493C11.6813 16.2297 11.8625 16.056 11.8625 16.0324C11.8644 16.0125 11.8471 15.9864 11.8259 15.9728C11.7873 15.948 11.7603 15.948 6.04361 15.948C0.324963 15.948 0.299907 15.948 0.261358 15.9728ZM2.15023 18.1612C2.15023 17.9875 2.15408 17.9688 2.18878 17.9465C2.22732 17.9217 2.25238 17.9217 6.04361 17.9217C9.83291 17.9217 9.8599 17.9217 9.89845 17.9465C9.93314 17.9688 9.93699 17.9875 9.93699 18.1612C9.93699 18.309 9.93121 18.3561 9.87917 18.4058H2.20805L2.17914 18.3785C2.15601 18.3561 2.15023 18.309 2.15023 18.1612ZM2.15601 18.515C2.1483 18.5262 2.15408 18.6094 2.16757 18.6975C2.18107 18.7869 2.2042 18.9035 2.21961 18.9582C2.23503 19.0128 2.27358 19.1158 2.30635 19.1878C2.33911 19.2598 2.39886 19.374 2.44127 19.4423C2.48367 19.5105 2.55884 19.6136 2.60703 19.6719C2.65521 19.7303 2.73809 19.8196 2.79013 19.8705C2.8441 19.9214 2.94625 20.0108 3.01757 20.0691C3.08888 20.1275 3.23344 20.228 3.33752 20.2926C3.4416 20.3584 3.59772 20.4453 3.68252 20.4862C3.76733 20.5272 3.88876 20.583 3.95236 20.6091C4.01597 20.6352 4.17787 20.6948 4.31279 20.7419C4.44771 20.7879 4.62118 20.8537 4.69827 20.8859C4.77537 20.9182 4.89102 20.9691 4.95462 20.9989C5.01822 21.0287 5.18784 21.1292 5.33047 21.2223C5.53285 21.3527 5.62729 21.4259 5.75064 21.5463L5.90869 21.7015C5.78341 21.7685 5.73137 21.8107 5.71209 21.838C5.69282 21.8653 5.6774 21.9075 5.6774 21.9311C5.6774 21.9547 5.69282 21.9969 5.71209 22.0242C5.73137 22.0515 5.77763 22.0913 5.81425 22.1124C5.84894 22.1322 5.89134 22.1533 5.90869 22.157C5.92411 22.1608 5.93182 22.1657 5.92797 22.1695C5.92218 22.1719 5.88364 22.1881 5.84123 22.2055C5.79305 22.2241 5.74679 22.2588 5.7198 22.2923C5.69668 22.3221 5.6774 22.3681 5.6774 22.3941C5.6774 22.419 5.69089 22.4612 5.70631 22.4872C5.72366 22.5121 5.75643 22.5468 5.77955 22.563C5.80268 22.5791 5.85665 22.6027 5.89905 22.6151C5.94146 22.6275 6.01084 22.6387 6.05325 22.6387C6.09565 22.6387 6.16504 22.6275 6.20744 22.6163C6.24984 22.6039 6.30574 22.5766 6.33272 22.5567C6.35971 22.5369 6.3944 22.4984 6.40789 22.4711C6.42331 22.4413 6.42909 22.3991 6.42138 22.3656C6.4156 22.3345 6.38862 22.2886 6.36163 22.2638C6.33465 22.2377 6.28261 22.2067 6.24599 22.1955C6.20744 22.1831 6.17853 22.1707 6.17853 22.167C6.17853 22.1632 6.2113 22.1484 6.25177 22.1322C6.29032 22.1173 6.34236 22.0863 6.36549 22.0639C6.38862 22.0416 6.41367 21.9994 6.42138 21.9684C6.43102 21.9299 6.42524 21.8951 6.40404 21.8566C6.38669 21.8244 6.34043 21.7809 6.29418 21.7549L6.21708 21.7077C6.28068 21.6357 6.34043 21.5761 6.39055 21.5277C6.43873 21.4805 6.54474 21.3911 6.62376 21.3291C6.70279 21.2683 6.82807 21.1814 6.90131 21.1379C6.97648 21.0945 7.11718 21.0188 7.21934 20.9703C7.31956 20.9207 7.48339 20.8499 7.58554 20.8127C7.68577 20.7742 7.84189 20.7184 7.93248 20.6861C8.02114 20.655 8.19075 20.5868 8.30833 20.5334C8.44517 20.4713 8.61479 20.3745 8.79018 20.2615C8.95016 20.1585 9.11591 20.0369 9.19687 19.9636C9.27011 19.8954 9.37419 19.7923 9.42623 19.734C9.47827 19.6756 9.55922 19.5726 9.60355 19.5043C9.64981 19.4361 9.71727 19.3194 9.75389 19.2437C9.79244 19.1692 9.8387 19.0513 9.85797 18.983C9.87917 18.9147 9.90616 18.7869 9.91965 18.6975C9.93314 18.6094 9.93699 18.5262 9.92929 18.515C9.91772 18.4939 9.71534 18.4927 6.04361 18.4927C2.36995 18.4927 2.16757 18.4939 2.15601 18.515ZM5.89897 0.271885C5.84886 0.280574 5.78718 0.309124 5.72358 0.348846C5.65226 0.396016 5.6195 0.428291 5.60022 0.474219C5.5848 0.511459 5.58095 0.557388 5.58866 0.588421C5.59444 0.618212 5.61371 0.657935 5.62913 0.679037C5.64455 0.700139 5.69081 0.736138 5.73129 0.759723C5.76983 0.784549 5.84115 0.811858 5.88934 0.821789C5.93752 0.832961 5.99534 0.840409 6.0204 0.840409C6.04353 0.840409 6.09942 0.834202 6.14568 0.827995C6.19001 0.820547 6.26518 0.79448 6.31144 0.768412C6.3577 0.743586 6.41359 0.700139 6.43479 0.67283C6.46371 0.638074 6.47527 0.600834 6.47527 0.548699C6.47527 0.50277 6.46178 0.458082 6.44058 0.430773C6.4213 0.407188 6.38275 0.37119 6.35384 0.35257C6.32686 0.332709 6.26904 0.3054 6.22663 0.291746C6.18423 0.278091 6.11099 0.264437 6.0628 0.261954C6.01462 0.260713 5.94138 0.264437 5.89897 0.271885ZM6.01654 8.13564C5.99727 8.16171 5.94523 8.21632 5.89897 8.25729C5.85464 8.29825 5.75827 8.36777 5.68503 8.41245C5.61179 8.45714 5.49229 8.51548 5.41712 8.54155C5.34195 8.56762 5.22245 8.61479 5.14921 8.64706C5.07404 8.67809 4.95839 8.74016 4.89093 8.78485C4.82347 8.82954 4.72517 8.90774 4.67313 8.95863C4.62109 9.00953 4.55171 9.09394 4.5228 9.14483C4.49196 9.19572 4.45341 9.28138 4.43606 9.33351C4.41101 9.4142 4.39559 9.43654 4.34355 9.46385L4.30195 9.48876L4.30189 9.4888L4.30181 9.48884L4.30147 9.48904C4.28172 9.50081 4.26396 9.51138 4.25489 9.51723C4.23947 9.52716 4.21055 9.55695 4.19128 9.58177C4.17008 9.60784 4.13539 9.63763 4.11226 9.64756C4.0872 9.6575 4.04094 9.66618 4.00625 9.66618C3.97348 9.66618 3.93108 9.67487 3.91566 9.6848C3.88868 9.70094 3.88482 9.88217 3.88482 11.481C3.88289 13.1419 3.88482 13.261 3.91566 13.2784C3.93493 13.2884 3.9889 13.2995 4.03516 13.3032C4.11804 13.3095 4.12768 13.3132 4.18164 13.3752C4.21441 13.4112 4.28187 13.4634 4.33005 13.4932C4.40522 13.5379 4.42064 13.554 4.43028 13.6074C4.43799 13.6409 4.46305 13.7092 4.4881 13.7563C4.51316 13.8035 4.55363 13.868 4.57869 13.8991C4.60375 13.9301 4.65772 13.9885 4.70012 14.0294C4.74252 14.0704 4.84467 14.1461 4.92563 14.197C5.01236 14.2516 5.1415 14.3149 5.23594 14.3509C5.3246 14.3844 5.4441 14.4291 5.50192 14.4502C5.55782 14.4713 5.6619 14.5247 5.73321 14.5694C5.8026 14.6141 5.9009 14.6898 5.95101 14.737C5.9992 14.7854 6.04546 14.8338 6.05124 14.845C6.05702 14.8574 6.07244 14.8673 6.08208 14.8673C6.09171 14.8673 6.13219 14.8326 6.17074 14.7891C6.20929 14.7469 6.2806 14.6799 6.33071 14.6401C6.3789 14.6017 6.47142 14.5421 6.53502 14.5086C6.59862 14.4751 6.72391 14.4217 6.8145 14.3894C6.90508 14.3571 7.01687 14.3124 7.06506 14.2901C7.11325 14.2678 7.2154 14.2069 7.29057 14.1548C7.36766 14.1027 7.46982 14.017 7.518 13.9636C7.56619 13.9115 7.62979 13.8184 7.66063 13.7563C7.69147 13.6943 7.72231 13.6198 7.73002 13.5888C7.74158 13.5441 7.76278 13.523 7.83217 13.4832C7.87843 13.4559 7.94011 13.4088 7.96709 13.3777C7.99407 13.3467 8.02684 13.3181 8.03841 13.3132C8.04804 13.3082 8.08659 13.3032 8.12128 13.3032C8.16369 13.3032 8.20031 13.2933 8.23115 13.2722L8.27933 13.2412C8.27933 10.1019 8.27355 9.72825 8.25428 9.70342C8.235 9.67984 8.21187 9.67115 8.14441 9.66618C8.09623 9.66246 8.04804 9.65625 8.03841 9.65253C8.02877 9.64756 7.99215 9.61529 7.95938 9.57805C7.92662 9.54081 7.86687 9.49364 7.82446 9.47254C7.75893 9.43902 7.74544 9.42289 7.72424 9.35461C7.71074 9.31117 7.68569 9.24662 7.66834 9.2131C7.65292 9.17835 7.60088 9.10387 7.55462 9.04553C7.50837 8.98718 7.42163 8.90153 7.35995 8.85436C7.29828 8.80595 7.19227 8.73768 7.12288 8.70292C7.0535 8.66692 6.92436 8.6123 6.83377 8.58003C6.74318 8.549 6.61404 8.49686 6.54466 8.46335C6.47527 8.42983 6.37312 8.36776 6.31915 8.32432C6.26325 8.28087 6.18423 8.21012 6.14568 8.16667C6.10521 8.12323 6.06666 8.08847 6.06087 8.08971C6.05509 8.08971 6.03389 8.11081 6.01654 8.13564ZM1.68564 8.40004C1.71648 8.3628 1.76659 8.28584 1.7955 8.22874C1.82441 8.17288 1.85718 8.12819 1.86681 8.12943C1.87452 8.13191 1.90344 8.17164 1.93042 8.22005C1.95548 8.26722 2.00752 8.34542 2.04414 8.39383C2.08076 8.441 2.17327 8.52541 2.24652 8.58003C2.32169 8.63465 2.4142 8.71782 2.45275 8.76623C2.4913 8.8134 2.54334 8.8916 2.56839 8.94001C2.59345 8.98718 2.63007 9.08276 2.64935 9.15104C2.67055 9.21931 2.69175 9.31117 2.69946 9.35585C2.70717 9.40054 2.72837 9.4502 2.74572 9.46757C2.76306 9.48495 2.7939 9.53088 2.8151 9.57184C2.84402 9.6277 2.86714 9.65005 2.9693 9.68729L2.97315 11.4698C2.97701 12.6404 2.97315 13.2623 2.95966 13.2784C2.95002 13.2921 2.92304 13.3032 2.90184 13.3032C2.88064 13.3032 2.85558 13.3157 2.84594 13.3306C2.83631 13.3467 2.81703 13.3839 2.80354 13.415C2.78812 13.4448 2.76306 13.4808 2.74572 13.4957C2.72837 13.5105 2.70717 13.5701 2.69175 13.6446C2.68018 13.7129 2.64935 13.8246 2.62429 13.8929C2.59731 13.9611 2.54719 14.0617 2.5125 14.1163C2.47588 14.1709 2.41998 14.2404 2.38722 14.2715C2.35445 14.3025 2.27735 14.3633 2.2176 14.408C2.15785 14.4527 2.07883 14.5284 2.04414 14.5756C2.00944 14.6228 1.96126 14.696 1.94006 14.737C1.91693 14.7817 1.88994 14.8127 1.8726 14.8139C1.84947 14.8164 1.83019 14.7941 1.80128 14.7332C1.77815 14.6873 1.72804 14.6116 1.68949 14.5644C1.65094 14.5173 1.57385 14.444 1.51602 14.4031C1.4582 14.3609 1.37725 14.2938 1.33677 14.2529C1.2963 14.2119 1.23655 14.1349 1.20571 14.0816C1.17294 14.0294 1.13054 13.94 1.10934 13.8829C1.08814 13.8271 1.06115 13.7253 1.04959 13.657C1.03417 13.5751 1.01297 13.518 0.987912 13.4894C0.964783 13.4659 0.933945 13.415 0.916598 13.3777C0.893469 13.3293 0.874195 13.3082 0.847211 13.3057C0.827937 13.3032 0.799025 13.2921 0.785534 13.2809C0.766259 13.2635 0.762405 12.8986 0.762405 11.481C0.762405 10.5041 0.766259 9.69473 0.772042 9.6848C0.777824 9.67487 0.797098 9.66618 0.814445 9.66618C0.833719 9.66743 0.858775 9.65998 0.87034 9.65129C0.881904 9.6426 0.906961 9.60412 0.926235 9.56688C0.943582 9.52964 0.97442 9.48495 0.991767 9.46757C1.01297 9.44771 1.03417 9.38937 1.04766 9.31241C1.05923 9.24414 1.09199 9.12994 1.11898 9.05794C1.14789 8.98346 1.20957 8.87422 1.26161 8.80347C1.32521 8.7203 1.40038 8.64458 1.4929 8.57382C1.56807 8.51548 1.6548 8.43728 1.68564 8.40004ZM10.1971 8.1977C10.1798 8.23743 10.1277 8.31935 10.0815 8.38142C10.0314 8.44969 9.95233 8.52665 9.88102 8.58003C9.81163 8.62968 9.72682 8.71409 9.67671 8.77864C9.62467 8.84567 9.56685 8.94746 9.53408 9.03311C9.50324 9.11131 9.46855 9.23172 9.45506 9.3C9.44157 9.38192 9.41844 9.44523 9.3876 9.48619C9.36254 9.51971 9.32977 9.57309 9.31628 9.60412C9.29701 9.64632 9.27966 9.66122 9.24304 9.66618C9.21413 9.67115 9.18907 9.68605 9.18136 9.70467C9.17558 9.7208 9.1698 10.5202 9.16787 11.481C9.16595 12.6205 9.17173 13.2399 9.18522 13.2598C9.19486 13.2772 9.22569 13.297 9.25268 13.3032C9.28737 13.3119 9.30665 13.3306 9.32207 13.3678C9.33363 13.3976 9.36254 13.446 9.3876 13.477C9.42036 13.5168 9.44157 13.5776 9.46277 13.6881C9.47819 13.7737 9.51481 13.8929 9.54179 13.9549C9.56878 14.017 9.62852 14.1163 9.67671 14.1784C9.7249 14.2429 9.81549 14.3323 9.89065 14.3894C9.96197 14.4453 10.0526 14.5322 10.095 14.588C10.1354 14.6426 10.1836 14.7196 10.2029 14.7593C10.2202 14.799 10.2453 14.8313 10.2549 14.8301C10.2646 14.8301 10.2954 14.7903 10.3185 14.7407C10.3436 14.691 10.3937 14.6104 10.4303 14.5632C10.467 14.516 10.5402 14.4428 10.5961 14.4018C10.6501 14.3609 10.7233 14.2988 10.758 14.2653C10.7908 14.2305 10.8467 14.1585 10.8813 14.1039C10.916 14.0493 10.9642 13.9463 10.9893 13.8743C11.0143 13.8023 11.0413 13.6992 11.0471 13.6446C11.0548 13.5751 11.0722 13.5304 11.103 13.4957C11.1261 13.4683 11.1608 13.4137 11.1782 13.374C11.2032 13.3181 11.2167 13.3032 11.2476 13.3032C11.2688 13.3032 11.2957 13.2921 11.3054 13.2784C11.3189 13.2623 11.3247 12.6367 11.3247 11.4785C11.3247 10.5016 11.3208 9.69473 11.315 9.6848C11.3092 9.67487 11.29 9.66618 11.2726 9.66618C11.2533 9.66743 11.2283 9.65998 11.2167 9.65129C11.2032 9.6426 11.1878 9.61529 11.1801 9.59171C11.1724 9.56812 11.1454 9.52343 11.1184 9.4924C11.0857 9.45392 11.0645 9.40551 11.0529 9.33724C11.0452 9.28262 11.024 9.19324 11.0066 9.13862C10.9893 9.08401 10.9527 8.99463 10.9257 8.94001C10.8987 8.8854 10.8544 8.81216 10.8274 8.77864C10.8023 8.74389 10.7522 8.69175 10.7194 8.66072C10.6867 8.62968 10.625 8.58003 10.5826 8.549C10.5402 8.51796 10.4766 8.46211 10.4438 8.42487C10.4111 8.38763 10.359 8.30446 10.3282 8.24115C10.2993 8.17908 10.2646 8.12695 10.2511 8.12695C10.2376 8.12695 10.2145 8.15922 10.1971 8.1977Z" fill="#17627C"/>
</svg>
