<!--<<<<<<< HEAD-->
<!--<svg width="112" height="8" viewBox="0 0 112 8" fill="none" xmlns="http://www.w3.org/2000/svg">-->
<!--<path d="M111.354 4.35355C111.549 4.15829 111.549 3.84171 111.354 3.64645L108.172 0.464466C107.976 0.269204 107.66 0.269204 107.464 0.464466C107.269 0.659728 107.269 0.976311 107.464 1.17157L110.293 4L107.464 6.82843C107.269 7.02369 107.269 7.34027 107.464 7.53553C107.66 7.7308 107.976 7.7308 108.172 7.53553L111.354 4.35355ZM0 4.5H111V3.5H0V4.5Z" fill="#757575"/>-->
<!--=======-->
<svg width="11" height="11" viewBox="0 0 11 11" fill="none" xmlns="http://www.w3.org/2000/svg">
<path d="M11 5.5L5 0L7.66667 5.5L5 11L11 5.5Z" fill="#4C7380"/>
<path d="M6 5.5L0 0L2.66667 5.5L0 11L6 5.5Z" fill="#4C7380"/>

</svg>
