<svg width="18" height="17" viewBox="0 0 18 17" fill="none" xmlns="http://www.w3.org/2000/svg">
<circle cx="4.23558" cy="11.1194" r="1.05882" fill="#17627C"/>
<circle cx="13.7649" cy="11.1194" r="1.05882" fill="#17627C"/>
<path fill-rule="evenodd" clip-rule="evenodd" d="M3 0C1.34315 0 0 1.34314 0 3V13.4118C0 15.0686 1.34315 16.4118 3 16.4118H5.47059C7.12744 16.4118 8.47059 15.0686 8.47059 13.4118V3C8.47059 1.34315 7.12744 0 5.47059 0H3ZM4.23529 6.35294C5.11245 6.35294 5.82353 5.64186 5.82353 4.76471C5.82353 3.88755 5.11245 3.17647 4.23529 3.17647C3.35814 3.17647 2.64706 3.88755 2.64706 4.76471C2.64706 5.64186 3.35814 6.35294 4.23529 6.35294ZM4.23529 13.7647C5.69722 13.7647 6.88235 12.5796 6.88235 11.1176C6.88235 9.65572 5.69722 8.47059 4.23529 8.47059C2.77336 8.47059 1.58824 9.65572 1.58824 11.1176C1.58824 12.5796 2.77336 13.7647 4.23529 13.7647Z" fill="#17627C"/>
<path fill-rule="evenodd" clip-rule="evenodd" d="M12.5293 0C10.8724 0 9.5293 1.34314 9.5293 3V13.4118C9.5293 15.0686 10.8724 16.4118 12.5293 16.4118H14.9999C16.6567 16.4118 17.9999 15.0686 17.9999 13.4118V3C17.9999 1.34315 16.6567 0 14.9999 0H12.5293ZM13.7646 6.35294C14.6417 6.35294 15.3528 5.64186 15.3528 4.76471C15.3528 3.88755 14.6417 3.17647 13.7646 3.17647C12.8874 3.17647 12.1764 3.88755 12.1764 4.76471C12.1764 5.64186 12.8874 6.35294 13.7646 6.35294ZM13.7646 13.7647C15.2265 13.7647 16.4116 12.5796 16.4116 11.1176C16.4116 9.65572 15.2265 8.47059 13.7646 8.47059C12.3027 8.47059 11.1175 9.65572 11.1175 11.1176C11.1175 12.5796 12.3027 13.7647 13.7646 13.7647Z" fill="#17627C"/>
<circle cx="4.23547" cy="4.76574" r="0.529412" fill="#17627C"/>
<circle cx="13.7648" cy="4.76574" r="0.529412" fill="#17627C"/>
</svg>
