<svg width="30" height="30" viewBox="0 0 30 30" fill="none" xmlns="http://www.w3.org/2000/svg">
<path d="M21.7969 0.960938C18.2812 2.625 15.9375 4.03125 15.9375 4.5C15.9375 5.29688 16.5938 5.20312 18.4453 4.125C19.4531 3.53906 21.0938 2.69531 22.1016 2.25L23.9062 1.42969V20.5312L21.9844 21.3047C20.9062 21.7266 19.0547 22.5938 17.8828 23.2266L15.7031 24.375V15.0234C15.7031 9.86719 15.6328 5.50781 15.5625 5.29688C15.3047 4.61719 12.6094 3.98438 9.86719 3.98438C7.42969 3.98438 3.67969 4.45312 2.48438 4.92188L1.875 5.15625V16.5234C1.875 25.6406 1.94531 27.9375 2.17969 28.0312C2.34375 28.0781 3.25781 27.9609 4.21875 27.7734C6.98438 27.1641 11.3438 27.0469 12.9609 27.5156C13.9922 27.8203 14.2969 28.0078 14.2969 28.3594C14.2969 28.8047 14.1094 28.8281 8.13281 28.8281C2.46094 28.8281 1.92188 28.8047 1.57031 28.4063C1.21875 28.0313 1.17188 26.8594 1.125 17.7891L1.05469 7.61719L0.515625 7.54688L0 7.47656V28.6406L1.35938 30H28.6406L30 28.6406V7.47656L29.4844 7.54688L28.9453 7.61719L28.875 17.7891C28.8281 26.8594 28.7812 28.0313 28.4297 28.4063C28.0781 28.8047 27.5391 28.8281 21.8672 28.8281C15.8906 28.8281 15.7031 28.8047 15.7031 28.3594C15.7031 27.6328 17.2734 27.3047 20.8594 27.3047C23.0859 27.3047 24.5625 27.4453 25.8281 27.7266C26.8359 27.9609 27.75 28.1016 27.8906 28.0078C28.0312 27.9141 28.125 23.9062 28.125 16.5V5.15625L27.4922 4.89844C26.6484 4.59375 25.9219 4.71094 25.8281 5.20312C25.7813 5.48438 25.9688 5.69531 26.3438 5.85938L26.9531 6.09375V16.4062C26.9531 26.1562 26.9297 26.7422 26.5547 26.625C24.0703 25.8984 18.9609 25.7578 16.5703 26.3672C15.0703 26.7656 14.9297 26.7656 13.6875 26.3672C11.7188 25.7578 6.60938 25.8984 3.5625 26.6484L3.04688 26.7656L3.09375 16.3828L3.16406 6L4.6875 5.67188C6.70312 5.22656 12.2578 5.17969 13.4062 5.57813L14.2969 5.88281L14.3438 15.8906L14.4141 25.8984L14.9531 25.9688C15.2578 26.0156 15.6094 25.9453 15.7734 25.8281C16.2188 25.4531 21.5625 22.8516 23.0859 22.2656C23.8594 21.9609 24.6328 21.6094 24.7969 21.4922C25.0078 21.3281 25.0781 18.8672 25.0781 10.6406V0L24.4453 0.0234375C24.0703 0.0234375 22.8984 0.445312 21.7969 0.960938Z" fill="#17627C"/>
<path d="M19.5703 6.32813C17.2266 7.38282 16.7344 7.75782 16.9687 8.32032C17.1328 8.8125 17.2266 8.78907 20.2266 7.47657C22.1719 6.63282 22.5 6.39844 22.5 5.92969C22.5 5.17969 22.0547 5.22657 19.5703 6.32813Z" fill="#17627C"/>
<path d="M19.2188 9.46875C17.5547 10.2188 16.9688 10.5703 16.9219 10.9453C16.8047 11.7656 17.4141 11.7188 19.5938 10.7578C22.3594 9.53907 22.3594 9.51563 22.4531 8.92969C22.5703 8.17969 21.8203 8.32032 19.2188 9.46875Z" fill="#17627C"/>
<path d="M6.46875 9.16406C5.15625 9.375 4.80469 9.63281 5.01562 10.1953C5.13281 10.5469 5.34375 10.5703 6.51562 10.4063C7.24219 10.2891 8.90625 10.2188 10.1953 10.1953C12.375 10.1953 12.5391 10.1719 12.5391 9.72656C12.5391 9.39844 12.3281 9.21094 11.8359 9.11719C10.8516 8.90625 7.82812 8.92969 6.46875 9.16406Z" fill="#17627C"/>
<path d="M19.2188 12.4922C17.5078 13.2656 16.9922 13.5938 16.9922 13.9453C16.9922 14.6953 17.5547 14.6016 20.0391 13.5234C21.8672 12.7266 22.4062 12.3984 22.4531 12C22.5703 11.2266 21.7734 11.3438 19.2188 12.4922Z" fill="#17627C"/>
<path d="M6.25781 12.1875C5.20312 12.375 4.80469 12.7266 5.01562 13.2656C5.13281 13.5938 5.32031 13.6172 6.16406 13.4531C6.70312 13.3594 8.36719 13.2656 9.84375 13.2422C12.2109 13.2422 12.5391 13.1953 12.6094 12.8438C12.6562 12.5625 12.4687 12.3516 12.0703 12.1875C11.3672 11.9297 7.61719 11.9063 6.25781 12.1875Z" fill="#17627C"/>
<path d="M19.5469 15.375C16.9688 16.5234 16.7578 16.6875 16.9688 17.2266C17.1562 17.7422 17.6016 17.6484 20.2734 16.4531C21.7969 15.7734 22.4062 15.3984 22.4531 15.0469C22.5703 14.2266 21.9141 14.2969 19.5469 15.375Z" fill="#17627C"/>
<path d="M5.90625 15.2813C5.0625 15.4688 4.89844 15.5859 4.96875 16.0078C5.01562 16.4297 5.17969 16.5 5.74219 16.4531C6.14062 16.4063 7.80469 16.3594 9.46875 16.3125C11.7656 16.2656 12.5391 16.1719 12.6094 15.9375C12.8438 15.2578 11.9297 15 9.39844 15.0234C8.03906 15.0469 6.46875 15.1406 5.90625 15.2813Z" fill="#17627C"/>
<path d="M19.5938 18.2812C17.2969 19.3125 16.875 19.5938 16.875 20.0859C16.875 20.7656 17.625 20.625 20.0391 19.5469C22.125 18.6094 22.5 18.3516 22.4531 17.9531C22.3594 17.2266 21.8672 17.2734 19.5938 18.2812Z" fill="#17627C"/>
<path d="M7.45312 18.0469C5.36719 18.3047 4.92188 18.4688 4.92188 18.9844C4.92188 19.5703 5.36719 19.6875 6.70312 19.4297C7.33594 19.2891 8.83594 19.2188 10.0312 19.2422C11.4609 19.2891 12.2812 19.2188 12.4688 19.0313C13.2891 18.2109 10.5234 17.6719 7.45312 18.0469Z" fill="#17627C"/>
<path d="M6.5625 21.1641C5.22656 21.3984 5.03906 21.5156 4.96875 22.0078L4.875 22.5469L7.07812 22.3594C8.27344 22.2656 9.98437 22.1719 10.8984 22.1719C12.2109 22.1484 12.5391 22.0781 12.6094 21.7734C12.6562 21.5625 12.4922 21.3047 12.2578 21.2109C11.4844 20.9063 8.10937 20.8828 6.5625 21.1641Z" fill="#17627C"/>
</svg>
