<svg width="26" height="24" viewBox="0 0 26 24" fill="none" xmlns="http://www.w3.org/2000/svg">
<path d="M21.736 15.6479C22.191 14.5246 22.438 13.322 22.438 12.0005C22.438 11.049 22.295 10.1371 22.048 9.29136C21.203 9.48959 20.319 9.59531 19.396 9.59531C17.5058 9.59738 15.6427 9.13743 13.964 8.25425C12.2852 7.37108 10.84 6.09056 9.75 4.52064C8.58402 7.38859 6.38446 9.69549 3.601 10.9697C3.549 11.3001 3.549 11.6569 3.549 12.0005C3.549 13.2622 3.79346 14.5115 4.26841 15.6771C4.74337 16.8428 5.43953 17.9019 6.31713 18.7941C8.08954 20.5958 10.4934 21.608 13 21.608C14.365 21.608 15.678 21.3041 16.861 20.7622C17.602 22.2027 17.94 22.9163 17.914 22.9163C15.782 23.6432 14.131 24 13 24C9.854 24 6.851 22.7445 4.641 20.4847C3.2968 19.1225 2.29758 17.4492 1.729 15.6083H0V9.59531H1.417C1.84631 7.47097 2.83334 5.5044 4.27335 3.90426C5.71335 2.30413 7.55262 1.13013 9.59599 0.506828C11.6394 -0.116471 13.8106 -0.165814 15.8793 0.364034C17.948 0.893882 19.8371 1.98316 21.346 3.51627C22.9843 5.17513 24.1017 7.2907 24.557 9.59531H26V15.6083H25.922L21.294 19.9297L14.404 19.1368V16.9298H20.683L21.736 15.6479ZM9.451 11.6965C9.841 11.6965 10.218 11.8551 10.491 12.1459C10.7654 12.427 10.9193 12.807 10.9193 13.2031C10.9193 13.5991 10.7654 13.9791 10.491 14.2603C10.218 14.5378 9.841 14.6964 9.451 14.6964C8.632 14.6964 7.969 14.0357 7.969 13.2031C7.969 12.3705 8.632 11.6965 9.451 11.6965ZM16.536 11.6965C17.355 11.6965 18.005 12.3705 18.005 13.2031C18.005 14.0357 17.355 14.6964 16.536 14.6964C15.717 14.6964 15.054 14.0357 15.054 13.2031C15.054 12.8035 15.2101 12.4203 15.4881 12.1378C15.766 11.8553 16.1429 11.6965 16.536 11.6965Z" fill="#19657E"/>
</svg>
