<svg width="20" height="20" viewBox="0 0 20 20" fill="none" xmlns="http://www.w3.org/2000/svg">
<circle cx="10" cy="10" r="10" fill="#D8E4E8"/>
<path d="M9.99982 14.7897C10.1813 14.7897 10.3553 14.8617 10.4837 14.9901C10.612 15.1184 10.6841 15.2924 10.6841 15.4739V16.1581C10.6841 16.3395 10.612 16.5136 10.4837 16.6419C10.3553 16.7702 10.1813 16.8423 9.99982 16.8423C9.81835 16.8423 9.64431 16.7702 9.51599 16.6419C9.38766 16.5136 9.31557 16.3395 9.31557 16.1581V15.4739C9.31557 15.2924 9.38766 15.1184 9.51599 14.9901C9.64431 14.8617 9.81835 14.7897 9.99982 14.7897ZM14.3544 13.387L14.8381 13.8708C14.9628 13.9998 15.0318 14.1726 15.0302 14.352C15.0286 14.5314 14.9567 14.703 14.8298 14.8299C14.7029 14.9568 14.5313 15.0287 14.3519 15.0303C14.1725 15.0318 13.9997 14.9629 13.8706 14.8382L13.3869 14.3545C13.2622 14.2255 13.1932 14.0526 13.1948 13.8732C13.1964 13.6938 13.2683 13.5222 13.3952 13.3954C13.5221 13.2685 13.6937 13.1965 13.8731 13.195C14.0525 13.1934 14.2253 13.2624 14.3544 13.387ZM5.64527 13.387C5.7684 13.2643 5.93363 13.1931 6.1074 13.1878C6.28116 13.1825 6.45043 13.2435 6.58082 13.3585C6.71122 13.4734 6.79296 13.6337 6.80945 13.8068C6.82593 13.9798 6.77593 14.1527 6.66959 14.2902L6.61279 14.3545L6.12903 14.8382C6.00589 14.9609 5.84066 15.0322 5.6669 15.0375C5.49313 15.0428 5.32386 14.9818 5.19347 14.8668C5.06308 14.7518 4.98134 14.5915 4.96485 14.4185C4.94836 14.2454 4.99837 14.0726 5.10471 13.9351L5.1615 13.8708L5.64527 13.387ZM9.99982 5.89492C11.0887 5.89492 12.1329 6.32744 12.9028 7.09733C13.6728 7.86721 14.1053 8.9114 14.1053 10.0002C14.1053 11.089 13.6728 12.1332 12.9028 12.903C12.1329 13.6729 11.0887 14.1054 9.99982 14.1054C8.91098 14.1054 7.86673 13.6729 7.0968 12.903C6.32687 12.1332 5.89433 11.089 5.89433 10.0002C5.89433 8.9114 6.32687 7.86721 7.0968 7.09733C7.86673 6.32744 8.91098 5.89492 9.99982 5.89492ZM4.52584 9.31598C4.70024 9.31617 4.86798 9.38295 4.9948 9.50266C5.12161 9.62238 5.19793 9.786 5.20815 9.96009C5.21837 10.1342 5.16172 10.3056 5.04979 10.4393C4.93785 10.5731 4.77907 10.659 4.60589 10.6796L4.52584 10.6844H3.84159C3.66719 10.6842 3.49944 10.6174 3.37262 10.4977C3.24581 10.378 3.16949 10.2144 3.15927 10.0403C3.14905 9.86619 3.2057 9.69477 3.31763 9.56104C3.42957 9.42731 3.58835 9.34136 3.76153 9.32077L3.84159 9.31598H4.52584ZM16.1581 9.31598C16.3395 9.31598 16.5136 9.38806 16.6419 9.51638C16.7702 9.64469 16.8423 9.81872 16.8423 10.0002C16.8423 10.1816 16.7702 10.3557 16.6419 10.484C16.5136 10.6123 16.3395 10.6844 16.1581 10.6844H15.4738C15.2923 10.6844 15.1183 10.6123 14.99 10.484C14.8617 10.3557 14.7896 10.1816 14.7896 10.0002C14.7896 9.81872 14.8617 9.64469 14.99 9.51638C15.1183 9.38806 15.2923 9.31598 15.4738 9.31598H16.1581ZM5.1615 5.16213C5.27932 5.04433 5.43609 4.97356 5.60238 4.9631C5.76867 4.95265 5.93306 5.00322 6.06471 5.10534L6.12903 5.16213L6.61279 5.64587C6.73551 5.769 6.80676 5.93422 6.81207 6.10798C6.81737 6.28173 6.75634 6.45099 6.64136 6.58138C6.52638 6.71176 6.36609 6.7935 6.19302 6.80999C6.01996 6.82647 5.84711 6.77647 5.70958 6.67013L5.64527 6.61334L5.1615 6.12961C5.03322 6.0013 4.96116 5.8273 4.96116 5.64587C4.96116 5.46444 5.03322 5.29044 5.1615 5.16213ZM14.8381 5.16213C14.9664 5.29044 15.0385 5.46444 15.0385 5.64587C15.0385 5.8273 14.9664 6.0013 14.8381 6.12961L14.3544 6.61334C14.2913 6.67869 14.2158 6.73082 14.1323 6.76668C14.0488 6.80254 13.959 6.82141 13.8682 6.8222C13.7773 6.82299 13.6872 6.80568 13.6031 6.77127C13.519 6.73687 13.4426 6.68607 13.3784 6.62182C13.3141 6.55758 13.2633 6.48119 13.2289 6.3971C13.1945 6.31301 13.1772 6.22292 13.178 6.13207C13.1788 6.04122 13.1976 5.95144 13.2335 5.86796C13.2694 5.78449 13.3215 5.70899 13.3869 5.64587L13.8706 5.16213C13.9989 5.03386 14.1729 4.96181 14.3544 4.96181C14.5358 4.96181 14.7098 5.03386 14.8381 5.16213ZM9.99982 3.15808C10.1813 3.15808 10.3553 3.23017 10.4837 3.35848C10.612 3.4868 10.6841 3.66083 10.6841 3.84229V4.5265C10.6841 4.70797 10.612 4.882 10.4837 5.01031C10.3553 5.13863 10.1813 5.21071 9.99982 5.21071C9.81835 5.21071 9.64431 5.13863 9.51599 5.01031C9.38766 4.882 9.31557 4.70797 9.31557 4.5265V3.84229C9.31557 3.66083 9.38766 3.4868 9.51599 3.35848C9.64431 3.23017 9.81835 3.15808 9.99982 3.15808Z" fill="#466A76"/>
</svg>
