<svg width="27" height="30" viewBox="0 0 27 30" fill="none" xmlns="http://www.w3.org/2000/svg">
<path d="M0.012 2.616C0.03 5.166 0.036 5.238 0.15 5.304C0.216 5.34 0.294 5.406 0.318 5.442C0.342 5.484 0.402 5.52 0.45 5.52C0.498 5.52 0.57 5.574 0.612 5.64C0.654 5.706 0.72 5.76 0.756 5.76C0.786 5.76 0.894 5.838 0.99 5.94C1.086 6.036 1.188 6.12 1.218 6.12C1.254 6.12 1.356 6.204 1.452 6.312C1.542 6.414 1.62 6.48 1.62 6.456C1.62 6.426 1.704 6.492 1.812 6.594C1.914 6.696 2.028 6.78 2.058 6.78C2.088 6.78 2.166 6.846 2.232 6.93C2.298 7.014 2.376 7.08 2.406 7.08C2.454 7.08 2.508 7.122 2.826 7.41C2.88 7.458 2.952 7.5 2.988 7.5C3.024 7.5 3.084 7.554 3.12 7.614C3.15 7.68 3.264 7.746 3.36 7.77C3.462 7.794 3.6 7.872 3.666 7.938C3.732 8.01 3.804 8.076 3.828 8.076C3.984 8.106 4.14 8.184 4.14 8.226C4.14 8.256 4.236 8.316 4.35 8.364C4.464 8.412 4.59 8.484 4.632 8.52C4.758 8.622 5.886 9.18 5.976 9.18C6.024 9.18 6.06 9.204 6.06 9.24C6.06 9.27 6.114 9.3 6.18 9.3C6.246 9.3 6.3 9.324 6.3 9.354C6.3 9.384 6.438 9.438 6.6 9.48C6.768 9.522 6.942 9.594 6.996 9.642C7.044 9.69 7.116 9.738 7.158 9.744C7.404 9.798 7.596 9.87 7.65 9.93C7.686 9.966 7.824 10.032 7.968 10.074C8.106 10.11 8.22 10.17 8.22 10.2C8.22 10.236 8.262 10.26 8.31 10.26C8.358 10.26 8.4 10.284 8.4 10.32C8.4 10.35 8.466 10.38 8.544 10.38C8.628 10.38 8.73 10.416 8.772 10.458C8.814 10.5 8.964 10.584 9.108 10.644C9.246 10.71 9.36 10.776 9.36 10.806C9.36 10.83 9.444 10.866 9.54 10.89C9.642 10.914 9.72 10.95 9.72 10.98C9.72 11.004 9.84 11.082 9.99 11.154C10.14 11.226 10.26 11.304 10.26 11.328C10.26 11.352 10.38 11.424 10.524 11.484C10.674 11.544 10.806 11.628 10.824 11.67C10.836 11.712 10.932 11.766 11.034 11.79C11.136 11.814 11.22 11.868 11.22 11.916C11.22 11.964 11.286 12 11.388 12.006C11.496 12.012 11.514 12.024 11.442 12.042C11.376 12.06 11.346 12.108 11.364 12.156C11.382 12.204 11.346 12.276 11.28 12.312C11.214 12.354 11.16 12.42 11.16 12.462C11.16 12.504 11.13 12.54 11.1 12.54C11.064 12.54 11.046 12.558 11.052 12.582C11.058 12.612 11.01 12.738 10.95 12.87C10.89 13.002 10.836 13.122 10.83 13.14C10.824 13.158 10.788 13.248 10.746 13.344C10.71 13.44 10.662 13.716 10.638 13.962C10.62 14.202 10.578 14.418 10.554 14.436C10.482 14.478 10.482 14.94 10.554 14.94C10.578 14.94 10.62 15.108 10.638 15.312C10.692 15.888 10.824 16.38 10.926 16.38C10.956 16.38 10.98 16.416 10.98 16.464C10.98 16.506 11.04 16.638 11.118 16.746C11.196 16.86 11.25 16.986 11.238 17.022C11.226 17.058 11.268 17.106 11.334 17.13C11.454 17.166 11.676 17.454 11.652 17.538C11.646 17.562 11.712 17.61 11.802 17.646C11.892 17.682 12.018 17.76 12.072 17.82C12.18 17.934 12.12 17.934 8.622 17.952C4.53 17.97 4.776 17.94 4.71 18.492C4.692 18.666 4.68 21.264 4.692 24.258L4.71 29.712L5.07 30L24.15 29.994L24.33 29.85L24.51 29.7V23.982C24.51 18.3 24.51 18.264 24.384 18.138C24.318 18.06 24.198 17.988 24.114 17.976C24.036 17.964 22.41 17.946 20.508 17.946C17.076 17.94 17.04 17.94 17.142 17.826C17.196 17.76 17.262 17.718 17.286 17.73C17.31 17.748 17.406 17.658 17.496 17.538C17.592 17.412 17.754 17.232 17.85 17.136C17.952 17.04 18.024 16.938 18.018 16.908C18.006 16.884 18.03 16.86 18.06 16.86C18.096 16.86 18.12 16.818 18.12 16.77C18.12 16.722 18.15 16.68 18.186 16.68C18.216 16.68 18.234 16.656 18.21 16.626C18.192 16.596 18.204 16.554 18.228 16.536C18.258 16.518 18.318 16.38 18.36 16.23C18.402 16.08 18.456 15.96 18.474 15.96C18.534 15.96 18.66 15.03 18.66 14.604C18.66 14.214 18.564 13.59 18.48 13.434C18.45 13.38 18.402 13.23 18.366 13.098C18.33 12.966 18.246 12.798 18.18 12.72C18.114 12.642 18.06 12.546 18.06 12.504C18.06 12.462 18.006 12.39 17.94 12.342C17.874 12.294 17.838 12.24 17.856 12.222C17.88 12.198 17.832 12.132 17.754 12.066C17.676 12 17.634 11.946 17.664 11.94C17.736 11.94 17.394 11.58 17.322 11.58C17.292 11.58 17.166 11.496 17.04 11.4C16.914 11.298 16.794 11.22 16.77 11.22C16.746 11.22 16.656 11.16 16.566 11.088L16.404 10.95L16.584 10.758C16.92 10.41 17.07 10.23 17.07 10.188C17.07 10.164 17.106 10.11 17.148 10.068C17.184 10.032 17.22 9.96 17.22 9.918C17.22 9.876 17.274 9.816 17.34 9.78C17.406 9.744 17.46 9.684 17.46 9.648C17.46 9.612 17.496 9.534 17.538 9.486C17.586 9.432 17.712 9.144 17.82 8.85C17.97 8.448 18.024 8.208 18.024 7.914C18.03 7.536 18.036 7.524 18.15 7.584C18.216 7.62 18.294 7.686 18.318 7.722C18.342 7.764 18.408 7.8 18.456 7.8C18.504 7.8 18.648 7.866 18.768 7.95C18.888 8.034 19.02 8.1 19.062 8.1C19.104 8.1 19.182 8.148 19.242 8.214C19.302 8.274 19.452 8.358 19.572 8.394C19.692 8.436 19.8 8.484 19.812 8.508C19.83 8.556 20.124 8.718 20.49 8.892C20.622 8.952 20.772 9.03 20.82 9.06C20.868 9.09 21 9.156 21.108 9.204C21.21 9.252 21.3 9.318 21.3 9.348C21.3 9.378 21.42 9.438 21.57 9.474C21.72 9.51 21.894 9.594 21.96 9.66C22.026 9.726 22.122 9.78 22.176 9.78C22.23 9.78 22.344 9.828 22.428 9.888C22.518 9.948 22.68 10.032 22.788 10.074C22.89 10.122 22.98 10.176 22.98 10.2C22.98 10.224 23.088 10.272 23.22 10.314C23.346 10.35 23.49 10.416 23.532 10.464C23.574 10.506 23.682 10.554 23.76 10.572C23.928 10.614 24.264 10.728 24.462 10.818C24.672 10.914 26.1 10.89 26.28 10.794C26.7 10.56 26.736 10.512 26.754 10.206C26.76 9.978 26.73 9.852 26.622 9.678C26.424 9.36 25.422 8.4 25.296 8.4C25.26 8.4 25.152 8.334 25.056 8.25C24.96 8.166 24.864 8.1 24.84 8.1C24.822 8.1 24.708 8.016 24.6 7.92C24.492 7.818 24.366 7.74 24.33 7.74C24.294 7.74 24.228 7.686 24.18 7.626C24.138 7.56 24.078 7.518 24.054 7.53C24.03 7.548 23.97 7.494 23.916 7.41C23.862 7.326 23.796 7.266 23.772 7.272C23.682 7.29 23.484 7.17 23.382 7.038C23.322 6.96 23.25 6.912 23.22 6.93C23.196 6.948 23.13 6.894 23.076 6.81C23.022 6.726 22.938 6.66 22.89 6.66C22.842 6.66 22.71 6.576 22.602 6.48C22.488 6.378 22.368 6.3 22.332 6.3C22.302 6.3 22.26 6.258 22.236 6.21C22.218 6.162 22.164 6.12 22.116 6.12C22.062 6.12 21.996 6.066 21.96 6C21.924 5.934 21.858 5.88 21.804 5.88C21.756 5.88 21.702 5.838 21.684 5.79C21.66 5.736 21.528 5.64 21.384 5.574C21.24 5.508 21.12 5.43 21.12 5.4C21.12 5.37 21.03 5.304 20.916 5.25C20.802 5.196 20.664 5.1 20.604 5.034C20.55 4.974 20.478 4.92 20.448 4.92C20.406 4.92 20.346 4.872 20.034 4.59C19.98 4.542 19.908 4.5 19.866 4.5C19.83 4.5 19.782 4.458 19.764 4.41C19.74 4.362 19.686 4.32 19.644 4.32C19.596 4.32 19.542 4.278 19.524 4.23C19.5 4.182 19.44 4.14 19.38 4.14C19.32 4.14 19.248 4.086 19.23 4.02C19.212 3.954 19.14 3.9 19.074 3.9C19.014 3.9 18.906 3.846 18.846 3.786C18.78 3.72 18.636 3.618 18.528 3.564C18.42 3.51 18.294 3.414 18.252 3.354C18.21 3.288 18.132 3.24 18.084 3.24C18.036 3.24 18 3.216 18 3.18C18 3.15 17.904 3.084 17.79 3.03C17.676 2.976 17.556 2.892 17.514 2.844C17.478 2.796 17.406 2.76 17.364 2.76C17.316 2.76 17.28 2.73 17.28 2.7C17.28 2.664 17.244 2.64 17.196 2.64C17.148 2.64 17.1 2.604 17.082 2.556C17.064 2.514 16.974 2.454 16.884 2.436C16.788 2.412 16.68 2.34 16.632 2.274C16.59 2.214 16.518 2.16 16.47 2.16C16.428 2.16 16.35 2.124 16.308 2.076C16.26 2.034 16.128 1.95 16.02 1.89C15.906 1.83 15.798 1.764 15.78 1.746C15.756 1.716 15.582 1.614 15.21 1.416C15.144 1.38 15.078 1.338 15.06 1.32C15.042 1.302 14.91 1.236 14.76 1.17C14.52 1.062 14.358 1.05 12.96 1.05C11.1 1.05 10.386 1.074 9.99 1.152C9.642 1.218 8.898 1.29 7.95 1.356C7.59 1.38 7.254 1.428 7.206 1.464C7.08 1.56 4.908 1.554 4.878 1.452C4.86 1.416 4.77 1.38 4.674 1.38C4.476 1.38 3.996 1.278 3.81 1.2C3.702 1.152 3.354 1.062 3.21 1.044C3.054 1.026 2.82 0.941999 2.82 0.905998C2.82 0.881998 2.646 0.827997 2.43 0.785997C2.214 0.743998 2.016 0.671999 1.992 0.629999C1.968 0.587999 1.872 0.539999 1.77 0.521999C1.674 0.504 1.536 0.479998 1.47 0.461998C1.404 0.443996 1.278 0.413998 1.188 0.389997C1.092 0.365997 1.02 0.323999 1.02 0.299999C1.02 0.275999 0.9 0.221998 0.75 0.185997C0.6 0.149998 0.48 0.0899982 0.48 0.0599976C0.48 0.0239983 0.372 0 0.24 0H0L0.012 2.616ZM12.57 6C12.588 6.03 12.72 6.06 12.858 6.06C13.164 6.06 13.56 6.162 13.56 6.24C13.56 6.276 13.614 6.3 13.68 6.3C13.866 6.3 14.298 6.492 14.412 6.63C14.472 6.696 14.514 6.726 14.52 6.696C14.52 6.666 14.556 6.678 14.604 6.72C14.652 6.756 14.676 6.828 14.658 6.876C14.64 6.924 14.664 6.96 14.706 6.96C14.808 6.96 15.126 7.596 15.12 7.782C15.12 7.854 15.09 7.932 15.06 7.95C15.024 7.974 15.012 8.016 15.03 8.046C15.054 8.076 15.036 8.1 15 8.1C14.958 8.1 14.946 8.142 14.964 8.196C14.982 8.25 14.94 8.418 14.868 8.568C14.802 8.724 14.736 8.862 14.73 8.88C14.73 8.898 14.664 9.03 14.598 9.18C14.526 9.33 14.424 9.594 14.364 9.762C14.304 9.936 14.238 10.08 14.214 10.08C14.19 10.08 14.154 10.212 14.13 10.38C14.088 10.674 14.082 10.68 13.89 10.68C13.782 10.68 13.644 10.698 13.584 10.722C13.518 10.746 13.494 10.734 13.518 10.698C13.536 10.668 13.464 10.566 13.35 10.47C13.236 10.38 13.14 10.278 13.14 10.242C13.14 10.152 12.894 9.9 12.81 9.9C12.768 9.9 12.66 9.81 12.564 9.702C12.372 9.492 12.042 9.24 11.946 9.24C11.91 9.24 11.856 9.186 11.82 9.12C11.784 9.054 11.718 9 11.676 9C11.634 9 11.52 8.904 11.424 8.79C11.328 8.676 11.22 8.58 11.19 8.58C11.118 8.58 10.92 8.364 10.92 8.28C10.92 8.25 10.866 8.196 10.794 8.16C10.728 8.118 10.686 8.076 10.704 8.052C10.728 8.034 10.692 7.962 10.626 7.896C10.398 7.65 10.206 6.72 10.38 6.72C10.416 6.72 10.44 6.672 10.44 6.612C10.44 6.522 10.668 6.3 10.914 6.15C10.962 6.126 11.106 6.09 11.244 6.078C11.382 6.06 11.514 6.024 11.55 5.994C11.622 5.922 12.522 5.928 12.57 6ZM15.888 12.54C15.822 12.642 15.744 12.66 15.408 12.66C15.186 12.66 14.994 12.684 14.976 12.714C14.958 12.738 15.012 12.852 15.09 12.96C15.174 13.074 15.24 13.212 15.24 13.272C15.24 13.362 15.294 13.38 15.606 13.38C15.924 13.38 15.966 13.392 15.9 13.464C15.864 13.512 15.702 13.56 15.552 13.572C15.294 13.59 15.264 13.608 15.204 13.788C15.03 14.334 14.544 14.7 14.004 14.7C13.926 14.7 13.848 14.73 13.83 14.76C13.788 14.832 14.142 15.402 14.256 15.444C14.304 15.462 14.34 15.516 14.34 15.564C14.34 15.618 14.394 15.684 14.46 15.72C14.526 15.756 14.58 15.822 14.58 15.87C14.58 15.918 14.64 15.996 14.712 16.044C14.784 16.098 14.826 16.14 14.796 16.14C14.772 16.14 14.856 16.266 14.982 16.422C15.42 16.962 15.408 16.92 15.108 16.92C14.85 16.92 14.826 16.908 14.544 16.548C14.202 16.104 14.136 16.026 13.944 15.816C13.866 15.726 13.8 15.63 13.8 15.606C13.8 15.576 13.758 15.54 13.71 15.516C13.662 15.498 13.59 15.414 13.56 15.33C13.53 15.246 13.476 15.18 13.446 15.18C13.368 15.18 13.2 14.862 13.2 14.712C13.2 14.61 13.26 14.592 13.662 14.556C13.914 14.538 14.136 14.496 14.154 14.466C14.172 14.442 14.274 14.376 14.382 14.322C14.574 14.22 14.814 13.752 14.73 13.626C14.706 13.584 14.412 13.56 13.944 13.56H13.194L13.236 13.422C13.296 13.23 13.296 13.23 13.59 13.308C13.908 13.392 14.616 13.404 14.67 13.326C14.736 13.212 14.556 12.96 14.358 12.888C14.25 12.846 14.16 12.798 14.16 12.774C14.16 12.75 13.944 12.714 13.68 12.69C13.416 12.666 13.2 12.642 13.2 12.63C13.2 12.618 13.218 12.57 13.236 12.516C13.266 12.432 13.446 12.42 14.616 12.42C15.948 12.42 15.96 12.42 15.888 12.54ZM18.024 19.74C18.258 19.83 18.468 20.442 18.3 20.55C18.27 20.568 18.24 20.64 18.24 20.706C18.24 20.79 18.186 20.832 18.06 20.862C17.958 20.88 17.862 20.922 17.844 20.946C17.796 21.03 11.424 21.012 11.262 20.928C11.19 20.892 11.088 20.844 11.04 20.82C10.992 20.796 10.944 20.706 10.932 20.616C10.92 20.532 10.884 20.46 10.854 20.46C10.824 20.46 10.8 20.406 10.8 20.34C10.8 20.274 10.83 20.22 10.866 20.22C10.902 20.22 10.92 20.178 10.896 20.13C10.878 20.082 10.896 20.04 10.932 20.04C10.968 20.04 10.98 20.022 10.962 20.004C10.908 19.95 11.034 19.728 11.1 19.77C11.13 19.788 11.166 19.776 11.19 19.74C11.238 19.662 17.814 19.656 18.024 19.74Z" fill="#68909D"/>
</svg>
