<svg width="44" height="34" viewBox="0 0 44 34" fill="none" xmlns="http://www.w3.org/2000/svg">
<path fill-rule="evenodd" clip-rule="evenodd" d="M26.9192 0C27.9536 0 28.6259 0.0653093 29.3758 0.261237C29.9447 0.417979 30.8498 0.770649 31.3799 1.04495C31.91 1.33231 32.7117 1.86785 33.1642 2.24664C33.6038 2.62543 34.2373 3.29159 34.5606 3.72263C34.8709 4.15367 35.3105 4.85901 35.5174 5.29005C35.7242 5.72109 36.0087 6.54399 36.1638 7.11871C36.3449 7.83711 36.4224 8.58164 36.4224 9.46984C36.4224 10.358 36.3449 11.1026 36.1638 11.821C36.0087 12.3957 35.7242 13.2186 35.5174 13.6496C35.3105 14.0807 34.8709 14.786 34.5606 15.2171C34.2373 15.6481 33.6038 16.3143 33.1642 16.693C32.7117 17.0718 31.91 17.6074 31.3799 17.8947C30.8498 18.169 29.9447 18.5217 29.3758 18.6784C28.6518 18.8613 27.9277 18.9397 26.9839 18.9397C26.04 18.9397 25.316 18.8613 24.5919 18.6784C24.023 18.5217 23.1179 18.169 22.5878 17.8947C22.0577 17.6074 21.2561 17.0718 20.8036 16.693C20.364 16.3143 19.7304 15.6481 19.4072 15.2171C19.0969 14.786 18.6573 14.0807 18.4504 13.6496C18.2435 13.2186 17.9591 12.3957 17.8039 11.821C17.6229 11.1026 17.5453 10.358 17.5453 9.46984C17.5453 8.58164 17.6229 7.83711 17.8039 7.11871C17.9591 6.54399 18.2435 5.72109 18.4504 5.29005C18.6573 4.85901 19.0969 4.15367 19.4072 3.72263C19.7304 3.29159 20.364 2.62543 20.8036 2.24664C21.2561 1.86785 22.0577 1.33231 22.5878 1.04495C23.1179 0.770649 23.9972 0.417979 24.5273 0.274299C25.1996 0.091433 25.9366 0.0130619 26.9192 0V0ZM24.2299 3.17403C24.0359 3.29159 23.7773 3.59201 23.661 3.81406C23.5446 4.04917 23.4024 4.59777 23.3507 5.02881C23.299 5.45985 23.2085 6.13907 23.1697 6.53093C23.0921 7.19708 23.1179 7.28851 23.48 7.79793C23.6998 8.11141 23.8808 8.39877 23.8808 8.45102C23.8808 8.51633 24.0489 8.80369 24.2687 9.10411C24.4755 9.4176 24.7471 9.66577 24.8505 9.66577C24.9539 9.66577 25.0703 9.7572 25.1091 9.8617C25.1608 10.0054 25.3548 10.0576 25.8202 10.0576C26.234 10.0576 26.5055 9.99232 26.5701 9.87476C26.6218 9.78333 26.8158 9.62659 27.0097 9.52209C27.2295 9.40453 27.5657 8.92125 27.9536 8.16366C28.5096 7.09259 28.5613 6.93584 28.4837 6.40031C28.432 6.07376 28.3415 5.5121 28.2898 5.15943C28.238 4.7937 28.07 4.2451 27.9277 3.91856C27.7855 3.59201 27.5269 3.23934 27.3588 3.12178C27.1907 3.00423 26.6994 2.88667 26.2727 2.84748C25.8461 2.8083 25.2901 2.8083 25.0444 2.86055C24.7988 2.89973 24.4368 3.04341 24.2428 3.17403H24.2299ZM30.1128 9.4829C29.9059 9.53515 29.6344 9.49597 29.4922 9.40453C29.2724 9.27392 29.1819 9.30004 28.9233 9.56128C28.6647 9.80945 28.6389 9.92701 28.7423 10.2536C28.8069 10.4756 28.8457 10.7499 28.8199 10.8805C28.794 10.9981 28.6001 11.194 28.3932 11.2985C28.07 11.4552 28.0053 11.5728 28.0053 11.9516C28.0053 12.3304 28.07 12.4479 28.3932 12.6047C28.6001 12.7092 28.794 12.9051 28.8199 13.0357C28.8328 13.1533 28.794 13.4145 28.7164 13.6104C28.613 13.8978 28.6259 14.0023 28.8457 14.2374C29.0526 14.4595 29.1948 14.4987 29.5568 14.4333C29.8154 14.3811 30.1387 14.4072 30.3068 14.4856C30.4619 14.564 30.5912 14.7468 30.5912 14.8905C30.5912 15.0603 30.6946 15.1779 30.8886 15.2171C31.0437 15.2432 31.3023 15.2432 31.4704 15.2171C31.6256 15.1779 31.7549 15.0603 31.7549 14.9558C31.7549 14.8513 31.8583 14.6685 31.9876 14.5509C32.1557 14.3942 32.3496 14.355 32.7634 14.4203C33.203 14.4856 33.3581 14.4464 33.565 14.2374C33.7072 14.0937 33.8236 13.9239 33.8236 13.8456C33.8236 13.7672 33.7719 13.6888 33.6943 13.6496C33.6167 13.6105 33.565 13.4406 33.565 13.2578C33.565 13.0227 33.6943 12.8398 34.0175 12.6439C34.3666 12.4088 34.4701 12.252 34.4701 11.9516C34.4701 11.6512 34.3666 11.4944 34.0175 11.2724C33.7202 11.0765 33.565 10.8675 33.565 10.6846C33.565 10.5148 33.6297 10.3319 33.7072 10.2536C33.802 10.1665 33.8064 10.0359 33.7202 9.8617C33.6555 9.71802 33.5004 9.50903 33.384 9.40453C33.203 9.23473 33.1254 9.23473 32.8797 9.39147C32.7117 9.49597 32.4531 9.53515 32.2462 9.4829C31.9876 9.43066 31.8454 9.28698 31.7549 9.01268C31.6385 8.67307 31.5609 8.62082 31.173 8.62082C30.7722 8.62082 30.6946 8.67307 30.5912 9.01268C30.5007 9.28698 30.3585 9.43066 30.1128 9.4829ZM20.6613 11.3638C20.364 11.8732 20.2476 12.239 20.2476 12.6439C20.2476 12.9443 20.1959 13.1925 20.1183 13.1925C20.0407 13.1925 19.989 13.2708 19.989 13.3623C19.989 13.4406 20.1442 13.6104 20.3381 13.7411C20.545 13.8586 21.2432 14.0415 21.8896 14.159C22.7042 14.3027 23.8808 14.368 25.5228 14.368C26.8675 14.368 27.9924 14.3419 28.0182 14.3027C28.0441 14.2635 27.9277 13.9239 27.7467 13.5582C27.4881 12.9965 27.4235 12.67 27.4364 11.8863C27.4364 11.0895 27.5011 10.776 27.7855 10.2274C27.9794 9.84864 28.1346 9.50903 28.1346 9.46984C28.1346 9.43066 28.0312 9.40453 27.9019 9.40453C27.7855 9.40453 27.5528 9.57434 27.3847 9.79639C27.2295 10.0054 26.9968 10.1882 26.8675 10.1882C26.7511 10.1882 26.4667 10.2536 26.2598 10.345C25.9495 10.4625 25.7426 10.4625 25.2901 10.3189C24.9669 10.2144 24.4885 9.97926 24.217 9.77027C23.9584 9.57434 23.6868 9.40453 23.6222 9.40453C23.5575 9.40453 22.9499 9.67883 22.2905 10.0315C21.2044 10.5932 21.0492 10.7107 20.6613 11.3638ZM14.2354 17.6466C14.662 17.6335 15.3602 17.6988 15.7869 17.7772C16.2136 17.8425 17.0023 18.0645 17.5324 18.2343C18.0625 18.4172 18.8771 18.7829 19.3425 19.0311C19.808 19.2924 20.4157 19.6842 20.7001 19.9193C20.9846 20.1414 21.6569 20.6116 22.187 20.9643C22.7171 21.3169 23.6481 21.9047 24.2557 22.2705C24.8634 22.6493 26.1952 23.3677 27.2295 23.8901C28.2639 24.4126 29.6603 25.0657 30.3326 25.3531C31.005 25.6404 31.6644 25.967 31.8066 26.0976C31.9359 26.2151 32.1298 26.5156 32.2203 26.7507C32.3238 26.9727 32.4013 27.3254 32.4013 27.5344C32.4013 27.7564 32.272 28.0177 32.0522 28.2397C31.8454 28.4357 31.4316 28.6838 31.1084 28.8014C30.7593 28.932 30.3197 28.9843 30.0094 28.9451C29.7249 28.9189 28.8199 28.6185 28.0053 28.292C27.1907 27.9785 26.0271 27.4952 25.4194 27.234C24.8117 26.9727 23.9454 26.6201 23.48 26.4633C23.0145 26.2935 22.3163 26.0845 21.9284 25.9931C21.5405 25.9017 20.8294 25.8233 20.3381 25.8363C19.8597 25.8494 19.4201 25.8886 19.3425 25.9278C19.2649 25.967 19.2132 26.0845 19.2132 26.189C19.2132 26.3458 19.3942 26.3849 20.0795 26.3719C20.5708 26.3719 21.2432 26.4372 21.6052 26.5156C21.9543 26.5939 22.6266 26.7768 23.0921 26.9335C23.5575 27.0903 24.7729 27.5866 25.8073 28.0438C26.8416 28.514 28.057 29.0104 28.5225 29.1671C29.0828 29.3587 29.6646 29.4501 30.268 29.4414C30.9403 29.4284 31.3411 29.35 31.8195 29.1149C32.1686 28.9451 32.5565 28.6316 32.6858 28.4095C32.8539 28.1352 32.9185 27.7956 32.8927 27.2993C32.8797 26.9074 32.9056 26.5025 32.9573 26.4241C33.009 26.3327 33.5262 26.0192 34.108 25.7318C34.7028 25.4445 35.4656 25.0526 35.8277 24.8828C36.1768 24.7 36.6164 24.4649 36.7974 24.3734C36.9784 24.2689 37.7412 23.8509 38.5041 23.4591C39.7065 22.8321 40.0039 22.7276 40.6116 22.7276C40.9995 22.7276 41.5684 22.8321 41.8658 22.9497C42.1761 23.0672 42.6545 23.3285 42.9389 23.5244C43.2492 23.7203 43.5207 24.0469 43.6242 24.3081C43.7535 24.6869 43.7535 24.8045 43.5595 25.1571C43.4302 25.3922 42.5381 26.2935 41.5813 27.1948C40.6245 28.083 39.6031 28.9843 39.3186 29.2063C39.0342 29.4284 38.5041 29.8202 38.155 30.0684C37.793 30.3166 37.2111 30.6692 36.862 30.8521C36.5 31.048 35.8923 31.3223 35.5044 31.466C35.1165 31.6227 34.2115 31.9101 33.5004 32.1191C32.7892 32.315 31.91 32.5632 31.5609 32.6416C31.1989 32.733 30.5912 32.8897 30.2033 33.0073C29.8154 33.1249 29.2595 33.2816 28.975 33.373C28.6906 33.4645 28.1346 33.582 27.7467 33.6343C27.3588 33.6865 26.9192 33.778 26.777 33.8563C26.6348 33.9347 26.221 34 25.8719 34C25.5099 34 24.6695 33.8955 23.9972 33.7518C22.9757 33.5559 22.4198 33.3338 20.7001 32.4456C19.5623 31.8579 17.8815 30.9305 16.9506 30.3819C16.0196 29.8333 14.9465 29.2585 14.5586 29.1149C14.1707 28.9712 13.5242 28.7622 13.1363 28.6577C12.7485 28.5532 12.0115 28.4748 11.5202 28.4748C11.0288 28.4748 10.2013 28.5663 9.71002 28.6708C9.2187 28.7753 8.6498 28.8928 8.44293 28.932C8.17141 28.9843 8.06797 28.932 7.96454 28.71C7.89989 28.5401 7.74474 27.874 7.6413 27.234C7.52493 26.5939 7.31806 25.4706 7.18877 24.7522C7.05947 24.0338 6.86553 22.9758 6.74916 22.4011C6.6328 21.8264 6.49057 21.1471 6.42592 20.899C6.36128 20.6508 6.34835 20.3765 6.40006 20.2851C6.43885 20.1936 6.73623 20.0369 7.05947 19.9193C7.38271 19.8148 7.73181 19.7234 7.83524 19.7234C7.93868 19.7234 8.28778 19.5667 8.61101 19.3577C8.93425 19.1487 9.72295 18.7829 10.3565 18.5217C10.99 18.2605 11.727 18.0123 11.9727 17.9731C12.2184 17.9339 12.658 17.8425 12.9424 17.7772C13.2269 17.7119 13.8087 17.6596 14.2354 17.6466ZM3.14182 19.227C3.65901 19.214 4.18912 19.2532 4.30548 19.3185C4.43478 19.3838 4.64165 19.6581 4.75802 19.9324C4.88731 20.2197 5.13297 21.2908 5.31398 22.3358C5.50793 23.3807 5.76652 24.8175 5.89581 25.5359C6.03804 26.2543 6.24491 27.3123 6.36128 27.8871C6.47764 28.4618 6.60694 29.1932 6.6328 29.5198C6.68451 29.9639 6.6328 30.1729 6.45178 30.3819C6.30956 30.5386 5.67601 30.826 4.86145 31.0872C4.11154 31.3223 3.28405 31.5966 3.01253 31.6881C2.59878 31.8448 2.50828 31.8448 2.34019 31.675C2.23676 31.5705 2.0816 31.048 2.00403 30.5386C1.91352 30.0161 1.77129 29.2586 1.68079 28.8667C1.57735 28.4748 1.49977 28.0177 1.49977 27.8609C1.49977 27.6911 1.4222 27.1948 1.31876 26.7507C1.21532 26.2935 1.03431 25.4837 0.930875 24.9481C0.827439 24.4126 0.633496 23.4068 0.53006 22.7276C0.413694 22.0484 0.23268 21.121 0.129244 20.6769C0.0258079 20.2197 -0.0259102 19.7626 0.0128784 19.6581C0.051667 19.5536 0.206821 19.436 0.361976 19.3969C0.53006 19.3577 1.00845 19.3185 1.43513 19.2924C1.8618 19.2662 2.63757 19.2401 3.14182 19.227ZM4.34427 29.768C4.4865 30.0031 4.66751 30.1206 4.96489 30.1468C5.31398 30.1729 5.40449 30.1076 5.57258 29.781C5.70187 29.5328 5.72773 29.3108 5.65015 29.1671C5.59843 29.0365 5.44328 28.8928 5.32691 28.8406C5.21055 28.7753 5.00368 28.7361 4.86145 28.7361C4.71923 28.7361 4.49942 28.8928 4.38306 29.0757C4.17619 29.3892 4.16326 29.4545 4.34427 29.768ZM36.2802 20.4418C36.5259 20.481 36.8232 20.5985 36.9267 20.703C37.0948 20.8728 37.0948 20.9251 36.9267 21.0818C36.8232 21.1733 36.2026 21.4867 35.5691 21.748C34.9355 22.0223 34.3149 22.3227 34.2115 22.4011C34.108 22.4925 33.7589 22.7015 33.4357 22.8582C33.1125 23.015 32.7634 23.224 32.6599 23.3154C32.5565 23.3938 32.2203 23.5636 31.91 23.6811C31.6126 23.8118 31.2506 23.8771 31.1084 23.8379C30.9662 23.7987 30.8239 23.6811 30.7852 23.5766C30.7464 23.4721 30.7981 23.224 30.9015 23.028C31.0179 22.7799 31.4575 22.4403 32.2203 22.0223C32.8539 21.6696 33.927 21.1602 34.5994 20.8859C35.4786 20.5332 35.957 20.4026 36.2802 20.4418ZM38.3101 21.2908C38.4782 21.2908 38.7497 21.4345 38.9308 21.6174C39.1118 21.8002 39.2281 22.0223 39.1893 22.1137C39.1635 22.1921 38.5041 22.5317 37.7542 22.8582C36.9913 23.1848 36.3578 23.4852 36.3319 23.5505C36.3061 23.6028 35.9699 23.7987 35.5949 23.9816C35.2329 24.1644 34.6252 24.4779 34.2761 24.6608C33.9141 24.8567 33.4486 25.131 33.2418 25.2616C33.0349 25.4053 32.7117 25.5098 32.5306 25.5098C32.3496 25.4967 32.1298 25.3922 32.0393 25.2486C31.9488 25.1179 31.8842 24.8828 31.8842 24.7261C31.8842 24.5563 32.0135 24.282 32.1686 24.1122C32.3367 23.9424 32.7763 23.6811 33.1383 23.5244C33.5133 23.3807 34.0434 23.1064 34.302 22.9236C34.5735 22.7407 35.1941 22.4403 35.6984 22.2574C36.2026 22.0745 36.9267 21.7872 37.3146 21.6043C37.7024 21.4345 38.155 21.2908 38.3101 21.2908ZM31.1989 10.0576C31.367 10.0576 31.6514 10.136 31.8454 10.2405C32.0522 10.3319 32.3626 10.5932 32.5565 10.8283C32.7634 11.0503 32.9573 11.3899 32.9961 11.5989C33.0478 11.7949 33.022 12.1606 32.9444 12.4088C32.8668 12.6569 32.6341 13.0227 32.4401 13.2186C32.2462 13.4015 31.8712 13.6105 31.6256 13.6888C31.3023 13.7672 31.0308 13.7541 30.6559 13.6235C30.3714 13.519 30.0611 13.3753 29.9577 13.2839C29.8542 13.1925 29.6603 12.879 29.531 12.5786C29.337 12.1083 29.3241 11.9385 29.4405 11.5336C29.5181 11.2593 29.6861 10.8936 29.8025 10.7107C29.9189 10.5409 30.2163 10.3189 30.4619 10.2274C30.7076 10.136 31.0437 10.0707 31.1989 10.0576Z" fill="#D8E4E8"/>
</svg>
