<svg width="23" height="18" viewBox="0 0 23 18" fill="none" xmlns="http://www.w3.org/2000/svg">
<path d="M23 16.5002C23 16.7752 22.9271 17.045 22.7894 17.28C22.6517 17.5149 22.4544 17.7061 22.2191 17.8324C21.9838 17.9588 21.7196 18.0155 21.4553 17.9964C21.1911 17.9773 20.937 17.8831 20.7208 17.7241L10.6105 10.2802C10.4226 10.1422 10.2693 9.95975 10.1631 9.74786C10.0569 9.53597 10.001 9.30081 10 9.06195C9.99902 8.82309 10.053 8.58744 10.1574 8.37461C10.2618 8.16177 10.4137 7.97792 10.6003 7.83834L20.7107 0.283427C20.9264 0.121868 21.1809 0.025287 21.446 0.00432678C21.7112 -0.0166335 21.9768 0.0388403 22.2136 0.164638C22.4503 0.290435 22.649 0.481669 22.7878 0.717263C22.9266 0.952857 23 1.22366 23 1.49983V16.5002Z" fill="#296F96"/>
<path d="M13 16.5002C13 16.7752 12.9271 17.045 12.7894 17.28C12.6517 17.5149 12.4544 17.7061 12.2191 17.8324C11.9838 17.9588 11.7196 18.0155 11.4553 17.9964C11.1911 17.9773 10.937 17.8831 10.7208 17.7241L0.610452 10.2802C0.422644 10.1422 0.269268 9.95975 0.16309 9.74786C0.0569117 9.53597 0.00100236 9.30081 1.33538e-05 9.06195C-0.000975653 8.82309 0.0529845 8.58744 0.157404 8.37461C0.261823 8.16177 0.413682 7.97792 0.600341 7.83834L10.7107 0.283427C10.9264 0.121868 11.1809 0.025287 11.446 0.00432678C11.7112 -0.0166335 11.9768 0.0388403 12.2136 0.164638C12.4503 0.290435 12.649 0.481669 12.7878 0.717263C12.9266 0.952857 13 1.22366 13 1.49983V16.5002Z" fill="#296F96"/>
</svg>
