<svg width="23" height="18" viewBox="0 0 23 18" fill="none" xmlns="http://www.w3.org/2000/svg">
<path d="M0 16.5002C9.73815e-06 16.7752 0.0728631 17.045 0.210592 17.28C0.348321 17.5149 0.54562 17.7061 0.78091 17.8324C1.0162 17.9588 1.28042 18.0155 1.54467 17.9964C1.80891 17.9773 2.06301 17.8831 2.27917 17.7241L12.3895 10.2802C12.5774 10.1422 12.7307 9.95975 12.8369 9.74786C12.9431 9.53597 12.999 9.30081 13 9.06195C13.001 8.82309 12.947 8.58744 12.8426 8.37461C12.7382 8.16177 12.5863 7.97792 12.3997 7.83834L2.28928 0.283427C2.07359 0.121868 1.81914 0.025287 1.55396 0.00432678C1.28878 -0.0166335 1.02318 0.0388403 0.786433 0.164638C0.549683 0.290435 0.350974 0.481669 0.212208 0.717263C0.0734429 0.952857 8.85354e-06 1.22366 0 1.49983V16.5002Z" fill="#296F96"/>
<path d="M10 16.5002C10 16.7752 10.0729 17.045 10.2106 17.28C10.3483 17.5149 10.5456 17.7061 10.7809 17.8324C11.0162 17.9588 11.2804 18.0155 11.5447 17.9964C11.8089 17.9773 12.063 17.8831 12.2792 17.7241L22.3895 10.2802C22.5774 10.1422 22.7307 9.95975 22.8369 9.74786C22.9431 9.53597 22.999 9.30081 23 9.06195C23.001 8.82309 22.947 8.58744 22.8426 8.37461C22.7382 8.16177 22.5863 7.97792 22.3997 7.83834L12.2893 0.283427C12.0736 0.121868 11.8191 0.025287 11.554 0.00432678C11.2888 -0.0166335 11.0232 0.0388403 10.7864 0.164638C10.5497 0.290435 10.351 0.481669 10.2122 0.717263C10.0734 0.952857 10 1.22366 10 1.49983V16.5002Z" fill="#296F96"/>
</svg>
