<svg width="17" height="19" viewBox="0 0 17 19" fill="none" xmlns="http://www.w3.org/2000/svg">
<path d="M1.86471 0.0991764C1.74692 0.14201 1.53274 0.313349 1.38282 0.47398C1.14723 0.72028 1.1151 0.880909 1.08298 1.63052C1.06156 2.11241 1.14723 3.78296 1.26503 5.34643C1.44707 7.71305 1.69337 11.7502 1.8433 14.7487L1.87542 15.4126H1.1044C0.119197 15.4126 0.0549452 15.4876 0.0121105 16.6869C-0.0200155 17.5008 0.00140182 17.64 0.204867 17.9077C0.697466 18.5288 1.38282 18.1326 1.38282 17.2331C1.38282 16.7298 1.40424 16.6976 1.65054 16.6976C1.88613 16.6976 1.91826 16.7405 1.91826 17.126C1.91826 17.6828 2.44298 18.2825 3.28897 18.7002L3.89936 19H8.5041H13.1088L13.6978 18.7216C14.0298 18.5717 14.4688 18.2932 14.683 18.1005L15.0685 17.7685L15.1328 15.2198C15.2613 10.3474 15.529 6.44942 15.8931 3.68658C16.2036 1.41634 16.0858 0.634609 15.3791 0.206263C15.0471 0.00279808 14.8008 -0.00791168 8.55764 0.00279808C4.99165 0.00279808 1.98251 0.0456333 1.86471 0.0991764ZM13.4087 3.60091C13.141 5.17509 12.6269 11.0756 12.6269 12.6926C12.6269 12.9175 12.2521 13.2601 12.1343 13.1424C12.1129 13.1102 11.8773 11.1505 11.6096 8.7625C11.3419 6.38517 11.0956 4.35052 11.0635 4.24344C11.0099 4.08281 10.7958 4.06139 8.55764 4.06139C7.20835 4.06139 6.08393 4.10422 6.05181 4.15777C6.01968 4.2006 5.77338 6.26738 5.49496 8.73037C5.22724 11.1934 4.99165 13.228 4.97023 13.2494C4.95952 13.2601 4.82031 13.228 4.67039 13.1745C4.40267 13.0674 4.40267 13.046 4.33842 11.5896C4.19921 8.35557 3.87795 4.80029 3.56739 3.11902L3.50314 2.77635H8.52551H13.5586L13.4087 3.60091ZM7.85087 10.176C8.26851 10.3046 8.67544 10.4545 8.7504 10.508C8.81465 10.5723 8.8789 10.8293 8.8789 11.0863C8.8789 11.4397 8.92173 11.5575 9.03953 11.5575C9.13591 11.5575 9.32866 11.6753 9.46788 11.8252C9.69276 12.0501 9.73559 12.1786 9.73559 12.7783C9.73559 13.3565 9.69276 13.5172 9.46788 13.7849C9.26441 14.0312 9.20016 14.2239 9.20016 14.6416C9.20016 15.2305 9.1252 15.3055 8.5041 15.3055C8.0115 15.3055 7.80803 15.0699 7.80803 14.4916C7.80803 14.1597 7.74378 13.9562 7.59386 13.8063C7.42252 13.635 7.37968 13.4529 7.37968 12.8425C7.37968 12.1786 7.41181 12.0501 7.6474 11.8252C7.78661 11.6753 7.97937 11.5575 8.07575 11.5575C8.17213 11.5575 8.23638 11.4611 8.23638 11.2897C8.23638 11.0649 8.15071 11.0006 7.47606 10.8079C6.73716 10.583 6.54441 10.4223 6.67291 10.1118C6.74787 9.89762 6.94063 9.90833 7.85087 10.176Z" fill="#17627C"/>
</svg>
