<svg width="411" height="180" viewBox="0 0 411 180" fill="none" xmlns="http://www.w3.org/2000/svg">
<rect x="3.5" y="30.875" width="404" height="148.625" fill="white" stroke="#585858"/>
<g filter="url(#filter0_d_1951_2079)">
<rect x="4.125" y="54" width="402.75" height="23.625" fill="#A6DFFF"/>
</g>
<rect x="3" width="405" height="28.125" fill="#305055"/>
<line x1="83.375" y1="31.5" x2="83.375" y2="180" stroke="#585858"/>
<line x1="137.375" y1="31.5" x2="137.375" y2="180" stroke="#585858"/>
<line x1="191.375" y1="31.5" x2="191.375" y2="180" stroke="#585858"/>
<line x1="245.375" y1="31.5" x2="245.375" y2="180" stroke="#585858"/>
<line x1="299.375" y1="31.5" x2="299.375" y2="180" stroke="#585858"/>
<line x1="353.375" y1="31.5" x2="353.375" y2="180" stroke="#585858"/>
<line x1="3" y1="53.5" x2="408" y2="53.5" stroke="#585858"/>
<line x1="3" y1="78.25" x2="408" y2="78.25" stroke="#585858"/>
<line x1="3" y1="104.125" x2="408" y2="104.125" stroke="#585858"/>
<line x1="3" y1="128.875" x2="408" y2="128.875" stroke="#585858"/>
<line x1="3" y1="153.625" x2="408" y2="153.625" stroke="#585858"/>
<path d="M33.2454 44.875V37.6023H38.0607V38.87H34.783V40.603H37.7411V41.8707H34.783V44.875H33.2454ZM40.5536 44.978C40.2056 44.978 39.8955 44.9176 39.6232 44.7969C39.351 44.6738 39.1355 44.4927 38.9769 44.2536C38.8207 44.0121 38.7425 43.7114 38.7425 43.3516C38.7425 43.0485 38.7982 42.794 38.9094 42.5881C39.0207 42.3821 39.1722 42.2164 39.364 42.0909C39.5558 41.9654 39.7736 41.8707 40.0174 41.8068C40.2636 41.7429 40.5217 41.6979 40.7915 41.6719C41.1088 41.6387 41.3645 41.608 41.5586 41.5795C41.7527 41.5488 41.8936 41.5038 41.9812 41.4446C42.0688 41.3854 42.1126 41.2978 42.1126 41.1818V41.1605C42.1126 40.9356 42.0415 40.7616 41.8995 40.6385C41.7598 40.5154 41.561 40.4538 41.3029 40.4538C41.0307 40.4538 40.814 40.5142 40.6531 40.6349C40.4921 40.7533 40.3855 40.9025 40.3335 41.0824L38.9343 40.9688C39.0053 40.6373 39.145 40.3509 39.3533 40.1094C39.5617 39.8655 39.8304 39.6785 40.1594 39.5483C40.4909 39.4157 40.8744 39.3494 41.31 39.3494C41.613 39.3494 41.9031 39.3849 42.18 39.456C42.4594 39.527 42.7068 39.6371 42.9222 39.7862C43.14 39.9354 43.3117 40.1271 43.4371 40.3615C43.5626 40.5935 43.6254 40.8717 43.6254 41.196V44.875H42.1907V44.1186H42.1481C42.0605 44.2891 41.9433 44.4394 41.7965 44.5696C41.6497 44.6974 41.4734 44.7981 41.2674 44.8714C41.0614 44.9425 40.8235 44.978 40.5536 44.978ZM40.9869 43.9339C41.2094 43.9339 41.4059 43.8902 41.5763 43.8026C41.7468 43.7126 41.8806 43.5919 41.9776 43.4403C42.0747 43.2888 42.1232 43.1172 42.1232 42.9254V42.3466C42.0759 42.3774 42.0108 42.4058 41.9279 42.4318C41.8474 42.4555 41.7563 42.478 41.6545 42.4993C41.5527 42.5182 41.4509 42.536 41.3491 42.5526C41.2473 42.5668 41.1549 42.5798 41.0721 42.5916C40.8945 42.6177 40.7395 42.6591 40.6069 42.7159C40.4743 42.7727 40.3713 42.8497 40.2979 42.9467C40.2246 43.0414 40.1879 43.1598 40.1879 43.3018C40.1879 43.5078 40.2624 43.6652 40.4116 43.7741C40.5631 43.8807 40.7549 43.9339 40.9869 43.9339ZM44.799 39.4205H46.3118V45.1449C46.3118 45.5663 46.2289 45.9072 46.0632 46.1676C45.8975 46.428 45.6596 46.6186 45.3494 46.7393C45.0417 46.8601 44.6735 46.9205 44.245 46.9205C44.1929 46.9205 44.1432 46.9193 44.0959 46.9169C44.0462 46.9169 43.9941 46.9157 43.9396 46.9134V45.7308C43.9799 45.7332 44.0154 45.7344 44.0462 45.7344C44.0746 45.7367 44.1054 45.7379 44.1385 45.7379C44.3823 45.7379 44.5528 45.6858 44.6499 45.5817C44.7493 45.4799 44.799 45.326 44.799 45.12V39.4205ZM45.5518 38.7173C45.3293 38.7173 45.1375 38.6428 44.9766 38.4936C44.8156 38.3421 44.7351 38.161 44.7351 37.9503C44.7351 37.742 44.8156 37.5632 44.9766 37.4141C45.1375 37.2625 45.3293 37.1868 45.5518 37.1868C45.7791 37.1868 45.9721 37.2625 46.1307 37.4141C46.2917 37.5632 46.3722 37.742 46.3722 37.9503C46.3722 38.161 46.2917 38.3421 46.1307 38.4936C45.9721 38.6428 45.7791 38.7173 45.5518 38.7173ZM47.5236 44.875V39.4205H48.9902V40.3722H49.0471C49.1465 40.0336 49.3134 39.7779 49.5478 39.6051C49.7821 39.4299 50.052 39.3423 50.3574 39.3423C50.4332 39.3423 50.5149 39.3471 50.6025 39.3565C50.69 39.366 50.767 39.379 50.8333 39.3956V40.7379C50.7623 40.7166 50.664 40.6977 50.5385 40.6811C50.4131 40.6645 50.2982 40.6562 50.1941 40.6562C49.9715 40.6562 49.7727 40.7048 49.5975 40.8018C49.4247 40.8965 49.2873 41.0291 49.1855 41.1996C49.0861 41.37 49.0364 41.5665 49.0364 41.7891V44.875H47.5236Z" fill="#305055"/>
<path d="M108.91 44.875V43.6108L111.563 41.2884C111.762 41.1084 111.931 40.9439 112.071 40.7947C112.21 40.6432 112.317 40.4917 112.39 40.3402C112.464 40.1863 112.5 40.0194 112.5 39.8395C112.5 39.6383 112.457 39.4666 112.369 39.3246C112.281 39.1802 112.161 39.0689 112.007 38.9908C111.853 38.9126 111.677 38.8736 111.478 38.8736C111.276 38.8736 111.1 38.915 110.949 38.9979C110.797 39.0784 110.679 39.1955 110.593 39.3494C110.511 39.5033 110.469 39.6903 110.469 39.9105H108.804C108.804 39.4157 108.915 38.9884 109.138 38.6286C109.36 38.2687 109.673 37.9917 110.075 37.7976C110.48 37.6011 110.95 37.5028 111.485 37.5028C112.036 37.5028 112.516 37.5952 112.923 37.7798C113.33 37.9645 113.645 38.2225 113.868 38.554C114.093 38.883 114.205 39.2654 114.205 39.701C114.205 39.978 114.149 40.2526 114.038 40.5249C113.927 40.7971 113.727 41.0978 113.438 41.4268C113.151 41.7559 112.744 42.1501 112.216 42.6094L111.346 43.4119V43.4581H114.294V44.875H108.91Z" fill="#232323"/>
<path d="M161.785 44.875V43.6108L164.438 41.2884C164.637 41.1084 164.806 40.9439 164.946 40.7947C165.085 40.6432 165.192 40.4917 165.265 40.3402C165.339 40.1863 165.375 40.0194 165.375 39.8395C165.375 39.6383 165.332 39.4666 165.244 39.3246C165.156 39.1802 165.036 39.0689 164.882 38.9908C164.728 38.9126 164.552 38.8736 164.353 38.8736C164.151 38.8736 163.975 38.915 163.824 38.9979C163.672 39.0784 163.554 39.1955 163.468 39.3494C163.386 39.5033 163.344 39.6903 163.344 39.9105H161.679C161.679 39.4157 161.79 38.9884 162.013 38.6286C162.235 38.2687 162.548 37.9917 162.95 37.7976C163.355 37.6011 163.825 37.5028 164.36 37.5028C164.911 37.5028 165.391 37.5952 165.798 37.7798C166.205 37.9645 166.52 38.2225 166.743 38.554C166.968 38.883 167.08 39.2654 167.08 39.701C167.08 39.978 167.024 40.2526 166.913 40.5249C166.802 40.7971 166.602 41.0978 166.313 41.4268C166.026 41.7559 165.619 42.1501 165.091 42.6094L164.221 43.4119V43.4581H167.169V44.875H161.785Z" fill="#232323"/>
<path d="M218.995 41.2635V42.6023H215.629V41.2635H218.995Z" fill="#232323"/>
<path d="M275.245 41.2635V42.6023H271.879V41.2635H275.245Z" fill="#232323"/>
<path d="M328.12 41.2635V42.6023H324.754V41.2635H328.12Z" fill="#232323"/>
<path d="M383.245 41.2635V42.6023H379.879V41.2635H383.245Z" fill="#232323"/>
<path d="M30.551 69.625H27.9729V62.3523H30.5724C31.3039 62.3523 31.9336 62.4979 32.4616 62.7891C32.9895 63.0779 33.3955 63.4934 33.6796 64.0355C33.9661 64.5777 34.1093 65.2263 34.1093 65.9815C34.1093 66.7391 33.9661 67.3902 33.6796 67.9347C33.3955 68.4792 32.9871 68.897 32.4545 69.1882C31.9242 69.4794 31.2897 69.625 30.551 69.625ZM29.5106 68.3075H30.4871C30.9417 68.3075 31.324 68.227 31.6341 68.0661C31.9466 67.9027 32.181 67.6506 32.3373 67.3097C32.4959 66.9664 32.5752 66.5237 32.5752 65.9815C32.5752 65.4441 32.4959 65.005 32.3373 64.6641C32.181 64.3232 31.9478 64.0722 31.6377 63.9112C31.3276 63.7502 30.9452 63.6697 30.4907 63.6697H29.5106V68.3075ZM36.7327 66.4716V69.625H35.2199V62.3523H36.6901V65.1328H36.754C36.8771 64.8108 37.076 64.5587 37.3506 64.3764C37.6252 64.1918 37.9697 64.0994 38.384 64.0994C38.7628 64.0994 39.093 64.1823 39.3747 64.348C39.6588 64.5114 39.879 64.7469 40.0352 65.0547C40.1939 65.3601 40.272 65.7259 40.2696 66.152V69.625H38.7568V66.4219C38.7592 66.0857 38.674 65.8241 38.5012 65.6371C38.3307 65.45 38.0916 65.3565 37.7838 65.3565C37.5779 65.3565 37.3956 65.4003 37.2369 65.4879C37.0807 65.5755 36.9576 65.7034 36.8676 65.8714C36.78 66.0372 36.7351 66.2372 36.7327 66.4716ZM44.958 67.3026V64.1705H46.4708V69.625H45.0184V68.6342H44.9616C44.8385 68.9538 44.6337 69.2107 44.3472 69.4048C44.0631 69.599 43.7163 69.696 43.3067 69.696C42.9421 69.696 42.6214 69.6132 42.3444 69.4474C42.0674 69.2817 41.8508 69.0462 41.6945 68.7408C41.5406 68.4354 41.4625 68.0696 41.4601 67.6435V64.1705H42.9729V67.3736C42.9753 67.6955 43.0617 67.95 43.2322 68.1371C43.4026 68.3241 43.6311 68.4176 43.9175 68.4176C44.0998 68.4176 44.2703 68.3762 44.4289 68.2933C44.5875 68.2081 44.7153 68.0826 44.8124 67.9169C44.9118 67.7512 44.9604 67.5464 44.958 67.3026ZM49.1936 66.4716V69.625H47.6808V62.3523H49.151V65.1328H49.2149C49.338 64.8108 49.5369 64.5587 49.8115 64.3764C50.0861 64.1918 50.4306 64.0994 50.8449 64.0994C51.2237 64.0994 51.5539 64.1823 51.8357 64.348C52.1198 64.5114 52.3399 64.7469 52.4962 65.0547C52.6548 65.3601 52.7329 65.7259 52.7306 66.152V69.625H51.2178V66.4219C51.2201 66.0857 51.1349 65.8241 50.9621 65.6371C50.7916 65.45 50.5525 65.3565 50.2448 65.3565C50.0388 65.3565 49.8565 65.4003 49.6979 65.4879C49.5416 65.5755 49.4185 65.7034 49.3286 65.8714C49.241 66.0372 49.196 66.2372 49.1936 66.4716ZM53.9211 69.625V64.1705H55.3877V65.1222H55.4445C55.5439 64.7836 55.7108 64.5279 55.9452 64.3551C56.1796 64.1799 56.4495 64.0923 56.7549 64.0923C56.8306 64.0923 56.9123 64.0971 56.9999 64.1065C57.0875 64.116 57.1644 64.129 57.2307 64.1456V65.4879C57.1597 65.4666 57.0615 65.4477 56.936 65.4311C56.8105 65.4145 56.6957 65.4062 56.5915 65.4062C56.369 65.4062 56.1701 65.4548 55.9949 65.5518C55.8221 65.6465 55.6848 65.7791 55.583 65.9496C55.4836 66.12 55.4339 66.3165 55.4339 66.5391V69.625H53.9211Z" fill="#305055"/>
<path d="M108.563 68.4176V67.0469L111.542 62.3523H112.76V64.2131H112.053L110.31 66.9759V67.0327H114.624V68.4176H108.563ZM112.075 69.625V67.9986L112.11 67.3984V62.3523H113.754V69.625H112.075Z" fill="#232323"/>
<path d="M161.438 68.4176V67.0469L164.417 62.3523H165.635V64.2131H164.928L163.185 66.9759V67.0327H167.499V68.4176H161.438ZM164.95 69.625V67.9986L164.985 67.3984V62.3523H166.629V69.625H164.95Z" fill="#232323"/>
<path d="M214.66 69.625V68.3608L217.313 66.0384C217.512 65.8584 217.681 65.6939 217.821 65.5447C217.96 65.3932 218.067 65.2417 218.14 65.0902C218.214 64.9363 218.25 64.7694 218.25 64.5895C218.25 64.3883 218.207 64.2166 218.119 64.0746C218.031 63.9302 217.911 63.8189 217.757 63.7408C217.603 63.6626 217.427 63.6236 217.228 63.6236C217.026 63.6236 216.85 63.665 216.699 63.7479C216.547 63.8284 216.429 63.9455 216.343 64.0994C216.261 64.2533 216.219 64.4403 216.219 64.6605H214.554C214.554 64.1657 214.665 63.7384 214.888 63.3786C215.11 63.0187 215.423 62.7417 215.825 62.5476C216.23 62.3511 216.7 62.2528 217.235 62.2528C217.786 62.2528 218.266 62.3452 218.673 62.5298C219.08 62.7145 219.395 62.9725 219.618 63.304C219.843 63.633 219.955 64.0154 219.955 64.451C219.955 64.728 219.899 65.0026 219.788 65.2749C219.677 65.5471 219.477 65.8478 219.188 66.1768C218.901 66.5059 218.494 66.9001 217.966 67.3594L217.096 68.1619V68.2081H220.044V69.625H214.66Z" fill="#232323"/>
<path d="M270.91 69.625V68.3608L273.563 66.0384C273.762 65.8584 273.931 65.6939 274.071 65.5447C274.21 65.3932 274.317 65.2417 274.39 65.0902C274.464 64.9363 274.5 64.7694 274.5 64.5895C274.5 64.3883 274.457 64.2166 274.369 64.0746C274.281 63.9302 274.161 63.8189 274.007 63.7408C273.853 63.6626 273.677 63.6236 273.478 63.6236C273.276 63.6236 273.1 63.665 272.949 63.7479C272.797 63.8284 272.679 63.9455 272.593 64.0994C272.511 64.2533 272.469 64.4403 272.469 64.6605H270.804C270.804 64.1657 270.915 63.7384 271.138 63.3786C271.36 63.0187 271.673 62.7417 272.075 62.5476C272.48 62.3511 272.95 62.2528 273.485 62.2528C274.036 62.2528 274.516 62.3452 274.923 62.5298C275.33 62.7145 275.645 62.9725 275.868 63.304C276.093 63.633 276.205 64.0154 276.205 64.451C276.205 64.728 276.149 65.0026 276.038 65.2749C275.927 65.5471 275.727 65.8478 275.438 66.1768C275.151 66.5059 274.744 66.9001 274.216 67.3594L273.346 68.1619V68.2081H276.294V69.625H270.91Z" fill="#232323"/>
<path d="M328.12 66.0135V67.3523H324.754V66.0135H328.12Z" fill="#232323"/>
<path d="M383.245 66.0135V67.3523H379.879V66.0135H383.245Z" fill="#232323"/>
<path d="M35.1679 94.375H33.5202L36.0308 87.1023H38.0123L40.5194 94.375H38.8717L37.05 88.7642H36.9932L35.1679 94.375ZM35.0649 91.5163H38.9569V92.7166H35.0649V91.5163ZM45.7778 90.4759L44.3928 90.5611C44.3692 90.4427 44.3183 90.3362 44.2401 90.2415C44.162 90.1444 44.059 90.0675 43.9312 90.0107C43.8057 89.9515 43.6554 89.9219 43.4802 89.9219C43.2458 89.9219 43.0481 89.9716 42.8872 90.071C42.7262 90.1681 42.6457 90.2983 42.6457 90.4616C42.6457 90.5919 42.6978 90.7019 42.8019 90.7919C42.9061 90.8819 43.0848 90.9541 43.3382 91.0085L44.3254 91.2074C44.8557 91.3163 45.251 91.4915 45.5115 91.733C45.7719 91.9744 45.9021 92.2917 45.9021 92.6847C45.9021 93.0421 45.7967 93.3558 45.586 93.6257C45.3777 93.8956 45.0912 94.1063 44.7267 94.2578C44.3644 94.407 43.9466 94.4815 43.4731 94.4815C42.751 94.4815 42.1758 94.3312 41.7472 94.0305C41.3211 93.7275 41.0713 93.3156 40.998 92.7947L42.4859 92.7166C42.5309 92.9368 42.6398 93.1049 42.8126 93.2209C42.9854 93.3345 43.2068 93.3913 43.4767 93.3913C43.7418 93.3913 43.9549 93.3404 44.1159 93.2386C44.2792 93.1345 44.3621 93.0007 44.3644 92.8374C44.3621 92.7 44.3041 92.5876 44.1904 92.5C44.0768 92.41 43.9016 92.3414 43.6649 92.294L42.7203 92.1058C42.1876 91.9993 41.791 91.8146 41.5306 91.5518C41.2726 91.2891 41.1436 90.9541 41.1436 90.5469C41.1436 90.1965 41.2383 89.8946 41.4276 89.6413C41.6194 89.388 41.8881 89.1927 42.2338 89.0554C42.5818 88.9181 42.989 88.8494 43.4553 88.8494C44.1443 88.8494 44.6864 88.995 45.0818 89.2862C45.4795 89.5774 45.7115 89.974 45.7778 90.4759ZM46.8547 94.375V88.9205H48.3213V89.8722H48.3781C48.4775 89.5336 48.6444 89.2779 48.8788 89.1051C49.1132 88.9299 49.3831 88.8423 49.6885 88.8423C49.7642 88.8423 49.8459 88.8471 49.9335 88.8565C50.0211 88.866 50.098 88.879 50.1643 88.8956V90.2379C50.0933 90.2166 49.9951 90.1977 49.8696 90.1811C49.7441 90.1645 49.6293 90.1562 49.5251 90.1562C49.3026 90.1562 49.1037 90.2048 48.9285 90.3018C48.7557 90.3965 48.6184 90.5291 48.5166 90.6996C48.4172 90.87 48.3675 91.0665 48.3675 91.2891V94.375H46.8547Z" fill="#305055"/>
<path d="M108.563 93.1676V91.7969L111.542 87.1023H112.76V88.9631H112.053L110.31 91.7259V91.7827H114.624V93.1676H108.563ZM112.075 94.375V92.7486L112.11 92.1484V87.1023H113.754V94.375H112.075Z" fill="#232323"/>
<path d="M161.438 93.1676V91.7969L164.417 87.1023H165.635V88.9631H164.928L163.185 91.7259V91.7827H167.499V93.1676H161.438ZM164.95 94.375V92.7486L164.985 92.1484V87.1023H166.629V94.375H164.95Z" fill="#232323"/>
<path d="M218.995 90.7635V92.1023H215.629V90.7635H218.995Z" fill="#232323"/>
<path d="M275.245 90.7635V92.1023H271.879V90.7635H275.245Z" fill="#232323"/>
<path d="M328.12 90.7635V92.1023H324.754V90.7635H328.12Z" fill="#232323"/>
<path d="M383.245 90.7635V92.1023H379.879V90.7635H383.245Z" fill="#232323"/>
<path d="M22.0979 111.852H23.9942L25.9971 116.739H26.0823L28.0851 111.852H29.9814V119.125H28.49V114.391H28.4296L26.5475 119.089H25.5319L23.6498 114.374H23.5894V119.125H22.0979V111.852ZM32.7753 119.228C32.4273 119.228 32.1172 119.168 31.8449 119.047C31.5727 118.924 31.3572 118.743 31.1986 118.504C31.0423 118.262 30.9642 117.961 30.9642 117.602C30.9642 117.299 31.0199 117.044 31.1311 116.838C31.2424 116.632 31.3939 116.466 31.5857 116.341C31.7774 116.215 31.9952 116.121 32.2391 116.057C32.4853 115.993 32.7433 115.948 33.0132 115.922C33.3305 115.889 33.5861 115.858 33.7803 115.83C33.9744 115.799 34.1153 115.754 34.2029 115.695C34.2905 115.635 34.3343 115.548 34.3343 115.432V115.411C34.3343 115.186 34.2632 115.012 34.1212 114.888C33.9815 114.765 33.7826 114.704 33.5246 114.704C33.2523 114.704 33.0357 114.764 32.8747 114.885C32.7137 115.003 32.6072 115.152 32.5551 115.332L31.156 115.219C31.227 114.887 31.3667 114.601 31.575 114.359C31.7834 114.116 32.0521 113.929 32.3811 113.798C32.7126 113.666 33.0961 113.599 33.5317 113.599C33.8347 113.599 34.1247 113.635 34.4017 113.706C34.6811 113.777 34.9285 113.887 35.1439 114.036C35.3617 114.185 35.5334 114.377 35.6588 114.612C35.7843 114.844 35.847 115.122 35.847 115.446V119.125H34.4124V118.369H34.3698C34.2822 118.539 34.165 118.689 34.0182 118.82C33.8714 118.947 33.695 119.048 33.4891 119.121C33.2831 119.192 33.0452 119.228 32.7753 119.228ZM33.2085 118.184C33.4311 118.184 33.6276 118.14 33.798 118.053C33.9685 117.963 34.1022 117.842 34.1993 117.69C34.2964 117.539 34.3449 117.367 34.3449 117.175V116.597C34.2976 116.627 34.2325 116.656 34.1496 116.682C34.0691 116.705 33.978 116.728 33.8762 116.749C33.7744 116.768 33.6726 116.786 33.5708 116.803C33.469 116.817 33.3766 116.83 33.2938 116.842C33.1162 116.868 32.9611 116.909 32.8286 116.966C32.696 117.023 32.593 117.1 32.5196 117.197C32.4462 117.291 32.4095 117.41 32.4095 117.552C32.4095 117.758 32.4841 117.915 32.6333 118.024C32.7848 118.131 32.9765 118.184 33.2085 118.184ZM39.4781 121.284C38.988 121.284 38.5678 121.217 38.2174 121.082C37.8694 120.949 37.5924 120.768 37.3865 120.538C37.1805 120.309 37.0467 120.051 36.9852 119.764L38.3843 119.576C38.4269 119.685 38.4944 119.787 38.5867 119.881C38.6791 119.976 38.801 120.052 38.9525 120.109C39.1064 120.168 39.2934 120.197 39.5136 120.197C39.8427 120.197 40.1137 120.117 40.3268 119.956C40.5422 119.797 40.6499 119.531 40.6499 119.157V118.159H40.586C40.5197 118.311 40.4203 118.454 40.2877 118.589C40.1552 118.724 39.9847 118.834 39.7764 118.919C39.568 119.004 39.3195 119.047 39.0306 119.047C38.6211 119.047 38.2482 118.952 37.912 118.763C37.5782 118.571 37.3119 118.279 37.113 117.886C36.9165 117.49 36.8183 116.991 36.8183 116.387C36.8183 115.769 36.9189 115.253 37.1201 114.839C37.3213 114.424 37.5889 114.114 37.9227 113.908C38.2588 113.702 38.627 113.599 39.0271 113.599C39.3325 113.599 39.5882 113.652 39.7941 113.756C40.0001 113.857 40.1658 113.985 40.2913 114.139C40.4191 114.291 40.5174 114.44 40.586 114.587H40.6428V113.67H42.145V119.178C42.145 119.642 42.0313 120.031 41.8041 120.343C41.5768 120.656 41.2619 120.89 40.8595 121.046C40.4594 121.205 39.9989 121.284 39.4781 121.284ZM39.51 117.911C39.7539 117.911 39.9598 117.85 40.1279 117.729C40.2984 117.606 40.4286 117.431 40.5186 117.204C40.6109 116.974 40.657 116.7 40.657 116.38C40.657 116.06 40.6121 115.783 40.5221 115.549C40.4321 115.312 40.3019 115.129 40.1315 114.999C39.961 114.868 39.7539 114.803 39.51 114.803C39.2615 114.803 39.0519 114.871 38.8815 115.006C38.711 115.138 38.582 115.323 38.4944 115.56C38.4068 115.796 38.363 116.07 38.363 116.38C38.363 116.695 38.4068 116.967 38.4944 117.197C38.5844 117.424 38.7134 117.6 38.8815 117.726C39.0519 117.849 39.2615 117.911 39.51 117.911ZM44.8616 115.972V119.125H43.3488V111.852H44.819V114.633H44.8829C45.006 114.311 45.2049 114.059 45.4795 113.876C45.7541 113.692 46.0986 113.599 46.5129 113.599C46.8917 113.599 47.2219 113.682 47.5036 113.848C47.7877 114.011 48.0079 114.247 48.1642 114.555C48.3228 114.86 48.4009 115.226 48.3985 115.652V119.125H46.8857V115.922C46.8881 115.586 46.8029 115.324 46.6301 115.137C46.4596 114.95 46.2205 114.857 45.9127 114.857C45.7068 114.857 45.5245 114.9 45.3659 114.988C45.2096 115.076 45.0865 115.203 44.9965 115.371C44.9089 115.537 44.864 115.737 44.8616 115.972ZM49.589 119.125V113.67H51.0557V114.622H51.1125C51.2119 114.284 51.3788 114.028 51.6132 113.855C51.8476 113.68 52.1175 113.592 52.4229 113.592C52.4986 113.592 52.5803 113.597 52.6679 113.607C52.7555 113.616 52.8324 113.629 52.8987 113.646V114.988C52.8277 114.967 52.7294 114.948 52.604 114.931C52.4785 114.915 52.3637 114.906 52.2595 114.906C52.037 114.906 51.8381 114.955 51.6629 115.052C51.4901 115.147 51.3528 115.279 51.251 115.45C51.1515 115.62 51.1018 115.817 51.1018 116.039V119.125H49.589ZM53.6808 119.125V113.67H55.1936V119.125H53.6808ZM54.4408 112.967C54.2159 112.967 54.0229 112.893 53.8619 112.744C53.7033 112.592 53.624 112.411 53.624 112.2C53.624 111.992 53.7033 111.813 53.8619 111.664C54.0229 111.513 54.2159 111.437 54.4408 111.437C54.6657 111.437 54.8575 111.513 55.0161 111.664C55.1771 111.813 55.2575 111.992 55.2575 112.2C55.2575 112.411 55.1771 112.592 55.0161 112.744C54.8575 112.893 54.6657 112.967 54.4408 112.967ZM56.4339 119.125V111.852H57.9466V114.587H57.9928C58.0591 114.44 58.155 114.291 58.2805 114.139C58.4083 113.985 58.574 113.857 58.7776 113.756C58.9836 113.652 59.2393 113.599 59.5447 113.599C59.9424 113.599 60.3093 113.704 60.6455 113.912C60.9817 114.118 61.2504 114.429 61.4516 114.846C61.6528 115.26 61.7535 115.78 61.7535 116.405C61.7535 117.013 61.6552 117.527 61.4587 117.946C61.2646 118.363 60.9994 118.679 60.6633 118.894C60.3295 119.107 59.9554 119.214 59.5411 119.214C59.2475 119.214 58.9978 119.165 58.7918 119.068C58.5882 118.971 58.4213 118.849 58.2911 118.702C58.1609 118.553 58.0615 118.403 57.9928 118.251H57.9253V119.125H56.4339ZM57.9147 116.398C57.9147 116.722 57.9597 117.005 58.0496 117.246C58.1396 117.488 58.2698 117.676 58.4403 117.811C58.6107 117.944 58.8179 118.01 59.0617 118.01C59.3079 118.01 59.5162 117.942 59.6867 117.808C59.8572 117.67 59.9862 117.481 60.0738 117.239C60.1637 116.996 60.2087 116.715 60.2087 116.398C60.2087 116.083 60.1649 115.806 60.0773 115.567C59.9897 115.328 59.8607 115.141 59.6903 115.006C59.5198 114.871 59.3103 114.803 59.0617 114.803C58.8155 114.803 58.6072 114.868 58.4367 114.999C58.2686 115.129 58.1396 115.313 58.0496 115.553C57.9597 115.792 57.9147 116.073 57.9147 116.398Z" fill="#305055"/>
<path d="M113.245 115.513V116.852H109.879V115.513H113.245Z" fill="#232323"/>
<path d="M164.405 119.224C163.851 119.224 163.36 119.13 162.931 118.94C162.505 118.749 162.169 118.485 161.923 118.148C161.677 117.812 161.551 117.425 161.546 116.987H163.315C163.322 117.146 163.373 117.287 163.468 117.41C163.562 117.531 163.691 117.625 163.855 117.694C164.018 117.763 164.204 117.797 164.412 117.797C164.621 117.797 164.804 117.76 164.963 117.687C165.124 117.611 165.249 117.508 165.339 117.378C165.429 117.245 165.473 117.094 165.47 116.923C165.473 116.753 165.424 116.601 165.325 116.469C165.225 116.336 165.085 116.233 164.902 116.16C164.722 116.086 164.509 116.05 164.263 116.05H163.556V114.8H164.263C164.478 114.8 164.668 114.764 164.831 114.693C164.997 114.622 165.126 114.523 165.218 114.395C165.311 114.265 165.356 114.116 165.353 113.947C165.356 113.784 165.317 113.641 165.236 113.518C165.158 113.392 165.048 113.295 164.906 113.227C164.766 113.158 164.604 113.124 164.419 113.124C164.225 113.124 164.049 113.158 163.89 113.227C163.734 113.295 163.61 113.392 163.517 113.518C163.425 113.643 163.376 113.789 163.372 113.955H161.692C161.697 113.521 161.818 113.14 162.054 112.811C162.291 112.48 162.613 112.22 163.02 112.033C163.43 111.846 163.896 111.753 164.419 111.753C164.94 111.753 165.398 111.844 165.794 112.026C166.189 112.209 166.497 112.457 166.717 112.772C166.937 113.085 167.047 113.438 167.047 113.834C167.05 114.243 166.916 114.581 166.646 114.846C166.378 115.111 166.034 115.274 165.612 115.336V115.393C166.176 115.459 166.601 115.641 166.887 115.94C167.176 116.238 167.319 116.611 167.317 117.058C167.317 117.48 167.193 117.854 166.944 118.18C166.698 118.505 166.355 118.76 165.914 118.947C165.476 119.132 164.973 119.224 164.405 119.224Z" fill="#232323"/>
<path d="M214.66 119.125V117.861L217.313 115.538C217.512 115.358 217.681 115.194 217.821 115.045C217.96 114.893 218.067 114.742 218.14 114.59C218.214 114.436 218.25 114.269 218.25 114.089C218.25 113.888 218.207 113.717 218.119 113.575C218.031 113.43 217.911 113.319 217.757 113.241C217.603 113.163 217.427 113.124 217.228 113.124C217.026 113.124 216.85 113.165 216.699 113.248C216.547 113.328 216.429 113.446 216.343 113.599C216.261 113.753 216.219 113.94 216.219 114.161H214.554C214.554 113.666 214.665 113.238 214.888 112.879C215.11 112.519 215.423 112.242 215.825 112.048C216.23 111.851 216.7 111.753 217.235 111.753C217.786 111.753 218.266 111.845 218.673 112.03C219.08 112.214 219.395 112.473 219.618 112.804C219.843 113.133 219.955 113.515 219.955 113.951C219.955 114.228 219.899 114.503 219.788 114.775C219.677 115.047 219.477 115.348 219.188 115.677C218.901 116.006 218.494 116.4 217.966 116.859L217.096 117.662V117.708H220.044V119.125H214.66Z" fill="#232323"/>
<path d="M270.91 119.125V117.861L273.563 115.538C273.762 115.358 273.931 115.194 274.071 115.045C274.21 114.893 274.317 114.742 274.39 114.59C274.464 114.436 274.5 114.269 274.5 114.089C274.5 113.888 274.457 113.717 274.369 113.575C274.281 113.43 274.161 113.319 274.007 113.241C273.853 113.163 273.677 113.124 273.478 113.124C273.276 113.124 273.1 113.165 272.949 113.248C272.797 113.328 272.679 113.446 272.593 113.599C272.511 113.753 272.469 113.94 272.469 114.161H270.804C270.804 113.666 270.915 113.238 271.138 112.879C271.36 112.519 271.673 112.242 272.075 112.048C272.48 111.851 272.95 111.753 273.485 111.753C274.036 111.753 274.516 111.845 274.923 112.03C275.33 112.214 275.645 112.473 275.868 112.804C276.093 113.133 276.205 113.515 276.205 113.951C276.205 114.228 276.149 114.503 276.038 114.775C275.927 115.047 275.727 115.348 275.438 115.677C275.151 116.006 274.744 116.4 274.216 116.859L273.346 117.662V117.708H276.294V119.125H270.91Z" fill="#232323"/>
<path d="M328.12 115.513V116.852H324.754V115.513H328.12Z" fill="#232323"/>
<path d="M383.245 115.513V116.852H379.879V115.513H383.245Z" fill="#232323"/>
<path d="M34.8778 136.602V143.875H33.3401V136.602H34.8778ZM40.6528 139.976L39.2678 140.061C39.2442 139.943 39.1933 139.836 39.1151 139.741C39.037 139.644 38.934 139.567 38.8062 139.511C38.6807 139.451 38.5304 139.422 38.3552 139.422C38.1208 139.422 37.9231 139.472 37.7622 139.571C37.6012 139.668 37.5207 139.798 37.5207 139.962C37.5207 140.092 37.5728 140.202 37.6769 140.292C37.7811 140.382 37.9598 140.454 38.2132 140.509L39.2004 140.707C39.7307 140.816 40.126 140.991 40.3865 141.233C40.6469 141.474 40.7771 141.792 40.7771 142.185C40.7771 142.542 40.6717 142.856 40.461 143.126C40.2527 143.396 39.9662 143.606 39.6017 143.758C39.2394 143.907 38.8216 143.982 38.3481 143.982C37.626 143.982 37.0508 143.831 36.6222 143.531C36.1961 143.228 35.9463 142.816 35.873 142.295L37.3609 142.217C37.4059 142.437 37.5148 142.605 37.6876 142.721C37.8604 142.835 38.0818 142.891 38.3517 142.891C38.6168 142.891 38.8299 142.84 38.9909 142.739C39.1542 142.634 39.2371 142.501 39.2394 142.337C39.2371 142.2 39.1791 142.088 39.0654 142C38.9518 141.91 38.7766 141.841 38.5399 141.794L37.5953 141.606C37.0626 141.499 36.666 141.315 36.4056 141.052C36.1476 140.789 36.0186 140.454 36.0186 140.047C36.0186 139.696 36.1133 139.395 36.3026 139.141C36.4944 138.888 36.7631 138.693 37.1088 138.555C37.4568 138.418 37.864 138.349 38.3303 138.349C39.0193 138.349 39.5614 138.495 39.9568 138.786C40.3545 139.077 40.5865 139.474 40.6528 139.976ZM43.2425 140.722V143.875H41.7297V136.602H43.1998V139.383H43.2638C43.3869 139.061 43.5857 138.809 43.8604 138.626C44.135 138.442 44.4794 138.349 44.8937 138.349C45.2725 138.349 45.6028 138.432 45.8845 138.598C46.1686 138.761 46.3888 138.997 46.545 139.305C46.7036 139.61 46.7818 139.976 46.7794 140.402V143.875H45.2666V140.672C45.269 140.336 45.1837 140.074 45.0109 139.887C44.8405 139.7 44.6014 139.607 44.2936 139.607C44.0876 139.607 43.9053 139.65 43.7467 139.738C43.5905 139.826 43.4674 139.953 43.3774 140.121C43.2898 140.287 43.2448 140.487 43.2425 140.722ZM49.5253 143.978C49.1773 143.978 48.8672 143.918 48.5949 143.797C48.3227 143.674 48.1072 143.493 47.9486 143.254C47.7923 143.012 47.7142 142.711 47.7142 142.352C47.7142 142.049 47.7699 141.794 47.8811 141.588C47.9924 141.382 48.1439 141.216 48.3357 141.091C48.5274 140.965 48.7452 140.871 48.9891 140.807C49.2353 140.743 49.4933 140.698 49.7632 140.672C50.0805 140.639 50.3361 140.608 50.5303 140.58C50.7244 140.549 50.8653 140.504 50.9529 140.445C51.0405 140.385 51.0843 140.298 51.0843 140.182V140.161C51.0843 139.936 51.0132 139.762 50.8712 139.638C50.7315 139.515 50.5326 139.454 50.2746 139.454C50.0023 139.454 49.7857 139.514 49.6247 139.635C49.4637 139.753 49.3572 139.902 49.3051 140.082L47.906 139.969C47.977 139.637 48.1167 139.351 48.325 139.109C48.5334 138.866 48.8021 138.679 49.1311 138.548C49.4626 138.416 49.8461 138.349 50.2817 138.349C50.5847 138.349 50.8747 138.385 51.1517 138.456C51.4311 138.527 51.6785 138.637 51.8939 138.786C52.1117 138.935 52.2834 139.127 52.4088 139.362C52.5343 139.594 52.597 139.872 52.597 140.196V143.875H51.1624V143.119H51.1198C51.0322 143.289 50.915 143.439 50.7682 143.57C50.6214 143.697 50.445 143.798 50.2391 143.871C50.0331 143.942 49.7952 143.978 49.5253 143.978ZM49.9585 142.934C50.1811 142.934 50.3776 142.89 50.548 142.803C50.7185 142.713 50.8522 142.592 50.9493 142.44C51.0464 142.289 51.0949 142.117 51.0949 141.925V141.347C51.0476 141.377 50.9825 141.406 50.8996 141.432C50.8191 141.455 50.728 141.478 50.6262 141.499C50.5244 141.518 50.4226 141.536 50.3208 141.553C50.219 141.567 50.1266 141.58 50.0438 141.592C49.8662 141.618 49.7111 141.659 49.5786 141.716C49.446 141.773 49.343 141.85 49.2696 141.947C49.1962 142.041 49.1595 142.16 49.1595 142.302C49.1595 142.508 49.2341 142.665 49.3833 142.774C49.5348 142.881 49.7265 142.934 49.9585 142.934Z" fill="#305055"/>
<path d="M108.563 142.668V141.297L111.542 136.602H112.76V138.463H112.053L110.31 141.226V141.283H114.624V142.668H108.563ZM112.075 143.875V142.249L112.11 141.648V136.602H113.754V143.875H112.075Z" fill="#232323"/>
<path d="M161.438 142.668V141.297L164.417 136.602H165.635V138.463H164.928L163.185 141.226V141.283H167.499V142.668H161.438ZM164.95 143.875V142.249L164.985 141.648V136.602H166.629V143.875H164.95Z" fill="#232323"/>
<path d="M214.66 143.875V142.611L217.313 140.288C217.512 140.108 217.681 139.944 217.821 139.795C217.96 139.643 218.067 139.492 218.14 139.34C218.214 139.186 218.25 139.019 218.25 138.839C218.25 138.638 218.207 138.467 218.119 138.325C218.031 138.18 217.911 138.069 217.757 137.991C217.603 137.913 217.427 137.874 217.228 137.874C217.026 137.874 216.85 137.915 216.699 137.998C216.547 138.078 216.429 138.196 216.343 138.349C216.261 138.503 216.219 138.69 216.219 138.911H214.554C214.554 138.416 214.665 137.988 214.888 137.629C215.11 137.269 215.423 136.992 215.825 136.798C216.23 136.601 216.7 136.503 217.235 136.503C217.786 136.503 218.266 136.595 218.673 136.78C219.08 136.964 219.395 137.223 219.618 137.554C219.843 137.883 219.955 138.265 219.955 138.701C219.955 138.978 219.899 139.253 219.788 139.525C219.677 139.797 219.477 140.098 219.188 140.427C218.901 140.756 218.494 141.15 217.966 141.609L217.096 142.412V142.458H220.044V143.875H214.66Z" fill="#232323"/>
<path d="M270.91 143.875V142.611L273.563 140.288C273.762 140.108 273.931 139.944 274.071 139.795C274.21 139.643 274.317 139.492 274.39 139.34C274.464 139.186 274.5 139.019 274.5 138.839C274.5 138.638 274.457 138.467 274.369 138.325C274.281 138.18 274.161 138.069 274.007 137.991C273.853 137.913 273.677 137.874 273.478 137.874C273.276 137.874 273.1 137.915 272.949 137.998C272.797 138.078 272.679 138.196 272.593 138.349C272.511 138.503 272.469 138.69 272.469 138.911H270.804C270.804 138.416 270.915 137.988 271.138 137.629C271.36 137.269 271.673 136.992 272.075 136.798C272.48 136.601 272.95 136.503 273.485 136.503C274.036 136.503 274.516 136.595 274.923 136.78C275.33 136.964 275.645 137.223 275.868 137.554C276.093 137.883 276.205 138.265 276.205 138.701C276.205 138.978 276.149 139.253 276.038 139.525C275.927 139.797 275.727 140.098 275.438 140.427C275.151 140.756 274.744 141.15 274.216 141.609L273.346 142.412V142.458H276.294V143.875H270.91Z" fill="#232323"/>
<path d="M326.405 143.974C325.851 143.974 325.36 143.88 324.931 143.69C324.505 143.499 324.169 143.235 323.923 142.898C323.677 142.562 323.551 142.175 323.546 141.737H325.315C325.322 141.896 325.373 142.037 325.468 142.16C325.562 142.281 325.691 142.375 325.855 142.444C326.018 142.513 326.204 142.547 326.412 142.547C326.621 142.547 326.804 142.51 326.963 142.437C327.124 142.361 327.249 142.258 327.339 142.128C327.429 141.995 327.473 141.844 327.47 141.673C327.473 141.503 327.424 141.351 327.325 141.219C327.225 141.086 327.085 140.983 326.902 140.91C326.722 140.836 326.509 140.8 326.263 140.8H325.556V139.55H326.263C326.478 139.55 326.668 139.514 326.831 139.443C326.997 139.372 327.126 139.273 327.218 139.145C327.311 139.015 327.356 138.866 327.353 138.697C327.356 138.534 327.317 138.391 327.236 138.268C327.158 138.142 327.048 138.045 326.906 137.977C326.766 137.908 326.604 137.874 326.419 137.874C326.225 137.874 326.049 137.908 325.89 137.977C325.734 138.045 325.61 138.142 325.517 138.268C325.425 138.393 325.376 138.539 325.372 138.705H323.692C323.697 138.271 323.818 137.89 324.054 137.561C324.291 137.23 324.613 136.97 325.02 136.783C325.43 136.596 325.896 136.503 326.419 136.503C326.94 136.503 327.398 136.594 327.794 136.776C328.189 136.959 328.497 137.207 328.717 137.522C328.937 137.835 329.047 138.188 329.047 138.584C329.05 138.993 328.916 139.331 328.646 139.596C328.378 139.861 328.034 140.024 327.612 140.086V140.143C328.176 140.209 328.601 140.391 328.887 140.69C329.176 140.988 329.319 141.361 329.317 141.808C329.317 142.23 329.193 142.604 328.944 142.93C328.698 143.255 328.355 143.51 327.914 143.697C327.476 143.882 326.973 143.974 326.405 143.974Z" fill="#232323"/>
<path d="M378.91 143.875V142.611L381.563 140.288C381.762 140.108 381.931 139.944 382.071 139.795C382.21 139.643 382.317 139.492 382.39 139.34C382.464 139.186 382.5 139.019 382.5 138.839C382.5 138.638 382.457 138.467 382.369 138.325C382.281 138.18 382.161 138.069 382.007 137.991C381.853 137.913 381.677 137.874 381.478 137.874C381.276 137.874 381.1 137.915 380.949 137.998C380.797 138.078 380.679 138.196 380.593 138.349C380.511 138.503 380.469 138.69 380.469 138.911H378.804C378.804 138.416 378.915 137.988 379.138 137.629C379.36 137.269 379.673 136.992 380.075 136.798C380.48 136.601 380.95 136.503 381.485 136.503C382.036 136.503 382.516 136.595 382.923 136.78C383.33 136.964 383.645 137.223 383.868 137.554C384.093 137.883 384.205 138.265 384.205 138.701C384.205 138.978 384.149 139.253 384.038 139.525C383.927 139.797 383.727 140.098 383.438 140.427C383.151 140.756 382.744 141.15 382.216 141.609L381.346 142.412V142.458H384.294V143.875H378.91Z" fill="#232323"/>
<path d="M23.6905 161.352H25.2104V166.423C25.2104 166.892 25.1051 167.299 24.8944 167.645C24.686 167.991 24.396 168.257 24.0243 168.444C23.6526 168.631 23.2206 168.724 22.7282 168.724C22.2902 168.724 21.8925 168.647 21.535 168.494C21.1799 168.337 20.8981 168.101 20.6898 167.783C20.4815 167.464 20.3785 167.062 20.3809 166.58H21.9114C21.9161 166.771 21.9552 166.936 22.0286 167.073C22.1043 167.208 22.2073 167.312 22.3375 167.386C22.4701 167.457 22.6264 167.492 22.8063 167.492C22.9957 167.492 23.1555 167.452 23.2857 167.371C23.4183 167.289 23.5189 167.168 23.5875 167.009C23.6562 166.851 23.6905 166.655 23.6905 166.423V161.352ZM29.9512 166.303V163.17H31.464V168.625H30.0115V167.634H29.9547C29.8316 167.954 29.6268 168.211 29.3404 168.405C29.0563 168.599 28.7095 168.696 28.2999 168.696C27.9353 168.696 27.6145 168.613 27.3375 168.447C27.0605 168.282 26.8439 168.046 26.6877 167.741C26.5338 167.435 26.4557 167.07 26.4533 166.643V163.17H27.9661V166.374C27.9685 166.696 28.0549 166.95 28.2253 167.137C28.3958 167.324 28.6242 167.418 28.9107 167.418C29.093 167.418 29.2634 167.376 29.4221 167.293C29.5807 167.208 29.7085 167.083 29.8056 166.917C29.905 166.751 29.9535 166.546 29.9512 166.303ZM32.674 168.625V163.17H34.1158V164.133H34.1797C34.2933 163.813 34.4827 163.561 34.7479 163.376C35.013 163.192 35.3303 163.099 35.6996 163.099C36.0736 163.099 36.392 163.193 36.6548 163.38C36.9176 163.565 37.0928 163.816 37.1804 164.133H37.2372C37.3485 163.82 37.5497 163.571 37.8409 163.384C38.1345 163.194 38.4813 163.099 38.8814 163.099C39.3904 163.099 39.8035 163.262 40.1207 163.586C40.4403 163.908 40.6001 164.365 40.6001 164.957V168.625H39.0909V165.255C39.0909 164.952 39.0104 164.725 38.8494 164.573C38.6884 164.422 38.4872 164.346 38.2457 164.346C37.9711 164.346 37.7569 164.433 37.603 164.609C37.4491 164.781 37.3722 165.01 37.3722 165.294V168.625H35.9055V165.223C35.9055 164.955 35.8286 164.742 35.6747 164.584C35.5232 164.425 35.3232 164.346 35.0746 164.346C34.9065 164.346 34.755 164.388 34.62 164.474C34.4875 164.557 34.3821 164.674 34.304 164.825C34.2259 164.974 34.1868 165.15 34.1868 165.351V168.625H32.674ZM41.7951 168.625V163.17H43.2369V164.133H43.3008C43.4144 163.813 43.6038 163.561 43.869 163.376C44.1341 163.192 44.4513 163.099 44.8207 163.099C45.1947 163.099 45.5131 163.193 45.7759 163.38C46.0387 163.565 46.2139 163.816 46.3015 164.133H46.3583C46.4696 163.82 46.6708 163.571 46.962 163.384C47.2556 163.194 47.6024 163.099 48.0025 163.099C48.5115 163.099 48.9246 163.262 49.2418 163.586C49.5614 163.908 49.7212 164.365 49.7212 164.957V168.625H48.212V165.255C48.212 164.952 48.1315 164.725 47.9705 164.573C47.8095 164.422 47.6083 164.346 47.3668 164.346C47.0922 164.346 46.878 164.433 46.7241 164.609C46.5702 164.781 46.4933 165.01 46.4933 165.294V168.625H45.0266V165.223C45.0266 164.955 44.9497 164.742 44.7958 164.584C44.6443 164.425 44.4442 164.346 44.1957 164.346C44.0276 164.346 43.8761 164.388 43.7411 164.474C43.6085 164.557 43.5032 164.674 43.4251 164.825C43.3469 164.974 43.3079 165.15 43.3079 165.351V168.625H41.7951ZM52.4716 168.728C52.1236 168.728 51.8134 168.668 51.5412 168.547C51.2689 168.424 51.0535 168.243 50.8949 168.004C50.7386 167.762 50.6605 167.461 50.6605 167.102C50.6605 166.799 50.7161 166.544 50.8274 166.338C50.9387 166.132 51.0902 165.966 51.282 165.841C51.4737 165.715 51.6915 165.621 51.9354 165.557C52.1816 165.493 52.4396 165.448 52.7095 165.422C53.0268 165.389 53.2824 165.358 53.4766 165.33C53.6707 165.299 53.8116 165.254 53.8991 165.195C53.9867 165.135 54.0305 165.048 54.0305 164.932V164.911C54.0305 164.686 53.9595 164.512 53.8175 164.388C53.6778 164.265 53.4789 164.204 53.2209 164.204C52.9486 164.204 52.732 164.264 52.571 164.385C52.41 164.503 52.3035 164.652 52.2514 164.832L50.8523 164.719C50.9233 164.387 51.063 164.101 51.2713 163.859C51.4796 163.616 51.7483 163.429 52.0774 163.298C52.4089 163.166 52.7924 163.099 53.228 163.099C53.531 163.099 53.821 163.135 54.098 163.206C54.3774 163.277 54.6248 163.387 54.8402 163.536C55.058 163.685 55.2296 163.877 55.3551 164.112C55.4806 164.344 55.5433 164.622 55.5433 164.946V168.625H54.1087V167.869H54.0661C53.9785 168.039 53.8613 168.189 53.7145 168.32C53.5677 168.447 53.3913 168.548 53.1854 168.621C52.9794 168.692 52.7415 168.728 52.4716 168.728ZM52.9048 167.684C53.1274 167.684 53.3239 167.64 53.4943 167.553C53.6648 167.463 53.7985 167.342 53.8956 167.19C53.9927 167.039 54.0412 166.867 54.0412 166.675V166.097C53.9938 166.127 53.9287 166.156 53.8459 166.182C53.7654 166.205 53.6742 166.228 53.5724 166.249C53.4706 166.268 53.3688 166.286 53.267 166.303C53.1652 166.317 53.0729 166.33 52.9901 166.342C52.8125 166.368 52.6574 166.409 52.5249 166.466C52.3923 166.523 52.2893 166.6 52.2159 166.697C52.1425 166.791 52.1058 166.91 52.1058 167.052C52.1058 167.258 52.1804 167.415 52.3295 167.524C52.4811 167.631 52.6728 167.684 52.9048 167.684ZM58.2298 165.472V168.625H56.717V161.352H58.1871V164.133H58.2511C58.3742 163.811 58.573 163.559 58.8477 163.376C59.1223 163.192 59.4667 163.099 59.881 163.099C60.2598 163.099 60.5901 163.182 60.8718 163.348C61.1559 163.511 61.3761 163.747 61.5323 164.055C61.6909 164.36 61.7691 164.726 61.7667 165.152V168.625H60.2539V165.422C60.2563 165.086 60.171 164.824 59.9982 164.637C59.8278 164.45 59.5887 164.357 59.2809 164.357C59.0749 164.357 58.8926 164.4 58.734 164.488C58.5778 164.576 58.4547 164.703 58.3647 164.871C58.2771 165.037 58.2321 165.237 58.2298 165.472Z" fill="#305055"/>
<path d="M108.563 167.418V166.047L111.542 161.352H112.76V163.213H112.053L110.31 165.976V166.033H114.624V167.418H108.563ZM112.075 168.625V166.999L112.11 166.398V161.352H113.754V168.625H112.075Z" fill="#232323"/>
<path d="M161.785 168.625V167.361L164.438 165.038C164.637 164.858 164.806 164.694 164.946 164.545C165.085 164.393 165.192 164.242 165.265 164.09C165.339 163.936 165.375 163.769 165.375 163.589C165.375 163.388 165.332 163.217 165.244 163.075C165.156 162.93 165.036 162.819 164.882 162.741C164.728 162.663 164.552 162.624 164.353 162.624C164.151 162.624 163.975 162.665 163.824 162.748C163.672 162.828 163.554 162.946 163.468 163.099C163.386 163.253 163.344 163.44 163.344 163.661H161.679C161.679 163.166 161.79 162.738 162.013 162.379C162.235 162.019 162.548 161.742 162.95 161.548C163.355 161.351 163.825 161.253 164.36 161.253C164.911 161.253 165.391 161.345 165.798 161.53C166.205 161.714 166.52 161.973 166.743 162.304C166.968 162.633 167.08 163.015 167.08 163.451C167.08 163.728 167.024 164.003 166.913 164.275C166.802 164.547 166.602 164.848 166.313 165.177C166.026 165.506 165.619 165.9 165.091 166.359L164.221 167.162V167.208H167.169V168.625H161.785Z" fill="#232323"/>
<path d="M207.207 167.418V166.047L210.187 161.352H211.405V163.213H210.698L208.954 165.976V166.033H213.269V167.418H207.207ZM210.719 168.625V166.999L210.755 166.398V161.352H212.399V168.625H210.719ZM216.371 167.574V162.432H217.802V167.574H216.371ZM214.514 165.72V164.286H219.656V165.72H214.514ZM220.9 168.625V167.361L223.552 165.038C223.751 164.858 223.92 164.694 224.06 164.545C224.2 164.393 224.306 164.242 224.38 164.09C224.453 163.936 224.49 163.769 224.49 163.589C224.49 163.388 224.446 163.217 224.358 163.075C224.271 162.93 224.15 162.819 223.996 162.741C223.842 162.663 223.666 162.624 223.467 162.624C223.266 162.624 223.089 162.665 222.938 162.748C222.786 162.828 222.668 162.946 222.583 163.099C222.5 163.253 222.458 163.44 222.458 163.661H220.793C220.793 163.166 220.904 162.738 221.127 162.379C221.349 162.019 221.662 161.742 222.064 161.548C222.469 161.351 222.939 161.253 223.474 161.253C224.026 161.253 224.505 161.345 224.912 161.53C225.319 161.714 225.634 161.973 225.857 162.304C226.082 162.633 226.194 163.015 226.194 163.451C226.194 163.728 226.139 164.003 226.027 164.275C225.916 164.547 225.716 164.848 225.427 165.177C225.141 165.506 224.734 165.9 224.206 166.359L223.336 167.162V167.208H226.283V168.625H220.9Z" fill="#232323"/>
<path d="M270.91 168.625V167.361L273.563 165.038C273.762 164.858 273.931 164.694 274.071 164.545C274.21 164.393 274.317 164.242 274.39 164.09C274.464 163.936 274.5 163.769 274.5 163.589C274.5 163.388 274.457 163.217 274.369 163.075C274.281 162.93 274.161 162.819 274.007 162.741C273.853 162.663 273.677 162.624 273.478 162.624C273.276 162.624 273.1 162.665 272.949 162.748C272.797 162.828 272.679 162.946 272.593 163.099C272.511 163.253 272.469 163.44 272.469 163.661H270.804C270.804 163.166 270.915 162.738 271.138 162.379C271.36 162.019 271.673 161.742 272.075 161.548C272.48 161.351 272.95 161.253 273.485 161.253C274.036 161.253 274.516 161.345 274.923 161.53C275.33 161.714 275.645 161.973 275.868 162.304C276.093 162.633 276.205 163.015 276.205 163.451C276.205 163.728 276.149 164.003 276.038 164.275C275.927 164.547 275.727 164.848 275.438 165.177C275.151 165.506 274.744 165.9 274.216 166.359L273.346 167.162V167.208H276.294V168.625H270.91Z" fill="#232323"/>
<path d="M328.12 165.013V166.352H324.754V165.013H328.12Z" fill="#232323"/>
<path d="M383.245 165.013V166.352H379.879V165.013H383.245Z" fill="#232323"/>
<path d="M21.0621 17.875V10.6023H24.0664C24.6109 10.6023 25.0808 10.7088 25.4762 10.9219C25.8739 11.1326 26.1805 11.4273 26.396 11.8061C26.6114 12.1825 26.7191 12.6205 26.7191 13.12C26.7191 13.6219 26.609 14.0611 26.3888 14.4375C26.171 14.8116 25.8597 15.1016 25.4549 15.3075C25.0501 15.5135 24.5695 15.6165 24.0131 15.6165H22.1594V14.2315H23.6864C23.9516 14.2315 24.1729 14.1854 24.3505 14.093C24.5304 14.0007 24.6665 13.8717 24.7589 13.706C24.8512 13.5379 24.8974 13.3426 24.8974 13.12C24.8974 12.8951 24.8512 12.701 24.7589 12.5376C24.6665 12.3719 24.5304 12.2441 24.3505 12.1541C24.1706 12.0642 23.9492 12.0192 23.6864 12.0192H22.82V17.875H21.0621ZM27.5856 17.875V10.6023H30.5898C31.1344 10.6023 31.6043 10.7005 31.9996 10.897C32.3974 11.0911 32.704 11.3705 32.9194 11.7351C33.1348 12.0973 33.2425 12.527 33.2425 13.0241C33.2425 13.5284 33.1325 13.9569 32.9123 14.3097C32.6921 14.66 32.3796 14.9276 31.9748 15.1122C31.57 15.2945 31.0906 15.3857 30.5366 15.3857H28.6367V14.0007H30.2099C30.475 14.0007 30.6964 13.9664 30.8739 13.8977C31.0539 13.8267 31.19 13.7202 31.2823 13.5781C31.3746 13.4337 31.4208 13.2491 31.4208 13.0241C31.4208 12.7992 31.3746 12.6134 31.2823 12.4666C31.19 12.3175 31.0539 12.2062 30.8739 12.1328C30.694 12.0571 30.4727 12.0192 30.2099 12.0192H29.3434V17.875H27.5856ZM31.68 14.5511L33.4911 17.875H31.5735L29.7979 14.5511H31.68ZM35.7798 17.875H33.8906L36.3445 10.6023H38.6847L41.1385 17.875H39.2493L37.5412 12.4347H37.4844L35.7798 17.875ZM35.5277 15.0128H39.4766V16.348H35.5277V15.0128ZM40.8171 10.6023H42.7809L44.3185 13.6456H44.3825L45.9201 10.6023H47.8839L45.2241 15.446V17.875H43.4769V15.446L40.8171 10.6023ZM48.6207 17.875V10.6023H53.6918V12.0298H50.3786V13.5213H53.4325V14.9524H50.3786V16.4474H53.6918V17.875H48.6207ZM54.7926 17.875V10.6023H57.7969C58.3414 10.6023 58.8113 10.7005 59.2067 10.897C59.6044 11.0911 59.911 11.3705 60.1264 11.7351C60.3419 12.0973 60.4496 12.527 60.4496 13.0241C60.4496 13.5284 60.3395 13.9569 60.1193 14.3097C59.8991 14.66 59.5866 14.9276 59.1818 15.1122C58.777 15.2945 58.2976 15.3857 57.7436 15.3857H55.8438V14.0007H57.4169C57.6821 14.0007 57.9034 13.9664 58.081 13.8977C58.2609 13.8267 58.397 13.7202 58.4893 13.5781C58.5817 13.4337 58.6278 13.2491 58.6278 13.0241C58.6278 12.7992 58.5817 12.6134 58.4893 12.4666C58.397 12.3175 58.2609 12.2062 58.081 12.1328C57.901 12.0571 57.6797 12.0192 57.4169 12.0192H56.5504V17.875H54.7926ZM58.8871 14.5511L60.6982 17.875H58.7805L57.005 14.5511H58.8871Z" fill="white"/>
<path d="M93.6602 12.7827C93.6366 12.5223 93.5312 12.3198 93.3442 12.1754C93.1595 12.0286 92.8956 11.9553 92.5523 11.9553C92.325 11.9553 92.1356 11.9848 91.9841 12.044C91.8326 12.1032 91.719 12.1849 91.6432 12.2891C91.5674 12.3909 91.5284 12.508 91.526 12.6406C91.5213 12.7495 91.5426 12.8454 91.5899 12.9283C91.6396 13.0111 91.7107 13.0845 91.803 13.1484C91.8977 13.21 92.0113 13.2644 92.1439 13.3118C92.2765 13.3591 92.4256 13.4006 92.5914 13.4361L93.2164 13.5781C93.5762 13.6562 93.8934 13.7604 94.1681 13.8906C94.445 14.0208 94.6771 14.1759 94.8641 14.3558C95.0535 14.5357 95.1967 14.7429 95.2938 14.9773C95.3908 15.2116 95.4405 15.4744 95.4429 15.7656C95.4405 16.2249 95.3245 16.6191 95.0949 16.9482C94.8653 17.2772 94.535 17.5294 94.1041 17.7045C93.6756 17.8797 93.1584 17.9673 92.5523 17.9673C91.9439 17.9673 91.4136 17.8762 90.9614 17.6939C90.5092 17.5116 90.1576 17.2346 89.9067 16.8629C89.6557 16.4912 89.5267 16.0213 89.5196 15.4531H91.2029C91.2171 15.6875 91.2798 15.8828 91.3911 16.0391C91.5023 16.1953 91.655 16.3137 91.8492 16.3942C92.0457 16.4747 92.2729 16.5149 92.531 16.5149C92.7677 16.5149 92.969 16.483 93.1347 16.419C93.3028 16.3551 93.4318 16.2663 93.5218 16.1527C93.6117 16.0391 93.6579 15.9089 93.6602 15.7621C93.6579 15.6248 93.6153 15.5076 93.5324 15.4105C93.4495 15.3111 93.3217 15.2259 93.1489 15.1548C92.9784 15.0814 92.7606 15.014 92.4955 14.9524L91.7355 14.7749C91.1058 14.6304 90.6098 14.3973 90.2476 14.0753C89.8854 13.7509 89.7055 13.313 89.7078 12.7614C89.7055 12.3116 89.8262 11.9174 90.07 11.5788C90.3139 11.2403 90.6512 10.9763 91.0821 10.7869C91.513 10.5975 92.0042 10.5028 92.5558 10.5028C93.1193 10.5028 93.6082 10.5987 94.0225 10.7905C94.4391 10.9799 94.7623 11.2462 94.9919 11.5895C95.2216 11.9328 95.3387 12.3305 95.3435 12.7827H93.6602ZM100.731 10.6023H102.485V15.2933C102.485 15.8355 102.356 16.3078 102.098 16.7102C101.84 17.1103 101.48 17.4205 101.018 17.6406C100.557 17.8584 100.02 17.9673 99.4095 17.9673C98.7916 17.9673 98.2519 17.8584 97.7902 17.6406C97.3286 17.4205 96.9699 17.1103 96.7142 16.7102C96.4585 16.3078 96.3307 15.8355 96.3307 15.2933V10.6023H98.0885V15.1406C98.0885 15.3916 98.143 15.6153 98.2519 15.8118C98.3631 16.0083 98.5182 16.1622 98.7171 16.2734C98.9159 16.3847 99.1468 16.4403 99.4095 16.4403C99.6723 16.4403 99.902 16.3847 100.098 16.2734C100.297 16.1622 100.452 16.0083 100.564 15.8118C100.675 15.6153 100.731 15.3916 100.731 15.1406V10.6023ZM109.776 10.6023V17.875H108.285L105.391 13.6776H105.344V17.875H103.587V10.6023H105.099L107.962 14.7926H108.022V10.6023H109.776ZM117.071 10.6023V17.875H115.58L112.685 13.6776H112.639V17.875H110.881V10.6023H112.394L115.256 14.7926H115.317V10.6023H117.071ZM119.75 17.875H117.86L120.314 10.6023H122.654L125.108 17.875H123.219L121.511 12.4347H121.454L119.75 17.875ZM119.497 15.0128H123.446V16.348H119.497V15.0128ZM125.891 17.875V10.6023H127.649V13.5213H130.515V10.6023H132.269V17.875H130.515V14.9524H127.649V17.875H125.891Z" fill="white"/>
<path d="M200.535 12.7827C200.512 12.5223 200.406 12.3198 200.219 12.1754C200.035 12.0286 199.771 11.9553 199.427 11.9553C199.2 11.9553 199.011 11.9848 198.859 12.044C198.708 12.1032 198.594 12.1849 198.518 12.2891C198.442 12.3909 198.403 12.508 198.401 12.6406C198.396 12.7495 198.418 12.8454 198.465 12.9283C198.515 13.0111 198.586 13.0845 198.678 13.1484C198.773 13.21 198.886 13.2644 199.019 13.3118C199.151 13.3591 199.301 13.4006 199.466 13.4361L200.091 13.5781C200.451 13.6562 200.768 13.7604 201.043 13.8906C201.32 14.0208 201.552 14.1759 201.739 14.3558C201.928 14.5357 202.072 14.7429 202.169 14.9773C202.266 15.2116 202.316 15.4744 202.318 15.7656C202.316 16.2249 202.2 16.6191 201.97 16.9482C201.74 17.2772 201.41 17.5294 200.979 17.7045C200.551 17.8797 200.033 17.9673 199.427 17.9673C198.819 17.9673 198.289 17.8762 197.836 17.6939C197.384 17.5116 197.033 17.2346 196.782 16.8629C196.531 16.4912 196.402 16.0213 196.395 15.4531H198.078C198.092 15.6875 198.155 15.8828 198.266 16.0391C198.377 16.1953 198.53 16.3137 198.724 16.3942C198.921 16.4747 199.148 16.5149 199.406 16.5149C199.643 16.5149 199.844 16.483 200.01 16.419C200.178 16.3551 200.307 16.2663 200.397 16.1527C200.487 16.0391 200.533 15.9089 200.535 15.7621C200.533 15.6248 200.49 15.5076 200.407 15.4105C200.325 15.3111 200.197 15.2259 200.024 15.1548C199.853 15.0814 199.636 15.014 199.37 14.9524L198.611 14.7749C197.981 14.6304 197.485 14.3973 197.123 14.0753C196.76 13.7509 196.58 13.313 196.583 12.7614C196.58 12.3116 196.701 11.9174 196.945 11.5788C197.189 11.2403 197.526 10.9763 197.957 10.7869C198.388 10.5975 198.879 10.5028 199.431 10.5028C199.994 10.5028 200.483 10.5987 200.897 10.7905C201.314 10.9799 201.637 11.2462 201.867 11.5895C202.097 11.9328 202.214 12.3305 202.218 12.7827H200.535ZM207.606 10.6023H209.36V15.2933C209.36 15.8355 209.231 16.3078 208.973 16.7102C208.715 17.1103 208.355 17.4205 207.893 17.6406C207.432 17.8584 206.895 17.9673 206.285 17.9673C205.667 17.9673 205.127 17.8584 204.665 17.6406C204.204 17.4205 203.845 17.1103 203.589 16.7102C203.334 16.3078 203.206 15.8355 203.206 15.2933V10.6023H204.964V15.1406C204.964 15.3916 205.018 15.6153 205.127 15.8118C205.238 16.0083 205.393 16.1622 205.592 16.2734C205.791 16.3847 206.022 16.4403 206.285 16.4403C206.547 16.4403 206.777 16.3847 206.973 16.2734C207.172 16.1622 207.327 16.0083 207.439 15.8118C207.55 15.6153 207.606 15.3916 207.606 15.1406V10.6023ZM216.651 10.6023V17.875H215.16L212.266 13.6776H212.219V17.875H210.462V10.6023H211.974L214.837 14.7926H214.897V10.6023H216.651ZM223.946 10.6023V17.875H222.455L219.56 13.6776H219.514V17.875H217.756V10.6023H219.269L222.131 14.7926H222.192V10.6023H223.946ZM226.625 17.875H224.735L227.189 10.6023H229.529L231.983 17.875H230.094L228.386 12.4347H228.329L226.625 17.875ZM226.372 15.0128H230.321V16.348H226.372V15.0128ZM232.766 17.875V10.6023H234.524V13.5213H237.39V10.6023H239.144V17.875H237.39V14.9524H234.524V17.875H232.766Z" fill="white"/>
<path d="M268.151 10.6023V17.875H266.66L263.766 13.6776H263.719V17.875H261.962V10.6023H263.474L266.337 14.7926H266.397V10.6023H268.151ZM270.83 17.875H268.94L271.394 10.6023H273.734L276.188 17.875H274.299L272.591 12.4347H272.534L270.83 17.875ZM270.578 15.0128H274.526V16.348H270.578V15.0128ZM276.971 17.875V10.6023H281.936V12.0298H278.729V13.5213H281.62V14.9524H278.729V17.875H276.971ZM282.821 17.875V10.6023H284.579V16.4474H287.604V17.875H282.821Z" fill="white"/>
<path d="M315.284 17.875L313.168 10.6023H315.11L316.208 15.3679H316.268L317.521 10.6023H319.105L320.359 15.3786H320.419L321.52 10.6023H323.459L321.346 17.875H319.652L318.342 13.4645H318.285L316.975 17.875H315.284ZM325.943 10.6023V17.875H324.185V10.6023H325.943ZM326.809 12.0298V10.6023H332.956V12.0298H330.75V17.875H329.017V12.0298H326.809ZM333.814 17.875V10.6023H336.818C337.363 10.6023 337.833 10.7005 338.228 10.897C338.626 11.0911 338.932 11.3705 339.148 11.7351C339.363 12.0973 339.471 12.527 339.471 13.0241C339.471 13.5284 339.361 13.9569 339.141 14.3097C338.921 14.66 338.608 14.9276 338.203 15.1122C337.798 15.2945 337.319 15.3857 336.765 15.3857H334.865V14.0007H336.438C336.704 14.0007 336.925 13.9664 337.102 13.8977C337.282 13.8267 337.419 13.7202 337.511 13.5781C337.603 13.4337 337.649 13.2491 337.649 13.0241C337.649 12.7992 337.603 12.6134 337.511 12.4666C337.419 12.3175 337.282 12.2062 337.102 12.1328C336.923 12.0571 336.701 12.0192 336.438 12.0192H335.572V17.875H333.814ZM337.909 14.5511L339.72 17.875H337.802L336.026 14.5511H337.909Z" fill="white"/>
<path d="M375.026 10.6023V17.875H373.535L370.641 13.6776H370.594V17.875H368.837V10.6023H370.349L373.212 14.7926H373.272V10.6023H375.026ZM377.705 17.875H375.815L378.269 10.6023H380.609L383.063 17.875H381.174L379.466 12.4347H379.409L377.705 17.875ZM377.453 15.0128H381.401V16.348H377.453V15.0128ZM383.846 17.875V10.6023H388.811V12.0298H385.604V13.5213H388.495V14.9524H385.604V17.875H383.846ZM389.696 17.875V10.6023H391.454V16.4474H394.479V17.875H389.696Z" fill="white"/>
<path d="M153.071 17.875V10.6023H158.035V12.0298H154.829V13.5213H157.719V14.9524H154.829V17.875H153.071ZM159.585 17.875H157.696L160.15 10.6023H162.49L164.944 17.875H163.055L161.347 12.4347H161.29L159.585 17.875ZM159.333 15.0128H163.282V16.348H159.333V15.0128ZM165.727 17.875V10.6023H168.731C169.276 10.6023 169.746 10.7005 170.141 10.897C170.539 11.0911 170.846 11.3705 171.061 11.7351C171.276 12.0973 171.384 12.527 171.384 13.0241C171.384 13.5284 171.274 13.9569 171.054 14.3097C170.834 14.66 170.521 14.9276 170.116 15.1122C169.712 15.2945 169.232 15.3857 168.678 15.3857H166.778V14.0007H168.351C168.617 14.0007 168.838 13.9664 169.016 13.8977C169.195 13.8267 169.332 13.7202 169.424 13.5781C169.516 13.4337 169.562 13.2491 169.562 13.0241C169.562 12.7992 169.516 12.6134 169.424 12.4666C169.332 12.3175 169.195 12.2062 169.016 12.1328C168.836 12.0571 168.614 12.0192 168.351 12.0192H167.485V17.875H165.727ZM169.822 14.5511L171.633 17.875H169.715L167.94 14.5511H169.822ZM172.323 17.875V16.8736L175.857 12.0298H172.327V10.6023H178.08V11.6037L174.546 16.4474H178.076V17.875H172.323Z" fill="white"/>
<defs>
<filter id="filter0_d_1951_2079" x="0.125" y="54" width="410.75" height="31.625" filterUnits="userSpaceOnUse" color-interpolation-filters="sRGB">
<feFlood flood-opacity="0" result="BackgroundImageFix"/>
<feColorMatrix in="SourceAlpha" type="matrix" values="0 0 0 0 0 0 0 0 0 0 0 0 0 0 0 0 0 0 127 0" result="hardAlpha"/>
<feOffset dy="4"/>
<feGaussianBlur stdDeviation="2"/>
<feComposite in2="hardAlpha" operator="out"/>
<feColorMatrix type="matrix" values="0 0 0 0 0 0 0 0 0 0 0 0 0 0 0 0 0 0 0.2 0"/>
<feBlend mode="normal" in2="BackgroundImageFix" result="effect1_dropShadow_1951_2079"/>
<feBlend mode="normal" in="SourceGraphic" in2="effect1_dropShadow_1951_2079" result="shape"/>
</filter>
</defs>
</svg>
