<svg width="410" height="181" viewBox="0 0 410 181" fill="none" xmlns="http://www.w3.org/2000/svg">
<rect x="3.5" y="31.5" width="403" height="149" fill="white" stroke="#585858"/>
<g filter="url(#filter0_d_2896_2252)">
<rect x="4" y="55" width="402" height="24" fill="#A6DFFF"/>
</g>
<line x1="113.5" y1="32" x2="113.5" y2="181" stroke="#585858"/>
<line x1="205.5" y1="32" x2="205.5" y2="181" stroke="#585858"/>
<line x1="306.5" y1="32" x2="306.5" y2="181" stroke="#585858"/>
<line x1="3" y1="54.5" x2="407" y2="54.5" stroke="#585858"/>
<line x1="3" y1="79.5" x2="407" y2="79.5" stroke="#585858"/>
<line x1="3" y1="105.5" x2="407" y2="105.5" stroke="#585858"/>
<line x1="3" y1="129.5" x2="407" y2="129.5" stroke="#585858"/>
<line x1="3" y1="154.5" x2="407" y2="154.5" stroke="#585858"/>
<path d="M47.6204 46V38.7273H52.4357V39.995H49.158V41.728H52.1161V42.9957H49.158V46H47.6204ZM54.9286 46.103C54.5806 46.103 54.2705 46.0426 53.9982 45.9219C53.726 45.7988 53.5105 45.6177 53.3519 45.3786C53.1957 45.1371 53.1175 44.8364 53.1175 44.4766C53.1175 44.1735 53.1732 43.919 53.2844 43.7131C53.3957 43.5071 53.5472 43.3414 53.739 43.2159C53.9308 43.0904 54.1486 42.9957 54.3924 42.9318C54.6386 42.8679 54.8967 42.8229 55.1665 42.7969C55.4838 42.7637 55.7395 42.733 55.9336 42.7045C56.1277 42.6738 56.2686 42.6288 56.3562 42.5696C56.4438 42.5104 56.4876 42.4228 56.4876 42.3068V42.2855C56.4876 42.0606 56.4165 41.8866 56.2745 41.7635C56.1348 41.6404 55.936 41.5788 55.6779 41.5788C55.4057 41.5788 55.189 41.6392 55.0281 41.7599C54.8671 41.8783 54.7605 42.0275 54.7085 42.2074L53.3093 42.0938C53.3803 41.7623 53.52 41.4759 53.7283 41.2344C53.9367 40.9905 54.2054 40.8035 54.5344 40.6733C54.8659 40.5407 55.2494 40.4744 55.685 40.4744C55.988 40.4744 56.2781 40.5099 56.555 40.581C56.8344 40.652 57.0818 40.7621 57.2972 40.9112C57.515 41.0604 57.6867 41.2521 57.8121 41.4865C57.9376 41.7185 58.0004 41.9967 58.0004 42.321V46H56.5657V45.2436H56.5231C56.4355 45.4141 56.3183 45.5644 56.1715 45.6946C56.0247 45.8224 55.8484 45.9231 55.6424 45.9964C55.4364 46.0675 55.1985 46.103 54.9286 46.103ZM55.3619 45.0589C55.5844 45.0589 55.7809 45.0152 55.9513 44.9276C56.1218 44.8376 56.2556 44.7169 56.3526 44.5653C56.4497 44.4138 56.4982 44.2422 56.4982 44.0504V43.4716C56.4509 43.5024 56.3858 43.5308 56.3029 43.5568C56.2224 43.5805 56.1313 43.603 56.0295 43.6243C55.9277 43.6432 55.8259 43.661 55.7241 43.6776C55.6223 43.6918 55.5299 43.7048 55.4471 43.7166C55.2695 43.7427 55.1145 43.7841 54.9819 43.8409C54.8493 43.8977 54.7463 43.9747 54.6729 44.0717C54.5996 44.1664 54.5629 44.2848 54.5629 44.4268C54.5629 44.6328 54.6374 44.7902 54.7866 44.8991C54.9381 45.0057 55.1299 45.0589 55.3619 45.0589ZM59.174 40.5455H60.6868V46.2699C60.6868 46.6913 60.6039 47.0322 60.4382 47.2926C60.2725 47.553 60.0346 47.7436 59.7244 47.8643C59.4167 47.9851 59.0485 48.0455 58.62 48.0455C58.5679 48.0455 58.5182 48.0443 58.4709 48.0419C58.4212 48.0419 58.3691 48.0407 58.3146 48.0384V46.8558C58.3549 46.8582 58.3904 46.8594 58.4212 46.8594C58.4496 46.8617 58.4804 46.8629 58.5135 46.8629C58.7573 46.8629 58.9278 46.8108 59.0249 46.7067C59.1243 46.6049 59.174 46.451 59.174 46.245V40.5455ZM59.9268 39.8423C59.7043 39.8423 59.5125 39.7678 59.3516 39.6186C59.1906 39.4671 59.1101 39.286 59.1101 39.0753C59.1101 38.867 59.1906 38.6882 59.3516 38.5391C59.5125 38.3875 59.7043 38.3118 59.9268 38.3118C60.1541 38.3118 60.3471 38.3875 60.5057 38.5391C60.6667 38.6882 60.7472 38.867 60.7472 39.0753C60.7472 39.286 60.6667 39.4671 60.5057 39.6186C60.3471 39.7678 60.1541 39.8423 59.9268 39.8423ZM61.8986 46V40.5455H63.3652V41.4972H63.4221C63.5215 41.1586 63.6884 40.9029 63.9228 40.7301C64.1571 40.5549 64.427 40.4673 64.7324 40.4673C64.8082 40.4673 64.8899 40.4721 64.9775 40.4815C65.065 40.491 65.142 40.504 65.2083 40.5206V41.8629C65.1373 41.8416 65.039 41.8227 64.9135 41.8061C64.7881 41.7895 64.6732 41.7812 64.5691 41.7812C64.3465 41.7812 64.1477 41.8298 63.9725 41.9268C63.7997 42.0215 63.6623 42.1541 63.5605 42.3246C63.4611 42.495 63.4114 42.6915 63.4114 42.9141V46H61.8986Z" fill="#305055"/>
<path d="M157.285 45.875V44.6108L159.938 42.2884C160.137 42.1084 160.306 41.9439 160.446 41.7947C160.585 41.6432 160.692 41.4917 160.765 41.3402C160.839 41.1863 160.875 41.0194 160.875 40.8395C160.875 40.6383 160.832 40.4666 160.744 40.3246C160.656 40.1802 160.536 40.0689 160.382 39.9908C160.228 39.9126 160.052 39.8736 159.853 39.8736C159.651 39.8736 159.475 39.915 159.324 39.9979C159.172 40.0784 159.054 40.1955 158.968 40.3494C158.886 40.5033 158.844 40.6903 158.844 40.9105H157.179C157.179 40.4157 157.29 39.9884 157.513 39.6286C157.735 39.2687 158.048 38.9917 158.45 38.7976C158.855 38.6011 159.325 38.5028 159.86 38.5028C160.411 38.5028 160.891 38.5952 161.298 38.7798C161.705 38.9645 162.02 39.2225 162.243 39.554C162.468 39.883 162.58 40.2654 162.58 40.701C162.58 40.978 162.524 41.2526 162.413 41.5249C162.302 41.7971 162.102 42.0978 161.813 42.4268C161.526 42.7559 161.119 43.1501 160.591 43.6094L159.721 44.4119V44.4581H162.669V45.875H157.285Z" fill="#232323"/>
<path d="M255.285 45.875V44.6108L257.938 42.2884C258.137 42.1084 258.306 41.9439 258.446 41.7947C258.585 41.6432 258.692 41.4917 258.765 41.3402C258.839 41.1863 258.875 41.0194 258.875 40.8395C258.875 40.6383 258.832 40.4666 258.744 40.3246C258.656 40.1802 258.536 40.0689 258.382 39.9908C258.228 39.9126 258.052 39.8736 257.853 39.8736C257.651 39.8736 257.475 39.915 257.324 39.9979C257.172 40.0784 257.054 40.1955 256.968 40.3494C256.886 40.5033 256.844 40.6903 256.844 40.9105H255.179C255.179 40.4157 255.29 39.9884 255.513 39.6286C255.735 39.2687 256.048 38.9917 256.45 38.7976C256.855 38.6011 257.325 38.5028 257.86 38.5028C258.411 38.5028 258.891 38.5952 259.298 38.7798C259.705 38.9645 260.02 39.2225 260.243 39.554C260.468 39.883 260.58 40.2654 260.58 40.701C260.58 40.978 260.524 41.2526 260.413 41.5249C260.302 41.7971 260.102 42.0978 259.813 42.4268C259.526 42.7559 259.119 43.1501 258.591 43.6094L257.721 44.4119V44.4581H260.669V45.875H255.285Z" fill="#232323"/>
<path d="M361.495 42.2635V43.6023H358.129V42.2635H361.495Z" fill="#232323"/>
<path d="M44.926 70.75H42.3479V63.4773H44.9474C45.6789 63.4773 46.3086 63.6229 46.8366 63.9141C47.3645 64.2029 47.7705 64.6184 48.0546 65.1605C48.3411 65.7027 48.4843 66.3513 48.4843 67.1065C48.4843 67.8641 48.3411 68.5152 48.0546 69.0597C47.7705 69.6042 47.3621 70.022 46.8295 70.3132C46.2992 70.6044 45.6647 70.75 44.926 70.75ZM43.8856 69.4325H44.8621C45.3167 69.4325 45.699 69.352 46.0091 69.1911C46.3216 69.0277 46.556 68.7756 46.7123 68.4347C46.8709 68.0914 46.9502 67.6487 46.9502 67.1065C46.9502 66.5691 46.8709 66.13 46.7123 65.7891C46.556 65.4482 46.3228 65.1972 46.0127 65.0362C45.7026 64.8752 45.3202 64.7947 44.8657 64.7947H43.8856V69.4325ZM51.1077 67.5966V70.75H49.5949V63.4773H51.0651V66.2578H51.129C51.2521 65.9358 51.451 65.6837 51.7256 65.5014C52.0002 65.3168 52.3447 65.2244 52.759 65.2244C53.1378 65.2244 53.468 65.3073 53.7497 65.473C54.0338 65.6364 54.254 65.8719 54.4102 66.1797C54.5689 66.4851 54.647 66.8509 54.6446 67.277V70.75H53.1318V67.5469C53.1342 67.2107 53.049 66.9491 52.8762 66.7621C52.7057 66.575 52.4666 66.4815 52.1588 66.4815C51.9529 66.4815 51.7706 66.5253 51.6119 66.6129C51.4557 66.7005 51.3326 66.8284 51.2426 66.9964C51.155 67.1622 51.1101 67.3622 51.1077 67.5966ZM59.333 68.4276V65.2955H60.8458V70.75H59.3934V69.7592H59.3366C59.2135 70.0788 59.0087 70.3357 58.7222 70.5298C58.4381 70.724 58.0913 70.821 57.6817 70.821C57.3171 70.821 56.9964 70.7382 56.7194 70.5724C56.4424 70.4067 56.2258 70.1712 56.0695 69.8658C55.9156 69.5604 55.8375 69.1946 55.8351 68.7685V65.2955H57.3479V68.4986C57.3503 68.8205 57.4367 69.075 57.6072 69.2621C57.7776 69.4491 58.0061 69.5426 58.2925 69.5426C58.4748 69.5426 58.6453 69.5012 58.8039 69.4183C58.9625 69.3331 59.0903 69.2076 59.1874 69.0419C59.2868 68.8762 59.3354 68.6714 59.333 68.4276ZM63.5686 67.5966V70.75H62.0558V63.4773H63.526V66.2578H63.5899C63.713 65.9358 63.9119 65.6837 64.1865 65.5014C64.4611 65.3168 64.8056 65.2244 65.2199 65.2244C65.5987 65.2244 65.9289 65.3073 66.2107 65.473C66.4948 65.6364 66.7149 65.8719 66.8712 66.1797C67.0298 66.4851 67.1079 66.8509 67.1056 67.277V70.75H65.5928V67.5469C65.5951 67.2107 65.5099 66.9491 65.3371 66.7621C65.1666 66.575 64.9275 66.4815 64.6198 66.4815C64.4138 66.4815 64.2315 66.5253 64.0729 66.6129C63.9166 66.7005 63.7935 66.8284 63.7036 66.9964C63.616 67.1622 63.571 67.3622 63.5686 67.5966ZM68.2961 70.75V65.2955H69.7627V66.2472H69.8195C69.9189 65.9086 70.0858 65.6529 70.3202 65.4801C70.5546 65.3049 70.8245 65.2173 71.1299 65.2173C71.2056 65.2173 71.2873 65.2221 71.3749 65.2315C71.4625 65.241 71.5394 65.254 71.6057 65.2706V66.6129C71.5347 66.5916 71.4365 66.5727 71.311 66.5561C71.1855 66.5395 71.0707 66.5312 70.9665 66.5312C70.744 66.5312 70.5451 66.5798 70.3699 66.6768C70.1971 66.7715 70.0598 66.9041 69.958 67.0746C69.8586 67.245 69.8089 67.4415 69.8089 67.6641V70.75H68.2961Z" fill="#305055"/>
<path d="M156.938 69.4176V68.0469L159.917 63.3523H161.135V65.2131H160.428L158.685 67.9759V68.0327H162.999V69.4176H156.938ZM160.45 70.625V68.9986L160.485 68.3984V63.3523H162.129V70.625H160.45Z" fill="#232323"/>
<path d="M254.938 69.4176V68.0469L257.917 63.3523H259.135V65.2131H258.428L256.685 67.9759V68.0327H260.999V69.4176H254.938ZM258.45 70.625V68.9986L258.485 68.3984V63.3523H260.129V70.625H258.45Z" fill="#232323"/>
<path d="M357.16 70.625V69.3608L359.813 67.0384C360.012 66.8584 360.181 66.6939 360.321 66.5447C360.46 66.3932 360.567 66.2417 360.64 66.0902C360.714 65.9363 360.75 65.7694 360.75 65.5895C360.75 65.3883 360.707 65.2166 360.619 65.0746C360.531 64.9302 360.411 64.8189 360.257 64.7408C360.103 64.6626 359.927 64.6236 359.728 64.6236C359.526 64.6236 359.35 64.665 359.199 64.7479C359.047 64.8284 358.929 64.9455 358.843 65.0994C358.761 65.2533 358.719 65.4403 358.719 65.6605H357.054C357.054 65.1657 357.165 64.7384 357.388 64.3786C357.61 64.0187 357.923 63.7417 358.325 63.5476C358.73 63.3511 359.2 63.2528 359.735 63.2528C360.286 63.2528 360.766 63.3452 361.173 63.5298C361.58 63.7145 361.895 63.9725 362.118 64.304C362.343 64.633 362.455 65.0154 362.455 65.451C362.455 65.728 362.399 66.0026 362.288 66.2749C362.177 66.5471 361.977 66.8478 361.688 67.1768C361.401 67.5059 360.994 67.9001 360.466 68.3594L359.596 69.1619V69.2081H362.544V70.625H357.16Z" fill="#232323"/>
<path d="M49.5429 95.5H47.8952L50.4058 88.2273H52.3873L54.8944 95.5H53.2467L51.425 89.8892H51.3682L49.5429 95.5ZM49.4399 92.6413H53.3319V93.8416H49.4399V92.6413ZM60.1528 91.6009L58.7678 91.6861C58.7442 91.5677 58.6933 91.4612 58.6151 91.3665C58.537 91.2694 58.434 91.1925 58.3062 91.1357C58.1807 91.0765 58.0304 91.0469 57.8552 91.0469C57.6208 91.0469 57.4231 91.0966 57.2622 91.196C57.1012 91.2931 57.0207 91.4233 57.0207 91.5866C57.0207 91.7169 57.0728 91.8269 57.1769 91.9169C57.2811 92.0069 57.4598 92.0791 57.7132 92.1335L58.7004 92.3324C59.2307 92.4413 59.626 92.6165 59.8865 92.858C60.1469 93.0994 60.2771 93.4167 60.2771 93.8097C60.2771 94.1671 60.1717 94.4808 59.961 94.7507C59.7527 95.0206 59.4662 95.2313 59.1017 95.3828C58.7394 95.532 58.3216 95.6065 57.8481 95.6065C57.126 95.6065 56.5508 95.4562 56.1222 95.1555C55.6961 94.8525 55.4463 94.4406 55.373 93.9197L56.8609 93.8416C56.9059 94.0618 57.0148 94.2299 57.1876 94.3459C57.3604 94.4595 57.5818 94.5163 57.8517 94.5163C58.1168 94.5163 58.3299 94.4654 58.4909 94.3636C58.6542 94.2595 58.7371 94.1257 58.7394 93.9624C58.7371 93.825 58.6791 93.7126 58.5654 93.625C58.4518 93.535 58.2766 93.4664 58.0399 93.419L57.0953 93.2308C56.5626 93.1243 56.166 92.9396 55.9056 92.6768C55.6476 92.4141 55.5186 92.0791 55.5186 91.6719C55.5186 91.3215 55.6133 91.0196 55.8026 90.7663C55.9944 90.513 56.2631 90.3177 56.6088 90.1804C56.9568 90.0431 57.364 89.9744 57.8303 89.9744C58.5193 89.9744 59.0614 90.12 59.4568 90.4112C59.8545 90.7024 60.0865 91.099 60.1528 91.6009ZM61.2297 95.5V90.0455H62.6963V90.9972H62.7531C62.8525 90.6586 63.0194 90.4029 63.2538 90.2301C63.4882 90.0549 63.7581 89.9673 64.0635 89.9673C64.1392 89.9673 64.2209 89.9721 64.3085 89.9815C64.3961 89.991 64.473 90.004 64.5393 90.0206V91.3629C64.4683 91.3416 64.3701 91.3227 64.2446 91.3061C64.1191 91.2895 64.0043 91.2812 63.9001 91.2812C63.6776 91.2812 63.4787 91.3298 63.3035 91.4268C63.1307 91.5215 62.9934 91.6541 62.8916 91.8246C62.7922 91.995 62.7425 92.1915 62.7425 92.4141V95.5H61.2297Z" fill="#305055"/>
<path d="M156.938 94.1676V92.7969L159.917 88.1023H161.135V89.9631H160.428L158.685 92.7259V92.7827H162.999V94.1676H156.938ZM160.45 95.375V93.7486L160.485 93.1484V88.1023H162.129V95.375H160.45Z" fill="#232323"/>
<path d="M254.938 94.1676V92.7969L257.917 88.1023H259.135V89.9631H258.428L256.685 92.7259V92.7827H260.999V94.1676H254.938ZM258.45 95.375V93.7486L258.485 93.1484V88.1023H260.129V95.375H258.45Z" fill="#232323"/>
<path d="M361.495 91.7635V93.1023H358.129V91.7635H361.495Z" fill="#232323"/>
<path d="M36.4729 112.977H38.3692L40.3721 117.864H40.4573L42.4601 112.977H44.3564V120.25H42.865V115.516H42.8046L40.9225 120.214H39.9069L38.0248 115.499H37.9644V120.25H36.4729V112.977ZM47.1503 120.353C46.8023 120.353 46.4922 120.293 46.2199 120.172C45.9477 120.049 45.7322 119.868 45.5736 119.629C45.4173 119.387 45.3392 119.086 45.3392 118.727C45.3392 118.424 45.3949 118.169 45.5061 117.963C45.6174 117.757 45.7689 117.591 45.9607 117.466C46.1524 117.34 46.3702 117.246 46.6141 117.182C46.8603 117.118 47.1183 117.073 47.3882 117.047C47.7055 117.014 47.9611 116.983 48.1553 116.955C48.3494 116.924 48.4903 116.879 48.5779 116.82C48.6655 116.76 48.7093 116.673 48.7093 116.557V116.536C48.7093 116.311 48.6382 116.137 48.4962 116.013C48.3565 115.89 48.1576 115.829 47.8996 115.829C47.6273 115.829 47.4107 115.889 47.2497 116.01C47.0887 116.128 46.9822 116.277 46.9301 116.457L45.531 116.344C45.602 116.012 45.7417 115.726 45.95 115.484C46.1584 115.241 46.4271 115.054 46.7561 114.923C47.0876 114.791 47.4711 114.724 47.9067 114.724C48.2097 114.724 48.4997 114.76 48.7767 114.831C49.0561 114.902 49.3035 115.012 49.5189 115.161C49.7367 115.31 49.9084 115.502 50.0338 115.737C50.1593 115.969 50.222 116.247 50.222 116.571V120.25H48.7874V119.494H48.7448C48.6572 119.664 48.54 119.814 48.3932 119.945C48.2464 120.072 48.07 120.173 47.8641 120.246C47.6581 120.317 47.4202 120.353 47.1503 120.353ZM47.5835 119.309C47.8061 119.309 48.0026 119.265 48.173 119.178C48.3435 119.088 48.4772 118.967 48.5743 118.815C48.6714 118.664 48.7199 118.492 48.7199 118.3V117.722C48.6726 117.752 48.6075 117.781 48.5246 117.807C48.4441 117.83 48.353 117.853 48.2512 117.874C48.1494 117.893 48.0476 117.911 47.9458 117.928C47.844 117.942 47.7516 117.955 47.6688 117.967C47.4912 117.993 47.3361 118.034 47.2036 118.091C47.071 118.148 46.968 118.225 46.8946 118.322C46.8212 118.416 46.7845 118.535 46.7845 118.677C46.7845 118.883 46.8591 119.04 47.0083 119.149C47.1598 119.256 47.3515 119.309 47.5835 119.309ZM53.8531 122.409C53.363 122.409 52.9428 122.342 52.5924 122.207C52.2444 122.074 51.9674 121.893 51.7615 121.663C51.5555 121.434 51.4217 121.176 51.3602 120.889L52.7593 120.701C52.8019 120.81 52.8694 120.912 52.9617 121.006C53.0541 121.101 53.176 121.177 53.3275 121.234C53.4814 121.293 53.6684 121.322 53.8886 121.322C54.2177 121.322 54.4887 121.242 54.7018 121.081C54.9172 120.922 55.0249 120.656 55.0249 120.282V119.284H54.961C54.8947 119.436 54.7953 119.579 54.6627 119.714C54.5302 119.849 54.3597 119.959 54.1514 120.044C53.943 120.129 53.6945 120.172 53.4056 120.172C52.9961 120.172 52.6232 120.077 52.287 119.888C51.9532 119.696 51.6869 119.404 51.488 119.011C51.2915 118.615 51.1933 118.116 51.1933 117.512C51.1933 116.894 51.2939 116.378 51.4951 115.964C51.6963 115.549 51.9639 115.239 52.2977 115.033C52.6338 114.827 53.002 114.724 53.4021 114.724C53.7075 114.724 53.9632 114.777 54.1691 114.881C54.3751 114.982 54.5408 115.11 54.6663 115.264C54.7941 115.416 54.8924 115.565 54.961 115.712H55.0178V114.795H56.52V120.303C56.52 120.767 56.4063 121.156 56.1791 121.468C55.9518 121.781 55.6369 122.015 55.2345 122.171C54.8344 122.33 54.3739 122.409 53.8531 122.409ZM53.885 119.036C54.1289 119.036 54.3348 118.975 54.5029 118.854C54.6734 118.731 54.8036 118.556 54.8936 118.329C54.9859 118.099 55.032 117.825 55.032 117.505C55.032 117.185 54.9871 116.908 54.8971 116.674C54.8071 116.437 54.6769 116.254 54.5065 116.124C54.336 115.993 54.1289 115.928 53.885 115.928C53.6365 115.928 53.4269 115.996 53.2565 116.131C53.086 116.263 52.957 116.448 52.8694 116.685C52.7818 116.921 52.738 117.195 52.738 117.505C52.738 117.82 52.7818 118.092 52.8694 118.322C52.9594 118.549 53.0884 118.725 53.2565 118.851C53.4269 118.974 53.6365 119.036 53.885 119.036ZM59.2366 117.097V120.25H57.7238V112.977H59.194V115.758H59.2579C59.381 115.436 59.5799 115.184 59.8545 115.001C60.1291 114.817 60.4736 114.724 60.8879 114.724C61.2667 114.724 61.5969 114.807 61.8786 114.973C62.1627 115.136 62.3829 115.372 62.5392 115.68C62.6978 115.985 62.7759 116.351 62.7735 116.777V120.25H61.2607V117.047C61.2631 116.711 61.1779 116.449 61.0051 116.262C60.8346 116.075 60.5955 115.982 60.2877 115.982C60.0818 115.982 59.8995 116.025 59.7409 116.113C59.5846 116.201 59.4615 116.328 59.3715 116.496C59.2839 116.662 59.239 116.862 59.2366 117.097ZM63.964 120.25V114.795H65.4307V115.747H65.4875C65.5869 115.409 65.7538 115.153 65.9882 114.98C66.2226 114.805 66.4925 114.717 66.7979 114.717C66.8736 114.717 66.9553 114.722 67.0429 114.732C67.1305 114.741 67.2074 114.754 67.2737 114.771V116.113C67.2027 116.092 67.1044 116.073 66.979 116.056C66.8535 116.04 66.7387 116.031 66.6345 116.031C66.412 116.031 66.2131 116.08 66.0379 116.177C65.8651 116.272 65.7278 116.404 65.626 116.575C65.5265 116.745 65.4768 116.942 65.4768 117.164V120.25H63.964ZM68.0558 120.25V114.795H69.5686V120.25H68.0558ZM68.8158 114.092C68.5909 114.092 68.3979 114.018 68.2369 113.869C68.0783 113.717 67.999 113.536 67.999 113.325C67.999 113.117 68.0783 112.938 68.2369 112.789C68.3979 112.638 68.5909 112.562 68.8158 112.562C69.0407 112.562 69.2325 112.638 69.3911 112.789C69.5521 112.938 69.6325 113.117 69.6325 113.325C69.6325 113.536 69.5521 113.717 69.3911 113.869C69.2325 114.018 69.0407 114.092 68.8158 114.092ZM70.8089 120.25V112.977H72.3216V115.712H72.3678C72.4341 115.565 72.53 115.416 72.6555 115.264C72.7833 115.11 72.949 114.982 73.1526 114.881C73.3586 114.777 73.6143 114.724 73.9197 114.724C74.3174 114.724 74.6843 114.829 75.0205 115.037C75.3567 115.243 75.6254 115.554 75.8266 115.971C76.0278 116.385 76.1285 116.905 76.1285 117.53C76.1285 118.138 76.0302 118.652 75.8337 119.071C75.6396 119.488 75.3744 119.804 75.0383 120.019C74.7045 120.232 74.3304 120.339 73.9161 120.339C73.6225 120.339 73.3728 120.29 73.1668 120.193C72.9632 120.096 72.7963 119.974 72.6661 119.827C72.5359 119.678 72.4365 119.528 72.3678 119.376H72.3003V120.25H70.8089ZM72.2897 117.523C72.2897 117.847 72.3347 118.13 72.4246 118.371C72.5146 118.613 72.6448 118.801 72.8153 118.936C72.9857 119.069 73.1929 119.135 73.4367 119.135C73.6829 119.135 73.8912 119.067 74.0617 118.933C74.2322 118.795 74.3612 118.606 74.4488 118.364C74.5387 118.121 74.5837 117.84 74.5837 117.523C74.5837 117.208 74.5399 116.931 74.4523 116.692C74.3647 116.453 74.2357 116.266 74.0653 116.131C73.8948 115.996 73.6853 115.928 73.4367 115.928C73.1905 115.928 72.9822 115.993 72.8117 116.124C72.6436 116.254 72.5146 116.438 72.4246 116.678C72.3347 116.917 72.2897 117.198 72.2897 117.523Z" fill="#305055"/>
<path d="M161.62 116.513V117.852H158.254V116.513H161.62Z" fill="#232323"/>
<path d="M257.905 120.224C257.351 120.224 256.86 120.13 256.431 119.94C256.005 119.749 255.669 119.485 255.423 119.148C255.177 118.812 255.051 118.425 255.046 117.987H256.815C256.822 118.146 256.873 118.287 256.968 118.41C257.062 118.531 257.191 118.625 257.355 118.694C257.518 118.763 257.704 118.797 257.912 118.797C258.121 118.797 258.304 118.76 258.463 118.687C258.624 118.611 258.749 118.508 258.839 118.378C258.929 118.245 258.973 118.094 258.97 117.923C258.973 117.753 258.924 117.601 258.825 117.469C258.725 117.336 258.585 117.233 258.402 117.16C258.222 117.086 258.009 117.05 257.763 117.05H257.056V115.8H257.763C257.978 115.8 258.168 115.764 258.331 115.693C258.497 115.622 258.626 115.523 258.718 115.395C258.811 115.265 258.856 115.116 258.853 114.947C258.856 114.784 258.817 114.641 258.736 114.518C258.658 114.392 258.548 114.295 258.406 114.227C258.266 114.158 258.104 114.124 257.919 114.124C257.725 114.124 257.549 114.158 257.39 114.227C257.234 114.295 257.11 114.392 257.017 114.518C256.925 114.643 256.876 114.789 256.872 114.955H255.192C255.197 114.521 255.318 114.14 255.554 113.811C255.791 113.48 256.113 113.22 256.52 113.033C256.93 112.846 257.396 112.753 257.919 112.753C258.44 112.753 258.898 112.844 259.294 113.026C259.689 113.209 259.997 113.457 260.217 113.772C260.437 114.085 260.547 114.438 260.547 114.834C260.55 115.243 260.416 115.581 260.146 115.846C259.878 116.111 259.534 116.274 259.112 116.336V116.393C259.676 116.459 260.101 116.641 260.387 116.94C260.676 117.238 260.819 117.611 260.817 118.058C260.817 118.48 260.693 118.854 260.444 119.18C260.198 119.505 259.855 119.76 259.414 119.947C258.976 120.132 258.473 120.224 257.905 120.224Z" fill="#232323"/>
<path d="M357.16 120.125V118.861L359.813 116.538C360.012 116.358 360.181 116.194 360.321 116.045C360.46 115.893 360.567 115.742 360.64 115.59C360.714 115.436 360.75 115.269 360.75 115.089C360.75 114.888 360.707 114.717 360.619 114.575C360.531 114.43 360.411 114.319 360.257 114.241C360.103 114.163 359.927 114.124 359.728 114.124C359.526 114.124 359.35 114.165 359.199 114.248C359.047 114.328 358.929 114.446 358.843 114.599C358.761 114.753 358.719 114.94 358.719 115.161H357.054C357.054 114.666 357.165 114.238 357.388 113.879C357.61 113.519 357.923 113.242 358.325 113.048C358.73 112.851 359.2 112.753 359.735 112.753C360.286 112.753 360.766 112.845 361.173 113.03C361.58 113.214 361.895 113.473 362.118 113.804C362.343 114.133 362.455 114.515 362.455 114.951C362.455 115.228 362.399 115.503 362.288 115.775C362.177 116.047 361.977 116.348 361.688 116.677C361.401 117.006 360.994 117.4 360.466 117.859L359.596 118.662V118.708H362.544V120.125H357.16Z" fill="#232323"/>
<path d="M49.2528 137.727V145H47.7151V137.727H49.2528ZM55.0278 141.101L53.6428 141.186C53.6192 141.068 53.5683 140.961 53.4901 140.866C53.412 140.769 53.309 140.692 53.1812 140.636C53.0557 140.576 52.9054 140.547 52.7302 140.547C52.4958 140.547 52.2981 140.597 52.1372 140.696C51.9762 140.793 51.8957 140.923 51.8957 141.087C51.8957 141.217 51.9478 141.327 52.0519 141.417C52.1561 141.507 52.3348 141.579 52.5882 141.634L53.5754 141.832C54.1057 141.941 54.501 142.116 54.7615 142.358C55.0219 142.599 55.1521 142.917 55.1521 143.31C55.1521 143.667 55.0467 143.981 54.836 144.251C54.6277 144.521 54.3412 144.731 53.9767 144.883C53.6144 145.032 53.1966 145.107 52.7231 145.107C52.001 145.107 51.4258 144.956 50.9972 144.656C50.5711 144.353 50.3213 143.941 50.248 143.42L51.7359 143.342C51.7809 143.562 51.8898 143.73 52.0626 143.846C52.2354 143.96 52.4568 144.016 52.7267 144.016C52.9918 144.016 53.2049 143.965 53.3659 143.864C53.5292 143.759 53.6121 143.626 53.6144 143.462C53.6121 143.325 53.5541 143.213 53.4404 143.125C53.3268 143.035 53.1516 142.966 52.9149 142.919L51.9703 142.731C51.4376 142.624 51.041 142.44 50.7806 142.177C50.5226 141.914 50.3936 141.579 50.3936 141.172C50.3936 140.821 50.4883 140.52 50.6776 140.266C50.8694 140.013 51.1381 139.818 51.4838 139.68C51.8318 139.543 52.239 139.474 52.7053 139.474C53.3943 139.474 53.9364 139.62 54.3318 139.911C54.7295 140.202 54.9615 140.599 55.0278 141.101ZM57.6175 141.847V145H56.1047V137.727H57.5748V140.508H57.6388C57.7619 140.186 57.9607 139.934 58.2354 139.751C58.51 139.567 58.8544 139.474 59.2687 139.474C59.6475 139.474 59.9778 139.557 60.2595 139.723C60.5436 139.886 60.7638 140.122 60.92 140.43C61.0786 140.735 61.1568 141.101 61.1544 141.527V145H59.6416V141.797C59.644 141.461 59.5587 141.199 59.3859 141.012C59.2155 140.825 58.9764 140.732 58.6686 140.732C58.4626 140.732 58.2803 140.775 58.1217 140.863C57.9655 140.951 57.8424 141.078 57.7524 141.246C57.6648 141.412 57.6198 141.612 57.6175 141.847ZM63.9003 145.103C63.5523 145.103 63.2422 145.043 62.9699 144.922C62.6977 144.799 62.4822 144.618 62.3236 144.379C62.1673 144.137 62.0892 143.836 62.0892 143.477C62.0892 143.174 62.1449 142.919 62.2561 142.713C62.3674 142.507 62.5189 142.341 62.7107 142.216C62.9024 142.09 63.1202 141.996 63.3641 141.932C63.6103 141.868 63.8683 141.823 64.1382 141.797C64.4555 141.764 64.7111 141.733 64.9053 141.705C65.0994 141.674 65.2403 141.629 65.3279 141.57C65.4155 141.51 65.4593 141.423 65.4593 141.307V141.286C65.4593 141.061 65.3882 140.887 65.2462 140.763C65.1065 140.64 64.9076 140.579 64.6496 140.579C64.3773 140.579 64.1607 140.639 63.9997 140.76C63.8387 140.878 63.7322 141.027 63.6801 141.207L62.281 141.094C62.352 140.762 62.4917 140.476 62.7 140.234C62.9084 139.991 63.1771 139.804 63.5061 139.673C63.8376 139.541 64.2211 139.474 64.6567 139.474C64.9597 139.474 65.2497 139.51 65.5267 139.581C65.8061 139.652 66.0535 139.762 66.2689 139.911C66.4867 140.06 66.6584 140.252 66.7838 140.487C66.9093 140.719 66.972 140.997 66.972 141.321V145H65.5374V144.244H65.4948C65.4072 144.414 65.29 144.564 65.1432 144.695C64.9964 144.822 64.82 144.923 64.6141 144.996C64.4081 145.067 64.1702 145.103 63.9003 145.103ZM64.3335 144.059C64.5561 144.059 64.7526 144.015 64.923 143.928C65.0935 143.838 65.2272 143.717 65.3243 143.565C65.4214 143.414 65.4699 143.242 65.4699 143.05V142.472C65.4226 142.502 65.3575 142.531 65.2746 142.557C65.1941 142.58 65.103 142.603 65.0012 142.624C64.8994 142.643 64.7976 142.661 64.6958 142.678C64.594 142.692 64.5016 142.705 64.4188 142.717C64.2412 142.743 64.0861 142.784 63.9536 142.841C63.821 142.898 63.718 142.975 63.6446 143.072C63.5712 143.166 63.5345 143.285 63.5345 143.427C63.5345 143.633 63.6091 143.79 63.7583 143.899C63.9098 144.006 64.1015 144.059 64.3335 144.059Z" fill="#305055"/>
<path d="M156.938 143.668V142.297L159.917 137.602H161.135V139.463H160.428L158.685 142.226V142.283H162.999V143.668H156.938ZM160.45 144.875V143.249L160.485 142.648V137.602H162.129V144.875H160.45Z" fill="#232323"/>
<path d="M254.938 143.668V142.297L257.917 137.602H259.135V139.463H258.428L256.685 142.226V142.283H260.999V143.668H254.938ZM258.45 144.875V143.249L258.485 142.648V137.602H260.129V144.875H258.45Z" fill="#232323"/>
<path d="M357.16 144.875V143.611L359.813 141.288C360.012 141.108 360.181 140.944 360.321 140.795C360.46 140.643 360.567 140.492 360.64 140.34C360.714 140.186 360.75 140.019 360.75 139.839C360.75 139.638 360.707 139.467 360.619 139.325C360.531 139.18 360.411 139.069 360.257 138.991C360.103 138.913 359.927 138.874 359.728 138.874C359.526 138.874 359.35 138.915 359.199 138.998C359.047 139.078 358.929 139.196 358.843 139.349C358.761 139.503 358.719 139.69 358.719 139.911H357.054C357.054 139.416 357.165 138.988 357.388 138.629C357.61 138.269 357.923 137.992 358.325 137.798C358.73 137.601 359.2 137.503 359.735 137.503C360.286 137.503 360.766 137.595 361.173 137.78C361.58 137.964 361.895 138.223 362.118 138.554C362.343 138.883 362.455 139.265 362.455 139.701C362.455 139.978 362.399 140.253 362.288 140.525C362.177 140.797 361.977 141.098 361.688 141.427C361.401 141.756 360.994 142.15 360.466 142.609L359.596 143.412V143.458H362.544V144.875H357.16Z" fill="#232323"/>
<path d="M38.0655 162.477H39.5854V167.548C39.5854 168.017 39.4801 168.424 39.2694 168.77C39.061 169.116 38.771 169.382 38.3993 169.569C38.0276 169.756 37.5956 169.849 37.1032 169.849C36.6652 169.849 36.2675 169.772 35.91 169.619C35.5549 169.462 35.2731 169.226 35.0648 168.908C34.8565 168.589 34.7535 168.187 34.7559 167.705H36.2864C36.2911 167.896 36.3302 168.061 36.4036 168.198C36.4793 168.333 36.5823 168.437 36.7125 168.511C36.8451 168.582 37.0014 168.617 37.1813 168.617C37.3707 168.617 37.5305 168.577 37.6607 168.496C37.7933 168.414 37.8939 168.293 37.9625 168.134C38.0312 167.976 38.0655 167.78 38.0655 167.548V162.477ZM44.3262 167.428V164.295H45.839V169.75H44.3865V168.759H44.3297C44.2066 169.079 44.0018 169.336 43.7154 169.53C43.4313 169.724 43.0845 169.821 42.6749 169.821C42.3103 169.821 41.9895 169.738 41.7125 169.572C41.4355 169.407 41.2189 169.171 41.0627 168.866C40.9088 168.56 40.8307 168.195 40.8283 167.768V164.295H42.3411V167.499C42.3435 167.821 42.4299 168.075 42.6003 168.262C42.7708 168.449 42.9992 168.543 43.2857 168.543C43.468 168.543 43.6384 168.501 43.7971 168.418C43.9557 168.333 44.0835 168.208 44.1806 168.042C44.28 167.876 44.3285 167.671 44.3262 167.428ZM47.049 169.75V164.295H48.4908V165.258H48.5547C48.6683 164.938 48.8577 164.686 49.1229 164.501C49.388 164.317 49.7053 164.224 50.0746 164.224C50.4486 164.224 50.767 164.318 51.0298 164.505C51.2926 164.69 51.4678 164.941 51.5554 165.258H51.6122C51.7235 164.945 51.9247 164.696 52.2159 164.509C52.5095 164.319 52.8563 164.224 53.2564 164.224C53.7654 164.224 54.1785 164.387 54.4957 164.711C54.8153 165.033 54.9751 165.49 54.9751 166.082V169.75H53.4659V166.38C53.4659 166.077 53.3854 165.85 53.2244 165.698C53.0634 165.547 52.8622 165.471 52.6207 165.471C52.3461 165.471 52.1319 165.558 51.978 165.734C51.8241 165.906 51.7472 166.135 51.7472 166.419V169.75H50.2805V166.348C50.2805 166.08 50.2036 165.867 50.0497 165.709C49.8982 165.55 49.6982 165.471 49.4496 165.471C49.2815 165.471 49.13 165.513 48.995 165.599C48.8625 165.682 48.7571 165.799 48.679 165.95C48.6009 166.099 48.5618 166.275 48.5618 166.476V169.75H47.049ZM56.1701 169.75V164.295H57.6119V165.258H57.6758C57.7894 164.938 57.9788 164.686 58.244 164.501C58.5091 164.317 58.8263 164.224 59.1957 164.224C59.5697 164.224 59.8881 164.318 60.1509 164.505C60.4137 164.69 60.5889 164.941 60.6765 165.258H60.7333C60.8446 164.945 61.0458 164.696 61.337 164.509C61.6306 164.319 61.9774 164.224 62.3775 164.224C62.8865 164.224 63.2996 164.387 63.6168 164.711C63.9364 165.033 64.0962 165.49 64.0962 166.082V169.75H62.587V166.38C62.587 166.077 62.5065 165.85 62.3455 165.698C62.1845 165.547 61.9833 165.471 61.7418 165.471C61.4672 165.471 61.253 165.558 61.0991 165.734C60.9452 165.906 60.8683 166.135 60.8683 166.419V169.75H59.4016V166.348C59.4016 166.08 59.3247 165.867 59.1708 165.709C59.0193 165.55 58.8192 165.471 58.5707 165.471C58.4026 165.471 58.2511 165.513 58.1161 165.599C57.9835 165.682 57.8782 165.799 57.8001 165.95C57.7219 166.099 57.6829 166.275 57.6829 166.476V169.75H56.1701ZM66.8466 169.853C66.4986 169.853 66.1884 169.793 65.9162 169.672C65.6439 169.549 65.4285 169.368 65.2699 169.129C65.1136 168.887 65.0355 168.586 65.0355 168.227C65.0355 167.924 65.0911 167.669 65.2024 167.463C65.3137 167.257 65.4652 167.091 65.657 166.966C65.8487 166.84 66.0665 166.746 66.3104 166.682C66.5566 166.618 66.8146 166.573 67.0845 166.547C67.4018 166.514 67.6574 166.483 67.8516 166.455C68.0457 166.424 68.1866 166.379 68.2741 166.32C68.3617 166.26 68.4055 166.173 68.4055 166.057V166.036C68.4055 165.811 68.3345 165.637 68.1925 165.513C68.0528 165.39 67.8539 165.329 67.5959 165.329C67.3236 165.329 67.107 165.389 66.946 165.51C66.785 165.628 66.6785 165.777 66.6264 165.957L65.2273 165.844C65.2983 165.512 65.438 165.226 65.6463 164.984C65.8546 164.741 66.1233 164.554 66.4524 164.423C66.7839 164.291 67.1674 164.224 67.603 164.224C67.906 164.224 68.196 164.26 68.473 164.331C68.7524 164.402 68.9998 164.512 69.2152 164.661C69.433 164.81 69.6046 165.002 69.7301 165.237C69.8556 165.469 69.9183 165.747 69.9183 166.071V169.75H68.4837V168.994H68.4411C68.3535 169.164 68.2363 169.314 68.0895 169.445C67.9427 169.572 67.7663 169.673 67.5604 169.746C67.3544 169.817 67.1165 169.853 66.8466 169.853ZM67.2798 168.809C67.5024 168.809 67.6989 168.765 67.8693 168.678C68.0398 168.588 68.1735 168.467 68.2706 168.315C68.3677 168.164 68.4162 167.992 68.4162 167.8V167.222C68.3688 167.252 68.3037 167.281 68.2209 167.307C68.1404 167.33 68.0492 167.353 67.9474 167.374C67.8456 167.393 67.7438 167.411 67.642 167.428C67.5402 167.442 67.4479 167.455 67.3651 167.467C67.1875 167.493 67.0324 167.534 66.8999 167.591C66.7673 167.648 66.6643 167.725 66.5909 167.822C66.5175 167.916 66.4808 168.035 66.4808 168.177C66.4808 168.383 66.5554 168.54 66.7045 168.649C66.8561 168.756 67.0478 168.809 67.2798 168.809ZM72.6048 166.597V169.75H71.092V162.477H72.5621V165.258H72.6261C72.7492 164.936 72.948 164.684 73.2227 164.501C73.4973 164.317 73.8417 164.224 74.256 164.224C74.6348 164.224 74.9651 164.307 75.2468 164.473C75.5309 164.636 75.7511 164.872 75.9073 165.18C76.0659 165.485 76.1441 165.851 76.1417 166.277V169.75H74.6289V166.547C74.6313 166.211 74.546 165.949 74.3732 165.762C74.2028 165.575 73.9637 165.482 73.6559 165.482C73.4499 165.482 73.2676 165.525 73.109 165.613C72.9528 165.701 72.8297 165.828 72.7397 165.996C72.6521 166.162 72.6071 166.362 72.6048 166.597Z" fill="#305055"/>
<path d="M156.938 168.418V167.047L159.917 162.352H161.135V164.213H160.428L158.685 166.976V167.033H162.999V168.418H156.938ZM160.45 169.625V167.999L160.485 167.398V162.352H162.129V169.625H160.45Z" fill="#232323"/>
<path d="M255.285 169.625V168.361L257.938 166.038C258.137 165.858 258.306 165.694 258.446 165.545C258.585 165.393 258.692 165.242 258.765 165.09C258.839 164.936 258.875 164.769 258.875 164.589C258.875 164.388 258.832 164.217 258.744 164.075C258.656 163.93 258.536 163.819 258.382 163.741C258.228 163.663 258.052 163.624 257.853 163.624C257.651 163.624 257.475 163.665 257.324 163.748C257.172 163.828 257.054 163.946 256.968 164.099C256.886 164.253 256.844 164.44 256.844 164.661H255.179C255.179 164.166 255.29 163.738 255.513 163.379C255.735 163.019 256.048 162.742 256.45 162.548C256.855 162.351 257.325 162.253 257.86 162.253C258.411 162.253 258.891 162.345 259.298 162.53C259.705 162.714 260.02 162.973 260.243 163.304C260.468 163.633 260.58 164.015 260.58 164.451C260.58 164.728 260.524 165.003 260.413 165.275C260.302 165.547 260.102 165.848 259.813 166.177C259.526 166.506 259.119 166.9 258.591 167.359L257.721 168.162V168.208H260.669V169.625H255.285Z" fill="#232323"/>
<path d="M349.707 168.418V167.047L352.687 162.352H353.905V164.213H353.198L351.454 166.976V167.033H355.769V168.418H349.707ZM353.219 169.625V167.999L353.255 167.398V162.352H354.899V169.625H353.219ZM358.871 168.574V163.432H360.302V168.574H358.871ZM357.014 166.72V165.286H362.156V166.72H357.014ZM363.4 169.625V168.361L366.052 166.038C366.251 165.858 366.42 165.694 366.56 165.545C366.7 165.393 366.806 165.242 366.88 165.09C366.953 164.936 366.99 164.769 366.99 164.589C366.99 164.388 366.946 164.217 366.858 164.075C366.771 163.93 366.65 163.819 366.496 163.741C366.342 163.663 366.166 163.624 365.967 163.624C365.766 163.624 365.589 163.665 365.438 163.748C365.286 163.828 365.168 163.946 365.083 164.099C365 164.253 364.958 164.44 364.958 164.661H363.293C363.293 164.166 363.404 163.738 363.627 163.379C363.849 163.019 364.162 162.742 364.564 162.548C364.969 162.351 365.439 162.253 365.974 162.253C366.526 162.253 367.005 162.345 367.412 162.53C367.819 162.714 368.134 162.973 368.357 163.304C368.582 163.633 368.694 164.015 368.694 164.451C368.694 164.728 368.639 165.003 368.527 165.275C368.416 165.547 368.216 165.848 367.927 166.177C367.641 166.506 367.234 166.9 366.706 167.359L365.836 168.162V168.208H368.783V169.625H363.4Z" fill="#232323"/>
<rect x="3" width="404" height="28" fill="#305055"/>
<path d="M37.4371 19V11.7273H40.4414C40.9859 11.7273 41.4558 11.8338 41.8512 12.0469C42.2489 12.2576 42.5555 12.5523 42.771 12.9311C42.9864 13.3075 43.0941 13.7455 43.0941 14.245C43.0941 14.7469 42.984 15.1861 42.7638 15.5625C42.546 15.9366 42.2347 16.2266 41.8299 16.4325C41.4251 16.6385 40.9445 16.7415 40.3881 16.7415H38.5344V15.3565H40.0614C40.3266 15.3565 40.5479 15.3104 40.7255 15.218C40.9054 15.1257 41.0415 14.9967 41.1339 14.831C41.2262 14.6629 41.2724 14.4676 41.2724 14.245C41.2724 14.0201 41.2262 13.826 41.1339 13.6626C41.0415 13.4969 40.9054 13.3691 40.7255 13.2791C40.5456 13.1892 40.3242 13.1442 40.0614 13.1442H39.195V19H37.4371ZM43.9606 19V11.7273H46.9648C47.5094 11.7273 47.9793 11.8255 48.3746 12.022C48.7724 12.2161 49.079 12.4955 49.2944 12.8601C49.5098 13.2223 49.6175 13.652 49.6175 14.1491C49.6175 14.6534 49.5075 15.0819 49.2873 15.4347C49.0671 15.785 48.7546 16.0526 48.3498 16.2372C47.945 16.4195 47.4656 16.5107 46.9116 16.5107H45.0117V15.1257H46.5849C46.85 15.1257 47.0714 15.0914 47.2489 15.0227C47.4289 14.9517 47.565 14.8452 47.6573 14.7031C47.7496 14.5587 47.7958 14.3741 47.7958 14.1491C47.7958 13.9242 47.7496 13.7384 47.6573 13.5916C47.565 13.4425 47.4289 13.3312 47.2489 13.2578C47.069 13.1821 46.8477 13.1442 46.5849 13.1442H45.7184V19H43.9606ZM48.055 15.6761L49.8661 19H47.9485L46.1729 15.6761H48.055ZM52.1548 19H50.2656L52.7195 11.7273H55.0597L57.5135 19H55.6243L53.9162 13.5597H53.8594L52.1548 19ZM51.9027 16.1378H55.8516V17.473H51.9027V16.1378ZM57.1921 11.7273H59.1559L60.6935 14.7706H60.7575L62.2951 11.7273H64.2589L61.5991 16.571V19H59.8519V16.571L57.1921 11.7273ZM64.9957 19V11.7273H70.0668V13.1548H66.7536V14.6463H69.8075V16.0774H66.7536V17.5724H70.0668V19H64.9957ZM71.1676 19V11.7273H74.1719C74.7164 11.7273 75.1863 11.8255 75.5817 12.022C75.9794 12.2161 76.286 12.4955 76.5014 12.8601C76.7169 13.2223 76.8246 13.652 76.8246 14.1491C76.8246 14.6534 76.7145 15.0819 76.4943 15.4347C76.2741 15.785 75.9616 16.0526 75.5568 16.2372C75.152 16.4195 74.6726 16.5107 74.1186 16.5107H72.2188V15.1257H73.7919C74.0571 15.1257 74.2784 15.0914 74.456 15.0227C74.6359 14.9517 74.772 14.8452 74.8643 14.7031C74.9567 14.5587 75.0028 14.3741 75.0028 14.1491C75.0028 13.9242 74.9567 13.7384 74.8643 13.5916C74.772 13.4425 74.6359 13.3312 74.456 13.2578C74.276 13.1821 74.0547 13.1442 73.7919 13.1442H72.9254V19H71.1676ZM75.2621 15.6761L77.0732 19H75.1555L73.38 15.6761H75.2621Z" fill="white"/>
<path d="M142.41 13.7827C142.387 13.5223 142.281 13.3198 142.094 13.1754C141.91 13.0286 141.646 12.9553 141.302 12.9553C141.075 12.9553 140.886 12.9848 140.734 13.044C140.583 13.1032 140.469 13.1849 140.393 13.2891C140.317 13.3909 140.278 13.508 140.276 13.6406C140.271 13.7495 140.293 13.8454 140.34 13.9283C140.39 14.0111 140.461 14.0845 140.553 14.1484C140.648 14.21 140.761 14.2644 140.894 14.3118C141.026 14.3591 141.176 14.4006 141.341 14.4361L141.966 14.5781C142.326 14.6562 142.643 14.7604 142.918 14.8906C143.195 15.0208 143.427 15.1759 143.614 15.3558C143.803 15.5357 143.947 15.7429 144.044 15.9773C144.141 16.2116 144.191 16.4744 144.193 16.7656C144.191 17.2249 144.075 17.6191 143.845 17.9482C143.615 18.2772 143.285 18.5294 142.854 18.7045C142.426 18.8797 141.908 18.9673 141.302 18.9673C140.694 18.9673 140.164 18.8762 139.711 18.6939C139.259 18.5116 138.908 18.2346 138.657 17.8629C138.406 17.4912 138.277 17.0213 138.27 16.4531H139.953C139.967 16.6875 140.03 16.8828 140.141 17.0391C140.252 17.1953 140.405 17.3137 140.599 17.3942C140.796 17.4747 141.023 17.5149 141.281 17.5149C141.518 17.5149 141.719 17.483 141.885 17.419C142.053 17.3551 142.182 17.2663 142.272 17.1527C142.362 17.0391 142.408 16.9089 142.41 16.7621C142.408 16.6248 142.365 16.5076 142.282 16.4105C142.2 16.3111 142.072 16.2259 141.899 16.1548C141.728 16.0814 141.511 16.014 141.245 15.9524L140.486 15.7749C139.856 15.6304 139.36 15.3973 138.998 15.0753C138.635 14.7509 138.455 14.313 138.458 13.7614C138.455 13.3116 138.576 12.9174 138.82 12.5788C139.064 12.2403 139.401 11.9763 139.832 11.7869C140.263 11.5975 140.754 11.5028 141.306 11.5028C141.869 11.5028 142.358 11.5987 142.772 11.7905C143.189 11.9799 143.512 12.2462 143.742 12.5895C143.972 12.9328 144.089 13.3305 144.093 13.7827H142.41ZM149.481 11.6023H151.235V16.2933C151.235 16.8355 151.106 17.3078 150.848 17.7102C150.59 18.1103 150.23 18.4205 149.768 18.6406C149.307 18.8584 148.77 18.9673 148.16 18.9673C147.542 18.9673 147.002 18.8584 146.54 18.6406C146.079 18.4205 145.72 18.1103 145.464 17.7102C145.209 17.3078 145.081 16.8355 145.081 16.2933V11.6023H146.839V16.1406C146.839 16.3916 146.893 16.6153 147.002 16.8118C147.113 17.0083 147.268 17.1622 147.467 17.2734C147.666 17.3847 147.897 17.4403 148.16 17.4403C148.422 17.4403 148.652 17.3847 148.848 17.2734C149.047 17.1622 149.202 17.0083 149.314 16.8118C149.425 16.6153 149.481 16.3916 149.481 16.1406V11.6023ZM158.526 11.6023V18.875H157.035L154.141 14.6776H154.094V18.875H152.337V11.6023H153.849L156.712 15.7926H156.772V11.6023H158.526ZM165.821 11.6023V18.875H164.33L161.435 14.6776H161.389V18.875H159.631V11.6023H161.144L164.006 15.7926H164.067V11.6023H165.821ZM168.5 18.875H166.61L169.064 11.6023H171.404L173.858 18.875H171.969L170.261 13.4347H170.204L168.5 18.875ZM168.247 16.0128H172.196V17.348H168.247V16.0128ZM174.641 18.875V11.6023H176.399V14.5213H179.265V11.6023H181.019V18.875H179.265V15.9524H176.399V18.875H174.641Z" fill="white"/>
<path d="M338.41 13.7827C338.387 13.5223 338.281 13.3198 338.094 13.1754C337.91 13.0286 337.646 12.9553 337.302 12.9553C337.075 12.9553 336.886 12.9848 336.734 13.044C336.583 13.1032 336.469 13.1849 336.393 13.2891C336.317 13.3909 336.278 13.508 336.276 13.6406C336.271 13.7495 336.293 13.8454 336.34 13.9283C336.39 14.0111 336.461 14.0845 336.553 14.1484C336.648 14.21 336.761 14.2644 336.894 14.3118C337.026 14.3591 337.176 14.4006 337.341 14.4361L337.966 14.5781C338.326 14.6562 338.643 14.7604 338.918 14.8906C339.195 15.0208 339.427 15.1759 339.614 15.3558C339.803 15.5357 339.947 15.7429 340.044 15.9773C340.141 16.2116 340.191 16.4744 340.193 16.7656C340.191 17.2249 340.075 17.6191 339.845 17.9482C339.615 18.2772 339.285 18.5294 338.854 18.7045C338.426 18.8797 337.908 18.9673 337.302 18.9673C336.694 18.9673 336.164 18.8762 335.711 18.6939C335.259 18.5116 334.908 18.2346 334.657 17.8629C334.406 17.4912 334.277 17.0213 334.27 16.4531H335.953C335.967 16.6875 336.03 16.8828 336.141 17.0391C336.252 17.1953 336.405 17.3137 336.599 17.3942C336.796 17.4747 337.023 17.5149 337.281 17.5149C337.518 17.5149 337.719 17.483 337.885 17.419C338.053 17.3551 338.182 17.2663 338.272 17.1527C338.362 17.0391 338.408 16.9089 338.41 16.7621C338.408 16.6248 338.365 16.5076 338.282 16.4105C338.2 16.3111 338.072 16.2259 337.899 16.1548C337.728 16.0814 337.511 16.014 337.245 15.9524L336.486 15.7749C335.856 15.6304 335.36 15.3973 334.998 15.0753C334.635 14.7509 334.455 14.313 334.458 13.7614C334.455 13.3116 334.576 12.9174 334.82 12.5788C335.064 12.2403 335.401 11.9763 335.832 11.7869C336.263 11.5975 336.754 11.5028 337.306 11.5028C337.869 11.5028 338.358 11.5987 338.772 11.7905C339.189 11.9799 339.512 12.2462 339.742 12.5895C339.972 12.9328 340.089 13.3305 340.093 13.7827H338.41ZM345.481 11.6023H347.235V16.2933C347.235 16.8355 347.106 17.3078 346.848 17.7102C346.59 18.1103 346.23 18.4205 345.768 18.6406C345.307 18.8584 344.77 18.9673 344.16 18.9673C343.542 18.9673 343.002 18.8584 342.54 18.6406C342.079 18.4205 341.72 18.1103 341.464 17.7102C341.209 17.3078 341.081 16.8355 341.081 16.2933V11.6023H342.839V16.1406C342.839 16.3916 342.893 16.6153 343.002 16.8118C343.113 17.0083 343.268 17.1622 343.467 17.2734C343.666 17.3847 343.897 17.4403 344.16 17.4403C344.422 17.4403 344.652 17.3847 344.848 17.2734C345.047 17.1622 345.202 17.0083 345.314 16.8118C345.425 16.6153 345.481 16.3916 345.481 16.1406V11.6023ZM354.526 11.6023V18.875H353.035L350.141 14.6776H350.094V18.875H348.337V11.6023H349.849L352.712 15.7926H352.772V11.6023H354.526ZM361.821 11.6023V18.875H360.33L357.435 14.6776H357.389V18.875H355.631V11.6023H357.144L360.006 15.7926H360.067V11.6023H361.821ZM364.5 18.875H362.61L365.064 11.6023H367.404L369.858 18.875H367.969L366.261 13.4347H366.204L364.5 18.875ZM364.247 16.0128H368.196V17.348H364.247V16.0128ZM370.641 18.875V11.6023H372.399V14.5213H375.265V11.6023H377.019V18.875H375.265V15.9524H372.399V18.875H370.641Z" fill="white"/>
<path d="M245.696 18.875V11.6023H250.66V13.0298H247.454V14.5213H250.344V15.9524H247.454V18.875H245.696ZM252.21 18.875H250.321L252.775 11.6023H255.115L257.569 18.875H255.68L253.972 13.4347H253.915L252.21 18.875ZM251.958 16.0128H255.907V17.348H251.958V16.0128ZM258.352 18.875V11.6023H261.356C261.901 11.6023 262.371 11.7005 262.766 11.897C263.164 12.0911 263.471 12.3705 263.686 12.7351C263.901 13.0973 264.009 13.527 264.009 14.0241C264.009 14.5284 263.899 14.9569 263.679 15.3097C263.459 15.66 263.146 15.9276 262.741 16.1122C262.337 16.2945 261.857 16.3857 261.303 16.3857H259.403V15.0007H260.976C261.242 15.0007 261.463 14.9664 261.641 14.8977C261.82 14.8267 261.957 14.7202 262.049 14.5781C262.141 14.4337 262.187 14.2491 262.187 14.0241C262.187 13.7992 262.141 13.6134 262.049 13.4666C261.957 13.3175 261.82 13.2062 261.641 13.1328C261.461 13.0571 261.239 13.0192 260.976 13.0192H260.11V18.875H258.352ZM262.447 15.5511L264.258 18.875H262.34L260.565 15.5511H262.447ZM264.948 18.875V17.8736L268.482 13.0298H264.952V11.6023H270.705V12.6037L267.171 17.4474H270.701V18.875H264.948Z" fill="white"/>
<defs>
<filter id="filter0_d_2896_2252" x="0" y="55" width="410" height="32" filterUnits="userSpaceOnUse" color-interpolation-filters="sRGB">
<feFlood flood-opacity="0" result="BackgroundImageFix"/>
<feColorMatrix in="SourceAlpha" type="matrix" values="0 0 0 0 0 0 0 0 0 0 0 0 0 0 0 0 0 0 127 0" result="hardAlpha"/>
<feOffset dy="4"/>
<feGaussianBlur stdDeviation="2"/>
<feComposite in2="hardAlpha" operator="out"/>
<feColorMatrix type="matrix" values="0 0 0 0 0 0 0 0 0 0 0 0 0 0 0 0 0 0 0.2 0"/>
<feBlend mode="normal" in2="BackgroundImageFix" result="effect1_dropShadow_2896_2252"/>
<feBlend mode="normal" in="SourceGraphic" in2="effect1_dropShadow_2896_2252" result="shape"/>
</filter>
</defs>
</svg>
