<svg width="23" height="25" viewBox="0 0 23 25" fill="none" xmlns="http://www.w3.org/2000/svg">
<path d="M10.3524 0.704084C5.75723 1.30506 1.97569 4.45326 0.561081 8.84502C-0.0722567 10.8144 -0.173961 13.0241 0.279084 15.0582C1.21291 19.2558 4.35649 22.6167 8.48936 23.8371C9.09959 24.0174 9.69594 24.1422 10.4217 24.2393C11.24 24.3456 12.9874 24.3086 13.7733 24.17C17.2729 23.5459 20.1946 21.5858 21.942 18.6964C22.1593 18.3358 22.1685 18.3035 22.1547 18.04C22.1362 17.7025 22.0345 17.55 21.7571 17.4113C21.4843 17.2772 21.207 17.3096 20.9204 17.513C20.0559 18.1232 19.4919 18.4468 18.7892 18.7334C16.3807 19.7042 13.7826 19.6164 11.485 18.4745C8.95628 17.2171 7.23656 14.9796 6.65407 12.192C6.49227 11.4107 6.44604 10.1625 6.55699 9.33967C6.85285 7.10681 7.96235 5.06811 9.65896 3.64888C10.2461 3.15423 11.0689 2.62721 11.6561 2.37296C12.4789 2.00775 12.5437 1.97538 12.65 1.82283C12.8025 1.61017 12.8164 1.22185 12.6777 0.986082C12.4928 0.676348 12.3587 0.634741 11.5312 0.639364C11.1383 0.643986 10.6067 0.671724 10.3524 0.704084ZM11.4619 1.58244C8.53559 2.90459 6.49227 5.52578 5.88667 8.74332C5.76647 9.3859 5.71562 10.8144 5.79421 11.4801C6.18253 14.864 8.20737 17.7349 11.2307 19.1957C13.0892 20.0926 15.2897 20.3745 17.333 19.977C18.5442 19.7412 19.7323 19.2604 20.777 18.5762C21.3364 18.2064 21.3041 18.2295 21.2624 18.2989C21.1654 18.4653 20.6892 19.1356 20.4673 19.413C18.914 21.3685 16.4916 22.8339 14.0045 23.3286C13.1539 23.4996 12.7609 23.5366 11.8317 23.5366C10.7962 23.5366 10.149 23.4627 9.22903 23.2361C7.20882 22.7415 5.49834 21.7845 4.01439 20.3052C2.35939 18.6548 1.37009 16.7733 0.912422 14.411C0.815341 13.9025 0.792226 13.6066 0.773735 12.793C0.736752 11.2952 0.880062 10.2966 1.31461 8.99295C1.86474 7.33795 2.76158 5.89099 3.9959 4.65667C5.9144 2.73354 8.48012 1.57782 11.1568 1.42526C11.5035 1.40215 11.8179 1.38365 11.8548 1.38365C11.8918 1.37903 11.7162 1.46687 11.4619 1.58244Z" fill="#17627C"/>
<path d="M11.4619 1.58244C8.53559 2.90459 6.49227 5.52578 5.88667 8.74332C5.76647 9.3859 5.71562 10.8144 5.79421 11.4801C6.18253 14.864 8.20737 17.7349 11.2307 19.1957C13.0892 20.0926 15.2897 20.3745 17.333 19.977C18.5442 19.7412 19.7323 19.2604 20.777 18.5762C21.3364 18.2064 21.3041 18.2295 21.2624 18.2989C21.1654 18.4653 20.6892 19.1356 20.4673 19.413C18.914 21.3685 16.4916 22.8339 14.0045 23.3286C13.1539 23.4996 12.7609 23.5366 11.8317 23.5366C10.7962 23.5366 10.149 23.4627 9.22903 23.2361C7.20882 22.7415 5.49834 21.7845 4.01439 20.3052C2.35939 18.6548 1.37009 16.7733 0.912422 14.411C0.815341 13.9025 0.792226 13.6066 0.773735 12.793C0.736752 11.2952 0.880062 10.2966 1.31461 8.99295C1.86474 7.33795 2.76158 5.89099 3.9959 4.65667C5.9144 2.73354 8.48012 1.57782 11.1568 1.42526C11.5035 1.40215 11.8179 1.38365 11.8548 1.38365C11.8918 1.37903 11.7162 1.46687 11.4619 1.58244Z" fill="#17627C"/>
<path d="M15.7105 2.75601C15.4562 2.91319 15.3453 3.11659 15.3499 3.43095C15.3499 3.58351 15.3684 3.7638 15.3823 3.83314C15.4146 3.94872 15.3961 3.97183 15.1742 4.08278C14.7304 4.30468 14.5732 4.51733 14.5732 4.89641C14.5779 5.33097 14.846 5.58522 15.373 5.64995L15.6319 5.68231L15.6642 5.93657C15.7243 6.46358 15.9879 6.73633 16.427 6.73633C16.8107 6.73633 17.0141 6.5884 17.2314 6.15384L17.3516 5.91807L17.6798 5.9643C17.9757 6.00129 18.0266 5.99666 18.2253 5.89496C18.5258 5.74703 18.6506 5.54362 18.6506 5.21539C18.6506 4.9334 18.6044 4.84094 18.3363 4.55432L18.1745 4.38327L18.3178 4.06429C18.401 3.88862 18.4657 3.68521 18.4657 3.61124C18.4611 3.38934 18.3085 3.10735 18.1236 2.9964C17.8416 2.82073 17.6429 2.82073 17.2684 2.99178L16.9355 3.14433L16.7645 2.98253C16.672 2.89469 16.5426 2.78837 16.4779 2.74214C16.3161 2.63581 15.8954 2.64506 15.7105 2.75601ZM16.7969 4.10127C16.8292 4.10127 17.0326 4.00419 17.2499 3.88862L17.6382 3.67597L17.4302 4.06429C17.3146 4.28157 17.2175 4.48497 17.2175 4.52196C17.2175 4.55432 17.347 4.71612 17.5088 4.87792L17.7954 5.17379L17.5411 5.14605C17.4025 5.12756 17.1991 5.10444 17.0973 5.09057L16.9032 5.06284L16.6813 5.48352L16.4548 5.90883L16.3947 5.45578C16.3623 5.20615 16.3299 4.99812 16.3253 4.99349C16.3161 4.98887 16.108 4.95651 15.863 4.92415L15.4146 4.86405L15.8353 4.63753L16.256 4.41563L16.2282 4.22147C16.2144 4.11976 16.1913 3.91636 16.1728 3.77767L16.145 3.52341L16.4409 3.81003C16.6027 3.97183 16.7599 4.10127 16.7969 4.10127Z" fill="#17627C"/>
<path d="M11.7627 4.2294C11.5501 4.33573 11.2958 4.59461 11.1849 4.81651C11.0739 5.04765 11.0369 5.59778 11.1155 5.84279C11.2172 6.14328 11.4299 6.40217 11.698 6.55472C11.9338 6.68879 11.9476 6.70728 11.9476 6.8737C11.9476 7.02626 11.9292 7.054 11.809 7.10022C11.5362 7.19268 10.8104 7.65497 10.4544 7.96008C9.77488 8.54257 9.32184 9.23138 9.12768 9.99416C9.05371 10.2854 9.03522 10.5073 9.03522 11.1222V11.8896L8.86417 11.982C8.76709 12.0329 8.64227 12.1438 8.5868 12.2316C8.48971 12.375 8.48047 12.4397 8.48047 13.0175C8.48047 13.563 8.49434 13.6647 8.57293 13.7988C8.68388 13.9791 8.91964 14.1317 9.09532 14.1317H9.22013V15.01V15.8884L9.55761 16.2351C9.7379 16.4246 9.91819 16.5818 9.95055 16.5818C9.99216 16.5818 10.006 16.3691 10.0014 15.6665C9.99678 15.1672 9.99678 14.6171 10.0014 14.4414L10.006 14.1317H12.3637H14.7214L14.726 14.3952C14.726 14.5431 14.726 15.5648 14.726 16.6604L14.7306 18.6621H15.119H15.5073V16.9516V15.2412H16.7H17.8881L17.8788 16.7667C17.8742 18.0195 17.8835 18.2923 17.9343 18.2923C17.9713 18.2923 18.147 18.2368 18.3226 18.1721L18.6509 18.0519V16.0918V14.1317H19.1825H19.7141V15.7959C19.7141 16.7112 19.728 17.4602 19.7511 17.4602C19.7696 17.4602 19.9453 17.3492 20.1441 17.2198L20.5 16.9747V15.5648V14.1548L20.6711 14.0623C20.7682 14.0115 20.893 13.9005 20.9484 13.8127C21.0455 13.6694 21.0548 13.6047 21.0548 13.0222C21.0548 12.3935 21.0548 12.3888 20.9161 12.1993C20.8375 12.093 20.7589 12.0051 20.7358 12.0051C20.7127 12.0051 20.6849 11.8387 20.6757 11.6353C20.6387 11.0112 20.3891 10.5998 19.6956 10.0311C19.6309 9.97567 19.5754 9.91557 19.5801 9.89246C19.5801 9.87397 19.7095 9.79075 19.8667 9.71679C20.463 9.42092 20.7265 8.65814 20.2827 8.4871C20.0932 8.41775 19.8667 8.51483 19.765 8.71362C19.6587 8.92627 19.5338 9.03722 19.3628 9.08807C19.0253 9.18053 18.6971 8.91703 18.6971 8.55182C18.6971 8.37615 18.7202 8.32067 18.8543 8.18661C18.9421 8.09877 19.0438 8.02943 19.0808 8.02943C19.1871 8.02943 19.3443 7.80753 19.3443 7.6596C19.3443 7.59025 19.2981 7.47468 19.2426 7.40534C19.1548 7.28976 19.1224 7.28052 18.9097 7.29901C18.5029 7.33137 18.11 7.67809 17.9574 8.13575C17.8835 8.37615 17.9158 8.93089 18.0221 9.14817C18.1377 9.38856 18.4197 9.66594 18.6462 9.76764C18.8774 9.86934 18.8866 9.96642 18.674 10.082C18.4243 10.2161 18.0591 10.6321 17.9112 10.9557C17.8234 11.136 17.754 11.3857 17.7263 11.6076C17.6893 11.908 17.6569 11.9959 17.5414 12.1253C17.3564 12.338 17.3333 12.4443 17.3333 13.073C17.3333 13.5769 17.3426 13.6231 17.4628 13.7988C17.5321 13.9051 17.6477 14.0207 17.7217 14.0577C17.8557 14.1317 17.9343 14.2981 17.8835 14.4275C17.8603 14.4922 17.7078 14.5015 16.6815 14.5015H15.5073V14.3166C15.5073 14.1455 15.5165 14.1317 15.6367 14.1317C15.8078 14.1317 16.0435 13.9791 16.1545 13.7988C16.2331 13.6647 16.247 13.563 16.247 13.0175C16.247 12.4397 16.2377 12.375 16.1406 12.2316C16.0851 12.1438 15.9603 12.0329 15.8632 11.982L15.6922 11.8896V11.1222C15.6922 10.5073 15.6737 10.2854 15.5997 9.99416C15.3039 8.83381 14.407 7.83064 13.0988 7.18806C12.752 7.02163 12.7335 7.00314 12.7382 6.85983C12.7382 6.72577 12.7659 6.69803 13.0248 6.57321C13.5056 6.33744 13.7968 5.77807 13.598 5.46834C13.4408 5.23257 13.0387 5.29267 12.9231 5.57467C12.7983 5.86591 12.4978 6.03233 12.2435 5.94912C12.0077 5.87053 11.8552 5.65788 11.8552 5.40824C11.8552 5.23257 11.8783 5.1771 12.0124 5.04303C12.1002 4.9552 12.2019 4.88585 12.2389 4.88585C12.3452 4.88585 12.5024 4.65933 12.5024 4.50677C12.5024 4.19242 12.1233 4.04911 11.7627 4.2294ZM12.7705 7.90923C13.8477 8.46398 14.5966 9.2961 14.837 10.2068L14.8971 10.4333H12.3637H9.82573L9.89508 10.1883C10.0014 9.83698 10.1124 9.59659 10.3204 9.29148C10.5192 8.99562 11.0323 8.49172 11.3605 8.2652C11.7026 8.03405 12.2389 7.75205 12.3545 7.75205C12.4099 7.75205 12.5995 7.8214 12.7705 7.90923ZM19.3674 10.8032C19.6633 10.9881 19.899 11.3949 19.899 11.7278V11.9127H19.1825H18.4659L18.4937 11.7139C18.5353 11.4504 18.5861 11.3209 18.7341 11.1083C18.8358 10.965 19.127 10.7107 19.201 10.7107C19.2102 10.7107 19.2842 10.7523 19.3674 10.8032ZM14.9156 11.4827C14.9294 11.6584 14.9294 11.8248 14.9156 11.8526C14.9017 11.8988 14.3423 11.9127 12.3452 11.9127H9.79337L9.78413 11.5428L9.77951 11.173H12.336H14.8971L14.9156 11.4827ZM15.4703 12.8465C15.4842 12.9574 15.4842 13.1239 15.4703 13.2163L15.4518 13.392H12.3637H9.27561L9.25712 13.0776C9.24325 12.9066 9.24325 12.7402 9.25712 12.7078C9.27099 12.6662 9.93668 12.6523 12.3637 12.6523H15.4472L15.4703 12.8465ZM20.2689 13.0222V13.392H19.1825H18.0961V13.0222V12.6523H19.1825H20.2689V13.0222Z" fill="#17627C"/>
<path d="M11.7621 15.5072C11.6326 15.5534 11.4569 15.6782 11.2951 15.84C10.9623 16.1729 10.8745 16.4225 10.893 16.9587L10.9068 17.3471L11.2304 17.5412C11.4107 17.6476 11.5818 17.74 11.6141 17.74C11.6557 17.74 11.6696 17.6013 11.6696 17.2038C11.6696 16.7785 11.6881 16.6398 11.7528 16.5288C12.0117 16.085 12.719 16.0896 12.9871 16.5381C13.0657 16.6814 13.0842 16.8062 13.1027 17.532L13.1258 18.3595L13.3107 18.415C13.4171 18.4427 13.5881 18.4843 13.6991 18.5028L13.8978 18.5352L13.8793 17.5505C13.8609 16.7507 13.8377 16.5149 13.773 16.33C13.6575 16.0203 13.2553 15.6181 12.9409 15.5072C12.6497 15.4054 12.0533 15.4054 11.7621 15.5072Z" fill="#17627C"/>
</svg>
