<svg width="26" height="19" viewBox="0 0 26 19" fill="none" xmlns="http://www.w3.org/2000/svg">
<mask id="path-1-outside-1_4316_5179" maskUnits="userSpaceOnUse" x="0" y="0.191406" width="26" height="19" fill="black">
<rect fill="white" y="0.191406" width="26" height="19"/>
<path d="M18.1858 12.8281V17.6555H17.6547H17.1237V14.928C17.1237 12.2777 17.1189 12.1957 17.0223 11.935C16.8389 11.4474 16.6072 11.2736 14.9562 10.3854C14.0921 9.91709 13.4307 9.59365 13.3535 9.59365C13.2859 9.59365 13.0542 9.68538 12.8466 9.80123C12.4459 10.0233 12.3156 10.0909 11.0411 10.7812C10.1818 11.2398 9.92597 11.4522 9.72804 11.8481L9.61701 12.0798L9.60253 14.8652L9.59288 17.6555H9.06186H8.53083V12.8281V8.00059H13.3583H18.1858V12.8281Z"/>
<path d="M24.0752 14.7108V17.6555H23.8339H23.5925V16.0769C23.5925 14.0301 23.6697 14.2184 22.5884 13.6294C22.3181 13.4798 22.0332 13.3591 21.9608 13.3591C21.8015 13.3591 20.7443 13.9239 20.5464 14.1122C20.4691 14.1846 20.3822 14.3246 20.3581 14.4163C20.3291 14.5128 20.3098 15.2611 20.3098 16.1204V17.6555H20.0685H19.8271V14.7108V11.766H21.9512H24.0752V14.7108Z"/>
<path d="M24.0752 10.6798V11.1867H21.9512H19.8271V10.6798V10.1729H21.9512H24.0752V10.6798Z"/>
<path d="M6.8895 10.6798V11.1867H4.76542H2.64134V10.6798V10.1729H4.76542H6.8895V10.6798Z"/>
<path d="M6.8895 14.7108V17.6555H6.64813H6.40675V16.1204C6.40675 15.2659 6.38744 14.5128 6.35848 14.4211C6.33434 14.3246 6.24262 14.1797 6.15573 14.0977C5.91918 13.8804 4.92472 13.3591 4.74611 13.3639C4.65439 13.3639 4.35508 13.4991 3.96889 13.7163C3.07098 14.2184 3.12408 14.0687 3.12408 16.0721V17.6555H2.88271H2.64134V14.7108V11.766H4.76542H6.8895V14.7108Z"/>
<path d="M19.2478 11.2109V17.6555H19.0064H18.765V11.2109V4.7662H19.0064H19.2478V11.2109Z"/>
<path d="M7.95154 11.2109V17.6555H7.71017H7.46879V11.2109V4.7662H7.71017H7.95154V11.2109Z"/>
<path d="M14.7341 10.9502C15.4775 11.3508 16.1486 11.737 16.2258 11.8046C16.303 11.877 16.4044 12.0219 16.4527 12.1281C16.5348 12.3067 16.5444 12.495 16.5444 14.9859V17.6555H15.772H14.9996V16.2073C14.9996 14.8556 14.9948 14.7397 14.8934 14.4404C14.7679 14.0542 14.4927 13.7308 14.121 13.528C13.759 13.3301 13.1748 13.3011 12.7549 13.4604C12.3204 13.6246 11.9535 14.0108 11.8183 14.4404C11.7266 14.7446 11.717 14.8845 11.717 16.2121V17.6555H10.9446H10.1722V14.9859C10.1722 12.495 10.1818 12.3067 10.2639 12.1281C10.3122 12.0219 10.4184 11.877 10.4908 11.8046C10.6066 11.6936 13.2762 10.2261 13.3583 10.2212C13.3728 10.2212 13.9955 10.5495 14.7341 10.9502Z"/>
<path d="M25.0794 6.99648C25.118 7.0351 25.1373 7.27647 25.1373 7.76887V8.48334H24.8959H24.6545V7.81715C24.6545 7.29578 24.669 7.13165 24.7318 7.04475C24.8139 6.9289 24.9876 6.90476 25.0794 6.99648Z"/>
<path d="M19.1706 2.18833C19.2381 2.25109 19.2478 2.41522 19.2478 3.22623V4.1869H19.0064H18.765V3.22623C18.765 2.20281 18.7844 2.11109 19.0064 2.11109C19.0547 2.11109 19.1319 2.14488 19.1706 2.18833Z"/>
<path d="M7.8743 2.18833C7.94188 2.25109 7.95154 2.41522 7.95154 3.22623V4.1869H7.71017H7.46879V3.23589C7.46879 2.42005 7.47845 2.27523 7.55086 2.19799C7.64741 2.09178 7.77292 2.08695 7.8743 2.18833Z"/>
<path d="M1.9848 7.04475C2.04756 7.13165 2.06204 7.29578 2.06204 7.81715V8.48334H1.82067H1.57929V7.75922C1.57929 7.12682 1.58895 7.0351 1.66619 6.99165C1.79653 6.91441 1.90756 6.9289 1.9848 7.04475Z"/>
<path d="M2.06204 13.3591V17.6555H1.82067H1.57929V13.3591V9.06263H1.82067H2.06204V13.3591Z"/>
<path d="M25.1373 13.3591V17.6555H24.8959H24.6545V13.3591V9.06263H24.8959H25.1373V13.3591Z"/>
</mask>
<path d="M18.1858 12.8281V17.6555H17.6547H17.1237V14.928C17.1237 12.2777 17.1189 12.1957 17.0223 11.935C16.8389 11.4474 16.6072 11.2736 14.9562 10.3854C14.0921 9.91709 13.4307 9.59365 13.3535 9.59365C13.2859 9.59365 13.0542 9.68538 12.8466 9.80123C12.4459 10.0233 12.3156 10.0909 11.0411 10.7812C10.1818 11.2398 9.92597 11.4522 9.72804 11.8481L9.61701 12.0798L9.60253 14.8652L9.59288 17.6555H9.06186H8.53083V12.8281V8.00059H13.3583H18.1858V12.8281Z" fill="#17627C"/>
<path d="M24.0752 14.7108V17.6555H23.8339H23.5925V16.0769C23.5925 14.0301 23.6697 14.2184 22.5884 13.6294C22.3181 13.4798 22.0332 13.3591 21.9608 13.3591C21.8015 13.3591 20.7443 13.9239 20.5464 14.1122C20.4691 14.1846 20.3822 14.3246 20.3581 14.4163C20.3291 14.5128 20.3098 15.2611 20.3098 16.1204V17.6555H20.0685H19.8271V14.7108V11.766H21.9512H24.0752V14.7108Z" fill="#17627C"/>
<path d="M24.0752 10.6798V11.1867H21.9512H19.8271V10.6798V10.1729H21.9512H24.0752V10.6798Z" fill="#17627C"/>
<path d="M6.8895 10.6798V11.1867H4.76542H2.64134V10.6798V10.1729H4.76542H6.8895V10.6798Z" fill="#17627C"/>
<path d="M6.8895 14.7108V17.6555H6.64813H6.40675V16.1204C6.40675 15.2659 6.38744 14.5128 6.35848 14.4211C6.33434 14.3246 6.24262 14.1797 6.15573 14.0977C5.91918 13.8804 4.92472 13.3591 4.74611 13.3639C4.65439 13.3639 4.35508 13.4991 3.96889 13.7163C3.07098 14.2184 3.12408 14.0687 3.12408 16.0721V17.6555H2.88271H2.64134V14.7108V11.766H4.76542H6.8895V14.7108Z" fill="#17627C"/>
<path d="M19.2478 11.2109V17.6555H19.0064H18.765V11.2109V4.7662H19.0064H19.2478V11.2109Z" fill="#17627C"/>
<path d="M7.95154 11.2109V17.6555H7.71017H7.46879V11.2109V4.7662H7.71017H7.95154V11.2109Z" fill="#17627C"/>
<path d="M14.7341 10.9502C15.4775 11.3508 16.1486 11.737 16.2258 11.8046C16.303 11.877 16.4044 12.0219 16.4527 12.1281C16.5348 12.3067 16.5444 12.495 16.5444 14.9859V17.6555H15.772H14.9996V16.2073C14.9996 14.8556 14.9948 14.7397 14.8934 14.4404C14.7679 14.0542 14.4927 13.7308 14.121 13.528C13.759 13.3301 13.1748 13.3011 12.7549 13.4604C12.3204 13.6246 11.9535 14.0108 11.8183 14.4404C11.7266 14.7446 11.717 14.8845 11.717 16.2121V17.6555H10.9446H10.1722V14.9859C10.1722 12.495 10.1818 12.3067 10.2639 12.1281C10.3122 12.0219 10.4184 11.877 10.4908 11.8046C10.6066 11.6936 13.2762 10.2261 13.3583 10.2212C13.3728 10.2212 13.9955 10.5495 14.7341 10.9502Z" fill="#17627C"/>
<path d="M25.0794 6.99648C25.118 7.0351 25.1373 7.27647 25.1373 7.76887V8.48334H24.8959H24.6545V7.81715C24.6545 7.29578 24.669 7.13165 24.7318 7.04475C24.8139 6.9289 24.9876 6.90476 25.0794 6.99648Z" fill="#17627C"/>
<path d="M19.1706 2.18833C19.2381 2.25109 19.2478 2.41522 19.2478 3.22623V4.1869H19.0064H18.765V3.22623C18.765 2.20281 18.7844 2.11109 19.0064 2.11109C19.0547 2.11109 19.1319 2.14488 19.1706 2.18833Z" fill="#17627C"/>
<path d="M7.8743 2.18833C7.94188 2.25109 7.95154 2.41522 7.95154 3.22623V4.1869H7.71017H7.46879V3.23589C7.46879 2.42005 7.47845 2.27523 7.55086 2.19799C7.64741 2.09178 7.77292 2.08695 7.8743 2.18833Z" fill="#17627C"/>
<path d="M1.9848 7.04475C2.04756 7.13165 2.06204 7.29578 2.06204 7.81715V8.48334H1.82067H1.57929V7.75922C1.57929 7.12682 1.58895 7.0351 1.66619 6.99165C1.79653 6.91441 1.90756 6.9289 1.9848 7.04475Z" fill="#17627C"/>
<path d="M2.06204 13.3591V17.6555H1.82067H1.57929V13.3591V9.06263H1.82067H2.06204V13.3591Z" fill="#17627C"/>
<path d="M25.1373 13.3591V17.6555H24.8959H24.6545V13.3591V9.06263H24.8959H25.1373V13.3591Z" fill="#17627C"/>
<path d="M18.1858 12.8281V17.6555H17.6547H17.1237V14.928C17.1237 12.2777 17.1189 12.1957 17.0223 11.935C16.8389 11.4474 16.6072 11.2736 14.9562 10.3854C14.0921 9.91709 13.4307 9.59365 13.3535 9.59365C13.2859 9.59365 13.0542 9.68538 12.8466 9.80123C12.4459 10.0233 12.3156 10.0909 11.0411 10.7812C10.1818 11.2398 9.92597 11.4522 9.72804 11.8481L9.61701 12.0798L9.60253 14.8652L9.59288 17.6555H9.06186H8.53083V12.8281V8.00059H13.3583H18.1858V12.8281Z" stroke="#17627C" stroke-width="0.4" mask="url(#path-1-outside-1_4316_5179)"/>
<path d="M24.0752 14.7108V17.6555H23.8339H23.5925V16.0769C23.5925 14.0301 23.6697 14.2184 22.5884 13.6294C22.3181 13.4798 22.0332 13.3591 21.9608 13.3591C21.8015 13.3591 20.7443 13.9239 20.5464 14.1122C20.4691 14.1846 20.3822 14.3246 20.3581 14.4163C20.3291 14.5128 20.3098 15.2611 20.3098 16.1204V17.6555H20.0685H19.8271V14.7108V11.766H21.9512H24.0752V14.7108Z" stroke="#17627C" stroke-width="0.4" mask="url(#path-1-outside-1_4316_5179)"/>
<path d="M24.0752 10.6798V11.1867H21.9512H19.8271V10.6798V10.1729H21.9512H24.0752V10.6798Z" stroke="#17627C" stroke-width="0.4" mask="url(#path-1-outside-1_4316_5179)"/>
<path d="M6.8895 10.6798V11.1867H4.76542H2.64134V10.6798V10.1729H4.76542H6.8895V10.6798Z" stroke="#17627C" stroke-width="0.4" mask="url(#path-1-outside-1_4316_5179)"/>
<path d="M6.8895 14.7108V17.6555H6.64813H6.40675V16.1204C6.40675 15.2659 6.38744 14.5128 6.35848 14.4211C6.33434 14.3246 6.24262 14.1797 6.15573 14.0977C5.91918 13.8804 4.92472 13.3591 4.74611 13.3639C4.65439 13.3639 4.35508 13.4991 3.96889 13.7163C3.07098 14.2184 3.12408 14.0687 3.12408 16.0721V17.6555H2.88271H2.64134V14.7108V11.766H4.76542H6.8895V14.7108Z" stroke="#17627C" stroke-width="0.4" mask="url(#path-1-outside-1_4316_5179)"/>
<path d="M19.2478 11.2109V17.6555H19.0064H18.765V11.2109V4.7662H19.0064H19.2478V11.2109Z" stroke="#17627C" stroke-width="0.4" mask="url(#path-1-outside-1_4316_5179)"/>
<path d="M7.95154 11.2109V17.6555H7.71017H7.46879V11.2109V4.7662H7.71017H7.95154V11.2109Z" stroke="#17627C" stroke-width="0.4" mask="url(#path-1-outside-1_4316_5179)"/>
<path d="M14.7341 10.9502C15.4775 11.3508 16.1486 11.737 16.2258 11.8046C16.303 11.877 16.4044 12.0219 16.4527 12.1281C16.5348 12.3067 16.5444 12.495 16.5444 14.9859V17.6555H15.772H14.9996V16.2073C14.9996 14.8556 14.9948 14.7397 14.8934 14.4404C14.7679 14.0542 14.4927 13.7308 14.121 13.528C13.759 13.3301 13.1748 13.3011 12.7549 13.4604C12.3204 13.6246 11.9535 14.0108 11.8183 14.4404C11.7266 14.7446 11.717 14.8845 11.717 16.2121V17.6555H10.9446H10.1722V14.9859C10.1722 12.495 10.1818 12.3067 10.2639 12.1281C10.3122 12.0219 10.4184 11.877 10.4908 11.8046C10.6066 11.6936 13.2762 10.2261 13.3583 10.2212C13.3728 10.2212 13.9955 10.5495 14.7341 10.9502Z" stroke="#17627C" stroke-width="0.4" mask="url(#path-1-outside-1_4316_5179)"/>
<path d="M25.0794 6.99648C25.118 7.0351 25.1373 7.27647 25.1373 7.76887V8.48334H24.8959H24.6545V7.81715C24.6545 7.29578 24.669 7.13165 24.7318 7.04475C24.8139 6.9289 24.9876 6.90476 25.0794 6.99648Z" stroke="#17627C" stroke-width="0.4" mask="url(#path-1-outside-1_4316_5179)"/>
<path d="M19.1706 2.18833C19.2381 2.25109 19.2478 2.41522 19.2478 3.22623V4.1869H19.0064H18.765V3.22623C18.765 2.20281 18.7844 2.11109 19.0064 2.11109C19.0547 2.11109 19.1319 2.14488 19.1706 2.18833Z" stroke="#17627C" stroke-width="0.4" mask="url(#path-1-outside-1_4316_5179)"/>
<path d="M7.8743 2.18833C7.94188 2.25109 7.95154 2.41522 7.95154 3.22623V4.1869H7.71017H7.46879V3.23589C7.46879 2.42005 7.47845 2.27523 7.55086 2.19799C7.64741 2.09178 7.77292 2.08695 7.8743 2.18833Z" stroke="#17627C" stroke-width="0.4" mask="url(#path-1-outside-1_4316_5179)"/>
<path d="M1.9848 7.04475C2.04756 7.13165 2.06204 7.29578 2.06204 7.81715V8.48334H1.82067H1.57929V7.75922C1.57929 7.12682 1.58895 7.0351 1.66619 6.99165C1.79653 6.91441 1.90756 6.9289 1.9848 7.04475Z" stroke="#17627C" stroke-width="0.4" mask="url(#path-1-outside-1_4316_5179)"/>
<path d="M2.06204 13.3591V17.6555H1.82067H1.57929V13.3591V9.06263H1.82067H2.06204V13.3591Z" stroke="#17627C" stroke-width="0.4" mask="url(#path-1-outside-1_4316_5179)"/>
<path d="M25.1373 13.3591V17.6555H24.8959H24.6545V13.3591V9.06263H24.8959H25.1373V13.3591Z" stroke="#17627C" stroke-width="0.4" mask="url(#path-1-outside-1_4316_5179)"/>
</svg>
