<svg width="41" height="45" viewBox="0 0 41 45" fill="none" xmlns="http://www.w3.org/2000/svg">
<g filter="url(#filter0_d_2831_2374)">
<path fill-rule="evenodd" clip-rule="evenodd" d="M20.23 17.1861C21.3143 18.0292 22.6941 18.4134 24.0657 18.2539C25.4374 18.0945 26.6885 17.4045 27.5441 16.3358C28.3996 15.2671 28.7893 13.9073 28.6275 12.5554C28.4657 11.2035 27.7657 9.97027 26.6814 9.12709C25.5953 8.30801 24.2258 7.94292 22.8689 8.11068C21.5119 8.27844 20.2764 8.96558 19.4292 10.0237C18.5819 11.0818 18.191 12.4259 18.3409 13.7656C18.4907 15.1054 19.1693 16.3353 20.23 17.1861ZM19.0127 18.7055C19.0122 18.706 19.0122 18.7068 19.0128 18.7073C20.506 19.8681 22.4059 20.3969 24.2947 20.1774C25.2301 20.0687 26.1347 19.7794 26.9567 19.3262C27.7788 18.8729 28.5022 18.2645 29.0857 17.5356C29.6691 16.8068 30.1012 15.9719 30.3573 15.0785C30.6134 14.1851 30.6884 13.2507 30.5781 12.3287C30.4678 11.4067 30.1743 10.5152 29.7144 9.70497C29.2545 8.89477 28.6372 8.18178 27.8978 7.60671C26.4012 6.48584 24.5179 5.9888 22.6533 6.22253C20.7887 6.45626 19.0916 7.40208 17.9273 8.85648C16.7631 10.3109 16.2246 12.1576 16.4277 13.9994C16.6308 15.8407 17.559 17.5299 19.0126 18.7036C19.0132 18.7041 19.0132 18.7049 19.0127 18.7055V18.7055Z" fill="#4C7380"/>
<path fill-rule="evenodd" clip-rule="evenodd" d="M17.2756 15.0642C17.2755 15.0641 17.2756 15.0639 17.2758 15.064C17.4888 15.211 17.634 15.4352 17.6796 15.6875C17.7253 15.9403 17.6673 16.2006 17.5183 16.4112L9.19229 28.154C9.11835 28.2583 9.0243 28.3472 8.91551 28.4156C8.80671 28.4841 8.6853 28.5308 8.55821 28.553C8.30154 28.5978 8.03729 28.5403 7.82361 28.3932C7.60993 28.246 7.46432 28.0212 7.41881 27.7682C7.37329 27.5152 7.43161 27.2548 7.58093 27.0442L15.9069 15.3034C15.9809 15.199 16.0751 15.11 16.184 15.0416C16.2929 14.9731 16.4144 14.9265 16.5417 14.9043C16.6689 14.8822 16.7993 14.885 16.9254 14.9126C17.051 14.9401 17.17 14.9917 17.2755 15.0644C17.2756 15.0645 17.2757 15.0643 17.2756 15.0642V15.0642ZM24.5533 18.6366C24.3591 18.4653 24.1039 18.377 23.8437 18.3912C23.5836 18.4054 23.3397 18.5208 23.1659 18.7121L22.714 19.2099L22.2959 19.6669C22.2145 19.7559 22.1211 19.8335 22.0399 19.9226V19.9226C20.4245 21.6996 18.8 23.4685 17.1666 25.2294C15.912 26.5881 14.6543 27.9467 12.9505 29.8166C12.5835 30.2193 12.6177 30.8448 13.0262 31.2053V31.2053C13.4262 31.5583 14.0355 31.5248 14.3949 31.1306C16.014 29.355 17.6414 27.5868 19.277 25.826C20.8255 24.1526 22.3779 22.4753 24.174 20.5037L24.6299 20.004C24.8037 19.8126 24.8933 19.5611 24.8789 19.3047C24.8645 19.0482 24.7474 18.8079 24.5533 18.6366Z" fill="#4C7380"/>
<path fill-rule="evenodd" clip-rule="evenodd" d="M7.61429 26.9978C7.6942 26.8977 7.79336 26.8142 7.90608 26.7519C8.01879 26.6897 8.14286 26.6499 8.27118 26.635C8.3995 26.6201 8.52955 26.6302 8.65388 26.6649C8.77821 26.6996 8.89438 26.7581 8.99574 26.8371L13.6235 30.4356C13.828 30.5949 13.96 30.8277 13.9905 31.0828C14.0209 31.338 13.9472 31.5946 13.7856 31.7962C13.624 31.9978 13.3878 32.1279 13.129 32.1579C12.8701 32.1879 12.6097 32.1152 12.4051 31.956L7.77739 28.3574C7.5729 28.1984 7.44085 27.9659 7.41027 27.7109C7.37968 27.456 7.45307 27.1995 7.61429 26.9978ZM20.2537 12.0245L19.1887 10.4283C18.8859 9.97456 19.0126 9.36086 19.4703 9.06408V9.06408C19.9198 8.77264 20.52 8.89673 20.8171 9.3425L21.8945 10.9593C22.9447 12.5366 24.4859 13.7355 26.2864 14.3758L28.1281 15.0298C28.6364 15.2104 28.8996 15.7711 28.7138 16.2774V16.2774C28.5306 16.7765 27.9798 17.035 27.479 16.8569L25.6203 16.1964C23.4206 15.4145 21.5375 13.9507 20.2537 12.0245Z" fill="#4C7380"/>
<path fill-rule="evenodd" clip-rule="evenodd" d="M34.3314 27.6216L34.3019 27.6274L34.2174 27.641C33.7135 27.7299 33.2104 27.8235 32.7083 27.9218C31.7257 28.1097 30.4131 28.3711 29.0768 28.6713C28.5305 28.7953 28.0943 28.8883 27.7307 28.9677C26.9938 29.1265 26.5517 29.2214 26.1076 29.3589C25.4788 29.5506 24.8657 29.8237 23.3958 30.5345C22.598 30.9219 21.8198 31.561 21.0161 32.3745C20.4202 32.991 19.8435 33.6253 19.2868 34.2764C19.0608 34.534 18.8329 34.7955 18.5971 35.0589C17.7757 35.9827 16.8953 36.9182 15.9285 37.6542C14.9558 38.3959 13.8455 38.9731 12.5604 39.1184C11.7232 39.2152 10.8468 39.2152 10.0588 39.1087C9.30423 39.006 8.50052 38.7872 7.92278 38.3378C6.89505 37.5379 6.20727 36.1861 6.55509 34.3306C6.65138 33.8212 6.96383 33.2247 7.26841 32.7115C7.59658 32.1614 8.00139 31.5688 8.38851 31.0342C8.83473 30.416 9.29667 29.8089 9.77388 29.2136L9.87214 29.0974L9.89572 29.0645L9.90554 29.0529C10.0709 28.8583 10.3071 28.7356 10.5634 28.7109C10.8197 28.6863 11.0755 28.7618 11.2758 28.9212C11.4762 29.0806 11.6051 29.3112 11.6347 29.5633C11.6644 29.8153 11.5924 30.0688 11.4344 30.2692L11.4285 30.2769L11.4049 30.306L11.3145 30.4164C10.8576 30.9857 10.4153 31.5662 9.98808 32.1575C9.62583 32.6543 9.28427 33.1654 8.96427 33.6895C8.65576 34.2067 8.51231 34.5417 8.48676 34.6831C8.27257 35.8258 8.6813 36.4611 9.14113 36.8175C9.30816 36.9472 9.69528 37.1041 10.328 37.1893C10.9947 37.2716 11.6691 37.2736 12.3363 37.1951C13.1499 37.1022 13.9281 36.7303 14.7278 36.1222C15.5335 35.5082 16.3097 34.6947 17.1193 33.7825L17.7599 33.0543C18.3573 32.3706 18.9783 31.6598 19.6071 31.0226C20.4757 30.1472 21.4346 29.326 22.5292 28.7953C23.9833 28.0922 24.7301 27.7514 25.524 27.5093C26.0526 27.3466 26.6106 27.2265 27.4144 27.0522C27.7681 26.9747 28.1729 26.8895 28.6406 26.783C30.2645 26.4203 31.8958 26.091 33.5336 25.7952C33.6771 25.77 33.7891 25.7487 33.8677 25.7371L33.9581 25.7197L33.9875 25.7139C34.2442 25.6689 34.5085 25.7263 34.7222 25.8734C34.936 26.0205 35.0817 26.2453 35.1273 26.4983C35.1729 26.7512 35.1147 27.0117 34.9654 27.2224C34.8161 27.433 34.5881 27.5766 34.3314 27.6216Z" fill="#4C7380"/>
<path fill-rule="evenodd" clip-rule="evenodd" d="M20.23 17.1861C21.3143 18.0292 22.6941 18.4134 24.0657 18.2539C25.4374 18.0945 26.6885 17.4045 27.5441 16.3358C28.3996 15.2671 28.7893 13.9073 28.6275 12.5554C28.4657 11.2035 27.7657 9.97027 26.6814 9.12709C25.5953 8.30801 24.2258 7.94292 22.8689 8.11068C21.5119 8.27844 20.2764 8.96558 19.4292 10.0237C18.5819 11.0818 18.191 12.4259 18.3409 13.7656C18.4907 15.1054 19.1693 16.3353 20.23 17.1861ZM19.0127 18.7055C19.0122 18.706 19.0122 18.7068 19.0128 18.7073C20.506 19.8681 22.4059 20.3969 24.2947 20.1774C25.2301 20.0687 26.1347 19.7794 26.9567 19.3262C27.7788 18.8729 28.5022 18.2645 29.0857 17.5356C29.6691 16.8068 30.1012 15.9719 30.3573 15.0785C30.6134 14.1851 30.6884 13.2507 30.5781 12.3287C30.4678 11.4067 30.1743 10.5152 29.7144 9.70497C29.2545 8.89477 28.6372 8.18178 27.8978 7.60671C26.4012 6.48584 24.5179 5.9888 22.6533 6.22253C20.7887 6.45626 19.0916 7.40208 17.9273 8.85648C16.7631 10.3109 16.2246 12.1576 16.4277 13.9994C16.6308 15.8407 17.559 17.5299 19.0126 18.7036C19.0132 18.7041 19.0132 18.7049 19.0127 18.7055V18.7055Z" stroke="#4C7380" stroke-width="1.5"/>
<path fill-rule="evenodd" clip-rule="evenodd" d="M17.2756 15.0642C17.2755 15.0641 17.2756 15.0639 17.2758 15.064C17.4888 15.211 17.634 15.4352 17.6796 15.6875C17.7253 15.9403 17.6673 16.2006 17.5183 16.4112L9.19229 28.154C9.11835 28.2583 9.0243 28.3472 8.91551 28.4156C8.80671 28.4841 8.6853 28.5308 8.55821 28.553C8.30154 28.5978 8.03729 28.5403 7.82361 28.3932C7.60993 28.246 7.46432 28.0212 7.41881 27.7682C7.37329 27.5152 7.43161 27.2548 7.58093 27.0442L15.9069 15.3034C15.9809 15.199 16.0751 15.11 16.184 15.0416C16.2929 14.9731 16.4144 14.9265 16.5417 14.9043C16.6689 14.8822 16.7993 14.885 16.9254 14.9126C17.051 14.9401 17.17 14.9917 17.2755 15.0644C17.2756 15.0645 17.2757 15.0643 17.2756 15.0642V15.0642ZM24.5533 18.6366C24.3591 18.4653 24.1039 18.377 23.8437 18.3912C23.5836 18.4054 23.3397 18.5208 23.1659 18.7121L22.714 19.2099L22.2959 19.6669C22.2145 19.7559 22.1211 19.8335 22.0399 19.9226V19.9226C20.4245 21.6996 18.8 23.4685 17.1666 25.2294C15.912 26.5881 14.6543 27.9467 12.9505 29.8166C12.5835 30.2193 12.6177 30.8448 13.0262 31.2053V31.2053C13.4262 31.5583 14.0355 31.5248 14.3949 31.1306C16.014 29.355 17.6414 27.5868 19.277 25.826C20.8255 24.1526 22.3779 22.4753 24.174 20.5037L24.6299 20.004C24.8037 19.8126 24.8933 19.5611 24.8789 19.3047C24.8645 19.0482 24.7474 18.8079 24.5533 18.6366Z" stroke="#4C7380" stroke-width="1.5"/>
<path fill-rule="evenodd" clip-rule="evenodd" d="M7.61429 26.9978C7.6942 26.8977 7.79336 26.8142 7.90608 26.7519C8.01879 26.6897 8.14286 26.6499 8.27118 26.635C8.3995 26.6201 8.52955 26.6302 8.65388 26.6649C8.77821 26.6996 8.89438 26.7581 8.99574 26.8371L13.6235 30.4356C13.828 30.5949 13.96 30.8277 13.9905 31.0828C14.0209 31.338 13.9472 31.5946 13.7856 31.7962C13.624 31.9978 13.3878 32.1279 13.129 32.1579C12.8701 32.1879 12.6097 32.1152 12.4051 31.956L7.77739 28.3574C7.5729 28.1984 7.44085 27.9659 7.41027 27.7109C7.37968 27.456 7.45307 27.1995 7.61429 26.9978ZM20.2537 12.0245L19.1887 10.4283C18.8859 9.97456 19.0126 9.36086 19.4703 9.06408V9.06408C19.9198 8.77264 20.52 8.89673 20.8171 9.3425L21.8945 10.9593C22.9447 12.5366 24.4859 13.7355 26.2864 14.3758L28.1281 15.0298C28.6364 15.2104 28.8996 15.7711 28.7138 16.2774V16.2774C28.5306 16.7765 27.9798 17.035 27.479 16.8569L25.6203 16.1964C23.4206 15.4145 21.5375 13.9507 20.2537 12.0245Z" stroke="#4C7380" stroke-width="1.5"/>
<path fill-rule="evenodd" clip-rule="evenodd" d="M34.3314 27.6216L34.3019 27.6274L34.2174 27.641C33.7135 27.7299 33.2104 27.8235 32.7083 27.9218C31.7257 28.1097 30.4131 28.3711 29.0768 28.6713C28.5305 28.7953 28.0943 28.8883 27.7307 28.9677C26.9938 29.1265 26.5517 29.2214 26.1076 29.3589C25.4788 29.5506 24.8657 29.8237 23.3958 30.5345C22.598 30.9219 21.8198 31.561 21.0161 32.3745C20.4202 32.991 19.8435 33.6253 19.2868 34.2764C19.0608 34.534 18.8329 34.7955 18.5971 35.0589C17.7757 35.9827 16.8953 36.9182 15.9285 37.6542C14.9558 38.3959 13.8455 38.9731 12.5604 39.1184C11.7232 39.2152 10.8468 39.2152 10.0588 39.1087C9.30423 39.006 8.50052 38.7872 7.92278 38.3378C6.89505 37.5379 6.20727 36.1861 6.55509 34.3306C6.65138 33.8212 6.96383 33.2247 7.26841 32.7115C7.59658 32.1614 8.00139 31.5688 8.38851 31.0342C8.83473 30.416 9.29667 29.8089 9.77388 29.2136L9.87214 29.0974L9.89572 29.0645L9.90554 29.0529C10.0709 28.8583 10.3071 28.7356 10.5634 28.7109C10.8197 28.6863 11.0755 28.7618 11.2758 28.9212C11.4762 29.0806 11.6051 29.3112 11.6347 29.5633C11.6644 29.8153 11.5924 30.0688 11.4344 30.2692L11.4285 30.2769L11.4049 30.306L11.3145 30.4164C10.8576 30.9857 10.4153 31.5662 9.98808 32.1575C9.62583 32.6543 9.28427 33.1654 8.96427 33.6895C8.65576 34.2067 8.51231 34.5417 8.48676 34.6831C8.27257 35.8258 8.6813 36.4611 9.14113 36.8175C9.30816 36.9472 9.69528 37.1041 10.328 37.1893C10.9947 37.2716 11.6691 37.2736 12.3363 37.1951C13.1499 37.1022 13.9281 36.7303 14.7278 36.1222C15.5335 35.5082 16.3097 34.6947 17.1193 33.7825L17.7599 33.0543C18.3573 32.3706 18.9783 31.6598 19.6071 31.0226C20.4757 30.1472 21.4346 29.326 22.5292 28.7953C23.9833 28.0922 24.7301 27.7514 25.524 27.5093C26.0526 27.3466 26.6106 27.2265 27.4144 27.0522C27.7681 26.9747 28.1729 26.8895 28.6406 26.783C30.2645 26.4203 31.8958 26.091 33.5336 25.7952C33.6771 25.77 33.7891 25.7487 33.8677 25.7371L33.9581 25.7197L33.9875 25.7139C34.2442 25.6689 34.5085 25.7263 34.7222 25.8734C34.936 26.0205 35.0817 26.2453 35.1273 26.4983C35.1729 26.7512 35.1147 27.0117 34.9654 27.2224C34.8161 27.433 34.5881 27.5766 34.3314 27.6216Z" stroke="#4C7380" stroke-width="1.5"/>
</g>
<defs>
<filter id="filter0_d_2831_2374" x="0.713867" y="0.416016" width="40.1787" height="44.5234" filterUnits="userSpaceOnUse" color-interpolation-filters="sRGB">
<feFlood flood-opacity="0" result="BackgroundImageFix"/>
<feColorMatrix in="SourceAlpha" type="matrix" values="0 0 0 0 0 0 0 0 0 0 0 0 0 0 0 0 0 0 127 0" result="hardAlpha"/>
<feOffset/>
<feGaussianBlur stdDeviation="2.5"/>
<feComposite in2="hardAlpha" operator="out"/>
<feColorMatrix type="matrix" values="0 0 0 0 0.267361 0 0 0 0 0.75434 0 0 0 0 0.916667 0 0 0 0.6 0"/>
<feBlend mode="normal" in2="BackgroundImageFix" result="effect1_dropShadow_2831_2374"/>
<feBlend mode="normal" in="SourceGraphic" in2="effect1_dropShadow_2831_2374" result="shape"/>
</filter>
</defs>
</svg>
