<svg width="20" height="19" viewBox="0 0 20 19" fill="none" xmlns="http://www.w3.org/2000/svg">
<path fill-rule="evenodd" clip-rule="evenodd" d="M10.7598 7.60875L9.11123 2.06762C8.96875 1.58873 8.70836 1.15288 8.35373 0.799701L8.27729 0.723583C6.48158 -1.06478 3.48036 0.734799 4.2272 3.15209C4.31764 3.44481 4.45307 3.72181 4.62869 3.97323L8.05739 8.88179L2.07612 10.6468C1.59526 10.7887 1.15762 11.048 0.802989 11.4012L0.726558 11.4773C-1.06916 13.2656 0.73782 16.2546 3.16505 15.5108C3.45897 15.4207 3.73711 15.2858 3.98956 15.1109L9.32382 11.4153L10.9525 16.8897C11.095 17.3686 11.3554 17.8045 11.71 18.1577L11.7865 18.2338C13.5822 20.0221 16.5834 18.2226 15.8366 15.8053C15.7461 15.5125 15.6107 15.2355 15.4351 14.9841L12.1133 10.2287L17.7256 8.5726C18.2065 8.4307 18.6441 8.17138 18.9988 7.8182L19.0752 7.74208C20.8709 5.95371 19.0639 2.96478 16.6367 3.70857C16.3428 3.79863 16.0646 3.93352 15.8122 4.10842L10.7598 7.60875ZM9.90118 11.0661C10.8661 11.0661 11.6484 10.2838 11.6484 9.31889C11.6484 8.35393 10.8661 7.57167 9.90118 7.57167C8.93622 7.57167 8.15397 8.35393 8.15397 9.31889C8.15397 10.2838 8.93622 11.0661 9.90118 11.0661Z" fill="#17627C"/>
<circle cx="9.90016" cy="9.31911" r="1.16481" fill="#17627C"/>
</svg>
