<svg width="27" height="27" viewBox="0 0 27 27" fill="none" xmlns="http://www.w3.org/2000/svg">
<path d="M17.2398 14.0396C17.4423 14.1341 17.6718 14.1746 17.8878 14.1746C18.3333 14.1746 18.7517 13.9991 19.0757 13.6886L22.0186 10.7997H23.2876C25.3396 10.7997 27 9.13923 27 7.08729V3.71239C27 1.66045 25.3396 0 23.2876 0H17.2128C15.1608 0 13.5004 1.66045 13.5004 3.71239V7.08729C13.5004 8.78824 14.6479 10.2192 16.2003 10.6647V12.4871C16.2003 13.1621 16.6188 13.7696 17.2398 14.0396ZM8.10056 15.5245C5.49514 15.5245 3.3757 13.4051 3.3757 10.7997C3.3757 8.19426 5.49514 6.07482 8.10056 6.07482C10.706 6.07482 12.8254 8.19426 12.8254 10.7997C12.8254 13.4051 10.706 15.5245 8.10056 15.5245ZM8.10056 26.9992C5.31964 26.9992 3.18671 26.2432 1.75575 24.7448C-0.0477988 22.8494 -0.00325012 20.46 0.000799763 20.2129V20.1954C0.000799763 18.7509 1.21576 17.5495 2.70072 17.5495H13.5004C14.9854 17.5495 16.2003 18.7644 16.2003 20.2494L16.2017 20.2575C16.2057 20.4289 16.2624 22.8359 14.4467 24.7448C13.0144 26.2432 10.8815 26.9992 8.10056 26.9992Z" fill="#19657E"/>
</svg>
