<svg width="22" height="23" viewBox="0 0 22 23" fill="none" xmlns="http://www.w3.org/2000/svg">
<path fill-rule="evenodd" clip-rule="evenodd" d="M17.1154 0.830835C17.4403 0.50593 18.0571 0.142477 18.426 0.0543671C18.784 -0.0282364 19.61 -0.0172234 19.9404 0.0819016C20.8766 0.357244 21.576 1.03459 21.8954 1.97627C21.9945 2.26814 22 2.62608 22 11.0076V19.736L21.8733 20.1049C21.6365 20.7878 21.0914 21.4156 20.4581 21.735C20.4273 21.7504 20.3995 21.7649 20.3731 21.7787L20.3731 21.7788C20.3412 21.7955 20.3114 21.8111 20.2811 21.8257C19.8717 22.0221 19.368 22.0221 12.0589 22.0214L10.6173 22.0213C1.66859 22.0213 1.597 22.0213 1.48686 21.9112C1.38773 21.8121 1.37672 21.7295 1.37672 21.0576V20.3142H0.804005C0.24781 20.3142 0.225782 20.3087 0.115645 20.171C-0.0385482 19.9783 -0.0275344 19.791 0.137672 19.6258C0.258824 19.4992 0.308385 19.4882 0.826033 19.4882H1.37672V18.7998V18.1114H0.804005C0.24781 18.1114 0.225782 18.1059 0.115645 17.9683C-0.0385482 17.7755 -0.0275344 17.5883 0.137672 17.4231C0.258824 17.2964 0.308385 17.2854 0.826033 17.2854H1.37672V16.597V15.9087H0.798498C0.280851 15.9087 0.214768 15.8977 0.110138 15.7875C-0.0275344 15.6388 -0.0330413 15.4076 0.104631 15.2424C0.203755 15.1212 0.258824 15.1102 0.792991 15.0937L1.37672 15.0716V14.3888V13.7059H0.798498C0.148686 13.7059 0 13.6343 0 13.3204C0 13.0066 0.148686 12.935 0.798498 12.935H1.37672V12.2466V11.5582H0.886608C0.616771 11.5582 0.330413 11.5362 0.253317 11.5032C-0.0110138 11.4041 -0.0715895 11.0296 0.143179 10.8203C0.209262 10.7487 0.352441 10.7322 0.804005 10.7322H1.37672V10.0439V9.35549H0.826033C0.308385 9.35549 0.258824 9.34448 0.137672 9.21782C-0.0275344 9.05261 -0.0385482 8.86538 0.115645 8.67264C0.225782 8.53497 0.24781 8.52946 0.804005 8.52946H1.37672V7.8411V7.15274H0.826033C0.308385 7.15274 0.258824 7.14173 0.137672 7.01507C-0.0385482 6.84435 -0.0385482 6.63509 0.137672 6.46438C0.258824 6.33772 0.308385 6.32671 0.826033 6.32671H1.37672V5.63835V4.94999H0.804005C0.24781 4.94999 0.225782 4.94448 0.115645 4.80681C-0.0385482 4.61407 -0.0275344 4.42683 0.137672 4.26163C0.258824 4.13497 0.308385 4.12395 0.826033 4.12395H1.37672V3.40806C1.37672 2.71419 1.38223 2.68115 1.51439 2.55449L1.64656 2.41682H8.99274H16.3389L16.3775 2.18002C16.4436 1.77802 16.774 1.17226 17.1154 0.830835ZM16.3004 3.71094V4.17902H10.5787C10.0282 4.17902 9.52834 4.17867 9.07454 4.17835L9.06936 4.17834C5.29287 4.17566 4.70826 4.17525 4.60347 4.39928C4.58427 4.44031 4.58117 4.48887 4.57751 4.54632C4.57514 4.58343 4.57254 4.62424 4.56521 4.66913C4.48811 5.15374 4.12466 5.50068 3.69512 5.50068C3.57947 5.50068 3.46934 5.55024 3.38673 5.63835L3.24906 5.77051V12.2191V18.6676L3.38673 18.7998C3.47484 18.8879 3.58498 18.9375 3.70063 18.9375C4.11364 18.943 4.56521 19.3945 4.57071 19.8076C4.57071 19.9232 4.62028 20.0333 4.70839 20.1214L4.84055 20.2591H10.6723H16.5096L16.5812 20.4298C16.6198 20.5235 16.7574 20.7492 16.8896 20.9255L17.1264 21.2504H9.66458H2.20275V12.2466V3.24285H9.25156H16.3004V3.71094ZM19.9019 17.2854C20.5902 17.5442 21.1189 18.2656 21.185 19.0366C21.2015 19.2569 21.196 19.4331 21.1685 19.4331C21.1409 19.4331 21.0748 19.3174 21.0143 19.1798C20.8711 18.8273 20.425 18.3648 20.0671 18.1885C19.8523 18.0839 19.6431 18.0343 19.3677 18.0123C19.0153 17.9903 18.9602 18.0013 18.8666 18.1059C18.7289 18.2546 18.7289 18.53 18.8666 18.6676C18.9327 18.7282 19.1089 18.7943 19.3016 18.8273C19.7091 18.8934 19.9955 19.0862 20.1937 19.4166C20.5076 19.9562 20.3369 20.6666 19.8138 21.0191C19.6045 21.1512 19.5384 21.1678 19.0869 21.1678C18.6463 21.1678 18.5472 21.1512 18.2829 21.0136C17.8809 20.8043 17.5394 20.4684 17.3302 20.0664C17.165 19.758 17.1539 19.6974 17.1539 19.1853C17.1539 18.6952 17.1705 18.6015 17.3081 18.3207C17.5835 17.759 18.1617 17.2964 18.7454 17.1753C19.0648 17.1037 19.5384 17.1532 19.9019 17.2854ZM5.17676 12.2199C5.17676 12.0491 5.30342 11.906 6.75723 10.4466C7.92111 9.2795 8.30717 8.83228 8.6387 8.86959C8.86717 8.8953 9.06974 9.15113 9.48314 9.56003L10.188 10.2594L10.8929 9.56003C11.3064 9.15331 11.508 8.8988 11.7354 8.87319C12.0654 8.83605 12.4495 9.28064 13.6133 10.4411C15.0891 11.917 15.1993 12.0381 15.1993 12.2199C15.1993 12.3961 15.0891 12.5227 13.6188 13.9931C12.4549 15.1602 12.0689 15.6074 11.7373 15.5701C11.5089 15.5444 11.3063 15.2886 10.8929 14.8797L10.188 14.1803L9.48314 14.8797C9.06974 15.2886 8.86717 15.5444 8.6387 15.5701C8.30717 15.6074 7.92111 15.1602 6.75723 13.9931C5.30342 12.5337 5.17676 12.3906 5.17676 12.2199ZM9.03708 11.4214C8.7342 11.7242 8.47538 12.0381 8.45335 12.1207C8.39828 12.33 8.48639 12.4622 9.06462 13.0459L9.58226 13.569L9.07012 14.0812L8.56349 14.5878L7.37951 13.4038L6.19553 12.2199L7.37951 11.0359L8.56349 9.8519L9.07012 10.3585L9.58226 10.8652L9.03708 11.4214ZM12.9965 13.4038L11.8126 14.5878L11.3059 14.0812L10.7938 13.5746L11.339 13.0184C11.6418 12.7155 11.9007 12.4016 11.9227 12.319C11.9778 12.1097 11.8566 11.9225 11.2949 11.3663L10.7938 10.8707L11.3004 10.364L11.8126 9.8519L12.9965 11.0359L14.1805 12.2199L12.9965 13.4038ZM10.5735 11.8619L10.9315 12.2199L10.557 12.5943L10.188 12.9633L9.81906 12.5943L9.44459 12.2199L9.80254 11.8619C9.99528 11.6637 10.1715 11.504 10.188 11.504C10.2045 11.504 10.3808 11.6637 10.5735 11.8619Z" fill="#17627C"/>
</svg>
