<svg width="28" height="17" viewBox="0 0 28 17" fill="none" xmlns="http://www.w3.org/2000/svg">
<path d="M4.60756 1.54945C4.34407 1.60801 4.18467 1.68933 3.96672 1.89102C3.63817 2.19355 3.47226 2.66524 3.55033 3.08813C3.61865 3.46222 3.82684 3.78753 4.11961 3.98596C4.67588 4.36331 5.37853 4.29825 5.85021 3.82981C6.04214 3.63463 6.13323 3.47198 6.20479 3.20198C6.40323 2.44078 5.8925 1.66006 5.11178 1.53319C4.8613 1.49415 4.85805 1.49415 4.60756 1.54945Z" fill="#17627C"/>
<path d="M24.8025 1.72564C24.5552 1.81672 24.4316 1.9013 24.2332 2.11925C23.9762 2.39576 23.9014 2.59744 23.9014 3.0301C23.9014 3.3066 23.9144 3.40094 23.9697 3.51805C24.1518 3.91491 24.4772 4.21094 24.8578 4.31829C25.1375 4.40287 25.5409 4.37034 25.8076 4.24347C26.0809 4.1166 26.3216 3.87588 26.4615 3.59287C26.5623 3.38467 26.5688 3.3554 26.5688 3.01383C26.5688 2.67226 26.5623 2.64299 26.4615 2.43479C26.3216 2.15504 26.0939 1.92732 25.8174 1.7907C25.6222 1.69311 25.5637 1.6801 25.2872 1.67359C25.0399 1.66383 24.9391 1.67684 24.8025 1.72564Z" fill="#17627C"/>
<path d="M7.4834 4.33041C7.30448 4.38571 7.18412 4.4833 7.03123 4.70451C6.86533 4.94523 6.36436 5.63161 6.32207 5.6739C6.2993 5.69667 6.15942 5.62186 5.164 5.03957C4.68581 4.76306 4.62725 4.74029 4.42557 4.76306C4.01569 4.81186 3.77497 5.21848 3.9246 5.6121C3.98641 5.77149 4.06123 5.84631 4.26942 5.96342C4.35075 6.00571 4.76063 6.23993 5.18027 6.48065C6.44569 7.20933 6.37738 7.17354 6.58231 7.17354C6.8946 7.17679 6.9434 7.12475 7.60376 6.11957C7.92256 5.63161 8.20231 5.17294 8.22834 5.10463C8.31942 4.83788 8.17954 4.51908 7.9128 4.3792C7.80219 4.32065 7.5875 4.29788 7.4834 4.33041Z" fill="#17627C"/>
<path d="M3.65124 4.69806C3.4463 4.79565 3.1763 5.07541 3.07221 5.29661L2.98438 5.48529V7.37204C2.98438 9.24577 2.98438 9.25878 3.05594 9.3889C3.14377 9.55481 3.26739 9.66866 3.83016 10.1176C4.08064 10.3193 4.33763 10.5242 4.39944 10.573C4.69871 10.817 5.28751 11.2887 5.51522 11.4676L5.7657 11.666V13.4519C5.7657 15.4525 5.76895 15.4753 5.9869 15.7648C6.39353 16.2983 7.171 16.2463 7.52233 15.664L7.63618 15.4753V13.2112C7.63618 10.9601 7.63618 10.9503 7.56462 10.8202C7.46052 10.6218 7.41498 10.5795 6.68956 9.99722C6.30245 9.68818 5.97064 9.39216 5.91209 9.31083L5.8145 9.17095L5.81124 8.24059C5.80799 7.72661 5.80474 7.29071 5.80474 7.27119C5.80148 7.25167 5.37859 6.99469 4.86462 6.70192C4.35064 6.4124 3.88546 6.12939 3.82691 6.07734C3.76835 6.02854 3.67727 5.90167 3.62847 5.80083C3.5504 5.64469 3.53739 5.57637 3.54064 5.37143C3.54389 5.10794 3.60895 4.92252 3.76835 4.72734C3.86919 4.60698 3.84968 4.60047 3.65124 4.69806Z" fill="#17627C"/>
<path d="M24.1716 4.76622C23.8561 4.88007 23.5568 5.14356 23.4299 5.42332C23.3681 5.5567 23.2868 5.85923 23.3096 5.87875C23.3128 5.88525 23.4917 5.69332 23.6999 5.45585C24.1846 4.9061 24.1977 4.89308 24.4254 4.802L24.6173 4.72067L24.4546 4.72393C24.3668 4.72393 24.2399 4.74344 24.1716 4.76622Z" fill="#17627C"/>
<path d="M25.115 4.77934C25.3655 4.87042 25.5346 5.02982 25.6647 5.30307C25.8241 5.63813 25.7526 6.08054 25.4891 6.36355C25.437 6.4156 25.1573 6.73114 24.8645 7.06295C24.0252 8.00958 23.9569 8.07138 23.6023 8.19825L23.2998 8.3056V8.7415C23.2998 9.25223 23.3356 9.45391 23.4625 9.62632C23.5503 9.74669 23.9732 10.1013 25.4403 11.2658L26.1299 11.8189V13.6048C26.1299 15.3223 26.1332 15.3939 26.195 15.5663C26.3804 16.0608 26.979 16.3145 27.4474 16.0933C27.6361 16.0055 27.8313 15.8038 27.9321 15.5891C28.0004 15.4427 28.0004 15.4167 28.0004 13.3413C28.0004 11.0381 28.0004 11.0479 27.8052 10.8007C27.7467 10.7258 27.3888 10.4168 27.005 10.1078C26.5333 9.73042 26.2861 9.50922 26.234 9.42138L26.1592 9.29126L26.1722 7.46958C26.1852 5.93741 26.1787 5.62187 26.1397 5.48849C26.0063 5.03958 25.6452 4.75657 25.1703 4.73054L24.9426 4.71753L25.115 4.77934Z" fill="#17627C"/>
<path d="M24.4996 5.14285C24.4313 5.17864 24.1092 5.51044 23.7221 5.94635L23.065 6.68804L22.1476 7.01334C21.6434 7.19225 21.201 7.36141 21.162 7.38743C21.1262 7.41346 21.0579 7.49478 21.0091 7.5631C20.9115 7.70948 20.892 7.96647 20.97 8.14538C21.0644 8.3731 21.3897 8.55852 21.6109 8.50972C21.6629 8.49671 22.1054 8.35032 22.5933 8.17791C23.0813 8.00876 23.5237 7.85587 23.5822 7.8396C23.7351 7.79406 23.8392 7.69647 24.3499 7.11743C24.6004 6.83117 24.8444 6.55791 24.8867 6.51237C25.4364 5.92683 25.5145 5.71538 25.3031 5.3543C25.1534 5.10057 24.7696 4.99972 24.4996 5.14285Z" fill="#17627C"/>
<path d="M2.84449 9.9297C2.82497 10.0273 2.75666 10.4697 2.6916 10.9186C2.62654 11.3643 2.56473 11.7579 2.55172 11.7872C2.53871 11.8164 1.99545 12.441 1.3416 13.1762C0.531598 14.0871 0.131478 14.5652 0.0794298 14.6758C-0.0994858 15.063 0.0338876 15.5802 0.378707 15.8111C0.5869 15.951 0.723526 15.9933 0.951237 15.9901C1.33835 15.9836 1.46521 15.8925 2.06051 15.2126C2.26545 14.9784 2.44437 14.7734 2.46389 14.7539C3.46256 13.6511 4.24979 12.7305 4.30509 12.6004C4.36039 12.4768 4.58485 11.1691 4.55557 11.1496C4.54907 11.1431 4.34088 10.9739 4.09039 10.769C3.83991 10.564 3.54063 10.3266 3.42353 10.2355C3.30642 10.1477 3.20557 10.0663 3.19582 10.0566C3.18606 10.0468 3.11124 9.97524 3.02666 9.89717L2.87702 9.75729L2.84449 9.9297Z" fill="#17627C"/>
<path d="M23.2015 9.92483C23.2015 9.95086 23.1332 10.4193 23.0519 10.9625L22.9023 11.9482L22.4078 12.5077C22.1346 12.8135 21.5946 13.4218 21.2074 13.8577C20.8203 14.2936 20.4723 14.7133 20.4332 14.7913C20.2641 15.1459 20.3291 15.5395 20.6121 15.8323C20.8886 16.1153 21.2335 16.2064 21.5946 16.0828C21.7735 16.021 21.9882 15.8225 22.5574 15.1784C24.5743 12.9013 24.6003 12.8721 24.6621 12.7062C24.7174 12.5598 24.8931 11.5221 24.8931 11.3431C24.8931 11.2911 24.789 11.1903 24.4832 10.9495C24.2588 10.7706 24.0571 10.608 24.0376 10.5917C24.0148 10.5722 23.8814 10.4648 23.7383 10.351C23.5952 10.2371 23.4162 10.0842 23.3414 10.0094C23.2568 9.93134 23.2015 9.89881 23.2015 9.92483Z" fill="#17627C"/>
<path fill-rule="evenodd" clip-rule="evenodd" d="M9.00853 0.00321409L7.10582 0.00650592L6.99196 0.211446L6.51702 1.06048C6.16245 1.69807 6.12992 1.76313 6.18196 1.76313C6.221 1.76313 6.40968 2.09169 6.48124 2.28036C6.57492 2.5257 6.60857 2.77907 6.58692 3.02552H7.84836L9.00853 0.00321409ZM6.56444 3.18817C6.48657 3.59959 6.25274 3.98162 5.88594 4.26145L5.69727 4.40458L5.70377 4.67783C5.70702 4.83398 5.72654 4.9641 5.74606 4.97711C5.76558 4.99337 5.87943 5.06169 5.99654 5.12675L6.21124 5.24385L6.46823 4.89578C6.49914 4.85363 6.53112 4.81011 6.56284 4.76693C6.67802 4.61017 6.78991 4.45788 6.83582 4.39157C7.10257 4.01747 7.55799 3.88084 7.99389 4.04349C8.45257 4.2159 8.71281 4.77542 8.5469 5.2406C8.52088 5.31867 8.3257 5.64398 8.11425 5.96928C7.89955 6.29458 7.62955 6.70771 7.5157 6.88988C7.39859 7.06879 7.26522 7.24771 7.21642 7.28349C7.17088 7.32253 7.13184 7.36157 7.13184 7.37132C7.13184 7.38108 10.1832 7.39084 13.9111 7.39084H20.6937L20.7815 7.27699C20.8303 7.21193 20.9311 7.1241 21.0027 7.08181C21.1035 7.02325 22.7691 6.41494 22.8309 6.41494C22.8341 6.41494 22.8634 6.39217 22.8894 6.36289C22.922 6.33036 22.9415 6.25229 22.9415 6.14494C22.9447 5.59518 23.1041 5.17229 23.4424 4.83398C23.6344 4.6453 23.9824 4.4306 24.1061 4.4306C24.1841 4.4306 24.1418 4.31349 24.015 4.18988C23.74 3.91839 23.5809 3.56234 23.5464 3.18817H18.2582L18.2488 3.19216L18.2473 3.18817H6.56444ZM23.5393 3.02552C23.5404 2.74688 23.61 2.4636 23.7515 2.20229C23.8198 2.07217 23.8653 1.95181 23.8523 1.93879C23.8393 1.92253 23.7482 1.76964 23.6539 1.60048C23.6228 1.54467 23.5874 1.48071 23.5514 1.41562C23.4783 1.28343 23.4026 1.14656 23.3546 1.06373C23.283 0.936867 23.1236 0.650602 23 0.419638L22.7723 0.00650592H21.4432L22.6128 3.02552H23.5393ZM21.2678 0.00650592H19.4023L20.5718 3.02552H22.4373L21.2678 0.00650592ZM19.2268 0.00650592H19.0021H17.1902L18.3597 3.02552H20.3963L19.2268 0.00650592ZM17.0148 0.00650592H15.2318L15.1911 0.00644524V3.02552H18.1843L17.0148 0.00650592ZM15.0285 0.00620284L13.4368 0.00383074L12.2768 3.02552H15.0285V0.00620284ZM13.2614 0.00356939L11.226 0.000536034L10.0648 3.02552H12.1014L13.2614 0.00356939ZM11.0506 0.000274682L10.8663 0L9.18411 0.00291032L8.02383 3.02552H9.88933L11.0506 0.000274682Z" fill="#17627C"/>
</svg>
