<svg width="32" height="18" viewBox="0 0 32 18" fill="none" xmlns="http://www.w3.org/2000/svg">
<path fill-rule="evenodd" clip-rule="evenodd" d="M15.9397 0L0 7.40315L15.9395 15.6463L31.5 7.75708L15.9397 0ZM15.4659 1.26947L2.3701 7.64069L15.4657 14.3653L28.5612 7.64062L15.4659 1.26947Z" fill="#17627C"/>
<path d="M0 9.52398V7.40039L15.927 15.5408L31.5 7.75432V9.87792L15.927 17.6644L0 9.52398Z" fill="#17627C"/>
<path d="M5.66309 7.75432C5.66309 7.63635 6.0878 7.40039 6.37095 7.40039C6.72488 7.40039 6.72488 7.75432 7.07881 7.75432C7.36196 7.75432 7.55072 7.51837 7.78668 7.40039" stroke="#17627C" stroke-width="0.5" stroke-linecap="round"/>
<path d="M9.20215 6.33831C9.20215 6.22033 9.62687 5.98438 9.91001 5.98438C10.2639 5.98438 10.2639 6.33831 10.6179 6.33831C10.901 6.33831 11.0898 6.10235 11.3257 5.98438" stroke="#17627C" stroke-width="0.5" stroke-linecap="round"/>
<path d="M16.9883 6.72307C16.9883 6.6051 17.413 6.36914 17.6961 6.36914C18.0501 6.36914 18.0501 6.72307 18.404 6.72307C18.6872 6.72307 18.8759 6.48712 19.1119 6.36914" stroke="#17627C" stroke-width="0.5" stroke-linecap="round"/>
<path d="M11.3262 10.2621C11.3262 10.1442 11.7509 9.9082 12.034 9.9082C12.388 9.9082 12.388 10.2621 12.7419 10.2621C13.025 10.2621 13.2138 10.0262 13.4498 9.9082" stroke="#17627C" stroke-width="0.5" stroke-linecap="round"/>
<path d="M12.7412 7.43206C12.7412 7.31408 13.1659 7.07812 13.4491 7.07812C13.803 7.07812 13.803 7.43206 14.1569 7.43206C14.4401 7.43206 14.6288 7.1961 14.8648 7.07812" stroke="#17627C" stroke-width="0.5" stroke-linecap="round"/>
<path d="M14.8652 3.89104C14.8652 3.77306 15.29 3.53711 15.5731 3.53711C15.927 3.53711 15.927 3.89104 16.281 3.89104C16.5641 3.89104 16.7529 3.65509 16.9888 3.53711" stroke="#17627C" stroke-width="0.5" stroke-linecap="round"/>
<path d="M19.1123 9.17034C19.1123 9.05236 19.537 8.81641 19.8202 8.81641C20.1741 8.81641 20.1741 9.17034 20.528 9.17034C20.8112 9.17034 20.9999 8.93438 21.2359 8.81641" stroke="#17627C" stroke-width="0.5" stroke-linecap="round"/>
<path d="M23.3594 7.75432C23.3594 7.63635 23.7841 7.40039 24.0672 7.40039C24.4212 7.40039 24.4212 7.75432 24.7751 7.75432C25.0582 7.75432 25.247 7.51837 25.483 7.40039" stroke="#17627C" stroke-width="0.5" stroke-linecap="round"/>
<path d="M15.5732 11.2934C15.5732 11.1754 15.998 10.9395 16.2811 10.9395C16.635 10.9395 16.635 11.2934 16.989 11.2934C17.2721 11.2934 17.4609 11.0574 17.6968 10.9395" stroke="#17627C" stroke-width="0.5" stroke-linecap="round"/>
</svg>
