<svg width="21" height="21" viewBox="0 0 21 21" fill="none" xmlns="http://www.w3.org/2000/svg">
<path d="M14.9247 16.255C15.8154 16.4405 16.3721 17.3684 16.1049 18.2257C15.9676 18.6711 15.6855 18.994 15.255 19.1982L15.0101 19.3132L4.85995 19.3318L5.05664 19.046C5.51683 18.3705 5.57621 17.5206 5.21622 16.7894C5.14571 16.6447 5.02695 16.4591 4.95273 16.37L4.81541 16.2141H9.77357C13.2584 16.2141 14.7874 16.2253 14.9247 16.255Z" fill="#4C7380"/>
<path d="M15.2624 1.80249C15.6966 2.01033 16.0752 2.48169 16.1308 2.88624L16.1494 3.03099L15.9156 3.01614C15.7857 3.00501 15.4814 2.98274 15.2439 2.96418C14.3495 2.88995 13.1396 2.93449 12.5161 3.06068C11.5772 3.24996 10.6939 3.72503 9.95171 4.43021L9.58059 4.7828H4.81541L4.95273 4.62692C5.02695 4.53784 5.142 4.35598 5.21251 4.21866C5.57621 3.4875 5.52054 2.63386 5.05664 1.95095L4.85995 1.66517L15.0101 1.68372L15.2624 1.80249Z" fill="#4C7380"/>
<path fill-rule="evenodd" clip-rule="evenodd" d="M3.86906 1.80249C4.17709 1.94724 4.47398 2.23673 4.61501 2.52252C5.04922 3.41698 4.55563 4.47104 3.57958 4.72713C3.45712 4.75682 3.29753 4.7828 3.21589 4.7828C2.97095 4.7828 2.81879 5.03147 2.91528 5.28385C2.98208 5.45087 2.97095 5.45087 6.09949 5.45087H9.04988L8.8235 5.81088C8.5563 6.23399 8.38929 6.58286 8.24084 7.03566C8.04786 7.61094 7.99591 7.93384 7.99962 8.58706C7.99962 9.24399 8.05157 9.60029 8.23342 10.1347L8.34105 10.4576L8.07013 10.9884C7.68045 11.7492 7.35387 12.614 7.12377 13.4936L7.08295 13.6532H3.70577L3.6167 13.746C3.51278 13.8462 3.49052 14.0726 3.57216 14.1765C3.67979 14.3176 3.73174 14.3213 5.63188 14.3213H7.48747L8.20373 13.798C9.20204 13.0668 9.13524 13.1522 9.16864 12.6437C9.19833 12.228 9.26513 11.6527 9.29854 11.5303C9.31709 11.4709 9.32823 11.4709 9.47296 11.534C9.90717 11.7195 10.7162 11.7789 11.2877 11.6713C11.8889 11.5562 12.5236 11.2519 13.0394 10.8325C13.4105 10.5319 13.8299 10.0086 14.1082 9.50379C14.1899 9.35904 14.2641 9.23657 14.2715 9.23657C14.279 9.23657 14.2864 10.6543 14.2864 12.3913V15.5461H8.71959C2.78168 15.5461 2.98208 15.5386 2.91528 15.7131C2.81879 15.9655 2.97095 16.2141 3.21589 16.2141C3.29753 16.2141 3.45712 16.2401 3.57958 16.2698C4.37007 16.4776 4.88592 17.2422 4.75603 18.0179C4.67068 18.5338 4.34038 18.968 3.86906 19.1944C3.63154 19.3058 3.59072 19.3132 3.20847 19.3132C2.81879 19.3132 2.7891 19.3058 2.55158 19.187C2.24727 19.0348 1.94666 18.7305 1.7945 18.4225L1.68688 18.1998V2.79716L1.7945 2.57448C1.92068 2.3221 2.17304 2.0326 2.392 1.89528C2.67776 1.71341 2.88188 1.66145 3.26413 1.6763C3.56845 1.68372 3.6501 1.70228 3.86906 1.80249ZM3.61675 7.88187C3.47572 7.74455 3.48686 7.52928 3.63902 7.40309L3.75406 7.3066H7.13125L7.23887 7.41423C7.3799 7.55526 7.38732 7.75197 7.25372 7.88187L7.16465 7.97466H3.70582L3.61675 7.88187ZM3.57212 9.42585C3.49048 9.32192 3.51275 9.09552 3.61666 8.99532L3.70573 8.90253H7.16456L7.25363 8.99532C7.39465 9.13264 7.38352 9.34791 7.23136 9.4741L7.11631 9.57059H5.44999C3.73913 9.57059 3.67975 9.56688 3.57212 9.42585ZM3.61301 11.044C3.50167 10.9141 3.49796 10.7286 3.60188 10.595L3.6761 10.4985H7.16462L7.25369 10.5912C7.37616 10.71 7.37616 10.903 7.2574 11.044L7.16833 11.148H3.70208L3.61301 11.044ZM3.61675 12.6326C3.47572 12.4952 3.48686 12.28 3.63902 12.1538L3.75406 12.0573H6.50035L6.60797 12.1649C6.749 12.3059 6.75642 12.5027 6.62282 12.6326L6.53375 12.7253H3.70582L3.61675 12.6326Z" fill="#4C7380"/>
<path d="M15.6669 7.18041C15.9082 7.06536 16.4055 6.87236 16.7729 6.74988C17.5782 6.48265 17.7601 6.39358 18.0273 6.1412C18.4021 5.78861 18.6767 5.35066 18.9031 4.73826C19.033 4.38939 19.2594 3.53575 19.2594 3.40213C19.2594 3.32048 19.2631 3.32048 18.9439 3.43183C18.8029 3.48008 18.5097 3.55802 18.2945 3.60255C17.9382 3.68049 17.8009 3.68792 16.6727 3.68792L15.4406 3.69163L15.3032 3.81782C15.229 3.88834 15.0954 4.05906 15.0064 4.19268C14.9173 4.33 14.8171 4.44877 14.7837 4.46361C14.6501 4.51558 14.4682 4.48588 14.3792 4.3931C14.227 4.24464 14.2641 4.02566 14.4979 3.7139L14.587 3.59513H14.0748C13.7928 3.59513 13.4476 3.60626 13.3103 3.62111L13.058 3.64338L12.9726 3.81411C12.8464 4.05906 12.7722 4.33743 12.7425 4.66403C12.7203 4.88672 12.698 4.96466 12.6312 5.03147C12.5384 5.12426 12.3343 5.14652 12.2118 5.07972C12.0448 4.99435 12.0226 4.64177 12.1524 4.09618C12.1784 3.9737 12.197 3.86607 12.1896 3.85864C12.1599 3.83267 11.6626 4.04793 11.3731 4.21495C11.0168 4.41908 10.7199 4.64548 10.3785 4.96837L10.1224 5.20591L10.1447 5.69211C10.1558 5.95563 10.1744 6.24512 10.1892 6.33048C10.2078 6.47152 10.2004 6.50121 10.1002 6.60142C9.96284 6.73503 9.77728 6.75359 9.65481 6.63854C9.57688 6.56431 9.49894 6.35275 9.49894 6.20429C9.49894 6.0447 9.43214 6.08924 9.28369 6.35275C8.70103 7.37712 8.5229 8.46829 8.76783 9.52977L8.81237 9.73019L8.94597 9.52977C9.31338 8.98048 10.0334 8.15282 10.783 7.41795C12.39 5.84799 13.8559 5.12426 16.2719 4.70486C17.0661 4.56754 17.2294 4.56754 17.3481 4.69001C17.4929 4.83476 17.4632 5.09828 17.2887 5.19106C17.2479 5.21333 16.9213 5.28014 16.5651 5.33952C14.1231 5.74778 12.7017 6.44554 11.1393 8.00807C10.4267 8.72067 9.94799 9.30337 9.82181 9.60029C9.71419 9.86009 9.46183 10.6543 9.46183 10.736C9.46183 10.7842 9.73646 10.9216 9.95913 10.9847C10.2338 11.0626 10.6383 11.0923 10.9277 11.0552C11.4733 10.981 12.1376 10.6952 12.5236 10.3723L12.6683 10.2498L12.4122 10.2053C12.0411 10.1422 11.3657 9.90834 11.2395 9.80442C11.0354 9.63369 11.117 9.29966 11.3805 9.22172C11.4288 9.20687 11.5661 9.23657 11.7516 9.30708C12.1896 9.47781 12.5978 9.5706 12.9466 9.58173L13.2658 9.58916L13.4365 9.29224C13.7817 8.6984 14.008 8.37922 14.253 8.13426L14.5016 7.8893L14.279 7.74456C13.9524 7.533 13.8781 7.3066 14.0748 7.09134C14.1936 6.96143 14.3754 6.9837 14.6315 7.15443C14.7503 7.23608 14.9321 7.32145 15.0398 7.34372C15.2276 7.38706 15.2326 7.38471 15.6331 7.19633M15.6669 7.18041L15.6331 7.19633M15.6669 7.18041C15.6554 7.18586 15.6441 7.19117 15.6331 7.19633M2.63323 1.05648C2.08026 1.20123 1.47905 1.68744 1.23411 2.18477C0.981749 2.68582 1.0003 2.08827 1.0003 10.4985C1.0003 18.9087 0.981749 18.3111 1.23411 18.8122C1.3974 19.1425 1.8613 19.6064 2.18789 19.766C2.70003 20.0147 2.25098 19.9998 8.90515 19.9998C14.2307 19.9998 14.9655 19.9924 15.1585 19.9442C16.4314 19.6101 17.1329 18.2888 16.7024 17.0381C16.6467 16.8785 16.5391 16.6521 16.4611 16.537C16.1717 16.1028 15.6373 15.7279 15.1474 15.6166L14.9544 15.572V8.38293L15.1882 8.2122C15.5371 7.9524 16.1531 7.67404 17.003 7.38825C17.4223 7.24351 17.8751 7.07278 18.005 7.00597C18.2796 6.85751 18.8066 6.35275 19.0144 6.03357C19.5155 5.26529 19.9348 3.9403 19.9905 2.96047C20.009 2.63015 20.0053 2.59674 19.9348 2.52623C19.8903 2.48169 19.8123 2.43715 19.7604 2.42231C19.6602 2.39633 19.6157 2.41117 19.085 2.64871C18.5728 2.87511 17.9901 3.00501 17.3815 3.02728L16.8619 3.04955L16.7989 2.74892C16.6207 1.92868 15.9898 1.26062 15.1919 1.05648C14.9878 1.00452 14.3198 0.997102 8.90144 1.00081C3.73174 1.00081 2.80766 1.00824 2.63323 1.05648ZM3.86906 1.80249C4.17709 1.94724 4.47398 2.23673 4.61501 2.52252C5.04922 3.41698 4.55563 4.47104 3.57958 4.72713C3.45712 4.75682 3.29753 4.7828 3.21589 4.7828C2.97095 4.7828 2.81879 5.03147 2.91528 5.28385C2.98208 5.45087 2.97095 5.45087 6.09949 5.45087H9.04988L8.8235 5.81088C8.5563 6.23399 8.38929 6.58286 8.24084 7.03566C8.04786 7.61094 7.99591 7.93384 7.99962 8.58706C7.99962 9.24399 8.05157 9.60029 8.23342 10.1347L8.34105 10.4576L8.07013 10.9884C7.68045 11.7492 7.35387 12.614 7.12377 13.4936L7.08295 13.6532H3.70577L3.6167 13.746C3.51278 13.8462 3.49052 14.0726 3.57216 14.1765C3.67979 14.3176 3.73174 14.3213 5.63187 14.3213H7.48747L8.20373 13.798C9.20204 13.0668 9.13524 13.1522 9.16864 12.6437C9.19833 12.228 9.26513 11.6527 9.29854 11.5303C9.31709 11.4709 9.32822 11.4709 9.47296 11.534C9.90717 11.7195 10.7162 11.7789 11.2877 11.6713C11.8889 11.5562 12.5236 11.2519 13.0394 10.8325C13.4105 10.5319 13.8299 10.0086 14.1082 9.50379C14.1899 9.35904 14.2641 9.23657 14.2715 9.23657C14.279 9.23657 14.2864 10.6543 14.2864 12.3913V15.5461H8.71959C2.78168 15.5461 2.98208 15.5386 2.91528 15.7131C2.81879 15.9655 2.97095 16.2141 3.21589 16.2141C3.29753 16.2141 3.45712 16.2401 3.57958 16.2698C4.37007 16.4776 4.88592 17.2422 4.75603 18.0179C4.67068 18.5338 4.34038 18.968 3.86906 19.1944C3.63154 19.3058 3.59072 19.3132 3.20847 19.3132C2.81879 19.3132 2.7891 19.3058 2.55158 19.187C2.24727 19.0348 1.94666 18.7305 1.7945 18.4225L1.68688 18.1998V2.79716L1.7945 2.57448C1.92068 2.3221 2.17304 2.0326 2.392 1.89528C2.67776 1.71341 2.88188 1.66145 3.26413 1.6763C3.56845 1.68372 3.6501 1.70228 3.86906 1.80249ZM15.2624 1.80249C15.6966 2.01033 16.0752 2.48169 16.1308 2.88624L16.1494 3.03099L15.9156 3.01614C15.7857 3.00501 15.4814 2.98274 15.2439 2.96418C14.3495 2.88995 13.1396 2.93449 12.5161 3.06068C11.5772 3.24996 10.6939 3.72503 9.95171 4.43021L9.58059 4.7828H4.81541L4.95273 4.62692C5.02695 4.53784 5.142 4.35598 5.21251 4.21866C5.57621 3.4875 5.52054 2.63386 5.05664 1.95095L4.85995 1.66517L15.0101 1.68372L15.2624 1.80249ZM8.57485 11.7863C8.55258 11.9274 8.52661 12.1983 8.51176 12.3913L8.48578 12.7476L8.22229 12.9369C8.07755 13.0445 7.95508 13.1151 7.94766 13.1002C7.93281 13.0557 8.21115 12.306 8.41527 11.8383C8.50805 11.623 8.59341 11.4709 8.60083 11.4931C8.60825 11.5154 8.59712 11.649 8.57485 11.7863ZM14.9247 16.255C15.8154 16.4405 16.3721 17.3684 16.1049 18.2257C15.9676 18.6711 15.6855 18.994 15.255 19.1982L15.0101 19.3132L4.85995 19.3318L5.05664 19.046C5.51683 18.3705 5.57621 17.5206 5.21622 16.7894C5.14571 16.6447 5.02695 16.4591 4.95273 16.37L4.81541 16.2141H9.77357C13.2584 16.2141 14.7874 16.2253 14.9247 16.255ZM3.63902 7.40309C3.48686 7.52928 3.47572 7.74455 3.61675 7.88187L3.70582 7.97466H7.16465L7.25372 7.88187C7.38732 7.75197 7.3799 7.55526 7.23887 7.41423L7.13125 7.3066H3.75406L3.63902 7.40309ZM3.61666 8.99532C3.51275 9.09552 3.49048 9.32192 3.57212 9.42585C3.67975 9.56688 3.73913 9.57059 5.44999 9.57059H7.11631L7.23136 9.4741C7.38352 9.34791 7.39465 9.13264 7.25363 8.99532L7.16456 8.90253H3.70573L3.61666 8.99532ZM3.60187 10.595C3.49796 10.7286 3.50167 10.9141 3.61301 11.044L3.70208 11.148H7.16833L7.2574 11.044C7.37616 10.903 7.37616 10.71 7.25369 10.5912L7.16462 10.4985H3.6761L3.60187 10.595ZM3.63902 12.1538C3.48686 12.28 3.47572 12.4952 3.61675 12.6326L3.70582 12.7253H6.53375L6.62282 12.6326C6.75642 12.5027 6.749 12.3059 6.60797 12.1649L6.50035 12.0573H3.75406L3.63902 12.1538Z" stroke="#4C7380" stroke-width="0.3"/>
</svg>
