<svg width="28" height="32" viewBox="0 0 28 32" fill="none" xmlns="http://www.w3.org/2000/svg">
<path d="M1 32C0.447715 32 0 31.5523 0 31V11.1619C0 10.8498 0.145708 10.5557 0.393957 10.3665L13.394 0.461747C13.752 0.18899 14.248 0.188989 14.606 0.461747L27.606 10.3665C27.8543 10.5557 28 10.8498 28 11.1619V31C28 31.5523 27.5523 32 27 32H18.5C17.9477 32 17.5 31.5523 17.5 31V20.5556C17.5 20.0033 17.0523 19.5556 16.5 19.5556H11.5C10.9477 19.5556 10.5 20.0033 10.5 20.5556V31C10.5 31.5523 10.0523 32 9.5 32H1Z" fill="#D8E4E8"/>
</svg>
