<svg width="21" height="20" viewBox="0 0 21 20" fill="none" xmlns="http://www.w3.org/2000/svg">
<path d="M4.01989 0.0859442C3.07078 0.275353 2.08517 0.985638 1.55587 1.84745C1.09957 2.60509 0.962675 3.19226 1.00831 4.22454C1.03568 5.02952 1.08131 5.21893 1.34597 5.77769C2.3042 7.78543 4.61308 8.57148 6.55692 7.55814C7.21399 7.2172 8.03533 6.39327 7.99883 6.10916C7.94407 5.75875 7.71592 5.7114 7.3235 5.97657C6.51129 6.53533 5.64432 6.65844 4.78647 6.32698C2.90651 5.59775 2.34983 3.23014 3.69135 1.69592C4.10202 1.21293 4.60395 0.928815 5.27928 0.786758C5.7447 0.682583 5.78121 0.663642 5.78121 0.398469C5.78121 0.152237 5.7447 0.123826 5.41617 0.0575328C4.95074 -0.0277014 4.51269 -0.0182314 4.01989 0.0859442Z" fill="#17627C"/>
<path d="M5.13545 2.15204C5.09121 2.23727 5.02042 2.37727 4.99387 2.4564C4.94963 2.58424 4.87884 2.6025 4.4895 2.62076C4.06476 2.63902 4.02936 2.6512 4.00282 2.79729C3.98512 2.91903 4.04706 2.98599 4.29483 3.10165C4.57798 3.22948 4.60453 3.266 4.55144 3.43036C4.51604 3.52775 4.4895 3.69211 4.48065 3.79559C4.4718 4.04516 4.76381 4.06951 5.1797 3.85037L5.4894 3.69211L5.7991 3.85037C6.21499 4.06951 6.507 4.04516 6.49815 3.79559C6.4893 3.69211 6.46276 3.52775 6.42736 3.43036C6.37427 3.266 6.40082 3.22948 6.68397 3.10165C7.2149 2.85816 7.05562 2.60858 6.36542 2.60858C5.98493 2.60858 5.94953 2.59641 5.88759 2.43814C5.73716 2.01813 5.30358 1.85377 5.13545 2.15204Z" fill="#17627C"/>
<path d="M15.9308 6.82725C15.769 6.85036 15.33 6.93123 14.9487 7.00056C13.9782 7.17386 13.2734 7.49736 13.2734 7.77465C13.2734 8.05194 13.9667 8.39855 14.9487 8.61807C16.52 8.95312 19.6395 8.7336 20.6678 8.20213C21.3957 7.82086 20.8873 7.2894 19.5124 6.989C18.8539 6.85036 16.4276 6.73482 15.9308 6.82725Z" fill="#17627C"/>
<path d="M13.4586 9.09123C13.5857 10.0848 13.7359 11.2864 13.7359 11.3904C13.7359 11.4482 13.9323 11.5868 14.1865 11.7139C14.4291 11.841 14.7757 12.0721 14.9606 12.2223C15.2379 12.4533 15.4805 12.5111 16.2777 12.5804C17.3984 12.6729 19.1661 12.4996 20.0442 12.2223L20.6334 12.0374L20.7836 10.4315C20.8645 9.55337 20.9107 8.81394 20.8876 8.77928C20.8645 8.75617 20.5526 8.83705 20.1944 8.95258C18.7155 9.46094 15.6769 9.44939 14.1865 8.95258C13.8168 8.82549 13.4933 8.72151 13.4586 8.72151C13.424 8.72151 13.424 8.89482 13.4586 9.09123Z" fill="#17627C"/>
<path d="M7.78567 11.4845C7.18488 11.5885 6.65341 11.8773 6.37612 12.247C6.19127 12.5127 6.12194 12.5358 5.84466 12.4319C5.30163 12.2239 4.15782 12.2817 3.62635 12.5358C2.59808 13.0327 2.47099 14.292 3.39528 14.8928C3.86898 15.2047 6.44545 15.3434 10.2119 15.2625C13.6665 15.1932 15.2147 15.0545 15.3764 14.8235C15.5035 14.6155 15.492 13.8876 15.3533 13.5295C15.1685 13.0211 14.4521 12.3394 13.8167 12.0737C12.9848 11.704 11.7486 11.6347 10.7896 11.9004C10.0617 12.0968 10.0386 12.0968 9.73824 11.8542C9.57649 11.7271 9.25298 11.5885 9.01036 11.5422C8.77928 11.5076 8.51355 11.4614 8.42112 11.4383C8.32869 11.4267 8.03985 11.4498 7.78567 11.4845Z" fill="#17627C"/>
<path d="M19.7441 12.8452C19.409 12.9608 18.5887 13.0416 17.468 13.0763C15.5039 13.1456 15.2844 13.2843 16.5784 13.6309C17.4218 13.8619 17.8955 14.1739 17.8955 14.509C17.8955 15.4679 16.4859 16.8659 14.984 17.3974C14.7413 17.4782 14.5449 17.5938 14.5449 17.64C14.5449 17.6862 15.7696 17.7324 17.26 17.7324C18.7505 17.7324 19.9751 17.7093 19.9751 17.6747C19.9751 17.5245 20.4488 13.3536 20.5066 13.0185C20.5759 12.591 20.5297 12.5795 19.7441 12.8452Z" fill="#17627C"/>
<path d="M1.17796 14.1865C0.600279 14.4061 0.611833 14.4754 1.27039 14.6602C2.16002 14.9029 2.52974 14.9722 2.52974 14.9144C2.52974 14.8798 2.43731 14.6718 2.33333 14.4407C2.12536 13.9901 1.85963 13.9324 1.17796 14.1865Z" fill="#17627C"/>
<path d="M16.001 14.4073C15.9663 14.6037 15.9432 14.7771 15.9663 14.8002C16.0241 14.8579 17.0293 14.6037 17.1333 14.4998C17.2372 14.3958 16.9831 14.2571 16.3823 14.1185C16.105 14.0492 16.0703 14.0838 16.001 14.4073Z" fill="#17627C"/>
<path d="M0.911133 15.2843C0.911133 15.5269 1.9163 16.2895 2.80593 16.6938C4.66607 17.5604 6.84971 17.9185 9.69191 17.8145C11.6676 17.7337 12.7883 17.5719 14.0823 17.1444C15.4572 16.6823 16.6934 15.9429 16.9823 15.3998C17.1094 15.1688 17.0862 15.1572 16.7281 15.2381C13.0194 16.0468 5.18598 16.0468 1.2924 15.2381C1.06133 15.1919 0.911133 15.215 0.911133 15.2843Z" fill="#17627C"/>
<path d="M5.87988 18.2427C5.87988 18.2889 5.98387 18.5316 6.11096 18.7742L6.34203 19.2363H8.98781H11.622L11.83 18.7742C11.9455 18.52 12.0149 18.2889 11.9918 18.2658C11.9687 18.2427 11.5874 18.2774 11.1368 18.3351C10.2818 18.4622 6.4229 18.3929 6.08785 18.2543C5.97231 18.2081 5.87988 18.2081 5.87988 18.2427Z" fill="#17627C"/>
</svg>
