<svg width="20" height="23" viewBox="0 0 20 23" fill="none" xmlns="http://www.w3.org/2000/svg">
<path fill-rule="evenodd" clip-rule="evenodd" d="M17.4012 16.4948C17.3885 16.4916 17.3756 16.489 17.3627 16.4872L12.6923 15.8221V14.5467L13.5854 14.0591C13.6071 14.0472 13.6275 14.0332 13.6465 14.0174C13.9502 13.7658 14.1944 13.4507 14.3619 13.0944C14.5293 12.738 14.6159 12.3493 14.6154 11.9558V10.35H14.8077C15.113 10.3507 15.4095 10.2476 15.6482 10.0578C15.8869 9.86803 16.0536 9.60285 16.1208 9.30599C16.1879 9.00912 16.1516 8.6983 16.0178 8.42476C15.884 8.15121 15.6607 7.93128 15.3846 7.80122V6.51667C15.3832 6.3211 15.3703 6.12578 15.3462 5.9317C15.3707 5.88177 15.3838 5.82705 15.3846 5.77147V2.68333C15.3846 1.38728 13.2212 0 10 0C6.77885 0 4.61538 1.38728 4.61538 2.68333V5.77147C4.61618 5.82705 4.62931 5.88177 4.65385 5.9317C4.62966 6.12578 4.61682 6.3211 4.61538 6.51667V7.80122C4.33933 7.93128 4.11599 8.15121 3.98217 8.42476C3.84835 8.6983 3.81205 9.00912 3.87925 9.30599C3.94644 9.60285 4.11313 9.86803 4.35182 10.0578C4.59051 10.2476 4.88697 10.3507 5.19231 10.35H5.38462V11.9558C5.3841 12.3493 5.47066 12.738 5.63812 13.0944C5.80558 13.4507 6.04983 13.7658 6.35346 14.0174C6.37247 14.0332 6.39295 14.0472 6.41462 14.0591L7.30769 14.5467V15.8221L2.63769 16.4872C2.62474 16.489 2.6119 16.4916 2.59923 16.4948C0.971539 16.9004 0 18.0423 0 19.55V22.6167C0 22.7183 0.0405219 22.8158 0.112651 22.8877C0.184781 22.9596 0.282609 23 0.384615 23H19.6154C19.7174 23 19.8152 22.9596 19.8874 22.8877C19.9595 22.8158 20 22.7183 20 22.6167V19.55C20 18.0423 19.0285 16.9004 17.4012 16.4948ZM8.07692 16.4224C8.4564 16.6618 8.88686 16.8094 9.33385 16.8533L9.52615 17.4282C8.98809 17.3781 8.48025 17.1577 8.07692 16.7992V16.4224ZM10.4738 17.4282L10.6662 16.8533C11.1131 16.8094 11.5436 16.6618 11.9231 16.4224V16.7992C11.5197 17.1577 11.0119 17.3781 10.4738 17.4282ZM13.925 5.39465C14.1569 5.51798 14.3704 5.67279 14.5596 5.85465C14.5946 6.07364 14.6133 6.29492 14.6154 6.51667V7.66667H14.5269L13.925 5.39465ZM5.38462 2.68333C5.38462 1.9205 7.22538 0.766667 10 0.766667C12.7746 0.766667 14.6154 1.9205 14.6154 2.68333V4.91817C14.2542 4.68489 13.8655 4.49692 13.4581 4.3585C13.4334 4.34657 13.4077 4.33707 13.3812 4.33013C12.2886 3.98279 11.1466 3.815 10 3.83333C8.77489 3.80866 7.55528 4.00342 6.39923 4.40833C6.39454 4.40976 6.38991 4.41143 6.38538 4.41332C6.03394 4.54386 5.69826 4.7132 5.38462 4.91817V2.68333ZM5.45808 7.66667H5.38462V6.51667C5.38678 6.29531 5.40542 6.07441 5.44038 5.8558C5.58757 5.71311 5.75069 5.5877 5.92654 5.48205L5.45808 7.66667ZM5.19231 9.58333C5.0393 9.58333 4.89256 9.52275 4.78436 9.41492C4.67617 9.30709 4.61538 9.16083 4.61538 9.00833C4.61538 8.85583 4.67617 8.70958 4.78436 8.60175C4.89256 8.49391 5.0393 8.43333 5.19231 8.43333H5.76923C5.81723 8.43271 5.8647 8.42322 5.90923 8.40535C5.96728 8.38082 6.01883 8.34319 6.05981 8.29543C6.10079 8.24767 6.13008 8.19108 6.14538 8.13012L6.69231 5.58057C6.70769 5.52575 6.72538 5.4372 6.74462 5.33792L6.74603 5.33082C6.7596 5.26278 6.78106 5.15523 6.8 5.07342C7.83306 4.74034 8.91441 4.58037 10 4.6C11.0193 4.58506 12.0351 4.72399 13.0127 5.01208C13.0296 5.06613 13.0473 5.12708 13.0638 5.1842C13.09 5.2716 13.1138 5.35018 13.1304 5.39733L13.8588 8.14775C13.8604 8.15361 13.8631 8.15874 13.8659 8.16382C13.868 8.16771 13.87 8.17158 13.8715 8.17573C13.8986 8.2496 13.9474 8.31364 14.0114 8.35958C14.0755 8.40551 14.1519 8.4312 14.2308 8.43333H14.8077C14.9607 8.43333 15.1074 8.49391 15.2156 8.60175C15.3238 8.70958 15.3846 8.85583 15.3846 9.00833C15.3846 9.16083 15.3238 9.30709 15.2156 9.41492C15.1074 9.52275 14.9607 9.58333 14.8077 9.58333H14.6154V9.2C14.6154 9.09833 14.5749 9.00083 14.5027 8.92894C14.4306 8.85705 14.3328 8.81667 14.2308 8.81667C14.1288 8.81667 14.0309 8.85705 13.9588 8.92894C13.8867 9.00083 13.8462 9.09833 13.8462 9.2V9.83212L12.5077 11.5H7.49231L6.15385 9.83212V9.2C6.15385 9.09833 6.11332 9.00083 6.0412 8.92894C5.96907 8.85705 5.87124 8.81667 5.76923 8.81667C5.66722 8.81667 5.5694 8.85705 5.49727 8.92894C5.42514 9.00083 5.38462 9.09833 5.38462 9.2V9.58333H5.19231ZM8.22346 15.047C8.56778 15.2345 8.95379 15.333 9.34615 15.3333H10.6538C11.046 15.3328 11.4317 15.2344 11.7758 15.047L11.9231 14.9669V15.4357C11.7258 15.6453 11.4874 15.8123 11.2229 15.9266C10.9583 16.0408 10.673 16.0999 10.3846 16.1C10.3039 16.1 10.2251 16.1253 10.1596 16.1724C10.0941 16.2194 10.0451 16.2858 10.0196 16.3622L10 16.4212L9.98038 16.3622C9.95487 16.2858 9.90588 16.2194 9.84037 16.1724C9.77485 16.1253 9.69614 16.1 9.61539 16.1C9.32702 16.0999 9.04174 16.0408 8.77715 15.9266C8.51255 15.8123 8.27424 15.6453 8.07692 15.4357V14.9669L8.22346 15.047ZM8.84615 19.9333C8.94816 19.9333 9.04599 19.8929 9.11812 19.8211C9.19025 19.7492 9.23077 19.6517 9.23077 19.55V19.1667C9.23077 19.065 9.19025 18.9675 9.11812 18.8956C9.04599 18.8237 8.94816 18.7833 8.84615 18.7833C8.74415 18.7833 8.64632 18.8237 8.57419 18.8956C8.50206 18.9675 8.46154 19.065 8.46154 19.1667V19.55C8.46154 19.6517 8.50206 19.7492 8.57419 19.8211C8.64632 19.8929 8.74415 19.9333 8.84615 19.9333ZM9.11812 21.7377C9.04599 21.8096 8.94816 21.85 8.84615 21.85C8.74415 21.85 8.64632 21.8096 8.57419 21.7377C8.50206 21.6658 8.46154 21.5683 8.46154 21.4667V21.0833C8.46154 20.9817 8.50206 20.8842 8.57419 20.8123C8.64632 20.7404 8.74415 20.7 8.84615 20.7C8.94816 20.7 9.04599 20.7404 9.11812 20.8123C9.19025 20.8842 9.23077 20.9817 9.23077 21.0833V21.4667C9.23077 21.5683 9.19025 21.6658 9.11812 21.7377Z" fill="#4C7380"/>
<path d="M13.925 5.39465C14.1569 5.51798 14.3704 5.67279 14.5596 5.85465C14.5946 6.07364 14.6133 6.29492 14.6154 6.51667V7.66667H14.5269L13.925 5.39465Z" fill="#4C7380"/>
<path d="M5.45808 7.66667H5.38462V6.51667C5.38678 6.29531 5.40542 6.07441 5.44038 5.8558C5.58757 5.71311 5.75069 5.5877 5.92654 5.48205L5.45808 7.66667Z" fill="#4C7380"/>
</svg>
