<svg width="411" height="180" viewBox="0 0 411 180" fill="none" xmlns="http://www.w3.org/2000/svg">
<rect x="3.5" y="30.875" width="404" height="148.625" fill="white" stroke="#585858"/>
<g filter="url(#filter0_d_1951_2271)">
<rect x="4.125" y="129.375" width="402.75" height="23.625" fill="#8FCAD3"/>
</g>
<rect x="3" width="405" height="28.125" fill="#305055"/>
<line x1="83.375" y1="31.5" x2="83.375" y2="180" stroke="#585858"/>
<line x1="137.375" y1="31.5" x2="137.375" y2="180" stroke="#585858"/>
<line x1="191.375" y1="31.5" x2="191.375" y2="180" stroke="#585858"/>
<line x1="245.375" y1="31.5" x2="245.375" y2="180" stroke="#585858"/>
<line x1="299.375" y1="31.5" x2="299.375" y2="180" stroke="#585858"/>
<line x1="353.375" y1="31.5" x2="353.375" y2="180" stroke="#585858"/>
<line x1="3" y1="53.5" x2="408" y2="53.5" stroke="#585858"/>
<line x1="3" y1="78.25" x2="408" y2="78.25" stroke="#585858"/>
<line x1="3" y1="104.125" x2="408" y2="104.125" stroke="#585858"/>
<line x1="3" y1="128.875" x2="408" y2="128.875" stroke="#585858"/>
<line x1="3" y1="153.625" x2="408" y2="153.625" stroke="#585858"/>
<path d="M33.4673 44.875V37.6023H38.1264V38.7067H34.7848V40.6811H37.8068V41.7855H34.7848V44.875H33.4673ZM40.7907 44.9851C40.445 44.9851 40.1337 44.9235 39.8567 44.8004C39.5821 44.675 39.3643 44.4903 39.2033 44.2464C39.0447 44.0026 38.9654 43.7019 38.9654 43.3445C38.9654 43.0367 39.0222 42.7822 39.1358 42.581C39.2495 42.3797 39.4045 42.2188 39.601 42.098C39.7975 41.9773 40.0189 41.8861 40.2651 41.8246C40.5137 41.7607 40.7705 41.7145 41.0357 41.6861C41.3553 41.6529 41.6145 41.6233 41.8134 41.5973C42.0123 41.5689 42.1567 41.5263 42.2466 41.4695C42.339 41.4103 42.3851 41.3191 42.3851 41.196V41.1747C42.3851 40.9072 42.3058 40.7 42.1472 40.5533C41.9886 40.4065 41.7601 40.3331 41.4618 40.3331C41.147 40.3331 40.8972 40.4018 40.7125 40.5391C40.5302 40.6764 40.4071 40.8385 40.3432 41.0256L39.1429 40.8551C39.2376 40.5237 39.3939 40.2467 39.6117 40.0241C39.8295 39.7992 40.0958 39.6312 40.4107 39.5199C40.7256 39.4062 41.0736 39.3494 41.4547 39.3494C41.7175 39.3494 41.9791 39.3802 42.2395 39.4418C42.4999 39.5033 42.7379 39.6051 42.9533 39.7472C43.1687 39.8868 43.3416 40.0774 43.4718 40.3189C43.6043 40.5604 43.6706 40.8622 43.6706 41.2244V44.875H42.4348V44.1257H42.3922C42.3141 44.2772 42.204 44.4193 42.062 44.5518C41.9223 44.6821 41.7459 44.7874 41.5328 44.8679C41.3221 44.946 41.0748 44.9851 40.7907 44.9851ZM41.1245 44.0405C41.3825 44.0405 41.6062 43.9896 41.7956 43.8878C41.985 43.7836 42.1306 43.6463 42.2324 43.4759C42.3366 43.3054 42.3887 43.1196 42.3887 42.9183V42.2756C42.3484 42.3087 42.2798 42.3395 42.1827 42.3679C42.088 42.3963 41.9815 42.4212 41.8631 42.4425C41.7447 42.4638 41.6275 42.4827 41.5115 42.4993C41.3955 42.5159 41.2949 42.5301 41.2097 42.5419C41.0179 42.5679 40.8463 42.6106 40.6948 42.6697C40.5433 42.7289 40.4237 42.8118 40.3361 42.9183C40.2485 43.0225 40.2047 43.1574 40.2047 43.3232C40.2047 43.5599 40.2911 43.7386 40.464 43.8594C40.6368 43.9801 40.8569 44.0405 41.1245 44.0405ZM44.9632 39.4205H46.2488V45.1875C46.2488 45.5805 46.1742 45.9048 46.025 46.1605C45.8759 46.4162 45.6605 46.6068 45.3787 46.7322C45.097 46.8577 44.7549 46.9205 44.3525 46.9205C44.3051 46.9205 44.2613 46.9193 44.2211 46.9169C44.1808 46.9169 44.137 46.9157 44.0897 46.9134V45.8658C44.1252 45.8681 44.1571 45.8693 44.1855 45.8693C44.214 45.8717 44.2435 45.8729 44.2743 45.8729C44.5205 45.8729 44.6969 45.8125 44.8034 45.6918C44.91 45.5734 44.9632 45.3994 44.9632 45.1697V39.4205ZM45.6025 38.6463C45.3965 38.6463 45.2201 38.5788 45.0733 38.4439C44.9289 38.3066 44.8567 38.142 44.8567 37.9503C44.8567 37.7562 44.9289 37.5916 45.0733 37.4567C45.2201 37.3194 45.3965 37.2507 45.6025 37.2507C45.806 37.2507 45.9801 37.3194 46.1245 37.4567C46.2712 37.5916 46.3446 37.7562 46.3446 37.9503C46.3446 38.142 46.2712 38.3066 46.1245 38.4439C45.9801 38.5788 45.806 38.6463 45.6025 38.6463ZM47.5707 44.875V39.4205H48.8171V40.3295H48.8739C48.9734 40.0147 49.1438 39.772 49.3853 39.6016C49.6291 39.4287 49.9073 39.3423 50.2198 39.3423C50.2908 39.3423 50.3701 39.3459 50.4577 39.353C50.5477 39.3577 50.6223 39.366 50.6815 39.3778V40.5604C50.627 40.5414 50.5406 40.5249 50.4222 40.5107C50.3062 40.4941 50.1938 40.4858 50.0849 40.4858C49.8505 40.4858 49.6398 40.5367 49.4528 40.6385C49.2681 40.7379 49.1225 40.8764 49.016 41.054C48.9094 41.2315 48.8562 41.4363 48.8562 41.6683V44.875H47.5707Z" fill="#305055"/>
<path d="M108.91 44.875V43.6108L111.563 41.2884C111.762 41.1084 111.931 40.9439 112.071 40.7947C112.21 40.6432 112.317 40.4917 112.39 40.3402C112.464 40.1863 112.5 40.0194 112.5 39.8395C112.5 39.6383 112.457 39.4666 112.369 39.3246C112.281 39.1802 112.161 39.0689 112.007 38.9908C111.853 38.9126 111.677 38.8736 111.478 38.8736C111.276 38.8736 111.1 38.915 110.949 38.9979C110.797 39.0784 110.679 39.1955 110.593 39.3494C110.511 39.5033 110.469 39.6903 110.469 39.9105H108.804C108.804 39.4157 108.915 38.9884 109.138 38.6286C109.36 38.2687 109.673 37.9917 110.075 37.7976C110.48 37.6011 110.95 37.5028 111.485 37.5028C112.036 37.5028 112.516 37.5952 112.923 37.7798C113.33 37.9645 113.645 38.2225 113.868 38.554C114.093 38.883 114.205 39.2654 114.205 39.701C114.205 39.978 114.149 40.2526 114.038 40.5249C113.927 40.7971 113.727 41.0978 113.438 41.4268C113.151 41.7559 112.744 42.1501 112.216 42.6094L111.346 43.4119V43.4581H114.294V44.875H108.91Z" fill="#232323"/>
<path d="M161.785 44.875V43.6108L164.438 41.2884C164.637 41.1084 164.806 40.9439 164.946 40.7947C165.085 40.6432 165.192 40.4917 165.265 40.3402C165.339 40.1863 165.375 40.0194 165.375 39.8395C165.375 39.6383 165.332 39.4666 165.244 39.3246C165.156 39.1802 165.036 39.0689 164.882 38.9908C164.728 38.9126 164.552 38.8736 164.353 38.8736C164.151 38.8736 163.975 38.915 163.824 38.9979C163.672 39.0784 163.554 39.1955 163.468 39.3494C163.386 39.5033 163.344 39.6903 163.344 39.9105H161.679C161.679 39.4157 161.79 38.9884 162.013 38.6286C162.235 38.2687 162.548 37.9917 162.95 37.7976C163.355 37.6011 163.825 37.5028 164.36 37.5028C164.911 37.5028 165.391 37.5952 165.798 37.7798C166.205 37.9645 166.52 38.2225 166.743 38.554C166.968 38.883 167.08 39.2654 167.08 39.701C167.08 39.978 167.024 40.2526 166.913 40.5249C166.802 40.7971 166.602 41.0978 166.313 41.4268C166.026 41.7559 165.619 42.1501 165.091 42.6094L164.221 43.4119V43.4581H167.169V44.875H161.785Z" fill="#232323"/>
<path d="M218.995 41.2635V42.6023H215.629V41.2635H218.995Z" fill="#232323"/>
<path d="M275.245 41.2635V42.6023H271.879V41.2635H275.245Z" fill="#232323"/>
<path d="M328.12 41.2635V42.6023H324.754V41.2635H328.12Z" fill="#232323"/>
<path d="M383.245 41.2635V42.6023H379.879V41.2635H383.245Z" fill="#232323"/>
<path d="M30.7765 69.625H28.3121V62.3523H30.8263C31.5483 62.3523 32.1686 62.4979 32.6871 62.7891C33.2079 63.0779 33.608 63.4934 33.8873 64.0355C34.1667 64.5777 34.3064 65.2263 34.3064 65.9815C34.3064 66.7391 34.1655 67.3902 33.8838 67.9347C33.6044 68.4792 33.2008 68.897 32.6729 69.1882C32.1473 69.4794 31.5152 69.625 30.7765 69.625ZM29.6295 68.4851H30.7126C31.2193 68.4851 31.6418 68.3928 31.9804 68.2081C32.3189 68.0211 32.5734 67.7429 32.7439 67.3736C32.9143 67.0019 32.9996 66.5379 32.9996 65.9815C32.9996 65.4252 32.9143 64.9635 32.7439 64.5966C32.5734 64.2273 32.3213 63.9515 31.9875 63.7692C31.656 63.5845 31.2441 63.4922 30.7517 63.4922H29.6295V68.4851ZM36.7868 66.429V69.625H35.5013V62.3523H36.7584V65.0973H36.8224C36.9502 64.7895 37.1479 64.5469 37.4154 64.3693C37.6853 64.1894 38.0286 64.0994 38.4452 64.0994C38.824 64.0994 39.1543 64.1787 39.436 64.3374C39.7177 64.496 39.9355 64.728 40.0894 65.0334C40.2457 65.3388 40.3238 65.7116 40.3238 66.152V69.625H39.0383V66.3509C39.0383 65.9839 38.9436 65.6986 38.7542 65.495C38.5671 65.2891 38.3044 65.1861 37.9658 65.1861C37.7385 65.1861 37.5349 65.2358 37.355 65.3352C37.1775 65.4323 37.0378 65.5732 36.936 65.7578C36.8366 65.9425 36.7868 66.1662 36.7868 66.429ZM45.1107 67.331V64.1705H46.3962V69.625H45.1498V68.6555H45.093C44.9698 68.9609 44.7674 69.2107 44.4857 69.4048C44.2064 69.599 43.8619 69.696 43.4523 69.696C43.0948 69.696 42.7788 69.6167 42.5042 69.4581C42.2319 69.2971 42.0189 69.0639 41.865 68.7585C41.7111 68.4508 41.6341 68.0791 41.6341 67.6435V64.1705H42.9197V67.4446C42.9197 67.7902 43.0144 68.0649 43.2037 68.2685C43.3931 68.4721 43.6417 68.5739 43.9495 68.5739C44.1389 68.5739 44.3224 68.5277 44.4999 68.4354C44.6775 68.343 44.8231 68.2057 44.9367 68.0234C45.0527 67.8388 45.1107 67.608 45.1107 67.331ZM49.0036 66.429V69.625H47.7181V62.3523H48.9752V65.0973H49.0392C49.167 64.7895 49.3647 64.5469 49.6322 64.3693C49.9021 64.1894 50.2454 64.0994 50.662 64.0994C51.0408 64.0994 51.3711 64.1787 51.6528 64.3374C51.9345 64.496 52.1523 64.728 52.3062 65.0334C52.4624 65.3388 52.5406 65.7116 52.5406 66.152V69.625H51.2551V66.3509C51.2551 65.9839 51.1604 65.6986 50.971 65.495C50.7839 65.2891 50.5212 65.1861 50.1826 65.1861C49.9553 65.1861 49.7517 65.2358 49.5718 65.3352C49.3943 65.4323 49.2546 65.5732 49.1528 65.7578C49.0534 65.9425 49.0036 66.1662 49.0036 66.429ZM53.8509 69.625V64.1705H55.0974V65.0795H55.1542C55.2536 64.7647 55.4241 64.522 55.6656 64.3516C55.9094 64.1787 56.1876 64.0923 56.5001 64.0923C56.5711 64.0923 56.6504 64.0959 56.738 64.103C56.828 64.1077 56.9026 64.116 56.9617 64.1278V65.3104C56.9073 65.2914 56.8209 65.2749 56.7025 65.2607C56.5865 65.2441 56.474 65.2358 56.3651 65.2358C56.1308 65.2358 55.9201 65.2867 55.733 65.3885C55.5484 65.4879 55.4028 65.6264 55.2963 65.804C55.1897 65.9815 55.1365 66.1863 55.1365 66.4183V69.625H53.8509Z" fill="#305055"/>
<path d="M108.563 68.4176V67.0469L111.542 62.3523H112.76V64.2131H112.053L110.31 66.9759V67.0327H114.624V68.4176H108.563ZM112.075 69.625V67.9986L112.11 67.3984V62.3523H113.754V69.625H112.075Z" fill="#232323"/>
<path d="M161.438 68.4176V67.0469L164.417 62.3523H165.635V64.2131H164.928L163.185 66.9759V67.0327H167.499V68.4176H161.438ZM164.95 69.625V67.9986L164.985 67.3984V62.3523H166.629V69.625H164.95Z" fill="#232323"/>
<path d="M214.66 69.625V68.3608L217.313 66.0384C217.512 65.8584 217.681 65.6939 217.821 65.5447C217.96 65.3932 218.067 65.2417 218.14 65.0902C218.214 64.9363 218.25 64.7694 218.25 64.5895C218.25 64.3883 218.207 64.2166 218.119 64.0746C218.031 63.9302 217.911 63.8189 217.757 63.7408C217.603 63.6626 217.427 63.6236 217.228 63.6236C217.026 63.6236 216.85 63.665 216.699 63.7479C216.547 63.8284 216.429 63.9455 216.343 64.0994C216.261 64.2533 216.219 64.4403 216.219 64.6605H214.554C214.554 64.1657 214.665 63.7384 214.888 63.3786C215.11 63.0187 215.423 62.7417 215.825 62.5476C216.23 62.3511 216.7 62.2528 217.235 62.2528C217.786 62.2528 218.266 62.3452 218.673 62.5298C219.08 62.7145 219.395 62.9725 219.618 63.304C219.843 63.633 219.955 64.0154 219.955 64.451C219.955 64.728 219.899 65.0026 219.788 65.2749C219.677 65.5471 219.477 65.8478 219.188 66.1768C218.901 66.5059 218.494 66.9001 217.966 67.3594L217.096 68.1619V68.2081H220.044V69.625H214.66Z" fill="#232323"/>
<path d="M270.91 69.625V68.3608L273.563 66.0384C273.762 65.8584 273.931 65.6939 274.071 65.5447C274.21 65.3932 274.317 65.2417 274.39 65.0902C274.464 64.9363 274.5 64.7694 274.5 64.5895C274.5 64.3883 274.457 64.2166 274.369 64.0746C274.281 63.9302 274.161 63.8189 274.007 63.7408C273.853 63.6626 273.677 63.6236 273.478 63.6236C273.276 63.6236 273.1 63.665 272.949 63.7479C272.797 63.8284 272.679 63.9455 272.593 64.0994C272.511 64.2533 272.469 64.4403 272.469 64.6605H270.804C270.804 64.1657 270.915 63.7384 271.138 63.3786C271.36 63.0187 271.673 62.7417 272.075 62.5476C272.48 62.3511 272.95 62.2528 273.485 62.2528C274.036 62.2528 274.516 62.3452 274.923 62.5298C275.33 62.7145 275.645 62.9725 275.868 63.304C276.093 63.633 276.205 64.0154 276.205 64.451C276.205 64.728 276.149 65.0026 276.038 65.2749C275.927 65.5471 275.727 65.8478 275.438 66.1768C275.151 66.5059 274.744 66.9001 274.216 67.3594L273.346 68.1619V68.2081H276.294V69.625H270.91Z" fill="#232323"/>
<path d="M328.12 66.0135V67.3523H324.754V66.0135H328.12Z" fill="#232323"/>
<path d="M383.245 66.0135V67.3523H379.879V66.0135H383.245Z" fill="#232323"/>
<path d="M35.163 94.375H33.7567L36.3171 87.1023H37.9435L40.5075 94.375H39.1012L37.1587 88.5938H37.1019L35.163 94.375ZM35.2092 91.5234H39.0444V92.5817H35.2092V91.5234ZM45.6317 90.3622L44.4599 90.4901C44.4267 90.3717 44.3687 90.2604 44.2859 90.1562C44.2054 90.0521 44.0965 89.968 43.9592 89.9041C43.8219 89.8402 43.6538 89.8082 43.4549 89.8082C43.1874 89.8082 42.9625 89.8662 42.7802 89.9822C42.6003 90.0982 42.5115 90.2486 42.5138 90.4332C42.5115 90.5919 42.5695 90.7209 42.6879 90.8203C42.8086 90.9197 43.0075 91.0014 43.2844 91.0653L44.2148 91.2642C44.7309 91.3755 45.1145 91.5518 45.3654 91.7933C45.6187 92.0348 45.7466 92.3509 45.7489 92.7415C45.7466 93.0848 45.646 93.3878 45.4471 93.6506C45.2506 93.911 44.9772 94.1146 44.6268 94.2614C44.2764 94.4081 43.8739 94.4815 43.4194 94.4815C42.7518 94.4815 42.2144 94.3419 41.8072 94.0625C41.4 93.7808 41.1573 93.389 41.0792 92.8871L42.3327 92.7663C42.3896 93.0125 42.5103 93.1984 42.695 93.3239C42.8796 93.4493 43.1199 93.5121 43.4158 93.5121C43.7212 93.5121 43.9663 93.4493 44.1509 93.3239C44.3379 93.1984 44.4315 93.0433 44.4315 92.8587C44.4315 92.7024 44.3711 92.5734 44.2504 92.4716C44.132 92.3698 43.9473 92.2917 43.6964 92.2372L42.766 92.0419C42.2428 91.933 41.8557 91.7495 41.6048 91.4915C41.3538 91.2311 41.2295 90.902 41.2319 90.5043C41.2295 90.1681 41.3207 89.8769 41.5053 89.6307C41.6924 89.3821 41.9516 89.1903 42.283 89.0554C42.6168 88.9181 43.0015 88.8494 43.4371 88.8494C44.0763 88.8494 44.5794 88.9856 44.9464 89.2578C45.3157 89.5301 45.5442 89.8982 45.6317 90.3622ZM46.8089 94.375V88.9205H48.0554V89.8295H48.1122C48.2116 89.5147 48.3821 89.272 48.6236 89.1016C48.8674 88.9287 49.1456 88.8423 49.4581 88.8423C49.5291 88.8423 49.6084 88.8459 49.696 88.853C49.786 88.8577 49.8606 88.866 49.9197 88.8778V90.0604C49.8653 90.0414 49.7789 90.0249 49.6605 90.0107C49.5445 89.9941 49.4321 89.9858 49.3232 89.9858C49.0888 89.9858 48.8781 90.0367 48.6911 90.1385C48.5064 90.2379 48.3608 90.3764 48.2543 90.554C48.1477 90.7315 48.0945 90.9363 48.0945 91.1683V94.375H46.8089Z" fill="#305055"/>
<path d="M108.563 93.1676V91.7969L111.542 87.1023H112.76V88.9631H112.053L110.31 91.7259V91.7827H114.624V93.1676H108.563ZM112.075 94.375V92.7486L112.11 92.1484V87.1023H113.754V94.375H112.075Z" fill="#232323"/>
<path d="M161.438 93.1676V91.7969L164.417 87.1023H165.635V88.9631H164.928L163.185 91.7259V91.7827H167.499V93.1676H161.438ZM164.95 94.375V92.7486L164.985 92.1484V87.1023H166.629V94.375H164.95Z" fill="#232323"/>
<path d="M218.995 90.7635V92.1023H215.629V90.7635H218.995Z" fill="#232323"/>
<path d="M275.245 90.7635V92.1023H271.879V90.7635H275.245Z" fill="#232323"/>
<path d="M328.12 90.7635V92.1023H324.754V90.7635H328.12Z" fill="#232323"/>
<path d="M383.245 90.7635V92.1023H379.879V90.7635H383.245Z" fill="#232323"/>
<path d="M22.5005 111.852H24.1127L26.2718 117.122H26.3571L28.5162 111.852H30.1284V119.125H28.8642V114.129H28.7967L26.7868 119.104H25.8422L23.8322 114.118H23.7647V119.125H22.5005V111.852ZM33.0758 119.235C32.7302 119.235 32.4189 119.174 32.1419 119.05C31.8672 118.925 31.6494 118.74 31.4885 118.496C31.3298 118.253 31.2505 117.952 31.2505 117.594C31.2505 117.287 31.3074 117.032 31.421 116.831C31.5346 116.63 31.6897 116.469 31.8862 116.348C32.0827 116.227 32.304 116.136 32.5502 116.075C32.7988 116.011 33.0557 115.964 33.3208 115.936C33.6404 115.903 33.8997 115.873 34.0985 115.847C34.2974 115.819 34.4418 115.776 34.5318 115.719C34.6241 115.66 34.6703 115.569 34.6703 115.446V115.425C34.6703 115.157 34.591 114.95 34.4324 114.803C34.2737 114.656 34.0453 114.583 33.747 114.583C33.4321 114.583 33.1824 114.652 32.9977 114.789C32.8154 114.926 32.6923 115.089 32.6284 115.276L31.4281 115.105C31.5228 114.774 31.679 114.497 31.8968 114.274C32.1146 114.049 32.381 113.881 32.6958 113.77C33.0107 113.656 33.3587 113.599 33.7399 113.599C34.0027 113.599 34.2643 113.63 34.5247 113.692C34.7851 113.753 35.023 113.855 35.2385 113.997C35.4539 114.137 35.6267 114.327 35.7569 114.569C35.8895 114.81 35.9558 115.112 35.9558 115.474V119.125H34.72V118.376H34.6774C34.5993 118.527 34.4892 118.669 34.3471 118.802C34.2074 118.932 34.0311 119.037 33.818 119.118C33.6073 119.196 33.3599 119.235 33.0758 119.235ZM33.4096 118.29C33.6677 118.29 33.8914 118.24 34.0808 118.138C34.2702 118.034 34.4158 117.896 34.5176 117.726C34.6217 117.555 34.6738 117.37 34.6738 117.168V116.526C34.6336 116.559 34.5649 116.589 34.4679 116.618C34.3732 116.646 34.2666 116.671 34.1483 116.692C34.0299 116.714 33.9127 116.733 33.7967 116.749C33.6807 116.766 33.5801 116.78 33.4949 116.792C33.3031 116.818 33.1315 116.861 32.9799 116.92C32.8284 116.979 32.7089 117.062 32.6213 117.168C32.5337 117.272 32.4899 117.407 32.4899 117.573C32.4899 117.81 32.5763 117.989 32.7491 118.109C32.9219 118.23 33.1421 118.29 33.4096 118.29ZM39.6206 121.284C39.1589 121.284 38.7624 121.221 38.4309 121.096C38.0995 120.973 37.8332 120.807 37.6319 120.599C37.4307 120.39 37.291 120.16 37.2129 119.906L38.3706 119.626C38.4226 119.732 38.4984 119.838 38.5978 119.942C38.6973 120.048 38.831 120.136 38.9991 120.205C39.1696 120.276 39.3838 120.311 39.6419 120.311C40.0065 120.311 40.3083 120.222 40.5474 120.045C40.7865 119.87 40.9061 119.581 40.9061 119.178V118.145H40.8422C40.7759 118.277 40.6788 118.414 40.551 118.553C40.4255 118.693 40.2586 118.81 40.0502 118.905C39.8443 119 39.585 119.047 39.2725 119.047C38.8535 119.047 38.4735 118.949 38.1326 118.752C37.7941 118.553 37.5242 118.257 37.323 117.864C37.1241 117.469 37.0247 116.974 37.0247 116.38C37.0247 115.781 37.1241 115.276 37.323 114.864C37.5242 114.449 37.7953 114.136 38.1362 113.923C38.4771 113.707 38.8571 113.599 39.2761 113.599C39.5957 113.599 39.8585 113.654 40.0645 113.763C40.2728 113.869 40.4385 113.998 40.5616 114.15C40.6847 114.299 40.7782 114.44 40.8422 114.572H40.9132V113.67H42.1809V119.214C42.1809 119.68 42.0697 120.066 41.8471 120.371C41.6246 120.677 41.3204 120.905 40.9345 121.057C40.5486 121.208 40.1106 121.284 39.6206 121.284ZM39.6312 118.038C39.9035 118.038 40.1355 117.972 40.3272 117.839C40.519 117.707 40.6646 117.516 40.764 117.268C40.8635 117.019 40.9132 116.721 40.9132 116.373C40.9132 116.03 40.8635 115.729 40.764 115.471C40.667 115.213 40.5225 115.013 40.3308 114.871C40.1414 114.726 39.9082 114.654 39.6312 114.654C39.3448 114.654 39.1056 114.729 38.9139 114.878C38.7221 115.027 38.5777 115.232 38.4806 115.492C38.3836 115.75 38.335 116.044 38.335 116.373C38.335 116.707 38.3836 116.999 38.4806 117.25C38.5801 117.499 38.7257 117.693 38.9174 117.832C39.1116 117.97 39.3495 118.038 39.6312 118.038ZM44.7839 115.929V119.125H43.4984V111.852H44.7555V114.597H44.8194C44.9473 114.29 45.1449 114.047 45.4125 113.869C45.6824 113.689 46.0256 113.599 46.4423 113.599C46.8211 113.599 47.1513 113.679 47.4331 113.837C47.7148 113.996 47.9326 114.228 48.0865 114.533C48.2427 114.839 48.3208 115.212 48.3208 115.652V119.125H47.0353V115.851C47.0353 115.484 46.9406 115.199 46.7512 114.995C46.5642 114.789 46.3014 114.686 45.9629 114.686C45.7356 114.686 45.532 114.736 45.3521 114.835C45.1745 114.932 45.0349 115.073 44.9331 115.258C44.8336 115.442 44.7839 115.666 44.7839 115.929ZM49.6312 119.125V113.67H50.8777V114.58H50.9345C51.0339 114.265 51.2044 114.022 51.4458 113.852C51.6897 113.679 51.9679 113.592 52.2804 113.592C52.3514 113.592 52.4307 113.596 52.5183 113.603C52.6083 113.608 52.6828 113.616 52.742 113.628V114.81C52.6876 114.791 52.6011 114.775 52.4828 114.761C52.3668 114.744 52.2543 114.736 52.1454 114.736C51.911 114.736 51.7003 114.787 51.5133 114.888C51.3287 114.988 51.1831 115.126 51.0765 115.304C50.97 115.482 50.9167 115.686 50.9167 115.918V119.125H49.6312ZM53.5961 119.125V113.67H54.8816V119.125H53.5961ZM54.2424 112.896C54.0388 112.896 53.8636 112.829 53.7168 112.694C53.57 112.557 53.4966 112.392 53.4966 112.2C53.4966 112.006 53.57 111.842 53.7168 111.707C53.8636 111.569 54.0388 111.501 54.2424 111.501C54.4483 111.501 54.6235 111.569 54.7679 111.707C54.9147 111.842 54.9881 112.006 54.9881 112.2C54.9881 112.392 54.9147 112.557 54.7679 112.694C54.6235 112.829 54.4483 112.896 54.2424 112.896ZM56.2603 119.125V111.852H57.5458V114.572H57.5991C57.6654 114.44 57.7589 114.299 57.8796 114.15C58.0004 113.998 58.1637 113.869 58.3697 113.763C58.5756 113.654 58.8384 113.599 59.158 113.599C59.5794 113.599 59.9594 113.707 60.2979 113.923C60.6388 114.136 60.9087 114.452 61.1076 114.871C61.3088 115.287 61.4094 115.799 61.4094 116.405C61.4094 117.004 61.3112 117.513 61.1147 117.932C60.9182 118.351 60.6507 118.67 60.3121 118.891C59.9736 119.111 59.5901 119.221 59.1616 119.221C58.8491 119.221 58.5898 119.169 58.3839 119.065C58.1779 118.96 58.0122 118.835 57.8867 118.688C57.7636 118.539 57.6677 118.398 57.5991 118.266H57.5245V119.125H56.2603ZM57.521 116.398C57.521 116.75 57.5707 117.059 57.6701 117.325C57.7719 117.59 57.9175 117.797 58.1069 117.946C58.2987 118.093 58.5307 118.166 58.8029 118.166C59.087 118.166 59.3249 118.09 59.5167 117.939C59.7085 117.785 59.8529 117.576 59.9499 117.31C60.0494 117.043 60.0991 116.739 60.0991 116.398C60.0991 116.059 60.0505 115.759 59.9535 115.496C59.8564 115.233 59.712 115.027 59.5202 114.878C59.3285 114.729 59.0894 114.654 58.8029 114.654C58.5283 114.654 58.2951 114.726 58.1033 114.871C57.9116 115.015 57.766 115.218 57.6665 115.478C57.5695 115.738 57.521 116.045 57.521 116.398Z" fill="#305055"/>
<path d="M113.245 115.513V116.852H109.879V115.513H113.245Z" fill="#232323"/>
<path d="M164.405 119.224C163.851 119.224 163.36 119.13 162.931 118.94C162.505 118.749 162.169 118.485 161.923 118.148C161.677 117.812 161.551 117.425 161.546 116.987H163.315C163.322 117.146 163.373 117.287 163.468 117.41C163.562 117.531 163.691 117.625 163.855 117.694C164.018 117.763 164.204 117.797 164.412 117.797C164.621 117.797 164.804 117.76 164.963 117.687C165.124 117.611 165.249 117.508 165.339 117.378C165.429 117.245 165.473 117.094 165.47 116.923C165.473 116.753 165.424 116.601 165.325 116.469C165.225 116.336 165.085 116.233 164.902 116.16C164.722 116.086 164.509 116.05 164.263 116.05H163.556V114.8H164.263C164.478 114.8 164.668 114.764 164.831 114.693C164.997 114.622 165.126 114.523 165.218 114.395C165.311 114.265 165.356 114.116 165.353 113.947C165.356 113.784 165.317 113.641 165.236 113.518C165.158 113.392 165.048 113.295 164.906 113.227C164.766 113.158 164.604 113.124 164.419 113.124C164.225 113.124 164.049 113.158 163.89 113.227C163.734 113.295 163.61 113.392 163.517 113.518C163.425 113.643 163.376 113.789 163.372 113.955H161.692C161.697 113.521 161.818 113.14 162.054 112.811C162.291 112.48 162.613 112.22 163.02 112.033C163.43 111.846 163.896 111.753 164.419 111.753C164.94 111.753 165.398 111.844 165.794 112.026C166.189 112.209 166.497 112.457 166.717 112.772C166.937 113.085 167.047 113.438 167.047 113.834C167.05 114.243 166.916 114.581 166.646 114.846C166.378 115.111 166.034 115.274 165.612 115.336V115.393C166.176 115.459 166.601 115.641 166.887 115.94C167.176 116.238 167.319 116.611 167.317 117.058C167.317 117.48 167.193 117.854 166.944 118.18C166.698 118.505 166.355 118.76 165.914 118.947C165.476 119.132 164.973 119.224 164.405 119.224Z" fill="#232323"/>
<path d="M214.66 119.125V117.861L217.313 115.538C217.512 115.358 217.681 115.194 217.821 115.045C217.96 114.893 218.067 114.742 218.14 114.59C218.214 114.436 218.25 114.269 218.25 114.089C218.25 113.888 218.207 113.717 218.119 113.575C218.031 113.43 217.911 113.319 217.757 113.241C217.603 113.163 217.427 113.124 217.228 113.124C217.026 113.124 216.85 113.165 216.699 113.248C216.547 113.328 216.429 113.446 216.343 113.599C216.261 113.753 216.219 113.94 216.219 114.161H214.554C214.554 113.666 214.665 113.238 214.888 112.879C215.11 112.519 215.423 112.242 215.825 112.048C216.23 111.851 216.7 111.753 217.235 111.753C217.786 111.753 218.266 111.845 218.673 112.03C219.08 112.214 219.395 112.473 219.618 112.804C219.843 113.133 219.955 113.515 219.955 113.951C219.955 114.228 219.899 114.503 219.788 114.775C219.677 115.047 219.477 115.348 219.188 115.677C218.901 116.006 218.494 116.4 217.966 116.859L217.096 117.662V117.708H220.044V119.125H214.66Z" fill="#232323"/>
<path d="M270.91 119.125V117.861L273.563 115.538C273.762 115.358 273.931 115.194 274.071 115.045C274.21 114.893 274.317 114.742 274.39 114.59C274.464 114.436 274.5 114.269 274.5 114.089C274.5 113.888 274.457 113.717 274.369 113.575C274.281 113.43 274.161 113.319 274.007 113.241C273.853 113.163 273.677 113.124 273.478 113.124C273.276 113.124 273.1 113.165 272.949 113.248C272.797 113.328 272.679 113.446 272.593 113.599C272.511 113.753 272.469 113.94 272.469 114.161H270.804C270.804 113.666 270.915 113.238 271.138 112.879C271.36 112.519 271.673 112.242 272.075 112.048C272.48 111.851 272.95 111.753 273.485 111.753C274.036 111.753 274.516 111.845 274.923 112.03C275.33 112.214 275.645 112.473 275.868 112.804C276.093 113.133 276.205 113.515 276.205 113.951C276.205 114.228 276.149 114.503 276.038 114.775C275.927 115.047 275.727 115.348 275.438 115.677C275.151 116.006 274.744 116.4 274.216 116.859L273.346 117.662V117.708H276.294V119.125H270.91Z" fill="#232323"/>
<path d="M328.12 115.513V116.852H324.754V115.513H328.12Z" fill="#232323"/>
<path d="M383.245 115.513V116.852H379.879V115.513H383.245Z" fill="#232323"/>
<path d="M34.9186 136.602V143.875H33.6011V136.602H34.9186ZM40.5995 139.862L39.4276 139.99C39.3945 139.872 39.3365 139.76 39.2536 139.656C39.1731 139.552 39.0642 139.468 38.9269 139.404C38.7896 139.34 38.6215 139.308 38.4227 139.308C38.1552 139.308 37.9302 139.366 37.748 139.482C37.568 139.598 37.4793 139.749 37.4816 139.933C37.4793 140.092 37.5373 140.221 37.6556 140.32C37.7764 140.42 37.9752 140.501 38.2522 140.565L39.1826 140.764C39.6987 140.875 40.0822 141.052 40.3332 141.293C40.5865 141.535 40.7143 141.851 40.7167 142.241C40.7143 142.585 40.6137 142.888 40.4149 143.151C40.2184 143.411 39.9449 143.615 39.5945 143.761C39.2442 143.908 38.8417 143.982 38.3872 143.982C37.7195 143.982 37.1821 143.842 36.7749 143.562C36.3677 143.281 36.1251 142.889 36.047 142.387L37.3005 142.266C37.3573 142.513 37.4781 142.698 37.6627 142.824C37.8474 142.949 38.0877 143.012 38.3836 143.012C38.689 143.012 38.934 142.949 39.1187 142.824C39.3057 142.698 39.3992 142.543 39.3992 142.359C39.3992 142.202 39.3389 142.073 39.2181 141.972C39.0998 141.87 38.9151 141.792 38.6642 141.737L37.7338 141.542C37.2106 141.433 36.8235 141.25 36.5725 140.991C36.3216 140.731 36.1973 140.402 36.1997 140.004C36.1973 139.668 36.2884 139.377 36.4731 139.131C36.6601 138.882 36.9194 138.69 37.2508 138.555C37.5846 138.418 37.9693 138.349 38.4049 138.349C39.0441 138.349 39.5472 138.486 39.9142 138.758C40.2835 139.03 40.5119 139.398 40.5995 139.862ZM43.0622 140.679V143.875H41.7767V136.602H43.0338V139.347H43.0977C43.2256 139.04 43.4233 138.797 43.6908 138.619C43.9607 138.439 44.3039 138.349 44.7206 138.349C45.0994 138.349 45.4297 138.429 45.7114 138.587C45.9931 138.746 46.2109 138.978 46.3648 139.283C46.521 139.589 46.5992 139.962 46.5992 140.402V143.875H45.3137V140.601C45.3137 140.234 45.219 139.949 45.0296 139.745C44.8425 139.539 44.5798 139.436 44.2412 139.436C44.0139 139.436 43.8103 139.486 43.6304 139.585C43.4529 139.682 43.3132 139.823 43.2114 140.008C43.1119 140.192 43.0622 140.416 43.0622 140.679ZM49.4791 143.985C49.1335 143.985 48.8222 143.924 48.5452 143.8C48.2706 143.675 48.0528 143.49 47.8918 143.246C47.7332 143.003 47.6539 142.702 47.6539 142.344C47.6539 142.037 47.7107 141.782 47.8243 141.581C47.9379 141.38 48.093 141.219 48.2895 141.098C48.486 140.977 48.7074 140.886 48.9536 140.825C49.2021 140.761 49.459 140.714 49.7242 140.686C50.0438 140.653 50.303 140.623 50.5019 140.597C50.7007 140.569 50.8451 140.526 50.9351 140.469C51.0274 140.41 51.0736 140.319 51.0736 140.196V140.175C51.0736 139.907 50.9943 139.7 50.8357 139.553C50.6771 139.406 50.4486 139.333 50.1503 139.333C49.8354 139.333 49.5857 139.402 49.401 139.539C49.2187 139.676 49.0956 139.839 49.0317 140.026L47.8314 139.855C47.9261 139.524 48.0824 139.247 48.3002 139.024C48.518 138.799 48.7843 138.631 49.0992 138.52C49.414 138.406 49.762 138.349 50.1432 138.349C50.406 138.349 50.6676 138.38 50.928 138.442C51.1884 138.503 51.4263 138.605 51.6418 138.747C51.8572 138.887 52.03 139.077 52.1602 139.319C52.2928 139.56 52.3591 139.862 52.3591 140.224V143.875H51.1233V143.126H51.0807C51.0026 143.277 50.8925 143.419 50.7504 143.552C50.6108 143.682 50.4344 143.787 50.2213 143.868C50.0106 143.946 49.7632 143.985 49.4791 143.985ZM49.8129 143.04C50.071 143.04 50.2947 142.99 50.4841 142.888C50.6735 142.784 50.8191 142.646 50.9209 142.476C51.0251 142.305 51.0771 142.12 51.0771 141.918V141.276C51.0369 141.309 50.9682 141.339 50.8712 141.368C50.7765 141.396 50.67 141.421 50.5516 141.442C50.4332 141.464 50.316 141.483 50.2 141.499C50.084 141.516 49.9834 141.53 49.8982 141.542C49.7064 141.568 49.5348 141.611 49.3833 141.67C49.2317 141.729 49.1122 141.812 49.0246 141.918C48.937 142.022 48.8932 142.157 48.8932 142.323C48.8932 142.56 48.9796 142.739 49.1524 142.859C49.3253 142.98 49.5454 143.04 49.8129 143.04Z" fill="#305055"/>
<path d="M108.563 142.668V141.297L111.542 136.602H112.76V138.463H112.053L110.31 141.226V141.283H114.624V142.668H108.563ZM112.075 143.875V142.249L112.11 141.648V136.602H113.754V143.875H112.075Z" fill="#232323"/>
<path d="M161.438 142.668V141.297L164.417 136.602H165.635V138.463H164.928L163.185 141.226V141.283H167.499V142.668H161.438ZM164.95 143.875V142.249L164.985 141.648V136.602H166.629V143.875H164.95Z" fill="#232323"/>
<path d="M214.66 143.875V142.611L217.313 140.288C217.512 140.108 217.681 139.944 217.821 139.795C217.96 139.643 218.067 139.492 218.14 139.34C218.214 139.186 218.25 139.019 218.25 138.839C218.25 138.638 218.207 138.467 218.119 138.325C218.031 138.18 217.911 138.069 217.757 137.991C217.603 137.913 217.427 137.874 217.228 137.874C217.026 137.874 216.85 137.915 216.699 137.998C216.547 138.078 216.429 138.196 216.343 138.349C216.261 138.503 216.219 138.69 216.219 138.911H214.554C214.554 138.416 214.665 137.988 214.888 137.629C215.11 137.269 215.423 136.992 215.825 136.798C216.23 136.601 216.7 136.503 217.235 136.503C217.786 136.503 218.266 136.595 218.673 136.78C219.08 136.964 219.395 137.223 219.618 137.554C219.843 137.883 219.955 138.265 219.955 138.701C219.955 138.978 219.899 139.253 219.788 139.525C219.677 139.797 219.477 140.098 219.188 140.427C218.901 140.756 218.494 141.15 217.966 141.609L217.096 142.412V142.458H220.044V143.875H214.66Z" fill="#232323"/>
<path d="M270.91 143.875V142.611L273.563 140.288C273.762 140.108 273.931 139.944 274.071 139.795C274.21 139.643 274.317 139.492 274.39 139.34C274.464 139.186 274.5 139.019 274.5 138.839C274.5 138.638 274.457 138.467 274.369 138.325C274.281 138.18 274.161 138.069 274.007 137.991C273.853 137.913 273.677 137.874 273.478 137.874C273.276 137.874 273.1 137.915 272.949 137.998C272.797 138.078 272.679 138.196 272.593 138.349C272.511 138.503 272.469 138.69 272.469 138.911H270.804C270.804 138.416 270.915 137.988 271.138 137.629C271.36 137.269 271.673 136.992 272.075 136.798C272.48 136.601 272.95 136.503 273.485 136.503C274.036 136.503 274.516 136.595 274.923 136.78C275.33 136.964 275.645 137.223 275.868 137.554C276.093 137.883 276.205 138.265 276.205 138.701C276.205 138.978 276.149 139.253 276.038 139.525C275.927 139.797 275.727 140.098 275.438 140.427C275.151 140.756 274.744 141.15 274.216 141.609L273.346 142.412V142.458H276.294V143.875H270.91Z" fill="#232323"/>
<path d="M326.405 143.974C325.851 143.974 325.36 143.88 324.931 143.69C324.505 143.499 324.169 143.235 323.923 142.898C323.677 142.562 323.551 142.175 323.546 141.737H325.315C325.322 141.896 325.373 142.037 325.468 142.16C325.562 142.281 325.691 142.375 325.855 142.444C326.018 142.513 326.204 142.547 326.412 142.547C326.621 142.547 326.804 142.51 326.963 142.437C327.124 142.361 327.249 142.258 327.339 142.128C327.429 141.995 327.473 141.844 327.47 141.673C327.473 141.503 327.424 141.351 327.325 141.219C327.225 141.086 327.085 140.983 326.902 140.91C326.722 140.836 326.509 140.8 326.263 140.8H325.556V139.55H326.263C326.478 139.55 326.668 139.514 326.831 139.443C326.997 139.372 327.126 139.273 327.218 139.145C327.311 139.015 327.356 138.866 327.353 138.697C327.356 138.534 327.317 138.391 327.236 138.268C327.158 138.142 327.048 138.045 326.906 137.977C326.766 137.908 326.604 137.874 326.419 137.874C326.225 137.874 326.049 137.908 325.89 137.977C325.734 138.045 325.61 138.142 325.517 138.268C325.425 138.393 325.376 138.539 325.372 138.705H323.692C323.697 138.271 323.818 137.89 324.054 137.561C324.291 137.23 324.613 136.97 325.02 136.783C325.43 136.596 325.896 136.503 326.419 136.503C326.94 136.503 327.398 136.594 327.794 136.776C328.189 136.959 328.497 137.207 328.717 137.522C328.937 137.835 329.047 138.188 329.047 138.584C329.05 138.993 328.916 139.331 328.646 139.596C328.378 139.861 328.034 140.024 327.612 140.086V140.143C328.176 140.209 328.601 140.391 328.887 140.69C329.176 140.988 329.319 141.361 329.317 141.808C329.317 142.23 329.193 142.604 328.944 142.93C328.698 143.255 328.355 143.51 327.914 143.697C327.476 143.882 326.973 143.974 326.405 143.974Z" fill="#232323"/>
<path d="M378.91 143.875V142.611L381.563 140.288C381.762 140.108 381.931 139.944 382.071 139.795C382.21 139.643 382.317 139.492 382.39 139.34C382.464 139.186 382.5 139.019 382.5 138.839C382.5 138.638 382.457 138.467 382.369 138.325C382.281 138.18 382.161 138.069 382.007 137.991C381.853 137.913 381.677 137.874 381.478 137.874C381.276 137.874 381.1 137.915 380.949 137.998C380.797 138.078 380.679 138.196 380.593 138.349C380.511 138.503 380.469 138.69 380.469 138.911H378.804C378.804 138.416 378.915 137.988 379.138 137.629C379.36 137.269 379.673 136.992 380.075 136.798C380.48 136.601 380.95 136.503 381.485 136.503C382.036 136.503 382.516 136.595 382.923 136.78C383.33 136.964 383.645 137.223 383.868 137.554C384.093 137.883 384.205 138.265 384.205 138.701C384.205 138.978 384.149 139.253 384.038 139.525C383.927 139.797 383.727 140.098 383.438 140.427C383.151 140.756 382.744 141.15 382.216 141.609L381.346 142.412V142.458H384.294V143.875H378.91Z" fill="#232323"/>
<path d="M24.0798 161.352H25.3866V166.466C25.3843 166.935 25.2848 167.338 25.0883 167.677C24.8918 168.013 24.6172 168.272 24.2645 168.455C23.9141 168.634 23.5057 168.724 23.0393 168.724C22.6132 168.724 22.2297 168.649 21.8888 168.497C21.5502 168.343 21.2815 168.116 21.0827 167.815C20.8838 167.515 20.7844 167.141 20.7844 166.693H22.0947C22.0971 166.89 22.1397 167.059 22.2226 167.201C22.3078 167.343 22.425 167.452 22.5741 167.528C22.7233 167.603 22.8949 167.641 23.089 167.641C23.2997 167.641 23.4785 167.598 23.6253 167.51C23.772 167.42 23.8833 167.287 23.9591 167.112C24.0372 166.937 24.0774 166.722 24.0798 166.466V161.352ZM30.2357 166.331V163.17H31.5212V168.625H30.2748V167.656H30.218C30.0948 167.961 29.8924 168.211 29.6107 168.405C29.3314 168.599 28.9869 168.696 28.5773 168.696C28.2198 168.696 27.9038 168.617 27.6292 168.458C27.3569 168.297 27.1439 168.064 26.99 167.759C26.8361 167.451 26.7591 167.079 26.7591 166.643V163.17H28.0447V166.445C28.0447 166.79 28.1394 167.065 28.3287 167.268C28.5181 167.472 28.7667 167.574 29.0745 167.574C29.2639 167.574 29.4474 167.528 29.6249 167.435C29.8025 167.343 29.9481 167.206 30.0617 167.023C30.1777 166.839 30.2357 166.608 30.2357 166.331ZM32.8431 168.625V163.17H34.0718V164.097H34.1357C34.2494 163.785 34.4376 163.541 34.7004 163.366C34.9632 163.188 35.2768 163.099 35.6414 163.099C36.0107 163.099 36.3221 163.189 36.5754 163.369C36.8311 163.547 37.011 163.79 37.1151 164.097H37.172C37.2927 163.794 37.4963 163.553 37.7828 163.373C38.0716 163.191 38.4137 163.099 38.809 163.099C39.3109 163.099 39.7205 163.258 40.0377 163.575C40.355 163.893 40.5136 164.355 40.5136 164.964V168.625H39.2245V165.163C39.2245 164.824 39.1346 164.577 38.9546 164.42C38.7747 164.262 38.5545 164.183 38.2941 164.183C37.984 164.183 37.7413 164.28 37.5661 164.474C37.3933 164.665 37.3069 164.915 37.3069 165.223V168.625H36.0463V165.109C36.0463 164.828 35.961 164.603 35.7906 164.435C35.6225 164.267 35.4023 164.183 35.1301 164.183C34.9454 164.183 34.7773 164.23 34.6258 164.325C34.4743 164.417 34.3535 164.548 34.2636 164.719C34.1736 164.887 34.1286 165.083 34.1286 165.308V168.625H32.8431ZM41.8177 168.625V163.17H43.0464V164.097H43.1104C43.224 163.785 43.4122 163.541 43.675 163.366C43.9378 163.188 44.2515 163.099 44.616 163.099C44.9854 163.099 45.2967 163.189 45.55 163.369C45.8057 163.547 45.9856 163.79 46.0898 164.097H46.1466C46.2673 163.794 46.4709 163.553 46.7574 163.373C47.0462 163.191 47.3883 163.099 47.7836 163.099C48.2855 163.099 48.6951 163.258 49.0123 163.575C49.3296 163.893 49.4882 164.355 49.4882 164.964V168.625H48.1991V165.163C48.1991 164.824 48.1092 164.577 47.9292 164.42C47.7493 164.262 47.5291 164.183 47.2687 164.183C46.9586 164.183 46.7159 164.28 46.5407 164.474C46.3679 164.665 46.2815 164.915 46.2815 165.223V168.625H45.0209V165.109C45.0209 164.828 44.9356 164.603 44.7652 164.435C44.5971 164.267 44.3769 164.183 44.1047 164.183C43.92 164.183 43.7519 164.23 43.6004 164.325C43.4489 164.417 43.3282 164.548 43.2382 164.719C43.1482 164.887 43.1032 165.083 43.1032 165.308V168.625H41.8177ZM52.3619 168.735C52.0163 168.735 51.705 168.674 51.428 168.55C51.1534 168.425 50.9356 168.24 50.7746 167.996C50.616 167.753 50.5367 167.452 50.5367 167.094C50.5367 166.787 50.5935 166.532 50.7071 166.331C50.8208 166.13 50.9758 165.969 51.1723 165.848C51.3688 165.727 51.5902 165.636 51.8364 165.575C52.085 165.511 52.3418 165.464 52.607 165.436C52.9266 165.403 53.1858 165.373 53.3847 165.347C53.5835 165.319 53.728 165.276 53.8179 165.219C53.9102 165.16 53.9564 165.069 53.9564 164.946V164.925C53.9564 164.657 53.8771 164.45 53.7185 164.303C53.5599 164.156 53.3314 164.083 53.0331 164.083C52.7182 164.083 52.4685 164.152 52.2838 164.289C52.1015 164.426 51.9784 164.589 51.9145 164.776L50.7142 164.605C50.8089 164.274 50.9652 163.997 51.183 163.774C51.4008 163.549 51.6671 163.381 51.982 163.27C52.2968 163.156 52.6449 163.099 53.026 163.099C53.2888 163.099 53.5504 163.13 53.8108 163.192C54.0712 163.253 54.3092 163.355 54.5246 163.497C54.74 163.637 54.9128 163.827 55.0431 164.069C55.1756 164.31 55.2419 164.612 55.2419 164.974V168.625H54.0061V167.876H53.9635C53.8854 168.027 53.7753 168.169 53.6333 168.302C53.4936 168.432 53.3172 168.537 53.1041 168.618C52.8934 168.696 52.646 168.735 52.3619 168.735ZM52.6958 167.79C52.9538 167.79 53.1775 167.74 53.3669 167.638C53.5563 167.534 53.7019 167.396 53.8037 167.226C53.9079 167.055 53.96 166.87 53.96 166.668V166.026C53.9197 166.059 53.8511 166.089 53.754 166.118C53.6593 166.146 53.5528 166.171 53.4344 166.192C53.316 166.214 53.1988 166.233 53.0828 166.249C52.9668 166.266 52.8662 166.28 52.781 166.292C52.5892 166.318 52.4176 166.361 52.2661 166.42C52.1146 166.479 51.995 166.562 51.9074 166.668C51.8198 166.772 51.776 166.907 51.776 167.073C51.776 167.31 51.8624 167.489 52.0352 167.609C52.2081 167.73 52.4282 167.79 52.6958 167.79ZM57.82 165.429V168.625H56.5345V161.352H57.7916V164.097H57.8556C57.9834 163.79 58.1811 163.547 58.4486 163.369C58.7185 163.189 59.0618 163.099 59.4784 163.099C59.8572 163.099 60.1875 163.179 60.4692 163.337C60.7509 163.496 60.9687 163.728 61.1226 164.033C61.2789 164.339 61.357 164.712 61.357 165.152V168.625H60.0715V165.351C60.0715 164.984 59.9768 164.699 59.7874 164.495C59.6003 164.289 59.3376 164.186 58.999 164.186C58.7718 164.186 58.5682 164.236 58.3882 164.335C58.2107 164.432 58.071 164.573 57.9692 164.758C57.8698 164.942 57.82 165.166 57.82 165.429Z" fill="#305055"/>
<path d="M108.563 167.418V166.047L111.542 161.352H112.76V163.213H112.053L110.31 165.976V166.033H114.624V167.418H108.563ZM112.075 168.625V166.999L112.11 166.398V161.352H113.754V168.625H112.075Z" fill="#232323"/>
<path d="M161.785 168.625V167.361L164.438 165.038C164.637 164.858 164.806 164.694 164.946 164.545C165.085 164.393 165.192 164.242 165.265 164.09C165.339 163.936 165.375 163.769 165.375 163.589C165.375 163.388 165.332 163.217 165.244 163.075C165.156 162.93 165.036 162.819 164.882 162.741C164.728 162.663 164.552 162.624 164.353 162.624C164.151 162.624 163.975 162.665 163.824 162.748C163.672 162.828 163.554 162.946 163.468 163.099C163.386 163.253 163.344 163.44 163.344 163.661H161.679C161.679 163.166 161.79 162.738 162.013 162.379C162.235 162.019 162.548 161.742 162.95 161.548C163.355 161.351 163.825 161.253 164.36 161.253C164.911 161.253 165.391 161.345 165.798 161.53C166.205 161.714 166.52 161.973 166.743 162.304C166.968 162.633 167.08 163.015 167.08 163.451C167.08 163.728 167.024 164.003 166.913 164.275C166.802 164.547 166.602 164.848 166.313 165.177C166.026 165.506 165.619 165.9 165.091 166.359L164.221 167.162V167.208H167.169V168.625H161.785Z" fill="#232323"/>
<path d="M207.207 167.418V166.047L210.187 161.352H211.405V163.213H210.698L208.954 165.976V166.033H213.269V167.418H207.207ZM210.719 168.625V166.999L210.755 166.398V161.352H212.399V168.625H210.719ZM216.371 167.574V162.432H217.802V167.574H216.371ZM214.514 165.72V164.286H219.656V165.72H214.514ZM220.9 168.625V167.361L223.552 165.038C223.751 164.858 223.92 164.694 224.06 164.545C224.2 164.393 224.306 164.242 224.38 164.09C224.453 163.936 224.49 163.769 224.49 163.589C224.49 163.388 224.446 163.217 224.358 163.075C224.271 162.93 224.15 162.819 223.996 162.741C223.842 162.663 223.666 162.624 223.467 162.624C223.266 162.624 223.089 162.665 222.938 162.748C222.786 162.828 222.668 162.946 222.583 163.099C222.5 163.253 222.458 163.44 222.458 163.661H220.793C220.793 163.166 220.904 162.738 221.127 162.379C221.349 162.019 221.662 161.742 222.064 161.548C222.469 161.351 222.939 161.253 223.474 161.253C224.026 161.253 224.505 161.345 224.912 161.53C225.319 161.714 225.634 161.973 225.857 162.304C226.082 162.633 226.194 163.015 226.194 163.451C226.194 163.728 226.139 164.003 226.027 164.275C225.916 164.547 225.716 164.848 225.427 165.177C225.141 165.506 224.734 165.9 224.206 166.359L223.336 167.162V167.208H226.283V168.625H220.9Z" fill="#232323"/>
<path d="M270.91 168.625V167.361L273.563 165.038C273.762 164.858 273.931 164.694 274.071 164.545C274.21 164.393 274.317 164.242 274.39 164.09C274.464 163.936 274.5 163.769 274.5 163.589C274.5 163.388 274.457 163.217 274.369 163.075C274.281 162.93 274.161 162.819 274.007 162.741C273.853 162.663 273.677 162.624 273.478 162.624C273.276 162.624 273.1 162.665 272.949 162.748C272.797 162.828 272.679 162.946 272.593 163.099C272.511 163.253 272.469 163.44 272.469 163.661H270.804C270.804 163.166 270.915 162.738 271.138 162.379C271.36 162.019 271.673 161.742 272.075 161.548C272.48 161.351 272.95 161.253 273.485 161.253C274.036 161.253 274.516 161.345 274.923 161.53C275.33 161.714 275.645 161.973 275.868 162.304C276.093 162.633 276.205 163.015 276.205 163.451C276.205 163.728 276.149 164.003 276.038 164.275C275.927 164.547 275.727 164.848 275.438 165.177C275.151 165.506 274.744 165.9 274.216 166.359L273.346 167.162V167.208H276.294V168.625H270.91Z" fill="#232323"/>
<path d="M328.12 165.013V166.352H324.754V165.013H328.12Z" fill="#232323"/>
<path d="M383.245 165.013V166.352H379.879V165.013H383.245Z" fill="#232323"/>
<path d="M21.0621 17.875V10.6023H24.0664C24.6109 10.6023 25.0808 10.7088 25.4762 10.9219C25.8739 11.1326 26.1805 11.4273 26.396 11.8061C26.6114 12.1825 26.7191 12.6205 26.7191 13.12C26.7191 13.6219 26.609 14.0611 26.3888 14.4375C26.171 14.8116 25.8597 15.1016 25.4549 15.3075C25.0501 15.5135 24.5695 15.6165 24.0131 15.6165H22.1594V14.2315H23.6864C23.9516 14.2315 24.1729 14.1854 24.3505 14.093C24.5304 14.0007 24.6665 13.8717 24.7589 13.706C24.8512 13.5379 24.8974 13.3426 24.8974 13.12C24.8974 12.8951 24.8512 12.701 24.7589 12.5376C24.6665 12.3719 24.5304 12.2441 24.3505 12.1541C24.1706 12.0642 23.9492 12.0192 23.6864 12.0192H22.82V17.875H21.0621ZM27.5856 17.875V10.6023H30.5898C31.1344 10.6023 31.6043 10.7005 31.9996 10.897C32.3974 11.0911 32.704 11.3705 32.9194 11.7351C33.1348 12.0973 33.2425 12.527 33.2425 13.0241C33.2425 13.5284 33.1325 13.9569 32.9123 14.3097C32.6921 14.66 32.3796 14.9276 31.9748 15.1122C31.57 15.2945 31.0906 15.3857 30.5366 15.3857H28.6367V14.0007H30.2099C30.475 14.0007 30.6964 13.9664 30.8739 13.8977C31.0539 13.8267 31.19 13.7202 31.2823 13.5781C31.3746 13.4337 31.4208 13.2491 31.4208 13.0241C31.4208 12.7992 31.3746 12.6134 31.2823 12.4666C31.19 12.3175 31.0539 12.2062 30.8739 12.1328C30.694 12.0571 30.4727 12.0192 30.2099 12.0192H29.3434V17.875H27.5856ZM31.68 14.5511L33.4911 17.875H31.5735L29.7979 14.5511H31.68ZM35.7798 17.875H33.8906L36.3445 10.6023H38.6847L41.1385 17.875H39.2493L37.5412 12.4347H37.4844L35.7798 17.875ZM35.5277 15.0128H39.4766V16.348H35.5277V15.0128ZM40.8171 10.6023H42.7809L44.3185 13.6456H44.3825L45.9201 10.6023H47.8839L45.2241 15.446V17.875H43.4769V15.446L40.8171 10.6023ZM48.6207 17.875V10.6023H53.6918V12.0298H50.3786V13.5213H53.4325V14.9524H50.3786V16.4474H53.6918V17.875H48.6207ZM54.7926 17.875V10.6023H57.7969C58.3414 10.6023 58.8113 10.7005 59.2067 10.897C59.6044 11.0911 59.911 11.3705 60.1264 11.7351C60.3419 12.0973 60.4496 12.527 60.4496 13.0241C60.4496 13.5284 60.3395 13.9569 60.1193 14.3097C59.8991 14.66 59.5866 14.9276 59.1818 15.1122C58.777 15.2945 58.2976 15.3857 57.7436 15.3857H55.8438V14.0007H57.4169C57.6821 14.0007 57.9034 13.9664 58.081 13.8977C58.2609 13.8267 58.397 13.7202 58.4893 13.5781C58.5817 13.4337 58.6278 13.2491 58.6278 13.0241C58.6278 12.7992 58.5817 12.6134 58.4893 12.4666C58.397 12.3175 58.2609 12.2062 58.081 12.1328C57.901 12.0571 57.6797 12.0192 57.4169 12.0192H56.5504V17.875H54.7926ZM58.8871 14.5511L60.6982 17.875H58.7805L57.005 14.5511H58.8871Z" fill="white"/>
<path d="M93.6602 12.7827C93.6366 12.5223 93.5312 12.3198 93.3442 12.1754C93.1595 12.0286 92.8956 11.9553 92.5523 11.9553C92.325 11.9553 92.1356 11.9848 91.9841 12.044C91.8326 12.1032 91.719 12.1849 91.6432 12.2891C91.5674 12.3909 91.5284 12.508 91.526 12.6406C91.5213 12.7495 91.5426 12.8454 91.5899 12.9283C91.6396 13.0111 91.7107 13.0845 91.803 13.1484C91.8977 13.21 92.0113 13.2644 92.1439 13.3118C92.2765 13.3591 92.4256 13.4006 92.5914 13.4361L93.2164 13.5781C93.5762 13.6562 93.8934 13.7604 94.1681 13.8906C94.445 14.0208 94.6771 14.1759 94.8641 14.3558C95.0535 14.5357 95.1967 14.7429 95.2938 14.9773C95.3908 15.2116 95.4405 15.4744 95.4429 15.7656C95.4405 16.2249 95.3245 16.6191 95.0949 16.9482C94.8653 17.2772 94.535 17.5294 94.1041 17.7045C93.6756 17.8797 93.1584 17.9673 92.5523 17.9673C91.9439 17.9673 91.4136 17.8762 90.9614 17.6939C90.5092 17.5116 90.1576 17.2346 89.9067 16.8629C89.6557 16.4912 89.5267 16.0213 89.5196 15.4531H91.2029C91.2171 15.6875 91.2798 15.8828 91.3911 16.0391C91.5023 16.1953 91.655 16.3137 91.8492 16.3942C92.0457 16.4747 92.2729 16.5149 92.531 16.5149C92.7677 16.5149 92.969 16.483 93.1347 16.419C93.3028 16.3551 93.4318 16.2663 93.5218 16.1527C93.6117 16.0391 93.6579 15.9089 93.6602 15.7621C93.6579 15.6248 93.6153 15.5076 93.5324 15.4105C93.4495 15.3111 93.3217 15.2259 93.1489 15.1548C92.9784 15.0814 92.7606 15.014 92.4955 14.9524L91.7355 14.7749C91.1058 14.6304 90.6098 14.3973 90.2476 14.0753C89.8854 13.7509 89.7055 13.313 89.7078 12.7614C89.7055 12.3116 89.8262 11.9174 90.07 11.5788C90.3139 11.2403 90.6512 10.9763 91.0821 10.7869C91.513 10.5975 92.0042 10.5028 92.5558 10.5028C93.1193 10.5028 93.6082 10.5987 94.0225 10.7905C94.4391 10.9799 94.7623 11.2462 94.9919 11.5895C95.2216 11.9328 95.3387 12.3305 95.3435 12.7827H93.6602ZM100.731 10.6023H102.485V15.2933C102.485 15.8355 102.356 16.3078 102.098 16.7102C101.84 17.1103 101.48 17.4205 101.018 17.6406C100.557 17.8584 100.02 17.9673 99.4095 17.9673C98.7916 17.9673 98.2519 17.8584 97.7902 17.6406C97.3286 17.4205 96.9699 17.1103 96.7142 16.7102C96.4585 16.3078 96.3307 15.8355 96.3307 15.2933V10.6023H98.0885V15.1406C98.0885 15.3916 98.143 15.6153 98.2519 15.8118C98.3631 16.0083 98.5182 16.1622 98.7171 16.2734C98.9159 16.3847 99.1468 16.4403 99.4095 16.4403C99.6723 16.4403 99.902 16.3847 100.098 16.2734C100.297 16.1622 100.452 16.0083 100.564 15.8118C100.675 15.6153 100.731 15.3916 100.731 15.1406V10.6023ZM109.776 10.6023V17.875H108.285L105.391 13.6776H105.344V17.875H103.587V10.6023H105.099L107.962 14.7926H108.022V10.6023H109.776ZM117.071 10.6023V17.875H115.58L112.685 13.6776H112.639V17.875H110.881V10.6023H112.394L115.256 14.7926H115.317V10.6023H117.071ZM119.75 17.875H117.86L120.314 10.6023H122.654L125.108 17.875H123.219L121.511 12.4347H121.454L119.75 17.875ZM119.497 15.0128H123.446V16.348H119.497V15.0128ZM125.891 17.875V10.6023H127.649V13.5213H130.515V10.6023H132.269V17.875H130.515V14.9524H127.649V17.875H125.891Z" fill="white"/>
<path d="M200.535 12.7827C200.512 12.5223 200.406 12.3198 200.219 12.1754C200.035 12.0286 199.771 11.9553 199.427 11.9553C199.2 11.9553 199.011 11.9848 198.859 12.044C198.708 12.1032 198.594 12.1849 198.518 12.2891C198.442 12.3909 198.403 12.508 198.401 12.6406C198.396 12.7495 198.418 12.8454 198.465 12.9283C198.515 13.0111 198.586 13.0845 198.678 13.1484C198.773 13.21 198.886 13.2644 199.019 13.3118C199.151 13.3591 199.301 13.4006 199.466 13.4361L200.091 13.5781C200.451 13.6562 200.768 13.7604 201.043 13.8906C201.32 14.0208 201.552 14.1759 201.739 14.3558C201.928 14.5357 202.072 14.7429 202.169 14.9773C202.266 15.2116 202.316 15.4744 202.318 15.7656C202.316 16.2249 202.2 16.6191 201.97 16.9482C201.74 17.2772 201.41 17.5294 200.979 17.7045C200.551 17.8797 200.033 17.9673 199.427 17.9673C198.819 17.9673 198.289 17.8762 197.836 17.6939C197.384 17.5116 197.033 17.2346 196.782 16.8629C196.531 16.4912 196.402 16.0213 196.395 15.4531H198.078C198.092 15.6875 198.155 15.8828 198.266 16.0391C198.377 16.1953 198.53 16.3137 198.724 16.3942C198.921 16.4747 199.148 16.5149 199.406 16.5149C199.643 16.5149 199.844 16.483 200.01 16.419C200.178 16.3551 200.307 16.2663 200.397 16.1527C200.487 16.0391 200.533 15.9089 200.535 15.7621C200.533 15.6248 200.49 15.5076 200.407 15.4105C200.325 15.3111 200.197 15.2259 200.024 15.1548C199.853 15.0814 199.636 15.014 199.37 14.9524L198.611 14.7749C197.981 14.6304 197.485 14.3973 197.123 14.0753C196.76 13.7509 196.58 13.313 196.583 12.7614C196.58 12.3116 196.701 11.9174 196.945 11.5788C197.189 11.2403 197.526 10.9763 197.957 10.7869C198.388 10.5975 198.879 10.5028 199.431 10.5028C199.994 10.5028 200.483 10.5987 200.897 10.7905C201.314 10.9799 201.637 11.2462 201.867 11.5895C202.097 11.9328 202.214 12.3305 202.218 12.7827H200.535ZM207.606 10.6023H209.36V15.2933C209.36 15.8355 209.231 16.3078 208.973 16.7102C208.715 17.1103 208.355 17.4205 207.893 17.6406C207.432 17.8584 206.895 17.9673 206.285 17.9673C205.667 17.9673 205.127 17.8584 204.665 17.6406C204.204 17.4205 203.845 17.1103 203.589 16.7102C203.334 16.3078 203.206 15.8355 203.206 15.2933V10.6023H204.964V15.1406C204.964 15.3916 205.018 15.6153 205.127 15.8118C205.238 16.0083 205.393 16.1622 205.592 16.2734C205.791 16.3847 206.022 16.4403 206.285 16.4403C206.547 16.4403 206.777 16.3847 206.973 16.2734C207.172 16.1622 207.327 16.0083 207.439 15.8118C207.55 15.6153 207.606 15.3916 207.606 15.1406V10.6023ZM216.651 10.6023V17.875H215.16L212.266 13.6776H212.219V17.875H210.462V10.6023H211.974L214.837 14.7926H214.897V10.6023H216.651ZM223.946 10.6023V17.875H222.455L219.56 13.6776H219.514V17.875H217.756V10.6023H219.269L222.131 14.7926H222.192V10.6023H223.946ZM226.625 17.875H224.735L227.189 10.6023H229.529L231.983 17.875H230.094L228.386 12.4347H228.329L226.625 17.875ZM226.372 15.0128H230.321V16.348H226.372V15.0128ZM232.766 17.875V10.6023H234.524V13.5213H237.39V10.6023H239.144V17.875H237.39V14.9524H234.524V17.875H232.766Z" fill="white"/>
<path d="M268.151 10.6023V17.875H266.66L263.766 13.6776H263.719V17.875H261.962V10.6023H263.474L266.337 14.7926H266.397V10.6023H268.151ZM270.83 17.875H268.94L271.394 10.6023H273.734L276.188 17.875H274.299L272.591 12.4347H272.534L270.83 17.875ZM270.578 15.0128H274.526V16.348H270.578V15.0128ZM276.971 17.875V10.6023H281.936V12.0298H278.729V13.5213H281.62V14.9524H278.729V17.875H276.971ZM282.821 17.875V10.6023H284.579V16.4474H287.604V17.875H282.821Z" fill="white"/>
<path d="M315.284 17.875L313.168 10.6023H315.11L316.208 15.3679H316.268L317.521 10.6023H319.105L320.359 15.3786H320.419L321.52 10.6023H323.459L321.346 17.875H319.652L318.342 13.4645H318.285L316.975 17.875H315.284ZM325.943 10.6023V17.875H324.185V10.6023H325.943ZM326.809 12.0298V10.6023H332.956V12.0298H330.75V17.875H329.017V12.0298H326.809ZM333.814 17.875V10.6023H336.818C337.363 10.6023 337.833 10.7005 338.228 10.897C338.626 11.0911 338.932 11.3705 339.148 11.7351C339.363 12.0973 339.471 12.527 339.471 13.0241C339.471 13.5284 339.361 13.9569 339.141 14.3097C338.921 14.66 338.608 14.9276 338.203 15.1122C337.798 15.2945 337.319 15.3857 336.765 15.3857H334.865V14.0007H336.438C336.704 14.0007 336.925 13.9664 337.102 13.8977C337.282 13.8267 337.419 13.7202 337.511 13.5781C337.603 13.4337 337.649 13.2491 337.649 13.0241C337.649 12.7992 337.603 12.6134 337.511 12.4666C337.419 12.3175 337.282 12.2062 337.102 12.1328C336.923 12.0571 336.701 12.0192 336.438 12.0192H335.572V17.875H333.814ZM337.909 14.5511L339.72 17.875H337.802L336.026 14.5511H337.909Z" fill="white"/>
<path d="M375.026 10.6023V17.875H373.535L370.641 13.6776H370.594V17.875H368.837V10.6023H370.349L373.212 14.7926H373.272V10.6023H375.026ZM377.705 17.875H375.815L378.269 10.6023H380.609L383.063 17.875H381.174L379.466 12.4347H379.409L377.705 17.875ZM377.453 15.0128H381.401V16.348H377.453V15.0128ZM383.846 17.875V10.6023H388.811V12.0298H385.604V13.5213H388.495V14.9524H385.604V17.875H383.846ZM389.696 17.875V10.6023H391.454V16.4474H394.479V17.875H389.696Z" fill="white"/>
<path d="M153.071 17.875V10.6023H158.035V12.0298H154.829V13.5213H157.719V14.9524H154.829V17.875H153.071ZM159.585 17.875H157.696L160.15 10.6023H162.49L164.944 17.875H163.055L161.347 12.4347H161.29L159.585 17.875ZM159.333 15.0128H163.282V16.348H159.333V15.0128ZM165.727 17.875V10.6023H168.731C169.276 10.6023 169.746 10.7005 170.141 10.897C170.539 11.0911 170.846 11.3705 171.061 11.7351C171.276 12.0973 171.384 12.527 171.384 13.0241C171.384 13.5284 171.274 13.9569 171.054 14.3097C170.834 14.66 170.521 14.9276 170.116 15.1122C169.712 15.2945 169.232 15.3857 168.678 15.3857H166.778V14.0007H168.351C168.617 14.0007 168.838 13.9664 169.016 13.8977C169.195 13.8267 169.332 13.7202 169.424 13.5781C169.516 13.4337 169.562 13.2491 169.562 13.0241C169.562 12.7992 169.516 12.6134 169.424 12.4666C169.332 12.3175 169.195 12.2062 169.016 12.1328C168.836 12.0571 168.614 12.0192 168.351 12.0192H167.485V17.875H165.727ZM169.822 14.5511L171.633 17.875H169.715L167.94 14.5511H169.822ZM172.323 17.875V16.8736L175.857 12.0298H172.327V10.6023H178.08V11.6037L174.546 16.4474H178.076V17.875H172.323Z" fill="white"/>
<defs>
<filter id="filter0_d_1951_2271" x="0.125" y="129.375" width="410.75" height="31.625" filterUnits="userSpaceOnUse" color-interpolation-filters="sRGB">
<feFlood flood-opacity="0" result="BackgroundImageFix"/>
<feColorMatrix in="SourceAlpha" type="matrix" values="0 0 0 0 0 0 0 0 0 0 0 0 0 0 0 0 0 0 127 0" result="hardAlpha"/>
<feOffset dy="4"/>
<feGaussianBlur stdDeviation="2"/>
<feComposite in2="hardAlpha" operator="out"/>
<feColorMatrix type="matrix" values="0 0 0 0 0 0 0 0 0 0 0 0 0 0 0 0 0 0 0.2 0"/>
<feBlend mode="normal" in2="BackgroundImageFix" result="effect1_dropShadow_1951_2271"/>
<feBlend mode="normal" in="SourceGraphic" in2="effect1_dropShadow_1951_2271" result="shape"/>
</filter>
</defs>
</svg>
