<svg width="30" height="23" viewBox="0 0 30 23" fill="none" xmlns="http://www.w3.org/2000/svg">
<path fill-rule="evenodd" clip-rule="evenodd" d="M28.4407 17.0403C28.4331 17.0384 28.4254 17.0368 28.4176 17.0357L25.6154 16.6308V15.8545L26.1512 15.5577C26.1642 15.5504 26.1765 15.5419 26.1879 15.5323C26.3701 15.3792 26.5167 15.1874 26.6171 14.9705C26.7176 14.7536 26.7695 14.5169 26.7692 14.2774V13.3H26.8846C27.0678 13.3004 27.2457 13.2377 27.3889 13.1221C27.5321 13.0066 27.6321 12.8452 27.6725 12.6645C27.7128 12.4838 27.691 12.2946 27.6107 12.1281C27.5304 11.9616 27.3964 11.8277 27.2308 11.7486V10.9667C27.2299 10.8476 27.2222 10.7287 27.2077 10.6106C27.2224 10.5802 27.2303 10.5469 27.2308 10.5131V8.63333C27.2308 7.84443 25.9327 7 24 7C22.0673 7 20.7692 7.84443 20.7692 8.63333V10.5131C20.7697 10.5469 20.7776 10.5802 20.7923 10.6106C20.7778 10.7287 20.7701 10.8476 20.7692 10.9667V11.7486C20.6036 11.8277 20.4696 11.9616 20.3893 12.1281C20.309 12.2946 20.2872 12.4838 20.3275 12.6645C20.3679 12.8452 20.4679 13.0066 20.6111 13.1221C20.7543 13.2377 20.9322 13.3004 21.1154 13.3H21.2308V14.2774C21.2305 14.5169 21.2824 14.7536 21.3829 14.9705C21.4833 15.1874 21.6299 15.3792 21.8121 15.5323C21.8235 15.5419 21.8358 15.5504 21.8488 15.5577L22.3846 15.8545V16.6308L19.5826 17.0357C19.5748 17.0368 19.5671 17.0384 19.5595 17.0403C18.5829 17.2872 18 17.9823 18 18.9V22.7333C18 22.7952 18.0243 22.8546 18.0676 22.8983C18.1109 22.9421 18.1696 22.9667 18.2308 22.9667H29.7692C29.8304 22.9667 29.8891 22.9421 29.9324 22.8983C29.9757 22.8546 30 22.7952 30 22.7333V18.9C30 17.9823 29.4171 17.2872 28.4407 17.0403ZM22.8462 16.9962C23.0738 17.142 23.3321 17.2318 23.6003 17.2585L23.7157 17.6085C23.3929 17.578 23.0882 17.4438 22.8462 17.2256V16.9962ZM24.2843 17.6085L24.3997 17.2585C24.6679 17.2318 24.9262 17.142 25.1538 16.9962V17.2256C24.9118 17.4438 24.6071 17.578 24.2843 17.6085ZM26.355 10.2837C26.4941 10.3588 26.6223 10.453 26.7358 10.5637C26.7568 10.697 26.768 10.8317 26.7692 10.9667V11.6667H26.7162L26.355 10.2837ZM21.2308 8.63333C21.2308 8.169 22.3352 7.46667 24 7.46667C25.6648 7.46667 26.7692 8.169 26.7692 8.63333V9.99367C26.5525 9.85167 26.3193 9.73725 26.0748 9.653C26.0601 9.64574 26.0446 9.63995 26.0287 9.63573C25.3732 9.42431 24.688 9.32217 24 9.33333C23.2649 9.31831 22.5332 9.43686 21.8395 9.68333C21.8367 9.6842 21.8339 9.68522 21.8312 9.68637C21.6204 9.76583 21.419 9.8689 21.2308 9.99367V8.63333ZM21.2748 11.6667H21.2308V10.9667C21.2321 10.8319 21.2433 10.6975 21.2642 10.5644C21.3525 10.4775 21.4504 10.4012 21.5559 10.3369L21.2748 11.6667ZM21.1154 12.8333C21.0236 12.8333 20.9355 12.7965 20.8706 12.7308C20.8057 12.6652 20.7692 12.5762 20.7692 12.4833C20.7692 12.3905 20.8057 12.3015 20.8706 12.2358C20.9355 12.1702 21.0236 12.1333 21.1154 12.1333H21.4615C21.4903 12.133 21.5188 12.1272 21.5455 12.1163C21.5804 12.1014 21.6113 12.0785 21.6359 12.0494C21.6605 12.0203 21.678 11.9859 21.6872 11.9488L22.0154 10.3969C22.0246 10.3635 22.0352 10.3096 22.0468 10.2492L22.0476 10.2448C22.0558 10.2034 22.0686 10.138 22.08 10.0882C22.6998 9.88543 23.3486 9.78805 24 9.8C24.6116 9.79091 25.221 9.87548 25.8076 10.0508C25.8178 10.0837 25.8284 10.1208 25.8383 10.1556C25.854 10.2088 25.8683 10.2566 25.8782 10.2853L26.3153 11.9595C26.3162 11.9631 26.3179 11.9662 26.3195 11.9693C26.3208 11.9716 26.322 11.974 26.3229 11.9765C26.3392 12.0215 26.3684 12.0605 26.4069 12.0884C26.4453 12.1164 26.4911 12.132 26.5385 12.1333H26.8846C26.9764 12.1333 27.0645 12.1702 27.1294 12.2358C27.1943 12.3015 27.2308 12.3905 27.2308 12.4833C27.2308 12.5762 27.1943 12.6652 27.1294 12.7308C27.0645 12.7965 26.9764 12.8333 26.8846 12.8333H26.7692V12.6C26.7692 12.5381 26.7449 12.4788 26.7016 12.435C26.6584 12.3912 26.5997 12.3667 26.5385 12.3667C26.4773 12.3667 26.4186 12.3912 26.3753 12.435C26.332 12.4788 26.3077 12.5381 26.3077 12.6V12.9848L25.5046 14H22.4954L21.6923 12.9848V12.6C21.6923 12.5381 21.668 12.4788 21.6247 12.435C21.5814 12.3912 21.5227 12.3667 21.4615 12.3667C21.4003 12.3667 21.3416 12.3912 21.2984 12.435C21.2551 12.4788 21.2308 12.5381 21.2308 12.6V12.8333H21.1154ZM22.9341 16.159C23.1407 16.2732 23.3723 16.3331 23.6077 16.3333H24.3923C24.6276 16.333 24.859 16.2731 25.0655 16.159L25.1538 16.1103V16.3956C25.0355 16.5232 24.8925 16.6249 24.7337 16.6944C24.575 16.764 24.4038 16.7999 24.2308 16.8C24.1823 16.8 24.1351 16.8154 24.0958 16.844C24.0565 16.8727 24.0271 16.9131 24.0118 16.9596L24 16.9955L23.9882 16.9596C23.9729 16.9131 23.9435 16.8727 23.9042 16.844C23.8649 16.8154 23.8177 16.8 23.7692 16.8C23.5962 16.7999 23.425 16.764 23.2663 16.6944C23.1075 16.6249 22.9645 16.5232 22.8462 16.3956V16.1103L22.9341 16.159ZM23.3077 19.1333C23.3689 19.1333 23.4276 19.1088 23.4709 19.065C23.5141 19.0212 23.5385 18.9619 23.5385 18.9V18.6667C23.5385 18.6048 23.5141 18.5454 23.4709 18.5017C23.4276 18.4579 23.3689 18.4333 23.3077 18.4333C23.2465 18.4333 23.1878 18.4579 23.1445 18.5017C23.1012 18.5454 23.0769 18.6048 23.0769 18.6667V18.9C23.0769 18.9619 23.1012 19.0212 23.1445 19.065C23.1878 19.1088 23.2465 19.1333 23.3077 19.1333ZM23.4709 20.2317C23.4276 20.2754 23.3689 20.3 23.3077 20.3C23.2465 20.3 23.1878 20.2754 23.1445 20.2317C23.1012 20.1879 23.0769 20.1286 23.0769 20.0667V19.8333C23.0769 19.7715 23.1012 19.7121 23.1445 19.6683C23.1878 19.6246 23.2465 19.6 23.3077 19.6C23.3689 19.6 23.4276 19.6246 23.4709 19.6683C23.5141 19.7121 23.5385 19.7715 23.5385 19.8333V20.0667C23.5385 20.1286 23.5141 20.1879 23.4709 20.2317Z" fill="#217592"/>
<path d="M26.355 10.2837C26.4941 10.3588 26.6223 10.453 26.7358 10.5637C26.7568 10.697 26.768 10.8317 26.7692 10.9667V11.6667H26.7162L26.355 10.2837Z" fill="#217592"/>
<path d="M21.2748 11.6667H21.2308V10.9667C21.2321 10.8319 21.2433 10.6975 21.2642 10.5644C21.3525 10.4775 21.4504 10.4012 21.5559 10.3369L21.2748 11.6667Z" fill="#217592"/>
<path fill-rule="evenodd" clip-rule="evenodd" d="M10.4407 17.0403C10.4331 17.0384 10.4254 17.0368 10.4176 17.0357L7.61538 16.6308V15.8545L8.15123 15.5577C8.16423 15.5504 8.17652 15.5419 8.18792 15.5323C8.3701 15.3792 8.51665 15.1874 8.61713 14.9705C8.71761 14.7536 8.76954 14.5169 8.76923 14.2774V13.3H8.88462C9.06782 13.3004 9.24569 13.2377 9.38891 13.1221C9.53212 13.0066 9.63213 12.8452 9.67245 12.6645C9.71277 12.4838 9.69099 12.2946 9.6107 12.1281C9.53041 11.9616 9.3964 11.8277 9.23077 11.7486V10.9667C9.22991 10.8476 9.2222 10.7287 9.20769 10.6106C9.22241 10.5802 9.2303 10.5469 9.23077 10.5131V8.63333C9.23077 7.84443 7.93269 7 6 7C4.06731 7 2.76923 7.84443 2.76923 8.63333V10.5131C2.76971 10.5469 2.77759 10.5802 2.79231 10.6106C2.7778 10.7287 2.77009 10.8476 2.76923 10.9667V11.7486C2.6036 11.8277 2.46959 11.9616 2.3893 12.1281C2.30901 12.2946 2.28723 12.4838 2.32755 12.6645C2.36787 12.8452 2.46788 13.0066 2.61109 13.1221C2.75431 13.2377 2.93218 13.3004 3.11538 13.3H3.23077V14.2774C3.23046 14.5169 3.28239 14.7536 3.38287 14.9705C3.48335 15.1874 3.6299 15.3792 3.81208 15.5323C3.82348 15.5419 3.83577 15.5504 3.84877 15.5577L4.38462 15.8545V16.6308L1.58262 17.0357C1.57485 17.0368 1.56714 17.0384 1.55954 17.0403C0.582923 17.2872 0 17.9823 0 18.9V22.7333C0 22.7952 0.0243132 22.8546 0.0675908 22.8983C0.110868 22.9421 0.169565 22.9667 0.230769 22.9667H11.7692C11.8304 22.9667 11.8891 22.9421 11.9324 22.8983C11.9757 22.8546 12 22.7952 12 22.7333V18.9C12 17.9823 11.4171 17.2872 10.4407 17.0403ZM4.84615 16.9962C5.07384 17.142 5.33212 17.2318 5.60031 17.2585L5.71569 17.6085C5.39286 17.578 5.08815 17.4438 4.84615 17.2256V16.9962ZM6.28431 17.6085L6.39969 17.2585C6.66788 17.2318 6.92616 17.142 7.15385 16.9962V17.2256C6.91185 17.4438 6.60714 17.578 6.28431 17.6085ZM8.355 10.2837C8.49413 10.3588 8.62227 10.453 8.73577 10.5637C8.75678 10.697 8.76797 10.8317 8.76923 10.9667V11.6667H8.71615L8.355 10.2837ZM3.23077 8.63333C3.23077 8.169 4.33523 7.46667 6 7.46667C7.66477 7.46667 8.76923 8.169 8.76923 8.63333V9.99367C8.5525 9.85167 8.31928 9.73725 8.07485 9.653C8.06006 9.64574 8.0446 9.63995 8.02869 9.63573C7.37317 9.42431 6.68798 9.32217 6 9.33333C5.26493 9.31831 4.53317 9.43686 3.83954 9.68333C3.83672 9.6842 3.83395 9.68522 3.83123 9.68637C3.62037 9.76583 3.41896 9.8689 3.23077 9.99367V8.63333ZM3.27485 11.6667H3.23077V10.9667C3.23207 10.8319 3.24325 10.6975 3.26423 10.5644C3.35254 10.4775 3.45041 10.4012 3.55592 10.3369L3.27485 11.6667ZM3.11538 12.8333C3.02358 12.8333 2.93553 12.7965 2.87062 12.7308C2.8057 12.6652 2.76923 12.5762 2.76923 12.4833C2.76923 12.3905 2.8057 12.3015 2.87062 12.2358C2.93553 12.1702 3.02358 12.1333 3.11538 12.1333H3.46154C3.49034 12.133 3.51882 12.1272 3.54554 12.1163C3.58037 12.1014 3.6113 12.0785 3.63589 12.0494C3.66047 12.0203 3.67805 11.9859 3.68723 11.9488L4.01538 10.3969C4.02462 10.3635 4.03523 10.3096 4.04677 10.2492L4.04762 10.2448C4.05576 10.2034 4.06863 10.138 4.08 10.0882C4.69984 9.88543 5.34864 9.78805 6 9.8C6.6116 9.79091 7.22105 9.87548 7.80762 10.0508C7.81777 10.0837 7.82839 10.1208 7.83831 10.1556C7.854 10.2088 7.86831 10.2566 7.87823 10.2853L8.31531 11.9595C8.31622 11.9631 8.31788 11.9662 8.31952 11.9693C8.32078 11.9716 8.32202 11.974 8.32292 11.9765C8.33918 12.0215 8.36842 12.0605 8.40685 12.0884C8.44528 12.1164 8.49113 12.132 8.53846 12.1333H8.88462C8.97642 12.1333 9.06447 12.1702 9.12938 12.2358C9.1943 12.3015 9.23077 12.3905 9.23077 12.4833C9.23077 12.5762 9.1943 12.6652 9.12938 12.7308C9.06447 12.7965 8.97642 12.8333 8.88462 12.8333H8.76923V12.6C8.76923 12.5381 8.74492 12.4788 8.70164 12.435C8.65836 12.3912 8.59967 12.3667 8.53846 12.3667C8.47726 12.3667 8.41856 12.3912 8.37528 12.435C8.33201 12.4788 8.30769 12.5381 8.30769 12.6V12.9848L7.50462 14H4.49538L3.69231 12.9848V12.6C3.69231 12.5381 3.668 12.4788 3.62472 12.435C3.58144 12.3912 3.52274 12.3667 3.46154 12.3667C3.40033 12.3667 3.34164 12.3912 3.29836 12.435C3.25508 12.4788 3.23077 12.5381 3.23077 12.6V12.8333H3.11538ZM4.93408 16.159C5.14067 16.2732 5.37227 16.3331 5.60769 16.3333H6.39231C6.62757 16.333 6.85901 16.2731 7.06546 16.159L7.15385 16.1103V16.3956C7.03545 16.5232 6.89247 16.6249 6.73371 16.6944C6.57495 16.764 6.40379 16.7999 6.23077 16.8C6.18232 16.8 6.13509 16.8154 6.09578 16.844C6.05647 16.8727 6.02708 16.9131 6.01177 16.9596L6 16.9955L5.98823 16.9596C5.97292 16.9131 5.94353 16.8727 5.90422 16.844C5.86491 16.8154 5.81768 16.8 5.76923 16.8C5.59621 16.7999 5.42505 16.764 5.26629 16.6944C5.10753 16.6249 4.96455 16.5232 4.84615 16.3956V16.1103L4.93408 16.159ZM5.30769 19.1333C5.3689 19.1333 5.42759 19.1088 5.47087 19.065C5.51415 19.0212 5.53846 18.9619 5.53846 18.9V18.6667C5.53846 18.6048 5.51415 18.5454 5.47087 18.5017C5.42759 18.4579 5.3689 18.4333 5.30769 18.4333C5.24649 18.4333 5.18779 18.4579 5.14451 18.5017C5.10124 18.5454 5.07692 18.6048 5.07692 18.6667V18.9C5.07692 18.9619 5.10124 19.0212 5.14451 19.065C5.18779 19.1088 5.24649 19.1333 5.30769 19.1333ZM5.47087 20.2317C5.42759 20.2754 5.3689 20.3 5.30769 20.3C5.24649 20.3 5.18779 20.2754 5.14451 20.2317C5.10124 20.1879 5.07692 20.1286 5.07692 20.0667V19.8333C5.07692 19.7715 5.10124 19.7121 5.14451 19.6683C5.18779 19.6246 5.24649 19.6 5.30769 19.6C5.3689 19.6 5.42759 19.6246 5.47087 19.6683C5.51415 19.7121 5.53846 19.7715 5.53846 19.8333V20.0667C5.53846 20.1286 5.51415 20.1879 5.47087 20.2317Z" fill="#217592"/>
<path d="M8.355 10.2837C8.49413 10.3588 8.62227 10.453 8.73577 10.5637C8.75678 10.697 8.76797 10.8317 8.76923 10.9667V11.6667H8.71615L8.355 10.2837Z" fill="#217592"/>
<path d="M3.27485 11.6667H3.23077V10.9667C3.23207 10.8319 3.24325 10.6975 3.26423 10.5644C3.35254 10.4775 3.45041 10.4012 3.55592 10.3369L3.27485 11.6667Z" fill="#217592"/>
<path fill-rule="evenodd" clip-rule="evenodd" d="M22.4012 16.4948C22.3885 16.4916 22.3756 16.489 22.3627 16.4872L17.6923 15.8221V14.5467L18.5854 14.0591C18.6071 14.0472 18.6275 14.0332 18.6465 14.0174C18.9502 13.7658 19.1944 13.4507 19.3619 13.0944C19.5293 12.738 19.6159 12.3493 19.6154 11.9558V10.35H19.8077C20.113 10.3507 20.4095 10.2476 20.6482 10.0578C20.8869 9.86803 21.0536 9.60285 21.1208 9.30599C21.1879 9.00912 21.1516 8.6983 21.0178 8.42476C20.884 8.15121 20.6607 7.93128 20.3846 7.80122V6.51667C20.3832 6.3211 20.3703 6.12578 20.3462 5.9317C20.3707 5.88177 20.3838 5.82705 20.3846 5.77147V2.68333C20.3846 1.38728 18.2212 0 15 0C11.7788 0 9.61538 1.38728 9.61538 2.68333V5.77147C9.61618 5.82705 9.62931 5.88177 9.65385 5.9317C9.62966 6.12578 9.61682 6.3211 9.61538 6.51667V7.80122C9.33933 7.93128 9.11599 8.15121 8.98217 8.42476C8.84835 8.6983 8.81205 9.00912 8.87925 9.30599C8.94644 9.60285 9.11313 9.86803 9.35182 10.0578C9.59051 10.2476 9.88697 10.3507 10.1923 10.35H10.3846V11.9558C10.3841 12.3493 10.4707 12.738 10.6381 13.0944C10.8056 13.4507 11.0498 13.7658 11.3535 14.0174C11.3725 14.0332 11.3929 14.0472 11.4146 14.0591L12.3077 14.5467V15.8221L7.63769 16.4872C7.62474 16.489 7.6119 16.4916 7.59923 16.4948C5.97154 16.9004 5 18.0423 5 19.55V22.6167C5 22.7183 5.04052 22.8158 5.11265 22.8877C5.18478 22.9596 5.28261 23 5.38462 23H24.6154C24.7174 23 24.8152 22.9596 24.8874 22.8877C24.9595 22.8158 25 22.7183 25 22.6167V19.55C25 18.0423 24.0285 16.9004 22.4012 16.4948ZM13.0769 16.4224C13.4564 16.6618 13.8869 16.8094 14.3338 16.8533L14.5262 17.4282C13.9881 17.3781 13.4803 17.1577 13.0769 16.7992V16.4224ZM15.4738 17.4282L15.6662 16.8533C16.1131 16.8094 16.5436 16.6618 16.9231 16.4224V16.7992C16.5197 17.1577 16.0119 17.3781 15.4738 17.4282ZM18.925 5.39465C19.1569 5.51798 19.3704 5.67279 19.5596 5.85465C19.5946 6.07364 19.6133 6.29492 19.6154 6.51667V7.66667H19.5269L18.925 5.39465ZM10.3846 2.68333C10.3846 1.9205 12.2254 0.766667 15 0.766667C17.7746 0.766667 19.6154 1.9205 19.6154 2.68333V4.91817C19.2542 4.68489 18.8655 4.49692 18.4581 4.3585C18.4334 4.34657 18.4077 4.33707 18.3812 4.33013C17.2886 3.98279 16.1466 3.815 15 3.83333C13.7749 3.80866 12.5553 4.00342 11.3992 4.40833C11.3945 4.40976 11.3899 4.41143 11.3854 4.41332C11.0339 4.54386 10.6983 4.7132 10.3846 4.91817V2.68333ZM10.4581 7.66667H10.3846V6.51667C10.3868 6.29531 10.4054 6.07441 10.4404 5.8558C10.5876 5.71311 10.7507 5.5877 10.9265 5.48205L10.4581 7.66667ZM10.1923 9.58333C10.0393 9.58333 9.89256 9.52275 9.78436 9.41492C9.67617 9.30709 9.61538 9.16083 9.61538 9.00833C9.61538 8.85583 9.67617 8.70958 9.78436 8.60175C9.89256 8.49391 10.0393 8.43333 10.1923 8.43333H10.7692C10.8172 8.43271 10.8647 8.42322 10.9092 8.40535C10.9673 8.38082 11.0188 8.34319 11.0598 8.29543C11.1008 8.24767 11.1301 8.19108 11.1454 8.13012L11.6923 5.58057C11.7077 5.52575 11.7254 5.4372 11.7446 5.33792L11.746 5.33082C11.7596 5.26278 11.7811 5.15523 11.8 5.07342C12.8331 4.74034 13.9144 4.58037 15 4.6C16.0193 4.58506 17.0351 4.72399 18.0127 5.01208C18.0296 5.06613 18.0473 5.12708 18.0638 5.1842C18.09 5.2716 18.1138 5.35018 18.1304 5.39733L18.8588 8.14775C18.8604 8.15361 18.8631 8.15874 18.8659 8.16382C18.868 8.16771 18.87 8.17158 18.8715 8.17573C18.8986 8.2496 18.9474 8.31364 19.0114 8.35958C19.0755 8.40551 19.1519 8.4312 19.2308 8.43333H19.8077C19.9607 8.43333 20.1074 8.49391 20.2156 8.60175C20.3238 8.70958 20.3846 8.85583 20.3846 9.00833C20.3846 9.16083 20.3238 9.30709 20.2156 9.41492C20.1074 9.52275 19.9607 9.58333 19.8077 9.58333H19.6154V9.2C19.6154 9.09833 19.5749 9.00083 19.5027 8.92894C19.4306 8.85705 19.3328 8.81667 19.2308 8.81667C19.1288 8.81667 19.0309 8.85705 18.9588 8.92894C18.8867 9.00083 18.8462 9.09833 18.8462 9.2V9.83212L17.5077 11.5H12.4923L11.1538 9.83212V9.2C11.1538 9.09833 11.1133 9.00083 11.0412 8.92894C10.9691 8.85705 10.8712 8.81667 10.7692 8.81667C10.6672 8.81667 10.5694 8.85705 10.4973 8.92894C10.4251 9.00083 10.3846 9.09833 10.3846 9.2V9.58333H10.1923ZM13.2235 15.047C13.5678 15.2345 13.9538 15.333 14.3462 15.3333H15.6538C16.046 15.3328 16.4317 15.2344 16.7758 15.047L16.9231 14.9669V15.4357C16.7258 15.6453 16.4874 15.8123 16.2229 15.9266C15.9583 16.0408 15.673 16.0999 15.3846 16.1C15.3039 16.1 15.2251 16.1253 15.1596 16.1724C15.0941 16.2194 15.0451 16.2858 15.0196 16.3622L15 16.4212L14.9804 16.3622C14.9549 16.2858 14.9059 16.2194 14.8404 16.1724C14.7749 16.1253 14.6961 16.1 14.6154 16.1C14.327 16.0999 14.0417 16.0408 13.7771 15.9266C13.5126 15.8123 13.2742 15.6453 13.0769 15.4357V14.9669L13.2235 15.047ZM13.8462 19.9333C13.9482 19.9333 14.046 19.8929 14.1181 19.8211C14.1902 19.7492 14.2308 19.6517 14.2308 19.55V19.1667C14.2308 19.065 14.1902 18.9675 14.1181 18.8956C14.046 18.8237 13.9482 18.7833 13.8462 18.7833C13.7441 18.7833 13.6463 18.8237 13.5742 18.8956C13.5021 18.9675 13.4615 19.065 13.4615 19.1667V19.55C13.4615 19.6517 13.5021 19.7492 13.5742 19.8211C13.6463 19.8929 13.7441 19.9333 13.8462 19.9333ZM14.1181 21.7377C14.046 21.8096 13.9482 21.85 13.8462 21.85C13.7441 21.85 13.6463 21.8096 13.5742 21.7377C13.5021 21.6658 13.4615 21.5683 13.4615 21.4667V21.0833C13.4615 20.9817 13.5021 20.8842 13.5742 20.8123C13.6463 20.7404 13.7441 20.7 13.8462 20.7C13.9482 20.7 14.046 20.7404 14.1181 20.8123C14.1902 20.8842 14.2308 20.9817 14.2308 21.0833V21.4667C14.2308 21.5683 14.1902 21.6658 14.1181 21.7377Z" fill="#17627C"/>
<path d="M18.925 5.39465C19.1569 5.51798 19.3704 5.67279 19.5596 5.85465C19.5946 6.07364 19.6133 6.29492 19.6154 6.51667V7.66667H19.5269L18.925 5.39465Z" fill="#17627C"/>
<path d="M10.4581 7.66667H10.3846V6.51667C10.3868 6.29531 10.4054 6.07441 10.4404 5.8558C10.5876 5.71311 10.7507 5.5877 10.9265 5.48205L10.4581 7.66667Z" fill="#17627C"/>
</svg>
