<svg width="26" height="19" viewBox="0 0 26 19" fill="none" xmlns="http://www.w3.org/2000/svg">
<path d="M0.324488 0.087471C-0.0104825 0.268684 0.00599149 -0.1212 0.00599149 6.94613V13.3984H12.6909H25.3759L25.3649 11.2678L25.3484 9.14266L13.4213 9.12619L1.48865 9.11521L1.47767 4.74411L1.46119 0.37302L1.25801 0.186315C1.0768 0.021575 1.01639 -0.000390053 0.763794 -0.000390053C0.604546 0.0051012 0.406858 0.0380487 0.324488 0.087471Z" fill="#17627C"/>
<path d="M3.51411 1.52555C2.64099 1.87699 2.13029 2.62381 2.13579 3.54087C2.14128 4.29318 2.4433 4.88624 3.03636 5.28161C3.47018 5.57265 3.82711 5.6715 4.36526 5.64404C5.18347 5.60011 5.85341 5.14982 6.19936 4.40849C6.32566 4.12844 6.34763 4.01861 6.34763 3.54087C6.34763 3.03566 6.33116 2.96428 6.1774 2.6348C5.96324 2.19549 5.62827 1.85503 5.19445 1.62989C4.90341 1.48162 4.80457 1.45965 4.31584 1.44318C3.87654 1.42671 3.71729 1.44867 3.51411 1.52555Z" fill="#17627C"/>
<path d="M7.24326 1.58603L7.06205 1.74528L7.04557 4.02967L7.0291 6.31406H4.82159C2.44934 6.31406 2.44934 6.31406 2.23518 6.6051C2.14732 6.72591 2.11986 6.8577 2.10338 7.29151C2.08142 7.91203 2.15281 8.19758 2.38344 8.36781C2.5372 8.48313 2.58662 8.48313 5.76061 8.49411C7.5343 8.4996 9.10482 8.49411 9.25858 8.47215C9.46725 8.45018 9.57158 8.40076 9.70887 8.26348L9.89008 8.08226V4.75452V1.42678H8.65453H7.41898L7.24326 1.58603Z" fill="#17627C"/>
<path d="M10.5488 4.74605V8.06281L10.6916 8.23304C10.7685 8.3264 10.9167 8.42524 11.0321 8.4527C11.1474 8.48015 14.217 8.49663 18.2916 8.49114L25.3479 8.48564V5.54779C25.3479 2.68132 25.3425 2.60444 25.2326 2.36282C25.0734 2.02236 24.8647 1.78623 24.5572 1.60502L24.3046 1.45675L17.4295 1.44028L10.5488 1.42929V4.74605Z" fill="#17627C"/>
<path d="M0.016474 16.3697L0.0329479 18.6815L0.214162 18.8408L0.389884 19H1.40578C2.49306 19 2.62485 18.9725 2.76763 18.7254C2.85 18.5882 2.86098 18.3191 2.86098 16.3147V14.0578H1.43324H0L0.016474 16.3697Z" fill="#17627C"/>
<path d="M22.5195 16.3697V18.6815L22.6788 18.8408L22.838 19H23.9033C24.7984 19 24.9851 18.9835 25.095 18.9121C25.364 18.7199 25.375 18.6156 25.375 16.2543V14.0578H23.9473H22.5195V16.3697Z" fill="#17627C"/>
</svg>
