<svg width="16" height="28" viewBox="0 0 16 28" fill="none" xmlns="http://www.w3.org/2000/svg">
<path d="M3.89166 3.01718L3.12374 3.9743V6.22599H3.96975V4.31175L4.62053 3.48347C4.97846 3.02946 5.27131 2.62452 5.27131 2.58157C5.27131 2.49568 4.80275 2.05393 4.71815 2.06007C4.6791 2.06007 4.30816 2.48954 3.89166 3.01718Z" fill="#17627C"/>
<path d="M10.9786 2.28707C10.8485 2.41592 10.7379 2.5509 10.7379 2.59384C10.7379 2.63679 11.0307 3.03559 11.3886 3.48961L12.0394 4.30561V6.22599H12.8854V3.98044L12.1045 3.01718C11.6685 2.48954 11.2975 2.05393 11.2715 2.05393C11.239 2.05393 11.1088 2.15823 10.9786 2.28707Z" fill="#17627C"/>
<path d="M1.43171 23.4051H14.5774V9.84586H1.43171V23.4051ZM12.0069 11.0975C12.1045 11.165 12.124 11.2447 12.111 11.527C12.098 11.8215 12.1175 11.8889 12.2672 12.0239C12.4104 12.165 12.4819 12.1834 12.7943 12.1712C13.0937 12.1589 13.1783 12.1773 13.2499 12.2693C13.328 12.3675 13.341 13.1344 13.341 16.5948C13.341 21.3436 13.3605 21.1227 12.8789 21.0491C12.6056 21.0061 12.3192 21.0859 12.1891 21.2454C12.1435 21.3067 12.111 21.4847 12.1175 21.6687C12.137 22.2209 12.4754 22.178 8.00458 22.178C3.57928 22.178 3.86563 22.2087 3.89817 21.7301C3.9307 21.2209 3.65087 20.9693 3.12374 21.0491C2.64867 21.1227 2.66819 21.3374 2.66819 16.5948C2.66819 13.1344 2.68121 12.3675 2.7593 12.2693C2.83089 12.1773 2.91549 12.1589 3.21485 12.1712C3.52722 12.1834 3.59881 12.165 3.74198 12.0239C3.89166 11.8889 3.91118 11.8215 3.89817 11.527C3.88515 11.2447 3.90467 11.165 4.00229 11.0975C4.18451 10.9686 11.8247 10.9686 12.0069 11.0975Z" fill="#17627C"/>
<path d="M0.924106 24.0309C0.872044 24.0799 0.846013 24.3069 0.846013 24.6444V25.1843H15.1631V24.7057C15.1631 24.3744 15.1306 24.1904 15.059 24.0922L14.9614 23.9572H7.97855C2.64216 23.9572 0.982676 23.9756 0.924106 24.0309Z" fill="#17627C"/>
<path d="M0.455545 26.0617C0.214757 26.3684 0.195234 26.4175 0.195234 26.7979V27.209H15.8139V26.7979C15.8139 26.4175 15.7944 26.3684 15.5536 26.0617L15.2868 25.7365H0.722365L0.455545 26.0617Z" fill="#17627C"/>
<path d="M6.0197 0.329889C5.91558 0.391243 5.60321 0.655064 5.33639 0.91275L4.8483 1.37904L5.38845 1.88214L5.92209 2.39138L6.3516 1.99258C6.97635 1.41585 7.15857 1.1643 7.15857 0.869802C7.15857 0.679605 7.11301 0.587575 6.9373 0.421919C6.67699 0.176504 6.33859 0.139692 6.0197 0.329889Z" fill="#17627C"/>
<path d="M9.26709 0.27467C9.04583 0.35443 8.85059 0.636658 8.85059 0.869802C8.85059 1.17044 8.97424 1.3545 9.55994 1.90055L10.0871 2.39138L10.6207 1.88214L11.1609 1.37904L10.7379 0.974103C9.98946 0.256264 9.6901 0.109015 9.26709 0.27467Z" fill="#17627C"/>
<path d="M0.0846013 6.82112C0.0195234 6.83953 0 7.14629 0 8.03592C0 9.06053 0.0130156 9.22619 0.104125 9.25686C0.162695 9.27527 0.644271 9.29368 1.17791 9.29368H2.14757V6.77817L1.15839 6.78431C0.611732 6.78431 0.123648 6.80271 0.0846013 6.82112Z" fill="#17627C"/>
<path d="M2.73327 9.29368H4.94592V6.77817H2.73327V9.29368Z" fill="#17627C"/>
<path d="M5.53162 9.29368H7.67919V6.77817H5.53162V9.29368Z" fill="#17627C"/>
<path d="M8.32997 9.29368H10.4775V6.77817H8.32997V9.29368Z" fill="#17627C"/>
<path d="M11.0632 9.29368H13.2759V6.77817H11.0632V9.29368Z" fill="#17627C"/>
<path d="M13.8616 9.29368H14.8573C15.3974 9.29368 15.8855 9.26914 15.9311 9.24459C15.9896 9.20165 16.0092 8.91328 15.9961 7.99911L15.9766 6.80885L14.9224 6.79044L13.8616 6.77817V9.29368Z" fill="#17627C"/>
<path d="M4.47085 11.8092C4.41228 12.2509 3.98277 12.6559 3.51421 12.7111L3.25389 12.7479V20.4539L3.50119 20.4969C4.00229 20.5766 4.49037 21.0675 4.49037 21.4908V21.6258H11.5188V21.4847C11.5253 21.2577 11.7531 20.8527 11.9548 20.7178C12.0589 20.6503 12.2802 20.5582 12.4494 20.5153L12.7553 20.4478V12.7295H12.5991C12.0719 12.7295 11.5188 12.208 11.5188 11.7172V11.5638H4.5099L4.47085 11.8092Z" fill="#17627C"/>
</svg>
