<svg width="166" height="95" viewBox="0 0 166 95" fill="none" xmlns="http://www.w3.org/2000/svg">
<path d="M49.2999 28.2798C51.0699 34.8498 52.7899 40.7398 54.2099 46.6898C54.9007 49.4152 55.2368 52.2183 55.2099 55.0298C55.0599 60.5698 51.5599 63.4198 46.0699 63.1098C41.6799 62.8698 38.8199 60.2698 36.1699 56.6098C35.0899 58.0298 34.1699 59.1398 33.3799 60.2998C30.8299 63.8698 27.3799 65.7398 23.0499 64.8198C18.8899 63.9398 16.6999 60.8198 16.0499 56.7198C15.9886 56.396 15.8808 56.0828 15.7299 55.7898C15.6799 55.6798 15.4999 55.6198 15.3799 55.5398C11.5499 59.0498 9.37988 59.7598 4.72988 59.1098C1.22988 58.6198 0.519877 57.3098 2.03988 53.9698C3.22738 51.1961 5.28396 48.8833 7.89988 47.3798C10.0699 46.1698 12.3299 45.1098 14.7899 43.8598C14.9299 40.9198 15.2899 37.8598 17.7899 35.2098C18.1699 40.9898 18.4399 46.4498 18.9099 51.8998C19.3999 57.5198 22.2399 59.4198 27.7099 58.0298C33.1799 56.6398 34.5999 54.4398 34.0099 48.7298C33.7513 44.9206 33.2638 41.1304 32.5499 37.3798C31.8599 34.3798 32.5499 31.9398 34.7599 29.3798C35.1599 31.6698 35.5899 33.9498 35.9599 36.2498C36.6599 40.5098 37.1399 44.8098 38.0699 49.0198C38.5292 51.2482 39.7347 53.2533 41.4873 54.7041C43.24 56.1549 45.4349 56.9647 47.7099 56.9998C51.5599 57.1598 52.7099 55.9998 51.7099 52.2698C50.3699 47.1298 48.8099 42.0398 47.3299 36.9398C46.8577 35.4516 46.7913 33.8644 47.1376 32.342C47.4839 30.8196 48.2304 29.4172 49.2999 28.2798ZM14.7799 47.2798C11.4399 48.6098 7.99988 49.0498 5.59988 52.9998C7.91988 52.9998 9.52988 53.0798 11.1199 52.9998C14.8399 52.7898 15.1199 52.3798 14.7799 47.3298V47.2798Z" fill="black"/>
<path d="M138 59.3499C134.84 62.3499 130.88 62.6799 126.58 61.6499C125.491 61.5203 124.387 61.5846 123.32 61.8399C120.87 62.1799 118.44 62.8399 115.99 62.9099C114.23 62.9899 112.6 62.1799 111.24 64.3099C110.77 65.0499 108.38 65.0499 107.08 64.6699C104.08 63.7799 101.25 62.4399 98.15 61.2099C95.58 62.4999 94.62 64.8499 95 67.7199C95.75 73.4799 96.71 79.2099 97.45 84.9699C97.85 88.0699 97.96 91.1999 98.2 94.3099L97.2 94.4999C96.7546 93.4058 96.3935 92.2791 96.12 91.1299C95.24 85.7099 94.4 80.3032 93.6 74.9099C93.26 72.6099 93.12 70.2899 92.8 67.9899C92.03 62.4499 94.17 58.2799 98.7 55.1899C99.25 54.8199 99.7 54.3599 100.27 53.9599C105.27 50.1699 106.4 50.2199 110.21 54.4499C114.3 58.9999 121.42 58.8599 126.59 54.8899C127.74 53.9999 128.79 52.9799 130.71 51.2899L129.27 56.5999C134.53 57.8299 135.75 57.4099 141.53 52.3699C142.33 55.6899 143.27 56.5199 146.06 57.0899C149.72 57.8499 150.37 54.8099 151.99 52.2699C154.19 56.7799 157.88 56.0299 161.99 55.8299C161.55 51.1599 159.3 47.7399 156.91 44.4499C155.98 43.1799 153.74 42.4499 153.46 41.2199C153.09 39.4999 154.03 37.4899 154.46 35.3999C161 40.2199 165.11 49.8799 163.93 56.9999C163.21 61.2999 161.01 62.6299 156.86 60.9999C154.976 60.1582 153.143 59.2065 151.37 58.1499C149.78 59.8299 148.87 63.0799 145.5 62.1499C143.16 61.5199 140.94 60.4699 138 59.3499ZM100.85 56.9999C103.85 57.9399 105.85 59.4899 108.59 58.6299C105.09 54.2699 105.09 54.2699 100.85 56.9999Z" fill="black"/>
<path d="M66.61 18.4199C67.7 31.4199 70.86 44.1799 70.11 57.2799C70.0304 58.428 69.8292 59.5643 69.51 60.6699C69.41 61.0499 68.83 61.2999 68.3 61.7499C67.52 54.6799 66.77 47.7499 66 40.9099C65.47 36.1499 65.1 31.3599 64.33 26.6399C64.1028 25.1864 64.1887 23.7012 64.5819 22.2836C64.9751 20.866 65.6665 19.5487 66.61 18.4199Z" fill="black"/>
<path d="M62.3198 11.4L60.5198 13.4L59.8398 13L62.1599 8.13998C62.9779 7.96709 63.8176 7.91988 64.6498 7.99998C66.4398 8.48997 67.4398 7.76998 68.3098 6.28998C69.0909 5.00155 69.9915 3.78953 70.9998 2.66998C72.1498 1.34998 73.5698 0.429975 75.3798 1.39997C76.7598 2.13997 77.3798 4.48998 76.7498 6.34998C75.8398 9.16998 72.0499 12 68.6199 12.09C66.5074 11.9934 64.4031 11.763 62.3198 11.4ZM68.2598 8.39997C71.0698 8.80997 72.7098 8.23998 74.0798 7.09998C74.3161 6.81892 74.4776 6.48274 74.5493 6.12261C74.621 5.76248 74.6005 5.39009 74.4898 5.03998C74.1698 4.53998 72.8198 4.03998 72.4898 4.32998C70.9982 5.60982 69.5856 6.979 68.2598 8.42998V8.39997Z" fill="black"/>
<path d="M132.87 31.4902C134.4 27.2502 135.97 26.1602 139.5 27.0802C141.7 27.8085 143.851 28.677 145.94 29.6802C145.2 31.1302 144.94 32.5002 144.05 33.2502C141.05 35.9002 137.39 37.2502 132.75 37.8102C134.92 34.5802 138.5 34.7402 140.56 32.3302C138.43 29.9002 135.85 31.0002 132.87 31.4902Z" fill="black"/>
<path d="M26.2499 19.0001L27.4299 22.5901C30.7099 22.9501 31.63 20.5901 32.54 18.3001C34.35 18.4001 33.94 21.5101 36.33 20.7201C38.72 19.9301 37.22 17.7201 38.33 16.5801C39.97 21.5101 38.53 23.5801 33.7699 23.4901C32.7149 23.5536 31.6962 23.8989 30.8199 24.4901C29.3099 25.4101 27.7699 26.1401 26.2499 24.8901C24.4199 23.4101 24.7799 21.5501 26.2499 19.0001Z" fill="black"/>
<path d="M40.0597 6.14984C36.5397 10.7198 30.4997 10.9998 25.4697 14.6798C25.6097 11.8298 26.5397 10.4198 28.1797 9.67984C31.8397 7.97984 35.5697 6.43984 39.2697 4.83984L40.0597 6.14984Z" fill="black"/>
<path d="M15.2599 69.8198C14.8199 70.9898 14.7699 71.8198 14.3799 72.0398C10.3799 74.2998 5.9399 75.4698 0.649902 76.9898C1.5999 75.3698 1.8699 74.1698 2.5399 73.8698C6.61788 72.0557 10.8837 70.6974 15.2599 69.8198Z" fill="black"/>
<path d="M101.23 78.8498C103.23 75.2298 104.93 74.4398 115.02 72.2598C114.3 74.4898 114.3 74.4998 109.02 76.2598L101.23 78.8498Z" fill="black"/>
<path d="M166 78.23C165.39 79.07 165.09 79.96 164.52 80.23C160.573 82.0019 156.431 83.3009 152.18 84.1C154.1 80.92 158.84 79 166 78.23Z" fill="black"/>
<path d="M157.72 67.73L162.28 71.56L159.08 75.5L154.71 71.5L157.72 67.73Z" fill="black"/>
</svg>
