<svg width="25" height="22" viewBox="0 0 25 22" fill="none" xmlns="http://www.w3.org/2000/svg">
<path d="M6.59603 0.0673628C6.49992 0.188118 6.3003 0.624316 6.24855 0.826396C6.20912 0.971795 6.1968 1.09994 6.19434 1.31927C6.19434 1.78012 6.28059 2.09802 6.61821 2.85706C6.72664 3.09857 6.83261 3.36226 6.85479 3.43865C6.90901 3.62102 6.89669 3.91674 6.83015 4.05475C6.78333 4.15086 6.57385 4.37759 6.44324 4.4737L6.3767 4.52298L6.7784 5.1588C7.00019 5.50874 7.19242 5.80693 7.2072 5.82172C7.25649 5.87101 7.75183 5.50135 8.04263 5.1933C8.42461 4.78914 8.59219 4.40962 8.59219 3.93892C8.59219 3.52983 8.49361 3.18236 8.17078 2.45782C7.80851 1.64704 7.7469 1.38581 7.85041 1.09748C7.87998 1.01615 7.90709 0.937294 7.90955 0.920043C7.91448 0.897863 6.69461 0.000823975 6.65764 0.000823975C6.65271 0.000823975 6.6256 0.0303969 6.59603 0.0673628Z" fill="#17627C"/>
<path d="M11.0072 0.0664535C10.9111 0.187209 10.7114 0.623406 10.6597 0.825487C10.6203 0.970886 10.6079 1.09903 10.6055 1.31837C10.6055 1.77921 10.6917 2.09711 11.0293 2.85615C11.1378 3.09766 11.2437 3.36135 11.2659 3.43774C11.3201 3.62011 11.3078 3.91584 11.2413 4.05384C11.1945 4.14995 10.985 4.37668 10.8544 4.47279L10.7854 4.52208L11.1821 5.1505C11.4015 5.49551 11.5937 5.7937 11.6109 5.81342C11.638 5.84053 11.6676 5.8282 11.7982 5.73949C12.1753 5.48812 12.5154 5.16528 12.7051 4.88434C12.9121 4.57629 13.0033 4.29289 13.0033 3.93802C13.0033 3.524 12.9072 3.19377 12.5622 2.41009C12.2936 1.80139 12.2394 1.6412 12.2221 1.41694C12.2123 1.27893 12.2196 1.21486 12.2615 1.09657C12.2911 1.01524 12.3182 0.936385 12.3207 0.919134C12.3256 0.896954 11.1057 -8.4877e-05 11.0688 -8.4877e-05C11.0638 -8.4877e-05 11.0367 0.0294876 11.0072 0.0664535Z" fill="#17627C"/>
<path d="M15.116 0.140818C14.835 0.606588 14.734 0.988569 14.7611 1.46173C14.7857 1.86096 14.8769 2.15669 15.1997 2.88862C15.424 3.39382 15.4758 3.57618 15.4634 3.78319C15.4486 4.02963 15.318 4.23417 15.042 4.45104L14.9459 4.52497L15.3575 5.17557C15.5842 5.53537 15.7813 5.82617 15.8011 5.82617C15.8479 5.82124 16.0697 5.66845 16.3063 5.47623C16.9741 4.93653 17.255 4.30071 17.1343 3.60822C17.0801 3.29524 16.979 3.00691 16.7129 2.40313C16.4048 1.70078 16.3925 1.66381 16.3925 1.36808C16.3925 1.16354 16.4024 1.10439 16.4467 1.01321C16.4763 0.951602 16.4985 0.89985 16.496 0.897386C16.0623 0.586873 15.254 0.0175977 15.2318 0.00774002C15.217 0.00281143 15.1628 0.0619569 15.116 0.140818Z" fill="#17627C"/>
<path d="M11.3136 6.95935C11.0203 7.03328 10.7838 7.28218 10.7862 7.52123C10.7862 7.56559 10.87 7.92539 10.9686 8.32216L11.1485 9.04176L8.28732 9.05162C5.44095 9.05901 5.42616 9.05901 5.22901 9.11076C4.29501 9.3646 3.6099 10.0522 3.39304 10.9541C3.36593 11.0626 3.34375 11.1661 3.34375 11.1809C3.34375 11.2055 5.10826 11.2129 12.08 11.2129H20.8163V11.1611C20.8163 11.0527 20.7103 10.7003 20.6191 10.5056C20.4885 10.2247 20.3678 10.0497 20.1386 9.81312C19.8182 9.47549 19.4313 9.24877 18.9483 9.11076C18.7585 9.05655 18.7561 9.05655 15.7963 9.04915C13.1816 9.04422 12.8317 9.0393 12.8317 9.00479C12.8317 8.98508 12.9105 8.65978 13.0042 8.28026C13.1003 7.90075 13.1767 7.5508 13.1767 7.50398C13.1767 7.32161 12.9943 7.09735 12.7602 6.99139C12.6567 6.9421 12.6 6.93717 12.0431 6.93224C11.6167 6.92731 11.4023 6.93717 11.3136 6.95935Z" fill="#17627C"/>
<path d="M0.617711 12.4211C0.188907 12.4851 0.0656873 12.6256 0.0139351 13.1136C-0.0279596 13.5276 0.026257 13.8948 0.154405 14.0451C0.376201 14.3113 0.881401 14.326 1.34964 14.0821C1.43835 14.0352 1.59361 13.9293 1.69465 13.8455C2.0372 13.5645 2.39207 13.4463 3.00571 13.4167L3.31869 13.3994V16.4553C3.31869 19.834 3.31376 19.7305 3.47641 20.1617C3.63906 20.593 3.95203 21.0144 4.32909 21.2978C4.5361 21.4555 4.92547 21.6453 5.19162 21.7168L5.4011 21.7734H12.0796H18.7581L18.9676 21.7168C19.3865 21.6034 19.8055 21.3619 20.1111 21.0563C20.4142 20.7556 20.6483 20.3515 20.769 19.9251L20.8257 19.728L20.8405 16.5736L20.8528 13.4191L21.1387 13.4241C21.7154 13.4315 22.0678 13.5424 22.43 13.8282C22.7972 14.119 23.1176 14.2521 23.4528 14.2521C23.7781 14.2521 24.0097 14.1042 24.0861 13.8504C24.1403 13.6754 24.1453 12.9854 24.0935 12.8055C24.0516 12.6503 23.9432 12.5418 23.7608 12.4679L23.613 12.4087L12.1782 12.4063C5.88905 12.4038 0.686714 12.4112 0.617711 12.4211Z" fill="#17627C"/>
</svg>
