<svg width="24" height="23" viewBox="0 0 24 23" fill="none" xmlns="http://www.w3.org/2000/svg">
<path d="M17.0866 0.0342464C16.3387 0.22123 12.8608 1.17016 12.8 1.20288C12.7393 1.23561 12.6832 1.20288 12.5476 1.06265C12.4541 0.964481 12.2578 0.824245 12.1082 0.749453L11.8418 0.618565L9.53253 0.604542C7.52715 0.595192 7.19058 0.599867 6.9662 0.665312C6.82596 0.707382 6.66235 0.772825 6.60626 0.810223C6.51277 0.870991 6.47537 0.866316 6.22762 0.749453L5.95182 0.618565L3.67065 0.604542C1.12769 0.590519 1.01083 0.599867 0.604145 0.889688C0.356394 1.06732 0.108643 1.40856 0.038525 1.67034C0.00580315 1.7872 -0.00354594 5.15755 0.0011286 11.8889L0.0151522 21.9345L0.150714 22.1822C0.318998 22.4861 0.534027 22.6824 0.879943 22.8414L1.13704 22.9629H3.54443H5.95182L6.2136 22.832L6.47537 22.7058L6.75117 22.832L7.02697 22.9629H9.43436H11.8418L12.0989 22.8414C12.4261 22.6871 12.6878 22.4253 12.8421 22.0981L12.9636 21.841L12.987 14.2869L13.0104 6.73755L14.9924 14.1467C16.0862 18.2229 17.0165 21.668 17.0632 21.7989C17.1848 22.1355 17.4652 22.4393 17.8205 22.6123C18.3207 22.8601 18.4329 22.846 20.8543 22.1963C22.0042 21.8831 23.0186 21.5979 23.1074 21.5605C23.3598 21.439 23.6169 21.1912 23.7618 20.9248C23.8694 20.7191 23.9021 20.6022 23.9161 20.2984C23.9348 19.9291 23.9114 19.8403 21.4012 10.4819C19.8212 4.58258 18.8255 0.945784 18.7507 0.791523C18.6806 0.655962 18.5497 0.478329 18.4609 0.398861C18.101 0.0809937 17.5166 -0.073267 17.0866 0.0342464ZM17.6335 1.35247C17.7036 1.46466 18.0168 2.5959 17.9841 2.62395C17.9748 2.6333 16.9978 2.89507 15.8151 3.21294C14.6325 3.52613 13.6321 3.79726 13.59 3.8066C13.5293 3.8253 13.4825 3.69909 13.347 3.18489C13.1927 2.5959 13.1833 2.53045 13.2441 2.43229C13.2862 2.37619 13.375 2.31075 13.4451 2.29205C13.5152 2.27803 14.4034 2.03495 15.4178 1.75916C16.4322 1.48803 17.3343 1.25898 17.4138 1.2543C17.526 1.24963 17.5868 1.27768 17.6335 1.35247ZM5.72745 1.89472C5.83963 1.96483 5.88171 2.20324 5.88171 2.77353V3.35317H3.54443H1.20716V2.68939C1.20716 2.13779 1.22118 2.01158 1.28663 1.94146C1.35675 1.86199 1.48763 1.85732 3.51639 1.85732C4.70372 1.85732 5.69472 1.87602 5.72745 1.89472ZM11.6174 1.89472C11.7296 1.96483 11.7716 2.20324 11.7716 2.77353V3.35317H9.43436H7.09709V2.68939C7.09709 2.13779 7.11111 2.01158 7.17655 1.94146C7.24667 1.86199 7.37756 1.85732 9.40631 1.85732C10.5936 1.85732 11.5847 1.87602 11.6174 1.89472ZM20.1998 10.8044C21.2189 14.6095 22.0463 17.7321 22.0323 17.7414C22.0229 17.7508 21.0132 18.0266 19.7931 18.3538L17.5681 18.9521L17.5213 18.7838C17.4979 18.6904 16.6706 15.5911 15.6796 11.8936C14.6885 8.20068 13.8752 5.13885 13.8658 5.09678C13.8565 5.03601 14.2351 4.91915 16.0722 4.42832C17.2923 4.1011 18.3066 3.844 18.3207 3.8627C18.3394 3.87672 19.1855 7.00399 20.1998 10.8044ZM5.88171 11.7907V19.0129H3.54443H1.20716V11.7907V4.56856H3.54443H5.88171V11.7907ZM11.7716 11.7907V19.0129H9.43436H7.09709V11.7907V4.56856H9.43436H11.7716V11.7907ZM22.4483 19.2092C22.6119 19.7749 22.7101 20.1582 22.7101 20.2096C22.7101 20.3966 22.5465 20.4573 20.5271 20.9949C19.4145 21.2941 18.4749 21.5372 18.4422 21.5372C18.3066 21.5372 18.2132 21.3408 18.0589 20.7612C17.9701 20.434 17.9 20.1582 17.9093 20.1535C17.928 20.1348 22.266 18.9755 22.3221 18.9708C22.3548 18.9662 22.4109 19.0783 22.4483 19.2092ZM5.88171 20.8079C5.88171 21.3782 5.83963 21.6166 5.72745 21.6867C5.69472 21.7054 4.70372 21.7241 3.52574 21.7241C1.59047 21.7241 1.37077 21.7148 1.2913 21.6447C1.21651 21.5792 1.20716 21.4904 1.20716 20.8967V20.2283H3.54443H5.88171V20.8079ZM11.7716 20.8079C11.7716 21.3782 11.7296 21.6166 11.6174 21.6867C11.5847 21.7054 10.5936 21.7241 9.41566 21.7241C7.4804 21.7241 7.2607 21.7148 7.18123 21.6447C7.10644 21.5792 7.09709 21.4904 7.09709 20.8967V20.2283H9.43436H11.7716V20.8079Z" fill="#17627C"/>
<path d="M17.5211 6.47489C17.3295 6.50293 15.8804 6.90495 15.7728 6.96104C15.4737 7.11063 15.2773 7.42849 15.2773 7.75571C15.2773 7.85855 15.7495 9.71435 16.3291 11.874C17.1612 14.9779 17.4089 15.838 17.5024 15.9595C17.6614 16.1652 17.9325 16.3008 18.1989 16.3008C18.4046 16.3008 19.9192 15.9221 20.1155 15.824C20.2604 15.7492 20.4661 15.5435 20.5409 15.3986C20.6905 15.1134 20.6484 14.9124 19.5779 10.9297C18.6009 7.29293 18.4981 6.94234 18.3532 6.76003C18.1896 6.5637 17.8156 6.43282 17.5211 6.47489ZM18.3766 11.2569C18.8908 13.1642 19.2881 14.7395 19.2647 14.7582C19.218 14.8096 18.4888 14.9966 18.4607 14.9639C18.442 14.9452 16.5909 8.09228 16.5862 8.02216C16.5862 7.99879 17.2594 7.80246 17.3809 7.79778C17.437 7.79311 17.666 8.58778 18.3766 11.2569Z" fill="#17627C"/>
<path d="M2.54479 6.95727C2.30171 7.01337 2.06798 7.19567 1.9558 7.42005C1.8623 7.59768 1.8623 7.70053 1.8623 11.7908C1.8623 15.5584 1.87165 15.9932 1.9371 16.1287C2.04461 16.3391 2.14278 16.4372 2.33911 16.5401C2.49337 16.6196 2.62426 16.6289 3.52177 16.6289C4.26035 16.6289 4.56887 16.6102 4.68106 16.5635C4.88206 16.4793 5.12046 16.2035 5.18123 15.9791C5.21395 15.8529 5.22798 14.4786 5.21863 11.6879L5.2046 7.58366L5.09709 7.39668C4.9662 7.16763 4.73248 6.99934 4.46603 6.94792C4.19958 6.8965 2.77384 6.90585 2.54479 6.95727ZM3.96585 11.7908V15.4135H3.52177H3.07769V11.7908V8.16798H3.52177H3.96585V11.7908Z" fill="#17627C"/>
<path d="M8.43346 6.95727C8.18571 7.01804 7.95666 7.19567 7.84447 7.42005C7.75098 7.59769 7.75098 7.70053 7.75098 11.7674C7.75098 15.4089 7.76033 15.9511 7.82109 16.1007C7.91459 16.3251 8.01275 16.4326 8.22778 16.5401C8.38204 16.6196 8.51293 16.6289 9.40577 16.6289C9.99943 16.6289 10.4622 16.6102 10.5417 16.5775C10.7287 16.5074 10.925 16.311 11.0278 16.0913C11.112 15.9137 11.1166 15.694 11.1166 11.7861V7.67248L10.9951 7.4294C10.9063 7.2471 10.8175 7.1536 10.6585 7.05544C10.4435 6.92923 10.4295 6.92923 9.5273 6.91988C9.02713 6.9152 8.53163 6.92923 8.43346 6.95727ZM9.85452 11.7908V15.4135H9.41044H8.96636V11.7908V8.16798H9.41044H9.85452V11.7908Z" fill="#17627C"/>
</svg>
