<svg width="17" height="18" viewBox="0 0 17 18" fill="none" xmlns="http://www.w3.org/2000/svg">
<path d="M0.741052 0.148939L0.616211 0.297787V2.60255V4.90731L0.760258 5.05136C0.894703 5.181 0.933116 5.1954 1.12038 5.1762C1.25002 5.15699 1.34125 5.1714 1.35085 5.20021C1.36046 5.23382 1.37966 5.23382 1.40367 5.1954C1.42288 5.16179 1.41327 5.13779 1.37966 5.13779C1.34605 5.13779 1.35565 5.09937 1.41327 5.03695C1.4997 4.94092 1.5045 4.81608 1.52851 2.93386L1.55252 0.936399L6.17645 0.921993L10.7956 0.912392V8.8302V16.7528L9.81605 16.7672C8.96136 16.7816 8.82692 16.7912 8.74529 16.8681C8.69248 16.9113 8.63966 16.9401 8.63006 16.9305C8.62045 16.9209 8.60605 17.0169 8.59644 17.1465C8.58204 17.3578 8.59644 17.401 8.72609 17.5259L8.87014 17.6699H12.6154C15.5299 17.6651 16.3606 17.6555 16.351 17.6075C16.3462 17.5739 16.3702 17.5547 16.399 17.5595C16.447 17.5691 16.4614 15.7685 16.4614 8.83501C16.4614 1.90152 16.447 0.100922 16.399 0.110525C16.3702 0.115328 16.3462 0.09132 16.351 0.0625095C16.3606 0.0144939 14.7281 8.96454e-05 8.61565 8.96454e-05H0.865893L0.741052 0.148939ZM13.7629 6.59747C13.835 6.63588 14.1615 6.93838 14.488 7.26969C14.9826 7.76905 15.0834 7.8939 15.0834 8.01393C15.0834 8.30683 15.0882 8.30683 13.6573 8.30683C12.9419 8.30683 12.3321 8.28763 12.2985 8.26842C12.1976 8.206 12.1448 7.99953 12.2072 7.8939C12.2601 7.79786 13.4268 6.64548 13.5421 6.57346C13.6237 6.52064 13.6141 6.52064 13.7629 6.59747ZM15.021 9.44001C15.0594 9.47842 15.0834 9.57925 15.0834 9.65608C15.0834 9.78092 14.9874 9.90096 14.464 10.4147C13.811 11.0629 13.6717 11.1686 13.5565 11.1062C13.4508 11.0437 12.2505 9.85774 12.1976 9.76171C12.164 9.69929 12.1688 9.62727 12.212 9.51683L12.2793 9.36318H13.6189C14.7761 9.36318 14.9681 9.37278 15.021 9.44001Z" fill="#17627C"/>
<path d="M4.85581 2.37166C4.45248 2.5013 4.12597 2.8086 3.97712 3.20714C3.72263 3.87936 4.02033 4.6236 4.68295 4.95011C4.87021 5.04134 4.99025 5.06055 5.29755 5.06055C5.71049 5.06055 5.92176 4.98372 6.22426 4.72924C6.30589 4.66202 6.37791 4.6236 6.38751 4.64281C6.40192 4.66682 6.40192 4.65721 6.39712 4.6236C6.38751 4.58999 6.44033 4.46035 6.51236 4.33551C6.62279 4.13384 6.642 4.05221 6.642 3.6969C6.642 3.34158 6.62279 3.25995 6.51236 3.05829C6.44033 2.93344 6.38751 2.8038 6.39712 2.77019C6.40192 2.73658 6.40192 2.72698 6.38751 2.75098C6.37791 2.77019 6.29148 2.72218 6.19545 2.65015C6.09462 2.57333 5.94097 2.47249 5.84974 2.42448C5.63367 2.31404 5.1199 2.28523 4.85581 2.37166Z" fill="#17627C"/>
<path d="M3.84784 5.46926C3.52133 5.55569 3.27165 5.71894 1.74955 6.86652C1.05812 7.38989 1.07732 7.34668 1.03891 8.27338C1.02451 8.70072 0.995697 9.32973 0.97649 9.67545C0.942879 10.2804 0.942879 10.3045 1.05812 10.4677C1.12054 10.5589 1.24058 10.6646 1.32701 10.703C1.40863 10.7414 1.48066 10.8086 1.48546 10.847C1.48546 10.8998 1.49506 10.9047 1.51427 10.8614C1.52387 10.8326 1.59109 10.8038 1.65351 10.8038C1.82637 10.8038 2.12407 10.6358 2.2249 10.4821C2.29693 10.3765 2.32574 10.2084 2.34974 9.72346C2.36895 9.37775 2.39776 8.86398 2.41697 8.58068L2.45058 8.06211L2.70506 7.87005C2.83951 7.76922 2.96915 7.68279 2.98355 7.68279C3.00276 7.68279 3.01716 8.58549 3.01716 9.68505V11.6921L2.89232 12.1002C2.8251 12.3259 2.74828 12.5708 2.72907 12.6524C2.57062 13.2142 2.34494 13.9921 2.33534 14.0017C2.28732 14.0449 1.89359 14.357 1.73994 14.477C1.63911 14.5539 1.43264 14.7171 1.28379 14.8371C1.13494 14.9572 0.942879 15.106 0.856451 15.1733C0.49153 15.447 0.0881971 15.8071 0.0881971 15.8599C0.0881971 15.9031 0.0785939 15.9031 0.0497844 15.8599C0.0305781 15.8263 0.00657015 15.9463 0.00176857 16.1336C-0.0126362 16.5033 0.0593876 16.705 0.275459 16.8874C0.352284 16.9594 0.376292 16.9979 0.333078 16.9979C0.294665 16.9979 0.208237 16.9498 0.141015 16.8874L0.0161733 16.7818L0.121808 16.9018C0.21784 17.0123 0.270657 17.0267 0.61157 17.0363C1.06772 17.0507 1.13494 17.0267 1.50947 16.729C1.85518 16.4505 1.9176 16.4025 2.84911 15.6678C3.69899 15.0052 3.7422 14.9572 3.82863 14.6595C3.86224 14.5298 3.91986 14.333 3.95827 14.2129C3.99189 14.0929 4.06871 13.8336 4.12153 13.6368C4.17915 13.4399 4.24637 13.2238 4.26558 13.1566C4.28478 13.0894 4.328 12.9453 4.36161 12.8301C4.39522 12.7197 4.44323 12.6284 4.46724 12.6284C4.48645 12.6284 4.6497 12.8157 4.82736 13.0462C5.00982 13.2718 5.31232 13.656 5.49958 13.896L5.8501 14.333V15.6294C5.8501 16.8826 5.8549 16.9354 5.96054 17.1419C6.03736 17.3004 6.12379 17.3868 6.28224 17.4684C6.66637 17.6605 7.02649 17.5741 7.30978 17.2235L7.45863 17.0363V15.4229C7.45863 13.8864 7.45383 13.7952 7.3626 13.6512C7.30978 13.5695 6.93526 13.0894 6.53673 12.5804L5.80208 11.6633V10.3237C5.80208 9.58902 5.82129 8.97441 5.8453 8.96001C5.8645 8.9456 5.95093 9.03683 6.03256 9.16648C6.26784 9.5506 6.21502 9.5314 7.84276 9.75227C8.05403 9.78108 8.33252 9.82429 8.45736 9.8483C8.5822 9.87231 8.82228 9.89152 8.98553 9.89152C9.24482 9.89152 9.30724 9.87231 9.45609 9.75227C9.68657 9.56021 9.77779 9.27691 9.69617 9.03683C9.57133 8.68632 9.36486 8.55668 8.82708 8.48945C8.63022 8.46545 8.31811 8.42703 8.13085 8.39822C7.94839 8.37422 7.6747 8.3406 7.53065 8.3262C7.14173 8.28779 7.04089 8.23497 6.88244 7.98049C6.80561 7.85564 6.53673 7.44271 6.28704 7.06818C5.92692 6.516 5.8501 6.36715 5.90292 6.33354C5.95573 6.29513 5.95573 6.29033 5.88851 6.29993C5.8405 6.30953 5.75407 6.23751 5.66764 6.11747C5.50919 5.9014 5.31712 5.73814 5.00982 5.57009C4.86097 5.48846 4.72173 5.45965 4.40962 5.44525C4.18395 5.43565 3.93427 5.44525 3.84784 5.46926Z" fill="#17627C"/>
</svg>
