<svg width="14" height="24" viewBox="0 0 14 24" fill="none" xmlns="http://www.w3.org/2000/svg">
<path d="M14 6.734C14 10.898 10.25 13.714 10.25 17H8.258C8.259 14.921 9.255 13.174 10.226 11.487C11.138 9.902 12 8.404 12 6.734C12 3.626 9.483 2 6.996 2C4.513 2 2 3.626 2 6.734C2 8.404 2.862 9.902 3.774 11.487C4.745 13.174 5.74 14.921 5.741 17H3.75C3.75 13.714 0 10.897 0 6.734C0 2.391 3.498 0 6.996 0C10.498 0 14 2.394 14 6.734ZM10 18.5C10 18.776 9.776 19 9.5 19H4.5C4.224 19 4 18.776 4 18.5C4 18.224 4.224 18 4.5 18H9.5C9.776 18 10 18.224 10 18.5ZM10 20.5C10 20.776 9.776 21 9.5 21H4.5C4.224 21 4 20.776 4 20.5C4 20.224 4.224 20 4.5 20H9.5C9.776 20 10 20.224 10 20.5ZM8.299 23.659C8.109 23.875 7.834 24 7.546 24H6.453C6.165 24 5.891 23.875 5.701 23.659L4.25 22H9.75L8.299 23.659ZM6.117 12.536L9.75 7H7.637L8.687 3.537L4.893 9H7.195L6.117 12.536Z" fill="#17627C"/>
</svg>
