
<svg width="28" height="21" viewBox="0 0 28 21" fill="none" xmlns="http://www.w3.org/2000/svg">
<path d="M24.9992 0.932241C25.0214 0.987621 25.11 1.17591 25.1949 1.34944C25.3573 1.66695 25.5161 1.99185 25.9111 2.82624C26.1733 3.36897 26.3948 3.83416 26.8046 4.69071C27.1849 5.47711 27.1849 5.4808 27.1332 5.54726C27.1074 5.5731 26.9781 5.65802 26.8452 5.73186C26.7123 5.8057 26.5092 5.92754 26.3985 6.00138C26.2877 6.07522 26.0145 6.24505 25.7893 6.37427C25.5678 6.4998 25.3352 6.64379 25.2724 6.68809C25.2133 6.73239 25.062 6.821 24.9401 6.88746C24.8183 6.95391 24.6706 7.04252 24.6079 7.08683C24.5488 7.13113 24.3162 7.27143 24.091 7.40065C23.8695 7.52987 23.6442 7.66647 23.5926 7.70339C23.5409 7.74031 23.3415 7.86584 23.1495 7.9766C22.5994 8.29781 21.9681 8.68178 21.7465 8.82577C21.5398 8.95868 20.4691 9.60478 20.2328 9.73769C20.1627 9.7783 20.0224 9.86322 19.919 9.92968C19.8193 9.99613 19.5867 10.1401 19.4021 10.2472C19.2212 10.3543 18.9886 10.4946 18.8852 10.561C18.7856 10.6275 18.6231 10.7235 18.5271 10.7751C18.4348 10.8268 18.2576 10.9376 18.1358 11.0188C18.0139 11.1037 17.9069 11.1702 17.8958 11.1702C17.881 11.1702 17.7444 11.2477 17.5857 11.3437C17.4269 11.4434 17.2718 11.5357 17.2386 11.5579C17.2054 11.5763 17.054 11.6686 16.9063 11.7572C16.7549 11.8458 16.526 11.9898 16.3931 12.0747C16.0719 12.2815 15.507 12.6101 15.4701 12.6101C15.4554 12.6101 15.4221 12.6359 15.3963 12.6655C15.3704 12.6987 15.1895 12.8131 14.9939 12.9276C14.7982 13.042 14.5434 13.1934 14.429 13.2636L14.2148 13.3965V13.8321C14.2148 14.0758 14.2222 14.2715 14.2296 14.2715C14.2628 14.2715 14.7133 14.002 14.7871 13.9392C14.8683 13.8691 15.6104 13.4223 15.6437 13.4223C15.6584 13.4223 15.7249 13.378 15.795 13.3226C15.8689 13.2673 16.1347 13.0974 16.3894 12.9424C17.1057 12.5067 17.3051 12.3849 17.6078 12.1818C17.7629 12.0784 17.9142 11.9861 17.9438 11.9714C17.9733 11.9603 18.1579 11.8495 18.3499 11.724C18.5419 11.6022 18.8409 11.4176 19.0145 11.3142C19.188 11.2108 19.38 11.089 19.439 11.0447C19.5018 11.0041 19.5941 10.9413 19.6495 10.9118C19.8415 10.8047 20.4728 10.417 20.4913 10.3949C20.5208 10.358 21.381 9.84107 21.4143 9.84107C21.429 9.84107 21.4623 9.81522 21.4881 9.78569C21.5103 9.75615 21.6912 9.63801 21.8868 9.52356C22.0825 9.4091 22.2782 9.28358 22.3188 9.25035C22.3594 9.21712 22.4443 9.16174 22.5034 9.1322C22.6474 9.05836 23.3083 8.65593 23.3341 8.6264C23.3563 8.60055 23.659 8.40118 23.6775 8.40118C23.7033 8.40118 24.7371 7.76247 25.0841 7.52987C25.206 7.44864 25.3352 7.37111 25.3647 7.35634C25.3943 7.34527 25.6047 7.21605 25.8262 7.07575C26.0514 6.93545 26.4317 6.69547 26.6754 6.54779C27.2144 6.2192 27.1923 6.23766 27.447 6.06414C27.5615 5.9903 27.6648 5.92754 27.6722 5.92754C27.7165 5.92754 27.9491 5.7577 27.9491 5.72447C27.9491 5.69125 27.6353 5.05253 26.3099 2.39059L25.7893 1.34206L25.5862 1.23129C25.4755 1.17222 25.2872 1.05777 25.1727 0.976545C24.9623 0.836249 24.9623 0.832557 24.9992 0.932241Z" fill="#17627C"/>
<path d="M2.74317 1.00239C2.6361 1.07254 2.46257 1.17591 2.3555 1.23499L2.15983 1.34205L1.63187 2.40905C1.34389 2.99238 0.856547 3.97077 0.553802 4.58364C0.247365 5.19282 0 5.70971 0 5.72817C0 5.76139 0.0553802 5.80201 0.273209 5.92753C0.335973 5.96076 0.539034 6.08629 0.719943 6.20074C0.904543 6.3115 1.19252 6.49241 1.36604 6.59579C1.53957 6.69917 1.73155 6.821 1.79063 6.86531C1.85339 6.90961 2.10814 7.06837 2.36289 7.21974C2.61764 7.37111 2.83177 7.50402 2.84285 7.51879C2.85393 7.53356 3.00161 7.62586 3.17513 7.72924C3.34866 7.83261 3.54433 7.95814 3.61448 8.00983C3.68463 8.06152 3.75478 8.10582 3.76955 8.10582C3.78431 8.10582 3.89877 8.17228 4.0206 8.2535C4.14244 8.33473 4.24951 8.40118 4.26058 8.40118C4.27166 8.40118 4.37504 8.46395 4.48949 8.53779C4.81069 8.75192 5.32019 9.06575 5.46787 9.14328C5.5454 9.1802 5.62663 9.23189 5.65247 9.26142C5.68201 9.28727 5.86661 9.40541 6.06598 9.52356C6.26165 9.6417 6.43518 9.75246 6.44625 9.77092C6.45733 9.78938 6.52009 9.82999 6.58286 9.85953C6.64932 9.88906 6.8856 10.0294 7.10712 10.1697C7.33234 10.31 7.74584 10.5684 8.03013 10.7456C8.31441 10.9228 8.71315 11.1702 8.91621 11.2994C9.45155 11.6354 9.97951 11.9603 10.0238 11.9787C10.0423 11.9861 10.1789 12.071 10.3192 12.167C10.6921 12.4181 11.1868 12.7208 11.2237 12.7208C11.2422 12.7208 11.3013 12.7578 11.3603 12.8058C11.4157 12.8538 11.6114 12.9793 11.796 13.09C11.9769 13.1971 12.1578 13.3153 12.1984 13.3559C12.239 13.3928 12.2833 13.4223 12.2981 13.4223C12.335 13.4223 13.0697 13.8617 13.162 13.9392C13.2359 14.0057 13.6863 14.2715 13.7195 14.2715C13.7269 14.2715 13.7306 14.0684 13.7269 13.8174L13.7158 13.3669L13.6051 13.3116C13.546 13.282 13.4463 13.2193 13.3835 13.1786C13.3245 13.1343 13.1325 13.0199 12.959 12.9239C12.7854 12.8279 12.6378 12.7356 12.6267 12.7245C12.5971 12.6876 11.7738 12.204 11.7406 12.204C11.7258 12.204 11.6926 12.1781 11.6668 12.1486C11.6409 12.119 11.4674 12.0083 11.2828 11.9012C11.0982 11.7978 10.8951 11.6723 10.8324 11.628C10.7696 11.58 10.7068 11.5394 10.6921 11.5394C10.6773 11.5394 10.5776 11.484 10.4742 11.4139C10.3672 11.3474 10.1789 11.2366 10.0607 11.1702C9.9389 11.1037 9.83183 11.0373 9.82075 11.0262C9.79122 10.9893 9.49217 10.801 9.46632 10.801C9.45525 10.801 9.33341 10.7308 9.1968 10.6422C9.06389 10.5536 8.78699 10.3875 8.58393 10.2657C8.38087 10.1475 8.10397 9.97767 7.96736 9.88906C7.83445 9.80415 7.71262 9.73031 7.70154 9.73031C7.68677 9.73031 7.56493 9.65647 7.42833 9.56786C7.29173 9.47925 6.97421 9.28727 6.71946 9.13589C6.46471 8.98821 6.25058 8.8553 6.2395 8.84422C6.22843 8.82946 6.08075 8.73716 5.90722 8.64116C5.7337 8.54517 5.56756 8.4418 5.53433 8.41595C5.50479 8.38642 5.41249 8.32734 5.32757 8.28304C4.98053 8.08736 4.44149 7.76616 4.35658 7.70339C4.30489 7.66647 4.08337 7.52987 3.85815 7.40065C3.63663 7.27143 3.44465 7.15697 3.43357 7.1459C3.40773 7.11636 3.03114 6.88746 3.0053 6.88746C2.99422 6.88746 2.89085 6.82469 2.77639 6.75085C2.4515 6.54041 1.79801 6.14906 1.77217 6.14906C1.76109 6.14906 1.68356 6.10106 1.60233 6.04199C1.52111 5.98291 1.33282 5.86477 1.18514 5.77985C1.03376 5.69494 0.878699 5.59525 0.841779 5.55833C0.753171 5.47711 0.683022 5.64694 1.61341 3.71233C1.72786 3.47973 1.92723 3.06253 2.05645 2.78932C2.48472 1.89216 2.66563 1.51927 2.83177 1.19068C2.92038 1.01346 2.98315 0.869476 2.96469 0.873168C2.94992 0.873168 2.84654 0.93224 2.74317 1.00239Z" fill="#17627C"/>
<path d="M5.5933 2.99144L4.74414 4.66392L4.81798 4.74515C4.92874 4.86698 5.27948 5.13281 5.5047 5.26203C5.67084 5.35802 5.95143 5.49462 6.40555 5.70507C6.60861 5.79737 6.95935 5.92659 7.01473 5.92659C7.08488 5.92659 8.49153 6.39917 8.54691 6.44347C8.56907 6.45824 8.72413 6.5247 8.89766 6.59115C9.57329 6.8459 10.5443 7.33325 11.0538 7.66922C11.8033 8.16764 12.6007 8.81005 13.1361 9.34909C13.5016 9.71829 13.9557 10.3312 13.9557 10.4641C13.9557 10.4973 13.9963 10.4493 14.0406 10.357C14.3212 9.78474 15.1261 8.96512 16.134 8.22302C16.3075 8.0938 16.4884 7.9572 16.5401 7.91289C16.7247 7.75414 17.2822 7.41447 17.7068 7.20403C17.9505 7.08219 18.2089 6.95666 18.2828 6.91974C18.4858 6.81637 19.8297 6.26995 19.9368 6.2478C19.9885 6.23672 20.2174 6.15919 20.45 6.07796C20.6789 5.99305 20.8967 5.92659 20.9336 5.92659C21.0702 5.92659 22.0449 5.49462 22.4843 5.23988C22.6799 5.12912 23.1082 4.78945 23.1599 4.70453C23.1968 4.64546 23.0861 4.41656 21.9452 2.1755L21.5096 1.32265L21.3434 1.42603C21.2511 1.4851 21.1662 1.53309 21.1478 1.53309C21.133 1.53309 20.9484 1.61432 20.7342 1.7177C20.5201 1.81738 20.3318 1.9023 20.3134 1.9023C20.2912 1.9023 20.162 1.95029 20.018 2.01306C19.874 2.07213 19.586 2.1792 19.3756 2.24934C18.3455 2.5927 17.4151 2.99513 16.4847 3.50463C15.163 4.22826 14.3545 5.10696 14.0517 6.1555L13.9705 6.44347L13.9262 6.25518C13.8154 5.77891 13.5164 5.2288 13.1102 4.74884C12.8518 4.4424 12.1799 3.90706 11.722 3.64493C11.3971 3.45294 10.5886 3.04313 10.26 2.89914C10.068 2.81422 9.84281 2.71454 9.75789 2.67393C9.67298 2.63701 9.58437 2.60378 9.56591 2.60378C9.54376 2.60378 9.31485 2.51886 9.05641 2.41918C8.79797 2.3158 8.56537 2.23458 8.53953 2.23458C8.51369 2.23458 8.3217 2.16812 8.11126 2.0832C7.9045 2.00198 7.66083 1.90968 7.56853 1.87645C7.47623 1.84692 7.38762 1.8063 7.36547 1.79154C7.34701 1.77308 7.18825 1.69923 7.01473 1.6217C6.8412 1.54786 6.64184 1.44818 6.57169 1.40387L6.43877 1.31896L5.5933 2.99144Z" fill="#17627C"/>
<path d="M5.05892 1.71863C4.78571 1.81832 4.51619 1.90693 4.46081 1.918C4.40174 1.93277 4.35374 1.97338 4.33528 2.02507C4.32421 2.06938 4.24298 2.22813 4.15807 2.3795C4.07684 2.52718 3.95501 2.74501 3.89594 2.85947C3.83317 2.97392 3.68549 3.24713 3.56365 3.47234C3.44182 3.69386 3.30521 3.95969 3.25722 4.06306C3.20553 4.16275 3.14646 4.27351 3.12061 4.30304C3.09477 4.33258 2.99508 4.5061 2.89909 4.6907C2.8031 4.87161 2.64434 5.17067 2.54835 5.35527C2.44867 5.53618 2.36744 5.70601 2.36744 5.72816C2.36375 5.75031 2.40067 5.78723 2.44867 5.81308C2.49297 5.83892 2.58896 5.8943 2.6628 5.9386C2.73664 5.98291 2.91017 6.08629 3.05046 6.16382C3.19076 6.24504 3.39751 6.37057 3.50827 6.44441C3.68918 6.56625 4.12853 6.83207 4.44235 7.00929C4.50881 7.04621 4.73033 7.17912 4.93708 7.30465C5.14384 7.43018 5.51673 7.65539 5.76779 7.80676C6.01884 7.95814 6.3142 8.13535 6.42496 8.2055C6.53572 8.27565 6.75725 8.40856 6.91969 8.50455C7.07845 8.60055 7.34428 8.7593 7.51042 8.85529C7.67286 8.95498 7.88331 9.07682 7.97561 9.1285C8.06791 9.18019 8.14913 9.23557 8.16021 9.25034C8.17129 9.26511 8.31897 9.35741 8.49249 9.4534C8.66602 9.54939 8.87277 9.67492 8.95399 9.7303C9.09429 9.82629 9.43026 10.0257 9.76624 10.2103C9.84746 10.2546 9.93976 10.3136 9.9693 10.3395C9.99883 10.3616 10.1871 10.4835 10.3902 10.6016C11.1655 11.0631 11.3612 11.1813 11.5199 11.2699C11.6122 11.3216 11.7119 11.3843 11.7415 11.4102C11.771 11.436 11.9371 11.5357 12.1107 11.6317C12.2842 11.7314 12.4762 11.8495 12.5426 11.8975C12.6792 12.0046 12.6571 12.012 13.0706 11.6723C13.2441 11.5283 13.4103 11.3917 13.4398 11.3659C13.4693 11.34 13.5284 11.2957 13.5653 11.2699C13.6428 11.2108 13.6982 11.2846 13.0337 10.5684C12.4356 9.92229 12.0147 9.49771 11.5532 9.06943C10.6782 8.26088 10.5526 8.17227 9.65548 7.68862C9.46718 7.58893 8.73247 7.25665 8.69555 7.25665C8.66602 7.25665 8.20821 7.07205 7.91285 6.93914C7.85008 6.9096 7.77993 6.88745 7.75778 6.88745C7.73563 6.88745 7.49196 6.80254 7.21136 6.70285C6.93077 6.59948 6.67233 6.51825 6.63541 6.51825C6.52465 6.51825 5.6681 6.16382 5.28044 5.95707C4.64172 5.62109 3.95132 5.09683 3.95132 4.95284C3.95132 4.92699 4.32421 4.15536 4.78202 3.23974C5.23983 2.32782 5.61272 1.56726 5.61272 1.55618C5.61272 1.52296 5.59057 1.53034 5.05892 1.71863Z" fill="#17627C"/>
<path d="M22.336 1.54965C22.336 1.56072 22.7089 2.32128 23.1667 3.2332C23.6245 4.14882 23.9974 4.92045 23.9974 4.94999C23.9974 5.09767 23.2849 5.64409 22.6867 5.95053C22.2769 6.16466 21.4204 6.5191 21.317 6.5191C21.2801 6.5191 21.0216 6.60032 20.7447 6.7037C20.4678 6.80338 20.2168 6.8883 20.1873 6.8883C20.1614 6.89199 20.0728 6.92153 19.9916 6.96214C19.9104 7.00275 19.8328 7.03229 19.8181 7.03598C19.8033 7.03598 19.6814 7.08397 19.5485 7.14674C19.4156 7.20581 19.2864 7.2575 19.2643 7.2575C19.2199 7.2575 18.3819 7.63408 18.2748 7.70054C18.2453 7.72269 18.105 7.79653 17.961 7.87037C17.3702 8.17681 16.7795 8.67154 15.6535 9.8013C15.1957 10.2591 14.7083 10.7649 14.5643 10.9237L14.3096 11.2153L14.4573 11.3409C14.6271 11.4885 15.1735 11.9205 15.2363 11.9611C15.2769 11.9833 15.4467 11.9021 15.5058 11.8356C15.5169 11.8245 15.5833 11.7802 15.6535 11.7396C16.0707 11.4996 17.1044 10.8831 17.2595 10.7834C17.3629 10.7169 17.6176 10.5619 17.8318 10.4363C18.0459 10.3108 18.2453 10.1926 18.2748 10.1742C18.3043 10.1557 18.4483 10.0708 18.5886 9.9859C18.7326 9.90098 18.9541 9.76068 19.087 9.67577C19.2199 9.59085 19.4415 9.45794 19.5781 9.37671C19.7184 9.29918 19.8845 9.1995 19.951 9.15889C20.0174 9.11827 20.1983 9.0112 20.346 8.9226C20.4974 8.83399 20.7263 8.69 20.8592 8.60508C20.9921 8.52017 21.2653 8.35772 21.4684 8.23957C21.6714 8.12143 22.0222 7.91468 22.2437 7.77438C22.4689 7.63408 22.875 7.3941 23.1482 7.23535C23.4215 7.07659 23.6541 6.93629 23.6651 6.92153C23.6762 6.91045 23.8497 6.80338 24.0528 6.68524C24.2559 6.57078 24.4478 6.45264 24.4774 6.4268C24.5069 6.40095 24.7321 6.26435 24.9758 6.12774C25.2195 5.98745 25.4594 5.84346 25.5111 5.80654L25.5997 5.74377L25.4188 5.38934C25.0866 4.75062 24.5475 3.75009 24.2337 3.19259C24.1229 3.00061 24.0343 2.82339 24.0343 2.80493C24.0343 2.78647 23.9863 2.70155 23.9273 2.61664C23.8682 2.53172 23.7648 2.34343 23.6984 2.19944C23.6024 2.00007 23.5507 1.93362 23.4805 1.91885C23.4067 1.90408 22.9378 1.74163 22.384 1.54226C22.3582 1.53488 22.336 1.53857 22.336 1.54965Z" fill="#17627C"/>
<path d="M8.68095 12.0384C8.53327 12.1307 8.40405 12.2045 8.39298 12.2045C8.38559 12.2045 8.2416 12.2858 8.07546 12.3854C7.90932 12.4888 7.73949 12.5811 7.69888 12.5959C7.65827 12.6107 7.53643 12.6808 7.43305 12.751C7.23368 12.8839 7.15615 12.9983 6.76849 13.7552C6.69834 13.8881 6.60235 14.0616 6.55435 14.1428C6.43252 14.3385 6.4399 14.3681 6.5802 14.2684C6.64665 14.2204 6.75003 14.1576 6.8091 14.1244C6.93094 14.0616 7.39244 13.781 7.69888 13.589C8.06069 13.3601 8.58865 13.0574 8.72157 12.9983C8.7991 12.9688 8.91724 12.9429 8.99108 12.9429C9.25691 12.9429 9.5855 13.1866 9.6778 13.4524C9.7664 13.7109 9.63718 14.1133 9.37505 14.4013C8.96524 14.8517 8.53327 15.232 8.03854 15.5753C7.85763 15.7009 7.63981 15.8559 7.5512 15.9224C7.35921 16.0627 6.72419 16.4651 6.56174 16.5463C6.49528 16.5796 6.43621 16.6202 6.42513 16.635C6.41406 16.6497 6.24792 16.7494 6.05593 16.8565C5.86395 16.9635 5.67935 17.0706 5.64981 17.0965C5.62027 17.1223 5.46152 17.2109 5.29907 17.2958C4.81911 17.5432 4.72681 17.5986 4.72681 17.6429C4.72681 17.6687 4.63451 17.8792 4.52375 18.1118C4.40929 18.3444 4.23577 18.7025 4.13978 18.9055C3.79642 19.607 3.80011 19.5996 3.88134 19.703C3.91826 19.751 3.95148 19.8027 3.95148 19.8212C3.95148 19.8359 3.99579 19.9135 4.04748 19.9947L4.14347 20.1387L4.38714 19.9873C4.52375 19.9061 4.71942 19.7842 4.81911 19.7178C4.92248 19.6513 5.10339 19.5443 5.22523 19.4778C5.34707 19.4113 5.49844 19.319 5.55751 19.271C5.62027 19.2267 5.72734 19.1566 5.80118 19.116C6.1187 18.9388 6.55435 18.684 6.57281 18.6656C6.58389 18.6508 6.69834 18.577 6.83125 18.4994C6.96417 18.4219 7.182 18.2853 7.3186 18.1967C7.45151 18.1081 7.57335 18.0379 7.58443 18.0379C7.60658 18.0379 8.07546 17.7573 8.41882 17.5358C8.55173 17.4509 8.71787 17.3549 8.78802 17.318C8.85817 17.2811 8.96893 17.2146 9.03169 17.1703C9.09446 17.1223 9.20153 17.0521 9.27168 17.0115C9.7221 16.7605 10.1393 16.5131 10.1541 16.4873C10.1651 16.4725 10.3128 16.3802 10.4863 16.2842C10.6599 16.1882 10.8519 16.0701 10.9183 16.0221C10.9811 15.9741 11.0438 15.9335 11.0549 15.9335C11.066 15.9335 11.162 15.8781 11.2691 15.8079C11.3761 15.7415 11.5644 15.6307 11.6863 15.5643C11.8081 15.4978 11.9152 15.4314 11.9262 15.4203C11.9521 15.3871 12.1108 15.2874 12.3213 15.1729C12.4173 15.1175 12.5686 15.0252 12.6573 14.9699C12.7459 14.9108 12.8234 14.8628 12.8308 14.8628C12.8419 14.8628 12.9674 14.7853 13.1114 14.693L13.3772 14.5231L13.259 14.453C13.1963 14.4161 13.1372 14.3828 13.1298 14.3828C13.1224 14.3828 12.9526 14.2831 12.7532 14.1576C12.3065 13.8807 12.1662 13.7958 11.8339 13.6001C11.6936 13.5152 11.5607 13.434 11.5386 13.4155C11.5201 13.3971 11.3207 13.2752 11.0955 13.146C10.874 13.0168 10.5823 12.8396 10.4494 12.7583C10.3165 12.6734 10.0839 12.5257 9.93255 12.4297C9.4452 12.1233 9.02062 11.8723 8.98739 11.8723C8.96893 11.8723 8.83233 11.9498 8.68095 12.0384Z" fill="#17627C"/>
<path d="M18.5713 12.0938C18.3793 12.2119 18.1061 12.3818 17.9621 12.4667C17.8218 12.5516 17.5966 12.6919 17.4637 12.7768C17.3308 12.8617 17.0502 13.0352 16.8361 13.1645C16.2121 13.5337 15.9094 13.7183 15.6842 13.8696C15.5697 13.9509 15.4663 14.0136 15.4553 14.0136C15.4442 14.0136 15.3224 14.0838 15.1858 14.165C15.0455 14.2499 14.8682 14.357 14.787 14.4013C14.7095 14.4493 14.6356 14.501 14.6283 14.5231C14.6209 14.5453 14.739 14.6339 14.8867 14.7188C15.0344 14.8037 15.267 14.9477 15.3999 15.0363C15.5365 15.1249 15.6583 15.1951 15.6731 15.1951C15.6842 15.1951 15.8208 15.2763 15.9722 15.3797C16.1235 15.4794 16.2527 15.5643 16.2601 15.5643C16.2675 15.5643 16.4595 15.675 16.6847 15.8116C16.9136 15.9519 17.2533 16.155 17.4416 16.2658C17.6336 16.3765 17.8182 16.4947 17.8551 16.5279C17.8957 16.5574 18.0988 16.6829 18.3129 16.8011C18.527 16.9192 18.7744 17.0706 18.8667 17.1334C18.959 17.1998 19.0919 17.2811 19.162 17.318C19.2322 17.3549 19.3983 17.4509 19.5313 17.5358C19.8746 17.7573 20.3435 18.0379 20.3656 18.0379C20.3767 18.0379 20.4986 18.1118 20.6315 18.1967C20.7681 18.2853 21.0007 18.433 21.1484 18.5216C21.296 18.6102 21.5397 18.7579 21.6837 18.8465C21.8314 18.9314 22.0197 19.0458 22.1083 19.0938C22.304 19.2046 22.459 19.3043 22.4849 19.3338C22.4959 19.3449 22.603 19.4113 22.7248 19.4778C22.9759 19.6181 23.2233 19.7658 23.6368 20.0279L23.8103 20.1387L23.9284 19.9467C23.9949 19.8396 24.0687 19.7215 24.0909 19.6809C24.1426 19.5959 24.1352 19.5701 23.8324 18.9425C23.4928 18.2373 23.2343 17.6909 23.2122 17.6318C23.2048 17.6023 23.0054 17.4767 22.7765 17.3586C22.5439 17.2404 22.3298 17.1223 22.3003 17.0965C22.2707 17.0706 22.1452 16.9968 22.0234 16.934C21.9015 16.8675 21.7095 16.7568 21.5988 16.6866C21.488 16.6128 21.2111 16.443 20.9859 16.3064C20.7644 16.1661 20.5059 15.9999 20.4136 15.9372C20.325 15.8707 20.0851 15.7009 19.882 15.5569C19.6789 15.4129 19.4722 15.2578 19.4205 15.2098C19.3688 15.1655 19.1953 15.0068 19.0328 14.8591C18.8704 14.7114 18.7116 14.5563 18.6821 14.512C18.6526 14.464 18.5824 14.3828 18.527 14.3274C18.2981 14.0985 18.1837 13.6666 18.2907 13.4229C18.4052 13.1608 18.7079 12.9466 18.9664 12.9429C19.1214 12.9429 19.4131 13.0537 19.5719 13.1718C19.642 13.2235 19.8377 13.3454 20.0075 13.4414C20.1774 13.5374 20.3361 13.6297 20.3583 13.6481C20.3804 13.6703 20.5724 13.7847 20.7865 13.9102C21.0007 14.0321 21.2443 14.1798 21.333 14.2388C21.4179 14.2979 21.488 14.3311 21.488 14.3164C21.488 14.3016 21.4437 14.2167 21.392 14.1244C21.3366 14.0321 21.1927 13.7663 21.0708 13.5337C20.7053 12.8248 20.7275 12.8506 20.1404 12.5368C19.9817 12.4519 19.8082 12.3559 19.7565 12.319C19.6162 12.2193 18.9811 11.8723 18.9516 11.8723C18.9331 11.8759 18.7633 11.9719 18.5713 12.0938Z" fill="#17627C"/>
<path d="M8.56231 13.5992C8.38879 13.6952 8.22265 13.7912 8.19311 13.8133C8.16357 13.8391 8.04912 13.9019 7.93836 13.9573C7.8276 14.0127 7.63562 14.1234 7.51378 14.1973C7.39194 14.2711 7.11504 14.4299 6.89721 14.548L6.50586 14.7658L6.59078 14.8766C6.63508 14.9394 6.72 15.0686 6.77538 15.1646L6.87506 15.3418L7.0412 15.2458C7.12981 15.1904 7.31072 15.0797 7.43994 14.9947C7.97897 14.6477 8.68045 14.2157 8.86506 14.1234C8.94259 14.0828 9.02381 14.0274 9.05335 13.9979C9.08288 13.9721 9.20103 13.8945 9.31917 13.8281L9.52962 13.7099L9.40778 13.6176C9.07919 13.3703 8.97951 13.3703 8.56231 13.5992Z" fill="#17627C"/>
<path d="M18.7182 13.4995C18.6481 13.5438 18.5521 13.6102 18.5041 13.6435L18.4229 13.7099L18.6518 13.8428C18.781 13.9167 18.925 14.009 18.9767 14.0459C19.0283 14.0828 19.2203 14.201 19.4012 14.308C19.5858 14.4151 19.8406 14.5702 19.9735 14.6588C20.1064 14.7437 20.3205 14.8766 20.4535 14.9541C20.5864 15.0317 20.7008 15.1055 20.7119 15.1203C20.723 15.1314 20.8079 15.1867 20.9039 15.2421L21.0737 15.3418L21.1734 15.1646C21.2288 15.0686 21.3137 14.9394 21.358 14.8766L21.4429 14.7658L21.0516 14.548C20.8337 14.4299 20.6159 14.308 20.5642 14.2711C20.5125 14.2342 20.3205 14.1271 20.1396 14.0311C19.955 13.9314 19.8 13.8428 19.7889 13.8281C19.7372 13.7616 19.0394 13.422 18.9508 13.422C18.8954 13.422 18.7884 13.4589 18.7182 13.4995Z" fill="#17627C"/>
</svg>
