<svg width="20" height="15" viewBox="0 0 20 15" fill="none" xmlns="http://www.w3.org/2000/svg">
<path d="M4.85194 0.175053L4.36621 0.34344L4.62527 0.395251C5.01385 0.479445 7.74043 0.43411 7.83757 0.336964C7.89586 0.278676 7.84405 0.246294 7.63033 0.188006C7.4749 0.149147 7.24174 0.0908593 7.11869 0.0520007C6.99564 0.0196186 6.54229 -0.0062871 6.11485 0.000189334C5.45425 0.000189334 5.26643 0.026095 4.85194 0.175053Z" fill="#17627C"/>
<path d="M7.86205 0.526797C7.71957 0.565656 7.59651 0.604514 7.58356 0.610991C7.55118 0.636897 8.04339 1.29102 8.08872 1.29102C8.10815 1.29102 8.15349 1.1032 8.19234 0.870048C8.25711 0.410222 8.27006 0.423175 7.86205 0.526797Z" fill="#17627C"/>
<path d="M4.24198 0.772041C4.26789 0.895093 4.30675 1.04405 4.33265 1.09586C4.35856 1.14767 4.36504 1.23187 4.35208 1.27073C4.29379 1.43264 4.39094 1.34844 4.60466 1.04405C4.72772 0.875664 4.84429 0.707276 4.8702 0.661941C4.90258 0.61013 4.80543 0.584224 4.55933 0.564795L4.20312 0.545366L4.24198 0.772041Z" fill="#17627C"/>
<path d="M8.35449 0.946251C8.30915 1.18588 8.26382 1.43198 8.24439 1.49027C8.21848 1.58094 8.26382 1.58094 8.60059 1.45789C9.02804 1.30893 9.02804 1.34131 8.6524 0.816723L8.42573 0.499378L8.35449 0.946251Z" fill="#17627C"/>
<path d="M3.75665 0.992629C3.60122 1.21283 3.49759 1.36826 3.5235 1.34236C3.55588 1.31645 3.60769 1.32293 3.65303 1.35531C3.69189 1.38769 3.8538 1.45893 4.00275 1.51722C4.25533 1.60141 4.27476 1.60141 4.24238 1.49779C4.22295 1.4395 4.19057 1.23873 4.16466 1.06387C4.14524 0.88253 4.10638 0.707667 4.08047 0.668808C4.06104 0.629949 3.91856 0.772431 3.75665 0.992629Z" fill="#17627C"/>
<path d="M5.32315 1.03134C5.40086 1.24506 5.47858 1.41992 5.49801 1.41992C5.51744 1.41992 5.58868 1.32278 5.6664 1.2062C5.73764 1.0961 5.85421 0.921237 5.9125 0.817614L6.02908 0.642751H5.60811H5.18066L5.32315 1.03134Z" fill="#17627C"/>
<path d="M6.45092 0.830567C6.50921 0.921237 6.61931 1.0961 6.69055 1.2062C6.76826 1.32278 6.84598 1.41992 6.87189 1.41992C6.89132 1.41992 6.95608 1.29687 7.00789 1.14144C7.0597 0.992478 7.12447 0.817614 7.15037 0.75285C7.19571 0.642751 7.16333 0.636274 6.76826 0.649227L6.34082 0.66218L6.45092 0.830567Z" fill="#17627C"/>
<path d="M7.23479 1.15962L7.06641 1.67773H7.20889C7.50033 1.67773 7.96015 1.59354 7.96015 1.54173C7.96015 1.49639 7.44204 0.641506 7.41613 0.641506C7.40966 0.641506 7.32546 0.874658 7.23479 1.15962Z" fill="#17627C"/>
<path d="M6.17195 0.822846C6.10071 0.868181 5.62793 1.58706 5.62793 1.64535C5.62793 1.66478 5.89346 1.67773 6.21081 1.67773C6.53463 1.67773 6.79369 1.66478 6.79369 1.64535C6.79369 1.53525 6.22376 0.783988 6.17195 0.822846Z" fill="#17627C"/>
<path d="M4.88379 0.901638C4.86436 0.93402 4.86436 0.966402 4.89027 0.966402C4.91617 0.966402 4.89674 1.00526 4.83845 1.04412C4.70245 1.1607 4.4952 1.53633 4.54054 1.58814C4.56645 1.60757 4.76721 1.63995 4.98741 1.65938C5.31771 1.69176 5.38247 1.68529 5.35657 1.60757C5.33714 1.55576 5.27238 1.36146 5.20761 1.17365C5.09104 0.856303 4.97446 0.75268 4.88379 0.901638Z" fill="#17627C"/>
<path d="M3.68457 1.63294C3.68457 1.64589 4.15735 2.07981 4.74023 2.59145L5.78941 3.51758L5.07053 2.7145C4.68194 2.26763 4.27393 1.85961 4.16383 1.80133C3.96306 1.68475 3.68457 1.5876 3.68457 1.63294Z" fill="#17627C"/>
<path d="M8.38138 1.70492C8.213 1.77616 7.4423 2.56628 7.11848 3.00668C7.02781 3.12326 7.02781 3.12326 7.15734 3.03259C7.23505 2.98078 7.60421 2.66343 7.98632 2.33313C8.76997 1.63368 8.86064 1.49767 8.38138 1.70492Z" fill="#17627C"/>
<path d="M7.47357 1.80949L7.02022 1.84187L6.74821 2.58666C6.60573 2.99468 6.49563 3.35088 6.50859 3.37679C6.52154 3.39622 6.49563 3.4286 6.45678 3.44803C6.41144 3.46098 6.38554 3.49336 6.40496 3.51279C6.42439 3.53222 6.71583 3.22783 7.05261 2.83277C7.38938 2.44418 7.73911 2.04912 7.82978 1.96493C7.91397 1.88073 7.97226 1.80301 7.95931 1.79654C7.93988 1.78359 7.72616 1.79006 7.47357 1.80949Z" fill="#17627C"/>
<path d="M5.18203 2.63102C5.58357 3.09084 5.94625 3.49886 5.98511 3.55067C6.03044 3.596 5.92682 3.25275 5.75843 2.77997C5.59005 2.30719 5.41518 1.89918 5.36337 1.8668C5.31156 1.83442 5.08489 1.80851 4.86469 1.80851H4.4502L5.18203 2.63102Z" fill="#17627C"/>
<path d="M5.58352 1.90515C5.99801 3.05796 6.18583 3.55664 6.21821 3.55664C6.23764 3.55664 6.3866 3.18748 6.54203 2.73413C6.69747 2.28078 6.83347 1.8922 6.84642 1.87277C6.8529 1.85334 6.56794 1.84039 6.21173 1.84039C5.80372 1.84039 5.57057 1.86629 5.58352 1.90515Z" fill="#17627C"/>
<path d="M12.1371 2.55325C11.4571 2.72812 10.9195 2.91593 10.4209 3.17499C10.1489 3.31747 9.90922 3.42757 9.8898 3.42757C9.86389 3.42757 9.71493 3.34338 9.5595 3.23328C9.17739 2.9807 8.47793 2.6504 8.31602 2.6504C8.23831 2.65688 7.98573 2.8706 7.68133 3.2009L7.18265 3.74492L7.55181 3.84854C7.94687 3.96512 8.63984 4.28894 8.70461 4.39256C8.72404 4.43142 8.60746 4.63866 8.43908 4.86534C7.90153 5.59717 7.45466 6.64636 7.31865 7.50772C7.22798 8.04526 7.22798 9.16569 7.31218 9.70323C7.44171 10.4739 7.8821 11.5166 8.37431 12.2031L8.60746 12.527L8.30307 12.6824C7.18265 13.2458 5.84203 13.343 4.65037 12.9479C4.29416 12.8249 3.7631 12.5593 3.33565 12.2808C3.19965 12.1902 2.32533 11.3418 2.32533 11.2964C2.32533 11.277 2.22171 11.1021 2.09218 10.9014C1.18548 9.48303 1.15957 7.5142 2.03389 6.0311C2.64915 4.97544 3.72424 4.12703 4.83818 3.82263L5.22677 3.71901L4.68275 3.14261L4.13873 2.56621L3.71128 2.74755C3.47813 2.84469 3.24498 2.96775 3.19317 3.01956C3.14136 3.07137 3.1025 3.09727 3.1025 3.07137C3.1025 2.96127 2.07923 3.75787 1.69064 4.17236C-0.317053 6.2772 -0.563157 9.53484 1.09481 11.9376C1.89789 13.0969 3.13488 13.9712 4.56617 14.3857C5.01305 14.5152 5.21382 14.5346 6.1788 14.5282C7.18913 14.5282 7.32513 14.5152 7.86267 14.3468C8.18649 14.2497 8.71756 14.0295 9.05434 13.8546L9.65664 13.5308L9.92865 13.7186C11.3988 14.7289 13.4454 15.0333 15.1875 14.5023C17.0592 13.9323 18.5941 12.4622 19.2159 10.6488C19.5526 9.65142 19.6433 8.45976 19.4555 7.45591C19.0151 5.13087 17.396 3.34985 15.1163 2.67631C14.6176 2.52735 14.3844 2.50144 13.5295 2.48201C12.7912 2.46258 12.4221 2.48201 12.1371 2.55325ZM14.5982 3.97807C14.9932 4.08169 15.8157 4.43789 15.9906 4.5739C16.6706 5.11144 16.8779 5.31221 17.2082 5.74613C17.9335 6.7176 18.2768 7.94812 18.1408 9.08797C17.7327 12.3974 14.3197 14.3209 11.3599 12.9155C10.667 12.5852 10.6864 12.6306 11.062 12.1643C11.9623 11.0503 12.448 9.3276 12.299 7.83154C12.2343 7.22923 12.1306 6.69817 12.0529 6.57512C12.0335 6.53626 12.0011 6.44559 11.9946 6.37435C11.9623 6.16062 11.5478 5.33812 11.2693 4.92363C11.1203 4.7099 11.0037 4.52209 11.0037 4.50266C11.0037 4.38608 12.0529 3.97807 12.6099 3.88092C13.0438 3.79673 14.1383 3.85502 14.5982 3.97807ZM10.0841 5.70727C10.8094 6.76293 11.0879 8.09708 10.8483 9.32112C10.7317 9.93638 10.2395 11.005 9.89627 11.3936L9.70198 11.6203L9.54007 11.426C9.29396 11.1216 8.95719 10.4351 8.79528 9.904C8.57508 9.20454 8.57508 8.00641 8.79528 7.31343C8.95719 6.79531 9.20329 6.26425 9.4753 5.86918C9.57245 5.73318 9.62426 5.5907 9.60483 5.55184C9.57893 5.51298 9.59188 5.50003 9.63074 5.52593C9.6696 5.54536 9.71493 5.53889 9.74084 5.50003C9.81208 5.38345 9.89627 5.42879 10.0841 5.70727Z" fill="#17627C"/>
</svg>
