<svg width="107" height="107" viewBox="0 0 107 107" fill="none" xmlns="http://www.w3.org/2000/svg">
<circle cx="53.5" cy="53.5" r="53.5" fill="white"/>
<path fill-rule="evenodd" clip-rule="evenodd" d="M27.0312 20.7377C27.0666 20.7581 27.0059 20.8497 26.8844 20.9821C26.7731 21.0941 26.2621 21.6236 25.7461 22.1582C25.23 22.6877 24.6887 23.2885 24.547 23.4819C24.4053 23.6754 24.1878 24.0216 24.0562 24.2456C23.9297 24.4696 23.7375 24.8922 23.6262 25.1875C23.5149 25.4828 23.3833 25.9156 23.3327 26.1549C23.2568 26.5062 23.2417 26.7964 23.2467 27.7332C23.2518 28.5783 23.2771 29.0365 23.444 30.0752H22.9128L22.842 29.7544C22.8015 29.5813 22.7205 29.1638 22.6649 28.8278C22.6092 28.4918 22.5536 27.9979 22.5333 27.7332C22.5182 27.4684 22.5283 26.9847 22.5586 26.664C22.589 26.3432 22.6598 25.8952 22.7155 25.6712C22.7762 25.4472 22.8673 25.1468 22.9229 25.0093C22.9786 24.8668 23.1051 24.6173 23.2062 24.4493C23.3074 24.2813 23.6312 23.8943 23.9247 23.5888C24.2181 23.2834 24.9467 22.596 25.5437 22.0564C26.1407 21.5167 26.7074 20.9923 26.8035 20.8904C26.8946 20.7937 26.9958 20.7224 27.0312 20.7377ZM65.498 25.1875C65.5233 25.1875 65.6447 25.2944 65.7813 25.4268C65.9129 25.5643 66.0039 25.6916 65.9837 25.717C65.9584 25.7425 65.9685 25.7476 65.9938 25.7323C66.0191 25.717 66.3176 25.9767 66.6515 26.3127C66.9855 26.6538 67.6432 27.2749 68.1188 27.7026C68.5944 28.1303 69.242 28.6954 69.5607 28.9602C69.8794 29.23 70.4056 29.6526 70.7244 29.9021C71.0431 30.1566 71.6705 30.6352 72.1157 30.9712C72.5609 31.3073 73.6538 32.1168 74.5442 32.7736C75.4347 33.4253 76.6996 34.3621 77.3522 34.8559C78.0049 35.3498 79.0623 36.1746 79.7049 36.6888C80.3474 37.203 81.162 37.8852 81.5262 38.1958C81.8905 38.5115 82.3661 38.9595 82.5887 39.1937C82.8113 39.4279 83.12 39.7792 83.2768 39.9778C83.4336 40.1763 83.7271 40.5836 83.9295 40.8942C84.1319 41.1997 84.4607 41.7954 84.6631 42.2179C84.8655 42.6354 85.1286 43.2566 85.2449 43.5926C85.3613 43.9286 85.5181 44.4581 85.5991 44.7636C85.68 45.0691 85.7964 45.5884 85.8521 45.9091C85.9077 46.2299 85.9887 46.795 86.0291 47.1565C86.0696 47.518 86.1151 48.185 86.1354 48.633C86.1506 49.0963 86.1404 49.8753 86.1101 50.4404C86.0747 50.9852 86.0038 51.7998 85.9482 52.2478C85.8925 52.6959 85.7863 53.373 85.7205 53.7498C85.6497 54.1265 85.5283 54.7375 85.4422 55.099C85.3613 55.4604 85.1791 56.1478 85.0425 56.6264C84.911 57.1049 84.7491 57.6242 84.5872 58.0774H83.55C82.8923 58.0774 82.5128 58.057 82.5128 58.0265C82.5128 58.001 82.5584 57.7617 82.614 57.5021C82.6646 57.2475 82.7709 56.7231 82.8417 56.3463C82.9125 55.9696 83.0238 55.2721 83.0896 54.7935C83.1604 54.3149 83.2515 53.5817 83.292 53.1643C83.3375 52.7417 83.3982 51.8965 83.4235 51.2805C83.464 50.4964 83.4589 49.8447 83.4235 49.1167C83.3932 48.5413 83.3375 47.8082 83.292 47.4874C83.2515 47.1667 83.1604 46.6168 83.0896 46.2655C83.0188 45.9142 82.9075 45.4357 82.8417 45.1964C82.7759 44.9571 82.6241 44.4785 82.4977 44.1272C82.3762 43.7759 82.1384 43.17 81.9664 42.778C81.7944 42.386 81.4959 41.7801 81.3087 41.4288C81.1164 41.0775 80.8179 40.5582 80.6358 40.268C80.4587 39.9778 80.1551 39.5196 79.9629 39.2497C79.7706 38.9799 79.4367 38.5369 79.2293 38.2722C79.0218 38.0074 78.6171 37.5238 78.3337 37.203C78.0504 36.8822 77.4231 36.2255 76.9424 35.752C76.4567 35.2734 75.7534 34.6166 75.379 34.2959C75.0046 33.97 74.3419 33.4253 73.9118 33.079C73.4818 32.7328 72.7836 32.1626 72.3687 31.8113C71.9488 31.46 71.2809 30.8898 70.8762 30.5385C70.4765 30.1872 69.8592 29.6373 69.5101 29.3166C69.161 28.9958 68.4578 28.3339 67.9468 27.8401C67.4357 27.3462 66.6667 26.5723 66.2367 26.1141C65.8117 25.661 65.4626 25.2639 65.4626 25.2384C65.4626 25.2079 65.4777 25.1875 65.498 25.1875ZM62.0222 60.287C80.7522 60.2921 81.845 60.2972 82.1334 60.3837C82.3003 60.4296 82.6393 60.5721 82.8923 60.6943C83.2212 60.8572 83.4539 61.0201 83.7473 61.29C83.9649 61.4987 84.2381 61.8042 84.3494 61.9722C84.4658 62.1402 84.6074 62.405 84.6783 62.5577C84.744 62.7105 84.8402 63.021 84.8958 63.2451C84.9869 63.6371 84.992 63.9578 84.992 71.773C84.992 79.6034 84.9869 79.9089 84.8958 80.3009C84.8402 80.525 84.7491 80.8253 84.6884 80.9628C84.6277 81.1054 84.4809 81.365 84.3595 81.5483C84.2432 81.7316 83.975 82.0422 83.7676 82.2356C83.4994 82.4953 83.2616 82.6582 82.9176 82.8313C82.6241 82.979 82.2599 83.1164 81.9816 83.1775C81.5313 83.2794 81.4149 83.2794 67.4104 83.2539V71.5948L67.1474 71.0602C67.0057 70.7649 66.7578 70.3423 66.5959 70.1183C66.439 69.8943 66.1405 69.5175 65.9432 69.2783C65.7408 69.039 65.1944 68.4433 64.729 67.9545C64.2635 67.4657 63.6412 66.7988 63.3477 66.478C63.0543 66.1573 62.6394 65.6736 62.432 65.4089C62.2195 65.1441 61.9766 64.8284 61.8957 64.7113C61.8097 64.5892 61.7338 64.4924 61.7186 64.4924C61.7034 64.4924 61.5769 64.6808 61.4353 64.9099C61.2885 65.1441 61.0052 65.5514 60.8028 65.8162C60.5954 66.0809 59.9731 66.7733 59.4166 67.3588C58.86 67.9392 58.2023 68.6367 57.9493 68.9117C57.6964 69.1866 57.3574 69.5939 57.1904 69.8128C57.0234 70.0369 56.7907 70.3933 56.6693 70.602C56.5529 70.8107 56.3809 71.1569 56.1279 71.7475L56.0773 83.2539L42.1133 83.2844L41.6327 83.1724C41.3392 83.1012 40.9749 82.9739 40.6967 82.8313C40.3324 82.648 40.1503 82.5106 39.8062 82.1644C39.5634 81.92 39.2902 81.5789 39.1789 81.3956C39.0777 81.2123 38.9208 80.861 38.6729 80.1482L38.6577 72.0021C38.6476 66.6104 38.6628 63.7389 38.6982 63.5149C38.7235 63.3214 38.8045 63.0007 38.8803 62.8021C38.9512 62.5985 39.0878 62.293 39.189 62.125C39.2902 61.957 39.5684 61.626 39.8062 61.3867C40.13 61.066 40.3476 60.898 40.6461 60.7401C40.8687 60.623 41.1874 60.4907 41.3544 60.4397C41.5214 60.3939 41.7845 60.3379 41.9362 60.3176C42.088 60.2972 51.1292 60.2819 62.0222 60.287ZM46.7427 72.0632C46.4594 72.1956 46.2722 72.333 46.004 72.6029C45.8067 72.8065 45.5942 73.0713 45.5284 73.1986C45.4627 73.3258 45.3665 73.555 45.3058 73.7077C45.2097 73.9724 45.2046 74.1099 45.1894 76.065L45.1743 78.1371L50.7143 78.1117C50.684 74.4918 50.6688 74.0335 50.603 73.8095C50.5626 73.6568 50.4563 73.392 50.3703 73.224C50.2792 73.056 50.0718 72.7811 49.9048 72.6131C49.7328 72.44 49.4495 72.2261 49.2471 72.1192C49.0498 72.0174 48.7462 71.8952 48.5641 71.8545C48.3819 71.8086 48.0986 71.7781 47.9317 71.7781C47.7647 71.7832 47.5117 71.8086 47.3751 71.8341C47.2335 71.8595 46.9501 71.9614 46.7427 72.0632ZM74.3672 72.1294C74.185 72.2261 73.9017 72.445 73.7347 72.6131C73.5577 72.7913 73.3553 73.0662 73.249 73.2749C73.1478 73.4684 73.0315 73.7586 72.9961 73.9113C72.9404 74.1252 72.9252 74.6598 72.9252 76.1515V78.1117L78.4653 78.1371C78.4653 74.4408 78.4602 74.2626 78.3641 73.8859C78.3034 73.6619 78.1971 73.3666 78.1213 73.224C78.0454 73.0866 77.8227 72.8065 77.6305 72.608C77.3876 72.3636 77.1701 72.1956 76.9475 72.0887C76.7653 72.0021 76.482 71.8952 76.315 71.8494C76.1481 71.8086 75.8496 71.773 75.6573 71.7781C75.4651 71.7781 75.1665 71.8188 74.9996 71.8697C74.8326 71.9156 74.5493 72.0327 74.3672 72.1294ZM28.9386 18.7725C28.9639 18.7725 28.9841 18.7826 28.9841 18.7979C28.9841 18.8132 29.0954 19.2765 29.232 19.8315C29.3737 20.3813 29.6469 21.537 29.8392 22.4026C30.0365 23.263 30.2692 24.3831 30.3502 24.8973C30.4362 25.4064 30.5272 26.1447 30.5576 26.5367C30.593 26.944 30.6031 27.8299 30.593 28.5987C30.5778 29.342 30.5525 29.9784 30.5374 30.0141C30.5121 30.0599 30.1275 30.0752 27.2892 30.0752L27.2538 29.785C27.2335 29.622 27.2032 29.1486 27.183 28.726C27.1627 28.2932 27.1779 27.5244 27.2133 26.944C27.2487 26.2974 27.3347 25.5439 27.441 24.882C27.5523 24.2049 27.8002 23.0848 28.1442 21.7C28.4377 20.5239 28.7261 19.3834 28.7868 19.1645C28.8424 18.9507 28.9133 18.7725 28.9386 18.7725V18.7725ZM28.4579 19.6533C28.463 19.6634 28.2404 20.6002 27.9621 21.7305C27.6737 22.9321 27.3904 24.2202 27.2892 24.8311C27.1981 25.4064 27.0919 26.2669 27.0565 26.7404C27.0211 27.2749 27.0109 28.0132 27.0261 28.6751C27.0463 29.2657 27.0767 29.8206 27.1374 30.0752H25.6449L25.6044 29.785C25.5842 29.622 25.569 28.8227 25.569 28.0132C25.569 26.8269 25.5892 26.4298 25.6601 25.9767C25.7107 25.6661 25.7866 25.2792 25.827 25.1111C25.8675 24.9431 25.9636 24.6224 26.0345 24.3984C26.1053 24.1743 26.2368 23.8434 26.3279 23.6601C26.4139 23.4768 26.6871 22.9728 26.93 22.54C27.1728 22.1073 27.5978 21.2927 27.8812 20.7326C28.1594 20.1726 28.4023 19.694 28.4175 19.6736C28.4326 19.6482 28.4478 19.6431 28.4579 19.6533ZM29.4091 19.638C29.4243 19.638 29.7076 20.1828 30.0415 20.8497C30.3704 21.5116 30.8409 22.4127 31.0787 22.8455C31.3165 23.2783 31.5847 23.8078 31.6707 24.0165C31.7617 24.2253 31.8933 24.6478 31.9742 24.9584C32.0501 25.269 32.1513 25.7934 32.2019 26.1294C32.2576 26.5418 32.2879 27.0866 32.293 27.8095C32.298 28.4001 32.2829 29.1486 32.2221 30.0752H30.7296L30.7498 28.5834C30.76 27.723 30.7448 26.8065 30.7094 26.4094C30.679 26.0327 30.5829 25.3097 30.4969 24.8057C30.4109 24.3016 30.1377 22.9982 29.8847 21.9036C29.6317 20.8141 29.4142 19.8569 29.399 19.7754C29.3838 19.6991 29.3889 19.638 29.4091 19.638ZM27.7901 20.4017C27.8002 20.4017 27.8002 20.4526 27.7901 20.5137C27.7749 20.5799 27.5826 20.9872 27.355 21.4199C27.1324 21.8527 26.7833 22.4942 26.5809 22.8455C26.3785 23.1968 26.1357 23.6856 26.0345 23.9401C25.9333 24.1947 25.7967 24.6173 25.7309 24.882C25.6601 25.1468 25.5639 25.5948 25.5133 25.8748C25.4324 26.3025 25.4172 26.6487 25.4172 28.0132C25.4172 28.9093 25.4324 29.7391 25.4931 30.0752H24.9619C24.5015 30.0752 24.4256 30.065 24.4053 29.9835C24.3901 29.9377 24.3497 29.6577 24.3092 29.3624C24.2687 29.0671 24.2181 28.5529 24.203 28.2168C24.1827 27.8655 24.1928 27.3462 24.2232 26.9949C24.2586 26.6589 24.3244 26.1752 24.375 25.9258C24.4306 25.6763 24.5318 25.2842 24.6077 25.0602C24.6836 24.8362 24.8809 24.3882 25.0428 24.0674C25.2098 23.7467 25.4931 23.2732 25.6854 23.0237C25.8726 22.7691 26.2267 22.3364 26.4696 22.0564C26.7175 21.7763 27.1121 21.2876 27.3449 20.9719C27.5826 20.6613 27.78 20.4017 27.7901 20.4017ZM30.0719 20.4526C30.0871 20.4526 30.2894 20.7123 30.5171 21.0228C30.7498 21.3385 31.1192 21.7916 31.3317 22.0309C31.5442 22.2702 31.8882 22.6826 32.0906 22.9473C32.2879 23.2121 32.5459 23.5939 32.6522 23.7874C32.7635 23.9809 32.9406 24.3525 33.0468 24.602C33.1531 24.8515 33.2998 25.269 33.3656 25.5184C33.4313 25.7679 33.5174 26.216 33.5629 26.5113C33.6034 26.8065 33.6388 27.3666 33.6388 27.7586C33.6388 28.1507 33.6135 28.6802 33.5882 28.9296C33.5629 29.1791 33.5174 29.5406 33.4364 30.0752H32.3486L32.3891 29.785C32.4093 29.622 32.4397 29.0315 32.4549 28.4714C32.4802 27.8248 32.465 27.2037 32.4296 26.7658C32.3942 26.3891 32.3233 25.8392 32.2677 25.5439C32.212 25.2486 32.0805 24.7598 31.9843 24.4493C31.8882 24.1438 31.7364 23.7518 31.6555 23.5837C31.5695 23.4157 31.3367 22.983 31.1344 22.6164C30.932 22.2498 30.6234 21.6694 30.4513 21.3181C30.2793 20.9668 30.1174 20.6308 30.0921 20.5646C30.0668 20.5035 30.0618 20.4526 30.0719 20.4526ZM30.8915 20.7581C30.9168 20.753 30.9674 20.7937 31.0079 20.8395C31.0484 20.8904 31.6302 21.425 32.298 22.0309C32.9659 22.6419 33.7298 23.3648 33.9929 23.6398C34.2611 23.9198 34.5596 24.2813 34.6608 24.4493C34.762 24.6173 34.9087 24.9177 34.9795 25.1111C35.0554 25.3046 35.1566 25.6763 35.2072 25.9258C35.2578 26.1752 35.3185 26.6029 35.3387 26.8676C35.359 27.1477 35.3438 27.6212 35.3134 27.9877C35.278 28.339 35.2072 28.8634 35.1515 29.1587C35.0959 29.454 35.02 29.7799 34.9896 29.8868C34.9289 30.0752 34.9239 30.0752 34.423 30.0752L34.4584 29.8868C34.4837 29.7799 34.5343 29.4082 34.5798 29.0569C34.6254 28.7005 34.6608 28.0539 34.6608 27.5804C34.6608 26.9135 34.6405 26.6284 34.5495 26.2058C34.4888 25.9105 34.3623 25.4624 34.2661 25.213C34.17 24.9635 33.9828 24.5613 33.8513 24.322C33.7248 24.0827 33.4516 23.6703 33.2543 23.4056C33.0519 23.1408 32.4296 22.4586 31.873 21.8883C31.3114 21.3232 30.8561 20.8344 30.8561 20.809C30.8561 20.7835 30.8713 20.7581 30.8915 20.7581ZM30.7498 20.9719C30.7701 20.9821 31.2608 21.481 31.8427 22.0818C32.4296 22.6826 33.0215 23.3394 33.1632 23.5328C33.3049 23.7263 33.5174 24.0521 33.6287 24.2456C33.745 24.4391 33.9221 24.7955 34.0233 25.0348C34.1245 25.2741 34.2661 25.6865 34.337 25.9512C34.4584 26.4043 34.4685 26.5163 34.4685 27.6059C34.4736 28.5376 34.4533 28.9093 34.2712 30.0752H33.9272C33.6034 30.0752 33.5882 30.0701 33.6135 29.9581C33.6236 29.897 33.6742 29.5609 33.7197 29.2096C33.7804 28.7209 33.7956 28.3288 33.7754 27.5295C33.7551 26.7455 33.7248 26.3636 33.6438 26.0021C33.5882 25.7374 33.4566 25.2792 33.3555 24.9839C33.2593 24.6886 33.0671 24.2456 32.9406 23.9911C32.809 23.7365 32.5814 23.3597 32.4296 23.151C32.2829 22.9422 31.9995 22.5808 31.7971 22.3466C31.5998 22.1124 31.271 21.7254 31.0686 21.481C30.8662 21.2367 30.7043 21.0177 30.7094 20.9974C30.7144 20.9719 30.7296 20.9617 30.7498 20.9719ZM26.7124 21.4199C26.7377 21.4199 26.758 21.4352 26.758 21.4556C26.758 21.481 26.5303 21.7611 26.252 22.0818C25.9738 22.4026 25.6196 22.8404 25.4678 23.0492C25.3211 23.2579 25.0833 23.6499 24.9416 23.9147C24.8 24.1794 24.6178 24.5918 24.5318 24.8311C24.4407 25.0704 24.3193 25.493 24.2535 25.773C24.1878 26.053 24.1068 26.5062 24.0765 26.776C24.0512 27.0509 24.0259 27.499 24.0259 27.7688C24.0259 28.0437 24.0512 28.507 24.0815 28.8023C24.1119 29.0976 24.1625 29.5049 24.2535 30.0752H23.9348C23.6768 30.0752 23.6161 30.0599 23.5958 29.9835C23.5857 29.9377 23.5351 29.622 23.4845 29.286C23.4289 28.8787 23.3985 28.339 23.3985 27.6823C23.3934 27.056 23.4187 26.5571 23.4592 26.3331C23.4997 26.1396 23.5857 25.7934 23.6565 25.5694C23.7274 25.3453 23.869 24.9788 23.9753 24.7548C24.0815 24.5307 24.3345 24.0929 24.5369 23.7874C24.8151 23.3648 25.1238 23.0084 25.7916 22.3211C26.2773 21.8272 26.6922 21.4199 26.7124 21.4199ZM61.8198 21.6236C61.8501 21.6236 61.9058 21.7305 61.9463 21.8629C61.9817 22.0004 62.1638 22.5859 62.346 23.1764C62.523 23.767 62.9329 25.1621 63.2567 26.2821C63.5754 27.4022 64.056 29.0976 64.3191 30.0497C64.5822 31.0018 65.2298 33.3387 65.7611 35.2428C66.4036 37.5543 66.8033 39.1122 66.9753 39.9269C67.1119 40.5989 67.3396 41.7546 67.4813 42.498C67.6179 43.2413 67.7798 44.1221 67.8354 44.4581C67.8911 44.7941 67.9872 45.5731 68.0429 46.1892C68.0985 46.8052 68.1694 47.686 68.2048 48.1493C68.2453 48.689 68.2705 49.9873 68.2705 51.7641C68.2705 53.4952 68.2453 54.8342 68.2048 55.3281C68.1694 55.7608 68.1087 56.5042 68.0682 56.9827C68.0226 57.4613 67.9771 57.8992 67.9417 58.0774H55.4449L55.4196 57.9603C55.4095 57.8992 55.364 57.4817 55.3235 57.0337C55.2779 56.5856 55.2172 55.8423 55.1818 55.379C55.1363 54.8342 55.116 53.541 55.116 51.6878C55.116 49.8651 55.1413 48.5413 55.1818 48.022C55.2122 47.574 55.2881 46.6932 55.3488 46.0619C55.4196 45.288 55.541 44.4276 55.7232 43.4144C55.875 42.5896 56.1482 41.1793 56.3303 40.2832C56.5124 39.3872 56.7553 38.3231 56.8666 37.9158C56.983 37.5085 57.3877 36.1033 57.7722 34.7846C58.1618 33.466 58.7487 31.4753 59.0877 30.3552C59.4267 29.2351 60.0389 27.2189 60.4537 25.8748C60.8686 24.5307 61.3138 23.1103 61.4403 22.7182C61.5668 22.3262 61.6933 21.9189 61.7237 21.812C61.749 21.7101 61.7945 21.6236 61.8198 21.6236ZM60.6409 23.7263C60.6511 23.7569 60.3829 24.6835 60.049 25.773C59.71 26.8626 59.1282 28.7769 58.7538 30.0243C58.3794 31.2716 57.7571 33.3642 57.3675 34.6828C56.983 36.0015 56.5782 37.4067 56.4619 37.814C56.3505 38.2213 56.1178 39.2293 55.9508 40.0541C55.7788 40.8789 55.5208 42.223 55.369 43.0326C55.2172 43.8421 55.0705 44.7025 55.0452 44.9418C55.0149 45.1811 54.944 45.8786 54.8934 46.4946C54.8378 47.1107 54.7619 48.0628 54.7315 48.6075C54.6961 49.1523 54.6708 50.5422 54.6708 51.6878C54.6708 52.8333 54.6961 54.2233 54.7315 54.768C54.7619 55.3128 54.8378 56.2547 54.8884 56.8555C54.944 57.4562 54.9896 57.9806 54.9896 58.0112C54.9896 58.0621 54.3824 58.0774 52.131 58.0774C49.4495 58.0774 49.2724 58.0723 49.2522 57.9857C49.237 57.9399 49.1813 57.441 49.1257 56.8809C49.065 56.3209 48.984 55.4146 48.9385 54.8699C48.898 54.3251 48.8474 53.0166 48.8322 51.9678C48.812 50.7612 48.8272 49.6869 48.8626 49.0403C48.893 48.4803 48.9688 47.6096 49.0245 47.1056C49.0801 46.6016 49.1915 45.787 49.2775 45.2982C49.3584 44.8094 49.5355 43.949 49.6721 43.3889C49.8138 42.8289 50.0414 42.0143 50.1831 41.5815C50.3248 41.1488 50.5575 40.5073 50.6992 40.156C50.8358 39.8047 51.1798 39.0511 51.4631 38.4758C51.9185 37.539 52.1158 37.2132 53.3958 35.2938C54.18 34.1177 55.1413 32.6616 55.5309 32.0608C55.9205 31.46 56.477 30.5894 56.7705 30.1261C57.0589 29.6628 57.585 28.8176 57.9341 28.2423C58.2832 27.667 58.8044 26.7862 59.0978 26.2821C59.3913 25.7781 59.8314 24.9991 60.0793 24.5511C60.3273 24.1031 60.5499 23.7212 60.5752 23.7008C60.6005 23.6805 60.6308 23.6907 60.6409 23.7263ZM63.0745 23.7161C63.1099 23.7569 63.3224 24.1183 63.54 24.5256C63.7575 24.9329 64.1977 25.7221 64.5165 26.2821C64.8352 26.8422 65.3766 27.7688 65.7155 28.3441C66.0596 28.9194 66.6465 29.8817 67.0209 30.4825C67.3953 31.0832 68.0328 32.0913 68.4426 32.7227C68.8473 33.354 69.7024 34.6573 70.3449 35.6247C71.3416 37.1215 71.5895 37.5339 72.0297 38.4249C72.313 39.0002 72.6571 39.7537 72.7937 40.105C72.9303 40.4564 73.1377 41.0164 73.2541 41.3524C73.3654 41.6884 73.5475 42.2841 73.6538 42.6762C73.7651 43.0682 73.9118 43.6639 73.9877 43.9999C74.0636 44.3359 74.185 44.9978 74.266 45.4764C74.3469 45.955 74.4582 46.8052 74.5139 47.3703C74.5746 47.9406 74.6454 49.0403 74.6758 49.8142C74.7163 50.863 74.7163 51.6216 74.6758 52.7315C74.6454 53.5563 74.5695 54.7731 74.5139 55.4299C74.4633 56.0867 74.3823 56.9115 74.3419 57.2628C74.3014 57.6141 74.266 57.9399 74.266 57.9857C74.266 58.0723 74.0939 58.0774 68.397 58.0774V57.9603C68.397 57.8992 68.4325 57.5021 68.4729 57.0846C68.5134 56.662 68.5691 56.0001 68.5994 55.6081C68.6247 55.2161 68.6702 54.1825 68.7006 53.317C68.736 52.2326 68.736 51.2397 68.7006 50.1349C68.6753 49.2541 68.6146 48.0831 68.5741 47.5384C68.5336 46.9936 68.4628 46.179 68.4173 45.7309C68.3768 45.2829 68.2958 44.6516 68.2402 44.3308C68.1845 44.0101 68.0226 43.1395 67.886 42.3961C67.7444 41.6528 67.5167 40.4971 67.3801 39.825C67.2081 39.0104 66.8084 37.4525 66.1658 35.141C65.6346 33.2369 64.9414 30.7421 64.6227 29.5915C64.304 28.4409 63.8031 26.6793 63.5147 25.6712C63.2212 24.6631 62.9885 23.7976 62.9936 23.7416C63.0037 23.6601 63.0189 23.6601 63.0745 23.7161ZM59.2243 24.0471C59.2344 24.0572 59.0523 24.2863 58.8246 24.5511C58.5919 24.8158 58.3794 25.0348 58.3541 25.0399C58.3288 25.0399 58.3338 25.0093 58.3642 24.9737C58.3996 24.938 58.4198 24.8922 58.4047 24.8668C58.3895 24.8464 58.4806 24.7446 58.607 24.6377C58.7335 24.5358 58.8398 24.4289 58.8347 24.3984C58.8347 24.3678 58.9207 24.2762 59.0219 24.1845C59.1231 24.098 59.2142 24.0369 59.2243 24.0471ZM65.0932 24.7293C65.1185 24.7242 65.1792 24.7751 65.2349 24.8311C65.2905 24.8871 65.3108 24.9329 65.2855 24.9329C65.2602 24.9279 65.2703 24.9635 65.3108 25.0093C65.3664 25.0653 65.3664 25.0908 65.326 25.0857C65.2905 25.0857 65.2147 25.0246 65.159 24.9431C65.0983 24.8668 65.0528 24.7904 65.0578 24.7649C65.0578 24.7446 65.073 24.7293 65.0983 24.7293H65.0932ZM59.3154 24.882C59.3154 24.882 59.3204 24.9228 59.3204 24.9686C59.3204 25.0195 59.0169 25.5745 58.6526 26.2058C58.2832 26.8371 57.7166 27.7892 57.3877 28.3187C57.0589 28.8482 56.5782 29.6271 56.3101 30.0497C56.047 30.4672 55.3184 31.5924 54.6961 32.5445C54.0738 33.4965 53.1429 34.9068 52.6268 35.6756C51.8527 36.8313 51.5947 37.2692 51.1444 38.1704C50.8459 38.7711 50.4563 39.6316 50.2792 40.0796C50.1072 40.5276 49.8593 41.2048 49.7379 41.5815C49.6164 41.9583 49.404 42.7271 49.2673 43.2871C49.1307 43.8472 48.9486 44.7076 48.8626 45.1964C48.7816 45.6851 48.6653 46.4896 48.6096 46.9783C48.559 47.4671 48.4882 48.2461 48.4578 48.7094C48.4275 49.1727 48.4022 50.3182 48.4022 51.255C48.4022 52.1918 48.4275 53.373 48.4578 53.877C48.4831 54.3811 48.5438 55.1957 48.5843 55.6845C48.6299 56.1732 48.6956 56.8605 48.7361 57.2118C48.7766 57.5632 48.812 57.8992 48.812 58.0774H46.7123C44.7543 58.0774 44.6127 58.0723 44.5874 57.9857C44.5773 57.9399 44.4963 57.553 44.4103 57.1355C44.3243 56.7129 44.1978 56.0256 44.132 55.6081C44.0663 55.1855 43.9651 54.432 43.9094 53.928C43.8487 53.4239 43.7829 52.4973 43.7526 51.866C43.7222 51.143 43.7222 50.3437 43.7526 49.7022C43.7779 49.1421 43.8234 48.4548 43.8538 48.1748C43.8841 47.8948 43.9448 47.4365 43.9853 47.1565C44.0258 46.8765 44.1067 46.4081 44.1624 46.1128C44.218 45.8175 44.3344 45.3033 44.4204 44.9673C44.5014 44.6312 44.6886 43.9897 44.8353 43.5417C44.982 43.0936 45.2249 42.442 45.3716 42.0907C45.5183 41.7394 45.7814 41.164 45.9585 40.8026C46.1356 40.4462 46.4341 39.8963 46.6213 39.5806C46.8034 39.2701 47.0918 38.8017 47.2588 38.5522C47.4257 38.3027 47.7495 37.8445 47.9772 37.5339C48.1998 37.2234 48.6248 36.6888 48.9182 36.3375C49.2066 35.9862 49.8745 35.2581 50.4057 34.7134C50.937 34.1737 51.959 33.1707 52.6825 32.4884C53.406 31.8062 54.3318 30.8898 54.7416 30.4468C55.1464 30.0039 55.7232 29.3573 56.0217 29.006C56.3202 28.6547 56.8666 27.9928 57.2359 27.5295C57.6002 27.0662 58.1972 26.2974 58.5514 25.8239C58.9106 25.3504 59.2243 24.9431 59.2547 24.9228C59.285 24.9024 59.3103 24.882 59.3154 24.882ZM58.1871 25.1417C58.2074 25.1366 58.2225 25.157 58.2225 25.1875C58.2225 25.2181 57.8937 25.5897 57.499 26.0123C57.0993 26.44 56.3961 27.1578 55.9407 27.6008C55.4854 28.0488 54.7265 28.7667 54.2509 29.1995C53.7753 29.6373 52.9101 30.4061 52.3232 30.9101C51.7414 31.4193 50.6941 32.295 49.9959 32.855C49.3028 33.4202 48.473 34.1075 48.1543 34.3824C47.8355 34.6624 47.198 35.253 46.7427 35.7011C46.2873 36.1491 45.6853 36.7753 45.4019 37.0961C45.1237 37.4117 44.6784 37.9412 44.4204 38.2671C44.1624 38.5929 43.7273 39.1886 43.4541 39.5959C43.1809 40.0032 42.8368 40.5429 42.6901 40.7924C42.5434 41.0419 42.2651 41.5713 42.0678 41.9634C41.8755 42.3554 41.6175 42.9155 41.4961 43.2107C41.3797 43.506 41.2178 43.9184 41.1419 44.1272C41.066 44.3359 40.9294 44.7738 40.8333 45.0945C40.7422 45.4153 40.6107 45.9651 40.5398 46.3164C40.4741 46.6677 40.383 47.238 40.3324 47.5893C40.2818 47.9915 40.2413 48.7756 40.2262 49.7022C40.211 50.5931 40.2211 51.5147 40.2565 52.0187C40.2869 52.482 40.3476 53.1693 40.3931 53.5461C40.4336 53.9229 40.5247 54.6102 40.5955 55.0735C40.6663 55.5368 40.813 56.3718 40.9244 56.9318C41.0306 57.4919 41.1217 57.9806 41.1217 58.0112C41.1217 58.0621 40.8788 58.0774 39.0473 58.0774L38.9512 57.8075C38.9006 57.665 38.7741 57.2679 38.678 56.9318C38.5768 56.5958 38.4149 56.0001 38.3187 55.6081C38.2226 55.2161 38.086 54.5949 38.0152 54.2334C37.9444 53.872 37.8381 53.2712 37.7825 52.9097C37.7319 52.5482 37.6458 51.8711 37.6003 51.4078C37.5497 50.8884 37.5194 50.0891 37.5194 49.3203C37.5194 48.633 37.5447 47.798 37.575 47.462C37.6104 47.126 37.6813 46.5659 37.7369 46.2146C37.7926 45.8633 37.9039 45.3033 37.9848 44.9673C38.0658 44.6312 38.2378 44.0457 38.3643 43.669C38.4958 43.2922 38.7539 42.6609 38.9411 42.2689C39.1283 41.8768 39.4015 41.3626 39.5532 41.1233C39.7 40.884 39.9833 40.4716 40.1806 40.2069C40.3779 39.9421 40.7776 39.4788 41.0711 39.1733C41.3645 38.8628 41.9312 38.3384 42.3359 37.9972C42.7407 37.6561 43.4136 37.1012 43.8285 36.7652C44.2484 36.4291 44.9719 35.8538 45.4475 35.4872C45.9231 35.1207 46.935 34.3621 47.6989 33.7969C48.4629 33.2369 49.6468 32.3612 50.3298 31.8571C51.0128 31.3531 51.9438 30.6505 52.4042 30.2941C52.8646 29.9428 53.6033 29.3471 54.0485 28.9805C54.4937 28.6089 55.1869 28.0132 55.5916 27.6517C55.9964 27.2902 56.7351 26.5774 57.2359 26.0683C57.7368 25.5592 58.1618 25.1417 58.1871 25.1417ZM64.5266 25.2232C64.5569 25.2486 64.8909 25.6763 65.2653 26.1803C65.6397 26.6844 66.2164 27.443 66.5503 27.8604C66.8843 28.283 67.4661 28.9805 67.8405 29.4133C68.2149 29.8461 68.8018 30.4977 69.1509 30.8592C69.5 31.2207 70.2842 31.9844 70.8964 32.5597C71.5086 33.135 72.3839 33.9853 72.8443 34.4486C73.3047 34.9119 73.932 35.584 74.2356 35.9353C74.5442 36.2866 74.9793 36.8161 75.202 37.1063C75.4296 37.3965 75.8546 37.9922 76.143 38.4249C76.4365 38.8577 76.821 39.4635 76.993 39.7741C77.1701 40.0847 77.4686 40.6549 77.6608 41.0469C77.848 41.439 78.1213 42.0601 78.2629 42.4216C78.4096 42.7831 78.612 43.3584 78.7233 43.6944C78.8296 44.0304 79.0067 44.6618 79.1129 45.0945C79.2242 45.5273 79.3709 46.2299 79.4418 46.6474C79.5126 47.07 79.6087 47.7675 79.6593 48.2002C79.7251 48.8061 79.7453 49.4018 79.7453 50.7713C79.7453 52.09 79.72 52.7722 79.6593 53.3934C79.6087 53.8567 79.5177 54.6204 79.4468 55.099C79.3811 55.5775 79.2444 56.3667 79.1433 56.8555C79.0421 57.3442 78.9459 57.8228 78.8903 58.0774H74.6404L74.6758 57.889C74.696 57.7821 74.7567 57.2475 74.8124 56.7027C74.868 56.158 74.9389 55.3993 74.9692 55.0226C74.9945 54.6458 75.0401 53.8516 75.0704 53.2661C75.0957 52.6806 75.121 51.7489 75.121 51.2041C75.121 50.6593 75.0957 49.7785 75.0704 49.2439C75.0401 48.7094 74.9844 47.9202 74.9439 47.4874C74.8984 47.0547 74.8175 46.3775 74.7618 45.9855C74.7061 45.5935 74.605 44.9723 74.5341 44.6109C74.4633 44.2494 74.3166 43.5824 74.2053 43.1344C74.0889 42.6863 73.8562 41.8819 73.6791 41.3524C73.502 40.8229 73.2288 40.0745 73.0719 39.6977C72.9151 39.321 72.566 38.5726 72.2979 38.0431C71.9032 37.2641 71.5592 36.6939 70.4967 35.0901C69.7783 34.0006 68.8524 32.5903 68.4527 31.959C68.0479 31.3276 67.4054 30.3094 67.0259 29.6933C66.6465 29.0773 66.1203 28.2067 65.8521 27.7586C65.5891 27.3106 65.1742 26.6029 64.9364 26.1803C64.6935 25.7628 64.4912 25.3657 64.481 25.2995C64.4709 25.2232 64.4861 25.1977 64.5266 25.2232ZM66.864 27.4277C66.8843 27.4277 67.2536 27.7637 67.6837 28.1761C68.1188 28.5885 68.731 29.174 69.0497 29.4693C69.3684 29.7646 69.9402 30.2788 70.3146 30.6098C70.689 30.9458 71.4631 31.6077 72.0348 32.0862C72.6065 32.5597 73.4666 33.2725 73.9523 33.6645C74.438 34.0566 75.121 34.6319 75.4701 34.9374C75.8192 35.2479 76.4618 35.8538 76.8918 36.2866C77.3219 36.7193 77.8986 37.3405 78.1769 37.6612C78.4501 37.982 78.8498 38.4758 79.0674 38.7559C79.2799 39.0359 79.629 39.5195 79.8364 39.825C80.0438 40.1356 80.3575 40.6244 80.5346 40.9197C80.7066 41.215 81.0102 41.775 81.2075 42.167C81.3998 42.5591 81.6628 43.1344 81.7893 43.4399C81.9108 43.7504 82.0929 44.229 82.189 44.509C82.2852 44.7891 82.4268 45.2829 82.5078 45.6037C82.5887 45.9244 82.6899 46.3826 82.7355 46.6219C82.7759 46.8612 82.8468 47.3194 82.8923 47.6402C82.9378 47.9813 82.9834 48.8316 82.9985 49.6767C83.0137 50.5931 83.0036 51.4485 82.9682 51.9933C82.9328 52.4718 82.8721 53.1439 82.8366 53.4952C82.7962 53.8465 82.7 54.5338 82.6292 55.0226C82.5533 55.5114 82.4015 56.3972 82.0727 58.0519L79.3203 58.0774L79.3456 57.9654C79.3608 57.8992 79.4519 57.4613 79.543 56.9827C79.6391 56.5042 79.7757 55.715 79.8465 55.2262C79.9174 54.7375 80.0135 54.0043 80.059 53.597C80.0995 53.1897 80.1501 52.1613 80.1653 51.3059C80.1804 50.3335 80.1703 49.4578 80.1349 48.9639C80.1045 48.5312 80.0438 47.8998 79.9983 47.5638C79.9578 47.2278 79.8668 46.6423 79.7959 46.2655C79.7251 45.8888 79.6037 45.3135 79.5227 44.9927C79.4418 44.672 79.295 44.1323 79.1939 43.7962C79.0927 43.4602 78.8599 42.8085 78.6778 42.3452C78.4956 41.8819 78.182 41.164 77.9745 40.7415C77.7722 40.324 77.3876 39.6112 77.1195 39.1632C76.8513 38.7151 76.4466 38.0889 76.2189 37.7681C75.9912 37.4474 75.6017 36.9332 75.3537 36.6226C75.1058 36.312 74.6808 35.808 74.4127 35.4974C74.1395 35.1919 73.5981 34.6166 73.2136 34.2246C72.8291 33.8326 71.9993 33.0332 71.372 32.4477C70.7497 31.8622 70.0009 31.1393 69.7125 30.844C69.4241 30.5487 68.903 29.9835 68.5539 29.5915C68.2048 29.1995 67.6735 28.5732 67.375 28.2067C67.0715 27.835 66.8236 27.5091 66.8236 27.4786C66.8236 27.4531 66.8387 27.4277 66.859 27.4277H66.864ZM56.1886 27.9877C56.2241 27.9877 56.2544 28.0132 56.2544 28.0386C56.2544 28.0692 55.9761 28.4154 55.6372 28.8176C55.2931 29.2147 54.7164 29.8613 54.3521 30.2534C53.9878 30.6454 53.0316 31.5873 52.2271 32.3459C51.4227 33.1045 50.4664 34.0362 50.1072 34.4079C49.7429 34.7846 49.2724 35.2836 49.065 35.5229C48.8525 35.7622 48.4224 36.2764 48.1087 36.6684C47.8001 37.0604 47.2841 37.7681 46.9704 38.2467C46.6567 38.7253 46.257 39.3668 46.085 39.6723C45.9129 39.9829 45.6296 40.5327 45.4576 40.8942C45.2805 41.2557 45.0124 41.8768 44.8555 42.2689C44.7037 42.6609 44.4811 43.282 44.3648 43.6435C44.2484 44.005 44.0764 44.6261 43.9802 45.0182C43.8841 45.4102 43.7526 46.0517 43.6817 46.4437C43.616 46.8358 43.5249 47.4416 43.4794 47.7929C43.4389 48.1442 43.3782 48.9436 43.3428 49.5749C43.2972 50.4506 43.2972 51.0055 43.3428 51.9423C43.3782 52.6144 43.449 53.5665 43.5047 54.0552C43.5603 54.544 43.6514 55.2466 43.7121 55.6081C43.7678 55.9696 43.8942 56.6518 43.9904 57.1253C44.0865 57.5937 44.1624 58.001 44.1624 58.0265C44.1624 58.057 43.6969 58.0774 41.5821 58.0774L41.5112 57.7363C41.4708 57.5428 41.3544 56.9675 41.2583 56.4482C41.1621 55.9288 41.0255 55.104 40.9547 54.6153C40.8839 54.1265 40.7878 53.3221 40.7372 52.8333C40.6714 52.1765 40.6511 51.4892 40.6461 50.2113C40.6461 48.8417 40.6663 48.3326 40.7372 47.7675C40.7878 47.3754 40.8991 46.7136 40.98 46.291C41.066 45.8735 41.2633 45.1251 41.4252 44.6363C41.5871 44.1475 41.83 43.4959 41.9615 43.1853C42.0931 42.8798 42.2955 42.4318 42.4169 42.1925C42.5333 41.9532 42.7609 41.5306 42.9228 41.2506C43.0797 40.9706 43.4439 40.3851 43.7323 39.9523C44.0207 39.5195 44.5418 38.8068 44.8859 38.374C45.235 37.9412 45.8016 37.2794 46.1457 36.9128C46.4847 36.5411 47.0311 35.9913 47.3498 35.6909C47.6736 35.3854 48.1745 34.9323 48.4629 34.6828C48.7563 34.4282 49.4141 33.8784 49.9301 33.4609C50.4462 33.0434 51.195 32.4274 51.5997 32.0913C52.0045 31.7502 52.7786 31.0832 53.3199 30.6047C53.8613 30.1261 54.6455 29.4133 55.0654 29.0213C55.4803 28.6292 55.8901 28.2321 55.9711 28.1456C56.052 28.059 56.1532 27.9877 56.1886 27.9877ZM22.9128 31.5007H34.853L34.8834 31.6178C34.8986 31.6789 34.9036 31.8113 34.8783 32.0862H33.7299C33.0924 32.0862 30.4007 32.0811 22.9128 32.0608V31.5007ZM22.9128 32.7227H34.8783V80.0973L34.7266 80.53C34.6405 80.7693 34.4888 81.0901 34.3876 81.2428C34.2864 81.3956 34.0587 81.6603 33.8816 81.8283C33.7096 81.9963 33.4162 82.2102 33.234 82.3018C33.0519 82.3935 32.7787 82.5055 32.6269 82.5513C32.384 82.6277 31.9641 82.6379 29.1612 82.6531C27.0059 82.6684 25.8675 82.6582 25.6449 82.6175C25.4627 82.5869 25.1693 82.5157 24.9872 82.4546C24.805 82.3935 24.4863 82.2255 24.2788 82.088C24.0714 81.9454 23.7931 81.6909 23.6565 81.5229C23.5149 81.3548 23.3378 81.0799 23.2518 80.9119C23.1708 80.7439 23.0595 80.4333 23.0089 80.2246C22.9128 79.8529 22.9128 79.2165 22.9128 56.2801V32.7227ZM23.8235 56.3871C23.8235 76.0701 23.8336 78.6055 23.8994 78.8754C23.9399 79.0434 24.0562 79.3489 24.1524 79.5525C24.2788 79.8122 24.4306 80.026 24.6836 80.2755C24.9315 80.53 25.144 80.6879 25.402 80.8101C25.6044 80.9119 25.908 81.0239 26.0749 81.0646C26.3279 81.1308 26.8136 81.1461 28.9335 81.1461C31.0585 81.1461 31.5391 81.1308 31.7921 81.0646C31.9591 81.0239 32.2424 80.917 32.4245 80.8304C32.6471 80.7184 32.8697 80.5504 33.1075 80.306C33.3049 80.1075 33.5376 79.8122 33.6236 79.6391C33.7096 79.4762 33.8209 79.1961 33.8614 79.0281C33.9322 78.7532 33.9423 76.513 33.9423 56.4634V34.1991H23.8235V56.3871ZM24.2282 34.6115H33.5376V56.6416C33.5376 78.6106 33.5376 78.6768 33.4364 79.0179C33.3807 79.2114 33.2391 79.5067 33.1177 79.6798C32.9962 79.858 32.7635 80.1075 32.5965 80.2348C32.4346 80.362 32.1614 80.5199 31.6909 80.7133L29.0853 80.7286C27.4511 80.7388 26.3836 80.7235 26.2267 80.6879C26.0851 80.6624 25.827 80.5657 25.6449 80.474C25.4324 80.3722 25.1997 80.194 24.9872 79.9802C24.805 79.7969 24.5976 79.5271 24.5217 79.3896C24.4458 79.247 24.3497 78.9976 24.3092 78.8296C24.2333 78.5546 24.2282 76.3399 24.2282 56.5653V34.6115ZM27.8812 38.3435C27.7901 38.4351 27.6585 38.598 27.5928 38.71C27.527 38.822 27.4258 39.1021 27.3702 39.321C27.3145 39.545 27.2437 39.937 27.2133 40.1865C27.188 40.4411 27.1627 41.6732 27.1627 42.9256V45.2015H30.6031C30.6031 41.7495 30.5778 40.5429 30.5525 40.2883C30.5222 40.0389 30.4564 39.6672 30.4007 39.4635C30.3451 39.2599 30.249 38.9951 30.1933 38.878C30.1326 38.7609 30.0112 38.5675 29.9201 38.4555C29.829 38.3435 29.6469 38.2009 29.5103 38.1296C29.3484 38.0482 29.1511 38.0023 28.9335 37.9922C28.6957 37.9769 28.5288 37.9972 28.3264 38.0736C28.1746 38.1296 27.9722 38.2518 27.8812 38.3435ZM28.1493 53.9992C28.038 54.0552 27.8862 54.1672 27.8103 54.2487C27.7344 54.3302 27.613 54.5185 27.5371 54.6713C27.4612 54.8291 27.355 55.1601 27.2993 55.4095C27.2083 55.827 27.1981 56.1172 27.1728 58.4389L27.1526 61.01C27.4562 61.0711 28.1442 61.0863 28.8829 61.0863C29.6216 61.0863 30.3097 61.0711 30.4159 61.0507L30.6132 61.01C30.5677 56.2343 30.5576 55.9848 30.4665 55.5623C30.4058 55.3128 30.3046 54.9819 30.2388 54.824C30.1731 54.6713 30.0162 54.432 29.8897 54.2945C29.7683 54.1571 29.5761 54.0094 29.4648 53.9585C29.3534 53.9127 29.1612 53.8567 29.0347 53.8465C28.9082 53.8312 28.7058 53.8363 28.5794 53.8567C28.4529 53.877 28.2606 53.9432 28.1493 53.9992ZM28.0481 69.3699C27.9621 69.431 27.8457 69.5328 27.785 69.599C27.7243 69.6652 27.613 69.8434 27.5371 70.0012C27.4612 70.154 27.355 70.4849 27.2993 70.7395C27.2083 71.1569 27.1981 71.4217 27.1779 73.779L27.1627 76.3654H30.6031C30.5677 71.4522 30.5576 71.269 30.4564 70.8413C30.3957 70.5867 30.2894 70.2558 30.2186 70.103C30.1478 69.9452 30.0264 69.7416 29.9454 69.6448C29.8695 69.543 29.6975 69.4004 29.5609 69.3241C29.3889 69.2273 29.2118 69.1764 28.9841 69.1612C28.7868 69.1459 28.5642 69.1612 28.4276 69.1968C28.3011 69.2324 28.1291 69.3139 28.0481 69.3699Z" fill="#11323B"/>
</svg>
