<svg width="23" height="22" viewBox="0 0 23 22" fill="none" xmlns="http://www.w3.org/2000/svg">
<path d="M7.8902 0.298586C7.62895 0.566388 7.36294 0.958525 7.4437 0.958525C7.4627 0.958525 7.4437 0.992001 7.41044 1.03982C7.37244 1.08286 7.34869 1.1259 7.35819 1.13547C7.36294 1.14025 7.36769 1.15459 7.36294 1.15938C7.32494 1.28371 7.31544 1.45109 7.31544 1.86236C7.31544 2.25928 7.33444 2.39318 7.41044 2.53664C7.4627 2.63707 7.4912 2.73271 7.47695 2.74706C7.45795 2.7614 7.46745 2.77575 7.4912 2.77575C7.51495 2.77575 7.5767 2.85705 7.62895 2.95269C7.7382 3.15832 8.04221 3.49307 8.12296 3.49307C8.15146 3.49307 8.17521 3.51699 8.17521 3.5409C8.17521 3.59828 8.68822 3.84217 8.80698 3.83739C8.84973 3.83739 8.88773 3.85174 8.88773 3.88043C8.88773 3.90434 8.92098 3.92347 8.96373 3.92347C9.02548 3.92347 9.03498 3.95694 9.00648 4.10041C8.98748 4.20084 8.94948 4.29648 8.92098 4.31561C8.88298 4.33952 8.88773 4.35386 8.93523 4.35386C8.97323 4.35386 8.93523 4.3969 8.84973 4.44951C8.76422 4.50211 8.68347 4.57863 8.66922 4.61688C8.65022 4.65514 8.61222 4.68862 8.57422 4.68862C8.53622 4.68862 8.50772 4.70775 8.50772 4.73644C8.50772 4.76035 8.47447 4.78426 8.43172 4.78426C8.38897 4.78426 8.26546 4.8273 8.15621 4.87512C8.04696 4.92294 7.7572 5.04728 7.5102 5.1477C7.26319 5.24813 6.88318 5.42029 6.67418 5.53028C6.46042 5.64505 6.27042 5.72156 6.25617 5.70722C6.24192 5.68809 6.22767 5.70244 6.22767 5.73591C6.22767 5.76939 6.20867 5.78373 6.18492 5.76939C6.16117 5.75026 6.13267 5.75982 6.12317 5.77895C6.10417 5.83155 5.65766 6.07544 5.58641 6.07544C5.5484 6.07544 5.51515 6.09457 5.50565 6.1137C5.48665 6.15674 5.03539 6.42933 4.97839 6.43411C4.95464 6.43411 4.90714 6.47237 4.87389 6.52497C4.83589 6.57279 4.78839 6.5967 4.75989 6.57757C4.73139 6.56323 4.70764 6.57279 4.70764 6.5967C4.70764 6.62539 4.67914 6.6493 4.64588 6.6493C4.61263 6.6493 4.53663 6.69234 4.47963 6.74495C4.42263 6.79755 4.36563 6.84059 4.35138 6.84059C4.33238 6.84059 4.28963 6.86929 4.25638 6.89798C4.09962 7.04144 4.04262 7.0797 3.99987 7.0797C3.97137 7.0797 3.93337 7.10839 3.91437 7.14665C3.89537 7.18013 3.85262 7.21838 3.82412 7.22795C3.68636 7.27577 2.33258 8.54783 2.33258 8.62434C2.33258 8.64347 2.28508 8.70564 2.22808 8.76781C2.16633 8.82997 2.08558 8.9304 2.04758 8.98778C2.00958 9.04995 1.94783 9.12647 1.91933 9.16473C1.88607 9.1982 1.85757 9.24602 1.85757 9.27471C1.85757 9.30341 1.83382 9.32732 1.80532 9.32732C1.78157 9.32732 1.77207 9.35123 1.78632 9.37514C1.80057 9.40383 1.78157 9.43731 1.74357 9.45166C1.70082 9.466 1.68182 9.49948 1.69607 9.52339C1.71032 9.5473 1.69607 9.56643 1.67232 9.56643C1.64382 9.56643 1.62007 9.59034 1.62007 9.61425C1.62007 9.64294 1.56782 9.74815 1.50132 9.85336C1.43481 9.95857 1.39206 10.0446 1.40631 10.0446C1.42056 10.0446 1.40631 10.0925 1.37306 10.1499C1.33981 10.212 1.32081 10.2742 1.32556 10.2933C1.33031 10.3172 1.31131 10.3316 1.28281 10.3316C1.25906 10.3316 1.24956 10.3507 1.26381 10.3794C1.27806 10.4033 1.27331 10.4272 1.24481 10.4272C1.21631 10.4272 1.20681 10.4607 1.22106 10.4989C1.24006 10.5372 1.22581 10.5707 1.19256 10.5707C1.16406 10.5707 1.14981 10.5898 1.16406 10.6089C1.17831 10.6329 1.15456 10.7094 1.11656 10.7811C1.05481 10.9054 1.02631 11.0106 0.978805 11.2641C0.969305 11.3167 0.945554 11.4123 0.931304 11.4793C0.807801 12.0245 0.803051 12.9235 0.926554 13.6074C1.00731 14.0617 1.05481 14.2673 1.10231 14.3629C1.13556 14.4203 1.15931 14.4729 1.15456 14.4777C1.14981 14.4873 1.14506 14.4968 1.14981 14.5016C1.14981 14.5112 1.15931 14.5686 1.17356 14.6307C1.18306 14.6929 1.22106 14.8125 1.25906 14.8938C1.29231 14.9751 1.34456 15.0994 1.37306 15.1711C1.40631 15.2476 1.44907 15.305 1.47282 15.305C1.50132 15.305 1.51082 15.3481 1.50132 15.4007C1.49182 15.4485 1.53457 15.568 1.59632 15.6589C1.65807 15.7498 1.69607 15.8358 1.67707 15.8502C1.66282 15.8645 1.67707 15.8789 1.70557 15.8789C1.73882 15.8789 1.75782 15.8932 1.75307 15.9124C1.73407 15.9793 1.81482 16.1658 1.86232 16.1658C1.88607 16.1658 1.90507 16.1945 1.90507 16.228C1.90507 16.2662 1.95733 16.3571 2.01908 16.4288C2.08558 16.5054 2.12833 16.5819 2.11883 16.5962C2.10933 16.6153 2.14258 16.6727 2.19008 16.7301C2.24233 16.7875 2.28508 16.8545 2.28508 16.8831C2.28508 16.9071 2.30883 16.931 2.33258 16.931C2.36108 16.931 2.38009 16.9549 2.38009 16.9836C2.38009 17.017 2.42284 17.0792 2.47984 17.127C2.53209 17.1701 2.57959 17.2275 2.58434 17.2514C2.58434 17.2705 2.60809 17.3088 2.62709 17.3375C2.65084 17.3614 2.70784 17.4331 2.75534 17.4953L2.84085 17.6005L9.26299 17.6148C12.7923 17.6196 15.6804 17.61 15.6804 17.5957C15.6804 17.5766 15.7326 17.5 15.7991 17.4283C16.0841 17.0888 16.1506 17.0027 16.2124 16.8879C16.2456 16.821 16.3074 16.7253 16.3454 16.6823C16.3834 16.6393 16.4689 16.5006 16.5354 16.3715C16.6019 16.2471 16.6779 16.1276 16.7016 16.1084C16.7349 16.0845 16.7349 16.0702 16.7016 16.0702C16.6731 16.0702 16.6779 16.051 16.7064 16.0319C16.7681 15.9937 17.0722 15.4007 17.0342 15.4007C17.0152 15.4007 17.0389 15.3433 17.0769 15.2668C17.1387 15.152 17.1767 15.0564 17.1957 14.9607C17.2004 14.9416 17.2432 14.8268 17.2954 14.7025C17.3857 14.4921 17.5662 13.8273 17.5757 13.6791C17.5757 13.6408 17.5994 13.4974 17.6232 13.3683C17.7419 12.7035 17.6374 11.4267 17.4047 10.8098C17.3429 10.6376 17.2859 10.475 17.2812 10.4511C17.2574 10.3555 16.8917 9.63816 16.8347 9.57599C16.8014 9.54252 16.7729 9.48513 16.7729 9.44687C16.7729 9.4134 16.7396 9.37036 16.6969 9.35601C16.6589 9.34167 16.6399 9.30819 16.6541 9.2795C16.6684 9.25559 16.6589 9.23168 16.6351 9.23168C16.6066 9.23168 16.5829 9.1982 16.5829 9.15994C16.5829 9.1169 16.5496 9.07386 16.5116 9.05952C16.4736 9.04039 16.4404 9.00691 16.4404 8.97344C16.4404 8.94475 16.3976 8.89214 16.3454 8.85867C16.2931 8.82519 16.2504 8.78215 16.2504 8.75824C16.2504 8.67694 15.6376 8.02179 15.2339 7.67747C15.1104 7.57226 14.9679 7.44793 14.9156 7.40011C14.8681 7.35707 14.8159 7.31881 14.8016 7.31881C14.7779 7.31881 14.6259 7.19925 14.5166 7.08926C14.4786 7.06057 14.4311 7.03188 14.4073 7.03188C14.3788 7.03188 14.3503 7.01275 14.3408 6.98884C14.3218 6.92667 13.5333 6.4102 13.4621 6.4102C13.4288 6.4102 13.4003 6.39107 13.4003 6.36716C13.4003 6.34325 13.3623 6.31455 13.3196 6.29542C13.2721 6.28108 13.1153 6.195 12.9728 6.10414C12.8303 6.01328 12.6973 5.95111 12.6783 5.96546C12.6546 5.97502 12.6403 5.96067 12.6403 5.93198C12.6403 5.90329 12.6213 5.89372 12.5928 5.90807C12.5691 5.92242 12.5453 5.91285 12.5453 5.88416C12.5453 5.85547 12.5263 5.8459 12.4978 5.86025C12.4741 5.87459 12.4503 5.86981 12.4503 5.8459C12.4503 5.79808 12.1653 5.66418 12.1083 5.68331C12.0845 5.68809 12.0703 5.67374 12.0703 5.64983C12.0703 5.61636 11.828 5.48724 11.7378 5.47289C11.7235 5.47289 11.6095 5.42029 11.4765 5.3629C11.03 5.15249 10.859 5.07597 10.7878 5.06163C10.7498 5.05206 10.7023 5.02815 10.688 5.00902C10.6738 4.98989 10.612 4.96598 10.5598 4.9612C10.5028 4.95642 10.4553 4.93729 10.4553 4.91816C10.4553 4.89903 10.441 4.88469 10.422 4.88947C10.3983 4.89425 10.3223 4.87034 10.2415 4.83686C10.1655 4.80339 10.061 4.76991 10.0088 4.75557C9.96125 4.746 9.89475 4.71731 9.86625 4.68862C9.833 4.66471 9.79025 4.65514 9.776 4.67427C9.757 4.68862 9.74275 4.67905 9.74275 4.64558C9.74275 4.6121 9.72375 4.59775 9.70474 4.6121C9.65724 4.64079 9.45774 4.43038 9.45774 4.35865C9.45774 4.33474 9.43399 4.30604 9.40549 4.29648C9.38174 4.28691 9.35324 4.24866 9.34849 4.2104C9.33899 4.17214 9.31999 4.11476 9.30099 4.08128C9.25348 4.00477 9.32949 3.96651 9.59074 3.9426C9.71424 3.92825 9.852 3.91869 9.8995 3.91391C9.94225 3.90912 9.98025 3.88521 9.98025 3.8613C9.98025 3.83739 10.0088 3.82783 10.0468 3.84217C10.0848 3.85652 10.1275 3.85652 10.1418 3.83739C10.1608 3.82304 10.2035 3.80392 10.2415 3.79913C10.4458 3.77044 11.1203 3.2444 11.1203 3.11528C11.1203 3.08659 11.03 3.10572 10.9113 3.15832C10.7498 3.22527 10.5883 3.2444 10.1893 3.2444C9.909 3.24918 9.65249 3.23484 9.62399 3.21571C9.60024 3.20136 9.53849 3.17745 9.49099 3.17267C9.37699 3.15354 9.08248 2.99095 8.87823 2.82357C8.53622 2.55577 8.17046 2.02495 8.07546 1.67585C7.95196 1.2072 8.01846 0.418141 8.21321 0.1073C8.34146 -0.0935514 8.18471 -0.00269024 7.8902 0.298586ZM6.18017 6.96971C6.18017 6.99362 6.09467 7.07014 5.99016 7.14187C5.88566 7.21838 5.80016 7.2949 5.80016 7.31881C5.80016 7.34272 5.70991 7.42402 5.60066 7.50053C5.4059 7.63921 4.18512 8.82041 4.18512 8.87301C4.18512 8.88736 4.11387 8.96866 4.03312 9.05474C3.94762 9.13603 3.83362 9.26993 3.78137 9.34645C3.72911 9.41818 3.65786 9.50904 3.62936 9.54252C3.59611 9.58077 3.56761 9.6286 3.56761 9.65729C3.56761 9.68598 3.54861 9.70989 3.52486 9.70989C3.50111 9.70989 3.46786 9.76728 3.45361 9.83423C3.43461 9.90118 3.36811 10.0064 3.30636 10.0638C3.23985 10.1259 3.1876 10.1977 3.1876 10.2216C3.1876 10.2503 3.14485 10.3268 3.08785 10.3985C3.0356 10.4655 3.0071 10.5229 3.03085 10.5229C3.04985 10.5229 3.04035 10.542 3.0071 10.5611C2.97385 10.585 2.9406 10.652 2.92635 10.7094C2.91685 10.7715 2.8741 10.872 2.83135 10.9341C2.79334 10.9963 2.77434 11.0489 2.79334 11.0489C2.81709 11.0489 2.80284 11.068 2.77434 11.0872C2.74109 11.1063 2.70309 11.178 2.69359 11.2402C2.68409 11.3071 2.66984 11.3645 2.66034 11.3693C2.65559 11.3789 2.65084 11.398 2.64134 11.4171C2.63659 11.441 2.61759 11.4889 2.60334 11.5271C2.58434 11.5654 2.56534 11.6419 2.55584 11.6945C2.54634 11.7471 2.52259 11.8284 2.49884 11.8714C2.47984 11.9193 2.47509 11.991 2.49409 12.0292C2.50834 12.0675 2.49884 12.101 2.47509 12.101C2.45134 12.101 2.43234 12.1392 2.43709 12.1823C2.43709 12.2301 2.42284 12.3736 2.40859 12.5075C2.37059 12.7896 2.37058 13.3443 2.40384 13.7747C2.42759 14.076 2.44184 14.186 2.50359 14.4442C2.52259 14.5112 2.54634 14.6403 2.55584 14.7312C2.57009 14.822 2.59859 14.9177 2.61759 14.9464C2.63659 14.9703 2.66509 15.0898 2.68409 15.2094C2.70309 15.3242 2.74109 15.4485 2.76959 15.482C2.79809 15.5154 2.80284 15.5441 2.78384 15.5441C2.76484 15.5441 2.77434 15.5728 2.80284 15.6063C2.83135 15.6446 2.8646 15.7211 2.8741 15.788C2.88835 15.8502 2.89785 15.9028 2.9026 15.9028C2.90735 15.9028 2.91685 15.9411 2.92635 15.9841C2.9501 16.1084 2.8741 16.0893 2.76484 15.9363C2.70784 15.8645 2.64134 15.7737 2.60809 15.7354C2.54159 15.6637 2.45134 15.5202 2.39909 15.4007C2.38009 15.3624 2.35158 15.3194 2.33733 15.305C2.30883 15.2811 1.93833 14.5399 1.92883 14.4921C1.92883 14.4777 1.90032 14.4203 1.86707 14.3582C1.83382 14.3008 1.81957 14.253 1.83857 14.253C1.85282 14.253 1.84332 14.2195 1.81007 14.1812C1.77682 14.143 1.76732 14.1095 1.78632 14.1095C1.80532 14.1095 1.80057 14.0808 1.77682 14.0473C1.74832 14.0186 1.72457 13.9565 1.72457 13.9182C1.72457 13.8799 1.69132 13.6647 1.64857 13.44C1.53932 12.8279 1.53457 12.2492 1.63907 11.6706C1.64382 11.6323 1.66282 11.5654 1.68182 11.5271C1.69607 11.4889 1.74357 11.3263 1.78632 11.1685C1.82907 11.0106 1.88132 10.8385 1.90032 10.7859C1.98108 10.6042 2.01433 10.4989 2.00958 10.4607C2.00483 10.4416 2.01908 10.4272 2.04283 10.4272C2.08558 10.4272 2.21858 10.1403 2.19958 10.0781C2.19483 10.059 2.22333 10.0303 2.26608 10.0112C2.32783 9.98726 2.32783 9.97769 2.27558 9.94422C2.22808 9.91074 2.23283 9.90118 2.29458 9.90118C2.33733 9.90118 2.39909 9.83423 2.43709 9.75771C2.47034 9.67642 2.51309 9.61425 2.53209 9.61425C2.55584 9.61425 2.57009 9.58556 2.57009 9.55208C2.57009 9.51861 2.60809 9.45644 2.65559 9.4134C2.69834 9.37514 2.81234 9.24602 2.9026 9.13125C3.16385 8.81084 3.64361 8.32306 3.70061 8.32306C3.72911 8.32306 3.77662 8.28002 3.80512 8.22742C3.83362 8.17482 3.87637 8.13178 3.90487 8.13178C3.93337 8.13178 4.07587 8.04092 4.22313 7.92614C4.37038 7.81137 4.62688 7.644 4.79314 7.55313C4.95464 7.46706 5.08764 7.37619 5.08764 7.35228C5.08764 7.33316 5.10664 7.32359 5.1304 7.34272C5.15415 7.35707 5.20165 7.33794 5.23965 7.30446C5.30615 7.23751 5.5864 7.11318 5.63866 7.12752C5.65766 7.1323 5.68616 7.11318 5.70041 7.08448C5.71941 7.05579 5.78116 7.0271 5.83816 7.01753C5.89516 7.00797 5.95691 6.98884 5.97116 6.96971C6.01866 6.92667 6.18017 6.92667 6.18017 6.96971Z" fill="#4C7380"/>
<path d="M9.58134 0.609441C9.53859 0.733777 9.50533 0.87246 9.50533 0.920282C9.50533 0.996797 9.46258 1.00636 9.16333 1.01114C8.97332 1.01593 8.78807 1.01593 8.75007 1.01114C8.71682 1.00158 8.70257 1.02071 8.72157 1.0494C8.73582 1.07809 8.77857 1.102 8.81657 1.102C8.84982 1.102 8.88782 1.13548 8.90682 1.17374C8.92107 1.21199 8.95907 1.24547 8.99232 1.24547C9.10633 1.24547 9.32483 1.48936 9.29158 1.57544C9.11583 2.00583 9.03507 2.3645 9.17283 2.11104C9.20133 2.05366 9.24408 2.02018 9.27258 2.03453C9.29633 2.05366 9.31533 2.03931 9.31533 2.01062C9.31533 1.98192 9.36758 1.93888 9.43408 1.91497C9.50059 1.89106 9.55284 1.84802 9.55284 1.81933C9.55284 1.79542 9.60509 1.77151 9.67159 1.77151C9.73809 1.77151 9.79034 1.79064 9.79034 1.81933C9.79034 1.84324 9.82359 1.86715 9.86159 1.86715C9.89959 1.86715 9.93284 1.89106 9.93284 1.91975C9.93284 1.94845 9.97559 1.96279 10.0278 1.94845C10.0801 1.9341 10.1133 1.93888 10.1038 1.95801C10.0658 2.0154 10.1561 2.12061 10.2131 2.08713C10.2416 2.068 10.2511 2.02496 10.2321 1.99627C10.2131 1.96279 10.1894 1.89584 10.1846 1.84324C10.1751 1.79542 10.1466 1.73803 10.1133 1.7189C10.0848 1.69978 10.0801 1.66152 10.0943 1.63282C10.1133 1.60413 10.0943 1.58022 10.0421 1.57544C9.9946 1.57544 9.98034 1.56109 10.0183 1.54675C10.0468 1.53718 10.0753 1.49414 10.0753 1.45588C10.0753 1.41285 10.0943 1.39372 10.1181 1.40806C10.1418 1.42241 10.1704 1.40328 10.1894 1.36502C10.2036 1.32677 10.2416 1.29329 10.2749 1.29329C10.3081 1.29329 10.3936 1.24069 10.4601 1.1833C10.5219 1.12113 10.6074 1.05418 10.6454 1.03984C10.6834 1.02071 10.6121 1.01114 10.4791 1.01114C9.91859 1.02071 9.89959 1.01593 9.84734 0.87246C9.81884 0.800728 9.78084 0.671609 9.76659 0.590312C9.71909 0.355986 9.66684 0.360768 9.58134 0.609441Z" fill="#4C7380"/>
<path d="M20.815 2.35488C20.967 2.89527 20.7152 3.42131 20.1927 3.66041C19.9885 3.75606 19.6465 3.77997 19.5325 3.70824C19.504 3.69389 19.4802 3.69389 19.4802 3.70824C19.4802 3.74171 19.7177 3.94256 19.7652 3.95213C19.7795 3.95213 19.8317 3.97604 19.884 3.99995C19.9932 4.04777 20.3067 4.04777 20.4682 4.00473C20.7627 3.92343 21.0477 3.63172 21.1332 3.32566C21.1665 3.20133 21.1665 2.87614 21.1285 2.74224C21.1 2.63703 20.8245 2.20185 20.7865 2.20185C20.777 2.20185 20.7912 2.27358 20.815 2.35488Z" fill="#4C7380"/>
<path d="M20.0501 2.38829C20.0501 2.4648 20.0121 2.49828 19.9076 2.51741C19.7414 2.55088 19.7366 2.56523 19.8411 2.66565C19.8839 2.71348 19.9029 2.78521 19.8886 2.84738C19.8649 2.93824 19.8744 2.95258 19.9551 2.93346C20.0074 2.91911 20.0501 2.88563 20.0501 2.86172C20.0501 2.83303 20.1024 2.84738 20.1689 2.89042C20.3209 2.99084 20.3399 2.98606 20.2924 2.85694C20.2449 2.72782 20.2734 2.63218 20.3636 2.63218C20.4016 2.63218 20.4301 2.60827 20.4301 2.58436C20.4301 2.55566 20.3779 2.53654 20.3161 2.53654C20.2164 2.53654 20.0501 2.40742 20.0881 2.3596C20.0976 2.34525 20.0929 2.32612 20.0786 2.30699C20.0644 2.29265 20.0501 2.3309 20.0501 2.38829Z" fill="#4C7380"/>
<path d="M20.2738 4.14335C20.2548 4.16248 20.2406 4.2103 20.2406 4.25334C20.2406 4.38246 19.8796 4.71721 19.6516 4.80329C19.5328 4.85111 19.433 4.90372 19.433 4.92763C19.433 4.95154 19.3903 4.98501 19.338 4.99936C19.2858 5.01849 19.2525 5.05196 19.2668 5.07588C19.281 5.09979 19.262 5.10457 19.224 5.09022C19.1385 5.05675 18.8393 5.25282 18.7633 5.3915C18.73 5.45367 18.6873 5.50149 18.6635 5.50149C18.5923 5.50149 18.2455 5.89363 18.217 6.0084C18.2028 6.07057 18.1648 6.12317 18.1363 6.12317C18.1078 6.12317 18.103 6.13752 18.1173 6.15664C18.1363 6.17099 18.1268 6.21403 18.0983 6.24751C18.0698 6.28576 18.046 6.50096 18.0413 6.7305C18.0413 7.15612 18.0508 7.24698 18.1173 7.35219C18.141 7.38566 18.1458 7.41436 18.1315 7.41436C18.0983 7.41436 18.4308 8.03604 18.5068 8.11255C18.559 8.16516 18.9105 8.1795 20.3451 8.1795H22.1216L22.2309 8.05517C22.3781 7.88301 22.5681 7.53391 22.5681 7.4287C22.5681 7.3761 22.5919 7.31393 22.6204 7.28524C22.6584 7.24698 22.6584 7.22307 22.6204 7.19916C22.5824 7.18003 22.5919 7.14655 22.6394 7.09873C22.7201 7.01265 22.7391 6.52965 22.6631 6.48183C22.6394 6.46749 22.6156 6.40054 22.6156 6.33359C22.6156 6.26663 22.5729 6.13273 22.5254 6.03231C22.4256 5.84102 21.9316 5.3102 21.8556 5.3102C21.8271 5.3102 21.8081 5.28629 21.8081 5.26238C21.8081 5.23369 21.7796 5.21456 21.7416 5.21456C21.7083 5.21456 21.6513 5.18587 21.6228 5.14761C21.5611 5.07588 20.9056 4.72199 20.9056 4.76025C20.9056 4.82242 20.5256 4.52593 20.5018 4.44463C20.4828 4.39203 20.4496 4.35377 20.4258 4.35377C20.3973 4.35377 20.3878 4.33464 20.4021 4.31073C20.4353 4.25812 20.3166 4.10031 20.2738 4.14335Z" fill="#4C7380"/>
<path d="M17.7416 8.62427C17.7321 8.65775 17.7274 8.98772 17.7321 9.35116L17.7464 10.0207L18.3639 10.035C18.7059 10.0398 18.9909 10.0685 19.0052 10.0972C19.0242 10.1211 19.0194 10.2646 19.0004 10.4176C18.9767 10.5658 18.9672 10.8193 18.9767 10.9771C18.9862 11.1349 18.9767 11.3931 18.9577 11.551C18.9244 11.8044 18.8769 12.7895 18.8389 14.1333C18.8342 14.3677 18.8152 14.7263 18.7962 14.9224C18.7677 15.2715 18.7297 16.2662 18.6964 17.4235C18.6917 17.7391 18.6632 18.0117 18.6394 18.0356C18.6157 18.0595 15.3001 18.0786 10.5215 18.0786C5.32487 18.0834 2.38455 18.0977 2.26105 18.1312C2.15655 18.1551 2.03304 18.1838 1.98554 18.1982C1.80029 18.2412 1.57228 18.3369 1.57228 18.3751C1.57228 18.3942 1.53428 18.4134 1.48678 18.4134C1.43928 18.4134 1.35378 18.4564 1.29678 18.509C1.23978 18.5616 1.18753 18.6047 1.17328 18.6047C1.15903 18.6047 1.03077 18.7242 0.883519 18.8677C0.627014 19.1164 0.356258 19.4655 0.418009 19.4655C0.432259 19.4655 0.413259 19.5037 0.370508 19.5467C0.332507 19.5946 0.280256 19.695 0.261256 19.7763C0.242255 19.8528 0.213755 19.9293 0.190004 19.9437C0.109252 20.0011 0.0237505 20.6849 0.00950021 21.4118L0 22L22.0215 21.9761L22.0167 21.7848C22.012 21.6796 21.9977 20.8379 21.974 19.9198C21.955 18.9968 21.9312 18.2316 21.917 18.2077C21.9075 18.1886 21.8837 17.6817 21.8742 17.0839C21.8457 15.678 21.822 14.7933 21.7887 13.5834C21.7697 13.043 21.7507 12.1726 21.7365 11.6466C21.7222 11.1206 21.6985 10.5706 21.6747 10.4224C21.6462 10.2263 21.651 10.145 21.6937 10.102C21.7365 10.0637 21.9645 10.0446 22.373 10.0446H22.9857L22.9905 9.30334L23 8.56689L20.3827 8.56211C18.2689 8.56211 17.7654 8.57167 17.7416 8.62427Z" fill="#4C7380"/>
</svg>
