<svg width="35" height="34" viewBox="0 0 35 34" fill="none" xmlns="http://www.w3.org/2000/svg">
<path d="M12.0397 0.448615C11.6445 0.850978 11.2422 1.44015 11.3643 1.44015C11.3931 1.44015 11.3643 1.49045 11.314 1.5623C11.2565 1.62696 11.2206 1.69163 11.235 1.706C11.2422 1.71318 11.2493 1.73474 11.2422 1.74192C11.1847 1.92873 11.1703 2.18021 11.1703 2.79812C11.1703 3.39448 11.1991 3.59566 11.314 3.81121C11.3931 3.9621 11.4362 4.1058 11.4146 4.12735C11.3859 4.14891 11.4002 4.17046 11.4362 4.17046C11.4721 4.17046 11.5655 4.29261 11.6445 4.43631C11.8098 4.74527 12.2696 5.24822 12.3918 5.24822C12.4349 5.24822 12.4708 5.28414 12.4708 5.32007C12.4708 5.40629 13.2468 5.77273 13.4264 5.76554C13.4911 5.76554 13.5486 5.7871 13.5486 5.83021C13.5486 5.86613 13.5989 5.89487 13.6635 5.89487C13.7569 5.89487 13.7713 5.94517 13.7282 6.16072C13.6994 6.3116 13.642 6.45531 13.5989 6.48405C13.5414 6.51997 13.5486 6.54153 13.6204 6.54153C13.6779 6.54153 13.6204 6.60619 13.4911 6.68523C13.3618 6.76426 13.2396 6.87922 13.2181 6.9367C13.1893 6.99418 13.1318 7.04448 13.0743 7.04448C13.0169 7.04448 12.9738 7.07322 12.9738 7.11633C12.9738 7.15226 12.9235 7.18818 12.8588 7.18818C12.7941 7.18818 12.6073 7.25284 12.4421 7.32469C12.2768 7.39655 11.8385 7.58336 11.4649 7.73424C11.0913 7.88513 10.5165 8.14379 10.2003 8.30904C9.87701 8.48149 9.58961 8.59645 9.56805 8.57489C9.5465 8.54615 9.52494 8.56771 9.52494 8.618C9.52494 8.6683 9.4962 8.68985 9.46028 8.6683C9.42435 8.63956 9.38124 8.65393 9.36687 8.68267C9.33813 8.7617 8.66274 9.12814 8.55496 9.12814C8.49748 9.12814 8.44719 9.15688 8.43282 9.18562C8.40408 9.25029 7.7215 9.65983 7.63528 9.66702C7.59935 9.66702 7.5275 9.7245 7.47721 9.80353C7.41973 9.87538 7.34788 9.91131 7.30476 9.88257C7.26165 9.86101 7.22573 9.87538 7.22573 9.91131C7.22573 9.95442 7.18262 9.99034 7.13232 9.99034C7.08203 9.99034 6.96707 10.055 6.88085 10.134C6.79463 10.2131 6.70841 10.2777 6.68685 10.2777C6.65811 10.2777 6.59345 10.3209 6.54315 10.364C6.30604 10.5795 6.21982 10.637 6.15516 10.637C6.11205 10.637 6.05457 10.6801 6.02583 10.7376C5.99709 10.7879 5.93242 10.8454 5.88931 10.8597C5.68095 10.9316 3.63321 12.8428 3.63321 12.9578C3.63321 12.9865 3.56136 13.0799 3.47514 13.1733C3.38173 13.2667 3.25959 13.4176 3.20211 13.5038C3.14463 13.5972 3.05122 13.7122 3.00811 13.7697C2.95782 13.82 2.91471 13.8918 2.91471 13.9349C2.91471 13.978 2.87878 14.014 2.83567 14.014C2.79975 14.014 2.78538 14.0499 2.80693 14.0858C2.82849 14.1289 2.79975 14.1792 2.74227 14.2008C2.6776 14.2223 2.64886 14.2726 2.67042 14.3085C2.69197 14.3445 2.67042 14.3732 2.63449 14.3732C2.59138 14.3732 2.55546 14.4091 2.55546 14.4451C2.55546 14.4882 2.47642 14.6462 2.37583 14.8043C2.27524 14.9624 2.21057 15.0917 2.23213 15.0917C2.25368 15.0917 2.23213 15.1636 2.18183 15.2498C2.13154 15.3432 2.1028 15.4366 2.10998 15.4653C2.11717 15.5013 2.08843 15.5228 2.04532 15.5228C2.00939 15.5228 1.99502 15.5516 2.01658 15.5947C2.03813 15.6306 2.03095 15.6665 1.98784 15.6665C1.94473 15.6665 1.93036 15.7168 1.95191 15.7743C1.98065 15.8318 1.9591 15.8821 1.9088 15.8821C1.86569 15.8821 1.84414 15.9108 1.86569 15.9396C1.88725 15.9755 1.85132 16.0904 1.79384 16.1982C1.70044 16.385 1.65733 16.5431 1.58548 16.9239C1.57111 17.0029 1.53518 17.1466 1.51363 17.2472C1.32681 18.0663 1.31963 19.4171 1.50644 20.4446C1.62859 21.1272 1.70044 21.4361 1.77229 21.5798C1.82258 21.666 1.85851 21.7451 1.85132 21.7522C1.84414 21.7666 1.83695 21.781 1.84414 21.7882C1.84414 21.8025 1.85851 21.8888 1.88006 21.9822C1.89443 22.0756 1.95191 22.2552 2.00939 22.3773C2.05969 22.4995 2.13872 22.6863 2.18183 22.7941C2.23213 22.909 2.29679 22.9953 2.33272 22.9953C2.37583 22.9953 2.3902 23.0599 2.37583 23.139C2.36146 23.2108 2.42613 23.3904 2.51953 23.527C2.61294 23.6635 2.67042 23.7928 2.64168 23.8144C2.62012 23.8359 2.64168 23.8575 2.68479 23.8575C2.73508 23.8575 2.76382 23.879 2.75664 23.9078C2.7279 24.0083 2.85004 24.2886 2.92189 24.2886C2.95782 24.2886 2.98656 24.3317 2.98656 24.382C2.98656 24.4395 3.06559 24.576 3.159 24.6837C3.25959 24.7987 3.32425 24.9137 3.30988 24.9352C3.29551 24.964 3.34581 25.0502 3.41766 25.1364C3.4967 25.2226 3.56136 25.3232 3.56136 25.3663C3.56136 25.4022 3.59729 25.4382 3.63321 25.4382C3.67632 25.4382 3.70506 25.4741 3.70506 25.5172C3.70506 25.5675 3.76973 25.6609 3.85595 25.7328C3.93498 25.7974 4.00683 25.8836 4.01402 25.9196C4.01402 25.9483 4.04994 26.0058 4.07868 26.0489C4.11461 26.0848 4.20083 26.1926 4.27268 26.286L4.40201 26.4441L14.1162 26.4656C19.4547 26.4728 23.8232 26.4584 23.8232 26.4369C23.8232 26.4082 23.9022 26.2932 24.0028 26.1854C24.4339 25.6753 24.5345 25.5459 24.6279 25.3735C24.6782 25.2729 24.7716 25.1292 24.8291 25.0646C24.8865 24.9999 25.0159 24.7915 25.1165 24.5975C25.2171 24.4107 25.332 24.2311 25.3679 24.2023C25.4182 24.1664 25.4182 24.1449 25.3679 24.1449C25.3248 24.1449 25.332 24.1161 25.3751 24.0874C25.4685 24.0299 25.9284 23.139 25.8709 23.139C25.8422 23.139 25.8781 23.0527 25.9356 22.9378C26.029 22.7653 26.0865 22.6216 26.1152 22.4779C26.1224 22.4492 26.187 22.2768 26.2661 22.0899C26.4026 21.7738 26.6756 20.7751 26.69 20.5523C26.69 20.4949 26.7259 20.2793 26.7618 20.0853C26.9415 19.0866 26.7834 17.1682 26.4313 16.2413C26.3379 15.9827 26.2517 15.7384 26.2445 15.7024C26.2086 15.5587 25.6553 14.481 25.5691 14.3876C25.5188 14.3373 25.4757 14.2511 25.4757 14.1936C25.4757 14.1433 25.4254 14.0786 25.3608 14.0571C25.3033 14.0355 25.2745 13.9852 25.2961 13.9421C25.3177 13.9062 25.3033 13.8703 25.2674 13.8703C25.2242 13.8703 25.1883 13.82 25.1883 13.7625C25.1883 13.6978 25.138 13.6332 25.0805 13.6116C25.0231 13.5829 24.9728 13.5326 24.9728 13.4823C24.9728 13.4392 24.9081 13.3601 24.8291 13.3098C24.75 13.2595 24.6854 13.1949 24.6854 13.1589C24.6854 13.0368 23.7585 12.0524 23.1478 11.5351C22.961 11.3771 22.7454 11.1902 22.6664 11.1184C22.5945 11.0537 22.5155 10.9962 22.4939 10.9962C22.458 10.9962 22.2281 10.8166 22.0628 10.6514C22.0054 10.6083 21.9335 10.5651 21.8976 10.5651C21.8545 10.5651 21.8114 10.5364 21.797 10.5005C21.7682 10.4071 20.5755 9.63109 20.4678 9.63109C20.4175 9.63109 20.3743 9.60235 20.3743 9.56643C20.3743 9.5305 20.3169 9.48739 20.2522 9.45865C20.1804 9.4371 19.9432 9.30777 19.7277 9.17125C19.5121 9.03473 19.311 8.94133 19.2822 8.96288C19.2463 8.97725 19.2247 8.9557 19.2247 8.91259C19.2247 8.86948 19.196 8.85511 19.1529 8.87666C19.117 8.89822 19.081 8.88385 19.081 8.84074C19.081 8.79763 19.0523 8.78326 19.0092 8.80481C18.9733 8.82637 18.9373 8.81918 18.9373 8.78326C18.9373 8.71141 18.5062 8.51023 18.42 8.53897C18.3841 8.54615 18.3625 8.5246 18.3625 8.48867C18.3625 8.43838 17.9961 8.24438 17.8596 8.22283C17.838 8.22283 17.6656 8.14379 17.4644 8.05757C16.789 7.74143 16.5304 7.62647 16.4226 7.60491C16.3651 7.59054 16.2932 7.55462 16.2717 7.52588C16.2501 7.49714 16.1567 7.46121 16.0777 7.45403C15.9915 7.44684 15.9196 7.4181 15.9196 7.38936C15.9196 7.36062 15.8981 7.33906 15.8693 7.34625C15.8334 7.35344 15.7184 7.31751 15.5963 7.26721C15.4813 7.21692 15.3233 7.16663 15.2442 7.14507C15.1724 7.1307 15.0718 7.08759 15.0287 7.04448C14.9784 7.00855 14.9137 6.99418 14.8922 7.02292C14.8634 7.04448 14.8419 7.03011 14.8419 6.97981C14.8419 6.92952 14.8131 6.90796 14.7844 6.92952C14.7125 6.97263 14.4108 6.65649 14.4108 6.54871C14.4108 6.51279 14.3748 6.46968 14.3317 6.45531C14.2958 6.44094 14.2527 6.38346 14.2455 6.32597C14.2311 6.26849 14.2024 6.18227 14.1737 6.13198C14.1018 6.01702 14.2168 5.95954 14.6119 5.92361C14.7988 5.90206 15.0071 5.88769 15.079 5.8805C15.1436 5.87332 15.2011 5.83739 15.2011 5.80147C15.2011 5.76554 15.2442 5.75117 15.3017 5.77273C15.3592 5.79428 15.4239 5.79428 15.4454 5.76554C15.4742 5.74399 15.5388 5.71525 15.5963 5.70806C15.9053 5.66495 16.9255 4.8746 16.9255 4.6806C16.9255 4.63749 16.789 4.66623 16.6094 4.74527C16.3651 4.84586 16.1208 4.8746 15.5173 4.8746C15.0933 4.88178 14.7054 4.86023 14.6622 4.83149C14.6263 4.80993 14.5329 4.77401 14.4611 4.76682C14.2886 4.73808 13.8431 4.49379 13.5342 4.24231C13.0169 3.83995 12.4636 3.04241 12.3199 2.51791C12.1331 1.81377 12.2337 0.628242 12.5283 0.161214C12.7223 -0.140557 12.4852 -0.0040426 12.0397 0.448615ZM9.45309 10.4717C9.45309 10.5077 9.32376 10.6226 9.16569 10.7304C9.00762 10.8454 8.87829 10.9603 8.87829 10.9962C8.87829 11.0322 8.74177 11.1543 8.57652 11.2693C8.28193 11.4776 6.43538 13.2523 6.43538 13.3314C6.43538 13.3529 6.3276 13.4751 6.20545 13.6044C6.07612 13.7266 5.90368 13.9277 5.82465 14.0427C5.74561 14.1505 5.63784 14.287 5.59473 14.3373C5.54443 14.3948 5.50132 14.4666 5.50132 14.5097C5.50132 14.5528 5.47258 14.5888 5.43666 14.5888C5.40073 14.5888 5.35044 14.675 5.32888 14.7756C5.30014 14.8762 5.19955 15.0342 5.10614 15.1205C5.00555 15.2139 4.92652 15.3216 4.92652 15.3576C4.92652 15.4007 4.86185 15.5156 4.77563 15.6234C4.6966 15.724 4.65349 15.8102 4.68941 15.8102C4.71815 15.8102 4.70378 15.839 4.65349 15.8677C4.60319 15.9036 4.5529 16.0042 4.53134 16.0904C4.51697 16.1838 4.45231 16.3347 4.38764 16.4281C4.33016 16.5215 4.30142 16.6006 4.33016 16.6006C4.36609 16.6006 4.34453 16.6293 4.30142 16.6581C4.25112 16.6868 4.19364 16.7946 4.17927 16.888C4.1649 16.9886 4.14335 17.0748 4.12898 17.082C4.12179 17.0963 4.11461 17.1251 4.10024 17.1538C4.09305 17.1898 4.06431 17.2616 4.04276 17.3191C4.01402 17.3766 3.98528 17.4915 3.97091 17.5706C3.95654 17.6496 3.92061 17.7717 3.88469 17.8364C3.85595 17.9083 3.84876 18.016 3.8775 18.0735C3.89906 18.131 3.88469 18.1813 3.84876 18.1813C3.81284 18.1813 3.7841 18.2388 3.79128 18.3034C3.79128 18.3753 3.76973 18.5908 3.74817 18.792C3.69069 19.2159 3.69069 20.0494 3.74099 20.696C3.77691 21.1487 3.79847 21.314 3.89187 21.702C3.92061 21.8025 3.95654 21.9965 3.97091 22.1331C3.99246 22.2696 4.03557 22.4133 4.06431 22.4564C4.09305 22.4923 4.13616 22.6719 4.1649 22.8516C4.19364 23.024 4.25112 23.2108 4.29423 23.2611C4.33734 23.3114 4.34453 23.3545 4.31579 23.3545C4.28705 23.3545 4.30142 23.3976 4.34453 23.4479C4.38764 23.5054 4.43794 23.6204 4.45231 23.7209C4.47386 23.8144 4.48823 23.8934 4.49542 23.8934C4.5026 23.8934 4.51697 23.9509 4.53134 24.0155C4.56727 24.2023 4.4523 24.1736 4.28705 23.9437C4.20083 23.8359 4.10024 23.6994 4.04994 23.6419C3.94935 23.5341 3.81284 23.3186 3.7338 23.139C3.70506 23.0815 3.66195 23.0168 3.6404 22.9953C3.59729 22.9593 3.03685 21.8457 3.02248 21.7738C3.02248 21.7522 2.97937 21.666 2.92908 21.5726C2.87878 21.4864 2.85723 21.4146 2.88597 21.4146C2.90752 21.4146 2.89315 21.3643 2.84286 21.3068C2.79256 21.2493 2.77819 21.199 2.80693 21.199C2.83567 21.199 2.82849 21.1559 2.79256 21.1056C2.74945 21.0625 2.71353 20.9691 2.71353 20.9116C2.71353 20.8541 2.66323 20.5308 2.59857 20.1931C2.43331 19.2734 2.42613 18.404 2.5842 17.5346C2.59138 17.4772 2.62012 17.3766 2.64886 17.3191C2.67042 17.2616 2.74227 17.0173 2.80693 16.7802C2.8716 16.5431 2.95063 16.2844 2.97937 16.2054C3.10152 15.9324 3.15181 15.7743 3.14463 15.7168C3.13744 15.6881 3.159 15.6665 3.19492 15.6665C3.25959 15.6665 3.46077 15.2354 3.43203 15.142C3.42485 15.1133 3.46796 15.0702 3.53262 15.0414C3.62603 15.0055 3.62603 14.9911 3.54699 14.9408C3.47514 14.8905 3.48233 14.8762 3.57573 14.8762C3.6404 14.8762 3.7338 14.7756 3.79128 14.6606C3.84158 14.5385 3.90624 14.4451 3.93498 14.4451C3.97091 14.4451 3.99246 14.402 3.99246 14.3517C3.99246 14.3014 4.04994 14.208 4.12179 14.1433C4.18646 14.0858 4.3589 13.8918 4.49542 13.7194C4.89059 13.238 5.61628 12.5051 5.7025 12.5051C5.74561 12.5051 5.81746 12.4404 5.86057 12.3614C5.90368 12.2824 5.96835 12.2177 6.01146 12.2177C6.05457 12.2177 6.27012 12.0812 6.49286 11.9087C6.71559 11.7363 7.10358 11.4848 7.35506 11.3483C7.59935 11.219 7.80053 11.0825 7.80053 11.0465C7.80053 11.0178 7.82927 11.0034 7.8652 11.0322C7.90112 11.0537 7.97297 11.025 8.03045 10.9747C8.13104 10.8741 8.55496 10.6873 8.634 10.7088C8.66274 10.716 8.70585 10.6873 8.7274 10.6442C8.75614 10.6011 8.84955 10.558 8.93577 10.5436C9.02199 10.5292 9.11539 10.5005 9.13695 10.4717C9.2088 10.4071 9.45309 10.4071 9.45309 10.4717Z" fill="#D8E4E8"/>
<path d="M14.5978 0.915651C14.5331 1.10246 14.4828 1.31083 14.4828 1.38268C14.4828 1.49764 14.4182 1.51201 13.9655 1.51919C13.6781 1.52638 13.3979 1.52638 13.3404 1.51919C13.2901 1.50482 13.2686 1.53356 13.2973 1.57667C13.3189 1.61978 13.3835 1.65571 13.441 1.65571C13.4913 1.65571 13.5488 1.706 13.5775 1.76349C13.5991 1.82097 13.6565 1.87126 13.7068 1.87126C13.8793 1.87126 14.2098 2.2377 14.1595 2.36703C13.8937 3.01368 13.7715 3.55256 13.9799 3.17175C14.023 3.08553 14.0877 3.03524 14.1308 3.05679C14.1667 3.08553 14.1954 3.06398 14.1954 3.02087C14.1954 2.97776 14.2745 2.91309 14.3751 2.87717C14.4756 2.84124 14.5547 2.77658 14.5547 2.73347C14.5547 2.69754 14.6337 2.66161 14.7343 2.66161C14.8349 2.66161 14.9139 2.69035 14.9139 2.73347C14.9139 2.76939 14.9642 2.80532 15.0217 2.80532C15.0792 2.80532 15.1295 2.84124 15.1295 2.88435C15.1295 2.92746 15.1941 2.94902 15.2732 2.92746C15.3522 2.90591 15.4025 2.91309 15.3881 2.94183C15.3307 3.02805 15.4672 3.18612 15.5534 3.13583C15.5965 3.10709 15.6109 3.04242 15.5821 2.99931C15.5534 2.94902 15.5175 2.84843 15.5103 2.76939C15.4959 2.69754 15.4528 2.61132 15.4025 2.58258C15.3594 2.55384 15.3522 2.49636 15.3738 2.45325C15.4025 2.41014 15.3738 2.37421 15.2947 2.36703C15.2229 2.36703 15.2013 2.34547 15.2588 2.32392C15.3019 2.30955 15.345 2.24488 15.345 2.1874C15.345 2.12274 15.3738 2.094 15.4097 2.11555C15.4456 2.13711 15.4887 2.10837 15.5175 2.05089C15.539 1.99341 15.5965 1.94311 15.6468 1.94311C15.6971 1.94311 15.8264 1.86408 15.927 1.77786C16.0204 1.68445 16.1498 1.58386 16.2072 1.5623C16.2647 1.53356 16.1569 1.51919 15.9558 1.51919C15.1079 1.53356 15.0792 1.52638 15.0001 1.31083C14.957 1.20305 14.8996 1.00906 14.878 0.886911C14.8062 0.534844 14.7271 0.542029 14.5978 0.915651Z" fill="#D8E4E8"/>
<path d="M31.5903 3.5382C31.8202 4.3501 31.4394 5.14046 30.649 5.49971C30.3401 5.64341 29.8228 5.67934 29.6503 5.57156C29.6072 5.55001 29.5713 5.55001 29.5713 5.57156C29.5713 5.62186 29.9305 5.92363 30.0024 5.938C30.0239 5.938 30.103 5.97392 30.182 6.00985C30.3473 6.0817 30.8215 6.0817 31.0658 6.01703C31.5112 5.89489 31.9424 5.4566 32.0717 4.99676C32.122 4.80995 32.122 4.32136 32.0645 4.12018C32.0214 3.96211 31.6047 3.30827 31.5472 3.30827C31.5328 3.30827 31.5544 3.41605 31.5903 3.5382Z" fill="#D8E4E8"/>
<path d="M30.4336 3.58852C30.4336 3.70348 30.3761 3.75378 30.218 3.78252C29.9666 3.83281 29.9594 3.85437 30.1174 4.00525C30.1821 4.0771 30.2108 4.18488 30.1893 4.27828C30.1534 4.4148 30.1677 4.43635 30.2899 4.40761C30.3689 4.38606 30.4336 4.33576 30.4336 4.29984C30.4336 4.25673 30.5126 4.27828 30.6132 4.34295C30.8431 4.49383 30.8719 4.48665 30.8 4.29265C30.7282 4.09866 30.7713 3.95496 30.9078 3.95496C30.9653 3.95496 31.0084 3.91903 31.0084 3.88311C31.0084 3.84 30.9293 3.81126 30.8359 3.81126C30.6851 3.81126 30.4336 3.61726 30.4911 3.54541C30.5054 3.52385 30.4982 3.49511 30.4767 3.46637C30.4551 3.44482 30.4336 3.5023 30.4336 3.58852Z" fill="#D8E4E8"/>
<path d="M30.7713 6.22538C30.7425 6.25412 30.721 6.32597 30.721 6.39064C30.721 6.58463 30.1749 7.08759 29.83 7.21692C29.6504 7.28877 29.4995 7.3678 29.4995 7.40373C29.4995 7.43965 29.4348 7.48995 29.3558 7.5115C29.2768 7.54024 29.2265 7.59054 29.248 7.62646C29.2696 7.66239 29.2408 7.66958 29.1834 7.64802C29.054 7.59772 28.6014 7.89231 28.4864 8.10068C28.4361 8.19408 28.3715 8.26593 28.3355 8.26593C28.2278 8.26593 27.7032 8.85511 27.6601 9.02755C27.6386 9.12095 27.5811 9.19999 27.538 9.19999C27.4949 9.19999 27.4877 9.22154 27.5092 9.25028C27.538 9.27184 27.5236 9.3365 27.4805 9.3868C27.4374 9.44428 27.4015 9.76761 27.3943 10.1125C27.3943 10.752 27.4087 10.8885 27.5092 11.0465C27.5452 11.0968 27.5524 11.1399 27.5308 11.1399C27.4805 11.1399 27.9835 12.074 28.0984 12.189C28.1775 12.268 28.7091 12.2896 30.879 12.2896H33.5662L33.7315 12.1027C33.9542 11.8441 34.2416 11.3196 34.2416 11.1615C34.2416 11.0825 34.2776 10.9891 34.3207 10.946C34.3781 10.8885 34.3781 10.8525 34.3207 10.8166C34.2632 10.7879 34.2776 10.7376 34.3494 10.6657C34.4715 10.5364 34.5003 9.81072 34.3853 9.73887C34.3494 9.71731 34.3135 9.61672 34.3135 9.51613C34.3135 9.41554 34.2488 9.21436 34.177 9.06347C34.0261 8.77607 33.2788 7.97853 33.1639 7.97853C33.1208 7.97853 33.092 7.94261 33.092 7.90668C33.092 7.86357 33.0489 7.83483 32.9914 7.83483C32.9411 7.83483 32.8549 7.79172 32.8118 7.73424C32.7184 7.62646 31.7269 7.09477 31.7269 7.15225C31.7269 7.24566 31.1521 6.80019 31.1161 6.67804C31.0874 6.599 31.0371 6.54152 31.0012 6.54152C30.9581 6.54152 30.9437 6.51278 30.9653 6.47686C31.0155 6.39782 30.8359 6.16072 30.7713 6.22538Z" fill="#D8E4E8"/>
<path d="M26.9416 12.9578C26.9272 13.0081 26.92 13.5038 26.9272 14.0499L26.9488 15.0558L27.8828 15.0774C28.4001 15.0845 28.8312 15.1277 28.8528 15.1708C28.8815 15.2067 28.8744 15.4222 28.8456 15.6522C28.8097 15.8749 28.7953 16.2557 28.8097 16.4928C28.8241 16.7299 28.8097 17.1179 28.781 17.355C28.7307 17.7358 28.6588 19.2159 28.6013 21.2349C28.5941 21.587 28.5654 22.1259 28.5367 22.4205C28.4935 22.945 28.4361 24.4395 28.3858 26.1782C28.3786 26.6525 28.3355 27.062 28.2996 27.0979C28.2636 27.1339 23.2485 27.1626 16.0203 27.1626C8.15989 27.1698 3.71236 27.1913 3.52555 27.2416C3.36748 27.2776 3.18066 27.3207 3.10881 27.3422C2.8286 27.4069 2.48372 27.5506 2.48372 27.6081C2.48372 27.6368 2.42624 27.6655 2.35439 27.6655C2.28253 27.6655 2.1532 27.7302 2.06698 27.8092C1.98076 27.8883 1.90173 27.9529 1.88017 27.9529C1.85862 27.9529 1.66462 28.1326 1.44189 28.3481C1.05389 28.7217 0.644347 29.2463 0.737752 29.2463C0.759307 29.2463 0.730567 29.3037 0.665902 29.3684C0.608421 29.4403 0.529386 29.5911 0.500646 29.7133C0.471906 29.8282 0.428795 29.9432 0.39287 29.9648C0.270725 30.051 0.141394 31.0784 0.119839 32.1706L0.105469 33.0543L33.4153 33.0184L33.4081 32.731C33.4009 32.5729 33.3794 31.3084 33.3434 29.9288C33.3147 28.5421 33.2788 27.3925 33.2572 27.3566C33.2429 27.3279 33.2069 26.5662 33.1926 25.6681C33.1495 23.5557 33.1135 22.2265 33.0632 20.4087C33.0345 19.5967 33.0058 18.2891 32.9842 17.4987C32.9626 16.7084 32.9267 15.8821 32.8908 15.6593C32.8477 15.3648 32.8549 15.2426 32.9195 15.178C32.9842 15.1205 33.3291 15.0917 33.947 15.0917H34.8739L34.881 13.9781L34.8954 12.8716L30.9365 12.8644C27.7391 12.8644 26.9775 12.8787 26.9416 12.9578Z" fill="#D8E4E8"/>
</svg>
