<svg width="35" height="33" viewBox="0 0 35 33" fill="none" xmlns="http://www.w3.org/2000/svg">
<path fill-rule="evenodd" clip-rule="evenodd" d="M19.5708 0.00012614C19.7686 -0.000691565 19.9812 0.00257925 20.0425 0.00666778C20.1037 0.0107563 20.2287 0.0213865 20.3197 0.0311989C20.4107 0.0410114 20.558 0.0590009 20.6466 0.0729018C20.7351 0.0859851 20.8675 0.108063 20.9403 0.121964C21.0131 0.135865 21.1207 0.157943 21.1803 0.171844C21.2399 0.184927 21.3201 0.20537 21.3607 0.216C21.4004 0.22663 21.4376 0.235625 21.4426 0.235625C21.4484 0.235625 21.4889 0.246255 21.532 0.260156C21.575 0.273239 21.6884 0.308401 21.7844 0.338656C21.8804 0.368093 21.9747 0.399166 21.9954 0.407343C22.0161 0.414702 22.0624 0.432692 22.0988 0.445775C22.1352 0.459676 22.2022 0.485843 22.2478 0.503832C22.2933 0.521822 22.357 0.547988 22.3884 0.561071C22.4199 0.574155 22.4944 0.607681 22.5539 0.633847C22.6135 0.660831 22.7252 0.7148 22.8022 0.75405C22.8791 0.7933 22.9652 0.837456 22.9925 0.852174C23.0198 0.866893 23.0604 0.888971 23.0835 0.902054C23.1059 0.91432 23.1481 0.938851 23.1762 0.956841C23.2052 0.974012 23.23 0.987913 23.2325 0.987913C23.235 0.987913 23.273 1.01081 23.3177 1.03861C23.3616 1.06641 23.4559 1.12692 23.5262 1.17353C23.5966 1.22014 23.6768 1.27411 23.7042 1.29292C23.7315 1.31172 23.7778 1.34607 23.8076 1.36815C23.8366 1.39104 23.8688 1.41476 23.8788 1.4213C23.8887 1.42784 23.9359 1.463 23.983 1.4998C24.0302 1.53578 24.0782 1.57421 24.0906 1.58566C24.103 1.59629 24.1262 1.61591 24.1436 1.62981C24.1601 1.64371 24.1824 1.6617 24.1932 1.6707C24.2031 1.67969 24.2222 1.69605 24.2346 1.70668C24.2478 1.71812 24.2925 1.75574 24.333 1.79172C24.3736 1.8277 24.4837 1.93073 24.5763 2.02149C24.669 2.11144 24.7882 2.2341 24.8411 2.29215C24.8941 2.35021 24.9388 2.40009 24.9421 2.40254C24.9446 2.405 24.9835 2.45079 25.029 2.50476C25.0745 2.55872 25.1324 2.62823 25.1564 2.66012C25.1812 2.69201 25.2292 2.75416 25.264 2.79913C25.2979 2.84492 25.3343 2.89235 25.3442 2.90543C25.355 2.91933 25.4171 3.00928 25.4824 3.10577C25.5478 3.20226 25.609 3.29466 25.6181 3.31019C25.6273 3.32573 25.6504 3.36416 25.6695 3.39605C25.6893 3.42794 25.7125 3.46638 25.7216 3.48191C25.7307 3.49745 25.7613 3.5506 25.7894 3.60048C25.8167 3.65036 25.8738 3.75666 25.9152 3.83761C25.9558 3.91857 26.0145 4.0404 26.0451 4.10746C26.0758 4.17451 26.108 4.24647 26.1163 4.26691C26.1246 4.28735 26.1444 4.33478 26.161 4.37321C26.1767 4.41164 26.2015 4.47542 26.2156 4.51631C26.2305 4.55719 26.2512 4.61198 26.2611 4.63896C26.2719 4.66595 26.2901 4.71746 26.3025 4.75344C26.3141 4.78942 26.3339 4.84993 26.3455 4.88836C26.3571 4.9268 26.3737 4.98158 26.3828 5.01102C26.391 5.04046 26.4109 5.11242 26.4266 5.17047C26.4423 5.22853 26.4605 5.29885 26.4672 5.32584C26.4738 5.35282 26.4903 5.42641 26.5036 5.48938C26.5176 5.55234 26.5383 5.65537 26.5499 5.71833C26.5615 5.7813 26.5822 5.9154 26.5954 6.0168C26.6087 6.11819 26.626 6.27437 26.6335 6.36432C26.6409 6.45427 26.65 6.61617 26.6542 6.72411C26.6583 6.83777 26.6583 7.00458 26.6542 7.1207C26.65 7.23109 26.6409 7.39463 26.6335 7.48458C26.626 7.57452 26.6095 7.73071 26.5954 7.8321C26.5822 7.9335 26.5598 8.07659 26.5458 8.15101C26.5325 8.22542 26.5118 8.32845 26.5003 8.37996C26.4887 8.43148 26.4688 8.51652 26.4547 8.56804C26.4415 8.61955 26.4307 8.66698 26.4307 8.67188C26.4307 8.67761 26.42 8.71686 26.4068 8.75774C26.3943 8.79945 26.3712 8.87467 26.3563 8.92374C26.3414 8.9728 26.3166 9.05048 26.3017 9.09545C26.2868 9.14043 26.2644 9.20503 26.2528 9.23855C26.2413 9.27208 26.2222 9.32196 26.2115 9.34894C26.2007 9.37593 26.1808 9.42744 26.166 9.46342C26.1519 9.4994 26.132 9.54928 26.1213 9.57381C26.1105 9.59834 26.0882 9.64822 26.0724 9.6842C26.0559 9.72018 26.0278 9.78233 26.0087 9.82321C25.9897 9.8641 25.9458 9.95404 25.9103 10.0235C25.8747 10.0931 25.8341 10.1707 25.8201 10.1953C25.8068 10.2198 25.7729 10.2787 25.7464 10.3261C25.7191 10.3735 25.6835 10.434 25.6661 10.461C25.6496 10.488 25.6314 10.5174 25.6256 10.5264C25.6206 10.5354 25.6041 10.5608 25.59 10.5837C25.5759 10.6058 25.5288 10.6777 25.4849 10.7431C25.4402 10.8085 25.3873 10.8862 25.3658 10.9157C25.3434 10.9459 25.3186 10.9803 25.3095 10.9925C25.3004 11.0048 25.2731 11.0408 25.2483 11.0727C25.2234 11.1054 25.168 11.1757 25.1241 11.2297C25.0803 11.2836 25.0207 11.3556 24.9917 11.3891C24.9628 11.4226 24.9123 11.4799 24.88 11.515C24.8478 11.551 24.76 11.6442 24.6847 11.7219C24.6094 11.8004 24.5457 11.865 24.5424 11.8658C24.5399 11.8667 24.5019 11.9002 24.4597 11.9411C24.4175 11.982 24.3637 12.031 24.3405 12.0515C24.3182 12.0719 24.271 12.1128 24.2371 12.1422C24.204 12.1725 24.1311 12.2322 24.0765 12.2755C24.0219 12.3197 23.9698 12.3605 23.9607 12.3687C23.9516 12.3761 23.9011 12.4137 23.849 12.4521C23.7968 12.4906 23.7339 12.5372 23.7091 12.5543C23.6843 12.5723 23.6553 12.5928 23.6454 12.5993C23.6355 12.6059 23.5767 12.6443 23.5138 12.6852C23.4518 12.7261 23.3773 12.7743 23.3475 12.7931C23.3185 12.8127 23.2929 12.8283 23.2904 12.8283C23.2879 12.8283 23.2763 12.8348 23.2639 12.8438C23.2507 12.852 23.2275 12.8667 23.2118 12.8757C23.1961 12.8847 23.1588 12.906 23.129 12.9223C23.0993 12.9395 23.0604 12.9616 23.0422 12.9714C23.024 12.982 22.9851 13.0033 22.9553 13.0196C22.9255 13.0352 22.8419 13.0777 22.7691 13.1137C22.6963 13.1488 22.5862 13.2011 22.525 13.229C22.4637 13.2568 22.3868 13.2903 22.3553 13.3034C22.3239 13.3164 22.2585 13.3426 22.2105 13.3606C22.1625 13.3794 22.1129 13.3982 22.0988 13.4039C22.0798 13.4105 22.2022 13.4138 22.6367 13.417C23.1009 13.4211 23.2217 13.4244 23.3276 13.4366C23.398 13.4448 23.5229 13.4636 23.6049 13.4784C23.6868 13.4939 23.8043 13.5192 23.8655 13.5348C23.9267 13.5503 24.0335 13.5814 24.1013 13.6035C24.17 13.6264 24.2569 13.6574 24.2958 13.673C24.3347 13.6893 24.3926 13.713 24.4241 13.7261C24.4555 13.7392 24.5085 13.7629 24.5399 13.7784C24.5714 13.7948 24.6334 13.8259 24.6765 13.848C24.7195 13.87 24.794 13.9117 24.842 13.9404C24.89 13.969 24.9644 14.0164 25.0075 14.0458C25.0505 14.0745 25.1125 14.1178 25.144 14.1415C25.1754 14.1652 25.2226 14.2004 25.2474 14.2192C25.2723 14.238 25.3194 14.2756 25.3509 14.3034C25.3823 14.3304 25.4386 14.3803 25.4742 14.4146C25.5106 14.4481 25.5478 14.4833 25.5569 14.4923C25.5668 14.5021 25.6082 14.5446 25.6488 14.5872C25.6893 14.6297 25.7514 14.6975 25.7853 14.7384C25.8192 14.7793 25.8623 14.8325 25.8805 14.8562C25.8987 14.8799 25.9177 14.9028 25.9227 14.9085C25.9276 14.9134 25.9632 14.9633 26.0013 15.0197C26.0402 15.0761 26.089 15.1497 26.1097 15.1833C26.1304 15.2168 26.1643 15.274 26.1842 15.31C26.2048 15.346 26.2446 15.4196 26.2719 15.4735C26.2992 15.5275 26.3315 15.5954 26.3439 15.6248C26.3563 15.6543 26.3794 15.709 26.3952 15.7475C26.4109 15.7859 26.4423 15.8718 26.4655 15.9396C26.4878 16.0067 26.5176 16.1032 26.5309 16.1522C26.5441 16.2013 26.5698 16.3174 26.588 16.4098C26.6054 16.5022 26.6269 16.6306 26.6351 16.696C26.6484 16.8048 26.65 16.9209 26.6517 18.0804C26.6533 18.7763 26.6558 19.3454 26.6583 19.3454C26.6608 19.3454 26.7104 19.3151 26.77 19.2775C26.8288 19.2407 26.8983 19.1974 26.9231 19.1818C26.9479 19.1663 27.0067 19.1295 27.053 19.1001C27.0994 19.0706 27.1399 19.0461 27.1424 19.0453C27.1449 19.0436 27.1937 19.0126 27.2516 18.9758C27.3095 18.9382 27.3923 18.8858 27.4362 18.8588C27.4792 18.8319 27.5504 18.7877 27.5926 18.7607C27.6356 18.7337 27.7067 18.6896 27.7498 18.6626C27.7928 18.6356 27.8747 18.5841 27.9318 18.5481C27.9889 18.5121 28.0882 18.4492 28.1519 18.4091C28.2165 18.369 28.2992 18.3167 28.3365 18.2938C28.3737 18.2701 28.425 18.239 28.4498 18.2227C28.4747 18.2071 28.5293 18.1728 28.5698 18.1474C28.6104 18.1213 28.6592 18.0902 28.6766 18.0788C28.6948 18.0673 28.7155 18.0542 28.7237 18.0493C28.732 18.0444 28.7825 18.0133 28.8363 17.9798C28.8901 17.9463 28.9397 17.9152 28.9472 17.9103C28.9546 17.9054 28.9712 17.8948 28.9844 17.8866C28.9976 17.8776 29.0423 17.8498 29.0829 17.8244C29.1234 17.7983 29.1921 17.7558 29.2343 17.7296C29.2765 17.7026 29.3452 17.6593 29.3874 17.6331C29.4296 17.6061 29.4768 17.5767 29.4925 17.5669C29.5082 17.5562 29.5529 17.5284 29.5918 17.5039C29.6307 17.4802 29.6828 17.4475 29.7076 17.432C29.7325 17.4164 29.7589 17.4001 29.7672 17.3952C29.7755 17.3902 29.8218 17.3616 29.8706 17.3306C29.9203 17.2995 29.9766 17.2627 29.9973 17.2496C30.0179 17.2365 30.0999 17.185 30.1793 17.1351C30.2587 17.0852 30.3332 17.0386 30.3448 17.0313C30.3564 17.0231 30.3936 16.9994 30.4276 16.9773C30.4615 16.956 30.4971 16.934 30.5062 16.9291C30.5153 16.9242 30.5509 16.9029 30.5848 16.8808C30.6187 16.8587 30.6684 16.8277 30.694 16.8113C30.7205 16.795 30.7701 16.7639 30.8057 16.7418C30.8413 16.7197 30.9067 16.678 30.9514 16.6494C30.9952 16.6208 31.0325 16.5979 31.0341 16.5979C31.0349 16.5987 31.0713 16.575 31.1152 16.5472C31.1591 16.5186 31.2104 16.4867 31.2286 16.4752C31.2476 16.4638 31.3155 16.4221 31.3792 16.3812C31.4429 16.3403 31.5215 16.2913 31.5538 16.2708C31.5869 16.2504 31.6481 16.2119 31.6903 16.185C31.7333 16.158 31.8004 16.1154 31.8401 16.0909C31.8798 16.0664 31.9353 16.0312 31.9634 16.0132C31.9923 15.9952 32.0445 15.9625 32.0801 15.9405C32.1156 15.9184 32.1744 15.8808 32.2108 15.8579C32.2472 15.835 32.3465 15.772 32.4317 15.718C32.5178 15.6649 32.5939 15.6166 32.6014 15.6126C32.6097 15.6077 32.6386 15.5897 32.6659 15.5725C32.6932 15.5545 32.7619 15.512 32.819 15.4785C32.8761 15.4441 32.9622 15.3975 33.0093 15.3746C33.0573 15.3509 33.1244 15.3206 33.1583 15.3076C33.1922 15.2937 33.2576 15.2716 33.3031 15.2577C33.3486 15.2446 33.4173 15.2291 33.4562 15.2233C33.4951 15.2184 33.5621 15.2135 33.6051 15.2143C33.6482 15.2143 33.7119 15.2201 33.7458 15.2266C33.7797 15.2331 33.836 15.2503 33.8699 15.265C33.9039 15.2798 33.9543 15.3067 33.9816 15.3255C34.009 15.3435 34.0545 15.3828 34.0834 15.4122C34.1124 15.4417 34.1546 15.4924 34.1769 15.5242C34.1993 15.557 34.2316 15.6126 34.2489 15.6469C34.2663 15.6821 34.292 15.7418 34.306 15.7802C34.3201 15.8186 34.3375 15.8677 34.3441 15.8906C34.3515 15.9127 34.3631 15.9552 34.3697 15.9846C34.3764 16.0141 34.3896 16.0787 34.3995 16.1277C34.4086 16.1768 34.4194 16.2471 34.4235 16.2831C34.4285 16.3215 34.431 19.2096 34.4318 23.3235C34.4318 29.0949 34.4293 30.3116 34.4202 30.3721C34.4144 30.4122 34.402 30.4825 34.3921 30.5275C34.383 30.5725 34.364 30.6436 34.3499 30.6845C34.3366 30.7262 34.3102 30.7908 34.2911 30.8276C34.2729 30.8652 34.2398 30.9208 34.2191 30.9519C34.1976 30.9838 34.1562 31.0304 34.1265 31.0565C34.0967 31.0835 34.052 31.1171 34.0272 31.1318C34.0023 31.1465 33.9519 31.1694 33.9154 31.1825C33.8526 31.2046 33.8426 31.2062 33.7169 31.2062C33.5952 31.2062 33.577 31.2037 33.4893 31.1808C33.4372 31.1669 33.3751 31.1473 33.3528 31.1375C33.3296 31.1277 33.3089 31.1203 33.3048 31.1203C33.3014 31.1203 33.2485 31.0966 33.1873 31.0672C33.126 31.0377 33.0615 31.005 33.0441 30.9944C33.0275 30.9838 32.9489 30.9355 32.8703 30.8865C32.7917 30.8374 32.7181 30.7916 32.7081 30.7851C32.6982 30.7785 32.6692 30.7605 32.6444 30.7458C32.6196 30.7311 32.5832 30.7082 32.5625 30.6951C32.5418 30.682 32.5054 30.6591 32.4822 30.6444C32.4582 30.6297 32.3871 30.5847 32.325 30.5455C32.2621 30.5062 32.1711 30.4482 32.1223 30.4171C32.0726 30.3852 32.0312 30.3599 32.0288 30.3599C32.0263 30.3599 31.9948 30.3394 31.9584 30.3149C31.922 30.2904 31.8906 30.2699 31.8881 30.2699C31.8856 30.2699 31.8517 30.2495 31.812 30.2233C31.7714 30.198 31.7077 30.1571 31.6688 30.1325C31.6299 30.108 31.5778 30.0753 31.5529 30.0598C31.5281 30.0442 31.4719 30.0091 31.4288 29.9821C31.3858 29.9551 31.3163 29.9118 31.2757 29.8856C31.2352 29.8602 31.1698 29.8185 31.1309 29.794C31.092 29.7703 31.0167 29.7221 30.9629 29.6893C30.91 29.6558 30.8363 29.6092 30.7999 29.5871C30.7643 29.5642 30.6824 29.5127 30.6179 29.4727C30.5542 29.4326 30.4863 29.3892 30.4664 29.377C30.4474 29.3647 30.4135 29.3435 30.3903 29.3296C30.368 29.3157 30.315 29.2829 30.2745 29.256C30.2339 29.2298 30.1801 29.1954 30.1553 29.1807C30.1305 29.166 30.099 29.1464 30.085 29.1374C30.0709 29.1284 30.0469 29.1137 30.032 29.1047C30.0171 29.0957 29.9683 29.0654 29.9244 29.0376C29.8806 29.0098 29.8342 28.9796 29.8218 28.9706C29.8086 28.9608 29.797 28.9534 29.7945 28.9534C29.792 28.9534 29.7523 28.9289 29.706 28.8994C29.6588 28.8692 29.6075 28.8365 29.5918 28.8267C29.5761 28.8169 29.5314 28.7882 29.4933 28.7645C29.4544 28.74 29.3841 28.6958 29.3361 28.6656C29.2881 28.6353 29.2302 28.5993 29.207 28.5854C29.1847 28.5715 29.1441 28.5462 29.1185 28.5298C29.092 28.5135 29.0043 28.4579 28.924 28.4072C28.8429 28.3565 28.7411 28.2927 28.6981 28.2649C28.6551 28.2379 28.5748 28.188 28.5202 28.1537C28.4656 28.1202 28.3944 28.076 28.363 28.0556C28.3315 28.0351 28.2686 27.9951 28.2248 27.9664C28.1801 27.9386 28.142 27.9149 28.1395 27.9149C28.137 27.9149 28.1056 27.8945 28.0692 27.87C28.0328 27.8454 28.0013 27.825 27.9989 27.825C27.9964 27.825 27.9633 27.8045 27.9244 27.78C27.8855 27.7555 27.8234 27.7154 27.7862 27.6917C27.7481 27.668 27.6885 27.6304 27.653 27.6075C27.6174 27.5854 27.5677 27.5543 27.5412 27.5371C27.5156 27.5208 27.4602 27.4864 27.4196 27.4619C27.3791 27.4366 27.3377 27.4112 27.3294 27.4055C27.3203 27.3998 27.2847 27.3761 27.2483 27.3523C27.2127 27.3294 27.1821 27.3098 27.1796 27.3098C27.1772 27.3098 27.1374 27.2853 27.0911 27.2559C27.0439 27.2256 26.9877 27.1896 26.9645 27.1749C26.9421 27.1602 26.871 27.116 26.8073 27.0768C26.7435 27.0375 26.6856 26.9999 26.679 26.9942C26.6724 26.9885 26.6641 26.9827 26.6608 26.9827C26.6567 26.9827 26.6533 27.5739 26.6517 28.2976C26.65 29.4792 26.6484 29.6223 26.6351 29.718C26.6277 29.7768 26.6178 29.8521 26.6128 29.8856C26.6078 29.9191 26.5963 29.9837 26.5871 30.0287C26.578 30.0737 26.5574 30.162 26.5416 30.2249C26.5259 30.2879 26.5003 30.3779 26.4854 30.4253C26.4696 30.4727 26.4465 30.5406 26.4324 30.5766C26.4192 30.6125 26.3985 30.6657 26.3869 30.6951C26.3761 30.7246 26.3439 30.7957 26.3166 30.8546C26.2892 30.9134 26.252 30.9887 26.2346 31.0222C26.2173 31.0557 26.1751 31.1293 26.1411 31.1857C26.1072 31.2422 26.0542 31.3248 26.0245 31.3697C25.9938 31.4147 25.9434 31.485 25.9127 31.5267C25.8813 31.5676 25.8068 31.6576 25.7472 31.7271C25.6868 31.7957 25.5925 31.8963 25.5362 31.9503C25.48 32.0043 25.3947 32.0819 25.3467 32.122C25.2987 32.1629 25.2226 32.2234 25.1771 32.2578C25.1316 32.2921 25.0588 32.3436 25.0157 32.3722C24.9727 32.4009 24.9313 32.4278 24.9231 32.4327C24.9156 32.4376 24.8784 32.4597 24.8403 32.4826C24.8022 32.5055 24.7344 32.5448 24.6889 32.5685C24.6434 32.593 24.554 32.6363 24.4903 32.665C24.4266 32.6936 24.3537 32.7255 24.3289 32.7361C24.3041 32.7467 24.2668 32.7615 24.2462 32.7688C24.2255 32.7762 24.1609 32.7983 24.1013 32.8179C24.0418 32.8375 23.9549 32.8637 23.9069 32.8768C23.8589 32.8898 23.777 32.9103 23.7248 32.9225C23.6727 32.934 23.6015 32.9479 23.5676 32.952C23.5337 32.9569 23.4741 32.9659 23.4352 32.9724C23.3963 32.979 23.3185 32.988 23.2614 32.9929C23.187 32.9994 20.4653 33.001 13.5218 32.9994C4.76526 32.9961 3.87901 32.9953 3.81529 32.9831C3.7764 32.9757 3.70441 32.9643 3.65393 32.9569C3.60345 32.9495 3.52236 32.934 3.47188 32.9225C3.4214 32.9119 3.36596 32.8988 3.34776 32.8939C3.32955 32.8898 3.289 32.8784 3.25673 32.8694C3.22446 32.8604 3.16322 32.8416 3.1202 32.8277C3.07717 32.8138 3.006 32.7901 2.96297 32.7745C2.91994 32.759 2.86946 32.7386 2.85126 32.7304C2.83305 32.7214 2.81568 32.7149 2.81237 32.7149C2.80823 32.7149 2.73375 32.6797 2.64687 32.6372C2.55915 32.5946 2.46316 32.5464 2.43337 32.53C2.40358 32.5137 2.3349 32.472 2.28029 32.4385C2.22567 32.4041 2.17189 32.3698 2.1603 32.3616C2.14872 32.3526 2.09162 32.3109 2.03204 32.2676C1.97246 32.2242 1.88557 32.1555 1.83758 32.1147C1.78958 32.0738 1.70187 31.9928 1.64312 31.9339C1.58354 31.8759 1.50741 31.7966 1.47265 31.7581C1.43872 31.7197 1.38245 31.6535 1.3477 31.611C1.31377 31.5684 1.2575 31.4948 1.22357 31.4474C1.18965 31.4 1.13586 31.3215 1.10524 31.2716C1.07463 31.2217 1.02415 31.1375 0.993531 31.0835C0.963741 31.0296 0.914091 30.9323 0.884302 30.8668C0.854512 30.8014 0.818102 30.7221 0.804035 30.691C0.789967 30.66 0.778382 30.6305 0.778382 30.6256C0.778382 30.6207 0.76928 30.5954 0.758522 30.5684C0.747765 30.5414 0.727077 30.4825 0.71301 30.4375C0.698943 30.3926 0.677428 30.3222 0.665843 30.2822C0.654258 30.2421 0.641018 30.1922 0.637708 30.1718C0.634398 30.1513 0.621985 30.0908 0.610401 30.0369C0.598816 29.9829 0.584748 29.9077 0.579783 29.8692C0.573991 29.8308 0.564061 29.7629 0.556613 29.718C0.545028 29.6452 0.543373 28.9698 0.540891 23.2908C0.538408 19.0101 0.540891 16.9094 0.545856 16.835C0.550821 16.7745 0.562406 16.669 0.572336 16.602C0.581438 16.5341 0.600471 16.4262 0.614538 16.3608C0.627778 16.2953 0.65012 16.2013 0.664188 16.1522C0.677428 16.1032 0.70308 16.0165 0.721285 15.9601C0.73949 15.9037 0.775072 15.8064 0.800725 15.7434C0.825549 15.6804 0.877682 15.566 0.915746 15.4899C0.953811 15.4139 0.998496 15.3272 1.01505 15.2977C1.0316 15.2683 1.06139 15.2201 1.08125 15.189C1.10111 15.1587 1.11766 15.1326 1.11766 15.1301C1.11766 15.1277 1.13917 15.0958 1.16482 15.0582C1.19048 15.0214 1.24343 14.9486 1.28233 14.8971C1.32122 14.8456 1.39652 14.7532 1.44865 14.6926C1.50161 14.6321 1.60091 14.5291 1.66877 14.4637C1.73662 14.3983 1.82599 14.3173 1.86654 14.283C1.90791 14.2494 1.9857 14.1889 2.04031 14.1481C2.09493 14.108 2.17685 14.0516 2.22236 14.0221C2.26787 13.9927 2.31835 13.96 2.33407 13.951C2.3498 13.9412 2.40938 13.9076 2.46647 13.8758C2.52357 13.8447 2.6088 13.8005 2.6568 13.7784C2.70479 13.7564 2.76934 13.7269 2.80161 13.713C2.83388 13.6999 2.88767 13.6771 2.9216 13.6632C2.95552 13.6493 2.98697 13.6378 2.99193 13.6378C2.9969 13.6378 3.03 13.6272 3.06641 13.6141C3.10282 13.601 3.15661 13.5822 3.18639 13.5732C3.21618 13.5634 3.28487 13.5446 3.33948 13.5307C3.3941 13.5176 3.49505 13.4955 3.56291 13.4824C3.63159 13.4694 3.72592 13.4538 3.77392 13.4497C3.82191 13.4448 3.88646 13.4366 3.91873 13.4317C3.951 13.4268 4.17194 13.4211 4.41109 13.4178C4.82484 13.4129 4.84387 13.4121 4.81242 13.3999C4.79422 13.3925 4.73298 13.3639 4.67589 13.3369C4.61879 13.3099 4.52611 13.2625 4.46901 13.2314C4.41192 13.2003 4.35234 13.1676 4.33661 13.1578C4.32089 13.1488 4.27786 13.1243 4.24145 13.1022C4.20504 13.0801 4.12477 13.0294 4.06354 12.9894C4.00231 12.9485 3.9419 12.9084 3.92949 12.8986C3.9179 12.8888 3.88646 12.8667 3.85998 12.8487C3.83432 12.8307 3.78964 12.7972 3.7615 12.7751C3.73337 12.7522 3.6953 12.7236 3.67793 12.7097C3.66055 12.6958 3.60511 12.65 3.55463 12.6075C3.50498 12.565 3.43382 12.5028 3.39741 12.4685C3.361 12.435 3.29231 12.3679 3.24432 12.3197C3.19632 12.2722 3.1384 12.2134 3.11606 12.1888C3.09289 12.1651 3.03993 12.1071 2.99938 12.0596C2.95801 12.0122 2.9067 11.9517 2.88519 11.9247C2.8645 11.8977 2.81319 11.8315 2.77182 11.7775C2.73044 11.7236 2.67583 11.6483 2.64935 11.6115C2.6237 11.5739 2.59722 11.5347 2.5906 11.524C2.58398 11.5142 2.56495 11.4848 2.54922 11.4603C2.5335 11.4349 2.49544 11.3728 2.46482 11.3221C2.4342 11.2714 2.40027 11.2133 2.38869 11.1929C2.3771 11.1724 2.33656 11.0956 2.29849 11.0211C2.26043 10.9467 2.21574 10.8552 2.19836 10.8167C2.18182 10.7783 2.14623 10.6941 2.11975 10.6287C2.09327 10.5632 2.05935 10.4798 2.04528 10.4422C2.03121 10.4054 2.01963 10.3703 2.01963 10.3645C2.01963 10.3596 2.01052 10.331 1.99977 10.3016C1.98818 10.2721 1.96832 10.21 1.95425 10.1626C1.94019 10.1151 1.92115 10.0456 1.91122 10.0072C1.90129 9.96876 1.88474 9.90089 1.87481 9.85592C1.86488 9.81095 1.84999 9.74308 1.84254 9.70464C1.83509 9.66621 1.82185 9.59262 1.81275 9.5411C1.80448 9.48959 1.79289 9.41436 1.78875 9.37347C1.78379 9.33259 1.77386 9.23201 1.76558 9.14861C1.75565 9.04067 1.75152 8.9221 1.75152 8.73566C1.75152 8.55413 1.75565 8.42902 1.76558 8.32681C1.77303 8.24586 1.78131 8.15918 1.78379 8.13465C1.78627 8.11012 1.79786 8.0308 1.80861 7.95884C1.8202 7.88689 1.83923 7.78222 1.85082 7.7258C1.86323 7.66938 1.8773 7.60314 1.88309 7.57861C1.88888 7.55408 1.90378 7.49521 1.91536 7.44778C1.92777 7.40035 1.94432 7.33984 1.95343 7.31286C1.9617 7.28587 1.98239 7.22128 1.99894 7.16976C2.01549 7.11824 2.03866 7.05037 2.05024 7.01848C2.06183 6.98659 2.08252 6.93344 2.09576 6.89992C2.109 6.86639 2.12803 6.81815 2.13879 6.79362C2.14954 6.76908 2.17023 6.72084 2.18512 6.68731C2.19919 6.65379 2.24305 6.56139 2.28277 6.48289C2.32166 6.40439 2.36552 6.31935 2.37959 6.29482C2.39448 6.27028 2.43917 6.19424 2.47971 6.12719C2.51943 6.05932 2.57901 5.9661 2.61129 5.92031C2.64273 5.8737 2.675 5.82709 2.68162 5.81809C2.68824 5.80828 2.71969 5.76494 2.75113 5.72242C2.78258 5.6799 2.83636 5.60958 2.87112 5.56706C2.90505 5.52454 2.95552 5.46403 2.98283 5.43214C3.01014 5.40025 3.04903 5.35691 3.06972 5.33401C3.09041 5.31193 3.13178 5.2686 3.16157 5.23752C3.19136 5.20645 3.25839 5.1394 3.31052 5.08952C3.36265 5.03882 3.42968 4.97586 3.45947 4.94887C3.48926 4.92107 3.55298 4.86629 3.60097 4.82622C3.64896 4.78615 3.71351 4.73382 3.74578 4.7101C3.77723 4.68639 3.83846 4.6406 3.88149 4.60871C3.92452 4.57764 4.01224 4.51713 4.07595 4.47542C4.13967 4.43454 4.21994 4.38384 4.25386 4.3634C4.28779 4.34296 4.35316 4.30534 4.39868 4.27917C4.44419 4.25383 4.56749 4.19086 4.67175 4.13935C4.77601 4.08865 4.86704 4.04613 4.87283 4.04613C4.8778 4.04613 4.90179 4.03713 4.92414 4.02569C4.94731 4.01424 4.97958 4.00034 4.99696 3.9938C5.01351 3.98807 5.06316 3.96926 5.10618 3.95291C5.14921 3.93574 5.25513 3.89976 5.34202 3.87114C5.42891 3.84252 5.51249 3.81717 5.52821 3.8139C5.54393 3.81063 5.58696 3.79918 5.62337 3.78855C5.65978 3.77874 5.74005 3.75911 5.80128 3.74521C5.86252 3.73131 5.96513 3.71087 6.02884 3.6986C6.09256 3.68716 6.17614 3.67407 6.21503 3.66998C6.25392 3.6659 6.32674 3.6569 6.37639 3.65036C6.42604 3.643 6.51789 3.63401 6.57913 3.6291C6.64036 3.62501 6.81414 3.62092 6.96391 3.62092C7.11369 3.62092 7.28746 3.62501 7.3487 3.6291C7.40993 3.63401 7.50179 3.643 7.55143 3.64954C7.60108 3.65608 7.67556 3.6659 7.71693 3.66998C7.75831 3.67489 7.84023 3.68797 7.89898 3.69942C7.95774 3.71005 8.05124 3.72886 8.10586 3.74031C8.16047 3.75257 8.24653 3.7722 8.29618 3.7861C8.34583 3.79918 8.42444 3.82126 8.46995 3.83516C8.51547 3.84824 8.58994 3.87196 8.63545 3.88668C8.68097 3.90221 8.7571 3.9292 8.80509 3.94637C8.85309 3.96436 8.92011 3.99052 8.95404 4.00524C8.98797 4.01996 9.031 4.03713 9.0492 4.04367C9.06741 4.05022 9.17167 4.09928 9.2809 4.15325C9.39013 4.2064 9.50184 4.26364 9.52915 4.27917C9.55646 4.29471 9.59535 4.31679 9.61604 4.32824C9.63672 4.33968 9.66651 4.35686 9.68224 4.36667C9.69796 4.37648 9.76912 4.42227 9.83946 4.46806C9.9098 4.51385 10.0033 4.57764 10.0463 4.60871C10.0894 4.6406 10.1523 4.68803 10.1862 4.71419C10.2201 4.74036 10.2871 4.79433 10.3351 4.83358C10.3831 4.87365 10.4394 4.92107 10.4601 4.93988C10.4808 4.95869 10.5362 5.0102 10.5834 5.05599C10.6305 5.10097 10.7034 5.17293 10.7447 5.21545C10.7861 5.25797 10.8482 5.3242 10.8838 5.36263C10.9185 5.40106 10.9822 5.47629 11.0261 5.53026C11.0699 5.58423 11.1097 5.63411 11.1155 5.64065C11.1213 5.64719 11.1527 5.68808 11.1841 5.73224C11.2156 5.77557 11.2611 5.83854 11.2834 5.87124C11.3066 5.90395 11.3546 5.97673 11.3902 6.03315C11.4266 6.08957 11.4796 6.17788 11.5093 6.2294C11.5391 6.28091 11.5863 6.36759 11.6144 6.42156C11.6426 6.47553 11.6889 6.5712 11.717 6.63416C11.746 6.69713 11.7783 6.76908 11.789 6.79362C11.7998 6.81815 11.8221 6.87375 11.8379 6.91627C11.8544 6.95879 11.8768 7.01767 11.8875 7.0471C11.8983 7.07654 11.9181 7.13542 11.9314 7.17794C11.9446 7.22046 11.9661 7.28833 11.9785 7.32921C11.9918 7.3701 12.0042 7.41589 12.0075 7.43143C12.0108 7.44696 12.0232 7.49684 12.0348 7.54182C12.0464 7.58679 12.0654 7.66938 12.077 7.7258C12.0886 7.78222 12.1076 7.88852 12.1192 7.96293C12.1316 8.03734 12.1449 8.14201 12.149 8.19598C12.1531 8.24995 12.1606 8.3309 12.1647 8.37587C12.1689 8.42085 12.1747 8.53533 12.178 8.62936C12.1813 8.73076 12.1796 8.86323 12.1738 8.95236C12.1689 9.03576 12.1606 9.15351 12.1556 9.21402C12.1507 9.27453 12.1374 9.38492 12.1267 9.45933C12.1151 9.53374 12.0969 9.64168 12.0845 9.70056C12.0729 9.75943 12.0605 9.82566 12.0563 9.84774C12.0522 9.86982 12.0398 9.92052 12.0282 9.96059C12.0166 9.99984 12.0075 10.0366 12.0075 10.0415C12.0075 10.0473 11.9959 10.089 11.9818 10.1339C11.9678 10.1789 11.9421 10.2599 11.9248 10.3138C11.9074 10.3678 11.8834 10.4381 11.8726 10.4692C11.8619 10.5003 11.8445 10.5436 11.8346 10.5649C11.8255 10.5869 11.8172 10.6066 11.8172 10.6098C11.8172 10.6139 11.7981 10.6589 11.775 10.7104C11.7518 10.7619 11.7262 10.8208 11.7179 10.8413C11.7096 10.8617 11.6691 10.9426 11.6285 11.0211C11.588 11.0996 11.5449 11.1822 11.5325 11.2051C11.5193 11.2272 11.4862 11.2836 11.458 11.3302C11.4307 11.376 11.3943 11.4349 11.3786 11.4603C11.3629 11.4848 11.3438 11.5142 11.3372 11.5249C11.3306 11.5347 11.3025 11.5756 11.2752 11.6156C11.247 11.6549 11.1924 11.7301 11.1527 11.7816C11.113 11.8331 11.0633 11.8977 11.0426 11.9247C11.0211 11.9517 10.9682 12.0147 10.9243 12.0637C10.8813 12.1128 10.825 12.1757 10.8002 12.2019C10.7745 12.2289 10.7108 12.2927 10.6579 12.345C10.6057 12.3973 10.5271 12.4718 10.4841 12.5102C10.441 12.5494 10.3798 12.6026 10.3484 12.6288C10.3169 12.6557 10.2549 12.7048 10.2118 12.7391C10.1688 12.7735 10.1109 12.8176 10.0836 12.8373C10.0563 12.8569 10.0265 12.879 10.0165 12.8855C10.0066 12.8921 9.98013 12.91 9.95779 12.9256C9.93628 12.9411 9.88084 12.9779 9.83532 13.0074C9.78981 13.0368 9.74513 13.0662 9.73602 13.0711C9.72692 13.0769 9.69713 13.0948 9.66982 13.1112C9.64252 13.1276 9.60693 13.1488 9.59121 13.1578C9.57549 13.1668 9.51757 13.1987 9.46295 13.229C9.40834 13.2584 9.31317 13.3066 9.25194 13.3361C9.1907 13.3655 9.12699 13.3949 9.11127 13.4023C9.08396 13.4154 9.36034 13.4162 13.0915 13.417C15.2968 13.417 17.0991 13.4154 17.0966 13.4138C17.0941 13.4113 17.0685 13.4007 17.0387 13.3892C17.0089 13.3786 16.9568 13.359 16.9228 13.3451C16.8889 13.332 16.8384 13.3115 16.8111 13.3001C16.7838 13.2895 16.6928 13.2486 16.6084 13.2101C16.524 13.1717 16.4139 13.1194 16.3643 13.094C16.3146 13.0679 16.2509 13.0352 16.2236 13.0204C16.1963 13.0057 16.135 12.9714 16.0871 12.9452C16.0391 12.9182 15.9869 12.8888 15.9712 12.8798C15.9555 12.8708 15.9091 12.843 15.8678 12.8176C15.8264 12.7931 15.7618 12.7522 15.723 12.7277C15.6841 12.7023 15.6237 12.6623 15.5881 12.6386C15.5525 12.6149 15.5004 12.5789 15.4722 12.5584C15.4441 12.5388 15.3688 12.484 15.3051 12.4366C15.2414 12.39 15.1685 12.3336 15.1437 12.3131C15.1189 12.2919 15.0643 12.2469 15.0229 12.2142C14.9815 12.1807 14.9145 12.1242 14.8748 12.0883C14.8342 12.0523 14.7697 11.9934 14.7316 11.9574C14.6927 11.9214 14.6331 11.8642 14.5984 11.8299C14.5636 11.7963 14.4925 11.7244 14.4403 11.6704C14.3882 11.6164 14.3187 11.5437 14.2864 11.5077C14.2542 11.4717 14.1813 11.3867 14.1242 11.3196C14.068 11.2517 13.9827 11.1454 13.9347 11.0825C13.8867 11.0195 13.8313 10.9451 13.8114 10.9173C13.7908 10.8895 13.7543 10.838 13.7303 10.8028C13.7063 10.7677 13.6526 10.6883 13.612 10.6262C13.5715 10.5649 13.5384 10.5125 13.5384 10.5101C13.5384 10.5076 13.5276 10.4896 13.5135 10.4692C13.4995 10.4488 13.4887 10.4308 13.4887 10.4283C13.4887 10.4259 13.4746 10.4013 13.4564 10.3727C13.4391 10.3449 13.4118 10.2983 13.396 10.2689C13.3803 10.2394 13.3547 10.1936 13.3398 10.1666C13.3249 10.1397 13.2802 10.053 13.2405 9.97449C13.2007 9.89599 13.1544 9.80032 13.137 9.76188C13.1197 9.72345 13.099 9.67766 13.0907 9.65967C13.0832 9.64168 13.0626 9.59425 13.046 9.55337C13.0295 9.51248 13.0071 9.45933 12.9964 9.4348C12.9848 9.41027 12.9707 9.37347 12.9641 9.35303C12.9575 9.33259 12.9384 9.27944 12.9219 9.23446C12.9053 9.18949 12.8772 9.1069 12.859 9.05048C12.8408 8.99406 12.8151 8.91311 12.8019 8.87059C12.7887 8.82806 12.7671 8.75202 12.7539 8.70296C12.7398 8.65389 12.7183 8.56558 12.7043 8.50671C12.691 8.44783 12.6695 8.35461 12.6579 8.29819C12.6463 8.24177 12.6273 8.14446 12.6157 8.0815C12.605 8.01854 12.5917 7.93431 12.5867 7.89343C12.5826 7.85254 12.5719 7.76668 12.5627 7.70127C12.5536 7.63585 12.5437 7.54018 12.5412 7.48866C12.5379 7.43715 12.5321 7.33575 12.528 7.2638C12.5239 7.19184 12.5205 7.04302 12.5205 6.93263C12.5205 6.82224 12.5239 6.65869 12.5288 6.56875C12.5338 6.4788 12.5412 6.36105 12.5454 6.30708C12.5503 6.25311 12.5611 6.15172 12.5702 6.08221C12.5793 6.01271 12.5934 5.91867 12.6 5.8737C12.6074 5.82872 12.6223 5.74205 12.6323 5.68154C12.643 5.62103 12.6571 5.54743 12.6637 5.518C12.6703 5.48856 12.6885 5.41333 12.7026 5.35037C12.7175 5.2874 12.7407 5.195 12.7539 5.14594C12.768 5.09688 12.7903 5.0192 12.8036 4.97422C12.8176 4.92925 12.8408 4.85402 12.8565 4.80659C12.8714 4.75917 12.8995 4.67821 12.9177 4.6267C12.9368 4.57518 12.9608 4.51058 12.9715 4.4836C12.9815 4.45662 12.9997 4.41082 13.0113 4.38139C13.0228 4.35195 13.046 4.29716 13.0626 4.25873C13.0791 4.2203 13.1014 4.16878 13.1114 4.14425C13.1213 4.11972 13.1594 4.03877 13.1958 3.96436C13.2314 3.88995 13.3017 3.75584 13.3505 3.6659C13.4002 3.57595 13.454 3.48028 13.4697 3.45329C13.4862 3.42631 13.526 3.36171 13.5582 3.31019C13.5905 3.25868 13.6592 3.15401 13.7113 3.07715C13.7626 3.00028 13.8487 2.88172 13.9016 2.81221C13.9546 2.74271 14.0051 2.67647 14.0142 2.66421C14.0233 2.65276 14.0547 2.61351 14.0845 2.57753C14.1135 2.54237 14.1416 2.50884 14.1466 2.50394C14.1507 2.49903 14.1755 2.47123 14.2004 2.44343C14.2252 2.41481 14.2724 2.36166 14.3038 2.32568C14.3352 2.28888 14.4254 2.19566 14.5024 2.11716C14.5794 2.03948 14.6894 1.93236 14.7465 1.88003C14.8036 1.8277 14.8806 1.75901 14.9161 1.7263C14.9526 1.69441 15.027 1.63226 15.0816 1.58811C15.1363 1.54395 15.2 1.49325 15.2223 1.47608C15.2455 1.45891 15.2844 1.42947 15.3092 1.41067C15.334 1.39186 15.3646 1.36896 15.3771 1.35997C15.3895 1.35097 15.4267 1.32481 15.4598 1.30191C15.4929 1.27902 15.5368 1.24876 15.5575 1.23404C15.5781 1.22014 15.6195 1.19234 15.651 1.1719C15.6816 1.15145 15.7312 1.11875 15.7627 1.09912C15.7933 1.0795 15.8405 1.05006 15.8678 1.03289C15.8951 1.01572 15.9282 0.995273 15.9422 0.987913C15.9563 0.979736 15.9894 0.960111 16.0167 0.944575C16.044 0.928221 16.0829 0.906143 16.1036 0.895513C16.1243 0.884065 16.1648 0.861987 16.1946 0.845633C16.2244 0.829279 16.3138 0.783487 16.3932 0.744237C16.4727 0.70417 16.5943 0.64693 16.6622 0.616675C16.7308 0.58642 16.807 0.552894 16.8318 0.542264C16.8566 0.531634 16.9054 0.512009 16.9394 0.498926C16.9733 0.485025 17.0312 0.462947 17.0676 0.449046C17.104 0.435145 17.1669 0.412249 17.2083 0.398348C17.2497 0.384447 17.3068 0.364005 17.3366 0.354192C17.3664 0.34438 17.4276 0.324755 17.4731 0.311672C17.5186 0.297771 17.5947 0.275693 17.6427 0.261792C17.6907 0.247891 17.7727 0.225813 17.8248 0.212729C17.8769 0.199646 17.9539 0.180839 17.9944 0.171026C18.035 0.162032 18.1252 0.143224 18.193 0.129323C18.2617 0.11624 18.3436 0.101522 18.3751 0.0966153C18.4065 0.0925268 18.476 0.0810789 18.5282 0.0720841C18.5803 0.0630894 18.6606 0.0516415 18.7061 0.047553C18.7516 0.0434645 18.8393 0.0344697 18.9005 0.0271104C18.9618 0.0205688 19.0569 0.011574 19.1115 0.00748548C19.1662 0.00421466 19.373 0.00012614 19.5708 0.00012614ZM19.0081 2.8441C18.9378 2.85392 18.8244 2.87272 18.7557 2.88581C18.6879 2.89971 18.5869 2.92178 18.5323 2.93569C18.4777 2.94959 18.3958 2.97166 18.3503 2.98557C18.3047 2.99865 18.2319 3.02236 18.1889 3.03708C18.1459 3.0518 18.0805 3.0747 18.0441 3.08778C18.0077 3.10168 17.9481 3.12539 17.9117 3.14011C17.8753 3.15565 17.8082 3.1859 17.7627 3.20635C17.7172 3.22761 17.656 3.25704 17.6262 3.27258C17.5964 3.2873 17.541 3.31755 17.5021 3.33881C17.4632 3.36007 17.4135 3.38869 17.3904 3.40178C17.368 3.41568 17.3357 3.4353 17.32 3.44512C17.3043 3.45493 17.2646 3.47946 17.2331 3.50072C17.2017 3.52116 17.1471 3.55796 17.1123 3.58167C17.0776 3.60539 17.018 3.64872 16.9799 3.67816C16.9419 3.70678 16.903 3.73622 16.8947 3.74358C16.8864 3.75012 16.8657 3.76647 16.8492 3.78037C16.8326 3.79346 16.7673 3.85151 16.7035 3.90794C16.6398 3.96436 16.5422 4.05839 16.4876 4.11645C16.4321 4.17451 16.3527 4.26282 16.3105 4.31188C16.2683 4.36094 16.207 4.43699 16.1748 4.47951C16.1425 4.52203 16.1086 4.56782 16.0995 4.58173C16.0895 4.59481 16.0655 4.62997 16.0449 4.65941C16.0242 4.68884 16.0051 4.71828 16.0018 4.72482C15.9985 4.73136 15.9811 4.75917 15.9629 4.78615C15.9447 4.81314 15.9191 4.85566 15.9042 4.88019C15.8901 4.90472 15.8669 4.9456 15.8529 4.97013C15.8396 4.99467 15.8049 5.0609 15.7759 5.11732C15.7478 5.17374 15.7114 5.24897 15.6956 5.28495C15.6799 5.32093 15.6576 5.37245 15.646 5.39943C15.6352 5.42641 15.6162 5.47221 15.6046 5.50164C15.5939 5.53108 15.5732 5.5875 15.5591 5.62839C15.5459 5.66927 15.5227 5.74041 15.5086 5.78784C15.4954 5.83527 15.4722 5.91785 15.459 5.97182C15.4449 6.02579 15.4251 6.11737 15.4135 6.17625C15.4019 6.23431 15.3853 6.3447 15.3754 6.42156C15.3663 6.49761 15.3547 6.60309 15.3506 6.65461C15.3464 6.70612 15.3423 6.82796 15.3423 6.92445C15.3423 7.02094 15.3464 7.14278 15.3506 7.19429C15.3547 7.24581 15.3647 7.33821 15.3713 7.39872C15.3787 7.45923 15.3953 7.57125 15.4093 7.64812C15.4234 7.72416 15.4499 7.84437 15.4681 7.91387C15.4863 7.98338 15.5078 8.06433 15.5177 8.09377C15.5268 8.1232 15.545 8.17962 15.5591 8.22051C15.5732 8.2614 15.593 8.317 15.6038 8.3448C15.6146 8.37342 15.6336 8.42085 15.646 8.4511C15.6576 8.48217 15.6791 8.53042 15.6923 8.55986C15.7056 8.5893 15.742 8.66452 15.7734 8.72749C15.8049 8.79045 15.8429 8.86404 15.8587 8.89103C15.8744 8.91801 15.8967 8.95644 15.9091 8.97689C15.9207 8.99733 15.9364 9.02431 15.9447 9.03821C15.9522 9.05212 15.9811 9.09545 16.0084 9.13634C16.0349 9.17722 16.0796 9.24101 16.1069 9.27944C16.1342 9.31787 16.183 9.38165 16.2153 9.42254C16.2468 9.46342 16.2766 9.50022 16.2815 9.50512C16.2857 9.51085 16.3005 9.52884 16.3146 9.54519C16.3287 9.56236 16.3593 9.59834 16.3841 9.62614C16.4089 9.65313 16.495 9.74062 16.5744 9.81912C16.6547 9.89762 16.7466 9.9843 16.778 10.0121C16.8095 10.0399 16.8864 10.1004 16.9476 10.147C17.0089 10.1944 17.0908 10.255 17.1297 10.2819C17.1686 10.3089 17.2298 10.349 17.2662 10.3719C17.3026 10.3948 17.3606 10.4299 17.3945 10.4504C17.4284 10.4708 17.4772 10.4978 17.5021 10.5117C17.5269 10.5256 17.5832 10.5551 17.6262 10.5771C17.6692 10.6 17.7553 10.6401 17.8165 10.6671C17.8778 10.6949 17.9564 10.7276 17.9903 10.7415C18.0242 10.7546 18.073 10.7734 18.0979 10.7824C18.1227 10.7922 18.1823 10.8126 18.2303 10.8282C18.2783 10.8437 18.356 10.8674 18.404 10.8813C18.452 10.8944 18.5373 10.9173 18.5944 10.9304C18.6515 10.9443 18.759 10.9655 18.8343 10.9794C18.9096 10.9925 19.0271 11.0089 19.095 11.0162C19.1637 11.0236 19.258 11.0334 19.306 11.0375C19.354 11.0416 19.4781 11.0449 19.5832 11.0457C19.6883 11.0457 19.8166 11.0416 19.8687 11.0375C19.9208 11.0334 20.0177 11.0236 20.0839 11.0162C20.1501 11.0089 20.2651 10.9925 20.3404 10.9794C20.4157 10.9655 20.5249 10.9435 20.5845 10.9296C20.6441 10.9157 20.7202 10.896 20.7541 10.8862C20.7881 10.8756 20.8551 10.856 20.9031 10.8413C20.9511 10.8274 21.0198 10.8045 21.0562 10.7906C21.0926 10.7767 21.1505 10.7546 21.1844 10.7415C21.2184 10.7276 21.273 10.7055 21.3044 10.6916C21.3359 10.6777 21.4054 10.6466 21.4575 10.6221C21.5096 10.5976 21.5899 10.5575 21.6354 10.5322C21.6809 10.5076 21.7554 10.4651 21.8009 10.4381C21.8464 10.4111 21.9358 10.3539 21.9995 10.3114C22.0632 10.2689 22.1402 10.2149 22.17 10.192C22.1998 10.1691 22.237 10.1413 22.2519 10.1299C22.2676 10.1184 22.3065 10.0873 22.3388 10.0603C22.3702 10.0342 22.4157 9.99493 22.4381 9.9753C22.4613 9.95486 22.539 9.87881 22.6127 9.80686C22.6855 9.7349 22.7716 9.64659 22.8038 9.61061C22.8353 9.57463 22.8725 9.53211 22.8866 9.51657C22.8998 9.50104 22.9495 9.43644 22.9975 9.37347C23.0455 9.31051 23.1141 9.21484 23.1497 9.16087C23.1853 9.1069 23.2225 9.04966 23.2333 9.03413C23.2432 9.01859 23.2672 8.97771 23.2863 8.94418C23.3061 8.91065 23.345 8.83869 23.3732 8.78473C23.4021 8.73076 23.4427 8.64817 23.4642 8.60074C23.4857 8.55332 23.5196 8.474 23.5403 8.42494C23.561 8.37587 23.5991 8.26875 23.6255 8.1878C23.652 8.10685 23.6851 7.99809 23.6984 7.94658C23.7124 7.89506 23.7331 7.81002 23.7447 7.75851C23.7563 7.70699 23.7679 7.64975 23.7704 7.63176C23.7728 7.61377 23.7836 7.53854 23.7943 7.46413C23.8059 7.38972 23.8175 7.29242 23.8208 7.24744C23.8241 7.20247 23.8266 7.06264 23.8266 6.93671C23.8274 6.81079 23.8241 6.66524 23.8208 6.61372C23.8175 6.56221 23.8035 6.44609 23.7902 6.35614C23.777 6.2662 23.7571 6.14845 23.7447 6.09448C23.7331 6.04051 23.7099 5.94647 23.6942 5.88596C23.6777 5.82545 23.6471 5.72242 23.6247 5.65701C23.6032 5.59159 23.5701 5.50164 23.5519 5.45667C23.5345 5.4117 23.508 5.34873 23.4948 5.31766C23.4816 5.28577 23.4509 5.21953 23.4261 5.17047C23.4021 5.12141 23.3574 5.03637 23.3276 4.9824C23.297 4.92843 23.2656 4.87119 23.2556 4.85566C23.2465 4.84012 23.2192 4.79596 23.1944 4.75753C23.1696 4.7191 23.1365 4.66922 23.1208 4.64632C23.105 4.62343 23.0653 4.56782 23.0331 4.52367C23 4.47869 22.9338 4.39447 22.8849 4.33641C22.8361 4.27754 22.755 4.18596 22.7045 4.13281C22.6532 4.07884 22.563 3.99052 22.5043 3.93656C22.4447 3.88177 22.3504 3.80082 22.2933 3.75584C22.237 3.71087 22.1658 3.65608 22.136 3.63482C22.1063 3.61356 22.0765 3.59148 22.0698 3.58576C22.0632 3.58004 22.0094 3.54406 21.9499 3.50563C21.8903 3.46719 21.8142 3.41977 21.7802 3.40014C21.7463 3.38052 21.7091 3.35926 21.6975 3.3519C21.6859 3.34536 21.6602 3.33064 21.6395 3.32001C21.6189 3.30856 21.5709 3.28403 21.532 3.2644C21.4931 3.2456 21.4244 3.21289 21.3789 3.19163C21.3334 3.17037 21.244 3.13357 21.1803 3.10822C21.1166 3.08369 21.0239 3.04935 20.9734 3.03217C20.9229 3.01582 20.8435 2.99047 20.7955 2.97657C20.7475 2.96349 20.6805 2.94468 20.6466 2.93569C20.6126 2.92587 20.5191 2.90625 20.4397 2.89071C20.3602 2.87436 20.2353 2.85392 20.1625 2.8441C20.0896 2.83429 19.9821 2.82284 19.9225 2.81875C19.8629 2.81467 19.6974 2.81221 19.5543 2.81303C19.4111 2.81385 19.258 2.81712 19.215 2.82039C19.172 2.82366 19.0785 2.83429 19.0081 2.8441ZM6.53775 6.46572C6.46245 6.47962 6.37308 6.49924 6.33915 6.50824C6.30523 6.51805 6.23406 6.53931 6.18193 6.55648C6.1298 6.57447 6.05863 6.59982 6.02471 6.61372C5.99078 6.62762 5.92375 6.65869 5.87576 6.68241C5.82776 6.70612 5.76322 6.74128 5.73094 6.76091C5.69867 6.77971 5.64157 6.81651 5.60434 6.84186C5.56627 6.86721 5.52655 6.89338 5.5158 6.89992C5.50587 6.90646 5.45125 6.95061 5.39581 6.99804C5.33954 7.04547 5.2601 7.11906 5.21955 7.16158C5.17818 7.2041 5.1186 7.27197 5.0855 7.31286C5.05323 7.35374 5.01351 7.40444 4.99778 7.42652C4.98206 7.4486 4.96386 7.47476 4.95724 7.48458C4.95062 7.49439 4.93076 7.52628 4.91255 7.5549C4.89517 7.58352 4.87283 7.62032 4.86373 7.63585C4.85463 7.65139 4.83477 7.68818 4.81987 7.71762C4.80498 7.74706 4.77932 7.80185 4.76277 7.84028C4.74622 7.87871 4.72057 7.94249 4.70568 7.98338C4.68995 8.02426 4.66844 8.09213 4.65685 8.13465C4.64444 8.17717 4.62293 8.27121 4.60886 8.34317C4.58238 8.47318 4.58238 8.47645 4.58155 8.73158C4.58073 8.97934 4.58155 8.99324 4.6039 9.10772C4.61631 9.17314 4.63782 9.26881 4.65189 9.32032C4.66513 9.37184 4.68416 9.43235 4.69244 9.45524C4.70154 9.47732 4.71561 9.51657 4.72471 9.5411C4.73298 9.56563 4.75864 9.62696 4.78181 9.67602C4.80498 9.72509 4.83808 9.79214 4.85628 9.82321C4.87366 9.85428 4.89683 9.89517 4.90841 9.91316C4.91917 9.93115 4.93655 9.95895 4.94648 9.97449C4.95724 9.99002 4.96799 10.0072 4.9713 10.0113C4.97544 10.0162 5.01102 10.0636 5.0524 10.1176C5.09377 10.1716 5.1699 10.259 5.22203 10.313C5.27417 10.3662 5.36188 10.4471 5.41732 10.4929C5.47277 10.5387 5.55469 10.6 5.59937 10.6295C5.64406 10.6589 5.69288 10.69 5.70612 10.699C5.71936 10.7071 5.74584 10.7227 5.76404 10.7325C5.78225 10.7431 5.84183 10.7726 5.89644 10.7996C5.95106 10.8257 6.02388 10.8584 6.05781 10.8715C6.09173 10.8854 6.15876 10.9091 6.20675 10.9255C6.25475 10.941 6.33998 10.9647 6.39708 10.9786C6.45418 10.9925 6.55844 11.0122 6.62878 11.0228C6.73635 11.0383 6.79014 11.0416 6.96391 11.0416C7.13934 11.0416 7.19065 11.0383 7.29905 11.0228C7.36939 11.0122 7.47779 10.9909 7.53902 10.9762C7.60026 10.9606 7.68383 10.9377 7.72521 10.9238C7.76658 10.9108 7.82368 10.8903 7.85347 10.8797C7.88326 10.8682 7.9536 10.8372 8.01069 10.8094C8.06779 10.7816 8.13316 10.7497 8.15551 10.7366C8.17868 10.7243 8.21343 10.7039 8.23412 10.6908C8.25481 10.6785 8.28625 10.6581 8.30446 10.6466C8.32266 10.6344 8.36735 10.6033 8.40376 10.5763C8.44017 10.5493 8.50306 10.4995 8.54443 10.4643C8.5858 10.4299 8.65449 10.3653 8.69752 10.3204C8.74137 10.2762 8.79516 10.2182 8.81833 10.1912C8.84067 10.1642 8.88122 10.1127 8.90853 10.0767C8.93501 10.0407 8.97721 9.98021 9.00121 9.94178C9.0252 9.90335 9.05748 9.84856 9.07403 9.81912C9.09058 9.78969 9.12119 9.72754 9.14354 9.68011C9.16588 9.63269 9.19898 9.55173 9.21718 9.50022C9.23539 9.4487 9.26187 9.36775 9.27511 9.32032C9.28918 9.2729 9.31069 9.17559 9.32393 9.10363C9.34545 8.98016 9.3471 8.95971 9.3471 8.73566C9.3471 8.50998 9.34627 8.49199 9.3231 8.3677C9.30986 8.29574 9.28669 8.19271 9.27097 8.13874C9.25525 8.08477 9.23208 8.01118 9.21884 7.9752C9.2056 7.93922 9.18491 7.88607 9.17333 7.85663C9.16091 7.82719 9.13692 7.77568 9.11954 7.74215C9.10299 7.70863 9.07982 7.66447 9.06823 7.64403C9.05665 7.62359 9.03348 7.58352 9.01528 7.5549C8.9979 7.52628 8.97721 7.49439 8.97059 7.48458C8.96397 7.47476 8.94246 7.44451 8.92425 7.41834C8.90522 7.39136 8.87626 7.35374 8.85971 7.3333C8.84233 7.31286 8.8233 7.28914 8.81585 7.28015C8.8084 7.27116 8.77034 7.22945 8.73144 7.18693C8.69255 7.14441 8.61725 7.07245 8.56512 7.02666C8.51298 6.98169 8.44182 6.92445 8.40789 6.8991C8.37397 6.87457 8.32514 6.84104 8.30032 6.82469C8.27549 6.80915 8.22915 6.77971 8.19688 6.76091C8.16461 6.74128 8.09179 6.70203 8.03304 6.67341C7.97511 6.64561 7.92381 6.6219 7.91967 6.6219C7.91553 6.6219 7.89733 6.61536 7.87995 6.60636C7.8634 6.59818 7.81044 6.57856 7.76245 6.56221C7.71445 6.54585 7.64246 6.52377 7.60108 6.51233C7.55971 6.50088 7.46538 6.47962 7.39007 6.46572C7.27753 6.44446 7.22375 6.43955 7.0839 6.43464C6.99039 6.43219 6.86048 6.43219 6.79428 6.43546C6.71649 6.43873 6.62629 6.44936 6.53775 6.46572Z" fill="#D8E4E8"/>
<path d="M18.3773 23.1892L11.0192 27.8236L11.0192 18.5548L18.3773 23.1892Z" fill="#4C7380"/>
</svg>
