<svg width="63" height="46" viewBox="0 0 63 46" fill="none" xmlns="http://www.w3.org/2000/svg">
<g filter="url(#filter0_d_2831_2355)">
<path d="M14.6194 5.18841C11.9538 5.91087 10.2099 8.16544 10.2099 10.9307C10.1975 12.0891 10.3469 12.7493 10.8452 13.7209C11.3061 14.6302 11.9413 15.3402 12.7759 15.8883C13.8969 16.6356 14.7066 16.8723 16.1391 16.8723C17.0982 16.8723 17.5591 16.81 18.0947 16.6107C20.5735 15.7139 22.0807 13.5714 22.0807 10.9805C22.0807 9.1993 21.4703 7.76684 20.1998 6.5835C18.7549 5.22578 16.5377 4.6777 14.6194 5.18841Z" fill="#4C7380"/>
<path d="M41.6494 5.18841C39.619 5.73648 37.9623 7.35579 37.4392 9.2865C37.2772 9.87194 37.2399 10.4076 37.2772 11.3293C37.3146 12.4504 37.3644 12.6497 37.7755 13.4842C38.336 14.6178 38.909 15.3028 39.8059 15.8883C43.8292 18.5664 49.1106 15.7762 49.1231 10.9805C49.1231 9.31141 48.6622 8.11562 47.5411 6.89491C46.7938 6.09771 45.7225 5.44999 44.6762 5.17596C43.8666 4.9642 42.4839 4.9642 41.6494 5.18841Z" fill="#4C7380"/>
<path d="M28.1717 9.93421C26.2659 10.4449 24.6591 11.9023 24.0363 13.696C23.7124 14.6302 23.6003 15.963 23.7871 16.8723C23.974 17.7692 24.6715 19.1518 25.1573 19.6251C25.5061 19.9615 25.5435 19.9615 25.9919 19.8244C27.2126 19.4134 29.1807 19.9739 30.4263 21.0701L30.5044 21.1365C30.8173 21.4028 31.2504 21.4776 31.6345 21.3316C34.1382 20.385 35.633 18.23 35.633 15.6142C35.6205 11.8276 31.8463 8.95017 28.1717 9.93421Z" fill="#4C7380"/>
<path d="M54.7533 11.3417C53.981 11.8151 54.0557 11.6158 52.4613 17.3955C51.7139 20.086 51.0413 22.5274 50.4683 24.62C50.1071 25.9155 49.7334 27.2358 49.6462 27.5473C49.2725 28.743 49.285 28.9299 49.7708 30.1755C50.2815 31.4834 50.3936 31.6578 50.705 31.6578C50.8171 31.6578 51.415 31.2717 52.0253 30.8108C52.7446 30.2612 53.2641 29.4914 53.5046 28.6187L53.9062 27.1611C54.3297 25.629 54.8778 23.636 55.1145 22.7516C55.3636 21.8548 55.675 20.7337 55.812 20.2604C55.949 19.7746 56.3103 18.4667 56.6217 17.3332C56.9206 16.1997 57.2943 14.9042 57.4313 14.4558C57.9047 12.9237 57.6805 11.9396 56.7587 11.3667C56.2231 11.0303 55.264 11.0179 54.7533 11.3417ZM56.3975 12.4254C56.6715 12.6995 56.6964 12.8116 56.6341 13.26C56.5691 13.634 56.3153 13.8208 55.949 13.7209C55.3511 13.5589 54.9899 13.6337 54.9152 13.9451C54.8155 14.3188 54.9401 14.4433 55.5754 14.6551C55.9117 14.7672 56.1857 14.8668 56.1857 14.8793C56.1857 14.9416 55.1145 18.8902 54.4045 21.4437C53.9561 23.0506 53.3831 25.1308 53.1339 26.0525C52.1748 29.5029 52.2246 29.3783 51.6018 29.8641C51.2904 30.1008 50.9915 30.2502 50.9417 30.2004C50.6801 29.9264 50.3811 28.8302 50.4808 28.4815C50.5306 28.2697 50.8295 27.186 51.141 26.0525C51.4648 24.919 51.826 23.5737 51.9755 23.063C52.1125 22.5523 52.3617 21.6804 52.5111 21.1323C52.6731 20.5842 53.1962 18.6535 53.6945 16.8349C54.8654 12.5002 54.9027 12.413 55.2266 12.251C55.6875 12.0268 56.0611 12.0891 56.3975 12.4254Z" fill="#4C7380"/>
<path d="M11.2811 18.1553C8.60305 18.7033 6.33602 20.7337 5.40181 23.3993C5.06549 24.346 5.06549 24.4457 5.01567 27.8462C4.9783 30.6364 5.00321 31.3339 5.14023 31.4211C5.43918 31.6204 7.53182 32.2681 8.85218 32.592C10.7455 33.0404 12.5268 33.2771 14.6069 33.3643C15.6056 33.4053 16.4434 32.6186 16.4651 31.6193L16.4754 31.1471C16.5501 28.5188 16.6622 27.9334 17.5092 26.2393C18.157 24.9065 19.0289 23.7979 20.1001 22.9385C20.8849 22.3032 22.3796 21.4686 23.2017 21.207C23.4263 21.1342 23.5109 20.8608 23.3668 20.6738L23.2017 20.4597C22.9401 20.1358 22.5914 19.5504 22.417 19.1642C22.0931 18.3919 21.981 18.3297 20.6357 18.093C19.4773 17.8812 12.3524 17.9311 11.2811 18.1553Z" fill="#4C7380"/>
<path d="M38.6847 18.093C37.3644 18.3173 37.3519 18.3297 36.7914 19.3885C36.4924 19.9241 36.1312 20.4971 35.9817 20.659C35.6579 20.9953 35.7202 21.0701 36.5672 21.3815C36.916 21.506 37.5014 21.7925 37.8875 22.0167C38.3522 22.2939 38.8832 22.4403 39.4243 22.4403H49.0778C49.9397 22.4403 50.6918 21.8555 50.9043 21.0202L51.0887 20.3192C51.201 19.8927 51.0195 19.4432 50.6427 19.2141C48.7618 18.0806 47.9771 17.956 43.1316 17.9685C41.0265 17.9809 39.0335 18.0308 38.6847 18.093Z" fill="#4C7380"/>
<path d="M25.992 20.1981C25.2072 20.5095 24.3602 21.3192 23.9741 22.1288C23.7773 22.5388 23.6751 22.9877 23.6751 23.4425V37.2506C23.6751 37.7436 23.7769 38.2313 23.9741 38.6831C24.3726 39.58 25.2321 40.4145 26.1165 40.7384C26.7767 40.9875 27.0258 41 35.2345 41C43.3808 41 43.6798 40.9875 44.0659 40.7509C44.751 40.3398 45.0998 39.2437 44.6638 38.8824C44.3648 38.6333 43.8541 38.9198 43.8541 39.3059C43.8541 40.0159 44.0285 40.0035 35.2843 40.0035C29.9281 40.0035 27.1006 39.9537 26.7393 39.8665C26.0542 39.6921 25.3691 39.1315 25.0079 38.4714C24.8279 38.1277 24.7339 37.7456 24.7339 37.3576V23.4668C24.7339 23.0789 24.8279 22.6967 25.0079 22.3531C25.967 20.5843 28.67 20.5718 29.5046 22.3406C29.8285 23.0008 29.8036 22.6769 29.7911 28.4566L29.7801 32.7201C29.7794 32.9764 29.5096 33.1426 29.2804 33.028C27.9102 32.3305 26.0542 33.165 25.6058 34.7096C25.2321 35.9428 25.7553 37.1759 26.9013 37.7987C27.3016 38.0194 27.7513 38.1351 28.2085 38.1351H40.6654C55.0149 38.1351 54.2177 38.1724 54.8031 37.4375C55.0523 37.1136 55.0647 36.9766 55.0647 32.7664C55.0647 28.6808 55.0523 28.4192 54.8405 28.3071C54.6661 28.2199 54.5291 28.2324 54.3423 28.3694C54.0682 28.5562 54.0682 28.6061 54.0682 32.6419C54.0682 36.441 54.0558 36.74 53.844 36.9268C53.6323 37.1261 52.5486 37.1386 40.7525 37.1386C26.6023 37.1386 27.2874 37.1759 26.7892 36.3663C25.7428 34.6473 27.9476 32.9159 29.38 34.3484C29.8036 34.7719 29.816 34.7968 29.7413 35.594C29.6665 36.6528 29.9779 37.0389 30.6007 36.5905C30.825 36.4161 30.8374 36.1794 30.8748 30.3624C30.8955 27.013 33.6165 24.3087 36.966 24.3087H40.055C45.6852 24.3087 49.3224 24.2589 49.5093 24.1841C49.858 24.0596 49.9452 23.5987 49.6836 23.3371C49.5715 23.225 47.3045 23.1876 40.2294 23.1876H31.6811C31.2312 23.1876 30.8337 22.8948 30.7004 22.4652C30.4014 21.5309 29.38 20.4597 28.4832 20.1608C27.6735 19.8867 26.7518 19.8992 25.992 20.1981Z" fill="#4C7380"/>
<path d="M22.1803 23.9599C20.8849 24.8443 20.013 25.8159 19.3777 27.049C18.6801 28.4317 18.6552 28.5812 18.5805 32.5049L18.5203 35.4366C18.5116 35.8594 18.7702 36.2419 19.1659 36.3912C19.988 36.7026 22.28 37.3877 22.4917 37.3877C22.6537 37.3877 22.8405 36.3414 22.7907 35.7061C22.7782 35.4944 22.7533 32.6793 22.7533 29.4406C22.7447 27.2026 22.742 25.2403 22.7412 24.2482C22.741 23.9648 22.4147 23.8005 22.1803 23.9599Z" fill="#4C7380"/>
<path d="M43.7545 26.3017C43.605 26.501 43.4805 26.6878 43.4805 26.7252C43.4805 26.7501 43.8915 26.7875 44.3898 26.8248C44.9877 26.8498 45.3863 26.9369 45.598 27.0864C45.9094 27.3106 45.897 27.3106 44.9628 27.2234L44.5123 27.1879C44.2077 27.1638 43.9151 27.3122 43.7545 27.5722C43.605 27.8213 43.4805 28.0331 43.4805 28.058C43.4805 28.0829 44.041 28.0829 44.7261 28.0705C45.4112 28.0455 45.9717 28.058 45.9717 28.1078C45.9717 28.6061 45.187 29.042 44.2901 29.042C43.7545 29.042 43.7296 29.0545 43.7296 29.4157C43.7296 29.6898 44.0161 30.1382 44.9379 31.2842L45.7702 32.3139C46.008 32.608 46.3659 32.7789 46.744 32.7789C47.0679 32.7789 47.3419 32.754 47.3419 32.7166C47.3419 32.6294 45.6728 30.487 45.2617 30.0385C45.1308 29.8906 45.2028 29.6566 45.3942 29.6077L45.5607 29.5652C46.1586 29.4033 46.9682 28.7057 46.9682 28.3445C46.9682 28.2324 47.1052 28.1701 47.3294 28.1701C47.5786 28.1701 47.7779 28.058 47.9523 27.8462C48.3259 27.3729 48.2886 27.2982 47.6035 27.2982C47.1052 27.2982 46.9807 27.2608 46.9308 27.049C46.881 26.8373 46.9308 26.7999 47.3419 26.7999C47.7031 26.7999 47.8526 26.7252 48.0145 26.4885C48.1266 26.3266 48.2138 26.1273 48.2138 26.0526C48.2138 25.9778 47.4789 25.928 46.1212 25.928H44.4919C44.2006 25.928 43.9268 26.0668 43.7545 26.3017Z" fill="#4C7380"/>
<path d="M32.8927 26.9743C32.8179 27.0739 32.7681 27.2857 32.793 27.4476C32.8145 27.6121 32.9534 27.7359 33.1193 27.7383L35.3839 27.7715C36.7914 27.7839 38.062 27.7715 38.2239 27.7341C38.5229 27.6594 38.61 27.2109 38.3485 26.9494C38.1118 26.7127 33.092 26.7376 32.8927 26.9743Z" fill="#4C7380"/>
<path d="M32.9051 30.3375C32.8179 30.4371 32.7681 30.6489 32.793 30.8108C32.8144 30.9747 32.954 31.0973 33.1193 31.0973H37.3022C41.4252 31.0973 41.7864 31.0848 41.911 30.8731C42.0106 30.7236 42.0106 30.599 41.911 30.4371C41.7864 30.2378 41.4127 30.2254 37.4143 30.188C33.7148 30.1631 33.0297 30.188 32.9051 30.3375Z" fill="#4C7380"/>
<path d="M32.9923 33.6633C32.6435 33.8626 32.7058 34.3857 33.0919 34.5228C33.2663 34.5975 34.35 34.6473 35.5084 34.6473C36.6668 34.6473 37.7505 34.5975 37.9249 34.5228C38.3235 34.3733 38.3733 33.8501 38.0121 33.6508C37.6883 33.4889 33.2788 33.4889 32.9923 33.6633Z" fill="#4C7380"/>
<path d="M40.3166 33.6882C40.1796 33.7878 40.1048 33.9747 40.1422 34.1615C40.1671 34.4106 40.2418 34.4605 40.6155 34.4605C40.9892 34.4605 41.0639 34.4106 41.0889 34.1615C41.1387 33.8875 40.8646 33.5263 40.6155 33.5263C40.5782 33.5263 40.4411 33.601 40.3166 33.6882Z" fill="#4C7380"/>
<path d="M43.0445 33.7754C42.7704 34.0743 42.8701 34.3608 43.2936 34.5227C43.7171 34.6847 48.1017 34.6847 48.5127 34.5227C48.9113 34.3733 48.9612 33.8501 48.5999 33.6508C48.4505 33.5761 47.3294 33.5262 45.8097 33.5262C43.4431 33.5262 43.2562 33.5387 43.0445 33.7754Z" fill="#4C7380"/>
</g>
<defs>
<filter id="filter0_d_2831_2355" x="0" y="0" width="62.6719" height="46" filterUnits="userSpaceOnUse" color-interpolation-filters="sRGB">
<feFlood flood-opacity="0" result="BackgroundImageFix"/>
<feColorMatrix in="SourceAlpha" type="matrix" values="0 0 0 0 0 0 0 0 0 0 0 0 0 0 0 0 0 0 127 0" result="hardAlpha"/>
<feOffset/>
<feGaussianBlur stdDeviation="2.5"/>
<feComposite in2="hardAlpha" operator="out"/>
<feColorMatrix type="matrix" values="0 0 0 0 0.267361 0 0 0 0 0.75434 0 0 0 0 0.916667 0 0 0 0.6 0"/>
<feBlend mode="normal" in2="BackgroundImageFix" result="effect1_dropShadow_2831_2355"/>
<feBlend mode="normal" in="SourceGraphic" in2="effect1_dropShadow_2831_2355" result="shape"/>
</filter>
</defs>
</svg>
