<svg width="32" height="29" viewBox="0 0 32 29" fill="none" xmlns="http://www.w3.org/2000/svg">
<path fill-rule="evenodd" clip-rule="evenodd" d="M27.2 0C28.473 0 29.6939 0.488797 30.5941 1.35886C31.4943 2.22893 32 3.40899 32 4.63944V20.1043C32 21.3347 31.4943 22.5148 30.5941 23.3848C29.6939 24.2549 28.473 24.7437 27.2 24.7437H8.5328L3.2 28.6099C1.8816 29.5656 0 28.6563 0 27.0634V4.63944C0 3.40899 0.505713 2.22893 1.40589 1.35886C2.30606 0.488797 3.52696 0 4.8 0H27.2ZM14.4 13.9183H9.6C9.17565 13.9183 8.76869 14.0813 8.46863 14.3713C8.16857 14.6613 8 15.0547 8 15.4648C8 15.875 8.16857 16.2683 8.46863 16.5583C8.76869 16.8484 9.17565 17.0113 9.6 17.0113H14.4C14.8243 17.0113 15.2313 16.8484 15.5314 16.5583C15.8314 16.2683 16 15.875 16 15.4648C16 15.0547 15.8314 14.6613 15.5314 14.3713C15.2313 14.0813 14.8243 13.9183 14.4 13.9183ZM22.4 7.73241H9.6C9.19219 7.73284 8.79995 7.88378 8.50341 8.15436C8.20687 8.42495 8.02842 8.79477 8.00453 9.18826C7.98063 9.58175 8.11308 9.96921 8.37482 10.2715C8.63657 10.5737 9.00785 10.768 9.4128 10.8145L9.6 10.8254H22.4C22.8078 10.8249 23.2001 10.674 23.4966 10.4034C23.7931 10.1328 23.9716 9.76301 23.9955 9.36952C24.0194 8.97603 23.8869 8.58857 23.6252 8.28631C23.3634 7.98404 22.9922 7.78979 22.5872 7.74323L22.4 7.73241Z" fill="#446874"/>
</svg>
