<svg width="136" height="103" viewBox="0 0 136 103" fill="none" xmlns="http://www.w3.org/2000/svg">
<path d="M90.7778 29.1992C89.1459 29.5332 86.8444 30.1176 85.6309 30.4933C83.7479 31.1195 83.4969 31.3282 83.7061 32.1214C83.8316 32.6641 84.1245 34.8766 84.3756 37.0474C85.087 43.518 84.1245 50.6983 81.6139 57.3776L80.5678 60.0911L81.3353 61.5522C83.8459 63.5143 84.4174 66.353 81.9486 68.2733C80.6933 69.2752 79.8165 68.4878 78.5193 67.5694C77.9754 67.1937 77.5151 66.9849 75.8812 67.8976C75.0025 69.3587 70.3159 74.1595 67.9727 75.9963C66.2989 77.3322 64.667 78.668 64.374 78.9602C62.7003 80.4213 70.5252 90.4403 76.5507 94.5314C87.3047 101.837 101.574 102.755 113.123 96.9109C115.801 95.5751 116.177 95.5751 121.073 96.9109C123.249 97.4954 125.132 97.9128 125.216 97.7876C125.299 97.7041 125.09 95.6586 124.672 93.2373L124.002 88.8958L125.676 86.5997C128.145 83.3018 130.153 79.4194 131.45 75.3701C132.915 70.8198 133.375 62.2619 132.371 57.6281C129.484 43.9772 119.316 33.2903 105.925 29.8671C101.615 28.74 94.753 28.4478 90.7778 29.1992ZM98.2077 62.5281C99.3794 63.5717 99.4811 63.0551 99.4811 64.7249C99.4811 66.3947 100.016 65.9413 98.8444 66.9849C97.8401 67.9034 98.8263 67.8976 97.571 67.8976C96.3157 67.8976 96.6652 67.9033 95.6609 66.9849C94.4893 65.9413 93.9161 66.3947 93.9161 64.7249C93.9161 63.0551 93.2159 63.2534 94.3875 62.2097C95.3918 61.2913 95.3606 61.5522 96.616 61.5522C97.8713 61.5522 97.2035 61.6097 98.2077 62.5281ZM115.803 61.9279C117.853 63.9735 117.382 66.0608 115.08 67.8976C113.867 68.8995 113.236 68.0286 111.897 66.9849C108.507 64.3132 111.578 62.2097 113.488 61.9279C114.786 61.9279 114.673 60.8008 115.803 61.9279Z" fill="#35819A"/>
<path d="M35.2806 0.452284C26.5481 2.1194 19.4827 5.77116 13.0525 11.9236C0.668213 23.8315 -3.38048 42.2094 2.97041 58.047C4.31998 61.4209 6.82065 65.8665 8.40837 67.7718L9.48009 69.0023L8.40837 75.1547C7.25727 81.8629 7.33666 82.8552 9.20223 82.8552C9.79763 82.8552 12.8937 82.1407 16.1088 81.2675L22.0231 79.6401L24.1268 80.7118C34.1295 85.7925 47.5458 86.2291 58.382 81.8629C60.2873 81.069 61.9147 80.5133 61.9544 80.553C61.9941 80.6324 62.6689 81.8629 63.5024 83.3315C68.345 92.1434 76.5218 98.6531 86.6435 101.789C89.8586 102.781 90.6525 102.861 97.0828 102.861C103.513 102.861 104.307 102.781 107.522 101.789C109.427 101.193 112.047 100.201 113.278 99.566L115.54 98.4546L127.289 101.63L128.083 100.836L128.917 100.042L127.091 88.9283L128.996 86.11C141.857 66.7398 134.831 40.7011 113.952 30.4206C107.681 27.3642 104.863 26.7291 97.0828 26.7291C90.454 26.7291 90.3747 26.7688 83.7459 28.7138C82.9917 28.9123 82.7933 28.7138 82.3963 27.4039C80.9674 23.0377 76.8393 16.6868 72.7509 12.5587C67.2733 7.08104 60.4857 3.15142 53.1028 1.20645C48.3 -0.0240331 39.7659 -0.381271 35.2806 0.452284ZM52.2296 4.85822C59.1362 6.7238 65.0108 10.1771 70.0915 15.3372C77.3553 22.6407 81.2056 31.9686 81.2056 42.1698C81.2056 47.2902 80.6895 50.3862 79.0621 55.1891C77.3156 60.2698 74.5768 64.7551 70.7266 68.8435C67.1939 72.6144 64.0978 74.9563 59.9697 76.9806C54.0951 79.9179 49.1335 81.0293 42.1078 80.9896C35.9554 80.9499 31.351 79.9179 25.7146 77.2982L22.1422 75.6311L17.0615 77.06C14.2433 77.8142 11.9411 78.4096 11.8617 78.3699C11.822 78.2905 12.1395 76.028 12.6158 73.2892L13.4494 68.2878L11.2266 65.1521C4.95507 56.1417 2.61318 46.1391 4.39937 35.9776C7.17788 20.021 18.6889 8.11306 34.8043 4.46129C38.337 3.66743 48.6572 3.90559 52.2296 4.85822ZM104.505 31.0954C117.564 33.8342 128.163 44.5117 130.901 57.8088C131.536 60.8255 131.655 62.572 131.497 66.1841C131.179 73.5273 129.274 79.0844 125.027 85.1574C123.082 87.9359 123.002 88.3329 123.876 93.1357C124.193 95.0013 124.392 96.589 124.273 96.6684C124.193 96.7875 122.129 96.3112 119.708 95.6364L115.342 94.4059L112.007 95.9539C100.695 101.273 87.0404 100.122 77.1172 93.0166C73.7432 90.6351 69.2976 85.8719 67.3923 82.617C65.0504 78.5683 65.0504 78.5286 67.3526 76.9409C69.5755 75.4326 74.1005 71.1457 75.9661 68.8038C77.1965 67.2161 77.1965 67.2161 78.0301 67.9703C78.5858 68.4863 79.4591 68.7641 80.4911 68.7641C81.8009 68.7641 82.2773 68.526 83.2696 67.4146C84.3016 66.2635 84.4604 65.8665 84.2619 64.4376C84.0635 62.8896 82.8727 61.3812 81.5628 60.9446C81.2055 60.8255 81.3643 60.0714 82.1582 58.0867C84.7382 51.577 85.7703 42.6461 84.6589 36.0967C84.0238 32.2862 83.865 32.5243 87.9534 31.4526C93.1135 30.0634 98.9881 29.9443 104.505 31.0954Z" fill="#1A657E"/>
<path d="M23.0551 36.8905C22.4597 37.4462 21.9437 38.3989 21.7849 39.2721C21.5865 40.5423 21.7452 40.8995 22.7773 41.9712C25.7543 44.9482 30.5571 41.7728 28.6518 38.0416C27.5007 35.8585 24.881 35.3028 23.0551 36.8905Z" fill="#1A657E"/>
<path d="M57.4294 37.0493C56.437 37.8829 56.1989 38.3592 56.1989 39.6294C56.1989 43.043 60.1682 44.5117 62.3116 41.9316C63.7009 40.3042 63.6612 38.6371 62.1925 37.1684C60.7239 35.6998 59.0568 35.6601 57.4294 37.0493Z" fill="#1A657E"/>
<path d="M37.7416 48.7191C34.844 49.8702 32.7006 51.7358 32.8593 53.006C32.9387 53.522 33.3356 54.2365 33.7723 54.5143C34.4867 54.9906 34.8043 54.9113 36.5111 53.6808C40.3613 50.9419 44.8863 50.9816 48.5381 53.7602C50.6418 55.3479 52.0708 55.3082 52.4677 53.6411C52.7853 52.3709 51.2769 50.6641 48.4587 49.1954C45.7199 47.8062 40.6392 47.568 37.7416 48.7191Z" fill="#1A657E"/>
<path d="M96.0111 60.9049C95.5348 60.9843 94.6615 61.6194 94.1058 62.2545C92.7165 63.9216 92.7959 65.7872 94.2646 67.4543C95.2172 68.526 95.6935 68.7642 97.0828 68.7642C98.472 68.7642 98.9484 68.526 99.901 67.4543C101.886 65.2315 101.211 62.3339 98.4324 61.1828C97.7179 60.8652 97.0431 60.6668 97.0034 60.6668C96.924 60.7064 96.4874 60.8255 96.0111 60.9049Z" fill="#1A657E"/>
<path d="M112.285 61.1827C109.904 62.2544 109.07 65.9062 110.896 67.4542C112.92 69.2404 114.945 69.2801 116.691 67.4939C119.668 64.5566 116.135 59.5156 112.285 61.1827Z" fill="#1A657E"/>
<path d="M37.9401 4.3025C25.1192 5.85053 13.8067 13.9082 8.17027 25.4986C5.1139 31.7304 4.43912 34.9456 4.43912 42.5667C4.47881 47.8062 4.63758 49.4733 5.35206 52.093C6.42377 56.0623 9.51984 62.4529 11.9411 65.5887C12.9334 66.8986 13.7273 68.129 13.7273 68.3672C13.7273 68.5657 13.3701 70.7885 12.9334 73.2891C12.4968 75.7898 12.1793 77.8935 12.2587 77.9332C12.2984 77.9729 14.5609 77.3775 17.2997 76.6234L22.2216 75.2738L25.6352 76.8615C37.0272 82.101 48.4985 82.1407 59.1759 76.9409C66.0825 73.567 71.3617 68.8038 75.2119 62.5323C79.1019 56.2211 80.8087 50.1877 80.8087 42.6064C80.8087 37.3272 80.1736 33.5563 78.4668 28.9122C72.5128 12.6381 55.286 2.15907 37.9401 4.3025ZM26.9848 36.0173C28.3344 36.5333 29.287 38.0813 29.287 39.8675C29.287 41.0186 29.0092 41.5743 28.0565 42.4476C26.3497 43.9559 24.4841 43.9559 22.7773 42.4079C21.7056 41.4553 21.4675 40.9789 21.4675 39.5897C21.4675 38.2004 21.7056 37.7241 22.7773 36.7715C24.1269 35.5807 25.278 35.3425 26.9848 36.0173ZM62.3911 36.9699C63.82 38.3989 64.0979 39.7485 63.304 41.2965C61.3987 45.0276 55.802 43.8368 55.802 39.7088C55.8417 36.0173 59.7713 34.3502 62.3911 36.9699ZM47.5061 48.4412C51.7533 50.1877 53.6586 52.3312 52.6663 54.1967C51.8724 55.6654 50.761 55.6654 48.5382 54.1174C45.2436 51.8549 42.6636 51.3785 39.5278 52.4899C38.6149 52.8075 37.3447 53.522 36.6699 54.0777C35.3204 55.2288 33.9311 55.3478 33.0182 54.4349C31.9068 53.3632 32.264 52.0533 34.0502 50.545C37.5829 47.4886 43.1002 46.6551 47.5061 48.4412Z" fill="white"/>
</svg>
