<svg width="14" height="26" viewBox="0 0 14 26" fill="none" xmlns="http://www.w3.org/2000/svg">
<path d="M6.15602 0.0915422C5.06931 0.467319 4.40916 1.54895 4.59705 2.64582C4.71892 3.36182 5.21658 4.04229 5.82595 4.32666L6.07477 4.44346L6.07985 5.40829V6.3782L5.71423 6.57625C3.19042 7.92702 1.342 9.57739 0.534587 11.1973C0.280683 11.7 0.143575 12.1266 0.0521693 12.7106C-0.0798608 13.4926 0.0369351 14.2188 0.422869 14.9957L0.559977 15.2852H6.89234H13.2247L13.4075 14.8941C13.9712 13.6805 13.9001 12.4567 13.1993 11.111C12.7524 10.2477 11.8536 9.21177 10.8532 8.40944C10.2794 7.94733 8.92358 7.05359 8.2228 6.67781L7.65913 6.37313V5.40829V4.44346L7.94858 4.30635C8.48686 4.05244 9.02514 3.39737 9.02514 2.9962C9.02514 2.73214 8.83217 2.38683 8.61889 2.27512C8.25835 2.08723 7.76577 2.21926 7.55249 2.55949C7.3646 2.86417 7.17164 2.9962 6.9025 2.9962C6.15094 2.9962 5.86657 2.10246 6.48102 1.69114C6.57242 1.6302 6.76031 1.55911 6.89742 1.54387C7.02945 1.52356 7.20718 1.4677 7.29351 1.41692C7.77593 1.12239 7.77085 0.396227 7.28843 0.101698C7.07515 -0.0303316 6.51657 -0.0354099 6.15602 0.0915422Z" fill="#17627C"/>
<path d="M1.50977 17.5703V18.332H6.86714H12.2245V17.5703V16.8086H6.86714H1.50977V17.5703Z" fill="#17627C"/>
<path d="M1.50977 22.6383C1.50977 25.2434 1.51484 25.4262 1.60625 25.5938C1.65703 25.6902 1.77383 25.8223 1.86523 25.8832C2.02773 25.9949 2.07851 26 3.06366 26H4.09959V22.9278V19.8555H2.80468H1.50977V22.6383Z" fill="#17627C"/>
<path d="M5.57227 22.9278V26H6.86718H8.16209V22.9278V19.8555H6.86718H5.57227V22.9278Z" fill="#17627C"/>
<path d="M9.63477 22.9278V26H10.6656C11.8133 26 11.9148 25.9746 12.123 25.6344C12.2195 25.4719 12.2246 25.3703 12.2246 22.6586V19.8555H10.9297H9.63477V22.9278Z" fill="#17627C"/>
</svg>
