<svg width="186" height="92" viewBox="0 0 186 92" fill="none" xmlns="http://www.w3.org/2000/svg">
<path d="M182.168 56.5783C181.752 51.043 176.212 47.0392 178.402 41.2632C183.985 44.8075 187.16 54.9593 184.73 60.604C182.54 65.7236 173.781 67.5833 169.752 65.3735C168.022 64.4327 166.38 63.3388 164.322 62.1136C162.992 63.3756 161.327 64.2284 159.525 64.5698C157.723 64.9112 155.861 64.7269 154.162 64.0389C153.479 63.8638 152.758 63.9098 152.103 64.1702C145.337 66.6644 145.271 66.6425 140.782 61.1291C139.666 61.7854 138.439 62.398 137.279 63.1419C135.391 64.5319 133.235 65.5142 130.946 66.0264C128.658 66.5387 126.288 66.5697 123.987 66.1174C122.411 65.7673 120.681 66.1174 119.17 65.5267C118.248 65.1724 117.243 65.0955 116.278 65.3054C115.313 65.5154 114.431 66.003 113.74 66.7081C112.601 67.7361 111.239 68.4849 109.76 68.8951C108.281 69.3052 106.728 69.3655 105.222 69.071C104.324 68.9616 103.404 69.071 102.528 68.8522C100.962 68.4436 99.3063 68.5483 97.8044 69.151C96.3024 69.7536 95.0338 70.8224 94.1856 72.1997C91.6455 76.1597 87.6165 77.4725 81.9014 77.91C84.31 75.7222 85.7115 74.2344 87.3537 73.0311C88.996 71.8278 91.3171 70.5807 93.2659 69.3117C94.4332 68.6396 95.3885 67.654 96.0232 66.4667C96.658 65.2794 96.9469 63.938 96.857 62.5949C96.8226 60.1151 97.1622 57.6443 97.8643 55.2656C98.1408 54.0758 98.7167 52.9762 99.5375 52.071C100.358 51.1658 101.397 50.4848 102.554 50.0927C103.712 49.7005 104.951 49.6101 106.153 49.83C107.356 50.0499 108.482 50.5728 109.426 51.3493C110.454 52.0697 111.407 52.8905 112.273 53.7997C116.652 58.1754 121.907 59.16 128.06 58.7662C133.425 58.4161 137.892 57.0377 141.396 52.7058C143.585 54.8936 143.739 58.1535 147.111 58.438C150.483 58.7224 151.906 56.5783 153.154 53.6465C154.183 54.4342 154.906 55.1124 155.738 55.6156C159.548 57.8035 160.38 57.5847 162.307 53.2746C162.556 52.8836 162.842 52.5172 163.161 52.1807C166.358 54.3685 167.847 59.1162 172.905 58.438C176.146 58.0442 179.496 58.788 182.168 56.5783ZM109.732 60.954C107.28 57.6941 104.609 56.5783 102.178 58.0879C101.857 58.331 101.588 58.6367 101.389 58.9864C101.189 59.3361 101.063 59.7227 101.017 60.1226C101.017 60.5602 101.674 61.326 102.2 61.5448C103.405 62.0852 104.728 62.3124 106.045 62.2053C107.362 62.0982 108.63 61.6603 109.732 60.9321V60.954Z" fill="black"/>
<path d="M36.8373 28.1577C37.6759 28.6052 38.3713 29.2797 38.8438 30.1039C39.3163 30.9282 39.5467 31.8688 39.5087 32.8179C39.417 38.3516 40.08 43.872 41.4795 49.2269C42.9028 56.8845 48.7274 59.9694 56.4132 56.8845C57.0045 53.7996 54.7053 51.6336 53.4133 49.2269C51.9681 46.4921 50.5448 43.8666 51.2236 40.6505C51.397 40.061 51.6091 39.4836 51.8587 38.922C54.1937 40.933 55.9478 43.5316 56.9388 46.4483C59.1346 50.9788 59.8251 56.0915 58.9095 61.0414C58.2307 64.2138 57.2234 65.1984 54.0703 65.636C52.2881 65.9317 50.4641 65.8569 48.7121 65.4165C46.9602 64.9761 45.318 64.1794 43.8881 63.0761C42.7495 62.2448 41.6984 61.3258 40.1875 60.1006C37.7789 64.192 34.4505 66.6643 29.7208 66.533C24.991 66.4017 22.0787 63.1418 20.0423 58.8536C18.4034 59.8097 16.6811 60.6152 14.8965 61.2602C12.6452 61.8669 10.3298 62.2048 7.99893 62.2666C1.99914 62.2666 -0.869367 57.8909 1.16706 52.093C2.42746 48.6914 4.88818 45.8671 8.08651 44.1511C9.94787 43.0626 11.879 42.0978 13.8673 41.2631C15.6629 40.4973 17.5679 39.9722 19.5824 39.294L20.1518 32.4459C21.1892 33.2245 22 34.2655 22.5004 35.4616C23.0008 36.6577 23.1727 37.9656 22.9984 39.2502C22.9984 43.626 22.9984 47.8267 22.9984 52.093C22.9476 53.361 23.2879 54.6139 23.9733 55.6822C24.6587 56.7506 25.656 57.5827 26.8304 58.0659C28.2435 58.8832 29.8535 59.2988 31.486 59.268C33.1185 59.2371 34.7116 58.7609 36.0928 57.8909C37.4391 56.9756 38.4677 55.6651 39.0364 54.1405C39.6052 52.616 39.6861 50.9525 39.2679 49.3801C38.6766 45.3325 37.4942 41.3725 36.6621 37.3468C35.7776 34.3381 35.8387 31.1306 36.8373 28.1577ZM20.1956 43.7572C15.0089 44.1425 9.99146 45.771 5.56836 48.5049C4.87323 48.8888 4.31828 49.4836 3.98371 50.2033C3.64913 50.923 3.55227 51.7304 3.70711 52.5087C4.12315 54.4122 5.61215 54.8935 7.34201 55.0248C11.1385 55.3151 14.9386 54.5102 18.2905 52.7056C18.6649 52.4943 18.9921 52.2086 19.252 51.8662C19.5118 51.5238 19.6988 51.1319 19.8014 50.7147C20.0642 48.7456 20.0423 46.6452 20.1956 43.7572Z" fill="black"/>
<path d="M73.5808 15.0308C74.9384 19.0127 76.931 22.382 74.807 26.4952C74.1501 27.7642 74.807 29.6457 74.807 31.2429C74.807 41.5915 74.807 51.9402 74.807 62.2888C74.807 64.4767 74.588 66.2488 71.3692 65.9425C71.2159 64.6955 71.0188 63.514 70.975 62.3325C70.3181 48.8115 69.705 35.2686 69.0262 21.7475C68.6977 18.4001 69.5298 16.978 73.5808 15.0308Z" fill="black"/>
<path d="M146.87 37.5437C149.541 34.7651 153.855 34.8964 155.059 30.9801C152.366 27.7202 149.191 30.9801 146.016 30.0393C145.867 28.8332 146.15 27.6133 146.815 26.596C147.481 25.5787 148.485 24.8298 149.651 24.4821C150.89 23.9317 152.258 23.7344 153.603 23.912C154.948 24.0896 156.217 24.6352 157.271 25.4886C158.033 26.4844 158.446 27.7029 158.446 28.9563C158.446 30.2097 158.033 31.4283 157.271 32.4241C155.3 35.5747 152.278 37.1937 146.87 37.5437Z" fill="black"/>
<path d="M29.9836 15.1399C31.1223 16.562 30.5311 19.6469 33.1806 19.3844C35.8301 19.1218 35.5455 16.3432 35.8958 14.3304C36.0272 13.6521 36.2243 12.9958 36.487 12.0112C39.2242 13.5865 36.487 19.4938 42.1803 18.2248L42.8591 12.3175C43.9322 13.3269 44.6345 14.6676 44.8529 16.1239C45.0713 17.5802 44.7933 19.0677 44.0634 20.347C43.6912 21.2003 42.2898 22.3817 41.7204 22.2067C38.8081 21.3534 36.1148 22.7537 33.3339 22.6005C30.2245 22.4255 29.1515 19.6907 29.9836 15.1399Z" fill="black"/>
<path d="M170.365 92C170.694 89.8121 170.519 88.2369 171.022 87.9743C175.774 85.7865 179.934 81.9577 185.912 81.542C186.176 82.4338 186.097 83.3917 185.693 84.229C185.288 85.0662 184.585 85.7229 183.722 86.0709C179.628 87.9306 175.511 89.7028 170.365 92Z" fill="black"/>
<path d="M0.356934 82.242C0.729183 81.2137 0.794874 79.5946 1.51748 79.2227C5.45894 77.0348 9.55368 75.3721 13.6265 73.5342C14.1909 73.4287 14.7701 73.4287 15.3345 73.5342C15.9476 75.2408 15.9038 76.816 14.174 77.6256C10.0135 79.5946 5.7436 81.3449 1.51748 83.1828L0.356934 82.242Z" fill="black"/>
<path d="M43.2314 0C43.8664 2.64732 43.1 3.85065 41.1512 4.68205C37.2316 6.32295 33.3777 8.13888 29.5895 9.84542C27.794 8.40143 27.9692 6.56362 29.1954 6.0604C33.6843 4.02568 37.6477 0.743876 43.2314 0Z" fill="black"/>
<path d="M97.4922 89.3744C97.8644 87.4272 97.7112 85.9395 98.2805 85.5675C102.525 82.47 107.339 80.2396 112.448 79.0039C112.973 81.5418 112.448 82.9421 110.455 83.7953C106.492 85.5238 102.529 87.2084 97.4922 89.3744Z" fill="black"/>
<path d="M64.165 8.07333C64.9533 7.22006 65.4789 6.12612 66.1577 6.03861C68.4204 5.67286 70.4698 4.48939 71.9166 2.71304C72.4332 2.08437 73.1516 1.65372 73.9499 1.49419C74.7482 1.33467 75.5771 1.45611 76.296 1.83789C78.004 2.66929 78.201 4.02577 78.2229 5.8417C78.278 6.64855 78.016 7.44505 77.4926 8.06195C76.9692 8.67885 76.2257 9.06753 75.4201 9.14539C73.8813 9.37522 72.3168 9.37522 70.7779 9.14539C68.7415 8.97036 66.7489 8.53278 64.165 8.07333ZM76.931 5.88546C74.0844 3.39128 74.0844 3.39128 71.2597 6.49806C72.1922 6.84287 73.1938 6.95924 74.1806 6.83742C75.1674 6.7156 76.1105 6.35915 76.931 5.79794V5.88546Z" fill="black"/>
<path d="M177.46 70.4932C182.956 71.6746 183.744 72.4185 183.285 75.5471C183.066 77.0568 182.628 78.3476 180.745 78.4351C179.856 78.5669 178.952 78.3416 178.23 77.8085C177.507 77.2754 177.026 76.478 176.891 75.5909C176.953 73.8798 177.143 72.1758 177.46 70.4932Z" fill="black"/>
</svg>
