<svg width="176" height="97" viewBox="0 0 176 97" fill="none" xmlns="http://www.w3.org/2000/svg">
<path d="M90.7587 96.9596C89.0437 94.4076 89.3757 91.5088 88.9469 88.8596C88.0064 83.3116 87.4532 77.5556 86.7755 71.9105C86.5763 70.4482 86.4608 68.9755 86.4298 67.4999C86.3409 65.2323 87.004 62.9991 88.3153 61.1495C89.6265 59.3 91.512 57.9384 93.6769 57.2777C95.06 56.8062 96.443 56.4594 97.8261 55.8908C99.2091 55.3221 100.399 54.6147 101.975 53.838C103.358 54.6841 104.741 55.5024 106.124 56.5288C108.719 58.3994 111.85 59.373 115.045 59.3028C118.212 59.3028 121.393 59.2057 124.574 59.3028C126.096 59.4089 127.621 59.1453 129.02 58.5345C130.419 57.9236 131.65 56.9834 132.61 55.7937C133.052 55.2666 133.993 54.6008 134.449 54.7257C135.68 55.0308 135.237 56.1127 135.072 57.042C135.004 57.5804 134.967 58.1222 134.961 58.6647C136.593 59.7743 138.322 59.3305 139.981 59.275C141.641 59.2195 142.111 57.888 142.747 56.7507C143.384 55.6134 143.508 53.8519 145.818 53.6299C145.998 54.6702 146.122 55.6272 146.33 56.5842C146.744 58.6093 148.155 59.1363 149.732 57.7771C150.378 57.1527 150.949 56.4544 151.433 55.6966C151.972 54.9615 152.443 54.157 152.954 53.3942C152.954 53.2971 153.189 53.2693 153.577 53.089C154.96 55.4469 156.094 58.4012 159.109 59.0808C161.957 59.5881 164.875 59.5551 167.711 58.9837C167.615 56.8331 167.073 54.7262 166.121 52.7968C165.168 50.8675 163.826 49.1579 162.179 47.7768C159.51 45.2802 159.275 42.4646 161.405 39.0249C161.529 39.0249 161.709 39.0249 161.792 39.0249C167.2 44.2677 170.837 50.3844 170.574 58.2209C170.436 62.5206 168.306 64.6566 164.033 65.3501C161.264 65.8344 158.415 65.2974 156.011 63.8382C154.78 63.1031 153.577 62.3125 152.138 61.3971C149.87 64.3237 146.827 64.504 143.563 64.0879C142.633 64.093 141.706 64.1952 140.797 64.393C139.221 64.5317 137.506 65.1281 136.095 64.6982C132.084 63.4776 128.225 64.4346 124.339 65.0033C120.557 65.69 116.683 65.69 112.901 65.0033C111.756 64.8971 110.603 64.8971 109.458 65.0033C108.863 67.0561 108.351 69.0672 107.687 71.0367C107.023 73.0063 106.304 73.2837 104.409 72.6179C103.208 72.2367 102.147 71.5056 101.361 70.5175C100.575 69.5295 100.101 68.3294 99.9975 67.0699C99.2229 62.1738 97.7846 61.3832 93.0822 63.0199C90.3161 64.0185 89.2788 65.1559 89.431 68.3737C89.5969 72.2018 90.1502 76.0299 90.5513 79.8441C91.0077 84.1993 91.5332 88.5406 91.9343 92.8958C92.2247 94.3105 92.3492 95.8223 90.7587 96.9596Z" fill="black"/>
<path d="M20.0439 65.1974V59.6495L24.0548 59.4137C25.2433 59.424 26.4311 59.3498 27.6092 59.1918C28.11 59.1578 28.5976 59.0157 29.0385 58.7753C29.4795 58.5348 29.8635 58.2017 30.1642 57.7987C30.465 57.3957 30.6754 56.9323 30.781 56.4402C30.8867 55.9481 30.8851 55.439 30.7764 54.9476C30.6381 52.978 30.32 51.0085 29.9881 49.0528C29.0752 43.699 28.0794 38.3591 27.222 32.9914C26.9981 31.4208 26.9056 29.8341 26.9453 28.2479C26.9453 27.0967 27.5262 26.2368 29.0752 25.9871C29.4397 26.7738 29.7359 27.5905 29.9604 28.4282C31.2328 35.7099 32.4914 43.0055 33.8744 50.3011C34.1787 51.9933 34.5383 53.6715 34.884 55.3637C35.0409 56.4317 35.5702 57.4094 36.378 58.123C37.1858 58.8365 38.2197 59.2398 39.296 59.2611C42.6032 59.4553 45.919 59.4553 49.2262 59.2611C51.7434 59.1224 52.6285 57.5828 52.1445 54.6979C51.3008 49.7325 50.4018 44.7809 49.5443 39.8293C49.0049 36.6947 48.4517 33.5601 48.0092 30.4116C47.738 29.2862 47.8304 28.1035 48.2728 27.0341C48.7153 25.9646 49.485 25.0638 50.471 24.4614C50.8306 25.3352 51.038 26.0565 51.3838 26.6945C51.8175 27.8811 52.5016 28.9598 53.3892 29.8568C53.6826 30.0142 53.9412 30.2297 54.1493 30.4901C54.3573 30.7505 54.5106 31.0506 54.5998 31.3721C54.689 31.6936 54.7123 32.0299 54.6682 32.3606C54.6242 32.6914 54.5137 33.0098 54.3435 33.2966C52.1583 37.4576 53.7211 41.6185 54.1222 45.7795C54.4403 49.2054 55.2425 52.5758 55.5883 56.0017C56.2521 62.3957 53.5552 65.35 47.0548 65.5858C45.326 65.5858 43.6111 65.5858 41.8961 65.5858C39.224 65.8068 36.5609 65.0641 34.3861 63.4914C32.7127 62.2154 31.4956 62.4789 29.8083 63.5747C26.406 65.8077 25.2304 65.8632 20.0439 65.1974Z" fill="black"/>
<path d="M0.473644 57.583C0.280017 54.6565 1.85669 52.035 3.77913 49.691C4.83024 48.4288 5.8537 47.4025 4.77492 45.53C4.42916 44.9197 4.96855 43.4634 5.56326 42.756C5.88136 42.4093 7.31973 42.756 8.02508 43.1583C11.6102 45.2231 14.3861 48.4522 15.8946 52.3124C17.8585 57.2501 14.235 63.977 9.14535 65.0728C4.05574 66.1685 0.390661 63.3252 0.473644 57.583ZM7.38888 48.5675C5.09063 50.1202 3.45699 52.4811 2.81099 55.1835C1.98117 58.6649 3.77913 60.8702 7.33356 60.9811C8.56857 61.0307 9.7994 60.808 10.9393 60.3288C12.0791 59.8495 13.1003 59.1252 13.9307 58.2072C13.0698 54.2798 10.7443 50.8312 7.43037 48.5675H7.38888Z" fill="black"/>
<path d="M68.0217 64.7534C67.5791 62.4787 67.1089 60.2041 66.7216 57.9155C65.4631 50.3703 64.163 42.8666 63.0704 35.2798C63.0127 33.7182 63.2715 32.1611 63.8311 30.7027C63.9417 30.2866 64.7854 29.8983 65.3386 29.8428C65.6014 29.8428 66.1408 30.5085 66.2376 30.9385C66.5972 32.4919 66.8599 34.0592 67.0674 35.6265C68.0079 43.0886 68.9622 50.5506 69.8335 58.0126C70.227 60.3086 69.9284 62.6702 68.976 64.795L68.0217 64.7534Z" fill="black"/>
<path d="M60.2905 23.9485C60.4565 21.4519 61.4385 19.7875 63.9279 19.4546C64.9206 19.4189 65.8832 19.1033 66.7051 18.544C67.5271 17.9846 68.1752 17.2042 68.575 16.2923C68.8302 15.8482 69.1628 15.4536 69.5569 15.1272C70.5942 14.1009 71.59 12.9219 73.2912 13.7402C74.0234 14.1928 74.5893 14.8716 74.9036 15.6746C75.2179 16.4776 75.2636 17.3612 75.0338 18.1925C74.3146 21.119 69.5016 24.323 66.4589 24.0317C64.5641 23.7959 62.6417 23.9485 60.2905 23.9485ZM69.6399 18.7195C71.6453 19.4269 72.0326 18.6225 72.1847 16.4865L69.6399 18.7195Z" fill="black"/>
<path d="M141.295 35.9319C138.529 33.3521 136.787 36.14 134.38 37.1247C134.327 36.3335 134.392 35.5387 134.574 34.7668C136.247 31.2716 141.669 29.2882 145.071 30.8416C145.576 31.0049 146.01 31.3388 146.297 31.7864C146.585 32.234 146.708 32.7677 146.648 33.2966C146.371 36.8612 140.051 41.4383 135.929 40.8003C137.036 38.4701 139.774 38.054 141.295 35.9319Z" fill="black"/>
<path d="M33.8741 11.3267C33.9502 12.7635 33.9502 14.2034 33.8741 15.6402C33.5837 18.5252 32.8921 19.0383 29.8909 19.4128C28.8912 19.5372 27.9394 19.9143 27.1248 20.5086C26.0046 21.3546 24.9396 22.0204 23.5427 21.3824C21.9107 20.6334 21.9107 19.1354 21.9661 17.6514C22.0431 16.9831 22.1632 16.3206 22.3257 15.668C25.0917 19.0383 26.0184 18.8442 27.5536 14.7525C27.6919 14.378 27.7887 14.0036 28.01 13.2823C28.5217 13.9481 28.826 14.4474 29.2132 14.8774C30.5963 16.4308 31.4814 16.2644 32.2974 14.3919C32.7123 13.4349 33.0028 12.4224 33.3485 11.4376L33.8741 11.3267Z" fill="black"/>
<path d="M175.138 81.1338C175.165 82.3387 174.834 83.5243 174.189 84.5413C173.545 85.5582 172.614 86.3609 171.515 86.8482C167.905 88.7345 164.392 90.8011 160.741 92.8539C159.717 90.9676 160.644 89.9135 161.889 89.0813C163.548 87.9855 165.263 87.0008 166.965 85.9883L175.138 81.1338Z" fill="black"/>
<path d="M99.3198 91.4119C99.025 90.7258 98.9902 89.9553 99.222 89.2453C99.4537 88.5353 99.9361 87.9345 100.578 87.5561C104.728 84.9346 109.098 82.4519 113.8 79.6641C113.928 80.7036 113.731 81.7573 113.235 82.6793C112.74 83.6013 111.971 84.3458 111.034 84.8098C107.176 86.8903 103.483 89.0679 99.3198 91.4119Z" fill="black"/>
<path d="M35.2574 0.216797C35.7553 2.17246 35.2574 3.53171 33.985 4.37778C29.739 6.94372 25.4101 9.35709 20.8184 12.0062C20.5871 11.219 20.6326 10.376 20.9473 9.61845C21.2621 8.8609 21.8269 8.23486 22.5472 7.84526C26.5857 5.22385 30.7901 2.81048 35.2574 0.216797Z" fill="black"/>
<path d="M170.27 73.0754L166.647 75.6552L163.134 72.368L166.716 68.6509L170.27 73.0754Z" fill="black"/>
<path d="M13.8752 68.3735C12.8656 70.8424 10.791 71.8965 4.19385 73.2974C4.67791 72.4513 4.85771 71.6052 5.30029 71.4388C8.09404 70.3569 10.9016 69.4277 13.8752 68.3735Z" fill="black"/>
</svg>
