<svg width="168" height="102" viewBox="0 0 168 102" fill="none" xmlns="http://www.w3.org/2000/svg">
<path d="M142.69 57.0117C149.338 62.9451 156.183 60.1877 163.594 57.7749C163.225 55.436 163.077 53.3187 162.536 51.2753C162.292 50.3088 162.281 49.2984 162.504 48.3269C162.726 47.3554 163.176 46.4505 163.816 45.6865C166.845 51.8415 166.278 59.843 162.142 63.7822C155.617 70.0849 148.501 68.2138 141.804 64.7178C140.056 65.9755 138.084 66.8865 135.993 67.4014C134.27 67.4014 132.497 65.8257 130.699 64.9394C124.421 70.1342 122.451 67.6722 119.496 60.9263C114.892 64.964 110.731 70.6266 103.714 66.2442C103.221 66.5889 102.852 66.712 102.68 67.0074C101.916 68.1646 101.596 70.2573 99.7989 69.6172C98.4693 69.1494 97.5337 67.5737 96.4996 66.4166C96.3026 66.195 96.3518 65.7272 96.3272 65.3579C96.1795 63.3391 96.3272 61.1479 93.3479 61.0986C91.8793 61.0929 90.4621 61.6388 89.3769 62.6282C88.2916 63.6176 87.6175 64.9784 87.4879 66.4412C87.4549 70.9959 87.6686 75.5491 88.1281 80.0807C88.9209 84.0006 88.7092 88.0575 87.5125 91.8736C86.7985 83.749 86.0106 75.5998 85.4443 67.4506C85.3725 65.271 85.6467 63.0939 86.2568 61.0002C87.4879 56.2731 89.9501 54.5497 94.9976 54.2297C96.4503 54.2297 97.903 54.2297 99.725 54.2297C100.703 56.0378 102.16 57.5414 103.936 58.5751C105.713 59.6089 107.74 60.1328 109.795 60.0892C114.154 60.2369 117.059 57.3072 120.038 54.4759C122.673 62.0588 126.341 62.6989 131.463 57.3318C133.506 58.5135 135.402 60.4585 137.323 60.4831C139.243 60.5078 140.77 58.3412 142.69 57.0117Z" fill="black"/>
<path d="M52.2783 40.8366C53.4109 45.5636 54.5682 50.2907 55.6515 55.0423C55.8417 55.9323 55.9325 56.8406 55.9224 57.7505C56.05 59.7591 55.5591 61.7585 54.5158 63.4796C53.4725 65.2007 51.9268 66.5609 50.087 67.377C47.9034 68.074 45.5529 68.0453 43.387 67.2953C41.2211 66.5453 39.3562 65.1142 38.0715 63.2162C37.4067 62.2068 36.865 61.0989 36.0032 59.5478C33.1717 64.4718 30.0939 67.9186 24.3816 67.7463C18.0292 67.5739 16.4534 63.1423 15.5423 57.5782C10.7903 60.3356 6.35835 62.2806 1.31085 59.4739C1.18075 57.7544 1.51141 56.0314 2.26877 54.4821C3.02613 52.9329 4.18282 51.6136 5.6197 50.66C7.13014 49.3346 8.89917 48.337 10.8149 47.7302C12.3552 47.3852 13.79 46.675 14.9983 45.6595C16.2067 44.644 17.1533 43.353 17.7583 41.8953V48.2718C17.7583 49.1828 17.7583 50.0937 17.7583 51.0047C17.9799 57.2828 20.7622 60.8527 25.1449 60.5326C26.5698 60.5252 27.9766 60.2132 29.271 59.6177C30.5654 59.0222 31.7176 58.1569 32.6503 57.0798C33.5829 56.0027 34.2745 54.7386 34.6787 53.3724C35.0828 52.0061 35.1903 50.5693 34.9937 49.1582C34.5259 44.6281 34.0581 40.098 33.7626 35.5679C33.5703 33.5588 34.0001 31.5391 34.9937 29.7822C35.8062 36.1834 36.5203 42.6339 37.4559 49.0104C37.8692 51.4972 38.5973 53.9212 39.6226 56.2241C40.3216 57.525 41.369 58.6057 42.6475 59.3449C43.9261 60.0841 45.3852 60.4528 46.8615 60.4095C47.684 60.5656 48.5328 60.5094 49.3275 60.2463C50.1223 59.9831 50.8368 59.5217 51.4037 58.9057C51.9705 58.2896 52.3709 57.5392 52.567 56.7254C52.7631 55.9115 52.7485 55.0611 52.5245 54.2545C52.2246 52.4603 51.7632 50.6969 51.1457 48.9858C50.5652 47.655 50.3638 46.1897 50.5637 44.7516C50.7635 43.3136 51.3569 41.9587 52.2783 40.8366ZM14.459 48.8873C12.6246 48.9097 10.8217 49.3679 9.19922 50.224C7.57672 51.0801 6.18102 52.3097 5.12726 53.8113C6.25879 54.5533 7.56925 54.9768 8.921 55.0374C10.2727 55.0981 11.6159 54.7936 12.8093 54.156C14.6313 53.0481 15.2961 51.5463 14.459 48.8873Z" fill="black"/>
<path d="M70.3758 16.118C71.1144 18.4323 71.8284 20.5003 72.3948 22.593C72.5671 23.2085 72.6902 24.218 72.3948 24.5626C70.3758 26.5815 71.2375 29.0435 71.2129 31.3331C71.2129 42.0921 71.2129 52.8756 71.0652 63.6346C71.0652 65.3087 71.6315 67.5738 68.1598 67.3276C67.8151 63.0683 67.3719 58.7844 67.1749 54.4759C66.6578 44.0863 66.2393 33.6967 65.7961 23.307C65.6719 22.0424 65.7216 20.7667 65.9438 19.5155C66.3624 17.6198 67.2241 15.6748 70.3758 16.118Z" fill="black"/>
<path d="M60.4038 9.10169C60.9209 8.41233 61.3394 7.35367 62.0289 7.10747C64.8271 5.9698 67.4153 4.37207 69.6863 2.38043C70.0525 2.10165 70.4749 1.90578 70.9244 1.80639C71.3738 1.707 71.8394 1.70646 72.289 1.80481C72.7387 1.90316 73.1616 2.09805 73.5284 2.37598C73.8953 2.65392 74.1973 3.00826 74.4137 3.41447C74.7496 3.84471 74.9918 4.34044 75.1247 4.86981C75.2577 5.39918 75.2785 5.95051 75.1857 6.48838C75.093 7.02626 74.8888 7.53879 74.5862 7.99309C74.2836 8.44738 73.8894 8.83338 73.4288 9.12631C72.5194 9.74094 71.4701 10.1172 70.3773 10.2204C69.2845 10.3237 68.1833 10.1506 67.1749 9.71719C66.1632 9.11727 65.0303 8.7507 63.8589 8.64422C62.6875 8.53774 61.5071 8.69403 60.4038 9.10169Z" fill="black"/>
<path d="M121.639 41.9691C124.495 39.0885 128.754 39.7286 131.167 35.9864L124.125 34.1891C125.357 32.7612 126.218 30.9886 127.573 30.4469C128.605 30.0425 129.74 29.9822 130.809 30.275C131.878 30.5678 132.824 31.198 133.506 32.0718C135.23 34.0414 134.097 35.8879 133.088 37.5867C130.601 41.846 126.341 41.6736 121.639 41.9691Z" fill="black"/>
<path d="M107.973 90.1997C105.339 96.6748 98.6907 97.5857 93.397 101.451C93.8648 96.5763 93.0769 97.5365 107.973 90.1997Z" fill="black"/>
<path d="M29.6019 24.612C26.5734 22.15 27.6321 19.2449 28.0261 16.5613C28.0481 17.5173 28.2485 18.4609 28.617 19.3434C29.1341 20.082 30.242 20.9929 30.9561 20.8944C31.6701 20.7959 32.655 19.6634 32.9012 18.8017C33.1474 17.94 32.9012 16.3397 33.369 15.0102C33.6211 16.5671 34.0592 18.088 34.674 19.5403C35.0433 20.2297 36.3975 20.599 37.3332 20.6482C37.6533 20.6482 38.3181 19.2449 38.3427 18.4817C38.1709 17.1165 38.1709 15.7353 38.3427 14.3701C40.017 16.8321 39.3276 19.688 38.909 22.2978C38.8586 22.6646 38.7172 23.0129 38.4975 23.311C38.2778 23.6091 37.987 23.8474 37.6515 24.0041C37.316 24.1608 36.9466 24.2309 36.577 24.2081C36.2074 24.1853 35.8494 24.0702 35.5358 23.8734C33.3198 22.0269 31.5716 23.7503 29.6019 24.612Z" fill="black"/>
<path d="M167.829 85.3003C164.752 92.9571 157.981 93.7942 152.539 97.4626C153.524 92.6863 153.524 92.6863 167.829 85.3003Z" fill="black"/>
<path d="M25.9331 12.2528C28.0752 5.11301 34.9694 4.49751 39.9184 0.533691C40.1038 1.0168 40.1917 1.53188 40.1768 2.04915C40.1619 2.56641 40.0446 3.07559 39.8316 3.54723C39.6187 4.01887 39.3143 4.44361 38.9362 4.79689C38.558 5.15017 38.1136 5.42498 37.6285 5.60541C33.7875 7.89507 29.848 10.0616 25.9331 12.2528Z" fill="black"/>
<path d="M151.998 77.2248L157.291 71.5376L162.339 76.7078L156.897 82.4196L151.998 77.2248Z" fill="black"/>
<path d="M15.6164 72.1284C14.1883 76.56 8.05744 80.77 0.966309 82.5673C3.99481 75.8214 11.0121 75.6491 15.6164 72.1284Z" fill="black"/>
</svg>
