<svg width="20" height="17" viewBox="0 0 20 17" fill="none" xmlns="http://www.w3.org/2000/svg">
<path d="M0.714966 0.0315399C0.610105 0.0601368 0.409914 0.193598 0.257388 0.327059L0 0.574913V8.06776V15.5606L0.295519 15.8466L0.581506 16.123H9.53288H18.4843L18.7703 15.8466L19.0658 15.5606V8.06776V0.574913L18.7703 0.288927L18.4843 0.0124741L9.69494 0.00294113C4.86177 -0.0065918 0.819828 0.00294113 0.714966 0.0315399ZM17.0639 8.06776V14.1688H9.48522H1.90658V8.06776V1.96671H9.48522H17.0639V8.06776Z" fill="#17627C"/>
<path fill-rule="evenodd" clip-rule="evenodd" d="M4.95713 2.82393V2.53794C4.95713 2.29962 4.99526 2.25195 5.19545 2.25195C5.39564 2.25195 5.43377 2.29962 5.43377 2.53794V2.82393H6.38706H7.34035V5.25481V7.6857H5.29078H3.24121V5.25481V2.82393H4.09917H4.95713ZM6.38697 3.77866C6.38703 3.77818 6.38706 3.7777 6.38706 3.77721C6.38706 3.77673 6.38703 3.77625 6.38697 3.77577V3.62217H4.28974V3.90815H6.38697V3.77866ZM6.38697 4.78246C6.38703 4.78104 6.38706 4.77961 6.38706 4.77817C6.38706 4.77672 6.38703 4.77529 6.38697 4.77387V4.67079H6.23176C6.08601 4.64386 5.81641 4.63517 5.33845 4.63517C4.86048 4.63517 4.59088 4.64386 4.44513 4.67079H4.28974V4.95677H6.38697V4.78246ZM6.38697 5.78057C6.38703 5.78009 6.38706 5.7796 6.38706 5.77912C6.38706 5.77864 6.38703 5.77815 6.38697 5.77767V5.62407H4.28974V5.91006H6.38697V5.78057ZM6.38697 6.73385C6.38703 6.73337 6.38706 6.73289 6.38706 6.73241C6.38706 6.73193 6.38703 6.73144 6.38697 6.73096V6.67269H6.19048C6.0099 6.65024 5.71365 6.63708 5.33845 6.63708C4.96324 6.63708 4.66699 6.65024 4.48641 6.67269H4.28974V6.95868H6.38697V6.73385Z" fill="#17627C"/>
<path fill-rule="evenodd" clip-rule="evenodd" d="M14.8715 3.39619V3.11021C14.8715 2.87188 14.9097 2.82422 15.1098 2.82422C15.31 2.82422 15.3482 2.87188 15.3482 3.11021C15.3482 3.34853 15.3863 3.39619 15.5865 3.39619H15.8248V6.11306V8.82994H13.5369H11.249V6.11306V3.39619H13.0603H14.8715ZM12.4544 4.38417C12.6145 4.35571 12.9227 4.34948 13.4893 4.34948C14.0558 4.34948 14.364 4.35571 14.5241 4.38417H14.7761V4.67016H12.2976V4.38417H12.4544ZM12.4544 6.57673C12.6145 6.54827 12.9227 6.54204 13.4893 6.54204C14.0558 6.54204 14.364 6.54827 14.5241 6.57673H14.7761V6.86272H12.2976V6.57673H12.4544ZM14.7761 5.43279H12.2976V5.71877H14.7761V5.43279ZM14.7761 7.62535H12.2976V7.91134H14.7761V7.62535Z" fill="#17627C"/>
<path fill-rule="evenodd" clip-rule="evenodd" d="M9.24681 7.87824V7.54459C9.24681 7.23954 9.26588 7.21094 9.5328 7.21094C9.79972 7.21094 9.81879 7.23954 9.81879 7.54459V7.87824H10.2954H10.7721V10.5951V13.312H8.48418H6.19629V10.5951V7.87824H7.72155H9.24681ZM7.3073 9.05688H7.24482V8.7709H9.72337V9.05688H9.56573C9.44987 9.10776 9.14552 9.11751 8.43652 9.11751C7.72751 9.11751 7.42316 9.10776 7.3073 9.05688ZM7.30909 10.1055H7.24482V9.81951H9.72337V10.1055H9.56394C9.414 10.1429 9.00947 10.1661 8.43652 10.1661C7.86356 10.1661 7.45904 10.1429 7.30909 10.1055ZM7.61664 11.2971H7.24482V11.0111H9.72337V11.2971H9.2564C9.07573 11.3073 8.81325 11.3101 8.43652 11.3101C8.05978 11.3101 7.7973 11.3073 7.61664 11.2971ZM7.47424 12.2027C7.67869 12.1808 8.0112 12.168 8.43652 12.168C8.86184 12.168 9.19434 12.1808 9.39879 12.2027H9.72337V12.4887H7.24482V12.2027H7.47424Z" fill="#17627C"/>
</svg>
