<svg width="37" height="37" viewBox="0 0 37 37" fill="none" xmlns="http://www.w3.org/2000/svg">
<path d="M28.2722 0.170432C28.189 0.269389 27.4485 1.40359 26.6324 2.69763C25.5971 4.34945 25.1513 5.11827 25.1513 5.27051C25.1513 5.56738 25.4536 5.86425 25.7483 5.86425C25.8994 5.86425 26.0581 5.78813 26.2017 5.65111C26.315 5.53693 27.0631 4.41796 27.8641 3.15436C29.4132 0.688052 29.4963 0.497751 29.1563 0.155208C28.9447 -0.0579293 28.4762 -0.0503172 28.2722 0.170432Z" fill="#446874"/>
<path d="M15.5998 0.505361C15.3505 0.748947 15.2976 0.962085 15.3051 1.63956C15.3203 3.22287 16.1515 5.7729 17.7837 9.32012C18.2597 10.3325 18.4033 10.5761 18.494 10.5381C19.295 10.1955 20.3831 10.1042 21.1161 10.3173C21.8491 10.5304 22.4385 10.8806 22.9372 11.3906C24.4939 12.9891 24.4637 15.4022 22.8768 17.0007L22.3554 17.5259L22.9297 18.3785C25.1362 21.6212 27.3578 24.1332 28.6349 24.8183C29.1563 25.0999 29.6777 25.1304 29.9044 24.902C31.2419 23.5547 27.8112 15.052 22.9826 7.71398C20.4587 3.8775 17.9953 1.08388 16.5898 0.474913C16.2875 0.345508 15.7434 0.360732 15.5998 0.505361Z" fill="#446874"/>
<path d="M13.7183 2.34748C13.2195 3.17719 12.9399 3.8775 11.9349 6.85382C11.4437 8.30011 10.9148 9.78446 10.7561 10.1651C10.0231 11.9615 8.98787 13.6666 7.99796 14.7171L7.39344 15.3641L10.0685 20.0303C12.4488 24.1865 12.7661 24.7041 12.9248 24.6965C13.0155 24.6889 13.4538 24.6051 13.8921 24.5062C14.5948 24.3539 14.8895 24.3311 16.4613 24.3311C18.5016 24.3235 18.6225 24.3387 22.0531 25.0086C23.4057 25.275 24.713 25.5338 24.9624 25.5795C25.7181 25.7165 27.1311 25.8078 27.5618 25.7469L27.9699 25.6937L27.4409 25.2978C25.8767 24.1256 23.844 21.6821 21.5997 18.2643C19.3252 14.8084 17.5116 11.4819 16.0608 8.09458C15.1011 5.87947 14.3606 3.4969 14.2321 2.26375C14.2019 1.9821 14.1565 1.75374 14.1263 1.75374C14.0961 1.75374 13.9147 2.02016 13.7183 2.34748Z" fill="#446874"/>
<path d="M31.5215 7.14308C30.1764 7.92712 29.0278 8.62743 28.9523 8.70355C28.786 8.8634 28.7936 9.32774 28.9674 9.51804C29.1638 9.73118 29.4812 9.77685 29.7759 9.62461C30.2746 9.37341 34.4836 6.9071 34.6121 6.80053C35.0353 6.42754 34.7103 5.7044 34.1209 5.71962C34.0302 5.71962 32.859 6.35903 31.5215 7.14308Z" fill="#446874"/>
<path d="M33.4257 13.4763L30.6374 13.6133L30.4636 13.8112C30.0933 14.2527 30.3729 14.8465 30.9547 14.8465C31.5441 14.8465 36.3048 14.6181 36.539 14.5801C37.204 14.4659 37.1284 13.4611 36.4483 13.3697C36.3274 13.3545 34.9673 13.4002 33.4257 13.4763Z" fill="#446874"/>
<path d="M4.31037 17.3965C2.00563 18.7362 1.53712 19.0864 1.00816 19.8324C-0.540927 22.017 -0.284005 24.9096 1.63536 26.7289C3.03332 28.061 5.14915 28.5025 6.93249 27.8479C7.52946 27.6271 11.7082 25.1913 11.6856 25.0771C11.6327 24.8715 6.59245 16.1405 6.52444 16.1481C6.48666 16.1481 5.48919 16.7114 4.31037 17.3965Z" fill="#446874"/>
<path d="M10.0004 27.414C8.60249 28.2361 7.62769 28.7537 7.1743 28.9136L6.95516 28.9897L7.06851 29.5149C7.34054 30.71 8.01308 32.3694 8.65538 33.4199C9.50927 34.8053 10.8543 36.3429 11.5647 36.7311C12.1238 37.0356 13.0457 37.0889 13.6729 36.8529C14.2699 36.6246 14.7384 36.1831 15.0331 35.5817C15.2447 35.1478 15.2825 35.0032 15.2825 34.5008C15.2749 33.732 15.1238 33.3971 14.3379 32.4075C13.9903 31.9812 13.5596 31.3951 13.3782 31.1058C12.6528 29.9869 11.882 28.1752 11.6251 27.0029C11.5722 26.767 11.5042 26.569 11.4815 26.569C11.4589 26.569 10.7939 26.9496 10.0004 27.414Z" fill="#446874"/>
</svg>
