<svg width="87" height="87" viewBox="0 0 87 87" fill="none" xmlns="http://www.w3.org/2000/svg">
<g filter="url(#filter0_d_1287_2885)">
<circle cx="43.5" cy="39.5" r="31.5" fill="#446874"/>
</g>
<path d="M53.2722 21.1704C53.189 21.2694 52.4485 22.4036 51.6324 23.6976C50.5971 25.3495 50.1513 26.1183 50.1513 26.2705C50.1513 26.5674 50.4536 26.8643 50.7483 26.8643C50.8994 26.8643 51.0581 26.7881 51.2017 26.6511C51.315 26.5369 52.0631 25.418 52.8641 24.1544C54.4132 21.6881 54.4963 21.4978 54.1563 21.1552C53.9447 20.9421 53.4762 20.9497 53.2722 21.1704Z" fill="#D8E4E8"/>
<path d="M40.5998 21.5054C40.3505 21.7489 40.2976 21.9621 40.3051 22.6396C40.3203 24.2229 41.1515 26.7729 42.7837 30.3201C43.2597 31.3325 43.4033 31.5761 43.494 31.5381C44.295 31.1955 45.3831 31.1042 46.1161 31.3173C46.8491 31.5304 47.4385 31.8806 47.9372 32.3906C49.4939 33.9891 49.4637 36.4022 47.8768 38.0007L47.3554 38.5259L47.9297 39.3785C50.1362 42.6212 52.3578 45.1332 53.6349 45.8183C54.1563 46.0999 54.6777 46.1304 54.9044 45.902C56.2419 44.5547 52.8112 36.052 47.9826 28.714C45.4587 24.8775 42.9953 22.0839 41.5898 21.4749C41.2875 21.3455 40.7434 21.3607 40.5998 21.5054Z" fill="#D8E4E8"/>
<path d="M38.7183 23.3475C38.2195 24.1772 37.9399 24.8775 36.9349 27.8538C36.4437 29.3001 35.9148 30.7845 35.7561 31.1651C35.0231 32.9615 33.9879 34.6666 32.998 35.7171L32.3934 36.3641L35.0685 41.0303C37.4488 45.1865 37.7661 45.7041 37.9248 45.6965C38.0155 45.6889 38.4538 45.6051 38.8921 45.5062C39.5948 45.3539 39.8895 45.3311 41.4613 45.3311C43.5016 45.3235 43.6225 45.3387 47.0531 46.0086C48.4057 46.275 49.713 46.5338 49.9624 46.5795C50.7181 46.7165 52.1311 46.8078 52.5618 46.7469L52.9699 46.6937L52.4409 46.2978C50.8767 45.1256 48.844 42.6821 46.5997 39.2643C44.3252 35.8084 42.5116 32.4819 41.0608 29.0946C40.1011 26.8795 39.3606 24.4969 39.2321 23.2637C39.2019 22.9821 39.1565 22.7537 39.1263 22.7537C39.0961 22.7537 38.9147 23.0202 38.7183 23.3475Z" fill="#D8E4E8"/>
<path d="M56.5215 28.1431C55.1764 28.9271 54.0278 29.6274 53.9523 29.7035C53.786 29.8634 53.7936 30.3277 53.9674 30.518C54.1638 30.7312 54.4812 30.7768 54.7759 30.6246C55.2746 30.3734 59.4836 27.9071 59.6121 27.8005C60.0353 27.4275 59.7103 26.7044 59.1209 26.7196C59.0302 26.7196 57.859 27.359 56.5215 28.1431Z" fill="#D8E4E8"/>
<path d="M58.4257 34.4763L55.6374 34.6133L55.4636 34.8112C55.0933 35.2527 55.3729 35.8465 55.9547 35.8465C56.5441 35.8465 61.3048 35.6181 61.539 35.5801C62.204 35.4659 62.1284 34.4611 61.4483 34.3697C61.3274 34.3545 59.9673 34.4002 58.4257 34.4763Z" fill="#D8E4E8"/>
<path d="M29.3104 38.3965C27.0056 39.7362 26.5371 40.0864 26.0082 40.8324C24.4591 43.017 24.716 45.9096 26.6354 47.7289C28.0333 49.061 30.1491 49.5025 31.9325 48.8479C32.5295 48.6271 36.7082 46.1913 36.6856 46.0771C36.6327 45.8715 31.5924 37.1405 31.5244 37.1481C31.4867 37.1481 30.4892 37.7114 29.3104 38.3965Z" fill="#D8E4E8"/>
<path d="M35.0004 48.414C33.6025 49.2361 32.6277 49.7537 32.1743 49.9136L31.9552 49.9897L32.0685 50.5149C32.3405 51.71 33.0131 53.3694 33.6554 54.4199C34.5093 55.8053 35.8543 57.3429 36.5647 57.7311C37.1238 58.0356 38.0457 58.0889 38.6729 57.8529C39.2699 57.6246 39.7384 57.1831 40.0331 56.5817C40.2447 56.1478 40.2825 56.0032 40.2825 55.5008C40.2749 54.732 40.1238 54.3971 39.3379 53.4075C38.9903 52.9812 38.5596 52.3951 38.3782 52.1058C37.6528 50.9869 36.882 49.1752 36.6251 48.0029C36.5722 47.767 36.5042 47.569 36.4815 47.569C36.4589 47.569 35.7939 47.9496 35.0004 48.414Z" fill="#D8E4E8"/>
<defs>
<filter id="filter0_d_1287_2885" x="0" y="0" width="87" height="87" filterUnits="userSpaceOnUse" color-interpolation-filters="sRGB">
<feFlood flood-opacity="0" result="BackgroundImageFix"/>
<feColorMatrix in="SourceAlpha" type="matrix" values="0 0 0 0 0 0 0 0 0 0 0 0 0 0 0 0 0 0 127 0" result="hardAlpha"/>
<feOffset dy="4"/>
<feGaussianBlur stdDeviation="6"/>
<feComposite in2="hardAlpha" operator="out"/>
<feColorMatrix type="matrix" values="0 0 0 0 0 0 0 0 0 0 0 0 0 0 0 0 0 0 0.25 0"/>
<feBlend mode="normal" in2="BackgroundImageFix" result="effect1_dropShadow_1287_2885"/>
<feBlend mode="normal" in="SourceGraphic" in2="effect1_dropShadow_1287_2885" result="shape"/>
</filter>
</defs>
</svg>
