<svg width="31" height="20" viewBox="0 0 31 20" fill="none" xmlns="http://www.w3.org/2000/svg">
<path d="M5.85279 0.2432C4.33587 0.799404 3.18975 1.89496 2.48185 3.46245C2.14476 4.20405 2.0942 4.62542 2.04363 7.45701C1.97621 10.3729 1.9425 10.6257 1.63912 10.7942C1.15033 11.0639 0.661547 11.9741 0.661547 12.6483C0.661547 13.3562 1.23461 14.3 1.84138 14.6034C2.11105 14.7382 3.07177 14.8225 4.58869 14.8225H6.89778V16.1709V17.5193H3.64483C1.33573 17.5193 0.341308 17.5698 0.189615 17.7215C-0.0632051 17.9743 -0.0632051 18.5811 0.189615 18.8339C0.476145 19.1205 30.5112 19.1205 30.7977 18.8339C30.9157 18.7159 31 18.48 31 18.2777C31 17.553 30.7809 17.5193 26.9212 17.5193H23.2468V16.1709V14.8225H25.6571C27.7639 14.8225 28.1178 14.7719 28.6066 14.4854C29.1797 14.1315 29.6516 13.2887 29.6516 12.6145C29.6516 12.0246 29.1291 11.1313 28.6235 10.8279L28.1516 10.5414L28.101 7.25475C28.0504 4.15349 28.0336 3.90067 27.6459 3.1085C27.1066 2.04665 26.0953 1.01852 25.0166 0.496021C24.2918 0.142073 23.9379 0.0746536 22.4884 0.0746536C20.9883 0.0746536 20.7018 0.125217 19.9602 0.52973C18.7803 1.1365 17.6511 2.41746 17.196 3.58043C16.8926 4.44002 16.8421 4.8951 16.8421 7.50757V10.4571L16.1679 11.0976C15.3588 11.8729 15.224 12.7831 15.7634 13.8449C16.1847 14.6708 16.7578 14.8225 19.3703 14.8225H21.7299V16.1709V17.5193H15.1566H8.58325V16.1709V14.8225H10.9598C12.8475 14.8225 13.4206 14.7719 13.8082 14.5528C14.4655 14.1483 14.8195 13.4573 14.8195 12.5303C14.8195 11.8224 14.7521 11.6707 14.1622 11.1145L13.5048 10.4909L13.4374 7.30532C13.3868 4.22091 13.37 4.08607 12.9149 3.15906C12.325 1.96238 11.0609 0.799406 9.8305 0.34433C8.7518 -0.0770378 6.83037 -0.110748 5.85279 0.2432ZM9.07204 1.76012C10.1002 2.11407 10.8249 2.7377 11.3811 3.73212C11.8531 4.60857 11.8699 4.69284 11.9205 7.52443L11.9879 10.4403H7.84165H3.69539V7.57499C3.69539 4.40631 3.77967 4.01865 4.72353 2.93995C5.81908 1.6927 7.55512 1.22077 9.07204 1.76012ZM24.3593 1.97923C25.2188 2.41746 25.8425 3.09164 26.2638 4.03551C26.5672 4.69284 26.6178 5.14792 26.6178 7.6087V10.4403H22.4715H18.3253L18.3927 7.52443C18.4433 4.81082 18.477 4.558 18.8646 3.79954C19.3365 2.87253 20.1961 2.09722 21.1569 1.74327C22.0164 1.42303 23.4997 1.54101 24.3593 1.97923ZM12.7464 12.0583C13.2014 12.1763 13.4037 12.7325 13.134 13.0528C12.8138 13.4404 2.81895 13.4236 2.44814 13.0359C2.0942 12.682 2.11105 12.5303 2.54927 12.2269C2.86951 11.9909 3.64483 11.9572 7.65625 11.9572C10.2519 11.9572 12.5441 12.0078 12.7464 12.0583ZM27.6459 12.1258C27.9999 12.328 28.0673 12.7999 27.7639 13.1033C27.4774 13.3899 17.4994 13.3899 17.2129 13.1033C16.9263 12.8168 16.96 12.3449 17.314 12.1426C17.7016 11.9067 27.2077 11.8898 27.6459 12.1258Z" fill="#17627C"/>
<path d="M12.7464 12.0583C13.2014 12.1763 13.4037 12.7325 13.134 13.0528C12.8138 13.4404 2.81895 13.4236 2.44814 13.0359C2.0942 12.682 2.11105 12.5303 2.54927 12.2269C2.86951 11.9909 3.64483 11.9572 7.65625 11.9572C10.2519 11.9572 12.5441 12.0078 12.7464 12.0583Z" fill="#17627C"/>
<path d="M27.6459 12.1258C27.9999 12.328 28.0673 12.7999 27.7639 13.1033C27.4774 13.3899 17.4994 13.3899 17.2129 13.1033C16.9263 12.8168 16.96 12.3449 17.314 12.1426C17.7016 11.9067 27.2077 11.8898 27.6459 12.1258Z" fill="#17627C"/>
<path d="M4.5 6.25C4.5 4.45507 5.95507 3 7.75 3C9.54493 3 11 4.45507 11 6.25V10H4.5V6.25Z" fill="#17627C"/>
<path d="M19 6.5C19 4.567 20.567 3 22.5 3C24.433 3 26 4.567 26 6.5V10H19V6.5Z" fill="#17627C"/>
</svg>
