<svg width="20" height="24" viewBox="0 0 20 24" fill="none" xmlns="http://www.w3.org/2000/svg">
<path d="M7.98524 0.0871029C7.19773 0.35429 6.69148 0.865229 6.41023 1.68086C6.27898 2.06054 6.28836 2.71679 6.42898 3.10586C6.58367 3.52773 6.74773 3.79492 7.02898 4.0668C7.4743 4.50273 8.05086 4.73242 8.69305 4.73242C9.3493 4.73242 9.89774 4.50742 10.3712 4.03867C10.8212 3.59336 11.0556 3.01679 11.0556 2.36523C11.0556 1.29179 10.4368 0.452728 9.37274 0.0871029C9.04461 -0.0300851 8.32274 -0.0253973 7.98524 0.0871029Z" fill="#17627C"/>
<path d="M7.97579 5.82485C7.41328 6.04048 6.94922 6.48579 6.73828 7.01548L6.62578 7.28736L6.61172 11.1077C6.60235 13.9624 6.61172 14.9796 6.65391 15.1389C6.79453 15.6686 7.23047 16.2452 7.65703 16.4608C8.20079 16.7421 8.10235 16.7327 11.1492 16.7327H13.9477L15.3914 19.5686C16.7133 22.1702 16.8492 22.4233 17.0602 22.6108C17.6274 23.1218 18.4383 23.0936 18.9821 22.5499C19.3008 22.2264 19.4227 21.8983 19.3899 21.4483C19.3617 21.1249 19.3196 21.0358 17.1727 16.8264C15.9258 14.3749 15.8508 14.2577 15.3961 14.0514C15.157 13.9436 15.1383 13.9436 12.968 13.9296L10.7742 13.9155V13.4749V13.0296H12.6492C14.407 13.0296 14.5383 13.0249 14.7024 12.9405C15.368 12.5983 15.5227 11.7358 15.0117 11.2342C14.7164 10.9389 14.7727 10.9436 12.6867 10.9296L10.7742 10.9155V9.18111C10.7742 7.54986 10.7695 7.43267 10.6758 7.15611C10.5492 6.77173 10.3524 6.47173 10.043 6.19048C9.68673 5.86235 9.37266 5.75454 8.7586 5.7311C8.33204 5.71704 8.22891 5.7311 7.97579 5.82485Z" fill="#17627C"/>
<path d="M4.8166 9.78962C3.79004 10.174 2.96035 10.7131 2.14473 11.524C0.654098 13.0193 -0.0818405 14.8943 0.00722213 16.9615C0.0400347 17.7584 0.133785 18.2787 0.36816 18.9912C1.12754 21.2928 2.98848 23.074 5.34161 23.7396C6.53223 24.0771 8.05567 24.0865 9.22755 23.7678C11.1635 23.2334 12.8651 21.8834 13.7604 20.1724L13.9854 19.7412L13.5635 18.9162L13.1416 18.0912H12.7385H12.3354L12.2276 18.3818C11.9557 19.1506 11.5244 19.8115 10.9291 20.3928C10.4416 20.8662 10.076 21.124 9.49005 21.4006C7.54473 22.3193 5.19629 21.8975 3.64941 20.3459C2.09316 18.7756 1.68535 16.4553 2.62285 14.4818C3.10566 13.4646 3.92598 12.6021 4.8541 12.124L5.24317 11.9271V10.7881C5.24317 10.1646 5.2291 9.65368 5.21035 9.65368C5.18692 9.65837 5.01348 9.71931 4.8166 9.78962Z" fill="#17627C"/>
</svg>
