<svg width="22" height="22" viewBox="0 0 22 22" fill="none" xmlns="http://www.w3.org/2000/svg">
<circle cx="11" cy="11" r="9.5" stroke="#17627C" stroke-width="3"/>
<path d="M7.18137 17.1089C7.04652 17.1089 6.9362 17.0682 6.85039 16.9867C6.76458 16.9052 6.72168 16.8005 6.72168 16.6724V5.32323C6.72168 5.19518 6.76458 5.09042 6.85039 5.00894C6.9362 4.92746 7.04652 4.88672 7.18137 4.88672H12.2011C13.194 4.88672 14.0521 5.03222 14.7754 5.32323C15.5109 5.61423 16.0809 6.05656 16.4854 6.65021C16.9022 7.23222 17.1106 7.95974 17.1106 8.83275C17.1106 9.71741 16.9022 10.4507 16.4854 11.0328C16.0809 11.6031 15.5109 12.028 14.7754 12.3074C14.0521 12.5867 13.194 12.7264 12.2011 12.7264H9.73722V16.6724C9.73722 16.8005 9.69431 16.9052 9.6085 16.9867C9.5227 17.0682 9.41237 17.1089 9.27753 17.1089H7.18137ZM9.68205 10.5613H12.1092C12.7344 10.5613 13.2186 10.4158 13.5618 10.1248C13.9173 9.83381 14.095 9.3973 14.095 8.81529C14.095 8.30312 13.9357 7.88407 13.617 7.55815C13.3105 7.23222 12.8079 7.06926 12.1092 7.06926H9.68205V10.5613Z" fill="#17627C"/>
</svg>
