<svg width="23" height="21" viewBox="0 0 23 21" fill="none" xmlns="http://www.w3.org/2000/svg">
<path fill-rule="evenodd" clip-rule="evenodd" d="M12.2808 0.181885C12.8509 0.181885 13.8701 0.285585 14.5266 0.423851C15.1831 0.562117 16.3233 0.959633 17.0316 1.32258C17.9991 1.78923 18.6556 2.29045 20.9187 4.62369L21.9207 3.94964C22.4562 3.5867 22.94 3.29288 22.9918 3.32745C23.0263 3.34473 22.94 4.64098 22.8018 6.21376C22.6463 7.78654 22.4908 9.10007 22.4562 9.15192C22.4217 9.20377 21.1951 8.89267 19.7439 8.49515C18.31 8.08035 17.0489 7.68284 16.9798 7.63099C16.9107 7.56185 17.2735 7.21619 18.7592 6.21376L18.31 5.66069C18.0509 5.34959 17.4462 4.79653 16.9625 4.43358C16.4788 4.07063 15.6495 3.62126 15.1313 3.41386C14.613 3.22375 13.5937 3.03363 12.8854 2.98178C11.7798 2.89536 11.3997 2.9645 10.294 3.34473C9.58572 3.60398 8.87741 3.84594 8.7392 3.89779C8.54916 3.96693 8.3764 3.69039 8.09999 2.80895C7.8754 2.16946 7.70264 1.52998 7.70264 1.42628C7.70264 1.3053 8.03089 1.08062 8.42823 0.925067C8.84285 0.769517 9.63754 0.544834 10.2076 0.423851C10.7778 0.302868 11.7106 0.181885 12.2808 0.181885ZM6.40695 1.21888C6.49333 1.2016 6.90795 2.37686 7.32258 3.82866C7.7372 5.28046 8.04816 6.49029 8.01361 6.50757C7.97906 6.52486 6.68337 6.90509 5.11126 7.33717C3.53916 7.76926 2.24347 8.11492 2.22619 8.08035C2.20892 8.04579 1.88067 6.87052 1.48333 5.43601C1.10326 4.01878 0.792294 2.82623 0.826846 2.80895C0.861398 2.77438 1.25874 2.6534 1.74247 2.51513C2.20892 2.39415 2.58899 2.20403 2.55443 2.08305C2.53716 1.96206 2.65809 1.9275 2.89995 1.99663C3.12454 2.04848 3.59099 2.01391 3.9365 1.91022C4.2993 1.80652 4.55844 1.65097 4.50661 1.54727C4.45478 1.44357 4.57571 1.409 4.8003 1.46085C5.02488 1.5127 5.42223 1.47813 5.71592 1.39172C6.00961 1.3053 6.32057 1.21888 6.40695 1.21888ZM15.6495 6.90509L15.9951 8.42602C16.2024 9.25562 16.5 10.5 16.5 10.5L12.2808 10.5346C12.2808 10.5346 8.04816 10.5173 8.04816 10.5C8.04816 10.4654 8.20365 9.67042 8.39368 8.71984C8.58371 7.76925 8.7392 6.97422 8.7392 6.95694C8.7392 6.92237 10.294 6.90509 15.6495 6.90509ZM5.23219 8.37417C5.24947 8.37417 5.21492 8.8581 5.12854 9.41117C5.04216 9.98152 4.99033 10.6383 5.02488 10.8802C5.04216 11.1222 5.12854 11.658 5.19764 12.0901C5.26675 12.5222 5.52588 13.2999 5.78502 13.8184C6.02689 14.3369 6.66609 15.2011 7.18437 15.7369C7.70264 16.2726 8.60099 16.9467 9.17109 17.2405C9.7412 17.517 10.5877 17.8109 11.0714 17.8627C11.5379 17.9318 12.2462 18.001 12.6263 18.0355C13.0063 18.0701 13.7665 17.9837 14.302 17.8454C14.8549 17.7244 15.7532 17.3615 16.2888 17.0331C16.8416 16.7047 17.6363 16.0652 18.0682 15.6159C18.4828 15.1492 19.0875 14.1986 19.3984 13.5246C19.7094 12.8333 19.9685 11.9864 19.9685 11.658C19.9685 11.3296 20.0376 11.0185 20.1413 10.9667C20.2449 10.9148 20.8323 10.9839 22.6117 11.3123L22.4908 12.2283C22.439 12.7123 22.2317 13.5419 22.0416 14.0431C21.8689 14.527 21.3333 15.5295 20.8669 16.2381C20.4004 16.9467 19.6057 17.8973 19.0874 18.3466C18.5692 18.796 17.6017 19.4355 16.9452 19.7812C16.2888 20.1095 15.2349 20.4898 14.613 20.628C13.9911 20.749 12.8336 20.8354 12.0216 20.8181C11.2096 20.7836 10.3977 20.7317 10.2076 20.6799C10.0176 20.628 9.46478 20.4725 8.99834 20.2996C8.51461 20.1441 7.7372 19.8157 7.27075 19.5565C6.78702 19.2972 5.81957 18.5195 5.11126 17.7936C4.35112 17.0331 3.59099 16.0652 3.28002 15.4603C2.98633 14.89 2.57171 13.7666 2.3644 12.9542C2.12254 12.0037 2.00161 11.0876 2.08798 9.23834L3.62554 8.78897C4.47206 8.547 5.19764 8.35689 5.23219 8.37417ZM12.2808 10.8802C16.1333 10.8802 16.5133 10.8975 16.4615 11.1741C16.427 11.416 16.1333 11.4506 13.922 11.4506C12.5399 11.4506 10.6568 11.4506 9.72392 11.4333C8.35913 11.3987 8.04816 11.3469 8.04816 11.1395C8.04816 10.9148 8.63554 10.8802 12.2808 10.8802ZM12.2808 11.7444C15.926 11.7444 16.5133 11.779 16.5133 12.0037C16.5133 12.2283 15.926 12.2629 12.2808 12.2629C8.63554 12.2629 8.04816 12.2283 8.04816 12.0037C8.04816 11.779 8.63554 11.7444 12.2808 11.7444ZM12.2808 12.7814C15.926 12.7814 16.5133 12.816 16.5133 13.0407C16.5133 13.2653 16.0296 13.2999 13.1445 13.2999C11.0196 13.2999 9.72392 13.3863 9.72392 13.2826L8.99834 13.2999H8.89254C8.89254 13.2999 8.8083 13.2826 8.42823 13.2826C8.20365 13.2999 8.04816 13.1962 8.04816 13.0407C8.04816 12.816 8.63554 12.7814 12.2808 12.7814ZM13.1445 13.6456C15.7187 13.6456 16.5133 13.6974 16.5133 13.8703C16.5133 14.0085 16.0123 14.0949 14.7339 14.1295C13.7665 14.1468 11.3651 14.0777 11.3651 14.0777C11.3651 14.0777 8.04816 13.974 8.04816 13.8703C8.04816 13.7666 11.0196 13.6456 13.1445 13.6456Z" fill="#FEFEFE"/>
<path d="M4.90353 2.08312C4.88626 1.9967 5.09357 1.84115 5.36998 1.75474C5.66367 1.65104 6.00919 1.56462 6.1474 1.56462C6.33743 1.54734 6.57929 2.16953 7.04574 3.82873C7.40854 5.09041 7.6504 6.16198 7.59857 6.21383C7.54674 6.26568 6.47564 6.59406 5.2145 6.93973C3.97064 7.30268 2.81315 7.57921 2.65767 7.59649C2.48491 7.59649 2.31215 7.45823 2.26032 7.28539C2.22577 7.12984 1.94936 6.12741 1.65567 5.09041C1.37926 4.03613 1.12012 3.1374 1.12012 3.08555C1.12012 3.0337 1.43108 2.89543 1.81115 2.79173C2.36398 2.63618 2.57129 2.63618 2.7786 2.79173C3.00319 2.98185 3.05502 2.96457 3.03774 2.70532C3.03774 2.49792 3.24505 2.35965 3.72877 2.23867C4.10884 2.15225 4.54074 2.1004 4.67895 2.15225C4.81715 2.2041 4.92081 2.16953 4.90353 2.08312Z" fill="#236B83"/>
<path d="M9.46437 8.13227C9.77533 8.02857 10.1381 7.83846 10.2763 7.70019C10.4491 7.47551 10.8983 7.42366 12.2631 7.42366C13.8006 7.40638 14.0425 7.45823 14.3534 7.76932C14.5435 7.95944 14.9063 8.16684 15.1827 8.20141C15.5627 8.27054 15.6491 8.37424 15.6491 8.80632C15.6491 9.13471 15.4936 9.48037 15.2172 9.7569C14.7853 10.1717 14.699 10.189 12.2803 10.189C10.0863 10.189 9.74078 10.1544 9.48164 9.87789C9.30888 9.70505 9.06702 9.53222 8.94609 9.48037C8.80788 9.44581 8.75605 9.20384 8.80788 8.85817C8.87699 8.40881 8.99792 8.27054 9.46437 8.13227Z" fill="#236B83"/>
<path d="M5.14562 3.362C5.11107 3.17188 5.18017 2.96448 5.31838 2.89535C5.43931 2.82621 5.59479 2.75708 5.6639 2.75708C5.75028 2.75708 5.85393 2.92991 5.90576 3.1546C5.95759 3.362 5.97486 3.55211 5.94031 3.5694C5.90576 3.5694 5.733 3.62125 5.54297 3.65581C5.31838 3.69038 5.19745 3.60396 5.14562 3.362Z" fill="#FEFEFE"/>
<path d="M3.64262 3.79408C3.59079 3.55211 3.67717 3.39656 3.91903 3.29286C4.23 3.17188 4.33366 3.22373 4.45459 3.51755C4.55824 3.75951 4.52369 3.91506 4.38548 4.00148C4.26455 4.07061 4.05724 4.13974 3.93631 4.13974C3.83265 4.13974 3.69445 3.98419 3.64262 3.79408Z" fill="#FEFEFE"/>
<path d="M2.26055 4.22616C2.20872 4.08789 2.20872 3.88049 2.26055 3.79408C2.32965 3.70766 2.51969 3.62125 2.69245 3.62125C2.88248 3.62125 3.07252 3.75951 3.10707 3.93234C3.1589 4.08789 3.14162 4.27801 3.08979 4.36443C3.02069 4.43356 2.83065 4.48541 2.6579 4.48541C2.48514 4.48541 2.31238 4.36443 2.26055 4.22616Z" fill="#FEFEFE"/>
<path d="M5.49114 4.57183C5.45659 4.38171 5.52569 4.17431 5.6639 4.10518C5.78483 4.03604 5.94031 3.96691 6.00941 3.96691C6.09579 3.96691 6.19945 4.13974 6.25128 4.36443C6.30311 4.57183 6.32038 4.76194 6.28583 4.77923C6.25128 4.77923 6.07852 4.83108 5.88848 4.86564C5.6639 4.90021 5.54297 4.81379 5.49114 4.57183Z" fill="#FEFEFE"/>
<path d="M3.98814 4.74466C3.93631 4.58911 4.02269 4.45084 4.19545 4.41628C4.36821 4.38171 4.57552 4.34714 4.6619 4.32986C4.74828 4.32986 4.83466 4.48541 4.86921 4.71009C4.90376 4.91749 4.83466 5.14218 4.71372 5.21131C4.59279 5.28044 4.40276 5.34958 4.28183 5.34958C4.17817 5.34958 4.07452 5.26316 4.07452 5.17674C4.07452 5.09033 4.03997 4.88293 3.98814 4.74466Z" fill="#FEFEFE"/>
<path d="M2.60607 5.43599C2.55424 5.29773 2.55424 5.09033 2.60607 5.00391C2.67517 4.91749 2.86521 4.83108 3.03796 4.83108C3.228 4.83108 3.41803 4.96934 3.45259 5.14218C3.50441 5.29773 3.48714 5.48784 3.43531 5.57426C3.36621 5.64339 3.17617 5.69524 3.00341 5.69524C2.83065 5.69524 2.6579 5.57426 2.60607 5.43599Z" fill="#FEFEFE"/>
<path d="M5.68117 5.71252C5.61207 5.52241 5.61207 5.33229 5.69845 5.28044C5.78483 5.22859 6.00941 5.17674 6.18217 5.17674C6.35493 5.17674 6.52769 5.29773 6.57952 5.43599C6.63135 5.57426 6.63135 5.78166 6.57952 5.86807C6.52769 5.95449 6.33766 6.04091 6.14762 6.04091C5.95759 6.04091 5.75028 5.88536 5.68117 5.71252Z" fill="#FEFEFE"/>
<path d="M4.33366 6.17917C4.2991 5.95449 4.35093 5.72981 4.47186 5.66067C4.59279 5.59154 4.78283 5.52241 4.88648 5.52241C5.00741 5.52241 5.14562 5.67796 5.19745 5.86807C5.25504 6.09852 5.16866 6.27135 4.93831 6.38657L4.93831 6.38658C4.74827 6.47299 4.55824 6.55941 4.50641 6.55941C4.45459 6.55941 4.38548 6.38657 4.33366 6.17917Z" fill="#FEFEFE"/>
<path d="M2.83065 6.26559C2.7961 6.16189 2.93431 6.04091 3.10707 6.00634C3.27983 5.97177 3.50441 5.97177 3.59079 6.00634C3.69445 6.04091 3.76355 6.21374 3.74628 6.40386C3.729 6.57669 3.59079 6.76681 3.41803 6.81866C3.26255 6.87051 3.07252 6.81866 3.00341 6.69767C2.93431 6.57669 2.84793 6.38657 2.83065 6.26559Z" fill="#FEFEFE"/>
<path d="M11.2786 8.09762C11.3304 7.99392 11.5377 7.85565 11.7277 7.78652C11.9178 7.7001 12.2115 7.7001 12.4015 7.75195C12.6088 7.8038 12.8507 7.95935 12.9543 8.09762C13.1098 8.30502 13.058 8.3223 12.6606 8.23589C12.3842 8.16675 12.1942 8.18404 12.1942 8.28774C12.1942 8.39144 12.3842 8.5297 12.6261 8.6334C12.937 8.75439 13.0407 8.92722 13.0061 9.20375C12.9831 9.45724 12.8391 9.60127 12.5742 9.63583C12.3669 9.65312 12.1942 9.7741 12.1942 9.89508C12.1942 10.0161 12.1424 10.0334 12.056 9.92965C11.9869 9.82595 11.7796 9.68768 11.6068 9.58398C11.434 9.48028 11.244 9.30745 11.2267 9.20375C11.1922 9.08277 11.2786 8.97907 11.4168 8.97907C11.555 8.97907 11.6759 9.0482 11.6759 9.1519C11.6759 9.2556 11.745 9.32474 11.8487 9.32474C11.9523 9.32474 12.0214 9.20375 12.0214 9.06549C12.0214 8.92722 11.8659 8.80624 11.6759 8.80624C11.4859 8.80624 11.2958 8.68525 11.244 8.54699C11.1922 8.40872 11.2095 8.20132 11.2786 8.09762Z" fill="#FEFEFE"/>
</svg>
