<svg width="30" height="30" viewBox="0 0 30 30" fill="none" xmlns="http://www.w3.org/2000/svg">
<circle cx="15" cy="15" r="15" fill="#B1CED9"/>
<path d="M21.1833 22C19.563 22 17.962 21.6466 16.3806 20.9399C14.7991 20.2331 13.3602 19.2319 12.0639 17.9361C10.7676 16.6398 9.76633 15.2009 9.06011 13.6194C8.35389 12.038 8.00052 10.437 8 8.81667C8 8.58333 8.07778 8.38889 8.23333 8.23333C8.38889 8.07778 8.58333 8 8.81667 8H11.9667C12.1481 8 12.3102 8.0617 12.4528 8.18511C12.5954 8.30852 12.6796 8.45422 12.7056 8.62222L13.2111 11.3444C13.237 11.5519 13.2306 11.7269 13.1917 11.8694C13.1528 12.012 13.0815 12.1352 12.9778 12.2389L11.0917 14.1444C11.3509 14.6241 11.6587 15.0874 12.0149 15.5343C12.3711 15.9813 12.7634 16.4124 13.1917 16.8278C13.5935 17.2296 14.0148 17.6024 14.4556 17.9462C14.8963 18.29 15.363 18.6042 15.8556 18.8889L17.6833 17.0611C17.8 16.9444 17.9524 16.8568 18.1407 16.7982C18.3289 16.7396 18.5135 16.7236 18.6944 16.75L21.3778 17.2944C21.5593 17.3463 21.7083 17.4404 21.825 17.5768C21.9417 17.7131 22 17.8653 22 18.0333V21.1833C22 21.4167 21.9222 21.6111 21.7667 21.7667C21.6111 21.9222 21.4167 22 21.1833 22Z" fill="#17627C"/>
</svg>
