<svg width="24" height="31" viewBox="0 0 24 31" fill="none" xmlns="http://www.w3.org/2000/svg">
<path d="M11.7145 0.0473871C11.4365 0.0844564 10.7692 0.381009 10.2317 0.714631C8.87869 1.53015 8.15584 2.71636 8.06317 4.25473C7.95196 5.88577 8.26705 6.84957 9.28645 7.92457L10.139 8.83277L9.4718 11.4276C9.1011 12.8362 8.86016 14.0039 8.93429 14.0039C9.00843 14.0039 9.73128 12.966 10.5283 11.6871L11.974 9.37027H12.9378C14.124 9.37027 15.5882 8.66595 16.3666 7.73923C16.9412 7.03491 17.4787 5.60775 17.4787 4.73663C17.4787 3.12412 16.274 1.19653 14.8283 0.492216C14.0313 0.10299 12.5671 -0.100889 11.7145 0.0473871ZM13.6421 1.41894C15.0692 1.80817 16.3481 3.47628 16.3666 4.94051C16.3666 5.77456 15.5882 7.33147 14.9395 7.81336C13.1972 9.09225 10.899 8.77716 9.69421 7.10905C8.32265 5.21853 9.08257 2.54955 11.2696 1.56722C12.1222 1.17799 12.6597 1.14093 13.6421 1.41894Z" fill="#17627C"/>
<path d="M11.4546 4.01402C11.1951 4.82954 10.9912 5.55239 10.9912 5.60799C10.9912 5.6636 11.3248 5.6636 11.7326 5.58946C12.1404 5.53385 12.474 5.51532 12.474 5.57092C12.474 5.60799 12.2701 6.12696 12.0106 6.70153C11.7511 7.29464 11.5843 7.79507 11.6214 7.83214C11.7141 7.92481 14.5128 4.49592 14.5128 4.29204C14.5128 4.23644 14.2718 4.18083 13.9567 4.18083C13.2895 4.18083 13.271 4.12523 13.8641 3.36531C14.1236 3.03169 14.3274 2.69807 14.3274 2.64246C14.3274 2.56833 13.7899 2.51272 13.1227 2.51272H11.9365L11.4546 4.01402Z" fill="#17627C"/>
<path d="M18.1818 15.2279L15.068 16.7848V20.1025C15.068 23.1607 15.0494 23.4202 14.6973 23.7353C14.3637 24.0319 14.3266 24.0319 14.3266 23.7724C14.3266 23.5129 14.1042 23.4573 12.8438 23.4573H11.3611V21.0478V18.6383H12.9365H14.5119V17.1555C14.5119 15.9693 14.4563 15.6728 14.2339 15.6728C14.0856 15.6728 13.9559 15.543 13.9559 15.3947C13.9559 15.1538 13.2516 15.1167 8.76622 15.1167C4.28086 15.1167 3.57654 15.1538 3.57654 15.3947C3.57654 15.543 3.4468 15.6728 3.29853 15.6728C3.07611 15.6728 3.02051 15.9693 3.02051 17.1555V18.6383H4.59594H6.17138V21.0478V23.4573H5.4856H4.78129V24.384V25.3107H7.5244H10.249V25.8668V26.4228H12.1951C14.0115 26.4228 14.1412 26.4043 14.1412 26.0521C14.1412 25.7185 14.271 25.6814 15.4943 25.6814C16.9029 25.6814 18.8305 26.0707 19.646 26.4969C20.1279 26.7379 20.1279 26.7564 19.7572 26.9418C19.5533 27.053 18.3115 27.2939 16.9956 27.4607C14.3637 27.7944 11.5093 28.4431 10.4529 28.962C9.61881 29.3883 9.56321 29.9258 10.3417 30.3151C10.805 30.556 11.8244 30.5931 16.6434 30.556C22.3706 30.5189 23.9646 30.4263 23.9646 30.1297C23.9646 30.0556 21.1102 30 17.6257 30C11.4352 30.037 9.85976 29.9444 10.4529 29.5551C11.1572 29.0918 13.8632 28.4245 16.7546 27.9982C19.924 27.5349 20.6283 27.2939 20.6283 26.6823C20.6283 26.0336 18.6822 25.3849 16.2171 25.1995L14.6973 25.0698L15.2162 24.7362C16.0318 24.2543 16.18 23.55 16.18 20.3249V17.4336L19.0529 15.9879C21.24 14.8943 21.9258 14.4866 21.9258 14.2085C21.9258 14.0232 21.796 13.8008 21.6292 13.7452C21.277 13.6154 21.8145 13.3745 18.1818 15.2279ZM4.52181 17.1555C4.61448 17.1555 4.68862 17.0258 4.68862 16.8775C4.68862 16.4512 5.02224 16.5439 5.17052 17.0073C5.24465 17.2853 5.18905 17.4706 4.9481 17.656C4.50327 17.9711 4.42913 17.9711 4.03991 17.5262C3.76189 17.2111 3.74336 17.1185 3.96577 16.859C4.20672 16.5624 4.22525 16.5624 4.28086 16.8404C4.31793 17.0258 4.42913 17.1555 4.52181 17.1555ZM6.37526 17.1555C6.46793 17.1555 6.54207 17.0258 6.54207 16.859C6.54207 16.4327 6.9869 16.6551 7.06104 17.1185C7.13518 17.6189 6.4494 18.0267 6.06017 17.693C5.78216 17.4706 5.70802 16.9331 5.94897 16.7107C6.02311 16.6366 6.09724 16.6922 6.13431 16.859C6.17138 17.0258 6.28259 17.1555 6.37526 17.1555ZM8.58087 20.5844V21.7892H7.65415H6.72742V20.5844V19.3797H7.65415H8.58087V20.5844Z" fill="#17627C"/>
<path d="M1.48326 14.8753C1.40912 14.9309 1.35352 16.5805 1.35352 18.5081C1.35352 21.6219 1.39058 21.9926 1.65007 21.8999C1.81688 21.8443 2.05783 21.7887 2.20611 21.7887C2.42852 21.7887 2.46559 21.2141 2.46559 18.4896C2.46559 16.1727 2.39145 15.1163 2.24317 14.968C2.00223 14.727 1.6686 14.6714 1.48326 14.8753Z" fill="#17627C"/>
<path d="M4.13379 20.732C4.13379 21.9739 4.20793 22.7152 4.3562 22.8635C4.48595 22.9933 4.89371 23.0859 5.28293 23.0859H5.98724V20.9545V18.823H5.06052H4.13379V20.732Z" fill="#17627C"/>
<path d="M11.5479 20.9545V23.0859H12.3819H13.216V20.9545V18.823H12.3819H11.5479V20.9545Z" fill="#17627C"/>
<path d="M1.37156 22.2885C0.463364 22.7704 0 23.4747 0 24.3829C0 25.3282 0.463364 26.0139 1.40863 26.4773C2.61337 27.0889 4.09614 26.3476 4.52243 24.9389C4.70778 24.3458 4.68924 24.1234 4.39269 23.5303C3.74398 22.2144 2.48363 21.7139 1.37156 22.2885ZM3.15087 23.4932C3.68838 23.9937 3.68838 24.698 3.16941 25.254C2.66898 25.7915 1.96466 25.7915 1.40863 25.2726C0.871124 24.7721 0.871124 24.0678 1.39009 23.5118C1.89052 22.9743 2.59484 22.9743 3.15087 23.4932Z" fill="#17627C"/>
<path d="M1.72428 23.9217C1.24238 24.5148 1.96523 25.423 2.61394 25.0153C3.0217 24.7558 3.11437 24.2554 2.83635 23.9217C2.5398 23.5696 2.02083 23.5696 1.72428 23.9217Z" fill="#17627C"/>
</svg>
