<svg width="65" height="59" viewBox="0 0 65 59" fill="none" xmlns="http://www.w3.org/2000/svg">
<g filter="url(#filter0_d_2831_2362)">
<path fill-rule="evenodd" clip-rule="evenodd" d="M28.0728 12.8407C28.2407 12.6385 28.4884 12.5196 28.7512 12.5151C29.0242 12.5104 29.2846 12.6297 29.4594 12.8394L29.7735 13.2163C30.1015 13.5995 30.8014 14.3443 31.3263 14.8577C31.8512 15.3711 32.5437 16.0074 32.8645 16.2605C33.1853 16.5135 33.7248 16.9112 34.0674 17.1354C34.41 17.3595 35.3796 17.9597 36.218 18.4658C37.0564 18.972 38.0041 19.5722 38.3249 19.7963C38.6384 20.0205 39.1049 20.3892 39.3601 20.6062C39.6153 20.8231 40.0089 21.2063 40.2276 21.4594C40.4464 21.7052 40.6286 21.9294 40.6286 21.9655C40.6286 21.9945 40.3589 22.0957 40.0308 22.1897C39.6955 22.2765 39.1779 22.45 38.879 22.5585C38.5801 22.6669 38.2739 22.7754 38.2083 22.8043C38.1062 22.8405 38.0187 22.7537 37.8365 22.4717C37.6979 22.262 37.4136 21.8788 37.1876 21.6185C36.9689 21.3582 36.5607 20.9677 36.2836 20.7435C36.0066 20.5194 35.5546 20.1868 35.2703 19.9988C34.9933 19.8108 34.4902 19.536 34.1622 19.3769C33.8268 19.2178 33.5279 19.0949 33.4842 19.1094C33.4477 19.1166 33.8122 19.4203 34.3007 19.7746C34.7891 20.1362 35.54 20.7652 35.9629 21.1846C36.2607 21.48 36.6055 21.865 36.9922 22.3802C37.2738 22.7553 37.1324 23.287 36.7138 23.4985C36.2836 23.7226 35.7223 24.0335 35.4671 24.1854C35.212 24.3445 34.7162 24.6843 34.359 24.9446C34.0018 25.2049 33.5061 25.5882 33.2509 25.8051C32.9957 26.022 32.5292 26.4631 32.2084 26.7812C31.8876 27.1066 31.37 27.6778 31.0565 28.0538C30.7431 28.4298 30.466 28.7769 30.4369 28.8131C30.4077 28.8492 30.1525 29.2252 29.8755 29.6446C29.5985 30.064 29.2048 30.7292 29.0007 31.1269C28.7966 31.5246 28.5122 32.1248 28.3664 32.4646C28.2206 32.8045 27.9873 33.4191 27.8488 33.8385C27.7285 34.2027 27.5697 34.7634 27.3533 35.6674C27.2876 35.9417 27.1037 36.1734 26.8501 36.2969C26.6314 36.4126 26.2085 36.6657 25.9242 36.8682C25.6326 37.0706 25.1369 37.49 24.8234 37.8009C24.5099 38.1046 24.0725 38.5818 23.8465 38.8638C23.0463 39.8623 22.6946 41.1395 22.6946 42.419V43.7808C22.6946 46.2971 22.6728 47.1286 22.6072 47.2009C22.5415 47.266 21.9583 47.2877 20.1795 47.2877C18.3934 47.2877 17.8248 47.266 17.7519 47.2009C17.6862 47.1286 17.6644 46.4923 17.6644 44.4315C17.6644 42.9565 17.6352 41.72 17.6061 41.6766C17.5769 41.6332 16.826 41.0114 15.9366 40.2883C15.0326 39.558 14.2453 38.9723 14.1651 38.9723C14.0849 38.9723 13.8953 39.0518 13.7495 39.1458C13.5964 39.2398 12.6997 39.7822 11.7593 40.3462C10.8188 40.9102 9.98776 41.4308 9.91486 41.4958C9.79821 41.6043 9.78363 41.814 9.79092 44.3592C9.79092 46.42 9.76905 47.1286 9.70344 47.2009C9.63783 47.266 9.17854 47.2877 7.89546 47.2877C6.61238 47.2877 6.16039 47.266 6.08748 47.2009C6.01458 47.1286 6 44.916 6 36.2246C6 26.022 6.01458 25.3351 6.13122 25.2122C6.19684 25.1398 6.34264 25.082 6.45928 25.0892C6.58322 25.0892 6.68528 25.0386 6.72902 24.9446C6.77276 24.8651 6.80193 24.2071 6.80193 23.4623C6.80193 22.3705 6.78005 22.1029 6.69257 22.0162C6.63425 21.9583 6.49574 21.9077 6.38638 21.9077C6.26974 21.9077 6.13851 21.8715 6.08748 21.8209C6.02187 21.7558 6 21.4594 6 20.8231C6 20.2085 6.02916 19.8903 6.08748 19.8325C6.15309 19.7602 7.04979 19.7385 10.0825 19.7385C12.4154 19.7385 14.0265 19.7674 14.0922 19.8108C14.1796 19.8614 14.2015 20.0638 14.2015 20.8592C14.2015 21.6546 14.1796 21.8571 14.0922 21.9077C14.0338 21.9438 13.7933 21.98 13.5673 21.98C13.2392 21.98 13.1226 22.0089 13.0569 22.1174C12.984 22.2186 12.9768 22.5657 13.0205 23.6503C13.0642 24.5397 13.1153 25.0892 13.1663 25.1471C13.2173 25.1977 13.3704 25.2555 13.5089 25.2772C13.6475 25.2917 13.7933 25.3351 13.8224 25.364C13.8516 25.3929 13.9172 26.9475 13.9609 28.8131C14.0265 31.7922 14.0484 32.226 14.1578 32.3345C14.2671 32.4429 14.4202 32.4502 15.9147 32.3851C17.3363 32.3272 17.5696 32.2983 17.6498 32.1898C17.7008 32.1248 17.7373 32.0235 17.7373 31.9802C17.7373 31.9295 17.5842 31.7126 17.4019 31.5102C17.2197 31.3005 16.8843 30.8522 16.651 30.5123C16.425 30.1725 16.1407 29.7025 16.0314 29.4638C15.9147 29.2252 15.7616 28.8492 15.6814 28.6323C15.6085 28.4154 15.4919 28.0105 15.4336 27.7285C15.3752 27.4537 15.3242 26.8608 15.3242 26.4269C15.3242 25.9642 15.3752 25.3857 15.4409 25.0531C15.5065 24.7349 15.6596 24.2288 15.7762 23.9323C15.8856 23.6358 16.148 23.1152 16.3521 22.7754C16.5563 22.4355 16.9135 21.9366 17.1395 21.6618C17.3655 21.3871 17.7373 20.9966 17.956 20.8014C18.1747 20.5989 18.6704 20.2085 19.0495 19.9265C19.4286 19.6445 20.544 18.9358 21.5282 18.3429C22.5124 17.75 23.5768 17.0848 23.8902 16.8606C24.2037 16.6292 24.7505 16.2026 25.0931 15.9062C25.4358 15.6097 26.0846 15.0095 26.522 14.5612C26.9667 14.1202 27.5499 13.4766 27.827 13.1368L28.0728 12.8407ZM44.3321 24.0842C44.8278 24.0842 45.6151 24.1275 46.0817 24.1926C46.5556 24.2505 47.2481 24.3662 47.6345 24.4529C48.0136 24.5325 48.6989 24.7277 49.1655 24.8868C49.6248 25.0458 50.3757 25.364 50.8422 25.5882C51.3015 25.8195 51.9212 26.1666 52.2274 26.3546C52.5263 26.5426 53.0512 26.9186 53.3938 27.1789C53.7292 27.4392 54.3051 27.9454 54.6696 28.3069C55.0341 28.6685 55.5298 29.2035 55.7631 29.5C56.0037 29.7965 56.3901 30.3388 56.6307 30.6931C56.8713 31.0546 57.2503 31.7198 57.4836 32.1754C57.7096 32.6309 58.0523 33.448 58.2272 33.9831C58.4095 34.5182 58.6282 35.3497 58.7157 35.8269C58.8032 36.3042 58.8979 36.7958 58.9344 36.9115C58.9708 37.0345 59 37.7648 59 38.5385C59 39.3122 58.9708 40.0497 58.9344 40.1654C58.8979 40.2883 58.8032 40.7728 58.7157 41.25C58.6282 41.7272 58.4095 42.5588 58.2272 43.0938C58.0523 43.6289 57.7096 44.446 57.4836 44.9015C57.2503 45.3571 56.8713 46.0295 56.6307 46.3838C56.3901 46.7454 56.0037 47.2805 55.7631 47.5769C55.5298 47.8734 55.0341 48.4157 54.6696 48.77C54.3051 49.1315 53.7292 49.6377 53.3938 49.898C53.0512 50.1655 52.5263 50.5343 52.2274 50.7223C51.9212 50.9175 51.3015 51.2574 50.8422 51.4888C50.3757 51.7202 49.5591 52.0528 49.0197 52.2335C48.4729 52.4143 47.6418 52.6312 47.1607 52.7108C46.6795 52.7975 46.1838 52.8988 46.0671 52.9349C45.9432 52.9711 45.2069 53 44.4268 53C43.6395 53 42.9032 52.9711 42.7865 52.9349C42.6626 52.8988 42.1741 52.7975 41.693 52.7108C41.2118 52.6312 40.3735 52.4143 39.834 52.2335C39.2872 52.0528 38.4707 51.7202 38.0114 51.4888C37.5448 51.2574 36.9252 50.9175 36.6263 50.7223C36.3201 50.5343 35.7952 50.1655 35.4598 49.898C35.1172 49.6377 34.5413 49.1315 34.1768 48.77C33.8122 48.4157 33.3165 47.8734 33.0832 47.5769C32.8426 47.2805 32.4563 46.7454 32.2157 46.3838C31.9824 46.0295 31.596 45.3571 31.37 44.9015C31.1367 44.446 30.816 43.694 30.6629 43.2385C30.5025 42.7829 30.3056 42.096 30.2182 41.72C30.138 41.344 30.0213 40.6498 29.9557 40.1871C29.8974 39.7171 29.8464 38.9795 29.8464 38.5385C29.8464 38.1046 29.8974 37.3598 29.9557 36.8971C30.0213 36.4271 30.138 35.7329 30.2182 35.3569C30.3056 34.9809 30.5025 34.294 30.6629 33.8385C30.816 33.3829 31.1367 32.6309 31.37 32.1754C31.596 31.7198 31.9824 31.0546 32.2157 30.6931C32.4563 30.3388 32.8426 29.7965 33.0832 29.5C33.3165 29.2035 33.8122 28.6685 34.1768 28.3069C34.5413 27.9454 35.1172 27.4392 35.4598 27.1789C35.7952 26.9186 36.3201 26.5426 36.6263 26.3546C36.9252 26.1666 37.5448 25.8195 38.0114 25.5882C38.4707 25.364 39.2216 25.0458 39.6882 24.8868C40.1475 24.7277 40.8546 24.5325 41.2556 24.4457C41.6565 24.3589 42.3127 24.2432 42.7136 24.1926C43.1146 24.1348 43.8436 24.0914 44.3321 24.0842ZM42.0939 27.244C41.7076 27.3235 41.1389 27.4754 40.8182 27.5838C40.4974 27.6923 39.9215 27.9237 39.5424 28.1045C39.156 28.278 38.653 28.5455 38.4124 28.6902C38.1718 28.8348 37.7125 29.1457 37.3917 29.3915C37.071 29.6302 36.5461 30.0857 36.2253 30.4038C35.9045 30.722 35.438 31.2426 35.1974 31.5608C34.9568 31.8789 34.636 32.3345 34.4902 32.5731C34.3444 32.8117 34.082 33.3178 33.8997 33.6938C33.7248 34.0698 33.4915 34.6411 33.3821 34.9592C33.2728 35.2774 33.1197 35.8486 33.0395 36.2246C32.9593 36.6006 32.8718 37.2731 32.8426 37.7069C32.8135 38.148 32.8135 38.8783 32.8426 39.3338C32.8718 39.7894 32.9593 40.4763 33.0395 40.8523C33.1197 41.2283 33.2728 41.7995 33.3821 42.1177C33.4915 42.4358 33.7248 43.0071 33.8997 43.3831C34.082 43.7591 34.3444 44.2652 34.4902 44.5038C34.636 44.7425 34.9568 45.198 35.1974 45.5162C35.438 45.8343 35.9045 46.3549 36.2253 46.6731C36.5461 46.9912 37.071 47.4468 37.3917 47.6926C37.7125 47.9312 38.1718 48.2494 38.4124 48.394C38.653 48.5386 39.156 48.7989 39.5424 48.9725C39.9215 49.1532 40.4974 49.3846 40.8182 49.4931C41.1389 49.6015 41.7076 49.7534 42.0939 49.8329C42.473 49.9125 43.1437 49.9992 43.5884 50.0282C44.0259 50.0571 44.7622 50.0571 45.2287 50.0282C45.688 49.9992 46.3733 49.9125 46.7597 49.8329C47.1388 49.7534 47.7147 49.6015 48.0355 49.4931C48.3563 49.3846 48.9249 49.1532 49.3113 48.9725C49.6904 48.7989 50.2007 48.5386 50.4413 48.394C50.6818 48.2494 51.1411 47.9312 51.4546 47.6926C51.7754 47.4468 52.3003 46.9912 52.621 46.6731C52.9491 46.3549 53.4084 45.8343 53.649 45.5162C53.8968 45.198 54.2103 44.7425 54.3561 44.5038C54.5019 44.2652 54.7644 43.7591 54.9466 43.3831C55.1216 43.0071 55.3622 42.4358 55.4715 42.1177C55.5736 41.7995 55.7267 41.2283 55.8069 40.8523C55.8871 40.4763 55.9746 39.7894 56.011 39.3338C56.0402 38.8783 56.0402 38.148 56.011 37.7069C55.9746 37.2731 55.8871 36.6006 55.8069 36.2246C55.7267 35.8486 55.5736 35.2774 55.4715 34.9592C55.3622 34.6411 55.1216 34.0698 54.9466 33.6938C54.7644 33.3178 54.5019 32.8117 54.3561 32.5731C54.2103 32.3345 53.8968 31.8789 53.649 31.5608C53.4084 31.2426 52.9491 30.722 52.621 30.4038C52.3003 30.0857 51.7754 29.6302 51.4546 29.3915C51.1411 29.1457 50.6818 28.8348 50.4413 28.6902C50.2007 28.5455 49.7851 28.3286 49.53 28.1985C49.2675 28.0683 48.7718 27.8586 48.4364 27.7285C48.0938 27.5983 47.5325 27.4248 47.1971 27.3452C46.8545 27.2657 46.315 27.1645 45.9942 27.1211C45.6735 27.0849 45.1631 27.0343 44.8642 27.0271C44.558 27.0126 43.9675 27.0198 43.552 27.0488C43.1292 27.0777 42.473 27.1645 42.0939 27.244Z" fill="black" shape-rendering="crispEdges"/>
<path fill-rule="evenodd" clip-rule="evenodd" d="M28.0728 12.8407C28.2407 12.6385 28.4884 12.5196 28.7512 12.5151C29.0242 12.5104 29.2846 12.6297 29.4594 12.8394L29.7735 13.2163C30.1015 13.5995 30.8014 14.3443 31.3263 14.8577C31.8512 15.3711 32.5437 16.0074 32.8645 16.2605C33.1853 16.5135 33.7248 16.9112 34.0674 17.1354C34.41 17.3595 35.3796 17.9597 36.218 18.4658C37.0564 18.972 38.0041 19.5722 38.3249 19.7963C38.6384 20.0205 39.1049 20.3892 39.3601 20.6062C39.6153 20.8231 40.0089 21.2063 40.2276 21.4594C40.4464 21.7052 40.6286 21.9294 40.6286 21.9655C40.6286 21.9945 40.3589 22.0957 40.0308 22.1897C39.6955 22.2765 39.1779 22.45 38.879 22.5585C38.5801 22.6669 38.2739 22.7754 38.2083 22.8043C38.1062 22.8405 38.0187 22.7537 37.8365 22.4717C37.6979 22.262 37.4136 21.8788 37.1876 21.6185C36.9689 21.3582 36.5607 20.9677 36.2836 20.7435C36.0066 20.5194 35.5546 20.1868 35.2703 19.9988C34.9933 19.8108 34.4902 19.536 34.1622 19.3769C33.8268 19.2178 33.5279 19.0949 33.4842 19.1094C33.4477 19.1166 33.8122 19.4203 34.3007 19.7746C34.7891 20.1362 35.54 20.7652 35.9629 21.1846C36.2607 21.48 36.6055 21.865 36.9922 22.3802C37.2738 22.7553 37.1324 23.287 36.7138 23.4985C36.2836 23.7226 35.7223 24.0335 35.4671 24.1854C35.212 24.3445 34.7162 24.6843 34.359 24.9446C34.0018 25.2049 33.5061 25.5882 33.2509 25.8051C32.9957 26.022 32.5292 26.4631 32.2084 26.7812C31.8876 27.1066 31.37 27.6778 31.0565 28.0538C30.7431 28.4298 30.466 28.7769 30.4369 28.8131C30.4077 28.8492 30.1525 29.2252 29.8755 29.6446C29.5985 30.064 29.2048 30.7292 29.0007 31.1269C28.7966 31.5246 28.5122 32.1248 28.3664 32.4646C28.2206 32.8045 27.9873 33.4191 27.8488 33.8385C27.7285 34.2027 27.5697 34.7634 27.3533 35.6674C27.2876 35.9417 27.1037 36.1734 26.8501 36.2969C26.6314 36.4126 26.2085 36.6657 25.9242 36.8682C25.6326 37.0706 25.1369 37.49 24.8234 37.8009C24.5099 38.1046 24.0725 38.5818 23.8465 38.8638C23.0463 39.8623 22.6946 41.1395 22.6946 42.419V43.7808C22.6946 46.2971 22.6728 47.1286 22.6072 47.2009C22.5415 47.266 21.9583 47.2877 20.1795 47.2877C18.3934 47.2877 17.8248 47.266 17.7519 47.2009C17.6862 47.1286 17.6644 46.4923 17.6644 44.4315C17.6644 42.9565 17.6352 41.72 17.6061 41.6766C17.5769 41.6332 16.826 41.0114 15.9366 40.2883C15.0326 39.558 14.2453 38.9723 14.1651 38.9723C14.0849 38.9723 13.8953 39.0518 13.7495 39.1458C13.5964 39.2398 12.6997 39.7822 11.7593 40.3462C10.8188 40.9102 9.98776 41.4308 9.91486 41.4958C9.79821 41.6043 9.78363 41.814 9.79092 44.3592C9.79092 46.42 9.76905 47.1286 9.70344 47.2009C9.63783 47.266 9.17854 47.2877 7.89546 47.2877C6.61238 47.2877 6.16039 47.266 6.08748 47.2009C6.01458 47.1286 6 44.916 6 36.2246C6 26.022 6.01458 25.3351 6.13122 25.2122C6.19684 25.1398 6.34264 25.082 6.45928 25.0892C6.58322 25.0892 6.68528 25.0386 6.72902 24.9446C6.77276 24.8651 6.80193 24.2071 6.80193 23.4623C6.80193 22.3705 6.78005 22.1029 6.69257 22.0162C6.63425 21.9583 6.49574 21.9077 6.38638 21.9077C6.26974 21.9077 6.13851 21.8715 6.08748 21.8209C6.02187 21.7558 6 21.4594 6 20.8231C6 20.2085 6.02916 19.8903 6.08748 19.8325C6.15309 19.7602 7.04979 19.7385 10.0825 19.7385C12.4154 19.7385 14.0265 19.7674 14.0922 19.8108C14.1796 19.8614 14.2015 20.0638 14.2015 20.8592C14.2015 21.6546 14.1796 21.8571 14.0922 21.9077C14.0338 21.9438 13.7933 21.98 13.5673 21.98C13.2392 21.98 13.1226 22.0089 13.0569 22.1174C12.984 22.2186 12.9768 22.5657 13.0205 23.6503C13.0642 24.5397 13.1153 25.0892 13.1663 25.1471C13.2173 25.1977 13.3704 25.2555 13.5089 25.2772C13.6475 25.2917 13.7933 25.3351 13.8224 25.364C13.8516 25.3929 13.9172 26.9475 13.9609 28.8131C14.0265 31.7922 14.0484 32.226 14.1578 32.3345C14.2671 32.4429 14.4202 32.4502 15.9147 32.3851C17.3363 32.3272 17.5696 32.2983 17.6498 32.1898C17.7008 32.1248 17.7373 32.0235 17.7373 31.9802C17.7373 31.9295 17.5842 31.7126 17.4019 31.5102C17.2197 31.3005 16.8843 30.8522 16.651 30.5123C16.425 30.1725 16.1407 29.7025 16.0314 29.4638C15.9147 29.2252 15.7616 28.8492 15.6814 28.6323C15.6085 28.4154 15.4919 28.0105 15.4336 27.7285C15.3752 27.4537 15.3242 26.8608 15.3242 26.4269C15.3242 25.9642 15.3752 25.3857 15.4409 25.0531C15.5065 24.7349 15.6596 24.2288 15.7762 23.9323C15.8856 23.6358 16.148 23.1152 16.3521 22.7754C16.5563 22.4355 16.9135 21.9366 17.1395 21.6618C17.3655 21.3871 17.7373 20.9966 17.956 20.8014C18.1747 20.5989 18.6704 20.2085 19.0495 19.9265C19.4286 19.6445 20.544 18.9358 21.5282 18.3429C22.5124 17.75 23.5768 17.0848 23.8902 16.8606C24.2037 16.6292 24.7505 16.2026 25.0931 15.9062C25.4358 15.6097 26.0846 15.0095 26.522 14.5612C26.9667 14.1202 27.5499 13.4766 27.827 13.1368L28.0728 12.8407ZM44.3321 24.0842C44.8278 24.0842 45.6151 24.1275 46.0817 24.1926C46.5556 24.2505 47.2481 24.3662 47.6345 24.4529C48.0136 24.5325 48.6989 24.7277 49.1655 24.8868C49.6248 25.0458 50.3757 25.364 50.8422 25.5882C51.3015 25.8195 51.9212 26.1666 52.2274 26.3546C52.5263 26.5426 53.0512 26.9186 53.3938 27.1789C53.7292 27.4392 54.3051 27.9454 54.6696 28.3069C55.0341 28.6685 55.5298 29.2035 55.7631 29.5C56.0037 29.7965 56.3901 30.3388 56.6307 30.6931C56.8713 31.0546 57.2503 31.7198 57.4836 32.1754C57.7096 32.6309 58.0523 33.448 58.2272 33.9831C58.4095 34.5182 58.6282 35.3497 58.7157 35.8269C58.8032 36.3042 58.8979 36.7958 58.9344 36.9115C58.9708 37.0345 59 37.7648 59 38.5385C59 39.3122 58.9708 40.0497 58.9344 40.1654C58.8979 40.2883 58.8032 40.7728 58.7157 41.25C58.6282 41.7272 58.4095 42.5588 58.2272 43.0938C58.0523 43.6289 57.7096 44.446 57.4836 44.9015C57.2503 45.3571 56.8713 46.0295 56.6307 46.3838C56.3901 46.7454 56.0037 47.2805 55.7631 47.5769C55.5298 47.8734 55.0341 48.4157 54.6696 48.77C54.3051 49.1315 53.7292 49.6377 53.3938 49.898C53.0512 50.1655 52.5263 50.5343 52.2274 50.7223C51.9212 50.9175 51.3015 51.2574 50.8422 51.4888C50.3757 51.7202 49.5591 52.0528 49.0197 52.2335C48.4729 52.4143 47.6418 52.6312 47.1607 52.7108C46.6795 52.7975 46.1838 52.8988 46.0671 52.9349C45.9432 52.9711 45.2069 53 44.4268 53C43.6395 53 42.9032 52.9711 42.7865 52.9349C42.6626 52.8988 42.1741 52.7975 41.693 52.7108C41.2118 52.6312 40.3735 52.4143 39.834 52.2335C39.2872 52.0528 38.4707 51.7202 38.0114 51.4888C37.5448 51.2574 36.9252 50.9175 36.6263 50.7223C36.3201 50.5343 35.7952 50.1655 35.4598 49.898C35.1172 49.6377 34.5413 49.1315 34.1768 48.77C33.8122 48.4157 33.3165 47.8734 33.0832 47.5769C32.8426 47.2805 32.4563 46.7454 32.2157 46.3838C31.9824 46.0295 31.596 45.3571 31.37 44.9015C31.1367 44.446 30.816 43.694 30.6629 43.2385C30.5025 42.7829 30.3056 42.096 30.2182 41.72C30.138 41.344 30.0213 40.6498 29.9557 40.1871C29.8974 39.7171 29.8464 38.9795 29.8464 38.5385C29.8464 38.1046 29.8974 37.3598 29.9557 36.8971C30.0213 36.4271 30.138 35.7329 30.2182 35.3569C30.3056 34.9809 30.5025 34.294 30.6629 33.8385C30.816 33.3829 31.1367 32.6309 31.37 32.1754C31.596 31.7198 31.9824 31.0546 32.2157 30.6931C32.4563 30.3388 32.8426 29.7965 33.0832 29.5C33.3165 29.2035 33.8122 28.6685 34.1768 28.3069C34.5413 27.9454 35.1172 27.4392 35.4598 27.1789C35.7952 26.9186 36.3201 26.5426 36.6263 26.3546C36.9252 26.1666 37.5448 25.8195 38.0114 25.5882C38.4707 25.364 39.2216 25.0458 39.6882 24.8868C40.1475 24.7277 40.8546 24.5325 41.2556 24.4457C41.6565 24.3589 42.3127 24.2432 42.7136 24.1926C43.1146 24.1348 43.8436 24.0914 44.3321 24.0842ZM42.0939 27.244C41.7076 27.3235 41.1389 27.4754 40.8182 27.5838C40.4974 27.6923 39.9215 27.9237 39.5424 28.1045C39.156 28.278 38.653 28.5455 38.4124 28.6902C38.1718 28.8348 37.7125 29.1457 37.3917 29.3915C37.071 29.6302 36.5461 30.0857 36.2253 30.4038C35.9045 30.722 35.438 31.2426 35.1974 31.5608C34.9568 31.8789 34.636 32.3345 34.4902 32.5731C34.3444 32.8117 34.082 33.3178 33.8997 33.6938C33.7248 34.0698 33.4915 34.6411 33.3821 34.9592C33.2728 35.2774 33.1197 35.8486 33.0395 36.2246C32.9593 36.6006 32.8718 37.2731 32.8426 37.7069C32.8135 38.148 32.8135 38.8783 32.8426 39.3338C32.8718 39.7894 32.9593 40.4763 33.0395 40.8523C33.1197 41.2283 33.2728 41.7995 33.3821 42.1177C33.4915 42.4358 33.7248 43.0071 33.8997 43.3831C34.082 43.7591 34.3444 44.2652 34.4902 44.5038C34.636 44.7425 34.9568 45.198 35.1974 45.5162C35.438 45.8343 35.9045 46.3549 36.2253 46.6731C36.5461 46.9912 37.071 47.4468 37.3917 47.6926C37.7125 47.9312 38.1718 48.2494 38.4124 48.394C38.653 48.5386 39.156 48.7989 39.5424 48.9725C39.9215 49.1532 40.4974 49.3846 40.8182 49.4931C41.1389 49.6015 41.7076 49.7534 42.0939 49.8329C42.473 49.9125 43.1437 49.9992 43.5884 50.0282C44.0259 50.0571 44.7622 50.0571 45.2287 50.0282C45.688 49.9992 46.3733 49.9125 46.7597 49.8329C47.1388 49.7534 47.7147 49.6015 48.0355 49.4931C48.3563 49.3846 48.9249 49.1532 49.3113 48.9725C49.6904 48.7989 50.2007 48.5386 50.4413 48.394C50.6818 48.2494 51.1411 47.9312 51.4546 47.6926C51.7754 47.4468 52.3003 46.9912 52.621 46.6731C52.9491 46.3549 53.4084 45.8343 53.649 45.5162C53.8968 45.198 54.2103 44.7425 54.3561 44.5038C54.5019 44.2652 54.7644 43.7591 54.9466 43.3831C55.1216 43.0071 55.3622 42.4358 55.4715 42.1177C55.5736 41.7995 55.7267 41.2283 55.8069 40.8523C55.8871 40.4763 55.9746 39.7894 56.011 39.3338C56.0402 38.8783 56.0402 38.148 56.011 37.7069C55.9746 37.2731 55.8871 36.6006 55.8069 36.2246C55.7267 35.8486 55.5736 35.2774 55.4715 34.9592C55.3622 34.6411 55.1216 34.0698 54.9466 33.6938C54.7644 33.3178 54.5019 32.8117 54.3561 32.5731C54.2103 32.3345 53.8968 31.8789 53.649 31.5608C53.4084 31.2426 52.9491 30.722 52.621 30.4038C52.3003 30.0857 51.7754 29.6302 51.4546 29.3915C51.1411 29.1457 50.6818 28.8348 50.4413 28.6902C50.2007 28.5455 49.7851 28.3286 49.53 28.1985C49.2675 28.0683 48.7718 27.8586 48.4364 27.7285C48.0938 27.5983 47.5325 27.4248 47.1971 27.3452C46.8545 27.2657 46.315 27.1645 45.9942 27.1211C45.6735 27.0849 45.1631 27.0343 44.8642 27.0271C44.558 27.0126 43.9675 27.0198 43.552 27.0488C43.1292 27.0777 42.473 27.1645 42.0939 27.244Z" fill="url(#paint0_linear_2831_2362)" shape-rendering="crispEdges"/>
<path fill-rule="evenodd" clip-rule="evenodd" d="M28.0728 12.8407C28.2407 12.6385 28.4884 12.5196 28.7512 12.5151C29.0242 12.5104 29.2846 12.6297 29.4594 12.8394L29.7735 13.2163C30.1015 13.5995 30.8014 14.3443 31.3263 14.8577C31.8512 15.3711 32.5437 16.0074 32.8645 16.2605C33.1853 16.5135 33.7248 16.9112 34.0674 17.1354C34.41 17.3595 35.3796 17.9597 36.218 18.4658C37.0564 18.972 38.0041 19.5722 38.3249 19.7963C38.6384 20.0205 39.1049 20.3892 39.3601 20.6062C39.6153 20.8231 40.0089 21.2063 40.2276 21.4594C40.4464 21.7052 40.6286 21.9294 40.6286 21.9655C40.6286 21.9945 40.3589 22.0957 40.0308 22.1897C39.6955 22.2765 39.1779 22.45 38.879 22.5585C38.5801 22.6669 38.2739 22.7754 38.2083 22.8043C38.1062 22.8405 38.0187 22.7537 37.8365 22.4717C37.6979 22.262 37.4136 21.8788 37.1876 21.6185C36.9689 21.3582 36.5607 20.9677 36.2836 20.7435C36.0066 20.5194 35.5546 20.1868 35.2703 19.9988C34.9933 19.8108 34.4902 19.536 34.1622 19.3769C33.8268 19.2178 33.5279 19.0949 33.4842 19.1094C33.4477 19.1166 33.8122 19.4203 34.3007 19.7746C34.7891 20.1362 35.54 20.7652 35.9629 21.1846C36.2607 21.48 36.6055 21.865 36.9922 22.3802C37.2738 22.7553 37.1324 23.287 36.7138 23.4985C36.2836 23.7226 35.7223 24.0335 35.4671 24.1854C35.212 24.3445 34.7162 24.6843 34.359 24.9446C34.0018 25.2049 33.5061 25.5882 33.2509 25.8051C32.9957 26.022 32.5292 26.4631 32.2084 26.7812C31.8876 27.1066 31.37 27.6778 31.0565 28.0538C30.7431 28.4298 30.466 28.7769 30.4369 28.8131C30.4077 28.8492 30.1525 29.2252 29.8755 29.6446C29.5985 30.064 29.2048 30.7292 29.0007 31.1269C28.7966 31.5246 28.5122 32.1248 28.3664 32.4646C28.2206 32.8045 27.9873 33.4191 27.8488 33.8385C27.7285 34.2027 27.5697 34.7634 27.3533 35.6674C27.2876 35.9417 27.1037 36.1734 26.8501 36.2969C26.6314 36.4126 26.2085 36.6657 25.9242 36.8682C25.6326 37.0706 25.1369 37.49 24.8234 37.8009C24.5099 38.1046 24.0725 38.5818 23.8465 38.8638C23.0463 39.8623 22.6946 41.1395 22.6946 42.419V43.7808C22.6946 46.2971 22.6728 47.1286 22.6072 47.2009C22.5415 47.266 21.9583 47.2877 20.1795 47.2877C18.3934 47.2877 17.8248 47.266 17.7519 47.2009C17.6862 47.1286 17.6644 46.4923 17.6644 44.4315C17.6644 42.9565 17.6352 41.72 17.6061 41.6766C17.5769 41.6332 16.826 41.0114 15.9366 40.2883C15.0326 39.558 14.2453 38.9723 14.1651 38.9723C14.0849 38.9723 13.8953 39.0518 13.7495 39.1458C13.5964 39.2398 12.6997 39.7822 11.7593 40.3462C10.8188 40.9102 9.98776 41.4308 9.91486 41.4958C9.79821 41.6043 9.78363 41.814 9.79092 44.3592C9.79092 46.42 9.76905 47.1286 9.70344 47.2009C9.63783 47.266 9.17854 47.2877 7.89546 47.2877C6.61238 47.2877 6.16039 47.266 6.08748 47.2009C6.01458 47.1286 6 44.916 6 36.2246C6 26.022 6.01458 25.3351 6.13122 25.2122C6.19684 25.1398 6.34264 25.082 6.45928 25.0892C6.58322 25.0892 6.68528 25.0386 6.72902 24.9446C6.77276 24.8651 6.80193 24.2071 6.80193 23.4623C6.80193 22.3705 6.78005 22.1029 6.69257 22.0162C6.63425 21.9583 6.49574 21.9077 6.38638 21.9077C6.26974 21.9077 6.13851 21.8715 6.08748 21.8209C6.02187 21.7558 6 21.4594 6 20.8231C6 20.2085 6.02916 19.8903 6.08748 19.8325C6.15309 19.7602 7.04979 19.7385 10.0825 19.7385C12.4154 19.7385 14.0265 19.7674 14.0922 19.8108C14.1796 19.8614 14.2015 20.0638 14.2015 20.8592C14.2015 21.6546 14.1796 21.8571 14.0922 21.9077C14.0338 21.9438 13.7933 21.98 13.5673 21.98C13.2392 21.98 13.1226 22.0089 13.0569 22.1174C12.984 22.2186 12.9768 22.5657 13.0205 23.6503C13.0642 24.5397 13.1153 25.0892 13.1663 25.1471C13.2173 25.1977 13.3704 25.2555 13.5089 25.2772C13.6475 25.2917 13.7933 25.3351 13.8224 25.364C13.8516 25.3929 13.9172 26.9475 13.9609 28.8131C14.0265 31.7922 14.0484 32.226 14.1578 32.3345C14.2671 32.4429 14.4202 32.4502 15.9147 32.3851C17.3363 32.3272 17.5696 32.2983 17.6498 32.1898C17.7008 32.1248 17.7373 32.0235 17.7373 31.9802C17.7373 31.9295 17.5842 31.7126 17.4019 31.5102C17.2197 31.3005 16.8843 30.8522 16.651 30.5123C16.425 30.1725 16.1407 29.7025 16.0314 29.4638C15.9147 29.2252 15.7616 28.8492 15.6814 28.6323C15.6085 28.4154 15.4919 28.0105 15.4336 27.7285C15.3752 27.4537 15.3242 26.8608 15.3242 26.4269C15.3242 25.9642 15.3752 25.3857 15.4409 25.0531C15.5065 24.7349 15.6596 24.2288 15.7762 23.9323C15.8856 23.6358 16.148 23.1152 16.3521 22.7754C16.5563 22.4355 16.9135 21.9366 17.1395 21.6618C17.3655 21.3871 17.7373 20.9966 17.956 20.8014C18.1747 20.5989 18.6704 20.2085 19.0495 19.9265C19.4286 19.6445 20.544 18.9358 21.5282 18.3429C22.5124 17.75 23.5768 17.0848 23.8902 16.8606C24.2037 16.6292 24.7505 16.2026 25.0931 15.9062C25.4358 15.6097 26.0846 15.0095 26.522 14.5612C26.9667 14.1202 27.5499 13.4766 27.827 13.1368L28.0728 12.8407ZM44.3321 24.0842C44.8278 24.0842 45.6151 24.1275 46.0817 24.1926C46.5556 24.2505 47.2481 24.3662 47.6345 24.4529C48.0136 24.5325 48.6989 24.7277 49.1655 24.8868C49.6248 25.0458 50.3757 25.364 50.8422 25.5882C51.3015 25.8195 51.9212 26.1666 52.2274 26.3546C52.5263 26.5426 53.0512 26.9186 53.3938 27.1789C53.7292 27.4392 54.3051 27.9454 54.6696 28.3069C55.0341 28.6685 55.5298 29.2035 55.7631 29.5C56.0037 29.7965 56.3901 30.3388 56.6307 30.6931C56.8713 31.0546 57.2503 31.7198 57.4836 32.1754C57.7096 32.6309 58.0523 33.448 58.2272 33.9831C58.4095 34.5182 58.6282 35.3497 58.7157 35.8269C58.8032 36.3042 58.8979 36.7958 58.9344 36.9115C58.9708 37.0345 59 37.7648 59 38.5385C59 39.3122 58.9708 40.0497 58.9344 40.1654C58.8979 40.2883 58.8032 40.7728 58.7157 41.25C58.6282 41.7272 58.4095 42.5588 58.2272 43.0938C58.0523 43.6289 57.7096 44.446 57.4836 44.9015C57.2503 45.3571 56.8713 46.0295 56.6307 46.3838C56.3901 46.7454 56.0037 47.2805 55.7631 47.5769C55.5298 47.8734 55.0341 48.4157 54.6696 48.77C54.3051 49.1315 53.7292 49.6377 53.3938 49.898C53.0512 50.1655 52.5263 50.5343 52.2274 50.7223C51.9212 50.9175 51.3015 51.2574 50.8422 51.4888C50.3757 51.7202 49.5591 52.0528 49.0197 52.2335C48.4729 52.4143 47.6418 52.6312 47.1607 52.7108C46.6795 52.7975 46.1838 52.8988 46.0671 52.9349C45.9432 52.9711 45.2069 53 44.4268 53C43.6395 53 42.9032 52.9711 42.7865 52.9349C42.6626 52.8988 42.1741 52.7975 41.693 52.7108C41.2118 52.6312 40.3735 52.4143 39.834 52.2335C39.2872 52.0528 38.4707 51.7202 38.0114 51.4888C37.5448 51.2574 36.9252 50.9175 36.6263 50.7223C36.3201 50.5343 35.7952 50.1655 35.4598 49.898C35.1172 49.6377 34.5413 49.1315 34.1768 48.77C33.8122 48.4157 33.3165 47.8734 33.0832 47.5769C32.8426 47.2805 32.4563 46.7454 32.2157 46.3838C31.9824 46.0295 31.596 45.3571 31.37 44.9015C31.1367 44.446 30.816 43.694 30.6629 43.2385C30.5025 42.7829 30.3056 42.096 30.2182 41.72C30.138 41.344 30.0213 40.6498 29.9557 40.1871C29.8974 39.7171 29.8464 38.9795 29.8464 38.5385C29.8464 38.1046 29.8974 37.3598 29.9557 36.8971C30.0213 36.4271 30.138 35.7329 30.2182 35.3569C30.3056 34.9809 30.5025 34.294 30.6629 33.8385C30.816 33.3829 31.1367 32.6309 31.37 32.1754C31.596 31.7198 31.9824 31.0546 32.2157 30.6931C32.4563 30.3388 32.8426 29.7965 33.0832 29.5C33.3165 29.2035 33.8122 28.6685 34.1768 28.3069C34.5413 27.9454 35.1172 27.4392 35.4598 27.1789C35.7952 26.9186 36.3201 26.5426 36.6263 26.3546C36.9252 26.1666 37.5448 25.8195 38.0114 25.5882C38.4707 25.364 39.2216 25.0458 39.6882 24.8868C40.1475 24.7277 40.8546 24.5325 41.2556 24.4457C41.6565 24.3589 42.3127 24.2432 42.7136 24.1926C43.1146 24.1348 43.8436 24.0914 44.3321 24.0842ZM42.0939 27.244C41.7076 27.3235 41.1389 27.4754 40.8182 27.5838C40.4974 27.6923 39.9215 27.9237 39.5424 28.1045C39.156 28.278 38.653 28.5455 38.4124 28.6902C38.1718 28.8348 37.7125 29.1457 37.3917 29.3915C37.071 29.6302 36.5461 30.0857 36.2253 30.4038C35.9045 30.722 35.438 31.2426 35.1974 31.5608C34.9568 31.8789 34.636 32.3345 34.4902 32.5731C34.3444 32.8117 34.082 33.3178 33.8997 33.6938C33.7248 34.0698 33.4915 34.6411 33.3821 34.9592C33.2728 35.2774 33.1197 35.8486 33.0395 36.2246C32.9593 36.6006 32.8718 37.2731 32.8426 37.7069C32.8135 38.148 32.8135 38.8783 32.8426 39.3338C32.8718 39.7894 32.9593 40.4763 33.0395 40.8523C33.1197 41.2283 33.2728 41.7995 33.3821 42.1177C33.4915 42.4358 33.7248 43.0071 33.8997 43.3831C34.082 43.7591 34.3444 44.2652 34.4902 44.5038C34.636 44.7425 34.9568 45.198 35.1974 45.5162C35.438 45.8343 35.9045 46.3549 36.2253 46.6731C36.5461 46.9912 37.071 47.4468 37.3917 47.6926C37.7125 47.9312 38.1718 48.2494 38.4124 48.394C38.653 48.5386 39.156 48.7989 39.5424 48.9725C39.9215 49.1532 40.4974 49.3846 40.8182 49.4931C41.1389 49.6015 41.7076 49.7534 42.0939 49.8329C42.473 49.9125 43.1437 49.9992 43.5884 50.0282C44.0259 50.0571 44.7622 50.0571 45.2287 50.0282C45.688 49.9992 46.3733 49.9125 46.7597 49.8329C47.1388 49.7534 47.7147 49.6015 48.0355 49.4931C48.3563 49.3846 48.9249 49.1532 49.3113 48.9725C49.6904 48.7989 50.2007 48.5386 50.4413 48.394C50.6818 48.2494 51.1411 47.9312 51.4546 47.6926C51.7754 47.4468 52.3003 46.9912 52.621 46.6731C52.9491 46.3549 53.4084 45.8343 53.649 45.5162C53.8968 45.198 54.2103 44.7425 54.3561 44.5038C54.5019 44.2652 54.7644 43.7591 54.9466 43.3831C55.1216 43.0071 55.3622 42.4358 55.4715 42.1177C55.5736 41.7995 55.7267 41.2283 55.8069 40.8523C55.8871 40.4763 55.9746 39.7894 56.011 39.3338C56.0402 38.8783 56.0402 38.148 56.011 37.7069C55.9746 37.2731 55.8871 36.6006 55.8069 36.2246C55.7267 35.8486 55.5736 35.2774 55.4715 34.9592C55.3622 34.6411 55.1216 34.0698 54.9466 33.6938C54.7644 33.3178 54.5019 32.8117 54.3561 32.5731C54.2103 32.3345 53.8968 31.8789 53.649 31.5608C53.4084 31.2426 52.9491 30.722 52.621 30.4038C52.3003 30.0857 51.7754 29.6302 51.4546 29.3915C51.1411 29.1457 50.6818 28.8348 50.4413 28.6902C50.2007 28.5455 49.7851 28.3286 49.53 28.1985C49.2675 28.0683 48.7718 27.8586 48.4364 27.7285C48.0938 27.5983 47.5325 27.4248 47.1971 27.3452C46.8545 27.2657 46.315 27.1645 45.9942 27.1211C45.6735 27.0849 45.1631 27.0343 44.8642 27.0271C44.558 27.0126 43.9675 27.0198 43.552 27.0488C43.1292 27.0777 42.473 27.1645 42.0939 27.244Z" fill="url(#paint1_linear_2831_2362)" shape-rendering="crispEdges"/>
<path fill-rule="evenodd" clip-rule="evenodd" d="M28.0728 12.8407C28.2407 12.6385 28.4884 12.5196 28.7512 12.5151C29.0242 12.5104 29.2846 12.6297 29.4594 12.8394L29.7735 13.2163C30.1015 13.5995 30.8014 14.3443 31.3263 14.8577C31.8512 15.3711 32.5437 16.0074 32.8645 16.2605C33.1853 16.5135 33.7248 16.9112 34.0674 17.1354C34.41 17.3595 35.3796 17.9597 36.218 18.4658C37.0564 18.972 38.0041 19.5722 38.3249 19.7963C38.6384 20.0205 39.1049 20.3892 39.3601 20.6062C39.6153 20.8231 40.0089 21.2063 40.2276 21.4594C40.4464 21.7052 40.6286 21.9294 40.6286 21.9655C40.6286 21.9945 40.3589 22.0957 40.0308 22.1897C39.6955 22.2765 39.1779 22.45 38.879 22.5585C38.5801 22.6669 38.2739 22.7754 38.2083 22.8043C38.1062 22.8405 38.0187 22.7537 37.8365 22.4717C37.6979 22.262 37.4136 21.8788 37.1876 21.6185C36.9689 21.3582 36.5607 20.9677 36.2836 20.7435C36.0066 20.5194 35.5546 20.1868 35.2703 19.9988C34.9933 19.8108 34.4902 19.536 34.1622 19.3769C33.8268 19.2178 33.5279 19.0949 33.4842 19.1094C33.4477 19.1166 33.8122 19.4203 34.3007 19.7746C34.7891 20.1362 35.54 20.7652 35.9629 21.1846C36.2607 21.48 36.6055 21.865 36.9922 22.3802C37.2738 22.7553 37.1324 23.287 36.7138 23.4985C36.2836 23.7226 35.7223 24.0335 35.4671 24.1854C35.212 24.3445 34.7162 24.6843 34.359 24.9446C34.0018 25.2049 33.5061 25.5882 33.2509 25.8051C32.9957 26.022 32.5292 26.4631 32.2084 26.7812C31.8876 27.1066 31.37 27.6778 31.0565 28.0538C30.7431 28.4298 30.466 28.7769 30.4369 28.8131C30.4077 28.8492 30.1525 29.2252 29.8755 29.6446C29.5985 30.064 29.2048 30.7292 29.0007 31.1269C28.7966 31.5246 28.5122 32.1248 28.3664 32.4646C28.2206 32.8045 27.9873 33.4191 27.8488 33.8385C27.7285 34.2027 27.5697 34.7634 27.3533 35.6674C27.2876 35.9417 27.1037 36.1734 26.8501 36.2969C26.6314 36.4126 26.2085 36.6657 25.9242 36.8682C25.6326 37.0706 25.1369 37.49 24.8234 37.8009C24.5099 38.1046 24.0725 38.5818 23.8465 38.8638C23.0463 39.8623 22.6946 41.1395 22.6946 42.419V43.7808C22.6946 46.2971 22.6728 47.1286 22.6072 47.2009C22.5415 47.266 21.9583 47.2877 20.1795 47.2877C18.3934 47.2877 17.8248 47.266 17.7519 47.2009C17.6862 47.1286 17.6644 46.4923 17.6644 44.4315C17.6644 42.9565 17.6352 41.72 17.6061 41.6766C17.5769 41.6332 16.826 41.0114 15.9366 40.2883C15.0326 39.558 14.2453 38.9723 14.1651 38.9723C14.0849 38.9723 13.8953 39.0518 13.7495 39.1458C13.5964 39.2398 12.6997 39.7822 11.7593 40.3462C10.8188 40.9102 9.98776 41.4308 9.91486 41.4958C9.79821 41.6043 9.78363 41.814 9.79092 44.3592C9.79092 46.42 9.76905 47.1286 9.70344 47.2009C9.63783 47.266 9.17854 47.2877 7.89546 47.2877C6.61238 47.2877 6.16039 47.266 6.08748 47.2009C6.01458 47.1286 6 44.916 6 36.2246C6 26.022 6.01458 25.3351 6.13122 25.2122C6.19684 25.1398 6.34264 25.082 6.45928 25.0892C6.58322 25.0892 6.68528 25.0386 6.72902 24.9446C6.77276 24.8651 6.80193 24.2071 6.80193 23.4623C6.80193 22.3705 6.78005 22.1029 6.69257 22.0162C6.63425 21.9583 6.49574 21.9077 6.38638 21.9077C6.26974 21.9077 6.13851 21.8715 6.08748 21.8209C6.02187 21.7558 6 21.4594 6 20.8231C6 20.2085 6.02916 19.8903 6.08748 19.8325C6.15309 19.7602 7.04979 19.7385 10.0825 19.7385C12.4154 19.7385 14.0265 19.7674 14.0922 19.8108C14.1796 19.8614 14.2015 20.0638 14.2015 20.8592C14.2015 21.6546 14.1796 21.8571 14.0922 21.9077C14.0338 21.9438 13.7933 21.98 13.5673 21.98C13.2392 21.98 13.1226 22.0089 13.0569 22.1174C12.984 22.2186 12.9768 22.5657 13.0205 23.6503C13.0642 24.5397 13.1153 25.0892 13.1663 25.1471C13.2173 25.1977 13.3704 25.2555 13.5089 25.2772C13.6475 25.2917 13.7933 25.3351 13.8224 25.364C13.8516 25.3929 13.9172 26.9475 13.9609 28.8131C14.0265 31.7922 14.0484 32.226 14.1578 32.3345C14.2671 32.4429 14.4202 32.4502 15.9147 32.3851C17.3363 32.3272 17.5696 32.2983 17.6498 32.1898C17.7008 32.1248 17.7373 32.0235 17.7373 31.9802C17.7373 31.9295 17.5842 31.7126 17.4019 31.5102C17.2197 31.3005 16.8843 30.8522 16.651 30.5123C16.425 30.1725 16.1407 29.7025 16.0314 29.4638C15.9147 29.2252 15.7616 28.8492 15.6814 28.6323C15.6085 28.4154 15.4919 28.0105 15.4336 27.7285C15.3752 27.4537 15.3242 26.8608 15.3242 26.4269C15.3242 25.9642 15.3752 25.3857 15.4409 25.0531C15.5065 24.7349 15.6596 24.2288 15.7762 23.9323C15.8856 23.6358 16.148 23.1152 16.3521 22.7754C16.5563 22.4355 16.9135 21.9366 17.1395 21.6618C17.3655 21.3871 17.7373 20.9966 17.956 20.8014C18.1747 20.5989 18.6704 20.2085 19.0495 19.9265C19.4286 19.6445 20.544 18.9358 21.5282 18.3429C22.5124 17.75 23.5768 17.0848 23.8902 16.8606C24.2037 16.6292 24.7505 16.2026 25.0931 15.9062C25.4358 15.6097 26.0846 15.0095 26.522 14.5612C26.9667 14.1202 27.5499 13.4766 27.827 13.1368L28.0728 12.8407ZM44.3321 24.0842C44.8278 24.0842 45.6151 24.1275 46.0817 24.1926C46.5556 24.2505 47.2481 24.3662 47.6345 24.4529C48.0136 24.5325 48.6989 24.7277 49.1655 24.8868C49.6248 25.0458 50.3757 25.364 50.8422 25.5882C51.3015 25.8195 51.9212 26.1666 52.2274 26.3546C52.5263 26.5426 53.0512 26.9186 53.3938 27.1789C53.7292 27.4392 54.3051 27.9454 54.6696 28.3069C55.0341 28.6685 55.5298 29.2035 55.7631 29.5C56.0037 29.7965 56.3901 30.3388 56.6307 30.6931C56.8713 31.0546 57.2503 31.7198 57.4836 32.1754C57.7096 32.6309 58.0523 33.448 58.2272 33.9831C58.4095 34.5182 58.6282 35.3497 58.7157 35.8269C58.8032 36.3042 58.8979 36.7958 58.9344 36.9115C58.9708 37.0345 59 37.7648 59 38.5385C59 39.3122 58.9708 40.0497 58.9344 40.1654C58.8979 40.2883 58.8032 40.7728 58.7157 41.25C58.6282 41.7272 58.4095 42.5588 58.2272 43.0938C58.0523 43.6289 57.7096 44.446 57.4836 44.9015C57.2503 45.3571 56.8713 46.0295 56.6307 46.3838C56.3901 46.7454 56.0037 47.2805 55.7631 47.5769C55.5298 47.8734 55.0341 48.4157 54.6696 48.77C54.3051 49.1315 53.7292 49.6377 53.3938 49.898C53.0512 50.1655 52.5263 50.5343 52.2274 50.7223C51.9212 50.9175 51.3015 51.2574 50.8422 51.4888C50.3757 51.7202 49.5591 52.0528 49.0197 52.2335C48.4729 52.4143 47.6418 52.6312 47.1607 52.7108C46.6795 52.7975 46.1838 52.8988 46.0671 52.9349C45.9432 52.9711 45.2069 53 44.4268 53C43.6395 53 42.9032 52.9711 42.7865 52.9349C42.6626 52.8988 42.1741 52.7975 41.693 52.7108C41.2118 52.6312 40.3735 52.4143 39.834 52.2335C39.2872 52.0528 38.4707 51.7202 38.0114 51.4888C37.5448 51.2574 36.9252 50.9175 36.6263 50.7223C36.3201 50.5343 35.7952 50.1655 35.4598 49.898C35.1172 49.6377 34.5413 49.1315 34.1768 48.77C33.8122 48.4157 33.3165 47.8734 33.0832 47.5769C32.8426 47.2805 32.4563 46.7454 32.2157 46.3838C31.9824 46.0295 31.596 45.3571 31.37 44.9015C31.1367 44.446 30.816 43.694 30.6629 43.2385C30.5025 42.7829 30.3056 42.096 30.2182 41.72C30.138 41.344 30.0213 40.6498 29.9557 40.1871C29.8974 39.7171 29.8464 38.9795 29.8464 38.5385C29.8464 38.1046 29.8974 37.3598 29.9557 36.8971C30.0213 36.4271 30.138 35.7329 30.2182 35.3569C30.3056 34.9809 30.5025 34.294 30.6629 33.8385C30.816 33.3829 31.1367 32.6309 31.37 32.1754C31.596 31.7198 31.9824 31.0546 32.2157 30.6931C32.4563 30.3388 32.8426 29.7965 33.0832 29.5C33.3165 29.2035 33.8122 28.6685 34.1768 28.3069C34.5413 27.9454 35.1172 27.4392 35.4598 27.1789C35.7952 26.9186 36.3201 26.5426 36.6263 26.3546C36.9252 26.1666 37.5448 25.8195 38.0114 25.5882C38.4707 25.364 39.2216 25.0458 39.6882 24.8868C40.1475 24.7277 40.8546 24.5325 41.2556 24.4457C41.6565 24.3589 42.3127 24.2432 42.7136 24.1926C43.1146 24.1348 43.8436 24.0914 44.3321 24.0842ZM42.0939 27.244C41.7076 27.3235 41.1389 27.4754 40.8182 27.5838C40.4974 27.6923 39.9215 27.9237 39.5424 28.1045C39.156 28.278 38.653 28.5455 38.4124 28.6902C38.1718 28.8348 37.7125 29.1457 37.3917 29.3915C37.071 29.6302 36.5461 30.0857 36.2253 30.4038C35.9045 30.722 35.438 31.2426 35.1974 31.5608C34.9568 31.8789 34.636 32.3345 34.4902 32.5731C34.3444 32.8117 34.082 33.3178 33.8997 33.6938C33.7248 34.0698 33.4915 34.6411 33.3821 34.9592C33.2728 35.2774 33.1197 35.8486 33.0395 36.2246C32.9593 36.6006 32.8718 37.2731 32.8426 37.7069C32.8135 38.148 32.8135 38.8783 32.8426 39.3338C32.8718 39.7894 32.9593 40.4763 33.0395 40.8523C33.1197 41.2283 33.2728 41.7995 33.3821 42.1177C33.4915 42.4358 33.7248 43.0071 33.8997 43.3831C34.082 43.7591 34.3444 44.2652 34.4902 44.5038C34.636 44.7425 34.9568 45.198 35.1974 45.5162C35.438 45.8343 35.9045 46.3549 36.2253 46.6731C36.5461 46.9912 37.071 47.4468 37.3917 47.6926C37.7125 47.9312 38.1718 48.2494 38.4124 48.394C38.653 48.5386 39.156 48.7989 39.5424 48.9725C39.9215 49.1532 40.4974 49.3846 40.8182 49.4931C41.1389 49.6015 41.7076 49.7534 42.0939 49.8329C42.473 49.9125 43.1437 49.9992 43.5884 50.0282C44.0259 50.0571 44.7622 50.0571 45.2287 50.0282C45.688 49.9992 46.3733 49.9125 46.7597 49.8329C47.1388 49.7534 47.7147 49.6015 48.0355 49.4931C48.3563 49.3846 48.9249 49.1532 49.3113 48.9725C49.6904 48.7989 50.2007 48.5386 50.4413 48.394C50.6818 48.2494 51.1411 47.9312 51.4546 47.6926C51.7754 47.4468 52.3003 46.9912 52.621 46.6731C52.9491 46.3549 53.4084 45.8343 53.649 45.5162C53.8968 45.198 54.2103 44.7425 54.3561 44.5038C54.5019 44.2652 54.7644 43.7591 54.9466 43.3831C55.1216 43.0071 55.3622 42.4358 55.4715 42.1177C55.5736 41.7995 55.7267 41.2283 55.8069 40.8523C55.8871 40.4763 55.9746 39.7894 56.011 39.3338C56.0402 38.8783 56.0402 38.148 56.011 37.7069C55.9746 37.2731 55.8871 36.6006 55.8069 36.2246C55.7267 35.8486 55.5736 35.2774 55.4715 34.9592C55.3622 34.6411 55.1216 34.0698 54.9466 33.6938C54.7644 33.3178 54.5019 32.8117 54.3561 32.5731C54.2103 32.3345 53.8968 31.8789 53.649 31.5608C53.4084 31.2426 52.9491 30.722 52.621 30.4038C52.3003 30.0857 51.7754 29.6302 51.4546 29.3915C51.1411 29.1457 50.6818 28.8348 50.4413 28.6902C50.2007 28.5455 49.7851 28.3286 49.53 28.1985C49.2675 28.0683 48.7718 27.8586 48.4364 27.7285C48.0938 27.5983 47.5325 27.4248 47.1971 27.3452C46.8545 27.2657 46.315 27.1645 45.9942 27.1211C45.6735 27.0849 45.1631 27.0343 44.8642 27.0271C44.558 27.0126 43.9675 27.0198 43.552 27.0488C43.1292 27.0777 42.473 27.1645 42.0939 27.244Z" fill="#4C7380" shape-rendering="crispEdges"/>
<path fill-rule="evenodd" clip-rule="evenodd" d="M27.5281 6C27.5572 6 27.5791 6.01446 27.5791 6.03615C27.5791 6.05785 27.4697 6.19523 27.3385 6.35431C27.2146 6.50615 27.0177 6.81708 26.9011 7.04123C26.7917 7.26538 26.6678 7.61969 26.6241 7.82215C26.573 8.03185 26.5585 8.45123 26.573 8.74769C26.6022 9.15985 26.6678 9.41292 26.8574 9.82508C27.0323 10.1938 27.2292 10.4686 27.5062 10.7362C27.7395 10.9603 28.1186 11.2206 28.4175 11.358C28.8403 11.5532 29.0371 11.6038 29.5475 11.6255C29.9922 11.6472 30.2911 11.6255 30.6045 11.5315C30.8451 11.4665 31.195 11.3291 31.3846 11.2351C31.6122 11.1264 31.6712 11.222 31.4915 11.3989C31.4598 11.4302 31.4263 11.4625 31.3919 11.4954C31.2023 11.6689 30.8305 11.9148 30.5681 12.0305C30.1817 12.2112 29.9776 12.2546 29.4381 12.2763C28.9642 12.298 28.6653 12.2763 28.3446 12.1823C28.104 12.1172 27.7468 11.9726 27.5499 11.8714C27.3604 11.7629 27.0105 11.4809 26.7772 11.2423C26.5512 11.0037 26.2741 10.6277 26.1575 10.4108C26.0481 10.1938 25.9096 9.78892 25.8513 9.50692C25.7857 9.17431 25.7638 8.84892 25.8003 8.56692C25.8294 8.32831 25.9023 7.96677 25.9752 7.77154C26.0409 7.56908 26.1794 7.27985 26.2814 7.12077C26.3835 6.96169 26.6168 6.70138 26.7845 6.53508C26.9594 6.36877 27.1854 6.188 27.2875 6.11569C27.3895 6.05062 27.4916 6 27.5208 6H27.5281ZM28.658 8.16923C28.6945 8.16923 28.7966 8.24877 28.8986 8.35C29.0233 8.47362 29.0863 8.50991 29.3579 8.47243C29.471 8.45684 29.5555 8.57774 29.4964 8.67538C29.3579 8.90677 29.3506 8.95015 29.4527 9.12369C29.511 9.23938 29.5547 9.34785 29.5547 9.37677C29.5547 9.41292 29.4308 9.42015 29.2777 9.41292C29.0736 9.39123 28.9715 9.42738 28.8622 9.53585C28.8478 9.55139 28.8332 9.56647 28.8187 9.58071C28.7252 9.67253 28.607 9.63795 28.607 9.50692C28.607 9.40569 28.5414 9.26108 28.4612 9.18154C28.381 9.102 28.2644 9.03692 28.2061 9.03692C28.1477 9.03692 28.0967 9.01523 28.0967 8.97908C28.0967 8.95015 28.2133 8.85615 28.3519 8.76215C28.5487 8.63923 28.607 8.55246 28.607 8.38615C28.607 8.27046 28.6289 8.16923 28.658 8.16923ZM10.0971 8.97908C10.1336 8.99354 10.4762 9.27554 10.8626 9.61538C11.249 9.95523 11.7884 10.4758 12.0582 10.7723C12.3279 11.0688 12.6997 11.5243 12.8966 11.7846C13.0861 12.0449 13.3486 12.4715 13.4871 12.7391C13.6256 13.0138 13.786 13.4332 13.8516 13.6791C13.9318 13.9972 13.9609 14.272 13.9245 14.5829C13.9026 14.836 13.8151 15.1758 13.7349 15.3422C13.662 15.5157 13.4652 15.7977 13.3121 15.9785C13.2796 16.0151 13.2436 16.0529 13.2033 16.0917C12.8174 16.4642 12.4956 16.9264 12.4956 17.4628C12.4956 18.2786 11.8311 18.9383 11.0153 18.9325L8.43067 18.9139C7.89238 18.91 7.45805 18.4726 7.45805 17.9343V17.5378C7.45805 17.2157 7.71916 16.9546 8.04127 16.9546C8.47868 16.9546 8.60261 16.9329 8.537 16.8751C8.48597 16.8245 8.20165 16.7232 7.90275 16.6365C7.56011 16.5352 7.21747 16.3762 6.99147 16.2098C6.78735 16.058 6.54677 15.7905 6.45199 15.6169C6.34993 15.4289 6.26245 15.1252 6.24058 14.8938C6.226 14.648 6.26245 14.3154 6.33535 14.0262C6.40096 13.7658 6.57593 13.332 6.71444 13.05C6.86025 12.768 7.12999 12.3197 7.31953 12.0377C7.50908 11.7557 7.91004 11.2351 8.20894 10.8808C8.50784 10.5265 9.04003 9.94077 9.39725 9.59369C9.74718 9.24662 10.0607 8.96462 10.0971 8.97908ZM42.9734 32.4035C42.9708 31.799 43.4601 31.3077 44.0646 31.3077C44.6673 31.3077 45.1558 31.7963 45.1558 32.3989V36.0951C45.1558 37.7886 46.0505 39.3561 47.5087 40.2173L48.0574 40.5414C49.1209 41.1705 50.1356 41.7736 50.8674 42.2144C51.3388 42.4983 51.4823 43.1107 51.1922 43.5783C50.9078 44.0483 50.6381 44.4677 50.5944 44.5183C50.545 44.5734 49.8693 44.1987 45.6651 41.6419C44.0117 40.6364 43.0003 38.8422 42.9922 36.9071L42.9734 32.4035Z" fill="black" shape-rendering="crispEdges"/>
<path fill-rule="evenodd" clip-rule="evenodd" d="M27.5281 6C27.5572 6 27.5791 6.01446 27.5791 6.03615C27.5791 6.05785 27.4697 6.19523 27.3385 6.35431C27.2146 6.50615 27.0177 6.81708 26.9011 7.04123C26.7917 7.26538 26.6678 7.61969 26.6241 7.82215C26.573 8.03185 26.5585 8.45123 26.573 8.74769C26.6022 9.15985 26.6678 9.41292 26.8574 9.82508C27.0323 10.1938 27.2292 10.4686 27.5062 10.7362C27.7395 10.9603 28.1186 11.2206 28.4175 11.358C28.8403 11.5532 29.0371 11.6038 29.5475 11.6255C29.9922 11.6472 30.2911 11.6255 30.6045 11.5315C30.8451 11.4665 31.195 11.3291 31.3846 11.2351C31.6122 11.1264 31.6712 11.222 31.4915 11.3989C31.4598 11.4302 31.4263 11.4625 31.3919 11.4954C31.2023 11.6689 30.8305 11.9148 30.5681 12.0305C30.1817 12.2112 29.9776 12.2546 29.4381 12.2763C28.9642 12.298 28.6653 12.2763 28.3446 12.1823C28.104 12.1172 27.7468 11.9726 27.5499 11.8714C27.3604 11.7629 27.0105 11.4809 26.7772 11.2423C26.5512 11.0037 26.2741 10.6277 26.1575 10.4108C26.0481 10.1938 25.9096 9.78892 25.8513 9.50692C25.7857 9.17431 25.7638 8.84892 25.8003 8.56692C25.8294 8.32831 25.9023 7.96677 25.9752 7.77154C26.0409 7.56908 26.1794 7.27985 26.2814 7.12077C26.3835 6.96169 26.6168 6.70138 26.7845 6.53508C26.9594 6.36877 27.1854 6.188 27.2875 6.11569C27.3895 6.05062 27.4916 6 27.5208 6H27.5281ZM28.658 8.16923C28.6945 8.16923 28.7966 8.24877 28.8986 8.35C29.0233 8.47362 29.0863 8.50991 29.3579 8.47243C29.471 8.45684 29.5555 8.57774 29.4964 8.67538C29.3579 8.90677 29.3506 8.95015 29.4527 9.12369C29.511 9.23938 29.5547 9.34785 29.5547 9.37677C29.5547 9.41292 29.4308 9.42015 29.2777 9.41292C29.0736 9.39123 28.9715 9.42738 28.8622 9.53585C28.8478 9.55139 28.8332 9.56647 28.8187 9.58071C28.7252 9.67253 28.607 9.63795 28.607 9.50692C28.607 9.40569 28.5414 9.26108 28.4612 9.18154C28.381 9.102 28.2644 9.03692 28.2061 9.03692C28.1477 9.03692 28.0967 9.01523 28.0967 8.97908C28.0967 8.95015 28.2133 8.85615 28.3519 8.76215C28.5487 8.63923 28.607 8.55246 28.607 8.38615C28.607 8.27046 28.6289 8.16923 28.658 8.16923ZM10.0971 8.97908C10.1336 8.99354 10.4762 9.27554 10.8626 9.61538C11.249 9.95523 11.7884 10.4758 12.0582 10.7723C12.3279 11.0688 12.6997 11.5243 12.8966 11.7846C13.0861 12.0449 13.3486 12.4715 13.4871 12.7391C13.6256 13.0138 13.786 13.4332 13.8516 13.6791C13.9318 13.9972 13.9609 14.272 13.9245 14.5829C13.9026 14.836 13.8151 15.1758 13.7349 15.3422C13.662 15.5157 13.4652 15.7977 13.3121 15.9785C13.2796 16.0151 13.2436 16.0529 13.2033 16.0917C12.8174 16.4642 12.4956 16.9264 12.4956 17.4628C12.4956 18.2786 11.8311 18.9383 11.0153 18.9325L8.43067 18.9139C7.89238 18.91 7.45805 18.4726 7.45805 17.9343V17.5378C7.45805 17.2157 7.71916 16.9546 8.04127 16.9546C8.47868 16.9546 8.60261 16.9329 8.537 16.8751C8.48597 16.8245 8.20165 16.7232 7.90275 16.6365C7.56011 16.5352 7.21747 16.3762 6.99147 16.2098C6.78735 16.058 6.54677 15.7905 6.45199 15.6169C6.34993 15.4289 6.26245 15.1252 6.24058 14.8938C6.226 14.648 6.26245 14.3154 6.33535 14.0262C6.40096 13.7658 6.57593 13.332 6.71444 13.05C6.86025 12.768 7.12999 12.3197 7.31953 12.0377C7.50908 11.7557 7.91004 11.2351 8.20894 10.8808C8.50784 10.5265 9.04003 9.94077 9.39725 9.59369C9.74718 9.24662 10.0607 8.96462 10.0971 8.97908ZM42.9734 32.4035C42.9708 31.799 43.4601 31.3077 44.0646 31.3077C44.6673 31.3077 45.1558 31.7963 45.1558 32.3989V36.0951C45.1558 37.7886 46.0505 39.3561 47.5087 40.2173L48.0574 40.5414C49.1209 41.1705 50.1356 41.7736 50.8674 42.2144C51.3388 42.4983 51.4823 43.1107 51.1922 43.5783C50.9078 44.0483 50.6381 44.4677 50.5944 44.5183C50.545 44.5734 49.8693 44.1987 45.6651 41.6419C44.0117 40.6364 43.0003 38.8422 42.9922 36.9071L42.9734 32.4035Z" fill="url(#paint2_linear_2831_2362)" shape-rendering="crispEdges"/>
<path fill-rule="evenodd" clip-rule="evenodd" d="M27.5281 6C27.5572 6 27.5791 6.01446 27.5791 6.03615C27.5791 6.05785 27.4697 6.19523 27.3385 6.35431C27.2146 6.50615 27.0177 6.81708 26.9011 7.04123C26.7917 7.26538 26.6678 7.61969 26.6241 7.82215C26.573 8.03185 26.5585 8.45123 26.573 8.74769C26.6022 9.15985 26.6678 9.41292 26.8574 9.82508C27.0323 10.1938 27.2292 10.4686 27.5062 10.7362C27.7395 10.9603 28.1186 11.2206 28.4175 11.358C28.8403 11.5532 29.0371 11.6038 29.5475 11.6255C29.9922 11.6472 30.2911 11.6255 30.6045 11.5315C30.8451 11.4665 31.195 11.3291 31.3846 11.2351C31.6122 11.1264 31.6712 11.222 31.4915 11.3989C31.4598 11.4302 31.4263 11.4625 31.3919 11.4954C31.2023 11.6689 30.8305 11.9148 30.5681 12.0305C30.1817 12.2112 29.9776 12.2546 29.4381 12.2763C28.9642 12.298 28.6653 12.2763 28.3446 12.1823C28.104 12.1172 27.7468 11.9726 27.5499 11.8714C27.3604 11.7629 27.0105 11.4809 26.7772 11.2423C26.5512 11.0037 26.2741 10.6277 26.1575 10.4108C26.0481 10.1938 25.9096 9.78892 25.8513 9.50692C25.7857 9.17431 25.7638 8.84892 25.8003 8.56692C25.8294 8.32831 25.9023 7.96677 25.9752 7.77154C26.0409 7.56908 26.1794 7.27985 26.2814 7.12077C26.3835 6.96169 26.6168 6.70138 26.7845 6.53508C26.9594 6.36877 27.1854 6.188 27.2875 6.11569C27.3895 6.05062 27.4916 6 27.5208 6H27.5281ZM28.658 8.16923C28.6945 8.16923 28.7966 8.24877 28.8986 8.35C29.0233 8.47362 29.0863 8.50991 29.3579 8.47243C29.471 8.45684 29.5555 8.57774 29.4964 8.67538C29.3579 8.90677 29.3506 8.95015 29.4527 9.12369C29.511 9.23938 29.5547 9.34785 29.5547 9.37677C29.5547 9.41292 29.4308 9.42015 29.2777 9.41292C29.0736 9.39123 28.9715 9.42738 28.8622 9.53585C28.8478 9.55139 28.8332 9.56647 28.8187 9.58071C28.7252 9.67253 28.607 9.63795 28.607 9.50692C28.607 9.40569 28.5414 9.26108 28.4612 9.18154C28.381 9.102 28.2644 9.03692 28.2061 9.03692C28.1477 9.03692 28.0967 9.01523 28.0967 8.97908C28.0967 8.95015 28.2133 8.85615 28.3519 8.76215C28.5487 8.63923 28.607 8.55246 28.607 8.38615C28.607 8.27046 28.6289 8.16923 28.658 8.16923ZM10.0971 8.97908C10.1336 8.99354 10.4762 9.27554 10.8626 9.61538C11.249 9.95523 11.7884 10.4758 12.0582 10.7723C12.3279 11.0688 12.6997 11.5243 12.8966 11.7846C13.0861 12.0449 13.3486 12.4715 13.4871 12.7391C13.6256 13.0138 13.786 13.4332 13.8516 13.6791C13.9318 13.9972 13.9609 14.272 13.9245 14.5829C13.9026 14.836 13.8151 15.1758 13.7349 15.3422C13.662 15.5157 13.4652 15.7977 13.3121 15.9785C13.2796 16.0151 13.2436 16.0529 13.2033 16.0917C12.8174 16.4642 12.4956 16.9264 12.4956 17.4628C12.4956 18.2786 11.8311 18.9383 11.0153 18.9325L8.43067 18.9139C7.89238 18.91 7.45805 18.4726 7.45805 17.9343V17.5378C7.45805 17.2157 7.71916 16.9546 8.04127 16.9546C8.47868 16.9546 8.60261 16.9329 8.537 16.8751C8.48597 16.8245 8.20165 16.7232 7.90275 16.6365C7.56011 16.5352 7.21747 16.3762 6.99147 16.2098C6.78735 16.058 6.54677 15.7905 6.45199 15.6169C6.34993 15.4289 6.26245 15.1252 6.24058 14.8938C6.226 14.648 6.26245 14.3154 6.33535 14.0262C6.40096 13.7658 6.57593 13.332 6.71444 13.05C6.86025 12.768 7.12999 12.3197 7.31953 12.0377C7.50908 11.7557 7.91004 11.2351 8.20894 10.8808C8.50784 10.5265 9.04003 9.94077 9.39725 9.59369C9.74718 9.24662 10.0607 8.96462 10.0971 8.97908ZM42.9734 32.4035C42.9708 31.799 43.4601 31.3077 44.0646 31.3077C44.6673 31.3077 45.1558 31.7963 45.1558 32.3989V36.0951C45.1558 37.7886 46.0505 39.3561 47.5087 40.2173L48.0574 40.5414C49.1209 41.1705 50.1356 41.7736 50.8674 42.2144C51.3388 42.4983 51.4823 43.1107 51.1922 43.5783C50.9078 44.0483 50.6381 44.4677 50.5944 44.5183C50.545 44.5734 49.8693 44.1987 45.6651 41.6419C44.0117 40.6364 43.0003 38.8422 42.9922 36.9071L42.9734 32.4035Z" fill="url(#paint3_linear_2831_2362)" shape-rendering="crispEdges"/>
<path fill-rule="evenodd" clip-rule="evenodd" d="M27.5281 6C27.5572 6 27.5791 6.01446 27.5791 6.03615C27.5791 6.05785 27.4697 6.19523 27.3385 6.35431C27.2146 6.50615 27.0177 6.81708 26.9011 7.04123C26.7917 7.26538 26.6678 7.61969 26.6241 7.82215C26.573 8.03185 26.5585 8.45123 26.573 8.74769C26.6022 9.15985 26.6678 9.41292 26.8574 9.82508C27.0323 10.1938 27.2292 10.4686 27.5062 10.7362C27.7395 10.9603 28.1186 11.2206 28.4175 11.358C28.8403 11.5532 29.0371 11.6038 29.5475 11.6255C29.9922 11.6472 30.2911 11.6255 30.6045 11.5315C30.8451 11.4665 31.195 11.3291 31.3846 11.2351C31.6122 11.1264 31.6712 11.222 31.4915 11.3989C31.4598 11.4302 31.4263 11.4625 31.3919 11.4954C31.2023 11.6689 30.8305 11.9148 30.5681 12.0305C30.1817 12.2112 29.9776 12.2546 29.4381 12.2763C28.9642 12.298 28.6653 12.2763 28.3446 12.1823C28.104 12.1172 27.7468 11.9726 27.5499 11.8714C27.3604 11.7629 27.0105 11.4809 26.7772 11.2423C26.5512 11.0037 26.2741 10.6277 26.1575 10.4108C26.0481 10.1938 25.9096 9.78892 25.8513 9.50692C25.7857 9.17431 25.7638 8.84892 25.8003 8.56692C25.8294 8.32831 25.9023 7.96677 25.9752 7.77154C26.0409 7.56908 26.1794 7.27985 26.2814 7.12077C26.3835 6.96169 26.6168 6.70138 26.7845 6.53508C26.9594 6.36877 27.1854 6.188 27.2875 6.11569C27.3895 6.05062 27.4916 6 27.5208 6H27.5281ZM28.658 8.16923C28.6945 8.16923 28.7966 8.24877 28.8986 8.35C29.0233 8.47362 29.0863 8.50991 29.3579 8.47243C29.471 8.45684 29.5555 8.57774 29.4964 8.67538C29.3579 8.90677 29.3506 8.95015 29.4527 9.12369C29.511 9.23938 29.5547 9.34785 29.5547 9.37677C29.5547 9.41292 29.4308 9.42015 29.2777 9.41292C29.0736 9.39123 28.9715 9.42738 28.8622 9.53585C28.8478 9.55139 28.8332 9.56647 28.8187 9.58071C28.7252 9.67253 28.607 9.63795 28.607 9.50692C28.607 9.40569 28.5414 9.26108 28.4612 9.18154C28.381 9.102 28.2644 9.03692 28.2061 9.03692C28.1477 9.03692 28.0967 9.01523 28.0967 8.97908C28.0967 8.95015 28.2133 8.85615 28.3519 8.76215C28.5487 8.63923 28.607 8.55246 28.607 8.38615C28.607 8.27046 28.6289 8.16923 28.658 8.16923ZM10.0971 8.97908C10.1336 8.99354 10.4762 9.27554 10.8626 9.61538C11.249 9.95523 11.7884 10.4758 12.0582 10.7723C12.3279 11.0688 12.6997 11.5243 12.8966 11.7846C13.0861 12.0449 13.3486 12.4715 13.4871 12.7391C13.6256 13.0138 13.786 13.4332 13.8516 13.6791C13.9318 13.9972 13.9609 14.272 13.9245 14.5829C13.9026 14.836 13.8151 15.1758 13.7349 15.3422C13.662 15.5157 13.4652 15.7977 13.3121 15.9785C13.2796 16.0151 13.2436 16.0529 13.2033 16.0917C12.8174 16.4642 12.4956 16.9264 12.4956 17.4628C12.4956 18.2786 11.8311 18.9383 11.0153 18.9325L8.43067 18.9139C7.89238 18.91 7.45805 18.4726 7.45805 17.9343V17.5378C7.45805 17.2157 7.71916 16.9546 8.04127 16.9546C8.47868 16.9546 8.60261 16.9329 8.537 16.8751C8.48597 16.8245 8.20165 16.7232 7.90275 16.6365C7.56011 16.5352 7.21747 16.3762 6.99147 16.2098C6.78735 16.058 6.54677 15.7905 6.45199 15.6169C6.34993 15.4289 6.26245 15.1252 6.24058 14.8938C6.226 14.648 6.26245 14.3154 6.33535 14.0262C6.40096 13.7658 6.57593 13.332 6.71444 13.05C6.86025 12.768 7.12999 12.3197 7.31953 12.0377C7.50908 11.7557 7.91004 11.2351 8.20894 10.8808C8.50784 10.5265 9.04003 9.94077 9.39725 9.59369C9.74718 9.24662 10.0607 8.96462 10.0971 8.97908ZM42.9734 32.4035C42.9708 31.799 43.4601 31.3077 44.0646 31.3077C44.6673 31.3077 45.1558 31.7963 45.1558 32.3989V36.0951C45.1558 37.7886 46.0505 39.3561 47.5087 40.2173L48.0574 40.5414C49.1209 41.1705 50.1356 41.7736 50.8674 42.2144C51.3388 42.4983 51.4823 43.1107 51.1922 43.5783C50.9078 44.0483 50.6381 44.4677 50.5944 44.5183C50.545 44.5734 49.8693 44.1987 45.6651 41.6419C44.0117 40.6364 43.0003 38.8422 42.9922 36.9071L42.9734 32.4035Z" fill="#4C7380" shape-rendering="crispEdges"/>
<path fill-rule="evenodd" clip-rule="evenodd" d="M28.0728 12.8407C28.2407 12.6385 28.4884 12.5196 28.7512 12.5151C29.0242 12.5104 29.2846 12.6297 29.4594 12.8394L29.7735 13.2163C30.1015 13.5995 30.8014 14.3443 31.3263 14.8577C31.8512 15.3711 32.5437 16.0074 32.8645 16.2605C33.1853 16.5135 33.7248 16.9112 34.0674 17.1354C34.41 17.3595 35.3796 17.9597 36.218 18.4658C37.0564 18.972 38.0041 19.5722 38.3249 19.7963C38.6384 20.0205 39.1049 20.3892 39.3601 20.6062C39.6153 20.8231 40.0089 21.2063 40.2276 21.4594C40.4464 21.7052 40.6286 21.9294 40.6286 21.9655C40.6286 21.9945 40.3589 22.0957 40.0308 22.1897C39.6955 22.2765 39.1779 22.45 38.879 22.5585C38.5801 22.6669 38.2739 22.7754 38.2083 22.8043C38.1062 22.8405 38.0187 22.7537 37.8365 22.4717C37.6979 22.262 37.4136 21.8788 37.1876 21.6185C36.9689 21.3582 36.5607 20.9677 36.2836 20.7435C36.0066 20.5194 35.5546 20.1868 35.2703 19.9988C34.9933 19.8108 34.4902 19.536 34.1622 19.3769C33.8268 19.2178 33.5279 19.0949 33.4842 19.1094C33.4477 19.1166 33.8122 19.4203 34.3007 19.7746C34.7891 20.1362 35.54 20.7652 35.9629 21.1846C36.2607 21.48 36.6055 21.865 36.9922 22.3802C37.2738 22.7553 37.1324 23.287 36.7138 23.4985C36.2836 23.7226 35.7223 24.0335 35.4671 24.1854C35.212 24.3445 34.7162 24.6843 34.359 24.9446C34.0018 25.2049 33.5061 25.5882 33.2509 25.8051C32.9957 26.022 32.5292 26.4631 32.2084 26.7812C31.8876 27.1066 31.37 27.6778 31.0565 28.0538C30.7431 28.4298 30.466 28.7769 30.4369 28.8131C30.4077 28.8492 30.1525 29.2252 29.8755 29.6446C29.5985 30.064 29.2048 30.7292 29.0007 31.1269C28.7966 31.5246 28.5122 32.1248 28.3664 32.4646C28.2206 32.8045 27.9873 33.4191 27.8488 33.8385C27.7285 34.2027 27.5697 34.7634 27.3533 35.6674C27.2876 35.9417 27.1037 36.1734 26.8501 36.2969C26.6314 36.4126 26.2085 36.6657 25.9242 36.8682C25.6326 37.0706 25.1369 37.49 24.8234 37.8009C24.5099 38.1046 24.0725 38.5818 23.8465 38.8638C23.0463 39.8623 22.6946 41.1395 22.6946 42.419V43.7808C22.6946 46.2971 22.6728 47.1286 22.6072 47.2009C22.5415 47.266 21.9583 47.2877 20.1795 47.2877C18.3934 47.2877 17.8248 47.266 17.7519 47.2009C17.6862 47.1286 17.6644 46.4923 17.6644 44.4315C17.6644 42.9565 17.6352 41.72 17.6061 41.6766C17.5769 41.6332 16.826 41.0114 15.9366 40.2883C15.0326 39.558 14.2453 38.9723 14.1651 38.9723C14.0849 38.9723 13.8953 39.0518 13.7495 39.1458C13.5964 39.2398 12.6997 39.7822 11.7593 40.3462C10.8188 40.9102 9.98776 41.4308 9.91486 41.4958C9.79821 41.6043 9.78363 41.814 9.79092 44.3592C9.79092 46.42 9.76905 47.1286 9.70344 47.2009C9.63783 47.266 9.17854 47.2877 7.89546 47.2877C6.61238 47.2877 6.16039 47.266 6.08748 47.2009C6.01458 47.1286 6 44.916 6 36.2246C6 26.022 6.01458 25.3351 6.13122 25.2122C6.19684 25.1398 6.34264 25.082 6.45928 25.0892C6.58322 25.0892 6.68528 25.0386 6.72902 24.9446C6.77276 24.8651 6.80193 24.2071 6.80193 23.4623C6.80193 22.3705 6.78005 22.1029 6.69257 22.0162C6.63425 21.9583 6.49574 21.9077 6.38638 21.9077C6.26974 21.9077 6.13851 21.8715 6.08748 21.8209C6.02187 21.7558 6 21.4594 6 20.8231C6 20.2085 6.02916 19.8903 6.08748 19.8325C6.15309 19.7602 7.04979 19.7385 10.0825 19.7385C12.4154 19.7385 14.0265 19.7674 14.0922 19.8108C14.1796 19.8614 14.2015 20.0638 14.2015 20.8592C14.2015 21.6546 14.1796 21.8571 14.0922 21.9077C14.0338 21.9438 13.7933 21.98 13.5673 21.98C13.2392 21.98 13.1226 22.0089 13.0569 22.1174C12.984 22.2186 12.9768 22.5657 13.0205 23.6503C13.0642 24.5397 13.1153 25.0892 13.1663 25.1471C13.2173 25.1977 13.3704 25.2555 13.5089 25.2772C13.6475 25.2917 13.7933 25.3351 13.8224 25.364C13.8516 25.3929 13.9172 26.9475 13.9609 28.8131C14.0265 31.7922 14.0484 32.226 14.1578 32.3345C14.2671 32.4429 14.4202 32.4502 15.9147 32.3851C17.3363 32.3272 17.5696 32.2983 17.6498 32.1898C17.7008 32.1248 17.7373 32.0235 17.7373 31.9802C17.7373 31.9295 17.5842 31.7126 17.4019 31.5102C17.2197 31.3005 16.8843 30.8522 16.651 30.5123C16.425 30.1725 16.1407 29.7025 16.0314 29.4638C15.9147 29.2252 15.7616 28.8492 15.6814 28.6323C15.6085 28.4154 15.4919 28.0105 15.4336 27.7285C15.3752 27.4537 15.3242 26.8608 15.3242 26.4269C15.3242 25.9642 15.3752 25.3857 15.4409 25.0531C15.5065 24.7349 15.6596 24.2288 15.7762 23.9323C15.8856 23.6358 16.148 23.1152 16.3521 22.7754C16.5563 22.4355 16.9135 21.9366 17.1395 21.6618C17.3655 21.3871 17.7373 20.9966 17.956 20.8014C18.1747 20.5989 18.6704 20.2085 19.0495 19.9265C19.4286 19.6445 20.544 18.9358 21.5282 18.3429C22.5124 17.75 23.5768 17.0848 23.8902 16.8606C24.2037 16.6292 24.7505 16.2026 25.0931 15.9062C25.4358 15.6097 26.0846 15.0095 26.522 14.5612C26.9667 14.1202 27.5499 13.4766 27.827 13.1368L28.0728 12.8407ZM44.3321 24.0842C44.8278 24.0842 45.6151 24.1275 46.0817 24.1926C46.5556 24.2505 47.2481 24.3662 47.6345 24.4529C48.0136 24.5325 48.6989 24.7277 49.1655 24.8868C49.6248 25.0458 50.3757 25.364 50.8422 25.5882C51.3015 25.8195 51.9212 26.1666 52.2274 26.3546C52.5263 26.5426 53.0512 26.9186 53.3938 27.1789C53.7292 27.4392 54.3051 27.9454 54.6696 28.3069C55.0341 28.6685 55.5298 29.2035 55.7631 29.5C56.0037 29.7965 56.3901 30.3388 56.6307 30.6931C56.8713 31.0546 57.2503 31.7198 57.4836 32.1754C57.7096 32.6309 58.0523 33.448 58.2272 33.9831C58.4095 34.5182 58.6282 35.3497 58.7157 35.8269C58.8032 36.3042 58.8979 36.7958 58.9344 36.9115C58.9708 37.0345 59 37.7648 59 38.5385C59 39.3122 58.9708 40.0497 58.9344 40.1654C58.8979 40.2883 58.8032 40.7728 58.7157 41.25C58.6282 41.7272 58.4095 42.5588 58.2272 43.0938C58.0523 43.6289 57.7096 44.446 57.4836 44.9015C57.2503 45.3571 56.8713 46.0295 56.6307 46.3838C56.3901 46.7454 56.0037 47.2805 55.7631 47.5769C55.5298 47.8734 55.0341 48.4157 54.6696 48.77C54.3051 49.1315 53.7292 49.6377 53.3938 49.898C53.0512 50.1655 52.5263 50.5343 52.2274 50.7223C51.9212 50.9175 51.3015 51.2574 50.8422 51.4888C50.3757 51.7202 49.5591 52.0528 49.0197 52.2335C48.4729 52.4143 47.6418 52.6312 47.1607 52.7108C46.6795 52.7975 46.1838 52.8988 46.0671 52.9349C45.9432 52.9711 45.2069 53 44.4268 53C43.6395 53 42.9032 52.9711 42.7865 52.9349C42.6626 52.8988 42.1741 52.7975 41.693 52.7108C41.2118 52.6312 40.3735 52.4143 39.834 52.2335C39.2872 52.0528 38.4707 51.7202 38.0114 51.4888C37.5448 51.2574 36.9252 50.9175 36.6263 50.7223C36.3201 50.5343 35.7952 50.1655 35.4598 49.898C35.1172 49.6377 34.5413 49.1315 34.1768 48.77C33.8122 48.4157 33.3165 47.8734 33.0832 47.5769C32.8426 47.2805 32.4563 46.7454 32.2157 46.3838C31.9824 46.0295 31.596 45.3571 31.37 44.9015C31.1367 44.446 30.816 43.694 30.6629 43.2385C30.5025 42.7829 30.3056 42.096 30.2182 41.72C30.138 41.344 30.0213 40.6498 29.9557 40.1871C29.8974 39.7171 29.8464 38.9795 29.8464 38.5385C29.8464 38.1046 29.8974 37.3598 29.9557 36.8971C30.0213 36.4271 30.138 35.7329 30.2182 35.3569C30.3056 34.9809 30.5025 34.294 30.6629 33.8385C30.816 33.3829 31.1367 32.6309 31.37 32.1754C31.596 31.7198 31.9824 31.0546 32.2157 30.6931C32.4563 30.3388 32.8426 29.7965 33.0832 29.5C33.3165 29.2035 33.8122 28.6685 34.1768 28.3069C34.5413 27.9454 35.1172 27.4392 35.4598 27.1789C35.7952 26.9186 36.3201 26.5426 36.6263 26.3546C36.9252 26.1666 37.5448 25.8195 38.0114 25.5882C38.4707 25.364 39.2216 25.0458 39.6882 24.8868C40.1475 24.7277 40.8546 24.5325 41.2556 24.4457C41.6565 24.3589 42.3127 24.2432 42.7136 24.1926C43.1146 24.1348 43.8436 24.0914 44.3321 24.0842ZM42.0939 27.244C41.7076 27.3235 41.1389 27.4754 40.8182 27.5838C40.4974 27.6923 39.9215 27.9237 39.5424 28.1045C39.156 28.278 38.653 28.5455 38.4124 28.6902C38.1718 28.8348 37.7125 29.1457 37.3917 29.3915C37.071 29.6302 36.5461 30.0857 36.2253 30.4038C35.9045 30.722 35.438 31.2426 35.1974 31.5608C34.9568 31.8789 34.636 32.3345 34.4902 32.5731C34.3444 32.8117 34.082 33.3178 33.8997 33.6938C33.7248 34.0698 33.4915 34.6411 33.3821 34.9592C33.2728 35.2774 33.1197 35.8486 33.0395 36.2246C32.9593 36.6006 32.8718 37.2731 32.8426 37.7069C32.8135 38.148 32.8135 38.8783 32.8426 39.3338C32.8718 39.7894 32.9593 40.4763 33.0395 40.8523C33.1197 41.2283 33.2728 41.7995 33.3821 42.1177C33.4915 42.4358 33.7248 43.0071 33.8997 43.3831C34.082 43.7591 34.3444 44.2652 34.4902 44.5038C34.636 44.7425 34.9568 45.198 35.1974 45.5162C35.438 45.8343 35.9045 46.3549 36.2253 46.6731C36.5461 46.9912 37.071 47.4468 37.3917 47.6926C37.7125 47.9312 38.1718 48.2494 38.4124 48.394C38.653 48.5386 39.156 48.7989 39.5424 48.9725C39.9215 49.1532 40.4974 49.3846 40.8182 49.4931C41.1389 49.6015 41.7076 49.7534 42.0939 49.8329C42.473 49.9125 43.1437 49.9992 43.5884 50.0282C44.0259 50.0571 44.7622 50.0571 45.2287 50.0282C45.688 49.9992 46.3733 49.9125 46.7597 49.8329C47.1388 49.7534 47.7147 49.6015 48.0355 49.4931C48.3563 49.3846 48.9249 49.1532 49.3113 48.9725C49.6904 48.7989 50.2007 48.5386 50.4413 48.394C50.6818 48.2494 51.1411 47.9312 51.4546 47.6926C51.7754 47.4468 52.3003 46.9912 52.621 46.6731C52.9491 46.3549 53.4084 45.8343 53.649 45.5162C53.8968 45.198 54.2103 44.7425 54.3561 44.5038C54.5019 44.2652 54.7644 43.7591 54.9466 43.3831C55.1216 43.0071 55.3622 42.4358 55.4715 42.1177C55.5736 41.7995 55.7267 41.2283 55.8069 40.8523C55.8871 40.4763 55.9746 39.7894 56.011 39.3338C56.0402 38.8783 56.0402 38.148 56.011 37.7069C55.9746 37.2731 55.8871 36.6006 55.8069 36.2246C55.7267 35.8486 55.5736 35.2774 55.4715 34.9592C55.3622 34.6411 55.1216 34.0698 54.9466 33.6938C54.7644 33.3178 54.5019 32.8117 54.3561 32.5731C54.2103 32.3345 53.8968 31.8789 53.649 31.5608C53.4084 31.2426 52.9491 30.722 52.621 30.4038C52.3003 30.0857 51.7754 29.6302 51.4546 29.3915C51.1411 29.1457 50.6818 28.8348 50.4413 28.6902C50.2007 28.5455 49.7851 28.3286 49.53 28.1985C49.2675 28.0683 48.7718 27.8586 48.4364 27.7285C48.0938 27.5983 47.5325 27.4248 47.1971 27.3452C46.8545 27.2657 46.315 27.1645 45.9942 27.1211C45.6735 27.0849 45.1631 27.0343 44.8642 27.0271C44.558 27.0126 43.9675 27.0198 43.552 27.0488C43.1292 27.0777 42.473 27.1645 42.0939 27.244Z" stroke="#232323" stroke-opacity="0.5" stroke-width="0.0866575" shape-rendering="crispEdges"/>
<path fill-rule="evenodd" clip-rule="evenodd" d="M27.5281 6C27.5572 6 27.5791 6.01446 27.5791 6.03615C27.5791 6.05785 27.4697 6.19523 27.3385 6.35431C27.2146 6.50615 27.0177 6.81708 26.9011 7.04123C26.7917 7.26538 26.6678 7.61969 26.6241 7.82215C26.573 8.03185 26.5585 8.45123 26.573 8.74769C26.6022 9.15985 26.6678 9.41292 26.8574 9.82508C27.0323 10.1938 27.2292 10.4686 27.5062 10.7362C27.7395 10.9603 28.1186 11.2206 28.4175 11.358C28.8403 11.5532 29.0371 11.6038 29.5475 11.6255C29.9922 11.6472 30.2911 11.6255 30.6045 11.5315C30.8451 11.4665 31.195 11.3291 31.3846 11.2351C31.6122 11.1264 31.6712 11.222 31.4915 11.3989C31.4598 11.4302 31.4263 11.4625 31.3919 11.4954C31.2023 11.6689 30.8305 11.9148 30.5681 12.0305C30.1817 12.2112 29.9776 12.2546 29.4381 12.2763C28.9642 12.298 28.6653 12.2763 28.3446 12.1823C28.104 12.1172 27.7468 11.9726 27.5499 11.8714C27.3604 11.7629 27.0105 11.4809 26.7772 11.2423C26.5512 11.0037 26.2741 10.6277 26.1575 10.4108C26.0481 10.1938 25.9096 9.78892 25.8513 9.50692C25.7857 9.17431 25.7638 8.84892 25.8003 8.56692C25.8294 8.32831 25.9023 7.96677 25.9752 7.77154C26.0409 7.56908 26.1794 7.27985 26.2814 7.12077C26.3835 6.96169 26.6168 6.70138 26.7845 6.53508C26.9594 6.36877 27.1854 6.188 27.2875 6.11569C27.3895 6.05062 27.4916 6 27.5208 6H27.5281ZM28.658 8.16923C28.6945 8.16923 28.7966 8.24877 28.8986 8.35C29.0233 8.47362 29.0863 8.50991 29.3579 8.47243C29.471 8.45684 29.5555 8.57774 29.4964 8.67538C29.3579 8.90677 29.3506 8.95015 29.4527 9.12369C29.511 9.23938 29.5547 9.34785 29.5547 9.37677C29.5547 9.41292 29.4308 9.42015 29.2777 9.41292C29.0736 9.39123 28.9715 9.42738 28.8622 9.53585C28.8478 9.55139 28.8332 9.56647 28.8187 9.58071C28.7252 9.67253 28.607 9.63795 28.607 9.50692C28.607 9.40569 28.5414 9.26108 28.4612 9.18154C28.381 9.102 28.2644 9.03692 28.2061 9.03692C28.1477 9.03692 28.0967 9.01523 28.0967 8.97908C28.0967 8.95015 28.2133 8.85615 28.3519 8.76215C28.5487 8.63923 28.607 8.55246 28.607 8.38615C28.607 8.27046 28.6289 8.16923 28.658 8.16923ZM10.0971 8.97908C10.1336 8.99354 10.4762 9.27554 10.8626 9.61538C11.249 9.95523 11.7884 10.4758 12.0582 10.7723C12.3279 11.0688 12.6997 11.5243 12.8966 11.7846C13.0861 12.0449 13.3486 12.4715 13.4871 12.7391C13.6256 13.0138 13.786 13.4332 13.8516 13.6791C13.9318 13.9972 13.9609 14.272 13.9245 14.5829C13.9026 14.836 13.8151 15.1758 13.7349 15.3422C13.662 15.5157 13.4652 15.7977 13.3121 15.9785C13.2796 16.0151 13.2436 16.0529 13.2033 16.0917C12.8174 16.4642 12.4956 16.9264 12.4956 17.4628C12.4956 18.2786 11.8311 18.9383 11.0153 18.9325L8.43067 18.9139C7.89238 18.91 7.45805 18.4726 7.45805 17.9343V17.5378C7.45805 17.2157 7.71916 16.9546 8.04127 16.9546C8.47868 16.9546 8.60261 16.9329 8.537 16.8751C8.48597 16.8245 8.20165 16.7232 7.90275 16.6365C7.56011 16.5352 7.21747 16.3762 6.99147 16.2098C6.78735 16.058 6.54677 15.7905 6.45199 15.6169C6.34993 15.4289 6.26245 15.1252 6.24058 14.8938C6.226 14.648 6.26245 14.3154 6.33535 14.0262C6.40096 13.7658 6.57593 13.332 6.71444 13.05C6.86025 12.768 7.12999 12.3197 7.31953 12.0377C7.50908 11.7557 7.91004 11.2351 8.20894 10.8808C8.50784 10.5265 9.04003 9.94077 9.39725 9.59369C9.74718 9.24662 10.0607 8.96462 10.0971 8.97908ZM42.9734 32.4035C42.9708 31.799 43.4601 31.3077 44.0646 31.3077C44.6673 31.3077 45.1558 31.7963 45.1558 32.3989V36.0951C45.1558 37.7886 46.0505 39.3561 47.5087 40.2173L48.0574 40.5414C49.1209 41.1705 50.1356 41.7736 50.8674 42.2144C51.3388 42.4983 51.4823 43.1107 51.1922 43.5783C50.9078 44.0483 50.6381 44.4677 50.5944 44.5183C50.545 44.5734 49.8693 44.1987 45.6651 41.6419C44.0117 40.6364 43.0003 38.8422 42.9922 36.9071L42.9734 32.4035Z" stroke="#232323" stroke-opacity="0.5" stroke-width="0.0866575" shape-rendering="crispEdges"/>
</g>
<defs>
<filter id="filter0_d_2831_2362" x="0.957031" y="0.957031" width="63.0859" height="57.0859" filterUnits="userSpaceOnUse" color-interpolation-filters="sRGB">
<feFlood flood-opacity="0" result="BackgroundImageFix"/>
<feColorMatrix in="SourceAlpha" type="matrix" values="0 0 0 0 0 0 0 0 0 0 0 0 0 0 0 0 0 0 127 0" result="hardAlpha"/>
<feOffset/>
<feGaussianBlur stdDeviation="2.5"/>
<feComposite in2="hardAlpha" operator="out"/>
<feColorMatrix type="matrix" values="0 0 0 0 0.267361 0 0 0 0 0.75434 0 0 0 0 0.916667 0 0 0 0.6 0"/>
<feBlend mode="normal" in2="BackgroundImageFix" result="effect1_dropShadow_2831_2362"/>
<feBlend mode="normal" in="SourceGraphic" in2="effect1_dropShadow_2831_2362" result="shape"/>
</filter>
<linearGradient id="paint0_linear_2831_2362" x1="32.5" y1="6" x2="32.5" y2="53" gradientUnits="userSpaceOnUse">
<stop stop-color="#6900FF"/>
<stop offset="0.484375" stop-color="#1500DF"/>
<stop offset="1" stop-color="#6900FF"/>
</linearGradient>
<linearGradient id="paint1_linear_2831_2362" x1="32.5" y1="6" x2="32.5" y2="53" gradientUnits="userSpaceOnUse">
<stop stop-color="#12D4FA" stop-opacity="0"/>
<stop offset="1" stop-color="#1EA5FF" stop-opacity="0.53"/>
</linearGradient>
<linearGradient id="paint2_linear_2831_2362" x1="32.5" y1="6" x2="32.5" y2="53" gradientUnits="userSpaceOnUse">
<stop stop-color="#6900FF"/>
<stop offset="0.484375" stop-color="#1500DF"/>
<stop offset="1" stop-color="#6900FF"/>
</linearGradient>
<linearGradient id="paint3_linear_2831_2362" x1="32.5" y1="6" x2="32.5" y2="53" gradientUnits="userSpaceOnUse">
<stop stop-color="#12D4FA" stop-opacity="0"/>
<stop offset="1" stop-color="#1EA5FF" stop-opacity="0.53"/>
</linearGradient>
</defs>
</svg>
