<svg width="40" height="24" viewBox="0 0 40 24" fill="none" xmlns="http://www.w3.org/2000/svg">
<path d="M13.142 1.24444C10.019 1.80179 8.3469 3.47384 8.3469 6.03957C8.3469 7.59631 9.4616 10.0563 11.8544 13.756C12.3829 14.5632 12.8057 15.2455 12.8057 15.2743C12.8057 15.2935 11.5372 15.3127 9.98051 15.3127H7.15533L5.88688 14.6689C4.82022 14.1211 4.54155 14.0154 4.03225 13.9866C3.25388 13.9386 2.82145 14.1211 2.43707 14.6497C2.02387 15.207 1.8605 15.822 1.70675 17.3019C1.62027 18.1475 1.47613 18.8682 1.28394 19.4832C0.937994 20.5499 0.918775 20.9727 1.16862 21.5204C1.54339 22.3565 2.61965 22.8754 4.06107 22.9234C4.74335 22.9523 4.83944 22.933 5.06046 22.7216C5.31031 22.491 5.38718 22.0682 5.25265 21.703C5.17577 21.5204 4.72413 21.2706 4.44545 21.2706C4.33975 21.2706 4.25326 21.2322 4.25326 21.1937C4.25326 21.0784 4.801 20.3193 5.14695 19.9445C5.42562 19.6562 5.48328 19.637 6.07907 19.637H6.7229L6.83821 20.8574C6.90548 21.5397 7.00157 22.2315 7.05923 22.4045C7.24181 23.0099 7.17455 23.0003 13.4688 23.0003C17.2068 23.0003 19.3017 22.9619 19.6284 22.8946C20.6566 22.6736 21.387 21.7511 21.7906 20.1271L21.9924 19.3295L22.6746 20.1271C23.6164 21.2418 25.2019 22.7793 25.5286 22.9042C25.8265 23.0195 26.1244 22.9619 26.3743 22.7408C26.5088 22.6159 26.5665 22.6255 26.8548 22.7793C27.1526 22.9426 27.5274 22.9523 32.6685 22.9523C38.1075 22.9523 38.1747 22.9523 38.3669 22.7505C38.9531 22.1739 39.1837 19.2814 38.8378 16.8983C38.6264 15.4569 37.9825 13.5926 37.6174 13.4004C37.4924 13.3332 36.7237 13.2947 35.609 13.2947H33.7928L33.5237 12.5932C33.1586 11.6515 32.3418 10.0371 31.746 9.07617C30.9196 7.75006 30.2085 6.85638 28.9977 5.65519C26.4127 3.07024 23.501 1.69609 19.984 1.37898C19.3401 1.32132 18.4369 1.23483 17.9852 1.18679C16.784 1.05225 14.0453 1.08108 13.142 1.24444ZM17.7546 2.91649C17.9564 3.07985 18.1101 4.3387 18.1005 5.6648C18.1005 6.38551 18.0717 7.00052 18.0429 7.04857C18.014 7.09662 17.8891 7.02935 17.7546 6.89482C17.4471 6.58731 16.8993 6.5777 16.5822 6.8756C16.2171 7.22154 16.2843 7.63475 16.9762 9.07617C17.3125 9.78727 17.7258 10.7098 17.8891 11.1326L18.187 11.8917L17.9468 12.1416C17.7738 12.3242 17.7065 12.4971 17.7065 12.7758C17.7065 13.1025 17.8507 13.4004 18.5618 14.5247C19.0326 15.2647 19.638 16.1872 19.9071 16.5716C20.3587 17.2154 20.3972 17.3115 20.3972 17.8208C20.3972 18.5511 20.1473 19.9637 19.9263 20.4634C19.8206 20.6844 19.6573 20.9535 19.5419 21.0688C19.3401 21.2706 19.3017 21.2706 13.9588 21.2706C10.509 21.2706 8.57753 21.2322 8.57753 21.1745C8.57753 21.0208 8.19315 17.5902 8.13549 17.2538L8.08745 16.9463H14.8333L15.0639 16.7061C15.5348 16.2448 15.4387 16.0142 13.93 13.756C11.4219 10.0083 10.019 7.25037 10.019 6.05879C10.019 5.42457 10.2688 4.73268 10.6532 4.27143C11.3739 3.43541 12.2195 3.09907 14.3913 2.78196C14.891 2.70508 17.6393 2.8204 17.7546 2.91649ZM21.214 3.26243C25.7977 4.11768 29.6607 7.70201 31.8901 13.141C32.188 13.8713 32.1976 13.929 32.0439 14.0923C31.8036 14.3614 31.0829 14.6977 30.2757 14.938C29.7376 15.0917 29.2091 15.1494 27.9791 15.1878L26.3743 15.2455L25.7016 14.3326C25.3268 13.8329 24.9521 13.3908 24.8656 13.3524C24.2698 13.1314 23.6644 13.5061 23.6644 14.1019C23.6644 14.3806 23.9239 14.7938 25.1923 16.5812C26.0379 17.7631 26.7298 18.7625 26.7394 18.8202C26.7491 18.8682 26.5088 19.3391 26.2013 19.8484L25.644 20.7805L25.4037 20.5691C24.8752 20.079 22.9917 17.8688 22.0885 16.658C21.1179 15.3608 19.5708 13.0257 19.638 12.968C19.6573 12.9488 20.0416 12.6893 20.4741 12.3914C22.0116 11.3536 23.7509 10.6137 25.1154 10.4119C26.1533 10.2581 26.2301 10.2389 26.4512 10.0083C26.6722 9.76805 26.7106 9.20109 26.5088 8.95125C26.2878 8.65335 25.9322 8.58608 25.1058 8.69179C23.5971 8.87437 21.608 9.62391 20.1762 10.5368L19.6284 10.8924L19.4747 10.5272C19.2633 10.0659 19.2633 9.66235 19.4651 8.77827C19.7437 7.50982 19.8494 6.22215 19.7822 4.89605C19.7534 4.20416 19.6957 3.49306 19.6669 3.32009L19.6092 3.00298L20.0224 3.06064C20.253 3.09907 20.7912 3.18556 21.214 3.26243ZM36.8006 15.6875C37.1946 16.9271 37.3387 18.0995 37.281 19.5889C37.2522 20.3289 37.2042 21.0111 37.1657 21.0976C37.1081 21.2322 36.9831 21.2706 36.5892 21.2706H36.0895L36.0318 19.8964C36.003 19.1469 35.9069 18.1667 35.8204 17.7151C35.6763 16.9655 35.2919 15.4761 35.1381 15.0821C35.0805 14.938 35.1573 14.9187 35.83 14.9476L36.5795 14.9764L36.8006 15.6875ZM33.7448 16.4178C33.9081 16.9463 34.1003 17.7439 34.1772 18.1956C34.3694 19.3103 34.4847 21.2706 34.3598 21.2706C34.3021 21.2706 34.0811 21.04 33.8601 20.7613C33.2643 19.9829 32.188 18.9835 31.7171 18.7721C31.4289 18.6376 31.0925 18.5799 30.6121 18.5799C30.2277 18.5799 29.9106 18.5607 29.9106 18.5319C29.9106 18.5031 30.0451 18.2244 30.1989 17.9073C30.3622 17.5902 30.5256 17.1673 30.564 16.9752C30.6313 16.6484 30.6793 16.61 31.1598 16.4659C31.8036 16.2737 32.6493 15.8509 33.024 15.5337C33.1778 15.4088 33.3315 15.3415 33.3796 15.38C33.418 15.4184 33.5814 15.8893 33.7448 16.4178ZM5.2046 16.2352C5.76195 16.5331 6.28086 16.8502 6.34813 16.9271C6.40579 17.0136 6.46344 17.2634 6.46344 17.4941V17.9073H5.78117C5.35835 17.9073 4.97397 17.9649 4.78179 18.061C4.46467 18.2052 3.84006 18.8202 3.22505 19.5793L2.91755 19.9541L3.10013 19.3679C3.20583 19.0508 3.33075 18.2724 3.3788 17.6478C3.4749 16.5908 3.5806 16.0334 3.72474 15.7932C3.84006 15.601 4.19561 15.7067 5.2046 16.2352ZM28.5076 17.4364C28.3731 17.7055 28.2481 17.9073 28.2385 17.8881C28.2193 17.8785 28.0752 17.6574 27.9022 17.398L27.5947 16.9463H28.7574L28.5076 17.4364ZM32.0727 21.2706H29.8625C28.6517 21.2706 27.6043 21.2322 27.537 21.1937C27.4602 21.1457 27.4986 21.0111 27.6716 20.7132L27.9118 20.3096H31.0733L32.0727 21.2706Z" fill="#17627C" stroke="#17627C" stroke-width="0.3"/>
</svg>
