<svg width="18" height="28" viewBox="0 0 18 28" fill="none" xmlns="http://www.w3.org/2000/svg">
<path fill-rule="evenodd" clip-rule="evenodd" d="M0 8.76472C0 3.9241 3.92409 0 8.76471 0C13.6053 0 17.5294 3.92409 17.5294 8.76471V26.2892L14.2991 22.309H14.3419V10.502C14.3419 7.42159 11.8447 4.92444 8.76433 4.92444C5.68394 4.92444 3.18679 7.4216 3.18679 10.502V22.1702L0 26.1832V8.76472ZM0.420325 27.0909H16.8058L13.3389 22.309H4.03908L0.420325 27.0909Z" fill="#17627C"/>
<path d="M3.91113 11.0817C3.91113 8.40136 6.08398 6.22852 8.76432 6.22852C11.4447 6.22852 13.6175 8.40136 13.6175 11.0817V21.44H3.91113V11.0817Z" fill="#17627C"/>
</svg>
