<svg width="13" height="21" viewBox="0 0 13 21" fill="none" xmlns="http://www.w3.org/2000/svg">
<path fill-rule="evenodd" clip-rule="evenodd" d="M0 6.49919C0 2.90978 2.90979 0 6.49919 0C10.0886 0 12.9984 2.90979 12.9984 6.49919V19.4914L10.606 16.5436H10.6345V7.78849C10.6345 5.50432 8.78277 3.65264 6.49861 3.65264C4.21444 3.65264 2.36276 5.50432 2.36276 7.78849V16.4392L0 19.4145V6.49919ZM0.311049 20.0884H12.4637L9.89372 16.5436H2.99361L0.311049 20.0884Z" fill="#17627C"/>
<path d="M2.90137 8.21591C2.90137 6.22839 4.51257 4.61719 6.50009 4.61719C8.48762 4.61719 10.0988 6.22839 10.0988 8.21591V15.8968H2.90137V8.21591Z" fill="#17627C"/>
</svg>
