<svg width="35" height="22" viewBox="0 0 35 22" fill="none" xmlns="http://www.w3.org/2000/svg">
<path d="M0.211893 0.212076L0 0.417133V7.31392V14.2107L0.211893 14.4158L0.416951 14.614L2.80246 14.6345C5.55024 14.655 5.58442 14.6482 5.80998 14.156C5.88517 13.992 5.94669 13.8074 5.94669 13.7459C5.94669 13.6707 6.3363 14.0193 6.95147 14.6482C8.55092 16.2955 14.0738 20.6905 15.311 21.3126C16.1996 21.7568 16.6234 21.8594 17.5666 21.8594C18.3527 21.8594 18.4484 21.8457 18.797 21.6748C19.1251 21.5176 19.2208 21.4971 19.583 21.545C20.123 21.6065 20.6425 21.5176 21.0663 21.3057C21.4559 21.1075 22.0096 20.6154 22.2146 20.2873C22.3513 20.0685 22.3582 20.0617 22.987 20.0344C23.5133 20.0139 23.691 19.9728 24.067 19.7951C24.5933 19.5491 25.0239 19.1868 25.2632 18.7835C25.4204 18.5101 25.4545 18.4896 25.7963 18.4554C26.5277 18.3802 27.3274 17.8061 27.6623 17.1225C27.799 16.8355 27.8606 16.5962 27.8879 16.1861L27.9221 15.6393L28.4484 15.277L28.9747 14.9216L29.0909 15.3317C29.1661 15.6188 29.2686 15.7965 29.4053 15.9127L29.6104 16.0836H32.0301C34.6138 16.0836 34.7573 16.0699 34.9282 15.7486C35.0239 15.5641 35.0239 1.97557 34.9282 1.79102C34.8872 1.72267 34.7573 1.61331 34.6343 1.55179C34.4429 1.44926 34.2515 1.44242 33.1169 1.4766C30.3691 1.57229 27.7717 2.02342 25.7621 2.7548C25.0718 3.00087 24.8667 3.18542 24.812 3.60921L24.7779 3.90996L23.1374 3.2401C22.2351 2.871 21.1688 2.43354 20.7724 2.26266C18.4074 1.23737 16.89 1.29205 15.1265 2.45404L14.4634 2.8915H11.6063H8.74915V2.38569C8.74915 1.74318 8.65345 1.61331 7.89474 1.2442C6.72591 0.68371 3.92344 0.164228 1.35338 0.0411949L0.423787 0.000183105L0.211893 0.212076ZM2.80246 1.69533C4.42926 1.87988 5.68011 2.10545 6.62338 2.38569L7.19754 2.55657L7.14969 2.93935C6.96514 4.53197 5.96719 8.49642 4.80519 12.2558L4.53862 13.1102L3.02119 13.1307L1.50376 13.1444V7.3686V1.5928H1.69515C1.79768 1.5928 2.29665 1.64065 2.80246 1.69533ZM33.4928 8.76983V14.5798L31.9754 14.5661L30.4648 14.5456L30.041 13.2469C29.1388 10.4923 27.8674 7.00633 27.1224 5.24967C26.8968 4.72335 26.6986 4.23805 26.6781 4.17653C26.6507 4.08767 26.7396 4.03299 27.1155 3.92363C28.6671 3.46566 30.7245 3.13074 32.7751 3.0077C32.9665 2.99403 33.1989 2.98036 33.3083 2.97352L33.4928 2.95985V8.76983ZM18.9405 3.22643C19.2208 3.30162 20.0547 3.62288 20.8066 3.94413C21.9412 4.43627 24.1832 5.33169 25.434 5.78966L25.7485 5.90586L26.2816 7.28658C26.8558 8.79034 27.4778 10.4855 28.093 12.2695L28.4826 13.411L27.8469 13.8348L27.2112 14.2517L27.0198 14.0262C26.2611 13.0966 25.1265 12.0781 22.0574 9.5764C20.8612 8.59895 19.6514 7.5805 19.3575 7.30709C19.0704 7.03368 18.756 6.76026 18.6603 6.69875C18.3869 6.50736 18.0246 6.55521 17.2044 6.89697C16.7806 7.06785 16.2748 7.23873 16.0697 7.27291C15.7211 7.32759 15.6733 7.36177 15.0444 8.00428C14.4908 8.57845 14.3336 8.70148 14.026 8.80401C13.5954 8.94071 13.0212 8.92021 12.6179 8.74933L12.3582 8.63313L12.3855 8.22985C12.4675 7.12937 13.8209 5.34536 15.6049 3.99198C16.7532 3.13074 17.7034 2.91201 18.9405 3.22643ZM12.6179 4.61399C11.2577 6.27496 10.6425 7.74454 10.8681 8.7835C11.0868 9.83614 11.8319 10.3351 13.2399 10.3966C14.4087 10.4445 15.0854 10.1642 16.0697 9.20729C16.3568 8.92704 16.6507 8.70148 16.7122 8.70148C16.7806 8.70148 17.1018 8.59212 17.4368 8.46225L18.0451 8.21618L18.6056 8.71515C18.92 8.9954 20.0205 9.90449 21.0526 10.7521C24.0943 13.2264 25.2768 14.2996 25.9604 15.1745C26.4662 15.8307 26.5003 16.316 26.0766 16.6851C25.7758 16.9585 25.4751 17.02 25.2358 16.8696C25.1333 16.8081 24.0807 15.7691 22.8982 14.573C20.8271 12.4814 20.7314 12.3925 20.4853 12.3925C20.1846 12.3925 19.8565 12.5429 19.7539 12.7275C19.7198 12.8026 19.6856 13.0077 19.6856 13.1786V13.4998L21.2167 15.0856C22.0643 15.9605 23.0349 16.9448 23.3835 17.2729L24.0123 17.8744L23.8756 18.0521C23.6842 18.3119 23.1989 18.5443 22.8571 18.5443C22.6042 18.5443 22.5085 18.4964 22.1326 18.1752C21.8934 17.9769 20.9911 17.0815 20.123 16.1929C18.6261 14.655 18.5373 14.5798 18.2912 14.5798C17.9973 14.5798 17.6692 14.7302 17.5666 14.9147C17.5325 14.9899 17.4983 15.1882 17.4983 15.3659C17.4983 15.6735 17.512 15.694 18.38 16.6167C18.8653 17.1294 19.6514 17.9359 20.123 18.4076C20.5947 18.8792 20.9843 19.2825 20.9843 19.3098C20.9843 19.426 20.5263 19.8703 20.3213 19.9523C19.8906 20.1369 19.7471 20.0822 19.1319 19.5491C18.8175 19.2688 17.9084 18.3734 17.1087 17.5463L15.6596 16.0494H15.311C14.9966 16.0494 14.9351 16.0767 14.7573 16.275C14.5181 16.5415 14.4908 16.897 14.689 17.2114C14.7573 17.3208 15.4751 18.0931 16.2748 18.9134L17.7375 20.4103L17.3616 20.3761C16.5208 20.2873 16.0082 20.007 14.1764 18.6263C12.488 17.3618 10.5605 15.8375 9.419 14.8737C8.66029 14.2312 6.52085 12.0029 6.54819 11.873C6.55502 11.8252 6.76692 11.087 7.01299 10.2326C7.46412 8.63996 8.01777 6.48685 8.27068 5.3522C8.34587 4.99677 8.42105 4.63449 8.44156 4.54564L8.47573 4.39526H10.6357H12.8025L12.6179 4.61399Z" fill="#17627C"/>
</svg>
