<svg width="141" height="71" viewBox="0 0 141 71" fill="none" xmlns="http://www.w3.org/2000/svg">
<path d="M117.43 47.5598C115.72 49.9598 114.01 50.6798 111.72 49.3398C111.383 49.2025 111.021 49.1412 110.658 49.1602C110.295 49.1792 109.94 49.2781 109.62 49.4498C106.48 51.2898 103.84 50.4498 101.51 47.8798C96.5798 51.1198 91.5098 51.6998 86.1998 49.0898C84.8398 51.3798 83.3698 52.9998 80.3698 51.9298C79.3698 51.5898 77.8698 52.5998 76.7198 53.2198C70.7182 56.3965 64.115 58.2739 57.3398 58.7298C63.3398 55.1498 70.3398 53.8098 76.2398 50.4598C75.8298 48.4598 75.0098 46.6098 75.2398 44.8598C75.4098 43.3598 76.6098 41.8598 77.6098 40.5898C77.8616 40.2065 78.1876 39.8776 78.5687 39.6225C78.9497 39.3673 79.3781 39.1912 79.8284 39.1045C80.2787 39.0178 80.7418 39.0223 81.1904 39.1177C81.6389 39.213 82.0638 39.3974 82.4398 39.6598C83.7398 40.4198 85.0498 41.1798 86.3198 42.0098C92.6498 46.1598 95.4398 46.3498 101.81 43.2898C103.97 43.9798 105.81 45.0798 107.47 44.9498C109.01 44.8298 110.47 43.3598 112.01 42.4398C115.01 45.8098 115.56 45.2198 118.7 42.0998C123.47 47.1598 129.05 45.1798 134.61 44.2498C135.32 40.4798 130.01 37.7198 133.61 33.8398C135.726 35.9782 137.097 38.7413 137.52 41.7198C138.31 46.0998 136.19 49.2098 131.74 49.8098C126.94 50.4498 122 51.5698 117.43 47.5598ZM84.5298 46.8998C82.7398 42.5298 81.5298 41.8998 78.0298 43.8998C79.8198 45.9198 81.7298 47.0998 84.5298 46.8998Z" fill="black"/>
<path d="M13.1498 44.0001C10.1498 44.5901 7.40983 45.4801 4.66983 45.5701C0.999831 45.6801 0.209831 44.0001 1.99983 40.6401C3.44553 37.9424 5.88999 35.9179 8.80983 35.0001C11.6198 34.1001 13.6298 32.6801 14.7398 29.7101C14.8498 30.7801 15.0298 31.8501 15.0598 32.9201C15.1198 35.3401 14.9098 37.7701 15.1698 40.1601C15.6798 44.9601 19.1698 47.3501 23.7798 46.2701C25.0671 46.0808 26.2437 45.4356 27.0953 44.4518C27.9469 43.4681 28.4169 42.2112 28.4198 40.9101C28.5559 39.5552 28.4953 38.1877 28.2398 36.8501C27.5235 33.8188 27.8988 30.632 29.2998 27.8501C29.6198 29.8501 29.9298 31.9301 30.2998 33.9601C30.5266 36.3351 30.9379 38.6889 31.5298 41.0001C31.9792 42.3786 32.809 43.602 33.9237 44.5291C35.0384 45.4563 36.3925 46.0494 37.8298 46.2401C40.0598 46.6501 41.0598 45.7301 40.6398 43.5601C40.1455 41.0443 39.5145 38.5573 38.7498 36.1101C38.2761 34.7775 38.0702 33.3645 38.144 31.9522C38.2178 30.5399 38.5698 29.156 39.1798 27.8801C39.7306 29.2266 40.208 30.6019 40.6098 32.0001C41.4898 36.1101 42.4698 40.2101 43.0198 44.3701C43.3698 46.9601 42.8598 49.7901 39.9298 50.7501C36.9998 51.7101 34.2398 51.3101 32.0698 48.7501C31.2998 47.8601 30.4698 47.0301 29.4098 45.9001C28.2898 46.9901 27.3198 47.9001 26.4098 48.8001C24.2998 51.0701 21.8198 52.2601 18.7098 51.3601C15.5998 50.4601 13.8398 48.4801 13.7098 45.1501C13.6025 44.733 13.412 44.3418 13.1498 44.0001ZM5.20983 40.3601C11.9798 41.4801 13.7098 40.3601 12.5098 36.3001C9.63983 36.3501 7.52983 37.7401 5.20983 40.3501V40.3601Z" fill="black"/>
<path d="M50.7596 9C52.2719 10.7661 53.164 12.9789 53.2996 15.3C53.6196 23.56 53.8896 31.82 54.1596 40.08C54.4612 43.6012 53.8192 47.1393 52.2996 50.33C51.9596 46.85 51.6596 44.18 51.4496 41.5C50.8296 33.2533 50.2263 24.9967 49.6396 16.73C49.2676 14.0992 49.6562 11.417 50.7596 9Z" fill="black"/>
<path d="M33.1797 14.3198C33.1797 17.0398 33.2997 18.8398 33.1797 20.6198C33.0403 21.6428 32.7005 22.6283 32.1797 23.5198C31.9297 23.9898 31.0197 24.6298 30.7897 24.5198C28.2997 23.1298 26.3197 26.1098 23.9697 25.2498C23.5576 25.0742 23.2308 24.7439 23.0597 24.3298C22.1397 21.7798 21.6197 19.2198 23.6597 16.2298L24.3097 22.5898C28.7797 21.7598 25.3697 17.4098 28.2197 15.8998C28.3597 17.2498 28.4797 18.4898 28.6297 19.7298C28.7797 20.9698 29.2697 21.7298 30.6297 21.7298C32.1497 21.6698 32.0597 20.5598 32.1197 19.4598C32.1397 17.9998 30.8797 16.5198 33.1797 14.3198Z" fill="black"/>
<path d="M108.33 28.4201C108.67 26.4201 109.11 24.8501 110.91 24.7001C112.54 24.5295 114.187 24.6963 115.75 25.1901C117.17 25.6801 116.75 27.1901 116.42 28.3601C115.08 32.5501 111.42 35.0601 105.67 35.2301L114.25 29.8101L108.33 28.4201Z" fill="black"/>
<path d="M46 8.15992C46.12 7.37992 46 6.21992 46.42 5.85992C48.6314 4.12956 50.9493 2.53977 53.36 1.09992C55.86 -0.380082 57.62 -0.020083 58.36 1.77992C58.6939 2.79217 58.6195 3.89479 58.1525 4.85298C57.6856 5.81116 56.863 6.5492 55.86 6.90992C54.3954 7.24625 52.9019 7.44048 51.4 7.48992L46 8.15992ZM51.27 3.93992L51.6 4.93992C52.2738 5.1788 53.0044 5.20625 53.6942 5.01861C54.384 4.83097 55.0001 4.43719 55.46 3.88992C55.5716 3.71086 55.6397 3.50813 55.6588 3.29799C55.6779 3.08786 55.6475 2.87617 55.57 2.67992C55.42 2.37992 54.78 1.98992 54.57 2.08992C53.41 2.65992 52.35 3.31992 51.26 3.93992H51.27Z" fill="black"/>
<path d="M22.6598 15.5101C21.6598 13.0601 23.0398 11.9301 24.6598 11.0701C28.0898 9.28008 31.5598 7.60008 35.5898 5.58008C34.5898 8.09008 33.8898 10.1401 31.6498 11.2001C28.7098 12.6001 25.7698 14.0001 22.6598 15.5101Z" fill="black"/>
<path d="M14.2798 52.5C11.7598 59.57 5.5398 59.62 0.549805 62.89C0.949805 60.25 1.6398 58.89 3.4098 57.97C6.7598 56.33 10.0698 54.62 14.2798 52.5Z" fill="black"/>
<path d="M86.84 54.29C84.3 61.42 78 61.4 73 65C73.56 62.15 74.16 60.7 76 59.82C79.33 58.19 82.61 56.44 86.84 54.29Z" fill="black"/>
<path d="M127.67 70.66C127.84 68.27 128.55 66.98 130.17 66.17C133.62 64.47 137.05 62.72 140.92 60.77C140.899 61.7008 140.655 62.613 140.21 63.4305C139.765 64.2481 139.13 64.9474 138.36 65.47C135.07 67.36 131.54 68.82 127.67 70.66Z" fill="black"/>
<path d="M137.86 57.59L134.59 61.66L130.44 58.82L133.29 54.46L137.86 57.59Z" fill="black"/>
</svg>
