<svg width="13" height="21" viewBox="0 0 13 21" fill="none" xmlns="http://www.w3.org/2000/svg">
<path fill-rule="evenodd" clip-rule="evenodd" d="M0.000976562 6.49919C0.000976562 2.90978 2.91077 0 6.50017 0C10.0896 0 12.9994 2.90979 12.9994 6.49919V19.4914L10.607 16.5436H10.6354V7.78849C10.6354 5.50432 8.78375 3.65264 6.49958 3.65264C4.21542 3.65264 2.36373 5.50432 2.36373 7.78849V16.4392L0.000976562 19.4145V6.49919ZM0.312025 20.0884H12.4647L9.8947 16.5436H2.99459L0.312025 20.0884Z" fill="#17627C"/>
<path d="M2.90234 8.21591C2.90234 6.22839 4.51355 4.61719 6.50107 4.61719C8.48859 4.61719 10.0998 6.22839 10.0998 8.21591V15.8968H2.90234V8.21591Z" fill="#17627C"/>
</svg>
