<svg width="25" height="37" viewBox="0 0 25 37" fill="none" xmlns="http://www.w3.org/2000/svg">
<path fill-rule="evenodd" clip-rule="evenodd" d="M8.34681 9.28338C8.33336 9.20266 9.35587 7.09035 10.6071 4.57442C11.8718 2.05849 12.9616 0 13.0289 0C13.1096 0 14.1994 2.05849 15.4506 4.57442C16.7019 7.09035 17.7244 9.20266 17.7109 9.28338C17.684 9.35065 16.6211 8.81249 13.0289 6.72709L10.7147 8.07251C9.4366 8.79903 8.37372 9.35065 8.34681 9.28338ZM10 7.73047L13 1.73047V5.73047L10 7.73047Z" fill="#8CA7B0"/>
<path d="M1.38511 24.354C1.24915 24.0497 1.11319 23.7116 1.0792 23.5932C1.03671 23.4411 1.0537 23.3988 1.13018 23.4326C1.18967 23.458 2.1329 23.7792 3.2291 24.1511C4.49524 24.5737 5.21754 24.8526 5.20904 24.9203C5.20054 24.9794 5.03059 25.2076 4.82665 25.4274C4.62271 25.6556 4.31679 25.9007 4.14684 25.9768C3.97689 26.0613 3.65398 26.1289 3.43304 26.1289C3.13562 26.1289 2.92318 26.0698 2.64276 25.8923C2.43032 25.7655 2.11591 25.4866 1.94596 25.2753C1.776 25.0724 1.52107 24.6582 1.38511 24.354Z" fill="#8CA7B0"/>
<path d="M19.8249 24.8188C19.8419 24.8019 20.7512 24.4807 21.8474 24.1088C22.9436 23.7369 23.8613 23.4326 23.8868 23.4326C23.9123 23.4242 23.8613 23.644 23.7763 23.906C23.6914 24.1765 23.5214 24.5653 23.4024 24.7766C23.275 24.9879 23.037 25.3006 22.8671 25.4781C22.7056 25.6556 22.4167 25.8754 22.2298 25.9683C22.0428 26.0529 21.7284 26.1289 21.533 26.1289C21.329 26.1289 21.0401 26.0698 20.8956 25.9937C20.7427 25.9176 20.4878 25.7401 20.3348 25.588C20.1733 25.4443 19.9949 25.2245 19.9269 25.0978C19.8589 24.9625 19.8165 24.8442 19.8249 24.8188Z" fill="#8CA7B0"/>
<path d="M6.72162 26.2557C6.54317 25.8838 6.36472 25.495 6.33922 25.3936C6.30523 25.2837 6.30523 25.1992 6.33922 25.1992C6.37322 25.1992 7.28246 25.495 8.37016 25.8585C9.44935 26.2219 10.3841 26.5431 10.4436 26.5769C10.5201 26.6192 10.4776 26.7291 10.2991 26.9995C10.1632 27.1939 9.96771 27.4391 9.85724 27.5405C9.74677 27.6419 9.50884 27.7856 9.33889 27.8532C9.16044 27.9293 8.88851 27.9885 8.74405 27.9885C8.59109 27.9885 8.25969 27.887 8.00476 27.7602C7.74983 27.625 7.42692 27.3883 7.29946 27.2277C7.16349 27.0672 6.90007 26.6276 6.72162 26.2557Z" fill="#8CA7B0"/>
<path d="M14.4375 26.653C14.429 26.6192 15.3552 26.2811 16.4939 25.9007C17.6411 25.5204 18.6013 25.2076 18.6353 25.2076C18.6778 25.1992 18.6608 25.3429 18.6098 25.5204C18.5588 25.6894 18.3888 26.0782 18.2274 26.3825C18.0659 26.6868 17.8365 27.0672 17.7005 27.2277C17.5646 27.3883 17.2502 27.625 16.9952 27.7602C16.7403 27.887 16.4004 27.9885 16.239 27.9885C16.0775 27.9885 15.7716 27.9039 15.5591 27.8025C15.3467 27.6926 15.0153 27.4052 14.8198 27.1686C14.6159 26.9235 14.446 26.6952 14.4375 26.653Z" fill="#8CA7B0"/>
<path fill-rule="evenodd" clip-rule="evenodd" d="M6.30224 12.6347L5.65941 12.8672C2.66825 13.9407 0.169952 14.8704 0.110469 14.9212C0.0254929 14.9972 0 15.5635 0 17.4653V19.9165L12.4575 24.1173C17.1992 22.5536 20.0204 21.6069 21.7879 21.0068L25 19.9165C25 15.5635 24.9745 14.9972 24.8895 14.9212C24.83 14.8704 22.0258 13.8308 18.6608 12.6137C15.2957 11.405 12.5085 10.4076 12.4575 10.4161C12.4065 10.4161 12.0836 10.5259 11.7352 10.6612C11.412 10.7867 9.03309 11.6471 6.30224 12.6347ZM8.46358 13.4928C6.35617 14.262 4.57167 14.9128 4.4782 14.9466C4.37623 14.9974 5.5404 15.42 8.4126 16.392L12.5 17.7613C18.7882 15.6566 20.6237 15.0396 20.6322 15.0312C20.6492 15.0227 20.2243 14.8537 19.6974 14.6593C19.2664 14.4906 17.9425 14.0122 16.5413 13.506C16.2573 13.4033 15.9701 13.2996 15.6866 13.197C14.004 12.5884 12.5509 12.0982 12.4575 12.0982C12.364 12.1067 10.5625 12.7321 8.46358 13.4928Z" fill="#8CA7B0"/>
<path d="M0.00849762 27.6335C0 31.2511 0.0254929 32.1893 0.110469 32.2653C0.169952 32.316 2.99116 33.2796 6.38171 34.4038L12.5425 36.4577C22.0258 33.2796 24.83 32.316 24.8895 32.2653C24.9745 32.1893 25 31.2511 24.9915 27.625C24.9915 25.1316 24.983 23.0861 24.966 23.0861C24.9575 23.0861 24.8215 23.1199 24.6686 23.1706C24.4052 23.2551 24.3967 23.2636 24.3457 23.8637C24.3202 24.2018 24.2437 24.785 24.1842 25.1569C24.1162 25.5288 23.9633 26.0782 23.8443 26.3825C23.7254 26.6868 23.5384 27.0671 23.4364 27.2277C23.3345 27.3883 23.122 27.6757 22.9521 27.8532C22.7906 28.0392 22.4592 28.2758 22.2298 28.3773C21.9918 28.4871 21.7284 28.5801 21.6349 28.5801C21.5415 28.5801 21.329 28.5463 21.1676 28.4956C21.0061 28.4533 20.6832 28.2589 20.4538 28.0561C20.1479 27.7941 19.9439 27.5067 19.706 27.0164C19.5275 26.6445 19.3406 26.1289 19.2811 25.8754C19.2301 25.6218 19.1536 25.3682 19.1111 25.326C19.0687 25.2753 19.0432 25.4697 19.0432 25.7655C19.0432 26.0613 18.9837 26.5938 18.9157 26.9488C18.8477 27.3123 18.6948 27.8532 18.5758 28.1575C18.4653 28.4618 18.2104 28.9436 18.0235 29.2309C17.8195 29.5521 17.5221 29.8733 17.2757 30.0339C16.9782 30.2368 16.7573 30.3128 16.4089 30.3382C16.0605 30.3636 15.8566 30.3297 15.6016 30.2114C15.4147 30.1184 15.1173 29.8733 14.9388 29.6705C14.7604 29.4676 14.5139 29.0873 14.395 28.8337C14.276 28.5801 14.1061 28.0814 14.0211 27.7349C13.9276 27.3883 13.8596 27.0333 13.8596 26.9488C13.8596 26.8727 13.8086 26.822 13.7492 26.8389C13.6982 26.8474 13.3754 26.9488 13.0526 27.0502L12.4575 27.2446C11.4718 26.9066 11.1829 26.8136 11.1744 26.8305C11.1744 26.8346 11.1586 26.9091 11.1338 27.0268C11.107 27.1536 11.0696 27.3306 11.0299 27.5236C10.9449 27.8955 10.758 28.4618 10.605 28.7914C10.4436 29.1126 10.1886 29.5268 10.0272 29.7127C9.86574 29.8902 9.59381 30.11 9.41536 30.1945C9.24541 30.2875 8.931 30.3551 8.71856 30.3551C8.50612 30.3551 8.2002 30.2959 8.03875 30.2283C7.87729 30.1607 7.56288 29.924 7.35044 29.6958C7.1295 29.4761 6.81509 29.0027 6.62814 28.6224C6.4327 28.2251 6.22876 27.6166 6.12678 27.1432C6.03331 26.7037 5.95683 26.0529 5.94833 25.7063C5.94833 25.3006 5.92284 25.1316 5.88035 25.2414C5.83786 25.3344 5.74439 25.6725 5.66791 26.0022C5.58294 26.3233 5.42148 26.8051 5.29402 27.0587C5.17505 27.3123 4.93712 27.6673 4.76716 27.8532C4.60571 28.0307 4.35078 28.242 4.21482 28.3265C4.07036 28.4111 3.82393 28.504 3.66247 28.5379C3.50102 28.5717 3.2121 28.5548 3.02515 28.504C2.83821 28.4533 2.5153 28.2674 2.31135 28.0899C2.09891 27.9208 1.793 27.5658 1.63154 27.3123C1.46159 27.0587 1.24065 26.6192 1.13868 26.3403C1.03671 26.0613 0.89225 25.5373 0.824269 25.1738C0.747791 24.8188 0.688307 24.3793 0.688307 24.2018C0.688307 24.0328 0.654317 23.7454 0.620326 23.5679C0.577838 23.3143 0.509857 23.2382 0.305914 23.1706C0.161455 23.1199 0.0424881 23.0861 0.0254929 23.0861C0.0169952 23.0861 0.00849762 25.1316 0.00849762 27.625V27.6335Z" fill="#8CA7B0"/>
</svg>
