<svg width="29" height="28" viewBox="0 0 29 28" fill="none" xmlns="http://www.w3.org/2000/svg">
<path d="M6.09961 23.0225L12.9441 25.5504C11.0428 26.3034 7.15344 27.8417 6.80578 27.9708C6.45813 28.0999 6.19014 27.7736 6.09961 27.5943V23.0225Z" fill="#D8E4E8"/>
<path d="M22.2773 23.0225L16.0551 25.5504C17.7835 26.3034 21.3193 27.8417 21.6354 27.9708C21.9514 28.0999 22.195 27.7736 22.2773 27.5943V23.0225Z" fill="#D8E4E8"/>
<path d="M1.13039 3.11108C1.13039 3.11108 1.91839 3.47491 2.49625 3.63084C2.51604 3.63618 2.54878 3.63084 2.54878 3.63084V17.7162C2.54878 18.2152 3.00407 18.5825 3.23171 18.7038L12.6876 22.8618H16.4174C19.5519 21.4758 25.8629 18.6726 26.031 18.5478C26.1991 18.4231 26.4162 18.0108 26.5038 17.8202V3.63084C26.9065 3.45759 27.7856 3.11108 28.0797 3.11108C28.3739 3.11108 28.4825 3.38829 28.5 3.52689V19.5354C28.5 19.6185 28.3949 19.7433 28.3424 19.7953L14.4737 24.8889C9.97342 23.2256 0.941276 19.8888 0.815197 19.8472C0.689118 19.8056 0.587555 19.622 0.552533 19.5354C0.535022 14.3378 0.5 3.85953 0.5 3.52689C0.5 3.19424 0.920263 3.11108 1.13039 3.11108Z" fill="#D8E4E8" stroke="#D9D9D9"/>
<path d="M9.56133 17.2277C8.26669 17.0277 6.52374 16.5363 6.07577 16.1777L4.2334 18.0777L12.549 21.7777H13.5448C13.6942 20.0277 13.0626 18.6881 12.1698 18.0777C11.2891 17.4757 10.2042 17.3271 9.56133 17.2277Z" fill="#D8E4E8"/>
<path d="M19.0835 17.2277C20.4644 17.0277 22.3236 16.5363 22.8014 16.1777L24.7666 18.0777L15.8967 21.7777H14.8344C14.6751 20.0277 15.3488 18.6881 16.3011 18.0777C17.2405 17.4757 18.3977 17.3271 19.0835 17.2277Z" fill="#D8E4E8"/>
<path d="M6.09961 0.62207C8.94467 1.9107 12.6823 1.29216 14.1885 3.50859L14.0769 18.0443C12.0687 15.8279 7.60582 16.5495 6.09961 15.2093V0.62207Z" fill="#D8E4E8"/>
<path d="M22.2773 0.62207C19.6511 1.9107 16.201 1.29216 14.8107 3.50859L14.9137 18.0443C16.7675 15.8279 20.887 16.5495 22.2773 15.2093V0.62207Z" fill="#D8E4E8"/>
<path d="M3.61133 0.338792C3.61133 -0.0804331 5.47799 0.0077301 5.47799 0.0077301V15.7977L3.61133 17.4222C3.61133 17.4222 3.61133 0.758017 3.61133 0.338792Z" fill="#D8E4E8"/>
<path d="M25.3887 0.338792C25.3887 -0.0804331 23.522 0.0077301 23.522 0.0077301V15.7977L25.3887 17.4222C25.3887 17.4222 25.3887 0.758017 25.3887 0.338792Z" fill="#D8E4E8"/>
</svg>
