<svg width="208" height="116" viewBox="0 0 208 116" fill="none" xmlns="http://www.w3.org/2000/svg">
<path d="M153.352 67.593C144.93 74.9484 141.088 71.6761 138.247 63.09C136.898 63.936 135.631 64.9054 134.463 65.9858C129.838 71.1983 124.634 73.7611 117.255 69.345C116.864 69.9846 116.544 70.6642 116.298 71.3721C115.907 73.2254 115.022 74.8326 112.993 74.2679C111.411 73.8056 110.058 72.7737 109.194 71.3721C108.46 69.5924 108.024 67.7042 107.904 65.7831C107.426 63.3506 105.788 62.8438 103.642 63.1334C98.8146 63.7271 95.9587 67.2166 96.2486 72.9648C96.5531 79.2053 97.4084 85.4169 97.9158 91.6574C98.2202 95.1469 98.3217 98.6508 98.5826 103.603C97.1329 101.778 96.4661 101.272 96.4226 100.707C95.6542 89.6737 94.625 78.6406 94.3785 67.5785C94.1466 58.196 99.351 52.9256 111.224 54.026C112.323 54.3227 113.301 54.9556 114.022 55.8359C121.676 63.4809 128.78 63.785 136.637 56.7192C137.159 56.2413 137.71 55.7925 138.913 54.75C138.801 56.5785 139.373 58.3834 140.521 59.8128C141.668 61.2423 143.307 62.1938 145.118 62.4819C149.467 63.5388 151.627 60.2376 153.715 58.2539C156.426 59.8032 158.905 62.3371 161.369 62.3081C163.834 62.2792 165.994 59.6005 168.792 57.7617C170.676 61.5552 174.794 62.728 179.157 62.6122C184.688 62.4263 190.205 61.943 195.684 61.1643C197.569 60.7357 199.324 59.8618 200.801 58.6159C204.73 55.7201 205.005 54.2722 202.947 49.4796C199.236 40.9513 199.163 40.488 200.83 34.4502C211.921 46.381 207.658 64.6827 198.424 69.7938C197.267 70.6606 195.929 71.2546 194.51 71.5313C187.261 71.6472 180.085 71.7051 172.894 71.3142C170.966 71.1983 169.14 69.3884 166.791 68.0998C162.399 71.8064 157.571 74.1665 153.352 67.593Z" fill="black"/>
<path d="M41.0151 61.7433C38.1157 65.5658 37.9852 71.5168 31.6645 71.7919C25.3438 72.067 23.6477 67.4481 21.3861 63.2202C18.1512 64.8063 14.8312 66.2129 11.4411 67.4336C9.38022 68.0246 7.1993 68.0596 5.12044 67.535C1.45269 66.6083 0.292921 64.1179 1.16274 60.3823C2.13637 56.3599 4.57601 52.8444 8.00535 50.522C9.36413 49.5507 10.8219 48.7256 12.3545 48.0605C16.7036 46.1493 21.2122 44.4407 23.2272 38.9966C23.4302 41.487 23.7781 43.9774 23.7926 46.4678C23.8071 48.9582 23.3142 51.7672 23.4302 54.3879C23.7056 60.3968 26.866 63.2781 32.5778 63.0754C38.0577 62.8438 40.5657 60.1796 40.7107 54.2576C40.5723 49.7659 40.9763 45.274 41.9139 40.8789C42.4358 45.6135 42.7693 50.3772 43.5376 55.0684C44.6539 61.975 50.9021 64.8708 57.1213 61.7289C57.5774 61.5722 57.9972 61.3254 58.3558 61.0033C58.7144 60.6813 59.0045 60.2904 59.2087 59.854C59.4129 59.4177 59.5272 58.9448 59.5447 58.4634C59.5621 57.982 59.4825 57.5021 59.3104 57.0521C58.844 55.185 58.1527 53.3813 57.2518 51.6803C54.9178 47.6841 54.9903 43.4996 55.8021 37.8672C59.4553 46.2941 61.6009 53.7943 60.6151 61.8302C60.2883 63.969 59.4858 66.0074 58.2666 67.7956C54.7873 73.1529 48.2201 73.3556 44.4509 68.2445C43.1575 66.1588 42.0095 63.9866 41.0151 61.7433ZM19.6465 47.7565C13.8477 50.0007 8.57073 51.9554 5.36689 58.529C7.66095 58.8061 9.97165 58.9222 12.282 58.8765C18.5882 58.1959 22.4734 58.8475 19.6465 47.7565Z" fill="black"/>
<path d="M73.793 17.9585C75.3877 21.6941 76.33 23.8226 77.2143 25.98C77.4463 26.5736 77.8232 27.5147 77.5623 27.8622C73.677 32.8576 76.5909 38.2872 77.3158 43.1233C78.5561 52.1072 78.1583 61.2411 76.1415 70.0835C75.4167 61.8304 74.8513 54.8369 74.1699 47.8435C73.6625 42.5876 73.5321 37.2303 72.2998 32.1336C71.1836 27.6885 71.8359 23.7502 73.793 17.9585Z" fill="black"/>
<path d="M144.437 29.3103L156.383 23.7503C154.57 19.5224 150.816 21.7232 148.554 20.145C150.497 14.0347 151.454 13.1226 155.194 14.194C161.268 15.9605 162.674 20.8834 158.427 25.676C155.005 29.4551 150.526 29.5419 144.437 29.3103Z" fill="black"/>
<path d="M47.7705 28.2388C47.959 26.4434 48.1765 25.0823 48.2055 23.7068C48.0577 22.1722 48.3599 20.6278 49.0753 19.2617C49.7743 21.2866 50.2887 23.3704 50.612 25.4878C50.9309 30.3238 48.6404 32.264 43.7549 31.7717C42.607 31.6704 41.4524 31.6704 40.3046 31.7717C35.2596 32.1337 33.7664 30.9609 33.6069 25.9801C33.674 23.9465 33.8775 21.9197 34.2158 19.9133H35.6655C35.6655 21.5639 35.5495 23.229 35.6655 24.8652C35.7815 26.5013 36.5353 28.5573 38.5649 27.9492C39.278 27.6296 39.9207 27.1721 40.4556 26.6029C40.9906 26.0338 41.4074 25.3644 41.6818 24.6335C42.2037 23.3014 41.7978 21.5784 42.3197 19.8843C44.5377 22.3023 41.5948 27.399 47.7705 28.2388Z" fill="black"/>
<path d="M192.176 77.7139C194.089 79.4948 195.075 80.436 196.148 81.4205C197.221 82.4051 197.714 83.1291 199.047 84.577L192.045 91.8166L185.391 84.1571L192.176 77.7139Z" fill="black"/>
<path d="M29.3017 77.3232C26.1848 82.0869 20.9804 85.0117 9.23779 89.1672C10.789 85.2433 15.805 82.2172 29.3017 77.3232Z" fill="black"/>
<path d="M135.348 96.146C131.825 100.779 123.561 105.282 114.066 108.077C115.24 106.484 115.791 104.993 116.806 104.515C122.605 101.72 127.998 97.9125 135.348 96.146Z" fill="black"/>
<path d="M187.435 113.651C193.089 108.569 200.381 106.412 207.615 102.575C205.89 106.817 205.89 106.832 198.772 110.321L188.624 115.244L187.435 113.651Z" fill="black"/>
<path d="M42.9723 12.3407C43.5522 8.60503 39.1016 4.72462 43.0448 0.757324C45.2773 4.69566 45.9007 8.44576 42.9723 12.3407Z" fill="black"/>
</svg>
