<svg width="31" height="17" viewBox="0 0 31 17" fill="none" xmlns="http://www.w3.org/2000/svg">
<path d="M3.206 0.76361C2.70142 1.21612 2.05667 1.83832 1.77635 2.20599C1.49602 2.54537 1.10357 2.99788 0.935371 3.19585C-0.858708 5.09074 0.066364 7.6361 2.53322 7.6361C3.40223 7.60782 3.79468 7.46641 4.13107 6.98562C4.63566 6.27857 5.22434 4.07259 5.22434 2.91303C5.22434 1.83832 4.69172 0 4.38337 0C4.2432 0 3.73862 0.339382 3.206 0.76361Z" fill="#FCFDFD"/>
<path d="M15.8486 2.88474C14.0545 4.60994 13.3537 5.74121 13.3537 6.8442C13.3537 9.10675 16.0168 10.0966 17.5305 8.42799C18.1472 7.7775 18.5677 4.63822 18.2593 2.85646C18.0071 1.32924 17.4464 1.35752 15.8486 2.88474Z" fill="#FCFDFD"/>
<path d="M28.3232 3.3373C27.5382 4.07263 26.6132 5.2039 26.2768 5.88267C25.7161 6.95738 25.7161 7.15535 26.0806 8.03209C26.5851 9.21993 27.4261 9.729 28.6595 9.53103C29.921 9.33305 30.2854 8.90882 30.6779 7.29676C31.2946 4.86452 30.9862 1.97977 30.0892 1.97977C29.893 1.97977 29.08 2.57369 28.3232 3.3373Z" fill="#FCFDFD"/>
<path d="M6.68187 10.1532C5.25221 11.5956 4.3832 13.0945 4.3832 14.141C4.3832 14.9046 5.84089 16.4035 6.59777 16.4035C7.57891 16.4035 8.56004 15.7813 8.98053 14.8763C9.56921 13.6036 9.79347 10.8886 9.42905 9.729C8.98053 8.39975 8.33578 8.48459 6.68187 10.1532Z" fill="#FCFDFD"/>
<path d="M20.8664 10.5209C19.2966 11.9632 18.1193 13.6884 18.1193 14.5934C18.1193 14.9328 18.4556 15.6116 18.8481 16.0924C19.7732 17.1954 21.343 17.3085 22.2681 16.3469C22.8848 15.6682 23.5295 12.5854 23.3053 11.3976C23.2212 11.0299 23.109 10.436 23.0249 10.0401C22.8287 9.0502 22.3522 9.16333 20.8664 10.5209Z" fill="#FCFDFD"/>
</svg>
