<svg width="26" height="24" viewBox="0 0 26 24" fill="none" xmlns="http://www.w3.org/2000/svg">
<path d="M26 10.6364C26 10.0095 25.751 9.40829 25.3077 8.96502C24.8644 8.52175 24.2632 8.27273 23.6364 8.27273H16.1673L17.3018 2.87182C17.3255 2.75364 17.3373 2.62364 17.3373 2.49364C17.3373 2.00909 17.1364 1.56 16.8173 1.24091L15.5645 0L7.78818 7.77636C7.35091 8.21364 7.09091 8.80455 7.09091 9.45455V21.2727C7.09091 21.8996 7.33993 22.5008 7.7832 22.9441C8.22647 23.3873 8.82767 23.6364 9.45455 23.6364H20.0909C21.0718 23.6364 21.9109 23.0455 22.2655 22.1945L25.8345 13.8627C25.9409 13.5909 26 13.3073 26 13V10.6364ZM0 23.6364H4.72727V9.45455H0V23.6364Z" fill="#19657E"/>
</svg>
