<svg width="33" height="40" viewBox="0 0 33 40" fill="none" xmlns="http://www.w3.org/2000/svg">
<path d="M10.9364 1.09517C10.2014 1.33311 9.7097 1.89359 9.56694 2.66027C9.49292 3.04626 9.49292 5.02378 9.56165 5.28287C9.58809 5.38333 9.68855 5.53667 9.77844 5.62656C9.93178 5.77461 9.9635 5.77989 10.4923 5.79576L11.0422 5.81691V6.39324C11.0422 7.09648 11.1109 7.30798 11.3806 7.41902C11.6502 7.53534 16.245 7.53534 16.5147 7.4243C16.7949 7.30269 16.8584 7.12292 16.8584 6.41439V5.80633H17.5616C18.3336 5.80633 18.746 5.88564 19.1161 6.09714C19.2589 6.18174 19.9093 6.88498 20.9932 8.11697C21.9079 9.1586 23.9595 11.4957 25.551 13.3146C27.1479 15.1335 28.9403 17.1744 29.5431 17.8565C30.1406 18.5386 30.6482 19.1202 30.6693 19.152C30.7222 19.226 31.0394 18.9193 31.0024 18.8294C30.9919 18.7871 30.479 18.1949 29.8709 17.5023C28.7235 16.2068 25.5828 12.6219 22.0401 8.58226C19.7189 5.92794 19.629 5.83277 19.2536 5.63184C18.7037 5.33574 18.6244 5.33046 14.2041 5.33046C10.5081 5.33046 10.1433 5.32517 10.064 5.24586C9.98465 5.16654 9.97936 5.01321 9.99523 3.90812C10.0111 2.72901 10.0217 2.64441 10.138 2.38004C10.212 2.21612 10.3654 2.00991 10.5187 1.87244C10.9893 1.44944 10.7196 1.47059 15.7216 1.47059C20.5491 1.47059 20.4697 1.4653 20.9245 1.7614C21.0302 1.83014 23.362 4.13548 26.1115 6.88498C28.861 9.63448 31.1346 11.8869 31.1663 11.8869C31.1928 11.8869 31.2827 11.8182 31.362 11.7389L31.5047 11.5908L26.3865 6.48313C20.9192 1.02644 21.1148 1.20621 20.4486 1.05287C20.3005 1.01586 18.5715 1 15.7216 1C11.5709 1 11.2061 1.00529 10.9364 1.09517ZM16.3561 6.99602H11.5445L11.5286 6.47255C11.5233 6.18174 11.5286 5.91208 11.5392 5.87507C11.5603 5.82219 12.0309 5.80633 13.9767 5.80633H16.3878L16.3561 6.99602Z" fill="#17627C"/>
<path d="M12.3167 8.15363C12.285 8.19064 12.1581 8.9679 12.0417 9.87207C11.8144 11.6275 11.8144 11.6751 12.0735 11.6751C12.1369 11.6751 12.2162 11.6434 12.248 11.6064C12.2744 11.5746 12.3854 10.8767 12.4912 10.0624C12.5969 9.24814 12.6921 8.50789 12.708 8.41272C12.7556 8.14834 12.4753 7.96328 12.3167 8.15363Z" fill="#17627C"/>
<path d="M13.8972 8.13293C13.8285 8.17523 13.8179 8.59295 13.802 11.2526C13.7915 13.394 13.8073 14.3563 13.8443 14.4303C13.8919 14.5096 13.9448 14.5308 14.0717 14.5202L14.2409 14.5044L14.2568 11.3636C14.2621 9.08997 14.2515 8.20167 14.2092 8.15408C14.1404 8.06948 14.0083 8.05891 13.8972 8.13293Z" fill="#17627C"/>
<path d="M15.4309 8.15887C15.378 8.22761 15.3886 8.35979 15.5049 8.88854C15.5842 9.24281 15.6741 9.56006 15.7058 9.59707C15.7799 9.69224 15.9861 9.68167 16.0654 9.58649C16.1235 9.51776 16.1077 9.39086 15.9861 8.85682C15.9068 8.50256 15.8169 8.18002 15.7904 8.14301C15.7164 8.05312 15.5102 8.0637 15.4309 8.15887Z" fill="#17627C"/>
<path d="M15.9067 10.2739C15.8485 10.3427 15.9437 10.8344 16.4618 13.1715C17.1281 16.1748 17.1492 16.2488 17.4136 16.1272C17.4929 16.0902 17.5458 16.0214 17.5458 15.958C17.5458 15.7729 16.3244 10.3321 16.2662 10.2581C16.1922 10.1682 15.986 10.1788 15.9067 10.2739Z" fill="#17627C"/>
<path d="M9.87413 14.1848C9.55159 14.3064 9.29779 14.4915 9.13388 14.7136C8.39892 15.7288 9.10744 17.1458 10.3447 17.1458C10.9581 17.1458 11.4392 16.855 11.7142 16.3104C12.0896 15.5807 11.7935 14.6554 11.0744 14.2906C10.7466 14.1266 10.1755 14.0738 9.87413 14.1848ZM10.8206 14.6924C11.4657 15.0255 11.6031 15.8292 11.1061 16.3527C10.4082 17.0929 9.17089 16.469 9.32423 15.4591C9.36653 15.1577 9.62033 14.8193 9.89528 14.6924C10.1808 14.5655 10.5668 14.5655 10.8206 14.6924Z" fill="#17627C"/>
<path d="M12.9084 16.8126C12.5383 16.9607 12.1576 17.3202 11.9672 17.6956C11.8245 17.9653 11.8086 18.0552 11.8086 18.4782C11.8086 18.9171 11.8192 18.9805 11.9884 19.2872C12.3162 19.8847 12.7603 20.1649 12.9031 19.8529C12.9613 19.726 12.9454 19.6943 12.718 19.4669C12.258 18.9964 12.1417 18.4676 12.3849 17.9494C12.6229 17.4418 13.0247 17.1828 13.5693 17.1828C14.0558 17.1828 14.4418 17.3943 14.6903 17.7855C14.7484 17.886 14.833 17.9812 14.8806 17.997C14.9811 18.034 15.145 17.9547 15.1873 17.8437C15.2613 17.6428 14.8542 17.151 14.4153 16.9184C14.1245 16.7598 14.0241 16.7386 13.6328 16.7227C13.2785 16.7122 13.1252 16.728 12.9084 16.8126Z" fill="#17627C"/>
<path d="M20.8237 16.7556C20.3319 16.9089 19.9724 17.2103 19.7397 17.6703C19.5758 18.0087 19.5547 18.088 19.5547 18.474C19.5547 18.8389 19.5758 18.9499 19.708 19.2249C20.0094 19.8646 20.5117 20.203 21.2202 20.2401C21.5639 20.2559 21.7014 20.2401 21.9446 20.1449C22.3412 19.9968 22.7378 19.6373 22.9228 19.2566C23.0497 18.9922 23.0709 18.8917 23.0709 18.4793C23.0709 18.0669 23.0497 17.9664 22.9228 17.7021C22.7378 17.3266 22.3412 16.9618 21.9552 16.819C21.6591 16.7027 21.0933 16.6763 20.8237 16.7556ZM21.8547 17.2843C22.3042 17.4906 22.6161 17.9559 22.6214 18.4264C22.6214 18.823 22.5315 19.0715 22.2883 19.3412C22.0028 19.6531 21.7278 19.7748 21.3207 19.7748C19.9935 19.78 19.523 18.0405 20.6651 17.3531C20.9136 17.2103 20.9982 17.1839 21.2996 17.1839C21.5163 17.1839 21.7226 17.2209 21.8547 17.2843Z" fill="#17627C"/>
<path d="M15.1924 18.3159C13.7331 18.6701 12.9082 20.3674 13.5639 21.6787C13.6802 21.9114 13.7384 21.9748 13.8547 21.9854C13.9552 21.996 14.0133 21.9695 14.0556 21.8902C14.1085 21.795 14.0926 21.7157 13.971 21.4461C13.7807 21.0231 13.7701 20.4361 13.9446 19.9761C14.1085 19.5531 14.4998 19.1354 14.9439 18.9186C15.2612 18.76 15.3405 18.7441 15.7741 18.7441C16.2024 18.7441 16.287 18.76 16.5936 18.9133C16.9955 19.109 17.0907 19.1883 17.3603 19.5373C17.6564 19.9285 17.7516 19.9656 17.8944 19.7488C17.9737 19.6272 17.9737 19.606 17.8415 19.3839C17.6617 19.0773 17.1858 18.649 16.8421 18.4903C16.324 18.2471 15.7318 18.1837 15.1924 18.3159Z" fill="#17627C"/>
<path d="M7.68505 19.1394C6.87606 19.2663 6.13053 19.647 5.53833 20.2498C4.88797 20.9055 4.53899 21.6298 4.43324 22.5657C4.37508 23.1051 4.40152 23.2531 4.57072 23.2954C4.77693 23.3483 4.84038 23.2425 4.88268 22.8037C4.97257 21.8466 5.2528 21.2227 5.88201 20.5882C6.2257 20.2445 6.40019 20.1176 6.75974 19.9431C7.76965 19.4514 8.7637 19.4461 9.74717 19.9273C10.7888 20.4349 11.4709 21.3813 11.6507 22.5763C11.6983 22.8618 11.7564 22.9464 11.9203 22.9464C12.116 22.9464 12.1636 22.7931 12.1001 22.386C11.9626 21.5241 11.6137 20.8632 10.9633 20.2181C10.2812 19.536 9.42992 19.1659 8.45174 19.113C8.20322 19.1024 7.85954 19.113 7.68505 19.1394Z" fill="#17627C"/>
<path d="M17.3713 20.5409C17.2603 20.5832 16.5148 21.0749 15.7058 21.6407C14.1777 22.7088 10.9629 24.956 9.567 25.9289C9.12285 26.2408 8.74744 26.4893 8.74215 26.4788C8.73158 26.4682 8.86377 26.2514 9.03297 25.9976C9.45068 25.3684 9.78908 24.7022 9.99529 24.1047C10.1433 23.6711 10.1645 23.5389 10.1698 23.0525C10.1698 22.5501 10.1539 22.4708 10.0217 22.1959C9.84724 21.8416 9.42953 21.4398 9.14929 21.3605C8.85848 21.2812 8.68399 21.297 8.39847 21.4186C8.18697 21.5085 8.04949 21.646 7.56833 22.2223C7.25637 22.6083 6.55842 23.4332 6.02438 24.0571C2.69326 27.954 1.46128 29.9368 1.07 32.0148C0.94839 32.6704 0.99069 33.8072 1.1546 34.3677C1.42955 35.3247 1.94773 36.1654 2.77258 36.9903C3.71904 37.942 4.73423 38.6188 5.54322 38.8409C6.01381 38.9731 7.10303 38.9731 7.71109 38.8462C9.69919 38.4285 12.0944 37.1013 15.4573 34.5633C15.8062 34.299 16.8162 33.5217 17.7045 32.8343C18.5928 32.1417 19.6767 31.3168 20.1103 30.9996C21.0884 30.2858 21.2101 30.1166 21.2418 29.4979C21.2682 28.8581 21.0197 28.4193 20.4804 28.1496C20.3218 28.0756 20.1896 28.0016 20.1896 27.991C20.1896 27.9804 20.5385 27.7319 20.9615 27.4358C21.7811 26.8647 21.9767 26.648 22.0984 26.1985C22.2728 25.564 21.8604 24.7392 21.2629 24.5224C21.1678 24.4854 21.0884 24.4431 21.0884 24.4272C21.0884 24.4113 21.1836 24.3003 21.2999 24.1893C21.5432 23.9513 21.7229 23.5283 21.7229 23.1846C21.7229 22.4127 21.025 21.7253 20.2477 21.7306C20.0838 21.7359 19.7507 21.8311 19.4388 21.9685C19.3542 22.0003 19.3436 21.9738 19.3436 21.7782C19.3383 21.3023 19.0422 20.8476 18.5928 20.6255C18.3284 20.488 18.2068 20.4616 17.9212 20.4669C17.7309 20.4669 17.4824 20.5039 17.3713 20.5409ZM18.4183 21.0591C18.7355 21.2389 18.8783 21.5191 18.8518 21.9262C18.8413 22.1959 18.8095 22.2911 18.6826 22.4444C18.5346 22.6189 17.6939 23.2164 13.3846 26.2144C11.719 27.3723 11.5762 27.494 11.7296 27.679C11.8459 27.8218 12.0257 27.7636 12.5016 27.4252C12.7606 27.2402 14.2834 26.1774 15.8803 25.0617C17.4824 23.946 19.0369 22.8621 19.333 22.6453C19.6344 22.4338 19.9622 22.2488 20.0627 22.2276C20.4698 22.1536 20.8505 22.3175 21.0937 22.6718C21.1942 22.8198 21.2206 22.9256 21.2206 23.1846C21.2206 23.5653 21.0884 23.8086 20.7448 24.0465C20.6284 24.1258 19.5815 24.8555 18.4183 25.6698C17.2497 26.484 15.5789 27.6473 14.7012 28.2606C13.8234 28.8687 13.0938 29.4027 13.0779 29.445C13.0303 29.5667 13.1043 29.7147 13.2365 29.7464C13.3423 29.7729 13.9345 29.3816 16.684 27.4622C18.5082 26.1879 20.068 25.104 20.1473 25.0458C20.4804 24.8026 21.0832 24.8555 21.3634 25.1516C21.7917 25.601 21.7494 26.2567 21.2682 26.6268C21.1519 26.7167 20.6231 27.0921 20.0838 27.4675C17.8472 29.022 13.6701 32.1258 13.6119 32.2791C13.5538 32.4272 13.6437 32.5699 13.8023 32.5699C13.8604 32.5699 14.6536 32.0148 15.5736 31.3433C18.8624 28.911 19.37 28.5462 19.5022 28.5092C20.1631 28.3294 20.7765 28.7524 20.7871 29.3922C20.7923 29.8469 20.6813 29.9738 19.6661 30.7299C19.1532 31.1106 18.0481 31.9619 17.2021 32.6175C12.0415 36.6255 9.64631 38.0425 7.39913 38.4126C6.28347 38.5977 5.40575 38.4285 4.57032 37.8574C3.28546 36.9797 2.37073 35.9962 1.89485 34.9758C1.55116 34.2302 1.49829 33.9764 1.50358 32.9929C1.50358 32.221 1.51944 32.0623 1.64634 31.6076C1.98474 30.3756 2.75671 28.9533 3.9464 27.3618C4.47515 26.6585 4.99861 26.0187 6.54784 24.1893C7.26166 23.3433 7.98075 22.4867 8.14995 22.2805C8.48307 21.8681 8.67342 21.7517 8.94837 21.8046C9.144 21.8416 9.46125 22.1219 9.59344 22.381C9.84724 22.8621 9.69919 23.7504 9.21803 24.7286C8.90078 25.3631 8.21869 26.3836 7.83271 26.7907C7.55247 27.0921 7.48373 27.2349 7.54718 27.4094C7.60006 27.5415 7.7058 27.5997 7.89087 27.5997C7.95432 27.5997 8.40904 27.3195 8.90607 26.9758C9.3978 26.6321 11.1903 25.379 12.8928 24.1893C16.9483 21.3552 17.3238 21.0961 17.4877 21.0115C17.7045 20.8952 18.175 20.9216 18.4183 21.0591Z" fill="#17627C"/>
<path d="M22.4049 25.119C22.3626 25.1983 22.3626 25.267 22.3996 25.3516C22.4524 25.4627 22.4947 25.4733 23.161 25.4944C23.9435 25.5208 24.1762 25.6002 24.4353 25.9068C24.8212 26.3668 24.6838 27.0648 24.155 27.3344C23.9647 27.4296 23.8378 27.4402 22.7062 27.4402C21.5166 27.4402 21.4584 27.4455 21.4055 27.5459C21.3209 27.6993 21.4267 27.8526 21.6329 27.8843C21.7228 27.9002 22.5265 27.9214 23.4095 27.9372C24.9111 27.969 25.038 27.9742 25.2548 28.08C25.6672 28.2809 25.8893 28.8097 25.7465 29.2485C25.6725 29.4706 25.35 29.7878 25.1173 29.8619C24.9904 29.9042 24.4405 29.9147 23.2826 29.8883C21.5377 29.8513 21.4584 29.8619 21.4584 30.0839C21.4584 30.2954 21.5906 30.3219 22.7485 30.3483C23.7479 30.3695 23.8854 30.3853 24.0493 30.4805C24.6891 30.8559 24.7208 31.7654 24.1074 32.1566L23.8642 32.31L21.4214 32.273C18.8146 32.236 18.8146 32.236 18.8146 32.4845C18.8146 32.7118 18.8887 32.7277 19.9092 32.7277C20.9667 32.7277 21.1359 32.7647 21.4214 33.0344C21.6382 33.2353 21.7228 33.4256 21.7228 33.7006C21.7228 34.1289 21.5483 34.4091 21.1676 34.5836C20.9825 34.6682 20.8027 34.6841 19.5813 34.6841C17.5404 34.6894 15.7109 34.7634 15.6157 34.8427C15.5153 34.9273 15.5153 35.0489 15.621 35.1652C15.6897 35.2445 15.7638 35.2551 16.0546 35.234C16.2502 35.2181 17.4822 35.1864 18.7882 35.1652L21.1676 35.1282L21.4372 34.9907C22.1405 34.6259 22.4049 33.7905 22.0506 33.082L21.9025 32.7859L22.96 32.77C23.9382 32.7541 24.0387 32.7436 24.2396 32.6378C24.5199 32.4898 24.8794 32.0826 24.9481 31.8341C25.0486 31.4746 25.0116 30.9722 24.8688 30.6867C24.7948 30.544 24.7366 30.4223 24.7366 30.4118C24.7366 30.4065 24.7895 30.4012 24.8583 30.4012C24.927 30.4012 25.1068 30.3642 25.2654 30.3166C25.81 30.158 26.27 29.5288 26.27 28.9471C26.27 28.2598 25.7043 27.6041 25.0275 27.5089C24.7948 27.4772 24.7313 27.4296 24.8477 27.3556C24.8794 27.3397 24.9534 27.2128 25.0116 27.0807C25.1596 26.7528 25.1596 26.2717 25.0169 25.9544C24.7049 25.2512 24.1762 25.0185 22.9019 25.008C22.5106 25.008 22.463 25.0185 22.4049 25.119Z" fill="#17627C"/>
<path d="M10.9364 1.09517C10.2014 1.33311 9.7097 1.89359 9.56694 2.66027C9.49292 3.04626 9.49292 5.02378 9.56165 5.28287C9.58809 5.38333 9.68855 5.53667 9.77844 5.62656C9.93178 5.77461 9.9635 5.77989 10.4923 5.79576L11.0422 5.81691V6.39324C11.0422 7.09648 11.1109 7.30798 11.3806 7.41902C11.6502 7.53534 16.245 7.53534 16.5147 7.4243C16.7949 7.30269 16.8584 7.12292 16.8584 6.41439V5.80633H17.5616C18.3336 5.80633 18.746 5.88564 19.1161 6.09714C19.2589 6.18174 19.9093 6.88498 20.9932 8.11697C21.9079 9.1586 23.9595 11.4957 25.551 13.3146C27.1479 15.1335 28.9403 17.1744 29.5431 17.8565C30.1406 18.5386 30.6482 19.1202 30.6693 19.152C30.7222 19.226 31.0394 18.9193 31.0024 18.8294C30.9919 18.7871 30.479 18.1949 29.8709 17.5023C28.7235 16.2068 25.5828 12.6219 22.0401 8.58226C19.7189 5.92794 19.629 5.83277 19.2536 5.63184C18.7037 5.33574 18.6244 5.33046 14.2041 5.33046C10.5081 5.33046 10.1433 5.32517 10.064 5.24586C9.98465 5.16654 9.97936 5.01321 9.99523 3.90812C10.0111 2.72901 10.0217 2.64441 10.138 2.38004C10.212 2.21612 10.3654 2.00991 10.5187 1.87244C10.9893 1.44944 10.7196 1.47059 15.7216 1.47059C20.5491 1.47059 20.4697 1.4653 20.9245 1.7614C21.0302 1.83014 23.362 4.13548 26.1115 6.88498C28.861 9.63448 31.1346 11.8869 31.1663 11.8869C31.1928 11.8869 31.2827 11.8182 31.362 11.7389L31.5047 11.5908L26.3865 6.48313C20.9192 1.02644 21.1148 1.20621 20.4486 1.05287C20.3005 1.01586 18.5715 1 15.7216 1C11.5709 1 11.2061 1.00529 10.9364 1.09517ZM16.3561 6.99602H11.5445L11.5286 6.47255C11.5233 6.18174 11.5286 5.91208 11.5392 5.87507C11.5603 5.82219 12.0309 5.80633 13.9767 5.80633H16.3878L16.3561 6.99602Z" stroke="#17627C"/>
<path d="M12.3167 8.15363C12.285 8.19064 12.1581 8.9679 12.0417 9.87207C11.8144 11.6275 11.8144 11.6751 12.0735 11.6751C12.1369 11.6751 12.2162 11.6434 12.248 11.6064C12.2744 11.5746 12.3854 10.8767 12.4912 10.0624C12.5969 9.24814 12.6921 8.50789 12.708 8.41272C12.7556 8.14834 12.4753 7.96328 12.3167 8.15363Z" stroke="#17627C"/>
<path d="M13.8972 8.13293C13.8285 8.17523 13.8179 8.59295 13.802 11.2526C13.7915 13.394 13.8073 14.3563 13.8443 14.4303C13.8919 14.5096 13.9448 14.5308 14.0717 14.5202L14.2409 14.5044L14.2568 11.3636C14.2621 9.08997 14.2515 8.20167 14.2092 8.15408C14.1404 8.06948 14.0083 8.05891 13.8972 8.13293Z" stroke="#17627C"/>
<path d="M15.4309 8.15887C15.378 8.22761 15.3886 8.35979 15.5049 8.88854C15.5842 9.24281 15.6741 9.56006 15.7058 9.59707C15.7799 9.69224 15.9861 9.68167 16.0654 9.58649C16.1235 9.51776 16.1077 9.39086 15.9861 8.85682C15.9068 8.50256 15.8169 8.18002 15.7904 8.14301C15.7164 8.05312 15.5102 8.0637 15.4309 8.15887Z" stroke="#17627C"/>
<path d="M15.9067 10.2739C15.8485 10.3427 15.9437 10.8344 16.4618 13.1715C17.1281 16.1748 17.1492 16.2488 17.4136 16.1272C17.4929 16.0902 17.5458 16.0214 17.5458 15.958C17.5458 15.7729 16.3244 10.3321 16.2662 10.2581C16.1922 10.1682 15.986 10.1788 15.9067 10.2739Z" stroke="#17627C"/>
<path d="M9.87413 14.1848C9.55159 14.3064 9.29779 14.4915 9.13388 14.7136C8.39892 15.7288 9.10744 17.1458 10.3447 17.1458C10.9581 17.1458 11.4392 16.855 11.7142 16.3104C12.0896 15.5807 11.7935 14.6554 11.0744 14.2906C10.7466 14.1266 10.1755 14.0738 9.87413 14.1848ZM10.8206 14.6924C11.4657 15.0255 11.6031 15.8292 11.1061 16.3527C10.4082 17.0929 9.17089 16.469 9.32423 15.4591C9.36653 15.1577 9.62033 14.8193 9.89528 14.6924C10.1808 14.5655 10.5668 14.5655 10.8206 14.6924Z" stroke="#17627C"/>
<path d="M12.9084 16.8126C12.5383 16.9607 12.1576 17.3202 11.9672 17.6956C11.8245 17.9653 11.8086 18.0552 11.8086 18.4782C11.8086 18.9171 11.8192 18.9805 11.9884 19.2872C12.3162 19.8847 12.7603 20.1649 12.9031 19.8529C12.9613 19.726 12.9454 19.6943 12.718 19.4669C12.258 18.9964 12.1417 18.4676 12.3849 17.9494C12.6229 17.4418 13.0247 17.1828 13.5693 17.1828C14.0558 17.1828 14.4418 17.3943 14.6903 17.7855C14.7484 17.886 14.833 17.9812 14.8806 17.997C14.9811 18.034 15.145 17.9547 15.1873 17.8437C15.2613 17.6428 14.8542 17.151 14.4153 16.9184C14.1245 16.7598 14.0241 16.7386 13.6328 16.7227C13.2785 16.7122 13.1252 16.728 12.9084 16.8126Z" stroke="#17627C"/>
<path d="M20.8237 16.7556C20.3319 16.9089 19.9724 17.2103 19.7397 17.6703C19.5758 18.0087 19.5547 18.088 19.5547 18.474C19.5547 18.8389 19.5758 18.9499 19.708 19.2249C20.0094 19.8646 20.5117 20.203 21.2202 20.2401C21.5639 20.2559 21.7014 20.2401 21.9446 20.1449C22.3412 19.9968 22.7378 19.6373 22.9228 19.2566C23.0497 18.9922 23.0709 18.8917 23.0709 18.4793C23.0709 18.0669 23.0497 17.9664 22.9228 17.7021C22.7378 17.3266 22.3412 16.9618 21.9552 16.819C21.6591 16.7027 21.0933 16.6763 20.8237 16.7556ZM21.8547 17.2843C22.3042 17.4906 22.6161 17.9559 22.6214 18.4264C22.6214 18.823 22.5315 19.0715 22.2883 19.3412C22.0028 19.6531 21.7278 19.7748 21.3207 19.7748C19.9935 19.78 19.523 18.0405 20.6651 17.3531C20.9136 17.2103 20.9982 17.1839 21.2996 17.1839C21.5163 17.1839 21.7226 17.2209 21.8547 17.2843Z" stroke="#17627C"/>
<path d="M15.1924 18.3159C13.7331 18.6701 12.9082 20.3674 13.5639 21.6787C13.6802 21.9114 13.7384 21.9748 13.8547 21.9854C13.9552 21.996 14.0133 21.9695 14.0556 21.8902C14.1085 21.795 14.0926 21.7157 13.971 21.4461C13.7807 21.0231 13.7701 20.4361 13.9446 19.9761C14.1085 19.5531 14.4998 19.1354 14.9439 18.9186C15.2612 18.76 15.3405 18.7441 15.7741 18.7441C16.2024 18.7441 16.287 18.76 16.5936 18.9133C16.9955 19.109 17.0907 19.1883 17.3603 19.5373C17.6564 19.9285 17.7516 19.9656 17.8944 19.7488C17.9737 19.6272 17.9737 19.606 17.8415 19.3839C17.6617 19.0773 17.1858 18.649 16.8421 18.4903C16.324 18.2471 15.7318 18.1837 15.1924 18.3159Z" stroke="#17627C"/>
<path d="M7.68505 19.1394C6.87606 19.2663 6.13053 19.647 5.53833 20.2498C4.88797 20.9055 4.53899 21.6298 4.43324 22.5657C4.37508 23.1051 4.40152 23.2531 4.57072 23.2954C4.77693 23.3483 4.84038 23.2425 4.88268 22.8037C4.97257 21.8466 5.2528 21.2227 5.88201 20.5882C6.2257 20.2445 6.40019 20.1176 6.75974 19.9431C7.76965 19.4514 8.7637 19.4461 9.74717 19.9273C10.7888 20.4349 11.4709 21.3813 11.6507 22.5763C11.6983 22.8618 11.7564 22.9464 11.9203 22.9464C12.116 22.9464 12.1636 22.7931 12.1001 22.386C11.9626 21.5241 11.6137 20.8632 10.9633 20.2181C10.2812 19.536 9.42992 19.1659 8.45174 19.113C8.20322 19.1024 7.85954 19.113 7.68505 19.1394Z" stroke="#17627C"/>
<path d="M17.3713 20.5409C17.2603 20.5832 16.5148 21.0749 15.7058 21.6407C14.1777 22.7088 10.9629 24.956 9.567 25.9289C9.12285 26.2408 8.74744 26.4893 8.74215 26.4788C8.73158 26.4682 8.86377 26.2514 9.03297 25.9976C9.45068 25.3684 9.78908 24.7022 9.99529 24.1047C10.1433 23.6711 10.1645 23.5389 10.1698 23.0525C10.1698 22.5501 10.1539 22.4708 10.0217 22.1959C9.84724 21.8416 9.42953 21.4398 9.14929 21.3605C8.85848 21.2812 8.68399 21.297 8.39847 21.4186C8.18697 21.5085 8.04949 21.646 7.56833 22.2223C7.25637 22.6083 6.55842 23.4332 6.02438 24.0571C2.69326 27.954 1.46128 29.9368 1.07 32.0148C0.94839 32.6704 0.99069 33.8072 1.1546 34.3677C1.42955 35.3247 1.94773 36.1654 2.77258 36.9903C3.71904 37.942 4.73423 38.6188 5.54322 38.8409C6.01381 38.9731 7.10303 38.9731 7.71109 38.8462C9.69919 38.4285 12.0944 37.1013 15.4573 34.5633C15.8062 34.299 16.8162 33.5217 17.7045 32.8343C18.5928 32.1417 19.6767 31.3168 20.1103 30.9996C21.0884 30.2858 21.2101 30.1166 21.2418 29.4979C21.2682 28.8581 21.0197 28.4193 20.4804 28.1496C20.3218 28.0756 20.1896 28.0016 20.1896 27.991C20.1896 27.9804 20.5385 27.7319 20.9615 27.4358C21.7811 26.8647 21.9767 26.648 22.0984 26.1985C22.2728 25.564 21.8604 24.7392 21.2629 24.5224C21.1678 24.4854 21.0884 24.4431 21.0884 24.4272C21.0884 24.4113 21.1836 24.3003 21.2999 24.1893C21.5432 23.9513 21.7229 23.5283 21.7229 23.1846C21.7229 22.4127 21.025 21.7253 20.2477 21.7306C20.0838 21.7359 19.7507 21.8311 19.4388 21.9685C19.3542 22.0003 19.3436 21.9738 19.3436 21.7782C19.3383 21.3023 19.0422 20.8476 18.5928 20.6255C18.3284 20.488 18.2068 20.4616 17.9212 20.4669C17.7309 20.4669 17.4824 20.5039 17.3713 20.5409ZM18.4183 21.0591C18.7355 21.2389 18.8783 21.5191 18.8518 21.9262C18.8413 22.1959 18.8095 22.2911 18.6826 22.4444C18.5346 22.6189 17.6939 23.2164 13.3846 26.2144C11.719 27.3723 11.5762 27.494 11.7296 27.679C11.8459 27.8218 12.0257 27.7636 12.5016 27.4252C12.7606 27.2402 14.2834 26.1774 15.8803 25.0617C17.4824 23.946 19.0369 22.8621 19.333 22.6453C19.6344 22.4338 19.9622 22.2488 20.0627 22.2276C20.4698 22.1536 20.8505 22.3175 21.0937 22.6718C21.1942 22.8198 21.2206 22.9256 21.2206 23.1846C21.2206 23.5653 21.0884 23.8086 20.7448 24.0465C20.6284 24.1258 19.5815 24.8555 18.4183 25.6698C17.2497 26.484 15.5789 27.6473 14.7012 28.2606C13.8234 28.8687 13.0938 29.4027 13.0779 29.445C13.0303 29.5667 13.1043 29.7147 13.2365 29.7464C13.3423 29.7729 13.9345 29.3816 16.684 27.4622C18.5082 26.1879 20.068 25.104 20.1473 25.0458C20.4804 24.8026 21.0832 24.8555 21.3634 25.1516C21.7917 25.601 21.7494 26.2567 21.2682 26.6268C21.1519 26.7167 20.6231 27.0921 20.0838 27.4675C17.8472 29.022 13.6701 32.1258 13.6119 32.2791C13.5538 32.4272 13.6437 32.5699 13.8023 32.5699C13.8604 32.5699 14.6536 32.0148 15.5736 31.3433C18.8624 28.911 19.37 28.5462 19.5022 28.5092C20.1631 28.3294 20.7765 28.7524 20.7871 29.3922C20.7923 29.8469 20.6813 29.9738 19.6661 30.7299C19.1532 31.1106 18.0481 31.9619 17.2021 32.6175C12.0415 36.6255 9.64631 38.0425 7.39913 38.4126C6.28347 38.5977 5.40575 38.4285 4.57032 37.8574C3.28546 36.9797 2.37073 35.9962 1.89485 34.9758C1.55116 34.2302 1.49829 33.9764 1.50358 32.9929C1.50358 32.221 1.51944 32.0623 1.64634 31.6076C1.98474 30.3756 2.75671 28.9533 3.9464 27.3618C4.47515 26.6585 4.99861 26.0187 6.54784 24.1893C7.26166 23.3433 7.98075 22.4867 8.14995 22.2805C8.48307 21.8681 8.67342 21.7517 8.94837 21.8046C9.144 21.8416 9.46125 22.1219 9.59344 22.381C9.84724 22.8621 9.69919 23.7504 9.21803 24.7286C8.90078 25.3631 8.21869 26.3836 7.83271 26.7907C7.55247 27.0921 7.48373 27.2349 7.54718 27.4094C7.60006 27.5415 7.7058 27.5997 7.89087 27.5997C7.95432 27.5997 8.40904 27.3195 8.90607 26.9758C9.3978 26.6321 11.1903 25.379 12.8928 24.1893C16.9483 21.3552 17.3238 21.0961 17.4877 21.0115C17.7045 20.8952 18.175 20.9216 18.4183 21.0591Z" stroke="#17627C"/>
<path d="M22.4049 25.119C22.3626 25.1983 22.3626 25.267 22.3996 25.3516C22.4524 25.4627 22.4947 25.4733 23.161 25.4944C23.9435 25.5208 24.1762 25.6002 24.4353 25.9068C24.8212 26.3668 24.6838 27.0648 24.155 27.3344C23.9647 27.4296 23.8378 27.4402 22.7062 27.4402C21.5166 27.4402 21.4584 27.4455 21.4055 27.5459C21.3209 27.6993 21.4267 27.8526 21.6329 27.8843C21.7228 27.9002 22.5265 27.9214 23.4095 27.9372C24.9111 27.969 25.038 27.9742 25.2548 28.08C25.6672 28.2809 25.8893 28.8097 25.7465 29.2485C25.6725 29.4706 25.35 29.7878 25.1173 29.8619C24.9904 29.9042 24.4405 29.9147 23.2826 29.8883C21.5377 29.8513 21.4584 29.8619 21.4584 30.0839C21.4584 30.2954 21.5906 30.3219 22.7485 30.3483C23.7479 30.3695 23.8854 30.3853 24.0493 30.4805C24.6891 30.8559 24.7208 31.7654 24.1074 32.1566L23.8642 32.31L21.4214 32.273C18.8146 32.236 18.8146 32.236 18.8146 32.4845C18.8146 32.7118 18.8887 32.7277 19.9092 32.7277C20.9667 32.7277 21.1359 32.7647 21.4214 33.0344C21.6382 33.2353 21.7228 33.4256 21.7228 33.7006C21.7228 34.1289 21.5483 34.4091 21.1676 34.5836C20.9825 34.6682 20.8027 34.6841 19.5813 34.6841C17.5404 34.6894 15.7109 34.7634 15.6157 34.8427C15.5153 34.9273 15.5153 35.0489 15.621 35.1652C15.6897 35.2445 15.7638 35.2551 16.0546 35.234C16.2502 35.2181 17.4822 35.1864 18.7882 35.1652L21.1676 35.1282L21.4372 34.9907C22.1405 34.6259 22.4049 33.7905 22.0506 33.082L21.9025 32.7859L22.96 32.77C23.9382 32.7541 24.0387 32.7436 24.2396 32.6378C24.5199 32.4898 24.8794 32.0826 24.9481 31.8341C25.0486 31.4746 25.0116 30.9722 24.8688 30.6867C24.7948 30.544 24.7366 30.4223 24.7366 30.4118C24.7366 30.4065 24.7895 30.4012 24.8583 30.4012C24.927 30.4012 25.1068 30.3642 25.2654 30.3166C25.81 30.158 26.27 29.5288 26.27 28.9471C26.27 28.2598 25.7043 27.6041 25.0275 27.5089C24.7948 27.4772 24.7313 27.4296 24.8477 27.3556C24.8794 27.3397 24.9534 27.2128 25.0116 27.0807C25.1596 26.7528 25.1596 26.2717 25.0169 25.9544C24.7049 25.2512 24.1762 25.0185 22.9019 25.008C22.5106 25.008 22.463 25.0185 22.4049 25.119Z" stroke="#17627C"/>
</svg>
