<svg width="41" height="48" viewBox="0 0 41 48" fill="none" xmlns="http://www.w3.org/2000/svg">
<path d="M18.9757 0.0826162C13.74 0.823483 9.70882 4.76681 8.80241 10.0485C8.5758 11.3749 8.71892 13.7767 9.1125 15.0673C9.72075 17.1345 10.7584 18.8552 12.2969 20.3489C18.129 26.013 27.694 24.2683 31.1766 16.8955C32.0591 15.0434 32.2261 14.2188 32.238 11.9126C32.25 10.2038 32.2142 9.80948 31.9757 8.92522C31.0215 5.43598 28.7197 2.67565 25.4518 1.08637C23.6867 0.237959 20.9198 -0.192222 18.9757 0.0826162Z" fill="#3E717E"/>
<path d="M10.5914 23.8382C7.51434 25.5828 5.45105 27.5425 3.74556 30.3506C2.58869 32.2625 2.21896 33.3499 0.704294 39.2171C0.0244815 41.8699 -0.0351512 42.1686 0.0125549 43.1007C0.0483345 43.9372 0.13182 44.2718 0.44191 44.929C0.859339 45.8371 1.75383 46.805 2.62447 47.3189C3.79327 48.0119 3.42354 48 20.4546 48C31.2601 48 36.305 47.9641 36.794 47.8685C38.4398 47.5698 39.7756 46.5422 40.5031 45.0246C40.8848 44.2479 40.9444 43.973 40.9921 43.1007C41.0279 42.1447 40.9802 41.8699 40.0141 38.1417C38.8334 33.6248 38.6903 33.1826 37.9151 31.6173C36.2334 28.2236 33.7289 25.6306 30.3656 23.8262C29.9243 23.5753 29.5069 23.3841 29.4353 23.3841C29.3637 23.3841 28.9463 23.6231 28.505 23.9099C25.3326 26.013 21.3133 26.8016 17.6638 26.0608C15.8271 25.6903 13.2868 24.579 12.1061 23.647C11.6528 23.3004 11.5217 23.3124 10.5914 23.8382Z" fill="#3E717E"/>
</svg>
