<svg width="13" height="20" viewBox="0 0 13 20" fill="none" xmlns="http://www.w3.org/2000/svg">
<path d="M5.869 0.104675C5.13031 0.307055 4.56365 1.15705 4.55353 2.02728V2.51299H5.04936H5.53507L5.59579 2.04752C5.68686 1.1874 6.42554 0.792765 6.87078 1.35943C7.07316 1.6124 7.08327 1.75407 7.08327 4.04095V6.45938H3.54164H0V6.95521C0 8.82722 1.45713 10.5474 3.72378 11.357C6.6684 12.4093 10.2606 11.529 11.8999 9.36353C12.4058 8.69568 12.7499 7.71414 12.7499 6.95521V6.45938H10.4731H8.19636V4.00048C8.19636 1.84514 8.166 1.50109 8.0041 1.14693C7.78148 0.640981 7.30589 0.226103 6.79994 0.0844374C6.36483 -0.0369902 6.34459 -0.0268707 5.869 0.104675Z" fill="#17627C"/>
<path d="M4.10251 12.5608C4.05191 12.6851 3.89001 14.0711 3.73822 15.6483C3.59655 17.2255 3.45489 18.688 3.42453 18.9079C3.32334 19.6152 3.32334 19.6152 6.30848 19.6152C8.30194 19.6152 8.94956 19.5866 9.09123 19.491C9.26326 19.3667 9.26326 19.2233 8.95968 16.0689C8.77754 14.2623 8.5954 12.6851 8.5448 12.5608C8.44361 12.3505 8.43349 12.3505 6.3186 12.3505C4.2037 12.3505 4.19358 12.3505 4.10251 12.5608Z" fill="#17627C"/>
</svg>
