<svg width="250" height="390" viewBox="0 0 250 390" fill="none" xmlns="http://www.w3.org/2000/svg">
<path d="M3.13875 2.13416C0.0237117 5.02127 -0.204218 7.30057 0.0996882 29.7896C0.327618 47.4162 0.403594 48.6318 1.92313 50.6832C4.88621 54.634 5.41805 54.7099 30.7182 54.7099C55.3347 54.7099 68.3266 55.4697 78.5835 57.4451C96.7419 60.94 110.494 68.3098 118.471 78.9465C120.523 81.6816 122.27 84.1889 122.27 84.4928C122.27 84.8726 96.5899 85.1006 65.2876 85.1006C3.21473 85.1006 4.58231 85.0246 1.6952 89.3553C0.479571 91.1787 0.327618 93.534 0.0996882 107.134C-0.204218 124.456 0.327618 127.495 3.97449 130.231C6.10184 131.826 6.55769 131.826 66.4272 132.054L126.753 132.282L125.689 135.321C121.282 147.781 111.101 159.102 98.3374 165.788C81.2427 174.677 62.0966 177.792 24.4122 177.792H6.02586L3.13875 180.375L0.327618 182.958L0.0996882 202.712C-0.128242 218.439 0.0996882 222.998 0.93543 225.049C1.54324 226.417 8.30516 234.471 15.9788 242.828C43.9382 273.219 78.7354 313.03 119.763 361.731C131.995 376.243 142.48 388.247 143.164 388.551C143.847 388.779 158.055 389.007 174.694 389.007H204.933L207.288 387.031C210.327 384.524 211.618 379.89 210.251 377.003C206.984 370.545 124.397 272.839 93.9307 239.485C87.7007 232.647 82.6862 227.025 82.8382 226.949C82.9901 226.797 86.8649 226.113 91.3475 225.353C129.412 219.123 159.878 201.193 177.277 174.753C185.027 162.977 189.737 151.2 193.308 133.954L193.688 132.282L218.304 132.054C241.933 131.826 243.073 131.75 245.124 130.231C248.543 127.647 249.075 124.912 249.075 108.425C249.151 91.9385 248.619 89.3553 244.896 86.848C242.997 85.6324 240.338 85.4805 217.697 85.1006L192.624 84.7207L191.333 79.5543C188.674 69.0695 184.495 59.3445 179.176 51.5189C177.505 49.1637 176.213 47.0363 176.213 46.8084C176.213 46.5805 191.181 46.2765 209.491 46.2006C245.96 45.9726 244.972 46.0486 247.251 41.3381C248.923 37.8432 248.923 7.75643 247.251 4.56541C244.668 -0.373062 254.697 0.00682068 124.093 0.00682068H5.41805L3.13875 2.13416Z" fill="white"/>
</svg>
