<svg width="25" height="25" viewBox="0 0 25 25" fill="none" xmlns="http://www.w3.org/2000/svg">
<path d="M18.75 25V22.5H22.5V18.75H25V23.125C25 23.625 24.75 24 24.375 24.375C24 24.75 23.5 25 23.125 25H18.75ZM6.25 25H1.875C1.375 25 1 24.75 0.625 24.375C0.25 24 0 23.5 0 23.125V18.75H2.5V22.5H6.25V25ZM18.75 0H23.125C23.625 0 24 0.25 24.375 0.625C24.75 1 25 1.375 25 1.875V6.25H22.5V2.5H18.75V0ZM6.25 0V2.5H2.5V6.25H0V1.875C0 1.375 0.25 1 0.625 0.625C1 0.25 1.375 0 1.875 0H6.25ZM21.25 11.25H3.75V13.75H21.25V11.25Z" fill="white"/>
</svg>
