<svg width="43" height="46" viewBox="0 0 43 46" fill="none" xmlns="http://www.w3.org/2000/svg">
<g filter="url(#filter0_d_2831_2359)">
<path d="M24.3065 6.18594C23.8018 6.47148 23.5893 6.86328 23.5096 7.65351C23.4897 7.78632 23.41 7.83945 22.9917 7.98554C22.7194 8.08515 22.2811 8.26445 22.0155 8.38398L21.8351 8.46918C21.6546 8.55441 21.4406 8.52348 21.2917 8.39062V8.39062C21.1522 8.27109 20.9463 8.13163 20.8268 8.08515C20.5081 7.95234 19.8905 7.97226 19.5717 8.11835C19.2198 8.28437 17.3206 10.2035 17.1811 10.5289C16.9686 11.0535 17.0948 11.7375 17.5132 12.2289V12.2289C17.6265 12.3625 17.6519 12.5498 17.5782 12.7087L17.4866 12.9062C17.3671 13.1519 17.1878 13.5969 17.0882 13.8824C16.9288 14.314 16.869 14.4004 16.7428 14.4203C16.1585 14.4801 15.9991 14.5265 15.7401 14.6992C15.5542 14.8187 15.3749 15.0179 15.2686 15.2238V15.2238C15.151 15.4373 15.0893 15.677 15.0893 15.9207V17.0832C15.0893 18.325 15.1093 18.6703 15.1956 18.8695C15.4081 19.3875 15.9194 19.7394 16.5436 19.7925V19.7925C16.769 19.8127 16.9603 19.9659 17.0291 20.1814L17.0682 20.3039C17.1546 20.5629 17.3339 21.0078 17.4733 21.2933L17.6112 21.5803C17.6755 21.7142 17.6467 21.8743 17.5397 21.9773V21.9773C17.4401 22.0769 17.294 22.3027 17.2143 22.4886C17.0284 22.907 17.055 23.5312 17.2675 23.8765C17.3405 23.996 17.8651 24.5472 18.4229 25.0984C19.2264 25.882 19.4987 26.1144 19.7112 26.1742C20.3088 26.3468 20.8401 26.2273 21.3315 25.8023V25.8023C21.4686 25.6853 21.662 25.6607 21.8241 25.7396L22.062 25.8554C22.3342 25.9949 22.7792 26.1742 23.0448 26.2605C23.5163 26.4066 23.5229 26.4199 23.5229 26.639C23.5229 27.2699 23.8948 27.8808 24.4127 28.1199C24.6518 28.2261 24.8709 28.246 26.2123 28.246C27.5538 28.246 27.7729 28.2261 28.012 28.1199C28.5299 27.8808 28.9018 27.2699 28.9018 26.639C28.9018 26.4265 28.9151 26.4132 29.3866 26.2605C29.6455 26.1742 30.0971 25.9949 30.376 25.8554L30.6968 25.7013C30.8105 25.6467 30.9463 25.6714 31.0334 25.7624V25.7624C31.2659 26.0148 31.8104 26.2539 32.1424 26.2539C32.7733 26.2539 32.9127 26.1675 34.0283 25.0652C34.6592 24.4476 35.1307 23.9296 35.2104 23.7636C35.4627 23.239 35.3565 22.5152 34.9514 22.057V22.057C34.8069 21.8964 34.7742 21.6643 34.8688 21.4701L34.958 21.2867C35.0908 21.0011 35.2701 20.5629 35.3565 20.3039L35.3956 20.1814C35.4644 19.9659 35.6557 19.8127 35.8811 19.7925V19.7925C36.5053 19.7394 37.0166 19.3875 37.2291 18.8695C37.3154 18.6703 37.3354 18.325 37.3354 17.0832V15.9207C37.3354 15.677 37.2737 15.4373 37.1561 15.2238V15.2238C37.0498 15.0179 36.8705 14.8187 36.6846 14.6992C36.4256 14.5265 36.2662 14.4801 35.6819 14.4203C35.5557 14.4004 35.4959 14.314 35.3365 13.8824C35.2369 13.5969 35.0576 13.1519 34.9381 12.9062L34.8465 12.7087C34.7728 12.5498 34.7982 12.3625 34.9115 12.2289V12.2289C35.3299 11.7375 35.4561 11.0535 35.2436 10.5289C35.1041 10.2035 33.2049 8.28437 32.853 8.11835C32.5342 7.97226 31.9166 7.95234 31.5979 8.08515C31.4783 8.13163 31.2725 8.27109 31.133 8.39062V8.39062C30.9841 8.52348 30.7701 8.55441 30.5896 8.46918L30.4092 8.38398C30.1436 8.26445 29.7053 8.08515 29.433 7.98554L29.2434 7.91728C29.0543 7.84919 28.9196 7.6804 28.8952 7.48086V7.48086C28.8287 6.97617 28.7159 6.7039 28.4768 6.45156C28.0584 6.01992 27.9655 6 26.1991 6H24.9819C24.7441 6 24.5108 6.06424 24.3065 6.18594V6.18594ZM27.4276 7.40781C27.4741 7.45429 27.5073 7.69335 27.5073 8.00546C27.5073 8.56327 27.6069 8.86874 27.8194 8.95507C27.8858 8.98163 28.1912 9.0746 28.5034 9.16093C29.1608 9.35351 29.8116 9.63241 30.3627 9.9578C30.6416 10.1238 30.8276 10.1836 31.0401 10.1836C31.3057 10.1836 31.3588 10.1504 31.7241 9.78515C31.9432 9.56601 32.1491 9.38671 32.1889 9.38671C32.2287 9.38671 32.6405 9.77186 33.1119 10.2433L33.5582 10.6931C33.7872 10.9239 33.7925 11.2945 33.5701 11.5316V11.5316C32.9924 12.1492 32.9924 12.209 33.517 13.2449C33.7494 13.7164 34.0217 14.3605 34.1213 14.6793C34.4533 15.8015 34.4334 15.7816 35.31 15.8281V15.8281C35.6453 15.8467 35.9076 16.1241 35.9076 16.4599V17.7464C35.9076 18.1042 35.6275 18.3993 35.2701 18.4179V18.4179C34.8983 18.4379 34.5928 18.4843 34.533 18.5375C34.4069 18.6371 34.3471 18.7965 34.1147 19.5668C34.0217 19.8921 33.7494 20.5296 33.5104 20.9945C32.9924 22.0105 32.999 22.0636 33.5569 22.6347C33.7694 22.8539 33.9487 23.0664 33.9487 23.0996C33.9487 23.1394 33.5635 23.5511 33.092 24.0226L32.6457 24.4655C32.4125 24.6969 32.0385 24.7036 31.7971 24.4808V24.4808C31.1729 23.8964 31.1264 23.8898 30.0705 24.4144C29.5924 24.6535 29.1342 24.8726 29.0545 24.8925V24.8925C28.9773 24.9127 28.9018 24.8544 28.9018 24.7745V22.5175C28.9018 22.3033 29.019 22.1062 29.2073 22.0039V22.0039C30.0108 21.5789 30.9604 20.6691 31.4385 19.8656C32.0627 18.8164 32.3217 17.7605 32.2686 16.532C32.1889 14.6726 31.3721 13.1453 29.878 12.0297C28.8155 11.2461 27.9522 11.2859 27.567 12.1426C27.4541 12.3816 27.4409 12.614 27.4409 14.5531C27.4409 16.884 27.4276 16.9902 27.0557 17.3754C26.8299 17.6144 26.4381 17.8203 26.2123 17.8203C25.9866 17.8203 25.5948 17.6144 25.369 17.3754C24.9971 16.9902 24.9838 16.8773 24.9838 14.6195C24.9838 13.3711 24.9573 12.4414 24.9108 12.2887C24.7448 11.6777 24.1936 11.3656 23.5428 11.5117C22.9186 11.6512 21.9557 12.3949 21.3182 13.2383C20.1296 14.8054 19.8108 16.9703 20.4948 18.8496C20.953 20.1113 22.062 21.3929 23.2174 22.0039V22.0039C23.4057 22.1062 23.5229 22.3033 23.5229 22.5175V24.7809C23.5229 24.8572 23.4504 24.9126 23.3768 24.8925V24.8925C23.2905 24.8726 22.8323 24.6535 22.3542 24.4144C21.3049 23.8898 21.2518 23.8898 20.6276 24.4808V24.4808C20.3862 24.7036 20.0122 24.6969 19.779 24.4655L19.3327 24.0226C18.8612 23.5511 18.476 23.1394 18.476 23.0996C18.476 23.0664 18.6553 22.8539 18.8678 22.6347C19.4256 22.0636 19.4323 22.0105 18.9143 20.9945C18.6753 20.5296 18.403 19.8921 18.31 19.5668C18.0776 18.7965 18.0178 18.6371 17.8917 18.5375C17.8319 18.4843 17.5264 18.4379 17.1546 18.4179V18.4179C16.7972 18.3993 16.5171 18.1042 16.5171 17.7464V16.4599C16.5171 16.1241 16.7794 15.8467 17.1147 15.8281V15.8281C17.9913 15.7816 17.9714 15.8015 18.3034 14.6793C18.403 14.3605 18.6753 13.7097 18.9143 13.2383C19.4389 12.2023 19.4389 12.1558 18.8546 11.5383V11.5383C18.6317 11.2969 18.6385 10.9228 18.8699 10.6897L19.3128 10.2433C19.7842 9.77186 20.196 9.38671 20.2358 9.38671C20.2756 9.38671 20.4815 9.56601 20.7006 9.78515C21.0659 10.157 21.119 10.1836 21.3979 10.1836C21.5639 10.1836 21.7631 10.1371 21.8428 10.084C22.1749 9.85155 23.2042 9.38671 23.7553 9.22069C24.8909 8.88202 24.9174 8.84882 24.9174 8.00546C24.9174 7.69335 24.9506 7.45429 24.9971 7.40781C25.11 7.29492 27.3147 7.29492 27.4276 7.40781ZM23.8417 17.641C24.1206 18.2054 24.592 18.6769 25.1631 18.9625C25.5749 19.1617 25.6612 19.1816 26.2123 19.1816C26.6838 19.175 26.8764 19.1484 27.1288 19.0289C27.919 18.6703 28.4635 18.0726 28.7092 17.2957C28.8221 16.9238 28.8354 16.6715 28.8354 14.9582V13.2047C28.8354 13.1263 28.9186 13.0758 28.9881 13.1121V13.1121C29.0678 13.1586 29.3467 13.4109 29.6123 13.6765C30.7944 14.8918 31.1928 16.6515 30.6483 18.2254C30.2498 19.3808 29.4397 20.2972 28.3307 20.8484C27.992 21.0144 27.6733 21.2004 27.6268 21.2601C27.5604 21.3332 27.5338 21.9972 27.5073 24.089L27.4894 25.5567C27.4809 26.2559 26.9116 26.8183 26.2123 26.8183V26.8183C25.5131 26.8183 24.9438 26.2559 24.9353 25.5567L24.9174 24.089C24.8909 21.9972 24.8643 21.3332 24.7979 21.2601C24.7514 21.2004 24.4327 21.0144 24.094 20.8484C21.8295 19.7195 20.9065 17.0898 21.9889 14.8586C22.2877 14.2476 22.7327 13.6699 23.2174 13.2914V13.2914C23.3553 13.1806 23.5602 13.2768 23.563 13.4536L23.616 16.7819C23.6203 17.0503 23.6832 17.3146 23.8004 17.5561L23.8417 17.641Z" fill="#4C7380"/>
<path d="M7.02097 28.2062C6.64245 28.3789 6.31706 28.691 6.14441 29.0363C6.03152 29.2554 6.02488 29.5808 6.00496 33.2464C5.99167 37.0117 5.99832 37.2308 6.11121 37.5031C6.2905 37.8949 6.60261 38.2335 6.97448 38.4128C7.27331 38.5656 7.36628 38.5722 8.92682 38.5921C10.2682 38.612 10.6335 38.5988 10.9256 38.5124C11.3307 38.3929 11.8088 38.0144 12.0014 37.6492V37.6492C12.0834 37.5016 12.2389 37.4101 12.4077 37.4101H13.4845C13.6858 37.4101 13.8862 37.4366 14.0806 37.4888L17.6393 38.446C23.8549 40.1195 23.3303 39.9933 24.1205 39.9999C24.9905 39.9999 25.4221 39.8937 26.2787 39.4753C26.9029 39.1699 28.4901 38.0941 28.7026 37.8351C28.7557 37.7753 28.8022 37.5894 28.8022 37.43C28.8022 37.1777 28.769 37.1046 28.583 36.9386C28.251 36.6398 28.0186 36.673 27.3611 37.1245C27.0557 37.3304 26.6174 37.6359 26.3783 37.8019C26.1393 37.9613 25.7209 38.2003 25.4487 38.3265C25.0104 38.5324 24.8709 38.5656 24.3197 38.5921C23.5959 38.6187 24.2533 38.7714 17.9913 37.0847L14.214 36.0694C14.0809 36.0337 13.9437 36.0156 13.8059 36.0156V36.0156C12.9377 36.0156 12.2338 35.3117 12.2338 34.4435V31.3745C12.2338 30.9728 12.5497 30.642 12.951 30.6234V30.6234C13.5885 30.5902 13.7545 30.557 14.5913 30.2515C15.8795 29.7933 16.4706 29.6804 17.3803 29.7269C17.978 29.7535 18.2104 29.7933 18.6885 29.9726C19.3592 30.2183 20.2358 30.7761 20.9264 31.4003C21.7166 32.1175 21.617 32.0976 24.0541 32.0976C25.3026 32.0976 26.2455 32.1242 26.3983 32.1707C26.5311 32.2039 26.7502 32.3367 26.8764 32.4628C27.3944 32.9874 27.2881 33.7511 26.6373 34.1496C26.4182 34.2824 26.3319 34.289 23.3037 34.289C19.9702 34.289 19.844 34.3023 19.6713 34.6277C19.6248 34.7074 19.5916 34.8933 19.5916 35.046C19.5983 35.2652 19.6381 35.3581 19.8041 35.4976V35.4976C19.9322 35.6171 20.1007 35.6835 20.2759 35.6835H23.2772C26.9428 35.6835 26.9428 35.6835 27.5803 35.2253C28.2377 34.7538 28.5764 34.0831 28.5897 33.2066V33.2066C28.5979 32.8872 28.7795 32.5976 29.0635 32.4513L31.1928 31.3539C32.6205 30.6234 33.9154 29.9793 34.0748 29.9328C34.6127 29.7668 35.2103 30.0656 35.3432 30.5703C35.5158 31.2011 35.3166 31.4468 33.7627 32.5558C32.9592 33.1203 32.4146 33.5519 32.3682 33.6581C32.2354 33.9503 32.2752 34.2027 32.4811 34.4351C32.6471 34.621 32.7201 34.6542 32.9658 34.6542C33.2314 34.6542 33.3643 34.5812 34.626 33.6781C35.3764 33.1402 36.0736 32.6023 36.1732 32.4828C36.2795 32.3632 36.4521 32.071 36.565 31.832C36.7443 31.4535 36.7709 31.3273 36.7709 30.8359C36.7709 30.3312 36.751 30.225 36.5517 29.8265C36.2861 29.282 35.8146 28.8371 35.29 28.6378C34.8119 28.4586 34.0549 28.4386 33.5834 28.598C33.4041 28.6644 32.0561 29.3285 30.5951 30.0789C28.5365 31.1347 27.919 31.4269 27.8393 31.3738C26.9561 30.7562 26.9162 30.7496 24.4127 30.7097L22.8042 30.6805C22.4284 30.6736 22.0679 30.5307 21.7897 30.2781V30.2781C21.1522 29.7003 20.5147 29.2621 19.7709 28.9035C18.735 28.4121 18.4362 28.3457 17.1147 28.3523C16.0987 28.3523 15.9194 28.3722 15.3284 28.5316C14.9698 28.6312 14.3854 28.8238 14.0335 28.9566C13.4956 29.1691 13.303 29.2089 12.7651 29.2289L12.5114 29.2369C12.2803 29.2442 12.0648 29.1202 11.9549 28.9168V28.9168C11.8553 28.7375 11.676 28.5117 11.5499 28.4187C11.1049 28.08 10.8991 28.0468 9.05299 28.0468C7.41276 28.0468 7.33972 28.0535 7.02097 28.2062ZM10.6135 29.4945C10.826 29.6339 10.8393 29.8398 10.8393 33.3593V36.6553C10.8393 36.8024 10.7794 36.943 10.6733 37.0449V37.0449C10.5139 37.2109 10.5139 37.2109 9.09948 37.2109C7.92409 37.2109 7.65847 37.191 7.5323 37.1046V37.1046C7.44089 37.0423 7.3862 36.9388 7.3862 36.8282V33.346C7.3862 30.0324 7.39948 29.6738 7.49909 29.5609C7.5987 29.4546 7.73815 29.4414 9.07292 29.4414C9.88307 29.4414 10.5737 29.4679 10.6135 29.4945Z" fill="#4C7380"/>
<path d="M30.0838 35.212C29.9045 35.3714 29.8647 35.4511 29.8647 35.6769C29.8647 36.3343 30.6018 36.6464 31.0666 36.1816C31.1862 36.0554 31.226 35.9491 31.226 35.7167C31.226 35.0792 30.5619 34.787 30.0838 35.212Z" fill="#4C7380"/>
<path d="M24.3065 6.18594C23.8018 6.47148 23.5893 6.86328 23.5096 7.65351C23.4897 7.78632 23.41 7.83945 22.9917 7.98554C22.7194 8.08515 22.2811 8.26445 22.0155 8.38398L21.8351 8.46918C21.6546 8.55441 21.4406 8.52348 21.2917 8.39062V8.39062C21.1522 8.27109 20.9463 8.13163 20.8268 8.08515C20.5081 7.95234 19.8905 7.97226 19.5717 8.11835C19.2198 8.28437 17.3206 10.2035 17.1811 10.5289C16.9686 11.0535 17.0948 11.7375 17.5132 12.2289V12.2289C17.6265 12.3625 17.6519 12.5498 17.5782 12.7087L17.4866 12.9062C17.3671 13.1519 17.1878 13.5969 17.0882 13.8824C16.9288 14.314 16.869 14.4004 16.7428 14.4203C16.1585 14.4801 15.9991 14.5265 15.7401 14.6992C15.5542 14.8187 15.3749 15.0179 15.2686 15.2238V15.2238C15.151 15.4373 15.0893 15.677 15.0893 15.9207V17.0832C15.0893 18.325 15.1093 18.6703 15.1956 18.8695C15.4081 19.3875 15.9194 19.7394 16.5436 19.7925V19.7925C16.769 19.8127 16.9603 19.9659 17.0291 20.1814L17.0682 20.3039C17.1546 20.5629 17.3339 21.0078 17.4733 21.2933L17.6112 21.5803C17.6755 21.7142 17.6467 21.8743 17.5397 21.9773V21.9773C17.4401 22.0769 17.294 22.3027 17.2143 22.4886C17.0284 22.907 17.055 23.5312 17.2675 23.8765C17.3405 23.996 17.8651 24.5472 18.4229 25.0984C19.2264 25.882 19.4987 26.1144 19.7112 26.1742C20.3088 26.3468 20.8401 26.2273 21.3315 25.8023V25.8023C21.4686 25.6853 21.662 25.6607 21.8241 25.7396L22.062 25.8554C22.3342 25.9949 22.7792 26.1742 23.0448 26.2605C23.5163 26.4066 23.5229 26.4199 23.5229 26.639C23.5229 27.2699 23.8948 27.8808 24.4127 28.1199C24.6518 28.2261 24.8709 28.246 26.2123 28.246C27.5538 28.246 27.7729 28.2261 28.012 28.1199C28.5299 27.8808 28.9018 27.2699 28.9018 26.639C28.9018 26.4265 28.9151 26.4132 29.3866 26.2605C29.6455 26.1742 30.0971 25.9949 30.376 25.8554L30.6968 25.7013C30.8105 25.6467 30.9463 25.6714 31.0334 25.7624V25.7624C31.2659 26.0148 31.8104 26.2539 32.1424 26.2539C32.7733 26.2539 32.9127 26.1675 34.0283 25.0652C34.6592 24.4476 35.1307 23.9296 35.2104 23.7636C35.4627 23.239 35.3565 22.5152 34.9514 22.057V22.057C34.8069 21.8964 34.7742 21.6643 34.8688 21.4701L34.958 21.2867C35.0908 21.0011 35.2701 20.5629 35.3565 20.3039L35.3956 20.1814C35.4644 19.9659 35.6557 19.8127 35.8811 19.7925V19.7925C36.5053 19.7394 37.0166 19.3875 37.2291 18.8695C37.3154 18.6703 37.3354 18.325 37.3354 17.0832V15.9207C37.3354 15.677 37.2737 15.4373 37.1561 15.2238V15.2238C37.0498 15.0179 36.8705 14.8187 36.6846 14.6992C36.4256 14.5265 36.2662 14.4801 35.6819 14.4203C35.5557 14.4004 35.4959 14.314 35.3365 13.8824C35.2369 13.5969 35.0576 13.1519 34.9381 12.9062L34.8465 12.7087C34.7728 12.5498 34.7982 12.3625 34.9115 12.2289V12.2289C35.3299 11.7375 35.4561 11.0535 35.2436 10.5289C35.1041 10.2035 33.2049 8.28437 32.853 8.11835C32.5342 7.97226 31.9166 7.95234 31.5979 8.08515C31.4783 8.13163 31.2725 8.27109 31.133 8.39062V8.39062C30.9841 8.52348 30.7701 8.55441 30.5896 8.46918L30.4092 8.38398C30.1436 8.26445 29.7053 8.08515 29.433 7.98554L29.2434 7.91728C29.0543 7.84919 28.9196 7.6804 28.8952 7.48086V7.48086C28.8287 6.97617 28.7159 6.7039 28.4768 6.45156C28.0584 6.01992 27.9655 6 26.1991 6H24.9819C24.7441 6 24.5108 6.06424 24.3065 6.18594V6.18594ZM27.4276 7.40781C27.4741 7.45429 27.5073 7.69335 27.5073 8.00546C27.5073 8.56327 27.6069 8.86874 27.8194 8.95507C27.8858 8.98163 28.1912 9.0746 28.5034 9.16093C29.1608 9.35351 29.8116 9.63241 30.3627 9.9578C30.6416 10.1238 30.8276 10.1836 31.0401 10.1836C31.3057 10.1836 31.3588 10.1504 31.7241 9.78515C31.9432 9.56601 32.1491 9.38671 32.1889 9.38671C32.2287 9.38671 32.6405 9.77186 33.1119 10.2433L33.5582 10.6931C33.7872 10.9239 33.7925 11.2945 33.5701 11.5316V11.5316C32.9924 12.1492 32.9924 12.209 33.517 13.2449C33.7494 13.7164 34.0217 14.3605 34.1213 14.6793C34.4533 15.8015 34.4334 15.7816 35.31 15.8281V15.8281C35.6453 15.8467 35.9076 16.1241 35.9076 16.4599V17.7464C35.9076 18.1042 35.6275 18.3993 35.2701 18.4179V18.4179C34.8983 18.4379 34.5928 18.4843 34.533 18.5375C34.4069 18.6371 34.3471 18.7965 34.1147 19.5668C34.0217 19.8921 33.7494 20.5296 33.5104 20.9945C32.9924 22.0105 32.999 22.0636 33.5569 22.6347C33.7694 22.8539 33.9487 23.0664 33.9487 23.0996C33.9487 23.1394 33.5635 23.5511 33.092 24.0226L32.6457 24.4655C32.4125 24.6969 32.0385 24.7036 31.7971 24.4808V24.4808C31.1729 23.8964 31.1264 23.8898 30.0705 24.4144C29.5924 24.6535 29.1342 24.8726 29.0545 24.8925V24.8925C28.9773 24.9127 28.9018 24.8544 28.9018 24.7745V22.5175C28.9018 22.3033 29.019 22.1062 29.2073 22.0039V22.0039C30.0108 21.5789 30.9604 20.6691 31.4385 19.8656C32.0627 18.8164 32.3217 17.7605 32.2686 16.532C32.1889 14.6726 31.3721 13.1453 29.878 12.0297C28.8155 11.2461 27.9522 11.2859 27.567 12.1426C27.4541 12.3816 27.4409 12.614 27.4409 14.5531C27.4409 16.884 27.4276 16.9902 27.0557 17.3754C26.8299 17.6144 26.4381 17.8203 26.2123 17.8203C25.9866 17.8203 25.5948 17.6144 25.369 17.3754C24.9971 16.9902 24.9838 16.8773 24.9838 14.6195C24.9838 13.3711 24.9573 12.4414 24.9108 12.2887C24.7448 11.6777 24.1936 11.3656 23.5428 11.5117C22.9186 11.6512 21.9557 12.3949 21.3182 13.2383C20.1296 14.8054 19.8108 16.9703 20.4948 18.8496C20.953 20.1113 22.062 21.3929 23.2174 22.0039V22.0039C23.4057 22.1062 23.5229 22.3033 23.5229 22.5175V24.7809C23.5229 24.8572 23.4504 24.9126 23.3768 24.8925V24.8925C23.2905 24.8726 22.8323 24.6535 22.3542 24.4144C21.3049 23.8898 21.2518 23.8898 20.6276 24.4808V24.4808C20.3862 24.7036 20.0122 24.6969 19.779 24.4655L19.3327 24.0226C18.8612 23.5511 18.476 23.1394 18.476 23.0996C18.476 23.0664 18.6553 22.8539 18.8678 22.6347C19.4256 22.0636 19.4323 22.0105 18.9143 20.9945C18.6753 20.5296 18.403 19.8921 18.31 19.5668C18.0776 18.7965 18.0178 18.6371 17.8917 18.5375C17.8319 18.4843 17.5264 18.4379 17.1546 18.4179V18.4179C16.7972 18.3993 16.5171 18.1042 16.5171 17.7464V16.4599C16.5171 16.1241 16.7794 15.8467 17.1147 15.8281V15.8281C17.9913 15.7816 17.9714 15.8015 18.3034 14.6793C18.403 14.3605 18.6753 13.7097 18.9143 13.2383C19.4389 12.2023 19.4389 12.1558 18.8546 11.5383V11.5383C18.6317 11.2969 18.6385 10.9228 18.8699 10.6897L19.3128 10.2433C19.7842 9.77186 20.196 9.38671 20.2358 9.38671C20.2756 9.38671 20.4815 9.56601 20.7006 9.78515C21.0659 10.157 21.119 10.1836 21.3979 10.1836C21.5639 10.1836 21.7631 10.1371 21.8428 10.084C22.1749 9.85155 23.2042 9.38671 23.7553 9.22069C24.8909 8.88202 24.9174 8.84882 24.9174 8.00546C24.9174 7.69335 24.9506 7.45429 24.9971 7.40781C25.11 7.29492 27.3147 7.29492 27.4276 7.40781ZM23.8417 17.641C24.1206 18.2054 24.592 18.6769 25.1631 18.9625C25.5749 19.1617 25.6612 19.1816 26.2123 19.1816C26.6838 19.175 26.8764 19.1484 27.1288 19.0289C27.919 18.6703 28.4635 18.0726 28.7092 17.2957C28.8221 16.9238 28.8354 16.6715 28.8354 14.9582V13.2047C28.8354 13.1263 28.9186 13.0758 28.9881 13.1121V13.1121C29.0678 13.1586 29.3467 13.4109 29.6123 13.6765C30.7944 14.8918 31.1928 16.6515 30.6483 18.2254C30.2498 19.3808 29.4397 20.2972 28.3307 20.8484C27.992 21.0144 27.6733 21.2004 27.6268 21.2601C27.5604 21.3332 27.5338 21.9972 27.5073 24.089L27.4894 25.5567C27.4809 26.2559 26.9116 26.8183 26.2123 26.8183V26.8183C25.5131 26.8183 24.9438 26.2559 24.9353 25.5567L24.9174 24.089C24.8909 21.9972 24.8643 21.3332 24.7979 21.2601C24.7514 21.2004 24.4327 21.0144 24.094 20.8484C21.8295 19.7195 20.9065 17.0898 21.9889 14.8586C22.2877 14.2476 22.7327 13.6699 23.2174 13.2914V13.2914C23.3553 13.1806 23.5602 13.2768 23.563 13.4536L23.616 16.7819C23.6203 17.0503 23.6832 17.3146 23.8004 17.5561L23.8417 17.641Z" stroke="#4C7380"/>
<path d="M7.02097 28.2062C6.64245 28.3789 6.31706 28.691 6.14441 29.0363C6.03152 29.2554 6.02488 29.5808 6.00496 33.2464C5.99167 37.0117 5.99832 37.2308 6.11121 37.5031C6.2905 37.8949 6.60261 38.2335 6.97448 38.4128C7.27331 38.5656 7.36628 38.5722 8.92682 38.5921C10.2682 38.612 10.6335 38.5988 10.9256 38.5124C11.3307 38.3929 11.8088 38.0144 12.0014 37.6492V37.6492C12.0834 37.5016 12.2389 37.4101 12.4077 37.4101H13.4845C13.6858 37.4101 13.8862 37.4366 14.0806 37.4888L17.6393 38.446C23.8549 40.1195 23.3303 39.9933 24.1205 39.9999C24.9905 39.9999 25.4221 39.8937 26.2787 39.4753C26.9029 39.1699 28.4901 38.0941 28.7026 37.8351C28.7557 37.7753 28.8022 37.5894 28.8022 37.43C28.8022 37.1777 28.769 37.1046 28.583 36.9386C28.251 36.6398 28.0186 36.673 27.3611 37.1245C27.0557 37.3304 26.6174 37.6359 26.3783 37.8019C26.1393 37.9613 25.7209 38.2003 25.4487 38.3265C25.0104 38.5324 24.8709 38.5656 24.3197 38.5921C23.5959 38.6187 24.2533 38.7714 17.9913 37.0847L14.214 36.0694C14.0809 36.0337 13.9437 36.0156 13.8059 36.0156V36.0156C12.9377 36.0156 12.2338 35.3117 12.2338 34.4435V31.3745C12.2338 30.9728 12.5497 30.642 12.951 30.6234V30.6234C13.5885 30.5902 13.7545 30.557 14.5913 30.2515C15.8795 29.7933 16.4706 29.6804 17.3803 29.7269C17.978 29.7535 18.2104 29.7933 18.6885 29.9726C19.3592 30.2183 20.2358 30.7761 20.9264 31.4003C21.7166 32.1175 21.617 32.0976 24.0541 32.0976C25.3026 32.0976 26.2455 32.1242 26.3983 32.1707C26.5311 32.2039 26.7502 32.3367 26.8764 32.4628C27.3944 32.9874 27.2881 33.7511 26.6373 34.1496C26.4182 34.2824 26.3319 34.289 23.3037 34.289C19.9702 34.289 19.844 34.3023 19.6713 34.6277C19.6248 34.7074 19.5916 34.8933 19.5916 35.046C19.5983 35.2652 19.6381 35.3581 19.8041 35.4976V35.4976C19.9322 35.6171 20.1007 35.6835 20.2759 35.6835H23.2772C26.9428 35.6835 26.9428 35.6835 27.5803 35.2253C28.2377 34.7538 28.5764 34.0831 28.5897 33.2066V33.2066C28.5979 32.8872 28.7795 32.5976 29.0635 32.4513L31.1928 31.3539C32.6205 30.6234 33.9154 29.9793 34.0748 29.9328C34.6127 29.7668 35.2103 30.0656 35.3432 30.5703C35.5158 31.2011 35.3166 31.4468 33.7627 32.5558C32.9592 33.1203 32.4146 33.5519 32.3682 33.6581C32.2354 33.9503 32.2752 34.2027 32.4811 34.4351C32.6471 34.621 32.7201 34.6542 32.9658 34.6542C33.2314 34.6542 33.3643 34.5812 34.626 33.6781C35.3764 33.1402 36.0736 32.6023 36.1732 32.4828C36.2795 32.3632 36.4521 32.071 36.565 31.832C36.7443 31.4535 36.7709 31.3273 36.7709 30.8359C36.7709 30.3312 36.751 30.225 36.5517 29.8265C36.2861 29.282 35.8146 28.8371 35.29 28.6378C34.8119 28.4586 34.0549 28.4386 33.5834 28.598C33.4041 28.6644 32.0561 29.3285 30.5951 30.0789C28.5365 31.1347 27.919 31.4269 27.8393 31.3738C26.9561 30.7562 26.9162 30.7496 24.4127 30.7097L22.8042 30.6805C22.4284 30.6736 22.0679 30.5307 21.7897 30.2781V30.2781C21.1522 29.7003 20.5147 29.2621 19.7709 28.9035C18.735 28.4121 18.4362 28.3457 17.1147 28.3523C16.0987 28.3523 15.9194 28.3722 15.3284 28.5316C14.9698 28.6312 14.3854 28.8238 14.0335 28.9566C13.4956 29.1691 13.303 29.2089 12.7651 29.2289L12.5114 29.2369C12.2803 29.2442 12.0648 29.1202 11.9549 28.9168V28.9168C11.8553 28.7375 11.676 28.5117 11.5499 28.4187C11.1049 28.08 10.8991 28.0468 9.05299 28.0468C7.41276 28.0468 7.33972 28.0535 7.02097 28.2062ZM10.6135 29.4945C10.826 29.6339 10.8393 29.8398 10.8393 33.3593V36.6553C10.8393 36.8024 10.7794 36.943 10.6733 37.0449V37.0449C10.5139 37.2109 10.5139 37.2109 9.09948 37.2109C7.92409 37.2109 7.65847 37.191 7.5323 37.1046V37.1046C7.44089 37.0423 7.3862 36.9388 7.3862 36.8282V33.346C7.3862 30.0324 7.39948 29.6738 7.49909 29.5609C7.5987 29.4546 7.73815 29.4414 9.07292 29.4414C9.88307 29.4414 10.5737 29.4679 10.6135 29.4945Z" stroke="#4C7380"/>
<path d="M30.0838 35.212C29.9045 35.3714 29.8647 35.4511 29.8647 35.6769C29.8647 36.3343 30.6018 36.6464 31.0666 36.1816C31.1862 36.0554 31.226 35.9491 31.226 35.7167C31.226 35.0792 30.5619 34.787 30.0838 35.212Z" stroke="#4C7380"/>
</g>
<defs>
<filter id="filter0_d_2831_2359" x="0.5" y="0.5" width="42.335" height="45" filterUnits="userSpaceOnUse" color-interpolation-filters="sRGB">
<feFlood flood-opacity="0" result="BackgroundImageFix"/>
<feColorMatrix in="SourceAlpha" type="matrix" values="0 0 0 0 0 0 0 0 0 0 0 0 0 0 0 0 0 0 127 0" result="hardAlpha"/>
<feOffset/>
<feGaussianBlur stdDeviation="2.5"/>
<feComposite in2="hardAlpha" operator="out"/>
<feColorMatrix type="matrix" values="0 0 0 0 0.267361 0 0 0 0 0.75434 0 0 0 0 0.916667 0 0 0 0.6 0"/>
<feBlend mode="normal" in2="BackgroundImageFix" result="effect1_dropShadow_2831_2359"/>
<feBlend mode="normal" in="SourceGraphic" in2="effect1_dropShadow_2831_2359" result="shape"/>
</filter>
</defs>
</svg>
