<svg width="32" height="34" viewBox="0 0 32 34" fill="none" xmlns="http://www.w3.org/2000/svg">
<path fill-rule="evenodd" clip-rule="evenodd" d="M11.1383 1.3311C11.2189 0.953593 11.4208 0.61598 11.7107 0.373982C12.0006 0.131984 12.3611 6.63642e-05 12.7327 0H19.2673C19.6389 6.63642e-05 19.9994 0.131984 20.2893 0.373982C20.5792 0.61598 20.7811 0.953593 20.8617 1.3311L21.5805 4.6988C22.234 5.0218 22.8564 5.3958 23.4429 5.8208L26.6089 4.7838C26.9634 4.6678 27.3454 4.68106 27.6917 4.82137C28.038 4.96169 28.328 5.22068 28.5138 5.5556L31.7811 11.4444C31.9669 11.7794 32.0375 12.1703 31.9811 12.5526C31.9246 12.935 31.7446 13.2858 31.4707 13.5473L29.0251 15.8814C29.0834 16.6259 29.0834 17.3741 29.0251 18.1186L31.4707 20.4527C31.7446 20.7142 31.9246 21.065 31.9811 21.4474C32.0375 21.8297 31.9669 22.2206 31.7811 22.5556L28.5138 28.4444C28.328 28.7793 28.038 29.0383 27.6917 29.1786C27.3454 29.3189 26.9634 29.3322 26.6089 29.2162L23.4445 28.1792C22.8564 28.6042 22.234 28.9782 21.5822 29.3012L20.8634 32.6672C20.783 33.0453 20.581 33.3835 20.2907 33.6259C20.0005 33.8683 19.6394 34.0002 19.2673 34H12.7327C12.3611 33.9999 12.0006 33.868 11.7107 33.626C11.4208 33.384 11.2189 33.0464 11.1383 32.6689L10.4195 29.3012C9.76599 28.9782 9.14357 28.6042 8.55709 28.1792L5.39108 29.2162C5.03656 29.3322 4.65463 29.3189 4.30833 29.1786C3.96202 29.0383 3.67204 28.7793 3.48625 28.4444L0.218945 22.5556C0.0330582 22.2206 -0.0374936 21.8297 0.0189391 21.4474C0.0753717 21.065 0.255414 20.7142 0.529339 20.4527L2.97491 18.1186C2.91658 17.3741 2.91658 16.6259 2.97491 15.8814L0.529339 13.549C0.255414 13.2875 0.0753717 12.9367 0.0189391 12.5543C-0.0374936 12.172 0.0330582 11.7811 0.218945 11.4461L3.48625 5.5573C3.67204 5.22238 3.96202 4.96339 4.30833 4.82307C4.65463 4.68276 5.03656 4.6695 5.39108 4.7855L8.55546 5.8225C9.14357 5.3975 9.76599 5.0235 10.4178 4.7005L11.1366 1.3345L11.1383 1.3311ZM16 22.1C17.2998 22.1 18.5464 21.5627 19.4655 20.6062C20.3846 19.6498 20.9009 18.3526 20.9009 17C20.9009 15.6474 20.3846 14.3502 19.4655 13.3938C18.5464 12.4373 17.2998 11.9 16 11.9C14.7002 11.9 13.4536 12.4373 12.5345 13.3938C11.6154 14.3502 11.0991 15.6474 11.0991 17C11.0991 18.3526 11.6154 19.6498 12.5345 20.6062C13.4536 21.5627 14.7002 22.1 16 22.1Z" fill="#446874"/>
</svg>
