<svg width="87" height="87" viewBox="0 0 87 87" fill="none" xmlns="http://www.w3.org/2000/svg">
<g filter="url(#filter0_d_5602_2278)">
<circle cx="43.5" cy="39.5" r="31.5" fill="#D8E4E8"/>
</g>
<path fill-rule="evenodd" clip-rule="evenodd" d="M38.1383 24.3311C38.2189 23.9536 38.4208 23.616 38.7107 23.374C39.0006 23.132 39.3611 23.0001 39.7327 23H46.2673C46.6389 23.0001 46.9994 23.132 47.2893 23.374C47.5792 23.616 47.7811 23.9536 47.8617 24.3311L48.5805 27.6988C49.234 28.0218 49.8564 28.3958 50.4429 28.8208L53.6089 27.7838C53.9634 27.6678 54.3454 27.6811 54.6917 27.8214C55.038 27.9617 55.328 28.2207 55.5138 28.5556L58.7811 34.4444C58.9669 34.7794 59.0375 35.1703 58.9811 35.5526C58.9246 35.935 58.7446 36.2858 58.4707 36.5473L56.0251 38.8814C56.0834 39.6259 56.0834 40.3741 56.0251 41.1186L58.4707 43.4527C58.7446 43.7142 58.9246 44.065 58.9811 44.4474C59.0375 44.8297 58.9669 45.2206 58.7811 45.5556L55.5138 51.4444C55.328 51.7793 55.038 52.0383 54.6917 52.1786C54.3454 52.3189 53.9634 52.3322 53.6089 52.2162L50.4445 51.1792C49.8564 51.6042 49.234 51.9782 48.5822 52.3012L47.8634 55.6672C47.783 56.0453 47.581 56.3835 47.2907 56.6259C47.0005 56.8683 46.6394 57.0002 46.2673 57H39.7327C39.3611 56.9999 39.0006 56.868 38.7107 56.626C38.4208 56.384 38.2189 56.0464 38.1383 55.6689L37.4195 52.3012C36.766 51.9782 36.1436 51.6042 35.5571 51.1792L32.3911 52.2162C32.0366 52.3322 31.6546 52.3189 31.3083 52.1786C30.962 52.0383 30.672 51.7793 30.4862 51.4444L27.2189 45.5556C27.0331 45.2206 26.9625 44.8297 27.0189 44.4474C27.0754 44.065 27.2554 43.7142 27.5293 43.4527L29.9749 41.1186C29.9166 40.3741 29.9166 39.6259 29.9749 38.8814L27.5293 36.549C27.2554 36.2875 27.0754 35.9367 27.0189 35.5543C26.9625 35.172 27.0331 34.7811 27.2189 34.4461L30.4862 28.5573C30.672 28.2224 30.962 27.9634 31.3083 27.8231C31.6546 27.6828 32.0366 27.6695 32.3911 27.7855L35.5555 28.8225C36.1436 28.3975 36.766 28.0235 37.4178 27.7005L38.1366 24.3345L38.1383 24.3311ZM43 45.1C44.2998 45.1 45.5464 44.5627 46.4655 43.6062C47.3846 42.6498 47.9009 41.3526 47.9009 40C47.9009 38.6474 47.3846 37.3502 46.4655 36.3938C45.5464 35.4373 44.2998 34.9 43 34.9C41.7002 34.9 40.4536 35.4373 39.5345 36.3938C38.6154 37.3502 38.0991 38.6474 38.0991 40C38.0991 41.3526 38.6154 42.6498 39.5345 43.6062C40.4536 44.5627 41.7002 45.1 43 45.1Z" fill="#446874"/>
<defs>
<filter id="filter0_d_5602_2278" x="0" y="0" width="87" height="87" filterUnits="userSpaceOnUse" color-interpolation-filters="sRGB">
<feFlood flood-opacity="0" result="BackgroundImageFix"/>
<feColorMatrix in="SourceAlpha" type="matrix" values="0 0 0 0 0 0 0 0 0 0 0 0 0 0 0 0 0 0 127 0" result="hardAlpha"/>
<feOffset dy="4"/>
<feGaussianBlur stdDeviation="6"/>
<feComposite in2="hardAlpha" operator="out"/>
<feColorMatrix type="matrix" values="0 0 0 0 0 0 0 0 0 0 0 0 0 0 0 0 0 0 0.25 0"/>
<feBlend mode="normal" in2="BackgroundImageFix" result="effect1_dropShadow_5602_2278"/>
<feBlend mode="normal" in="SourceGraphic" in2="effect1_dropShadow_5602_2278" result="shape"/>
</filter>
</defs>
</svg>
