<svg width="21" height="24" viewBox="0 0 21 24" fill="none" xmlns="http://www.w3.org/2000/svg">
<path d="M17.2953 2.85253e-07C16.7279 -0.000222305 16.168 0.129828 15.6588 0.380129C15.1496 0.630431 14.7047 0.9943 14.3583 1.4437C14.0119 1.89309 13.7733 2.41602 13.6609 2.97217C13.5485 3.52833 13.5653 4.10286 13.71 4.6515C13.6205 4.67042 13.5343 4.70248 13.4543 4.74663L10.0481 6.60353L5.71658 9.08062C5.67322 9.10528 5.63191 9.13337 5.59304 9.16463C4.99044 8.80826 4.29923 8.62985 3.59943 8.65005C2.89964 8.67025 2.21987 8.88824 1.63883 9.27877C1.05779 9.66931 0.599243 10.2164 0.316267 10.8568C0.0332903 11.4971 -0.0625389 12.2045 0.039873 12.8971C0.142285 13.5896 0.43875 14.239 0.894946 14.7701C1.35114 15.3011 1.94841 15.6921 2.61761 15.8977C3.28681 16.1034 4.00058 16.1153 4.67627 15.9321C5.35196 15.7489 5.96195 15.3781 6.43562 14.8626L10.0506 16.8727L13.7001 18.863C13.4792 19.7376 13.5848 20.6628 13.9973 21.4652C14.4097 22.2675 15.1006 22.8919 15.9404 23.2212C16.7803 23.5506 17.7115 23.5623 18.5593 23.2543C19.4072 22.9462 20.1137 22.3394 20.5462 21.5478C20.9787 20.7561 21.1077 19.8338 20.9089 18.9539C20.7101 18.0739 20.1971 17.2967 19.4662 16.7679C18.7354 16.2391 17.8367 15.995 16.9387 16.0814C16.0407 16.1677 15.2051 16.5787 14.5884 17.2371L10.9475 15.2505L7.30785 13.2293C7.52931 12.3118 7.39326 11.3444 6.92733 10.5236L10.9525 8.22321L14.3413 6.37373C14.4219 6.33008 14.4956 6.2747 14.56 6.20941C14.9762 6.66397 15.4992 7.00755 16.0817 7.20906C16.6642 7.41057 17.2877 7.46364 17.8958 7.36348C18.504 7.26331 19.0776 7.01307 19.5646 6.6354C20.0517 6.25773 20.4369 5.76456 20.6854 5.20052C20.9338 4.63649 21.0377 4.01939 20.9876 3.40509C20.9375 2.7908 20.735 2.19869 20.3984 1.68237C20.0619 1.16604 19.6018 0.741806 19.06 0.448052C18.5182 0.154297 17.9116 0.000300733 17.2953 2.85253e-07Z" fill="#19657E"/>
</svg>
