<svg width="29" height="14" viewBox="0 0 29 14" fill="none" xmlns="http://www.w3.org/2000/svg">
<path d="M15.0541 0.491609C13.9209 2.11041 10.9801 2.62303 8.8487 1.59779C8.22815 1.30101 7.66157 1.05819 7.58063 1.05819C7.20291 1.05819 6.01579 4.72747 6.28559 4.99727C6.55539 5.29405 7.41875 4.83539 8.44399 3.89109C9.6581 2.73095 10.1437 2.70397 11.4927 3.75619C13.1925 5.10519 13.3544 5.21311 14.1907 5.80667C15.5128 6.75097 16.8618 7.04775 20.3152 7.07473C23.6337 7.10171 25.6842 6.75097 27.4649 5.88761C28.3013 5.50989 28.3283 5.42895 27.8966 5.07821C27.5728 4.80841 26.8713 4.72747 25.4954 4.78143C24.2543 4.80841 23.229 4.70049 22.6355 4.45767C21.7451 4.07995 21.6912 4.07995 21.1246 4.78143C20.6659 5.34801 20.4771 5.42895 20.2073 5.18613C19.9375 4.91633 19.9375 4.70049 20.2073 4.13391C20.612 3.24357 20.3961 2.94679 19.9105 3.72921C19.4788 4.43069 18.6155 4.48465 18.6155 3.81015C18.6155 3.54035 18.7504 3.18961 18.9392 3.00075C19.1011 2.83887 19.1551 2.59605 19.0471 2.48813C18.9392 2.38021 18.7234 2.48813 18.5885 2.75793C18.2917 3.24357 17.2665 3.40545 17.2665 2.91981C17.2665 2.75793 17.4014 2.40719 17.5363 2.11041C17.887 1.48987 17.4823 1.40893 16.9967 2.00249C16.8078 2.21833 16.484 2.40719 16.2952 2.40719C15.8365 2.40719 15.8095 1.54383 16.2412 1.11215C16.4571 0.896309 16.4571 0.707449 16.1873 0.383689C15.7556 -0.155911 15.4858 -0.128931 15.0541 0.491609Z" fill="#17627C"/>
<path d="M9.2536 4.8075C8.82192 5.48201 6.77144 6.45329 5.77318 6.45329C4.96378 6.45329 3.12914 5.88671 2.80538 5.56295C2.31974 5.0773 1.67221 5.45503 1.26751 6.37235C0.727914 7.61343 0.458114 9.44807 0.727914 9.85277C0.862814 10.0146 2.31974 10.2305 4.04646 10.3384C5.7462 10.4463 8.01252 10.6622 9.03776 10.7971C12.4912 11.2557 17.4825 11.3906 18.8315 11.0399C20.801 10.5273 22.3929 9.90673 22.3929 9.66391C22.3929 9.15129 21.2057 8.82753 19.8567 8.98941C18.9124 9.12431 18.103 9.04337 17.2667 8.74659C16.1065 8.34189 16.0256 8.34189 15.5939 8.88149C15.3511 9.17827 14.9734 9.42109 14.7305 9.42109C14.2179 9.42109 14.164 8.58471 14.6226 8.12605C14.7845 7.96417 14.8385 7.72135 14.7575 7.61343C14.6496 7.50551 14.3798 7.69437 14.137 8.01813C13.3546 9.15129 12.4103 8.50377 13.1657 7.31665C13.4085 6.91195 13.4625 6.72309 13.2466 6.72309C13.0848 6.72309 12.8689 6.91195 12.788 7.12779C12.5452 7.72135 11.6009 7.64041 11.6009 7.04685C11.6009 6.77705 11.7358 6.42631 11.9246 6.23745C12.0865 6.07557 12.1405 5.83275 12.0325 5.72483C11.9246 5.61691 11.7088 5.72483 11.5739 5.99463C11.3041 6.48027 10.3868 6.61517 10.1439 6.21047C10.063 6.10255 10.1709 5.77879 10.3598 5.48201C10.5756 5.2122 10.6835 4.83448 10.6026 4.64562C10.3868 4.133 9.63132 4.21394 9.2536 4.8075Z" fill="#17627C"/>
<path d="M27.9782 7.02066C27.1958 7.47932 24.9835 8.07288 24.1201 8.07288C23.0679 8.07288 22.852 8.28872 23.3647 8.80134C23.7963 9.26 24.5248 9.17906 26.899 8.4506C27.8164 8.15382 28.3829 7.83006 28.4909 7.47932C28.7067 6.80482 28.5718 6.6969 27.9782 7.02066Z" fill="#17627C"/>
<path d="M21.0444 11.6602C19.7494 12.1728 19.0209 12.2538 15.1088 12.2268C12.6536 12.2268 9.44301 12.0919 7.95911 11.903C6.4752 11.7142 4.07398 11.4983 2.64404 11.3904L0 11.2285V12.0649C0 13.0362 0.59356 13.4679 1.91558 13.4679C2.40122 13.4679 3.80418 13.6028 5.04526 13.7916C7.20366 14.1154 7.2846 14.0884 7.90514 13.5218C8.4987 12.9822 8.68756 12.9283 9.73979 13.1711C10.3873 13.333 12.4378 13.4679 14.2994 13.4679C19.0209 13.4679 22.6632 12.6315 22.8791 11.4983C22.987 10.9318 22.906 10.9318 21.0444 11.6602Z" fill="#17627C"/>
</svg>
