<svg width="20" height="20" viewBox="0 0 20 20" fill="none" xmlns="http://www.w3.org/2000/svg">
<path d="M4.19899 0.0582123C2.34366 0.386312 0.785194 1.74949 0.218833 3.54622C-0.011618 4.26882 9.98442e-05 3.85869 9.98442e-05 12.2174C9.98442e-05 18.1427 0.0118177 19.9121 0.0469711 19.9473C0.0821246 19.9824 0.386788 19.9941 1.17188 19.9941C2.1718 19.9941 2.25773 19.9902 2.31632 19.9238C2.37882 19.8574 2.38272 19.2715 2.38272 12.2916C2.38272 4.95236 2.38663 4.72581 2.45694 4.44068C2.76551 3.23765 3.85526 2.37834 5.07782 2.37834C5.74183 2.37834 6.41366 2.64395 6.90581 3.10094L7.18313 3.35873L7.39014 3.22593C7.50341 3.15172 7.96822 2.88611 8.41741 2.63223C8.87049 2.37834 9.24547 2.16352 9.25328 2.15961C9.28843 2.13227 8.92127 1.70261 8.60098 1.39404C7.87057 0.690975 6.94486 0.226168 5.94104 0.0582123C5.48795 -0.0199051 4.62864 -0.0199051 4.19899 0.0582123Z" fill="#17627C"/>
<path d="M10.8271 2.8084C10.5224 2.85136 10.1904 2.94511 9.97948 3.05057C9.89355 3.09353 9.38578 3.37867 8.84676 3.67942C7.9523 4.18329 7.84293 4.2575 7.5578 4.54654C7.00315 5.10119 6.76098 5.65583 6.72583 6.44483C6.71021 6.8198 6.72192 6.9526 6.79223 7.22602C6.89769 7.64786 7.21798 8.28844 7.30782 8.265C7.44843 8.22985 13.8268 4.59341 13.8268 4.55045C13.8268 4.48014 13.4948 3.95675 13.3152 3.74192C12.7566 3.074 11.7254 2.68731 10.8271 2.8084Z" fill="#17627C"/>
<path d="M14.8034 5.34032C12.784 6.47304 7.14385 9.67201 7.06182 9.72669C6.92902 9.82434 6.81965 10.1095 6.847 10.2891C6.88606 10.5235 7.23368 11.0938 7.41726 11.2266C7.56959 11.332 7.61256 11.3438 7.88207 11.3438H8.18283L12.0497 9.15642C14.1745 7.95339 15.9713 6.91832 16.0416 6.85973C16.2095 6.7113 16.3033 6.45742 16.2798 6.19962C16.2681 6.04339 16.2134 5.90277 16.0689 5.64498C15.8424 5.23486 15.7291 5.14111 15.4323 5.12158C15.2252 5.10987 15.1901 5.12158 14.8034 5.34032Z" fill="#17627C"/>
<path d="M15.8782 9.15246C15.6126 9.27355 15.4642 9.58212 15.5423 9.86725C15.5774 9.98833 15.6517 10.0899 15.8509 10.2735C16.2102 10.6055 16.3079 10.6602 16.5461 10.6602C16.8898 10.6602 17.1476 10.4063 17.1476 10.0625C17.1476 9.85553 17.0695 9.72664 16.7883 9.46884C16.4094 9.12122 16.1477 9.03138 15.8782 9.15246Z" fill="#17627C"/>
<path d="M13.2018 10.6516C13.0143 10.7492 12.8776 11.0148 12.9011 11.2335C12.9245 11.4523 13.2448 12.0225 13.4127 12.1358C13.6744 12.3155 14.1353 12.2217 14.272 11.96C14.4087 11.6905 14.397 11.5734 14.1939 11.175C13.9635 10.7297 13.8346 10.6125 13.5416 10.593C13.3932 10.5812 13.2995 10.5969 13.2018 10.6516Z" fill="#17627C"/>
<path d="M18.6711 11.1974C18.5851 11.2443 18.4992 11.3341 18.4484 11.4396C18.2766 11.7716 18.3508 11.9903 18.7453 12.3301C19.0851 12.6231 19.2062 12.6895 19.4132 12.6895C19.5968 12.6895 19.7452 12.6231 19.878 12.4785C19.9913 12.3574 20.0342 12.0137 19.96 11.8301C19.9131 11.7169 19.4171 11.2716 19.2296 11.17C19.1007 11.1036 18.8234 11.1193 18.6711 11.1974Z" fill="#17627C"/>
<path d="M10.5547 12.1433C10.3867 12.2488 10.2734 12.4402 10.2734 12.6316C10.2734 12.8972 10.3867 13.4479 10.4609 13.5495C10.6445 13.7955 11.0624 13.8815 11.2812 13.7213C11.5624 13.5104 11.6093 13.319 11.5038 12.737C11.4452 12.3855 11.3515 12.2175 11.1718 12.1238C11.0078 12.0418 10.7109 12.0496 10.5547 12.1433Z" fill="#17627C"/>
<path d="M16.151 12.6354C15.8581 12.733 15.6862 13.0572 15.7722 13.3502C15.8347 13.5455 16.2096 14.0571 16.3581 14.1431C16.5182 14.2368 16.858 14.2368 17.0064 14.1392C17.19 14.0181 17.2642 13.8696 17.2642 13.6197C17.2642 13.4048 17.2525 13.3814 17.0221 13.0767C16.8854 12.8971 16.733 12.7252 16.6783 12.6861C16.5416 12.5924 16.3307 12.5729 16.151 12.6354Z" fill="#17627C"/>
<path d="M13.4953 14.1111C13.3313 14.1853 13.1711 14.3806 13.1399 14.5525C13.093 14.8064 13.3781 15.5094 13.5969 15.6657C13.7531 15.7829 13.9797 15.7985 14.1906 15.7047C14.5655 15.5407 14.6241 15.2243 14.3898 14.6423C14.2804 14.3728 14.214 14.2634 14.1125 14.1853C13.9523 14.0642 13.6711 14.0291 13.4953 14.1111Z" fill="#17627C"/>
<path d="M10.7729 15.6393C10.6792 15.7018 10.6089 15.7955 10.5659 15.9127C10.4995 16.0767 10.4995 16.1119 10.562 16.5064C10.6011 16.7642 10.6558 16.9673 10.6987 17.0259C10.9643 17.393 11.4916 17.3891 11.7182 17.0181C11.7729 16.9282 11.7963 16.8228 11.7963 16.6743C11.7924 16.3658 11.7065 15.9244 11.6283 15.7994C11.4526 15.5338 11.0425 15.4557 10.7729 15.6393Z" fill="#17627C"/>
</svg>
