<svg width="13" height="18" viewBox="0 0 13 18" fill="none" xmlns="http://www.w3.org/2000/svg">
<path d="M0 16.5002C9.73815e-06 16.7752 0.0728631 17.045 0.210592 17.28C0.348321 17.515 0.54562 17.7061 0.78091 17.8324C1.0162 17.9588 1.28042 18.0155 1.54467 17.9964C1.80891 17.9773 2.06301 17.8831 2.27917 17.7241L12.3895 10.2802C12.5774 10.1422 12.7307 9.95975 12.8369 9.74786C12.9431 9.53597 12.999 9.30081 13 9.06195C13.001 8.82309 12.947 8.58744 12.8426 8.37461C12.7382 8.16178 12.5863 7.97792 12.3997 7.83834L2.28928 0.283428C2.07359 0.121868 1.81914 0.0252876 1.55396 0.00432777C1.28878 -0.0166321 1.02318 0.0388412 0.786433 0.164639C0.549682 0.290436 0.350974 0.48167 0.212208 0.717264C0.0734429 0.952858 8.85354e-06 1.22366 0 1.49983L0 16.5002Z" fill="#3E96C7"/>
</svg>
