<svg width="13" height="18" viewBox="0 0 13 18" fill="none" xmlns="http://www.w3.org/2000/svg">
<path d="M13 16.5002C13 16.7752 12.9271 17.045 12.7894 17.28C12.6517 17.515 12.4544 17.7061 12.2191 17.8324C11.9838 17.9588 11.7196 18.0155 11.4553 17.9964C11.1911 17.9773 10.937 17.8831 10.7208 17.7241L0.610451 10.2802C0.422643 10.1422 0.269267 9.95975 0.163089 9.74786C0.0569115 9.53597 0.00100136 9.30081 1.23978e-05 9.06195C-0.000976563 8.82309 0.0529842 8.58744 0.157403 8.37461C0.261823 8.16178 0.413681 7.97792 0.60034 7.83834L10.7107 0.283428C10.9264 0.121868 11.1809 0.0252876 11.446 0.00432777C11.7112 -0.0166321 11.9768 0.0388412 12.2136 0.164639C12.4503 0.290436 12.649 0.48167 12.7878 0.717264C12.9266 0.952858 13 1.22366 13 1.49983L13 16.5002Z" fill="#3E96C7"/>
</svg>
