<svg width="57" height="57" viewBox="0 0 57 57" fill="none" xmlns="http://www.w3.org/2000/svg">
<circle cx="28.5" cy="28.5" r="28.5" fill="white"/>
<path fill-rule="evenodd" clip-rule="evenodd" d="M14.3998 11.0469C14.4186 11.0578 14.3863 11.1066 14.3216 11.1771C14.2623 11.2368 13.9901 11.5188 13.7152 11.8036C13.4403 12.0857 13.1519 12.4057 13.0764 12.5088C13.0009 12.6118 12.885 12.7963 12.815 12.9156C12.7476 13.0349 12.6452 13.2601 12.5859 13.4174C12.5266 13.5747 12.4565 13.8052 12.4296 13.9327C12.3891 14.1198 12.381 14.2744 12.3837 14.7735C12.3864 15.2237 12.3999 15.4678 12.4889 16.0211H12.2059L12.1681 15.8502C12.1466 15.758 12.1034 15.5356 12.0738 15.3566C12.0441 15.1776 12.0145 14.9145 12.0037 14.7735C11.9956 14.6324 12.001 14.3748 12.0172 14.2039C12.0334 14.033 12.0711 13.7944 12.1007 13.675C12.1331 13.5557 12.1816 13.3957 12.2112 13.3224C12.2409 13.2465 12.3083 13.1136 12.3622 13.0241C12.4161 12.9346 12.5886 12.7285 12.7449 12.5657C12.9012 12.403 13.2893 12.0369 13.6074 11.7494C13.9254 11.4619 14.2273 11.1825 14.2785 11.1283C14.327 11.0767 14.3809 11.0388 14.3998 11.0469V11.0469ZM34.8914 13.4174C34.9049 13.4174 34.9696 13.4743 35.0424 13.5448C35.1124 13.6181 35.1609 13.6859 35.1502 13.6994C35.1367 13.713 35.1421 13.7157 35.1556 13.7076C35.169 13.6994 35.328 13.8378 35.5059 14.0168C35.6838 14.1985 36.0342 14.5294 36.2875 14.7572C36.5409 14.985 36.8859 15.2861 37.0557 15.4271C37.2255 15.5708 37.5058 15.796 37.6756 15.9289C37.8454 16.0645 38.1796 16.3194 38.4168 16.4984C38.6539 16.6774 39.2361 17.1087 39.7105 17.4585C40.1848 17.8057 40.8586 18.3047 41.2063 18.5678C41.554 18.8309 42.1173 19.2703 42.4596 19.5442C42.8019 19.8181 43.2358 20.1816 43.4298 20.347C43.6239 20.5152 43.8772 20.7538 43.9958 20.8786C44.1144 21.0034 44.2788 21.1905 44.3624 21.2963C44.4459 21.4021 44.6023 21.619 44.7101 21.7845C44.8179 21.9472 44.9931 22.2645 45.1009 22.4896C45.2087 22.712 45.3488 23.0429 45.4108 23.2219C45.4728 23.4009 45.5564 23.683 45.5995 23.8457C45.6426 24.0085 45.7046 24.2851 45.7342 24.456C45.7639 24.6269 45.807 24.9279 45.8286 25.1205C45.8501 25.313 45.8744 25.6683 45.8852 25.907C45.8933 26.1538 45.8879 26.5688 45.8717 26.8698C45.8528 27.16 45.8151 27.594 45.7855 27.8327C45.7558 28.0713 45.6992 28.4321 45.6642 28.6328C45.6264 28.8335 45.5618 29.1589 45.5159 29.3515C45.4728 29.5441 45.3758 29.9102 45.303 30.1652C45.2329 30.4201 45.1467 30.6967 45.0604 30.9381H44.5079C44.1575 30.9381 43.9554 30.9273 43.9554 30.911C43.9554 30.8974 43.9797 30.77 44.0093 30.6317C44.0363 30.496 44.0929 30.2167 44.1306 30.016C44.1683 29.8153 44.2276 29.4437 44.2627 29.1888C44.3004 28.9338 44.3489 28.5433 44.3705 28.3209C44.3947 28.0958 44.4271 27.6455 44.4405 27.3174C44.4621 26.8997 44.4594 26.5525 44.4405 26.1647C44.4244 25.8582 44.3947 25.4676 44.3705 25.2968C44.3489 25.1259 44.3004 24.833 44.2627 24.6458C44.2249 24.4587 44.1656 24.2038 44.1306 24.0763C44.0956 23.9488 44.0147 23.6939 43.9473 23.5067C43.8826 23.3196 43.756 22.9968 43.6643 22.788C43.5727 22.5792 43.4137 22.2564 43.3139 22.0693C43.2115 21.8821 43.0525 21.6055 42.9555 21.4509C42.8612 21.2963 42.6994 21.0522 42.597 20.9084C42.4946 20.7647 42.3167 20.5287 42.2062 20.3877C42.0957 20.2467 41.8801 19.989 41.7292 19.8181C41.5782 19.6473 41.244 19.2974 40.988 19.0452C40.7292 18.7902 40.3546 18.4403 40.1552 18.2695C39.9557 18.0959 39.6026 17.8057 39.3736 17.6213C39.1445 17.4368 38.7725 17.1331 38.5515 16.9459C38.3278 16.7588 37.972 16.455 37.7564 16.2679C37.5435 16.0807 37.2147 15.7878 37.0287 15.617C36.8428 15.4461 36.4681 15.0935 36.1959 14.8304C35.9237 14.5673 35.514 14.1551 35.2849 13.911C35.0585 13.6696 34.8726 13.458 34.8726 13.4445C34.8726 13.4282 34.8806 13.4174 34.8914 13.4174V13.4174ZM33.0398 32.1152C43.0175 32.1179 43.5996 32.1206 43.7533 32.1668C43.8422 32.1912 44.0228 32.2671 44.1575 32.3322C44.3327 32.419 44.4567 32.5058 44.613 32.6495C44.7289 32.7607 44.8745 32.9235 44.9338 33.013C44.9958 33.1025 45.0712 33.2435 45.109 33.3249C45.144 33.4062 45.1952 33.5717 45.2248 33.691C45.2734 33.8998 45.2761 34.0707 45.2761 38.2339C45.2761 42.4053 45.2734 42.568 45.2248 42.7769C45.1952 42.8962 45.1467 43.0562 45.1143 43.1294C45.082 43.2054 45.0038 43.3437 44.9392 43.4413C44.8772 43.539 44.7343 43.7044 44.6238 43.8075C44.481 43.9458 44.3543 44.0326 44.171 44.1248C44.0147 44.2035 43.8206 44.2767 43.6724 44.3092C43.4325 44.3635 43.3705 44.3635 35.9102 44.3499V38.139L35.7701 37.8542C35.6946 37.6969 35.5625 37.4718 35.4763 37.3525C35.3927 37.2331 35.2337 37.0324 35.1286 36.905C35.0208 36.7775 34.7297 36.4602 34.4817 36.1998C34.2338 35.9394 33.9023 35.5841 33.746 35.4132C33.5896 35.2424 33.3686 34.9847 33.2581 34.8437C33.1449 34.7027 33.0156 34.5345 32.9724 34.4721C32.9266 34.407 32.8862 34.3555 32.8781 34.3555C32.87 34.3555 32.8026 34.4558 32.7272 34.5779C32.649 34.7027 32.4981 34.9196 32.3903 35.0607C32.2798 35.2017 31.9483 35.5706 31.6518 35.8825C31.3553 36.1916 31.0049 36.5632 30.8702 36.7097C30.7354 36.8561 30.5548 37.0731 30.4659 37.1897C30.3769 37.3091 30.253 37.4989 30.1883 37.6101C30.1263 37.7213 30.0347 37.9058 29.8999 38.2204L29.8729 44.3499L22.4342 44.3662L22.1781 44.3065C22.0218 44.2686 21.8277 44.2008 21.6795 44.1248C21.4855 44.0272 21.3884 43.9539 21.2052 43.7695C21.0758 43.6393 20.9302 43.4576 20.8709 43.36C20.817 43.2623 20.7335 43.0752 20.6014 42.6955L20.5933 38.356C20.588 35.4838 20.596 33.9541 20.6149 33.8348C20.6284 33.7317 20.6715 33.5608 20.7119 33.455C20.7497 33.3466 20.8224 33.1838 20.8763 33.0943C20.9302 33.0048 21.0785 32.8285 21.2052 32.7011C21.3776 32.5302 21.4935 32.4407 21.6526 32.3566C21.7711 32.2942 21.9409 32.2237 22.0299 32.1966C22.1188 32.1722 22.259 32.1423 22.3398 32.1315C22.4207 32.1206 27.237 32.1125 33.0398 32.1152V32.1152ZM24.9003 38.3885C24.7494 38.459 24.6496 38.5323 24.5068 38.676C24.4017 38.7845 24.2885 38.9255 24.2534 38.9933C24.2184 39.0611 24.1672 39.1832 24.1348 39.2646C24.0836 39.4056 24.0809 39.4788 24.0729 40.5203L24.0648 41.6242L27.016 41.6106C26.9999 39.6822 26.9918 39.4381 26.9567 39.3188C26.9352 39.2374 26.8786 39.0964 26.8327 39.0069C26.7842 38.9174 26.6737 38.7709 26.5848 38.6814C26.4932 38.5892 26.3422 38.4753 26.2344 38.4184C26.1293 38.3641 25.9676 38.299 25.8706 38.2773C25.7735 38.2529 25.6226 38.2366 25.5337 38.2366C25.4447 38.2394 25.31 38.2529 25.2372 38.2665C25.1617 38.28 25.0108 38.3343 24.9003 38.3885V38.3885ZM39.6161 38.4238C39.5191 38.4753 39.3682 38.5919 39.2792 38.6814C39.1849 38.7764 39.0771 38.9228 39.0205 39.034C38.9666 39.1371 38.9046 39.2917 38.8857 39.3731C38.8561 39.487 38.848 39.7717 38.848 40.5664V41.6106L41.7992 41.6242C41.7992 39.6551 41.7965 39.5602 41.7453 39.3595C41.713 39.2402 41.6564 39.0828 41.616 39.0069C41.5755 38.9337 41.4569 38.7845 41.3545 38.6787C41.2252 38.5485 41.1093 38.459 40.9907 38.4021C40.8936 38.356 40.7427 38.299 40.6538 38.2746C40.5648 38.2529 40.4058 38.2339 40.3034 38.2366C40.201 38.2366 40.042 38.2583 39.953 38.2855C39.8641 38.3099 39.7131 38.3723 39.6161 38.4238V38.4238ZM15.4158 10C15.4293 10 15.4401 10.0054 15.4401 10.0136C15.4401 10.0217 15.4994 10.2685 15.5722 10.5641C15.6476 10.8571 15.7932 11.4727 15.8956 11.9338C16.0007 12.3922 16.1247 12.9888 16.1678 13.2628C16.2136 13.534 16.2621 13.9273 16.2783 14.1361C16.2972 14.3531 16.3026 14.825 16.2972 15.2345C16.2891 15.6305 16.2756 15.9695 16.2675 15.9885C16.2541 16.0129 16.0492 16.0211 14.5372 16.0211L14.5183 15.8665C14.5076 15.7797 14.4914 15.5274 14.4806 15.3023C14.4698 15.0718 14.4779 14.6623 14.4968 14.3531C14.5156 14.0086 14.5615 13.6072 14.6181 13.2546C14.6774 12.8939 14.8094 12.2972 14.9927 11.5595C15.149 10.933 15.3026 10.3255 15.335 10.2088C15.3646 10.0949 15.4024 10 15.4158 10V10ZM15.1598 10.4692C15.1625 10.4746 15.0439 10.9737 14.8957 11.5758C14.742 12.2159 14.5911 12.902 14.5372 13.2275C14.4887 13.534 14.4321 13.9923 14.4132 14.2446C14.3944 14.5294 14.389 14.9226 14.3971 15.2752C14.4078 15.5898 14.424 15.8855 14.4564 16.0211H13.6613L13.6397 15.8665C13.6289 15.7797 13.6208 15.3539 13.6208 14.9226C13.6208 14.2907 13.6316 14.0791 13.6694 13.8378C13.6963 13.6723 13.7367 13.4662 13.7583 13.3767C13.7799 13.2872 13.8311 13.1163 13.8688 12.997C13.9065 12.8776 13.9766 12.7013 14.0251 12.6037C14.0709 12.5061 14.2165 12.2376 14.3459 12.007C14.4752 11.7765 14.7016 11.3425 14.8525 11.0442C15.0008 10.7459 15.1302 10.4909 15.1382 10.4801C15.1463 10.4665 15.1544 10.4638 15.1598 10.4692V10.4692ZM15.6665 10.4611C15.6746 10.4611 15.8255 10.7513 16.0034 11.1066C16.1786 11.4592 16.4292 11.9392 16.5559 12.1698C16.6826 12.4003 16.8254 12.6824 16.8713 12.7936C16.9198 12.9048 16.9898 13.1299 17.033 13.2953C17.0734 13.4608 17.1273 13.7401 17.1543 13.9191C17.1839 14.1388 17.2001 14.429 17.2028 14.8141C17.2055 15.1288 17.1974 15.5274 17.165 16.0211H16.37L16.3807 15.2264C16.3861 14.768 16.378 14.2798 16.3592 14.0683C16.343 13.8676 16.2918 13.4825 16.246 13.2139C16.2002 12.9454 16.0546 12.2511 15.9199 11.668C15.7851 11.0876 15.6692 10.5777 15.6611 10.5343C15.653 10.4936 15.6557 10.4611 15.6665 10.4611ZM14.804 10.8679C14.8094 10.8679 14.8094 10.895 14.804 10.9276C14.796 10.9628 14.6935 11.1798 14.5722 11.4103C14.4537 11.6409 14.2677 11.9826 14.1599 12.1698C14.0521 12.3569 13.9227 12.6173 13.8688 12.7529C13.8149 12.8885 13.7421 13.1136 13.7071 13.2546C13.6694 13.3957 13.6181 13.6343 13.5912 13.7835C13.5481 14.0113 13.54 14.1958 13.54 14.9226C13.54 15.4 13.5481 15.8421 13.5804 16.0211H13.2974C13.0522 16.0211 13.0117 16.0156 13.0009 15.9722C12.9929 15.9478 12.9713 15.7987 12.9497 15.6414C12.9282 15.4841 12.9012 15.2101 12.8931 15.0311C12.8824 14.844 12.8877 14.5673 12.9039 14.3802C12.9228 14.2012 12.9578 13.9435 12.9848 13.8106C13.0144 13.6777 13.0683 13.4689 13.1088 13.3496C13.1492 13.2302 13.2543 12.9915 13.3405 12.8207C13.4295 12.6498 13.5804 12.3976 13.6828 12.2647C13.7826 12.1291 13.9712 11.8985 14.1006 11.7494C14.2327 11.6002 14.4429 11.3398 14.5669 11.1717C14.6935 11.0062 14.7986 10.8679 14.804 10.8679V10.8679ZM16.0196 10.895C16.0277 10.895 16.1355 11.0333 16.2568 11.1988C16.3807 11.3669 16.5775 11.6083 16.6907 11.7358C16.8039 11.8633 16.9872 12.083 17.095 12.224C17.2001 12.365 17.3375 12.5684 17.3941 12.6715C17.4534 12.7746 17.5478 12.9726 17.6044 13.1055C17.661 13.2384 17.7391 13.4608 17.7742 13.5937C17.8092 13.7266 17.855 13.9652 17.8793 14.1225C17.9008 14.2798 17.9197 14.5782 17.9197 14.787C17.9197 14.9959 17.9062 15.2779 17.8927 15.4108C17.8793 15.5437 17.855 15.7363 17.8119 16.0211H17.2324L17.254 15.8665C17.2648 15.7797 17.2809 15.4651 17.289 15.1667C17.3025 14.8223 17.2944 14.4914 17.2755 14.2581C17.2567 14.0574 17.2189 13.7645 17.1893 13.6072C17.1596 13.4499 17.0896 13.1895 17.0384 13.0241C16.9872 12.8614 16.9063 12.6525 16.8632 12.563C16.8174 12.4735 16.6934 12.243 16.5856 12.0477C16.4778 11.8524 16.3134 11.5432 16.2217 11.3561C16.1301 11.169 16.0438 10.99 16.0304 10.9547C16.0169 10.9221 16.0142 10.895 16.0196 10.895V10.895ZM16.4562 11.0578C16.4697 11.055 16.4966 11.0767 16.5182 11.1012C16.5398 11.1283 16.8497 11.4131 17.2055 11.7358C17.5612 12.0613 17.9682 12.4464 18.1084 12.5929C18.2512 12.742 18.4102 12.9346 18.4641 13.0241C18.518 13.1136 18.5962 13.2736 18.6339 13.3767C18.6744 13.4797 18.7283 13.6777 18.7552 13.8106C18.7822 13.9435 18.8145 14.1714 18.8253 14.3124C18.8361 14.4616 18.828 14.7138 18.8118 14.9091C18.7929 15.0962 18.7552 15.3756 18.7256 15.5329C18.6959 15.6902 18.6555 15.8638 18.6393 15.9207C18.607 16.0211 18.6043 16.0211 18.3375 16.0211L18.3563 15.9207C18.3698 15.8638 18.3967 15.6658 18.421 15.4786C18.4453 15.2888 18.4641 14.9443 18.4641 14.6921C18.4641 14.3368 18.4533 14.1849 18.4048 13.9598C18.3725 13.8025 18.3051 13.5638 18.2539 13.4309C18.2027 13.298 18.103 13.0838 18.0329 12.9563C17.9655 12.8288 17.82 12.6091 17.7149 12.4681C17.6071 12.3271 17.2755 11.9636 16.9791 11.6599C16.6799 11.3588 16.4373 11.0984 16.4373 11.0849C16.4373 11.0713 16.4454 11.0578 16.4562 11.0578V11.0578ZM16.3807 11.1717C16.3915 11.1771 16.6529 11.4429 16.9629 11.7629C17.2755 12.083 17.5909 12.4328 17.6663 12.5359C17.7418 12.639 17.855 12.8125 17.9143 12.9156C17.9763 13.0187 18.0706 13.2085 18.1245 13.336C18.1784 13.4635 18.2539 13.6832 18.2916 13.8242C18.3563 14.0656 18.3617 14.1252 18.3617 14.7057C18.3644 15.202 18.3536 15.4 18.2566 16.0211H18.0733C17.9008 16.0211 17.8927 16.0184 17.9062 15.9587C17.9116 15.9261 17.9386 15.7471 17.9628 15.56C17.9952 15.2996 18.0032 15.0908 17.9925 14.665C17.9817 14.2473 17.9655 14.0439 17.9224 13.8513C17.8927 13.7103 17.8227 13.4662 17.7688 13.3089C17.7176 13.1516 17.6151 12.9156 17.5478 12.78C17.4777 12.6444 17.3564 12.4437 17.2755 12.3325C17.1974 12.2213 17.0464 12.0287 16.9386 11.904C16.8335 11.7792 16.6583 11.5731 16.5505 11.4429C16.4427 11.3127 16.3565 11.1961 16.3592 11.1852C16.3619 11.1717 16.37 11.1662 16.3807 11.1717ZM14.23 11.4103C14.2434 11.4103 14.2542 11.4185 14.2542 11.4293C14.2542 11.4429 14.1329 11.5921 13.9847 11.7629C13.8365 11.9338 13.6478 12.167 13.5669 12.2782C13.4888 12.3894 13.3621 12.5983 13.2866 12.7393C13.2112 12.8803 13.1141 13.1 13.0683 13.2275C13.0198 13.355 12.9551 13.5801 12.9201 13.7293C12.885 13.8784 12.8419 14.1198 12.8258 14.2636C12.8123 14.41 12.7988 14.6487 12.7988 14.7924C12.7988 14.9389 12.8123 15.1857 12.8284 15.343C12.8446 15.5003 12.8716 15.7173 12.9201 16.0211H12.7503C12.6128 16.0211 12.5805 16.0129 12.5697 15.9722C12.5643 15.9478 12.5374 15.7797 12.5104 15.6007C12.4808 15.3837 12.4646 15.0962 12.4646 14.7463C12.4619 14.4127 12.4754 14.1469 12.4969 14.0276C12.5185 13.9245 12.5643 13.7401 12.6021 13.6208C12.6398 13.5014 12.7152 13.3062 12.7718 13.1868C12.8284 13.0675 12.9632 12.8342 13.071 12.6715C13.2193 12.4464 13.3837 12.2565 13.7394 11.8904C13.9982 11.6273 14.2192 11.4103 14.23 11.4103V11.4103ZM32.932 11.5188C32.9482 11.5188 32.9778 11.5758 32.9994 11.6463C33.0183 11.7195 33.1153 12.0314 33.2123 12.346C33.3066 12.6607 33.525 13.4038 33.6974 14.0005C33.8672 14.5972 34.1233 15.5003 34.2634 16.0075C34.4036 16.5147 34.7486 17.7596 35.0316 18.7739C35.3739 20.0053 35.5868 20.8352 35.6784 21.2692C35.7512 21.6272 35.8725 22.2428 35.9479 22.6388C36.0207 23.0348 36.107 23.504 36.1366 23.683C36.1663 23.862 36.2175 24.277 36.2471 24.6052C36.2768 24.9333 36.3145 25.4025 36.3334 25.6494C36.3549 25.9368 36.3684 26.6285 36.3684 27.575C36.3684 28.4972 36.3549 29.2105 36.3334 29.4735C36.3145 29.7041 36.2821 30.1001 36.2606 30.355C36.2363 30.61 36.2121 30.8432 36.1932 30.9381H29.536L29.5226 30.8758C29.5172 30.8432 29.4929 30.6208 29.4714 30.3821C29.4471 30.1435 29.4148 29.7475 29.3959 29.5007C29.3716 29.2105 29.3609 28.5216 29.3609 27.5343C29.3609 26.5634 29.3743 25.8582 29.3959 25.5815C29.4121 25.3429 29.4525 24.8737 29.4848 24.5374C29.5226 24.1251 29.5873 23.6667 29.6843 23.127C29.7651 22.6876 29.9107 21.9364 30.0077 21.459C30.1047 20.9817 30.2341 20.4148 30.2934 20.1978C30.3554 19.9809 30.571 19.2323 30.7758 18.5298C30.9834 17.8274 31.296 16.7669 31.4766 16.1702C31.6572 15.5736 31.9833 14.4995 32.2043 13.7835C32.4253 13.0675 32.6625 12.3108 32.7299 12.1019C32.7972 11.8931 32.8646 11.6761 32.8808 11.6192C32.8943 11.5649 32.9185 11.5188 32.932 11.5188ZM32.304 12.639C32.3094 12.6552 32.1666 13.1489 31.9887 13.7293C31.8081 14.3097 31.4982 15.3295 31.2987 15.9939C31.0993 16.6584 30.7678 17.7731 30.5602 18.4756C30.3554 19.1781 30.1398 19.9266 30.0778 20.1436C30.0185 20.3606 29.8945 20.8976 29.8056 21.337C29.7139 21.7763 29.5765 22.4924 29.4956 22.9236C29.4148 23.3548 29.3366 23.8132 29.3231 23.9407C29.307 24.0681 29.2692 24.4397 29.2423 24.7679C29.2126 25.0961 29.1722 25.6032 29.156 25.8935C29.1372 26.1837 29.1237 26.9241 29.1237 27.5343C29.1237 28.1446 29.1372 28.885 29.156 29.1752C29.1722 29.4654 29.2126 29.9672 29.2396 30.2872C29.2692 30.6072 29.2935 30.8866 29.2935 30.9029C29.2935 30.93 28.97 30.9381 27.7707 30.9381C26.3422 30.9381 26.2479 30.9354 26.2371 30.8893C26.229 30.8649 26.1994 30.5991 26.1697 30.3008C26.1374 30.0024 26.0943 29.5197 26.07 29.2294C26.0484 28.9392 26.0215 28.2422 26.0134 27.6835C26.0026 27.0407 26.0107 26.4684 26.0296 26.124C26.0457 25.8256 26.0862 25.3619 26.1158 25.0934C26.1455 24.8248 26.2048 24.3909 26.2506 24.1305C26.2937 23.8702 26.388 23.4118 26.4608 23.1135C26.5363 22.8151 26.6576 22.3812 26.733 22.1506C26.8085 21.9201 26.9325 21.5784 27.0079 21.3912C27.0807 21.2041 27.264 20.8027 27.4149 20.4962C27.6575 19.9971 27.7626 19.8236 28.4445 18.8011C28.8622 18.1746 29.3743 17.3989 29.5819 17.0788C29.7894 16.7588 30.0859 16.295 30.2422 16.0482C30.3958 15.8014 30.6761 15.3512 30.8621 15.0447C31.0481 14.7382 31.3257 14.269 31.482 14.0005C31.6383 13.732 31.8728 13.317 32.0049 13.0783C32.1369 12.8397 32.2555 12.6363 32.269 12.6254C32.2825 12.6146 32.2986 12.62 32.304 12.639ZM33.6004 12.6335C33.6193 12.6552 33.7325 12.8478 33.8484 13.0648C33.9643 13.2818 34.1988 13.7021 34.3686 14.0005C34.5383 14.2988 34.8267 14.7924 35.0073 15.0989C35.1906 15.4054 35.5032 15.918 35.7027 16.238C35.9021 16.5581 36.2417 17.0951 36.46 17.4314C36.6756 17.7677 37.1311 18.462 37.4734 18.9774C38.0044 19.7747 38.1365 19.9944 38.3709 20.4691C38.5219 20.7755 38.7051 21.1769 38.7779 21.3641C38.8507 21.5512 38.9612 21.8496 39.0232 22.0286C39.0825 22.2076 39.1795 22.5249 39.2361 22.7337C39.2954 22.9426 39.3736 23.2599 39.414 23.4389C39.4544 23.6179 39.5191 23.9705 39.5622 24.2255C39.6053 24.4804 39.6646 24.9333 39.6943 25.2344C39.7266 25.5382 39.7644 26.124 39.7805 26.5362C39.8021 27.095 39.8021 27.4991 39.7805 28.0903C39.7644 28.5297 39.7239 29.1779 39.6943 29.5278C39.6673 29.8777 39.6242 30.317 39.6026 30.5042C39.5811 30.6913 39.5622 30.8649 39.5622 30.8893C39.5622 30.9354 39.4706 30.9381 36.4358 30.9381V30.8758C36.4358 30.8432 36.4546 30.6317 36.4762 30.4093C36.4978 30.1841 36.5274 29.8316 36.5436 29.6227C36.5571 29.4139 36.5813 28.8633 36.5975 28.4022C36.6164 27.8245 36.6164 27.2957 36.5975 26.7071C36.584 26.2379 36.5517 25.6141 36.5301 25.3239C36.5085 25.0337 36.4708 24.5997 36.4466 24.3611C36.425 24.1224 36.3819 23.7861 36.3522 23.6152C36.3226 23.4443 36.2363 22.9806 36.1636 22.5846C36.0881 22.1886 35.9668 21.5729 35.894 21.2149C35.8024 20.781 35.5895 19.951 35.2472 18.7197C34.9642 17.7053 34.5949 16.3764 34.4252 15.7634C34.2554 15.1505 33.9885 14.212 33.8349 13.675C33.6786 13.138 33.5546 12.6769 33.5573 12.6471C33.5627 12.6037 33.5708 12.6037 33.6004 12.6335ZM31.5494 12.8098C31.5548 12.8153 31.4577 12.9373 31.3364 13.0783C31.2125 13.2194 31.0993 13.336 31.0858 13.3387C31.0723 13.3387 31.075 13.3224 31.0912 13.3035C31.11 13.2845 31.1208 13.2601 31.1127 13.2465C31.1047 13.2356 31.1532 13.1814 31.2205 13.1244C31.2879 13.0702 31.3445 13.0132 31.3418 12.997C31.3418 12.9807 31.3877 12.9319 31.4416 12.8831C31.4955 12.837 31.544 12.8044 31.5494 12.8098V12.8098ZM34.6758 13.1733C34.6893 13.1706 34.7216 13.1977 34.7513 13.2275C34.7809 13.2573 34.7917 13.2818 34.7782 13.2818C34.7647 13.279 34.7701 13.298 34.7917 13.3224C34.8213 13.3523 34.8213 13.3658 34.7998 13.3631C34.7809 13.3631 34.7405 13.3306 34.7108 13.2872C34.6785 13.2465 34.6542 13.2058 34.6569 13.1923C34.6569 13.1814 34.665 13.1733 34.6785 13.1733H34.6758ZM31.5979 13.2546C31.5979 13.2546 31.6006 13.2763 31.6006 13.3007C31.6006 13.3279 31.4389 13.6235 31.2448 13.9598C31.0481 14.2961 30.7462 14.8033 30.571 15.0854C30.3958 15.3674 30.1398 15.7824 29.9969 16.0075C29.8568 16.2299 29.4687 16.8293 29.1372 17.3365C28.8056 17.8437 28.3097 18.5949 28.0348 19.0045C27.6224 19.6201 27.485 19.8534 27.2451 20.3335C27.0861 20.6535 26.8786 21.1119 26.7842 21.3505C26.6926 21.5892 26.5605 21.9499 26.4958 22.1506C26.4312 22.3513 26.318 22.7609 26.2452 23.0592C26.1724 23.3576 26.0754 23.8159 26.0296 24.0763C25.9865 24.3367 25.9245 24.7652 25.8948 25.0255C25.8679 25.2859 25.8301 25.7009 25.814 25.9477C25.7978 26.1945 25.7843 26.8047 25.7843 27.3038C25.7843 27.8028 25.7978 28.4321 25.814 28.7006C25.8274 28.9691 25.8598 29.403 25.8813 29.6634C25.9056 29.9238 25.9406 30.2899 25.9622 30.4771C25.9838 30.6642 26.0026 30.8432 26.0026 30.9381H24.8841C23.8411 30.9381 23.7656 30.9354 23.7521 30.8893C23.7467 30.8649 23.7036 30.6588 23.6578 30.4364C23.612 30.2113 23.5446 29.8451 23.5096 29.6227C23.4745 29.3976 23.4206 28.9962 23.391 28.7277C23.3586 28.4592 23.3236 27.9656 23.3074 27.6293C23.2912 27.2441 23.2912 26.8183 23.3074 26.4766C23.3209 26.1782 23.3452 25.8121 23.3613 25.6629C23.3775 25.5137 23.4098 25.2696 23.4314 25.1205C23.453 24.9713 23.4961 24.7218 23.5257 24.5645C23.5554 24.4072 23.6174 24.1332 23.6632 23.9542C23.7063 23.7752 23.806 23.4335 23.8842 23.1948C23.9624 22.9561 24.0917 22.609 24.1699 22.4218C24.248 22.2347 24.3882 21.9282 24.4825 21.7357C24.5769 21.5458 24.7359 21.2529 24.8356 21.0847C24.9326 20.9193 25.0863 20.6698 25.1752 20.5369C25.2641 20.404 25.4366 20.1599 25.5579 19.9944C25.6765 19.829 25.9029 19.5442 26.0592 19.3571C26.2129 19.1699 26.5686 18.7821 26.8516 18.4919C27.1346 18.2044 27.679 17.6701 28.0645 17.3066C28.4499 16.9432 28.9431 16.455 29.1614 16.2191C29.377 15.9831 29.6843 15.6386 29.8433 15.4515C30.0023 15.2644 30.2934 14.9118 30.4901 14.665C30.6842 14.4182 31.0022 14.0086 31.1909 13.7564C31.3823 13.5042 31.5494 13.2872 31.5655 13.2763C31.5817 13.2655 31.5952 13.2546 31.5979 13.2546V13.2546ZM30.9968 13.393C31.0076 13.3902 31.0157 13.4011 31.0157 13.4174C31.0157 13.4336 30.8405 13.6316 30.6303 13.8567C30.4174 14.0846 30.0427 14.467 29.8002 14.7029C29.5576 14.9416 29.1533 15.324 28.9 15.5546C28.6466 15.7878 28.1857 16.1974 27.8731 16.4659C27.5632 16.7371 27.0052 17.2036 26.6333 17.5019C26.2641 17.803 25.822 18.1691 25.6522 18.3156C25.4825 18.4648 25.1429 18.7794 24.9003 19.018C24.6577 19.2567 24.337 19.5903 24.1861 19.7612C24.0378 19.9293 23.8006 20.2114 23.6632 20.385C23.5257 20.5586 23.2939 20.8759 23.1484 21.0929C23.0029 21.3098 22.8196 21.5973 22.7414 21.7302C22.6633 21.8631 22.515 22.1452 22.4099 22.354C22.3075 22.5629 22.17 22.8612 22.1054 23.0185C22.0434 23.1758 21.9571 23.3955 21.9167 23.5067C21.8763 23.6179 21.8035 23.8512 21.7523 24.022C21.7038 24.1929 21.6337 24.4858 21.596 24.673C21.5609 24.8601 21.5124 25.1639 21.4855 25.351C21.4585 25.5653 21.4369 25.983 21.4289 26.4766C21.4208 26.9512 21.4262 27.4421 21.445 27.7106C21.4612 27.9574 21.4935 28.3236 21.5178 28.5243C21.5394 28.725 21.5879 29.0911 21.6256 29.3379C21.6633 29.5847 21.7415 30.0295 21.8008 30.3279C21.8574 30.6262 21.9059 30.8866 21.9059 30.9029C21.9059 30.93 21.7765 30.9381 20.8009 30.9381L20.7497 30.7944C20.7227 30.7184 20.6553 30.5069 20.6041 30.3279C20.5502 30.1489 20.464 29.8316 20.4128 29.6227C20.3616 29.4139 20.2888 29.083 20.2511 28.8904C20.2133 28.6979 20.1567 28.3778 20.1271 28.1853C20.1001 27.9927 20.0543 27.632 20.03 27.3852C20.0031 27.1085 19.9869 26.6827 19.9869 26.2732C19.9869 25.907 20.0004 25.4622 20.0166 25.2832C20.0354 25.1042 20.0732 24.8059 20.1028 24.6187C20.1325 24.4316 20.1918 24.1332 20.2349 23.9542C20.278 23.7752 20.3696 23.4633 20.437 23.2626C20.5071 23.0619 20.6446 22.7256 20.7443 22.5168C20.844 22.3079 20.9895 22.034 21.0704 21.9065C21.1486 21.7791 21.2995 21.5594 21.4046 21.4183C21.5097 21.2773 21.7226 21.0305 21.879 20.8678C22.0353 20.7023 22.3371 20.423 22.5528 20.2412C22.7684 20.0595 23.1268 19.7639 23.3478 19.5849C23.5715 19.4059 23.957 19.0994 24.2103 18.9041C24.4637 18.7089 25.0027 18.3047 25.4097 18.0037C25.8167 17.7053 26.4473 17.2388 26.8112 16.9703C27.175 16.7018 27.671 16.3275 27.9162 16.1377C28.1615 15.9506 28.555 15.6332 28.7922 15.4379C29.0293 15.24 29.3986 14.9226 29.6142 14.7301C29.8298 14.5375 30.2233 14.1578 30.4901 13.8866C30.757 13.6154 30.9834 13.393 30.9968 13.393V13.393ZM34.3739 13.4363C34.3901 13.4499 34.568 13.6777 34.7674 13.9462C34.9669 14.2147 35.2741 14.6189 35.452 14.8413C35.6299 15.0664 35.9399 15.4379 36.1393 15.6685C36.3387 15.899 36.6514 16.2462 36.8374 16.4387C37.0233 16.6313 37.4411 17.0381 37.7672 17.3446C38.0933 17.6511 38.5596 18.104 38.8049 18.3508C39.0501 18.5977 39.3843 18.9557 39.546 19.1428C39.7105 19.3299 39.9422 19.612 40.0608 19.7666C40.1821 19.9212 40.4085 20.2385 40.5621 20.4691C40.7185 20.6996 40.9233 21.0224 41.0149 21.1878C41.1093 21.3532 41.2683 21.657 41.3707 21.8658C41.4704 22.0747 41.616 22.4056 41.6914 22.5981C41.7696 22.7907 41.8774 23.0972 41.9367 23.2762C41.9933 23.4552 42.0876 23.7915 42.1442 24.022C42.2035 24.2526 42.2817 24.6269 42.3194 24.8493C42.3571 25.0744 42.4084 25.4459 42.4353 25.6765C42.4703 25.9992 42.4811 26.3166 42.4811 27.0461C42.4811 27.7486 42.4677 28.112 42.4353 28.4429C42.4084 28.6897 42.3598 29.0966 42.3221 29.3515C42.2871 29.6064 42.2143 30.0268 42.1604 30.2872C42.1065 30.5476 42.0553 30.8025 42.0256 30.9381H39.7617L39.7805 30.8378C39.7913 30.7808 39.8237 30.496 39.8533 30.2058C39.8829 29.9156 39.9207 29.5115 39.9369 29.3108C39.9503 29.1101 39.9746 28.687 39.9908 28.3751C40.0042 28.0632 40.0177 27.5669 40.0177 27.2767C40.0177 26.9865 40.0042 26.5173 39.9908 26.2325C39.9746 25.9477 39.9449 25.5273 39.9234 25.2968C39.8991 25.0662 39.856 24.7055 39.8263 24.4967C39.7967 24.2878 39.7428 23.9569 39.7051 23.7644C39.6673 23.5718 39.5892 23.2165 39.5299 22.9778C39.4679 22.7392 39.3439 22.3106 39.2496 22.0286C39.1552 21.7465 39.0097 21.3478 38.9261 21.1471C38.8426 20.9464 38.6566 20.5477 38.5138 20.2657C38.3036 19.8507 38.1203 19.5469 37.5543 18.6926C37.1716 18.1122 36.6783 17.3609 36.4654 17.0246C36.2498 16.6883 35.9075 16.1458 35.7054 15.8177C35.5032 15.4895 35.2229 15.0257 35.0801 14.787C34.9399 14.5483 34.7189 14.1714 34.5923 13.9462C34.4629 13.7238 34.3551 13.5123 34.3497 13.477C34.3443 13.4363 34.3524 13.4228 34.3739 13.4363V13.4363ZM35.6191 14.6107C35.6299 14.6107 35.8267 14.7897 36.0558 15.0094C36.2875 15.2291 36.6137 15.541 36.7835 15.6983C36.9533 15.8556 37.2578 16.1296 37.4573 16.3058C37.6567 16.4849 38.0691 16.8374 38.3736 17.0924C38.6782 17.3446 39.1364 17.7243 39.3951 17.9332C39.6539 18.142 40.0177 18.4485 40.2037 18.6112C40.3896 18.7767 40.7319 19.0994 40.961 19.3299C41.1901 19.5605 41.4974 19.8914 41.6456 20.0622C41.7912 20.2331 42.0041 20.4962 42.12 20.6454C42.2332 20.7945 42.4191 21.0522 42.5296 21.2149C42.6401 21.3804 42.8072 21.6407 42.9016 21.798C42.9932 21.9553 43.1549 22.2537 43.26 22.4625C43.3625 22.6714 43.5026 22.9778 43.57 23.1406C43.6347 23.306 43.7317 23.561 43.7829 23.7101C43.8341 23.8593 43.9096 24.1224 43.9527 24.2933C43.9958 24.4641 44.0497 24.7082 44.074 24.8357C44.0956 24.9632 44.1333 25.2073 44.1575 25.3781C44.1818 25.5599 44.2061 26.0128 44.2141 26.463C44.2222 26.9512 44.2168 27.4069 44.198 27.6971C44.1791 27.952 44.1468 28.31 44.1279 28.4972C44.1063 28.6843 44.0551 29.0504 44.0174 29.3108C43.977 29.5712 43.8961 30.0431 43.7209 30.9246L42.2547 30.9381L42.2682 30.8785C42.2763 30.8432 42.3248 30.61 42.3733 30.355C42.4245 30.1001 42.4973 29.6797 42.535 29.4193C42.5728 29.1589 42.624 28.7684 42.6482 28.5514C42.6698 28.3344 42.6967 27.7866 42.7048 27.3309C42.7129 26.8129 42.7075 26.3464 42.6887 26.0833C42.6725 25.8528 42.6401 25.5165 42.6159 25.3375C42.5943 25.1584 42.5458 24.8465 42.5081 24.6458C42.4703 24.4451 42.4057 24.1387 42.3625 23.9678C42.3194 23.7969 42.2413 23.5094 42.1873 23.3304C42.1334 23.1514 42.0095 22.8043 41.9124 22.5575C41.8154 22.3106 41.6483 21.9282 41.5378 21.7031C41.43 21.4807 41.2252 21.101 41.0823 20.8623C40.9395 20.6237 40.7239 20.2901 40.6026 20.1192C40.4813 19.9483 40.2738 19.6744 40.1417 19.5089C40.0096 19.3435 39.7832 19.075 39.6404 18.9096C39.4948 18.7468 39.2064 18.4403 39.0016 18.2315C38.7968 18.0227 38.3548 17.5969 38.0206 17.285C37.689 16.973 37.2902 16.5879 37.1365 16.4306C36.9829 16.2733 36.7053 15.9722 36.5193 15.7634C36.3334 15.5546 36.0504 15.221 35.8913 15.0257C35.7296 14.8277 35.5976 14.6541 35.5976 14.6379C35.5976 14.6243 35.6057 14.6107 35.6164 14.6107H35.6191ZM29.9322 14.9091C29.9511 14.9091 29.9673 14.9226 29.9673 14.9362C29.9673 14.9525 29.819 15.1369 29.6385 15.3512C29.4552 15.5627 29.1479 15.9072 28.9539 16.116C28.7598 16.3248 28.2504 16.8266 27.8219 17.2307C27.3934 17.6348 26.884 18.1312 26.6926 18.3291C26.4985 18.5298 26.2479 18.7956 26.1374 18.9231C26.0242 19.0506 25.7951 19.3245 25.628 19.5334C25.4636 19.7422 25.1887 20.1192 25.0216 20.3741C24.8545 20.6291 24.6415 20.9708 24.5499 21.1336C24.4583 21.299 24.3073 21.5919 24.2157 21.7845C24.1214 21.977 23.9785 22.3079 23.895 22.5168C23.8141 22.7256 23.6955 23.0565 23.6335 23.2491C23.5715 23.4416 23.4799 23.7725 23.4287 23.9814C23.3775 24.1902 23.3074 24.5319 23.2697 24.7408C23.2346 24.9496 23.1861 25.2724 23.1619 25.4595C23.1403 25.6466 23.108 26.0725 23.0891 26.4088C23.0648 26.8753 23.0648 27.1709 23.0891 27.6699C23.108 28.0279 23.1457 28.5351 23.1754 28.7955C23.205 29.0559 23.2535 29.4302 23.2859 29.6227C23.3155 29.8153 23.3829 30.1787 23.4341 30.431C23.4853 30.6805 23.5257 30.8974 23.5257 30.911C23.5257 30.9273 23.2778 30.9381 22.1512 30.9381L22.1134 30.7564C22.0919 30.6534 22.0299 30.3469 21.9787 30.0702C21.9275 29.7936 21.8547 29.3542 21.817 29.0938C21.7792 28.8335 21.728 28.4049 21.7011 28.1446C21.666 27.7947 21.6553 27.4286 21.6526 26.7478C21.6526 26.0182 21.6633 25.747 21.7011 25.4459C21.728 25.2371 21.7873 24.8845 21.8304 24.6594C21.8763 24.437 21.9814 24.0383 22.0676 23.7779C22.1539 23.5176 22.2832 23.1704 22.3533 23.005C22.4234 22.8422 22.5312 22.6036 22.5959 22.4761C22.6579 22.3486 22.7792 22.1235 22.8654 21.9743C22.949 21.8252 23.143 21.5133 23.2966 21.2827C23.4503 21.0522 23.7279 20.6725 23.9111 20.4419C24.0971 20.2114 24.399 19.8588 24.5823 19.6635C24.7628 19.4656 25.0539 19.1726 25.2237 19.0126C25.3962 18.8499 25.663 18.6085 25.8167 18.4756C25.973 18.34 26.3234 18.0471 26.5983 17.8247C26.8732 17.6023 27.2721 17.2741 27.4877 17.0951C27.7033 16.9134 28.1157 16.5581 28.4041 16.3031C28.6924 16.0482 29.1102 15.6685 29.3339 15.4596C29.5549 15.2508 29.7732 15.0393 29.8163 14.9931C29.8595 14.947 29.9134 14.9091 29.9322 14.9091V14.9091ZM12.2059 16.7805H18.5665L18.5827 16.8429C18.5908 16.8754 18.5935 16.9459 18.58 17.0924H17.9682C17.6286 17.0924 16.1948 17.0897 12.2059 17.0788V16.7805ZM12.2059 17.4314H18.58V42.6684L18.4992 42.8989C18.4533 43.0264 18.3725 43.1972 18.3186 43.2786C18.2647 43.36 18.1434 43.501 18.0491 43.5905C17.9574 43.68 17.8011 43.7939 17.7041 43.8427C17.6071 43.8916 17.4615 43.9512 17.3807 43.9756C17.2513 44.0163 17.0276 44.0217 15.5344 44.0299C14.3863 44.038 13.7799 44.0326 13.6613 44.0109C13.5642 43.9946 13.4079 43.9567 13.3109 43.9241C13.2139 43.8916 13.0441 43.8021 12.9336 43.7288C12.8231 43.6529 12.6748 43.5173 12.6021 43.4278C12.5266 43.3383 12.4323 43.1918 12.3864 43.1023C12.3433 43.0128 12.284 42.8474 12.2571 42.7362C12.2059 42.5382 12.2059 42.1992 12.2059 29.9807V17.4314ZM12.691 30.0377C12.691 40.523 12.6964 41.8737 12.7314 42.0174C12.753 42.1069 12.815 42.2697 12.8662 42.3782C12.9336 42.5165 13.0144 42.6304 13.1492 42.7633C13.2812 42.8989 13.3944 42.983 13.5319 43.0481C13.6397 43.1023 13.8014 43.162 13.8904 43.1837C14.0251 43.2189 14.2839 43.2271 15.4132 43.2271C16.5451 43.2271 16.8012 43.2189 16.9359 43.1837C17.0249 43.162 17.1758 43.105 17.2728 43.0589C17.3914 42.9993 17.51 42.9098 17.6367 42.7796C17.7418 42.6738 17.8658 42.5165 17.9116 42.4243C17.9574 42.3375 18.0167 42.1883 18.0383 42.0988C18.076 41.9523 18.0814 40.759 18.0814 30.0784V18.2179H12.691V30.0377ZM12.9066 18.4376H17.8658V30.1733C17.8658 41.8764 17.8658 41.9117 17.8119 42.0934C17.7822 42.1964 17.7068 42.3538 17.6421 42.446C17.5774 42.5409 17.4534 42.6738 17.3645 42.7416C17.2782 42.8094 17.1327 42.8935 16.882 42.9965L15.494 43.0047C14.6235 43.0101 14.0548 43.002 13.9712 42.983C13.8958 42.9694 13.7583 42.9179 13.6613 42.8691C13.5481 42.8148 13.4241 42.7199 13.3109 42.606C13.2139 42.5083 13.1034 42.3646 13.0629 42.2914C13.0225 42.2154 12.9713 42.0825 12.9497 41.993C12.9093 41.8466 12.9066 40.6668 12.9066 30.1326V18.4376ZM14.8525 20.4257C14.804 20.4745 14.734 20.5613 14.6989 20.6209C14.6639 20.6806 14.61 20.8298 14.5803 20.9464C14.5507 21.0657 14.513 21.2746 14.4968 21.4075C14.4833 21.5431 14.4698 22.1994 14.4698 22.8666V24.079H16.3026C16.3026 22.2401 16.2891 21.5973 16.2756 21.4617C16.2594 21.3288 16.2244 21.1308 16.1948 21.0224C16.1651 20.9139 16.1139 20.7728 16.0843 20.7105C16.0519 20.6481 15.9872 20.545 15.9387 20.4853C15.8902 20.4257 15.7932 20.3497 15.7204 20.3118C15.6342 20.2684 15.529 20.244 15.4132 20.2385C15.2865 20.2304 15.1975 20.2412 15.0897 20.2819C15.0089 20.3118 14.9011 20.3769 14.8525 20.4257V20.4257ZM14.9954 28.7657C14.9361 28.7955 14.8552 28.8552 14.8148 28.8986C14.7744 28.942 14.7097 29.0423 14.6693 29.1237C14.6288 29.2078 14.5722 29.384 14.5426 29.5169C14.4941 29.7393 14.4887 29.8939 14.4752 31.1307L14.4644 32.5004C14.6262 32.5329 14.9927 32.541 15.3862 32.541C15.7797 32.541 16.1462 32.5329 16.2028 32.5221L16.308 32.5004C16.2837 29.9563 16.2783 29.8234 16.2298 29.5983C16.1975 29.4654 16.1436 29.2891 16.1085 29.205C16.0735 29.1237 15.9899 28.9962 15.9225 28.923C15.8579 28.8497 15.7554 28.7711 15.6961 28.744C15.6369 28.7196 15.5344 28.6897 15.4671 28.6843C15.3997 28.6762 15.2919 28.6789 15.2245 28.6897C15.1571 28.7006 15.0547 28.7358 14.9954 28.7657V28.7657ZM14.9415 36.9538C14.8957 36.9863 14.8337 37.0406 14.8013 37.0758C14.769 37.1111 14.7097 37.206 14.6693 37.2901C14.6288 37.3715 14.5722 37.5477 14.5426 37.6834C14.4941 37.9058 14.4887 38.0468 14.4779 39.3025L14.4698 40.6803H16.3026C16.2837 38.0631 16.2783 37.9654 16.2244 37.7376C16.1921 37.602 16.1355 37.4257 16.0977 37.3443C16.06 37.2603 15.9953 37.1518 15.9522 37.1002C15.9118 37.046 15.8201 36.97 15.7474 36.9294C15.6557 36.8778 15.5614 36.8507 15.4401 36.8426C15.335 36.8344 15.2164 36.8426 15.1436 36.8616C15.0763 36.8805 14.9846 36.9239 14.9415 36.9538V36.9538Z" fill="#11323B"/>
</svg>
