<svg width="48" height="48" viewBox="0 0 48 48" fill="none" xmlns="http://www.w3.org/2000/svg">
<g filter="url(#filter0_d_5482_1773)">
<path d="M24.0007 0H23.9993C12.954 0 4 8.95399 4 19.9993V20.0007C4 31.046 12.954 40 23.9993 40H24.0007C35.046 40 44 31.046 44 20.0007V19.9993C44 8.95399 35.046 0 24.0007 0Z" fill="white"/>
<path d="M34.3283 17.7662V31.1791L32.9149 30.707V19.441C28.7666 17.3944 26.3837 12.9508 26.3088 12.8123C29.168 16.1252 34.3283 17.7662 34.3283 17.7662Z" fill="#9ABFCB"/>
<path d="M21.5753 12.8123C21.5004 12.9536 19.1189 17.3944 14.9692 19.441V30.707L13.5558 31.1791V17.7662C13.5558 17.7662 18.7203 16.1252 21.5753 12.8123Z" fill="#9ABFCB"/>
<path d="M20.3712 11.936C20.3245 12.0151 18.7811 14.5422 12.0322 16.7683V28.782L10.5651 28.9742V15.4708C10.5651 15.4708 16.1155 14.8871 20.3712 11.936Z" fill="#11323B"/>
<path d="M20.3712 11.936C20.3245 12.0151 18.7811 14.5422 12.0322 16.7683V28.782L10.5651 28.9742V15.4708C10.5651 15.4708 16.1155 14.8871 20.3712 11.936Z" fill="url(#paint0_linear_5482_1773)"/>
<path d="M27.5893 11.936C27.6359 12.0151 29.1793 14.5422 35.9282 16.7683V28.782L37.3882 28.9799V15.4708C37.3882 15.4708 31.8435 14.8871 27.5893 11.936Z" fill="#11323B"/>
<path d="M27.5893 11.936C27.6359 12.0151 29.1793 14.5422 35.9282 16.7683V28.782L37.3882 28.9799V15.4708C37.3882 15.4708 31.8435 14.8871 27.5893 11.936Z" fill="url(#paint1_linear_5482_1773)"/>
<path d="M22.8318 13.8977C21.817 15.4793 19.9514 17.7647 16.613 20.3159V33.8023C16.5904 33.8151 20.5393 31.1466 22.8318 28.0273V13.8977Z" fill="#11323B"/>
<path d="M22.8318 13.8977C21.817 15.4793 19.9514 17.7647 16.613 20.3159V33.8023C16.5904 33.8151 20.5393 31.1466 22.8318 28.0273V13.8977Z" fill="url(#paint2_linear_5482_1773)"/>
<path d="M31.2853 20.3159C31.2853 20.3159 27.431 17.5259 25.0593 13.7691V27.9283C26.7538 30.2517 28.862 32.243 31.2782 33.8023L31.2853 20.3159Z" fill="#11323B"/>
<path d="M31.2853 20.3159C31.2853 20.3159 27.431 17.5259 25.0593 13.7691V27.9283C26.7538 30.2517 28.862 32.243 31.2782 33.8023L31.2853 20.3159Z" fill="url(#paint3_linear_5482_1773)"/>
<path d="M26.354 11.8441C26.354 11.8772 26.3476 11.9099 26.335 11.9405C26.3223 11.971 26.3038 11.9988 26.2805 12.0222C26.2573 12.0455 26.2298 12.064 26.1995 12.0766C26.1692 12.0892 26.1367 12.0957 26.1038 12.0957H21.8199C21.7713 12.0944 21.7242 12.0792 21.6841 12.0517C21.644 12.0243 21.6128 11.9858 21.5941 11.9409C21.5754 11.8961 21.5701 11.8468 21.5788 11.799C21.5875 11.7513 21.6099 11.707 21.6432 11.6717C21.6904 11.6254 21.7537 11.599 21.8199 11.5982H21.8086C20.7584 10.0929 21.6545 9.25762 21.7775 9.0541C21.9895 8.6951 23.564 7.38207 23.564 7.38207V6.55666C23.6926 6.33334 23.8283 6.25561 23.9541 6.25137L23.8127 5.4415L24.0163 4.38147L24.1505 5.43868L24.0261 6.25702C24.1883 6.31034 24.3287 6.41503 24.4261 6.55524V7.36794C25.7349 8.47037 26.0699 8.8746 26.0699 8.8746C27.3773 10.2102 26.1137 11.5911 26.1137 11.5911H26.1038C26.1369 11.5913 26.1695 11.598 26.2 11.6108C26.2304 11.6236 26.2581 11.6423 26.2813 11.6658C26.3045 11.6893 26.3229 11.7171 26.3354 11.7477C26.3478 11.7783 26.3542 11.8111 26.354 11.8441Z" fill="#18647E"/>
<path d="M26.354 11.8441C26.354 11.8772 26.3476 11.9099 26.335 11.9405C26.3223 11.971 26.3038 11.9988 26.2805 12.0222C26.2573 12.0455 26.2298 12.064 26.1995 12.0766C26.1692 12.0892 26.1367 12.0957 26.1038 12.0957H21.8199C21.7713 12.0944 21.7242 12.0792 21.6841 12.0517C21.644 12.0243 21.6128 11.9858 21.5941 11.9409C21.5754 11.8961 21.5701 11.8468 21.5788 11.799C21.5875 11.7513 21.6099 11.707 21.6432 11.6717C21.6904 11.6254 21.7537 11.599 21.8199 11.5982H21.8086C20.7584 10.0929 21.6545 9.25762 21.7775 9.0541C21.9895 8.6951 23.564 7.38207 23.564 7.38207V6.55666C23.6926 6.33334 23.8283 6.25561 23.9541 6.25137L23.8127 5.4415L24.0163 4.38147L24.1505 5.43868L24.0261 6.25702C24.1883 6.31034 24.3287 6.41503 24.4261 6.55524V7.36794C25.7349 8.47037 26.0699 8.8746 26.0699 8.8746C27.3773 10.2102 26.1137 11.5911 26.1137 11.5911H26.1038C26.1369 11.5913 26.1695 11.598 26.2 11.6108C26.2304 11.6236 26.2581 11.6423 26.2813 11.6658C26.3045 11.6893 26.3229 11.7171 26.3354 11.7477C26.3478 11.7783 26.3542 11.8111 26.354 11.8441Z" fill="url(#paint4_linear_5482_1773)"/>
<path d="M26.1222 11.5897H21.7987C21.6589 11.5897 21.5457 11.7027 21.5457 11.842C21.5457 11.9813 21.6589 12.0943 21.7987 12.0943H26.1222C26.2619 12.0943 26.3752 11.9813 26.3752 11.842C26.3752 11.7027 26.2619 11.5897 26.1222 11.5897Z" fill="#9ABFCB"/>
</g>
<defs>
<filter id="filter0_d_5482_1773" x="0" y="0" width="48" height="48" filterUnits="userSpaceOnUse" color-interpolation-filters="sRGB">
<feFlood flood-opacity="0" result="BackgroundImageFix"/>
<feColorMatrix in="SourceAlpha" type="matrix" values="0 0 0 0 0 0 0 0 0 0 0 0 0 0 0 0 0 0 127 0" result="hardAlpha"/>
<feOffset dy="4"/>
<feGaussianBlur stdDeviation="2"/>
<feComposite in2="hardAlpha" operator="out"/>
<feColorMatrix type="matrix" values="0 0 0 0 0 0 0 0 0 0 0 0 0 0 0 0 0 0 0.25 0"/>
<feBlend mode="normal" in2="BackgroundImageFix" result="effect1_dropShadow_5482_1773"/>
<feBlend mode="normal" in="SourceGraphic" in2="effect1_dropShadow_5482_1773" result="shape"/>
</filter>
<linearGradient id="paint0_linear_5482_1773" x1="24" y1="0" x2="24" y2="40" gradientUnits="userSpaceOnUse">
<stop stop-color="#4C7380"/>
<stop offset="1" stop-color="#3F5F6A" stop-opacity="0.78"/>
</linearGradient>
<linearGradient id="paint1_linear_5482_1773" x1="24" y1="0" x2="24" y2="40" gradientUnits="userSpaceOnUse">
<stop stop-color="#4C7380"/>
<stop offset="1" stop-color="#3F5F6A" stop-opacity="0.78"/>
</linearGradient>
<linearGradient id="paint2_linear_5482_1773" x1="24" y1="0" x2="24" y2="40" gradientUnits="userSpaceOnUse">
<stop stop-color="#4C7380"/>
<stop offset="1" stop-color="#3F5F6A" stop-opacity="0.78"/>
</linearGradient>
<linearGradient id="paint3_linear_5482_1773" x1="24" y1="0" x2="24" y2="40" gradientUnits="userSpaceOnUse">
<stop stop-color="#4C7380"/>
<stop offset="1" stop-color="#3F5F6A" stop-opacity="0.78"/>
</linearGradient>
<linearGradient id="paint4_linear_5482_1773" x1="24" y1="0" x2="24" y2="40" gradientUnits="userSpaceOnUse">
<stop stop-color="#4C7380"/>
<stop offset="1" stop-color="#3F5F6A" stop-opacity="0.78"/>
</linearGradient>
</defs>
</svg>
