<svg width="25" height="21" viewBox="0 0 25 21" fill="none" xmlns="http://www.w3.org/2000/svg">
<path d="M7.23801 0.0347223C7.22197 0.0775106 7.13104 0.58562 7.04012 1.15791C6.94919 1.7302 6.86897 2.23831 6.85827 2.2811C6.84757 2.35063 6.93315 2.36133 7.39847 2.36133C7.69799 2.36133 7.94937 2.35598 7.94937 2.35063C7.94937 2.33459 7.36638 0.286103 7.30755 0.0882075C7.2808 -0.0080657 7.25941 -0.0241113 7.23801 0.0347223Z" fill="#17627C"/>
<path d="M5.17318 1.96875C5.19457 2.39129 5.21062 2.74964 5.21596 2.77103C5.22131 2.79777 5.90057 2.59453 6.06638 2.5143C6.08242 2.5036 5.16783 1.20926 5.15178 1.20926C5.14643 1.20926 5.15713 1.55157 5.17318 1.96875Z" fill="#17627C"/>
<path d="M9.03554 1.83096L8.54883 2.48348L8.79486 2.54766C8.93392 2.5851 9.21739 2.69742 9.43133 2.78834L9.81108 2.96484L9.77899 2.76695C9.76294 2.65998 9.69876 2.25884 9.63993 1.87909L9.52761 1.18379L9.03554 1.83096Z" fill="#17627C"/>
<path d="M10.7736 2.16167L9.88574 3.00139L10.1371 3.15649C10.2708 3.24207 10.5115 3.41857 10.6666 3.54693C10.8592 3.71274 10.9554 3.76088 10.9715 3.71274C11.041 3.53624 11.6935 1.34869 11.6775 1.338C11.6721 1.33265 11.2657 1.7017 10.7736 2.16167Z" fill="#17627C"/>
<path d="M3.03951 2.83487C3.36577 3.39647 3.63854 3.86714 3.64389 3.87249C3.66529 3.89388 4.38734 3.29485 4.40873 3.24136C4.41408 3.21997 3.98085 2.88836 3.44065 2.50861L2.45117 1.81331L3.03951 2.83487Z" fill="#17627C"/>
<path d="M6.75644 2.65943C5.83115 2.77175 4.82563 3.23172 4.09288 3.8789C3.46175 4.43514 2.89481 5.34439 2.65413 6.18411C2.47763 6.79384 2.44554 7.92238 2.59529 8.58024C2.85202 9.74087 3.61151 10.8748 4.5689 11.5273C4.98073 11.8054 5.66 12.1317 5.70813 12.0782C5.72953 12.0568 6.00765 11.5487 6.32321 10.9443C6.63877 10.3399 7.09875 9.47345 7.33943 9.01882L7.77801 8.1898L9.99764 8.17376L12.2173 8.16306L12.2547 7.81541C12.3349 7.1094 12.1157 6.06109 11.7413 5.3123C11.292 4.4191 10.4897 3.60612 9.62325 3.16754C8.73539 2.72362 7.72452 2.54177 6.75644 2.65943Z" fill="#17627C"/>
<path d="M12.121 3.91687C11.6343 3.9864 11.2332 4.03988 11.2225 4.04523C11.2118 4.04523 11.3134 4.18429 11.4417 4.3501C11.5755 4.52125 11.7573 4.79937 11.8536 4.96518L12.0247 5.27539L12.5221 4.58543C13.1051 3.77781 13.1051 3.77781 13.0463 3.78315C13.0249 3.7885 12.6077 3.84734 12.121 3.91687Z" fill="#17627C"/>
<path d="M2.08197 4.57967C2.40288 4.91663 2.68635 5.2001 2.7024 5.2108C2.72379 5.21615 2.82541 5.06639 2.93773 4.87384C3.05005 4.68664 3.2105 4.44061 3.30143 4.33899C3.3977 4.23202 3.45119 4.1304 3.43514 4.109C3.41375 4.08761 2.96447 4.04482 2.44032 4.01808L1.48828 3.96459L2.08197 4.57967Z" fill="#17627C"/>
<path d="M0.00154833 5.47795C0.0229424 5.51539 0.060382 5.54214 0.0871247 5.54214C0.113867 5.54214 0.621977 5.78282 1.22101 6.08234L2.30676 6.61719L2.34955 6.3872C2.37629 6.25884 2.44047 6.0128 2.49931 5.84165C2.55279 5.66515 2.59558 5.51539 2.58488 5.51004C2.57954 5.5047 1.98585 5.47795 1.26915 5.45656C0.290368 5.42982 -0.0251943 5.43516 0.00154833 5.47795Z" fill="#17627C"/>
<path d="M12.3567 6.11498C12.4316 6.36101 12.5492 7.19538 12.5492 7.4735V7.78906L12.8327 7.63396C12.9825 7.54303 13.4906 7.25956 13.9505 6.99748L14.7956 6.52681L13.6029 6.27543C12.9504 6.13637 12.3941 6.02405 12.3727 6.02405C12.346 6.02405 12.3406 6.06684 12.3567 6.11498Z" fill="#17627C"/>
<path d="M1.48255 7.5908L0.819336 7.97055L1.50929 8.12031C2.29553 8.28611 2.29553 8.28611 2.25809 8.22193C2.23669 8.19518 2.22065 7.9545 2.22065 7.68708C2.2153 7.41965 2.19925 7.20036 2.17786 7.20571C2.16181 7.20571 1.84625 7.38221 1.48255 7.5908Z" fill="#17627C"/>
<path d="M1.49382 9.8548C1.00175 10.3148 0.557827 10.7266 0.515039 10.7694C0.445508 10.8389 0.445508 10.8389 0.515039 10.8175C0.557827 10.8015 1.07663 10.6517 1.66497 10.4913C2.25331 10.3255 2.77746 10.1811 2.8256 10.165C2.90583 10.1436 2.89513 10.0955 2.74002 9.77992C2.6384 9.58203 2.53143 9.33065 2.49399 9.21833C2.4619 9.11136 2.42446 9.02043 2.41376 9.02043C2.40307 9.02043 1.99123 9.39483 1.49382 9.8548Z" fill="#17627C"/>
<path d="M7.8692 9.08372C7.85315 9.12116 7.74618 9.43673 7.63386 9.77903L7.41992 10.4102H8.80519H10.1851L10.2439 10.2337C10.2707 10.1427 10.3456 9.86996 10.4097 9.63462C10.4739 9.39929 10.5381 9.16395 10.5488 9.11047C10.5755 9.02489 10.49 9.01954 9.23307 9.01954C8.2115 9.01954 7.88524 9.03559 7.8692 9.08372Z" fill="#17627C"/>
<path d="M10.9448 9.64532C10.8539 9.99297 10.7683 10.3085 10.7576 10.3406C10.7362 10.3941 11.1534 10.4102 12.7098 10.4102H14.6888V9.96088C14.6888 9.71485 14.7048 9.40463 14.7209 9.26557L14.7583 9.01954H12.9345H11.116L10.9448 9.64532Z" fill="#17627C"/>
<path d="M15.2236 9.71485V10.4102H17.2293C18.8018 10.4102 19.235 10.3941 19.235 10.3406C19.2297 10.3085 19.1655 9.99832 19.0799 9.66136L18.9355 9.04628L17.0796 9.03024L15.2236 9.01954V9.71485Z" fill="#17627C"/>
<path d="M19.5029 9.04628C19.5029 9.06233 19.5778 9.37789 19.6687 9.74159L19.8345 10.4102H21.1663C21.8991 10.4102 22.4981 10.3888 22.4981 10.362C22.4981 10.3353 22.4286 10.0946 22.343 9.82182C22.2521 9.54904 22.1665 9.26022 22.1504 9.17465L22.113 9.01954H20.808C20.0913 9.01954 19.5029 9.03024 19.5029 9.04628Z" fill="#17627C"/>
<path d="M2.92748 11.229C2.75098 11.5606 2.53169 11.9564 2.44076 12.1115C2.28031 12.3842 2.28031 12.3949 2.39797 12.3308C2.71354 12.1596 3.91695 11.4643 3.95974 11.4269C3.98114 11.4001 3.95439 11.3573 3.89556 11.3252C3.83673 11.2931 3.67092 11.1273 3.52116 10.9508L3.25909 10.6299L2.92748 11.229Z" fill="#17627C"/>
<path d="M7.28019 10.8497C7.18927 11.0903 6.45117 13.3314 6.45117 13.3635C6.45117 13.3902 7.11439 13.4062 7.92201 13.4062C8.72964 13.4062 9.39286 13.3956 9.39286 13.3849C9.39286 13.3635 10.0133 11.0636 10.0668 10.8764C10.0935 10.7908 10.0026 10.7855 8.69755 10.7855C7.63319 10.7855 7.29624 10.8015 7.28019 10.8497Z" fill="#17627C"/>
<path d="M10.5811 10.9834C10.549 11.0957 10.3992 11.6412 10.2494 12.2028C10.0997 12.7591 9.96597 13.2618 9.94993 13.31C9.92318 13.4009 10.0569 13.4062 12.3033 13.4062H14.6887V12.0959V10.7855H12.667H10.6399L10.5811 10.9834Z" fill="#17627C"/>
<path d="M15.2241 12.0103C15.2241 12.6842 15.2081 13.2725 15.1921 13.3207C15.16 13.3956 15.3953 13.4062 17.5721 13.4062C18.8986 13.4062 19.9843 13.3902 19.9843 13.3635C19.979 13.3421 19.8399 12.7591 19.6741 12.0691L19.3639 10.8122L17.294 10.7962L15.2241 10.7855V12.0103Z" fill="#17627C"/>
<path d="M19.9564 10.9299C19.9778 11.0155 20.1222 11.5985 20.2773 12.2296L20.5608 13.3795L22.0049 13.3956L23.449 13.4062L23.2243 12.6735C23.096 12.267 22.9141 11.6787 22.8178 11.3578L22.6413 10.7855H21.2775H19.9189L19.9564 10.9299Z" fill="#17627C"/>
<path d="M4.47273 11.8312C4.47273 11.8526 4.37645 12.4195 4.25344 13.0934C4.13577 13.7727 4.04485 14.329 4.05554 14.3397C4.06624 14.3504 4.4032 13.9064 4.80434 13.3555L5.53708 12.3607L5.17873 12.1842C4.98084 12.0879 4.7455 11.9596 4.64923 11.9007C4.55296 11.8365 4.47273 11.8098 4.47273 11.8312Z" fill="#17627C"/>
<path d="M5.91141 14.9405C5.70282 15.5824 5.51562 16.1386 5.49957 16.1707C5.48353 16.2242 5.81513 16.2402 7.04529 16.2402H8.61776L8.93332 15.0743C9.10447 14.4378 9.25958 13.8815 9.27028 13.8441C9.29167 13.796 8.97076 13.7799 7.79944 13.7799H6.30185L5.91141 14.9405Z" fill="#17627C"/>
<path d="M9.77337 13.9511C9.68245 14.2506 9.17969 16.1333 9.17969 16.1867C9.17969 16.2188 10.1478 16.2402 11.9074 16.2402H14.6352V15.2561C14.6352 14.7159 14.6512 14.165 14.6673 14.0259L14.7047 13.7799H12.2658H9.83221L9.77337 13.9511Z" fill="#17627C"/>
<path d="M15.1699 15.0101V16.2402H17.9244C19.438 16.2402 20.6789 16.2295 20.6789 16.2188C20.6789 16.1921 20.144 13.9885 20.112 13.8708C20.0852 13.7853 19.9194 13.7799 17.6249 13.7799H15.1699V15.0101Z" fill="#17627C"/>
<path d="M20.6797 13.8437C20.685 13.8811 20.8134 14.432 20.9685 15.0631L21.2573 16.2131L22.787 16.2291C23.6267 16.2345 24.3167 16.2238 24.3167 16.2024C24.3167 16.1756 24.2578 15.9777 24.1883 15.7584C24.1134 15.5391 23.9476 15.0043 23.8086 14.5657L23.5625 13.7795H22.1238C21.0006 13.7795 20.6797 13.7955 20.6797 13.8437Z" fill="#17627C"/>
<path d="M5.38184 17.4432V18.0583H9.71414H14.0464V18.8606V19.6629H13.2174H12.3884V20.3314V21H15.0627H17.7369V20.3314V19.6629H16.9079H16.0735L16.0896 18.8713L16.1056 18.0851L20.4272 18.069L24.7435 18.0583V17.4432V16.8282H15.0627H5.38184V17.4432Z" fill="#17627C"/>
</svg>
