<svg width="20" height="16" viewBox="0 0 20 16" fill="none" xmlns="http://www.w3.org/2000/svg">
<path d="M1.07062 0.0222604C0.979257 0.0467713 0.785399 0.169325 0.720779 0.242858C0.584856 0.39438 0.341975 0.895738 0.210508 1.29905C-0.041285 2.06334 -0.0680241 2.89894 0.134747 3.65432L0.181541 3.82812H9.60262H19.0237L19.0683 3.65432C19.3468 2.6115 19.2421 1.5865 18.7652 0.686281C18.5669 0.309706 18.4488 0.171554 18.2304 0.0601408L18.1257 0.00666261L9.63604 0.00220609C4.13893 -2.21729e-05 1.11964 0.00666261 1.07062 0.0222604Z" fill="#17627C"/>
<path d="M1.27719 6.65053C1.28611 8.16574 1.29502 8.38188 1.37078 8.90775C1.56018 10.2024 2.07045 11.4725 2.83029 12.5287C4.30762 14.5898 6.64061 15.8644 9.15631 15.9892C9.84484 16.0248 10.6025 15.9713 11.2286 15.8465C13.3053 15.4299 15.1414 14.2489 16.3692 12.5376C17.1335 11.4702 17.6437 10.2091 17.8332 8.90775C17.9067 8.40417 17.9178 8.13678 17.9267 6.63939L17.9334 5.11971H9.60196H1.27051L1.27719 6.65053ZM9.92061 6.4121C10.5846 6.46781 11.1863 6.67949 11.7433 7.05607C13.3343 8.13009 13.9003 10.1957 13.0691 11.9048C12.6792 12.7047 12.062 13.3219 11.262 13.7096C10.7183 13.9748 10.2259 14.0862 9.60196 14.0862C8.97805 14.084 8.48115 13.9726 7.94191 13.7119C7.14197 13.3219 6.52697 12.7069 6.1348 11.9048C5.87409 11.37 5.76268 10.8731 5.76045 10.2447C5.76045 9.62302 5.87186 9.13058 6.13702 8.58466C6.77431 7.26998 8.08452 6.42547 9.53512 6.39428C9.60196 6.39205 9.77577 6.40096 9.92061 6.4121ZM16.3135 6.46335C16.543 6.57699 16.6433 6.75748 16.6433 7.05607C16.641 7.33906 16.5073 7.54852 16.2711 7.63765C16.1597 7.67998 16.0951 7.68221 15.3553 7.68221H14.5598L14.4239 7.61759C14.2167 7.51955 14.103 7.34574 14.0852 7.10064C14.0607 6.75303 14.2568 6.47672 14.571 6.40987C14.6133 6.40096 14.9943 6.39428 15.4177 6.39651L16.1865 6.40096L16.3135 6.46335Z" fill="#17627C"/>
<path d="M9.30207 9.00494C8.92772 9.0963 8.60462 9.36369 8.44641 9.7113C8.1612 10.3464 8.43304 11.1106 9.04804 11.3892C9.60734 11.6454 10.2357 11.4984 10.6145 11.0193C10.8307 10.743 10.9242 10.3308 10.8485 9.972C10.7504 9.50853 10.3382 9.0963 9.87473 8.99826C9.72321 8.96706 9.44467 8.96929 9.30207 9.00494Z" fill="#17627C"/>
</svg>
