<svg width="35" height="22" viewBox="0 0 35 22" fill="none" xmlns="http://www.w3.org/2000/svg">
<path d="M13.9799 0.722226L13.9799 0.722145C14.2827 0.690604 14.8437 0.66372 15.2189 0.656943L15.7116 0.652113L16.284 1.0443L16.2843 1.0445C18.1065 2.29161 21.0593 4.14011 26.2673 7.30333M13.9799 0.722226L10.3542 2.16758C10.168 2.32274 9.9234 2.57741 9.72359 2.81924C9.71684 2.82741 9.71019 2.83551 9.70365 2.84352C9.73543 2.8665 9.76883 2.8905 9.80378 2.91547C10.154 3.16576 10.6415 3.50099 11.1818 3.85777L11.1818 3.85776L11.1857 3.86039C12.2727 4.5896 14.4164 6.04626 15.9629 7.1116C18.3298 8.74098 20.3087 10.0859 21.7891 11.0708C23.2876 12.0678 24.237 12.6698 24.5726 12.8406L24.5726 12.8406L24.5829 12.846L24.6921 12.9041L25.2098 12.7864C25.2101 12.7863 25.2104 12.7863 25.2107 12.7862C26.867 12.4057 29.3939 12.0659 31.6803 11.9066C31.6803 11.9066 31.6803 11.9066 31.6803 11.9066L31.7297 11.9031C32.2674 11.8656 32.6037 11.8421 32.8263 11.8515C32.9577 11.8571 33.0878 11.8745 33.2214 11.9213C33.3418 11.9635 33.4384 12.0215 33.4948 12.0554L33.5014 12.0594L33.5078 12.0632L33.5141 12.0672C33.6432 12.1487 33.7775 12.2719 33.8826 12.378C33.9944 12.4907 34.1128 12.6246 34.2123 12.7579C34.2667 12.8273 34.3098 12.8804 34.3454 12.9217C34.3481 12.8831 34.3498 12.8388 34.3498 12.7884C34.3498 12.7048 34.3481 12.6525 34.3452 12.6165C34.3444 12.6075 34.3437 12.6004 34.343 12.595C34.3375 12.5875 34.3287 12.576 34.3152 12.5595C34.2482 12.4813 34.0548 12.3092 33.6657 12.0218C33.2889 11.7433 32.7708 11.3869 32.1004 10.9462C30.7605 10.0654 28.8361 8.8638 26.2673 7.30333M13.9799 0.722226L13.9696 0.723134M13.9799 0.722226L13.9696 0.723134M26.2673 7.30333L26.6047 6.74777M26.2673 7.30333L26.6047 6.74777M26.6047 6.74777C31.7461 9.87104 34.3339 11.5734 34.8144 12.1431L15.9101 0.000135422L16.6514 0.508096C18.4567 1.74368 21.3947 3.58332 26.6047 6.74777ZM13.9696 0.723134C12.534 0.849618 11.3849 1.31092 10.3542 2.16751L13.9696 0.723134Z" stroke="#17627C" stroke-width="1.3"/>
<path d="M11.9835 14.0226C11.9828 14.0216 11.9831 14.0221 11.9847 14.0244C11.9893 14.0308 11.9969 14.0412 12.0132 14.0626L12.0132 14.0626L12.018 14.069C12.0164 14.0668 12.0148 14.0647 12.0132 14.0626C12.0057 14.0528 11.9984 14.0439 11.9917 14.0362L11.9835 14.0226ZM11.9835 14.0226C11.9762 14.0168 11.9703 14.0121 11.9659 14.0083C11.9646 14.0073 11.9635 14.0063 11.9625 14.0055M11.9835 14.0226L11.9625 14.0055M11.9625 14.0055C11.9578 14.0015 11.9558 13.9996 11.956 13.9997C11.9563 13.9998 11.9586 14.0018 11.9625 14.0055ZM7.99119 4.52667L7.98922 4.52966C7.72175 4.93739 7.42529 5.45031 7.1766 5.92605C6.92072 6.41557 6.74136 6.81675 6.68194 7.01566L6.68197 7.01567L6.68007 7.02182C6.62031 7.21488 6.58557 7.49161 6.57871 8.03493C6.57875 8.41525 6.58401 8.56009 6.59999 8.65649C6.6105 8.71989 6.62483 8.76636 6.71292 8.94911C6.9593 9.45639 7.52186 9.99835 8.91196 10.8297L8.91277 10.8302C10.3185 11.6736 11.0495 12.1552 11.5435 12.5594L11.5443 12.56C11.6606 12.6555 11.7744 12.7523 11.8682 12.8493C11.9628 12.9472 12.0694 13.0775 12.1375 13.249C12.2756 13.5966 12.1768 13.9208 12.1093 14.1161C12.1791 14.1661 12.2675 14.2275 12.3743 14.2999C12.663 14.4958 13.0652 14.7586 13.5461 15.0667C14.5068 15.6822 15.7679 16.4698 17.0323 17.2467C18.2967 18.0237 19.5611 18.7881 20.5285 19.3574C20.8494 19.5462 21.1359 19.7126 21.3779 19.8503C21.4037 18.6485 21.6525 17.8061 22.5779 15.3924C22.6896 15.0945 22.7959 14.8025 22.8773 14.5717C22.9088 14.4823 22.9362 14.4031 22.9586 14.3371C22.9253 14.3088 22.8823 14.2736 22.8272 14.2306C22.398 13.8961 21.5162 13.2971 19.7047 12.0698L19.7042 12.0695C18.5714 11.3006 17.2108 10.3729 16.6804 10.0078L16.6784 10.0064C15.1269 8.92995 12.8962 7.4405 11.0292 6.21956C10.0959 5.60918 9.25615 5.06768 8.63956 4.67958C8.43455 4.55054 8.25591 4.43954 8.10765 4.34911C8.07036 4.40525 8.03127 4.46482 7.99119 4.52667Z" stroke="#17627C" stroke-width="1.3"/>
<path d="M1.20463 9.77197L1.20388 9.77324C0.941834 10.2184 0.80621 10.5396 0.731452 10.9189C0.653093 11.3165 0.63466 11.8118 0.661852 12.6204L0.661957 12.6242C0.679098 13.2413 0.70615 13.5823 0.764257 13.8514C0.818617 14.1031 0.905602 14.3167 1.08893 14.6674C1.32188 15.11 1.60383 15.4128 1.92199 15.6077C2.23957 15.8023 2.62976 15.9118 3.11489 15.9118C3.41091 15.9118 3.54639 15.889 3.6637 15.8457C3.79509 15.7971 3.9538 15.7045 4.26747 15.4752C4.60859 15.223 4.91389 15.0231 5.17866 14.8907C5.31161 14.8243 5.45086 14.7664 5.59137 14.7303C5.72732 14.6954 5.90538 14.6702 6.09562 14.7118L6.10311 14.7135L6.11055 14.7153C6.49585 14.8092 6.97031 15.0605 7.75864 15.5558C8.57 16.0656 9.7884 16.8845 11.6918 18.1878L11.6924 18.1881C14.2664 19.9543 15.5347 20.4186 16.7253 20.3275L16.7286 20.3272C17.0098 20.3071 17.2024 20.2599 17.3731 20.1819C17.5231 20.1133 17.683 20.0089 17.8846 19.835C17.797 19.7717 17.6975 19.7016 17.5877 19.6259C17.16 19.3311 16.6012 18.9679 16.0342 18.6139C15.4671 18.2598 14.8993 17.9194 14.4538 17.6693C14.304 17.5851 14.1714 17.5131 14.0595 17.4551C14.049 17.4811 14.038 17.5091 14.0265 17.5394C13.9809 17.6617 13.9258 17.7792 13.8681 17.8763C13.8404 17.9229 13.8013 17.9832 13.7515 18.0405C13.7275 18.0681 13.6854 18.1133 13.6261 18.1568C13.5839 18.1879 13.4395 18.2895 13.226 18.2895C13.116 18.2895 13.0289 18.2623 12.9973 18.252C12.9539 18.238 12.9151 18.2217 12.8851 18.2081C12.8246 18.1808 12.7589 18.1462 12.6932 18.1094C12.5597 18.0347 12.3817 17.9264 12.1591 17.7858C11.7114 17.5031 11.05 17.0684 10.1335 16.4574L10.1326 16.4568C8.18073 15.151 7.29789 14.5057 6.4732 13.7743C6.47318 13.7742 6.47315 13.7742 6.47312 13.7742C6.47298 13.7741 6.47283 13.7739 6.47269 13.7738L5.87601 13.2457L5.6568 13.0517V12.759V12.1412C5.6568 10.9053 5.25693 9.85791 4.49697 9.03264L4.49597 9.03155C4.4449 8.97584 4.37224 8.9077 4.29752 8.84657C4.26101 8.81669 4.22793 8.79172 4.20082 8.77289C4.17813 8.75713 4.16563 8.74986 4.16276 8.7482C4.1619 8.7477 4.1619 8.7477 4.16274 8.74812L4.16274 8.74813L4.15939 8.74643C4.01888 8.67516 3.77182 8.6061 3.4627 8.57384C3.16181 8.54243 2.85511 8.55149 2.61097 8.59818C2.17421 8.68996 1.58491 9.12257 1.20463 9.77197ZM18.2494 20.1202C18.2522 20.1233 18.2538 20.1249 18.2539 20.1249C18.2541 20.125 18.2527 20.1234 18.2494 20.1202ZM13.7459 17.3089C13.7461 17.3092 13.7505 17.3108 13.7586 17.313C13.7497 17.3097 13.7456 17.3087 13.7459 17.3089ZM3.71511 13.768C3.7133 13.8548 3.68947 14.0847 3.48533 14.2597C3.3168 14.4069 3.12835 14.4266 3.06182 14.4311C2.96843 14.4375 2.88608 14.4266 2.8312 14.4167C2.71736 14.3963 2.60319 14.3583 2.50632 14.3199C2.31687 14.2448 2.08029 14.1222 1.89946 13.9697L1.89876 13.9691C1.50837 13.6387 1.27068 13.2052 1.21966 12.695C1.17075 12.2058 1.29795 11.6982 1.52925 11.1964L1.53008 11.1946C1.70756 10.8126 1.92517 10.4708 2.22682 10.2254C2.54787 9.96432 2.91664 9.85061 3.31395 9.85061C3.47787 9.85061 3.67648 9.86891 3.89004 9.98236C4.06911 10.0775 4.21525 10.2185 4.33973 10.3463C4.50206 10.5092 4.65173 10.6987 4.74112 10.884C4.77382 10.9518 4.86042 11.1392 4.83143 11.3658C4.81357 11.5055 4.74515 11.6948 4.56281 11.833C4.39096 11.9632 4.20781 11.979 4.09835 11.9735L4.05041 11.9711L4.01438 11.9639C4.01089 11.9634 4.00194 11.9621 3.98529 11.96C3.95685 11.9562 3.91808 11.9513 3.87 11.9453C3.84774 11.9425 3.8237 11.9395 3.79817 11.9363C3.71502 11.926 3.61619 11.9137 3.51273 11.9004L3.51273 11.9004L3.50948 11.9C3.30024 11.8721 3.16719 11.8695 3.08472 11.8782C3.07929 11.8788 3.07427 11.8794 3.06965 11.88C3.05636 11.9369 3.04413 12.0351 3.04413 12.1961C3.04413 12.4507 3.09804 12.6448 3.39783 13.0368L3.39785 13.0368L3.4015 13.0417C3.47594 13.1409 3.54754 13.2483 3.60045 13.3472C3.62435 13.3919 3.66008 13.4634 3.68447 13.546C3.6956 13.5837 3.71726 13.6653 3.71511 13.768ZM2.45717 13.9663C2.45721 13.9663 2.4567 13.9652 2.45552 13.963C2.45653 13.9652 2.45713 13.9663 2.45717 13.9663Z" stroke="#17627C" stroke-width="1.3"/>
<path d="M30.0319 14.5846L30.0319 14.5846C31.1835 14.4464 32.155 14.5704 32.6307 14.8131C32.7346 14.8663 32.7913 14.8996 32.8239 14.9218C32.8253 14.9341 32.8266 14.9504 32.8276 14.9713C32.8315 15.0591 32.8273 15.1844 32.8138 15.3821C32.749 16.2348 32.5542 17.168 32.2835 17.8919L32.2832 17.8929C32.1304 18.3036 31.8678 18.8764 31.6186 19.3639C31.4945 19.6066 31.3789 19.8183 31.287 19.9711C31.2659 20.0061 31.2472 20.0362 31.2309 20.0616C31.1829 20.0738 31.1242 20.0876 31.0553 20.1029C30.8479 20.1489 30.5761 20.2017 30.2913 20.252C29.7027 20.349 28.7752 20.5139 28.2231 20.6174M30.0319 14.5846L28.3413 21.2566M30.0319 14.5846L30.0225 14.5856C29.796 14.6095 28.7932 14.7877 27.7773 14.9826C26.7788 15.1741 25.7706 15.3497 25.5346 15.3801L25.5346 15.3803L25.5271 15.3811M30.0319 14.5846L25.4514 14.7355L25.067 14.7767M28.2231 20.6174C28.2226 20.6175 28.222 20.6176 28.2215 20.6177L28.3413 21.2566M28.2231 20.6174C28.2236 20.6173 28.2241 20.6172 28.2246 20.6172L28.3413 21.2566M28.2231 20.6174C27.4077 20.7662 27.1254 20.7919 25.9388 20.7919H25.9352V20.7919C24.652 20.799 24.5846 20.7751 24.4003 20.7045L24.388 20.6998L24.388 20.6999C24.1983 20.6316 24.0462 20.5374 23.9535 20.455C23.941 20.4439 23.9305 20.4338 23.9219 20.425M28.3413 21.2566C27.4764 21.4145 27.1538 21.4419 25.9388 21.4419C24.6964 21.4488 24.4904 21.4351 24.1678 21.3115C23.653 21.1262 23.2617 20.7761 23.2617 20.5084C23.2617 20.0073 24.0305 17.3988 24.614 15.923L25.067 14.7767M23.9219 20.425C23.9193 20.4418 23.9173 20.4567 23.9156 20.4698C23.9122 20.4978 23.9118 20.5098 23.9117 20.5098C23.9117 20.5098 23.9117 20.5093 23.9117 20.5084C23.9117 20.4192 23.8809 20.3742 23.8859 20.3824C23.8882 20.3861 23.8985 20.4012 23.9219 20.425ZM23.9219 20.425C23.9254 20.4017 23.9299 20.3747 23.9355 20.344C23.9547 20.2381 23.984 20.1021 24.023 19.9398C24.1008 19.6159 24.2119 19.2081 24.3425 18.765C24.6044 17.877 24.9363 16.8758 25.2185 16.162L25.2185 16.1619L25.5271 15.3811M25.5271 15.3811L25.5207 15.3818L25.1363 15.423L25.067 14.7767M25.5271 15.3811L25.5329 15.3665L25.6715 15.0156L25.4777 14.939L25.473 14.9371L25.067 14.7767M31.3437 20.0299C31.3501 20.0276 31.3486 20.0278 31.3413 20.0307C31.3423 20.0304 31.3431 20.0301 31.3437 20.0299ZM31.4514 15.2618L31.4514 15.2618L31.4601 15.2661C31.5399 15.306 31.671 15.3759 31.7857 15.4937C31.9212 15.6328 32.0007 15.8024 32.0284 15.9868C32.0523 16.1453 32.0348 16.2968 32.015 16.4142C31.9943 16.537 31.9609 16.6762 31.9227 16.8254L31.9225 16.8261C31.7586 17.4642 31.5416 18.1368 31.3394 18.6627C31.2389 18.9239 31.1368 19.1627 31.0415 19.3475C30.9949 19.4379 30.9409 19.5332 30.8807 19.6162C30.8508 19.6575 30.8091 19.7101 30.7555 19.7608C30.7101 19.8038 30.6087 19.8916 30.4549 19.9372L30.4548 19.9372C30.3881 19.9568 30.3007 19.9723 30.2525 19.9808C30.2492 19.9814 30.2462 19.9819 30.2434 19.9825C30.1625 19.9968 30.0562 20.0146 29.9331 20.0346C29.6863 20.0745 29.3629 20.1247 29.0222 20.1763L29.0222 20.1763L29.0181 20.1769C28.3335 20.2762 27.5819 20.3435 26.979 20.3684C26.679 20.3808 26.4032 20.3833 26.1852 20.372C26.0782 20.3664 25.968 20.3567 25.8691 20.3385C25.8201 20.3295 25.758 20.3156 25.6934 20.2925C25.6426 20.2743 25.5207 20.2269 25.4105 20.1168C25.3089 20.0151 25.2616 19.9051 25.2399 19.8448C25.2158 19.7779 25.2034 19.7159 25.1964 19.6695C25.1822 19.5769 25.1798 19.4823 25.1811 19.401C25.1838 19.2344 25.2039 19.0371 25.233 18.8375C25.2914 18.4371 25.3968 17.9549 25.5275 17.5589L25.5275 17.5589L25.5281 17.5571C25.6238 17.2701 25.771 16.9127 25.9155 16.5961C26.055 16.2904 26.2148 15.972 26.3405 15.7859L26.3404 15.7858L26.3467 15.7768C26.4121 15.6834 26.4861 15.6294 26.5167 15.6083C26.5546 15.582 26.5888 15.5639 26.6111 15.5528C26.6557 15.5307 26.6981 15.5147 26.7276 15.5043C26.7893 15.4825 26.8596 15.4626 26.9276 15.4449C27.0669 15.4087 27.2473 15.369 27.4433 15.3301C27.8354 15.2522 28.324 15.1706 28.7408 15.1202C29.063 15.0784 29.6512 15.0797 30.1452 15.0975C30.4021 15.1068 30.6535 15.1213 30.8572 15.14C30.9583 15.1493 31.0553 15.1603 31.1386 15.1735L31.1408 15.1739C31.1956 15.1826 31.3316 15.2041 31.4514 15.2618Z" stroke="#17627C" stroke-width="1.3"/>
</svg>
