<svg width="25" height="25" viewBox="0 0 25 25" fill="none" xmlns="http://www.w3.org/2000/svg">
<path d="M12.5 25C9.02778 25 6.07639 23.7847 3.64583 21.3542C1.21528 18.9236 0 15.9722 0 12.5C0 9.02778 1.21528 6.07639 3.64583 3.64583C6.07639 1.21528 9.02778 0 12.5 0C12.8241 0 13.1426 0.0115742 13.4556 0.0347224C13.7685 0.0578705 14.075 0.0925925 14.375 0.138889C13.4259 0.810185 12.6676 1.68426 12.1 2.76111C11.5324 3.83796 11.2491 5.00093 11.25 6.25C11.25 8.33333 11.9792 10.1042 13.4375 11.5625C14.8958 13.0208 16.6667 13.75 18.75 13.75C20.0231 13.75 21.1921 13.4662 22.2569 12.8986C23.3218 12.331 24.1898 11.5731 24.8611 10.625C24.9074 10.9259 24.9421 11.2324 24.9653 11.5444C24.9884 11.8565 25 12.175 25 12.5C25 15.9722 23.7847 18.9236 21.3542 21.3542C18.9236 23.7847 15.9722 25 12.5 25Z" fill="#19657E"/>
</svg>
