<svg width="20" height="20" viewBox="0 0 20 20" fill="none" xmlns="http://www.w3.org/2000/svg">
<circle cx="10" cy="10" r="10" fill="#D8E4E8"/>
<path d="M9.99993 14.7898C10.1814 14.7898 10.3554 14.8619 10.4838 14.9902C10.6121 15.1185 10.6842 15.2925 10.6842 15.474V16.1582C10.6842 16.3397 10.6121 16.5137 10.4838 16.642C10.3554 16.7703 10.1814 16.8424 9.99993 16.8424C9.81845 16.8424 9.64441 16.7703 9.51609 16.642C9.38777 16.5137 9.31568 16.3397 9.31568 16.1582V15.474C9.31568 15.2925 9.38777 15.1185 9.51609 14.9902C9.64441 14.8619 9.81845 14.7898 9.99993 14.7898ZM14.3545 13.3872L14.8382 13.8709C14.9629 13.9999 15.0319 14.1728 15.0303 14.3522C15.0287 14.5316 14.9568 14.7032 14.8299 14.83C14.703 14.9569 14.5314 15.0288 14.352 15.0304C14.1726 15.032 13.9998 14.963 13.8707 14.8384L13.387 14.3546C13.2623 14.2256 13.1933 14.0527 13.1949 13.8733C13.1965 13.694 13.2684 13.5223 13.3953 13.3955C13.5222 13.2686 13.6938 13.1967 13.8732 13.1951C14.0526 13.1936 14.2254 13.2625 14.3545 13.3872ZM5.64537 13.3872C5.76851 13.2644 5.93374 13.1932 6.1075 13.1879C6.28127 13.1826 6.45054 13.2436 6.58093 13.3586C6.71132 13.4736 6.79307 13.6338 6.80955 13.8069C6.82604 13.9799 6.77603 14.1528 6.66969 14.2903L6.6129 14.3546L6.12914 14.8384C6.006 14.9611 5.84077 15.0323 5.66701 15.0376C5.49324 15.0429 5.32397 14.9819 5.19358 14.8669C5.06318 14.752 4.98144 14.5917 4.96496 14.4186C4.94847 14.2456 4.99848 14.0727 5.10482 13.9352L5.16161 13.8709L5.64537 13.3872ZM9.99993 5.89505C11.0888 5.89505 12.133 6.32756 12.9029 7.09745C13.6729 7.86733 14.1054 8.91152 14.1054 10.0003C14.1054 11.0891 13.6729 12.1333 12.9029 12.9032C12.133 13.6731 11.0888 14.1056 9.99993 14.1056C8.91109 14.1056 7.86684 13.6731 7.09691 12.9032C6.32698 12.1333 5.89444 11.0891 5.89444 10.0003C5.89444 8.91152 6.32698 7.86733 7.09691 7.09745C7.86684 6.32756 8.91109 5.89505 9.99993 5.89505ZM4.52594 9.3161C4.70034 9.31629 4.86809 9.38307 4.9949 9.50278C5.12172 9.6225 5.19803 9.78612 5.20826 9.96021C5.21848 10.1343 5.16183 10.3057 5.04989 10.4395C4.93796 10.5732 4.77918 10.6591 4.606 10.6797L4.52594 10.6845H3.84169C3.66729 10.6843 3.49955 10.6175 3.37273 10.4978C3.24592 10.3781 3.1696 10.2145 3.15938 10.0404C3.14916 9.86631 3.2058 9.69489 3.31774 9.56116C3.42968 9.42743 3.58846 9.34148 3.76164 9.32089L3.84169 9.3161H4.52594ZM16.1582 9.3161C16.3396 9.3161 16.5137 9.38818 16.642 9.5165C16.7703 9.64481 16.8424 9.81884 16.8424 10.0003C16.8424 10.1818 16.7703 10.3558 16.642 10.4841C16.5137 10.6124 16.3396 10.6845 16.1582 10.6845H15.4739C15.2924 10.6845 15.1184 10.6124 14.9901 10.4841C14.8618 10.3558 14.7897 10.1818 14.7897 10.0003C14.7897 9.81884 14.8618 9.64481 14.9901 9.5165C15.1184 9.38818 15.2924 9.3161 15.4739 9.3161H16.1582ZM5.16161 5.16226C5.27943 5.04445 5.43619 4.97368 5.60248 4.96323C5.76877 4.95277 5.93316 5.00335 6.06482 5.10547L6.12914 5.16226L6.6129 5.64599C6.73562 5.76912 6.80687 5.93434 6.81217 6.1081C6.81748 6.28185 6.75644 6.45111 6.64147 6.5815C6.52649 6.71189 6.36619 6.79362 6.19313 6.81011C6.02007 6.82659 5.84722 6.77659 5.70969 6.67026L5.64537 6.61347L5.16161 6.12973C5.03333 6.00142 4.96127 5.82742 4.96127 5.64599C4.96127 5.46456 5.03333 5.29056 5.16161 5.16226ZM14.8382 5.16226C14.9665 5.29056 15.0386 5.46456 15.0386 5.64599C15.0386 5.82742 14.9665 6.00142 14.8382 6.12973L14.3545 6.61347C14.2914 6.67882 14.2159 6.73094 14.1324 6.7668C14.0489 6.80266 13.9591 6.82153 13.8683 6.82232C13.7774 6.82311 13.6873 6.8058 13.6032 6.7714C13.5191 6.73699 13.4427 6.68619 13.3785 6.62195C13.3142 6.5577 13.2634 6.48131 13.229 6.39722C13.1946 6.31314 13.1773 6.22304 13.1781 6.13219C13.1789 6.04134 13.1978 5.95156 13.2336 5.86808C13.2695 5.78461 13.3216 5.70911 13.387 5.64599L13.8707 5.16226C13.999 5.03399 14.173 4.96193 14.3545 4.96193C14.5359 4.96193 14.7099 5.03399 14.8382 5.16226ZM9.99993 3.1582C10.1814 3.1582 10.3554 3.23029 10.4838 3.3586C10.6121 3.48692 10.6842 3.66095 10.6842 3.84241V4.52662C10.6842 4.70809 10.6121 4.88212 10.4838 5.01043C10.3554 5.13875 10.1814 5.21083 9.99993 5.21083C9.81845 5.21083 9.64441 5.13875 9.51609 5.01043C9.38777 4.88212 9.31568 4.70809 9.31568 4.52662V3.84241C9.31568 3.66095 9.38777 3.48692 9.51609 3.3586C9.64441 3.23029 9.81845 3.1582 9.99993 3.1582Z" fill="#2F7C95"/>
</svg>
