<svg width="15" height="22" viewBox="0 0 15 22" fill="none" xmlns="http://www.w3.org/2000/svg">
<path d="M6.58254 0.118241C5.75404 0.345225 5.11849 1.29856 5.10714 2.27459V2.81935H5.66325H6.20801L6.27611 2.29729C6.37825 1.33261 7.20674 0.889987 7.70611 1.52554C7.93309 1.80927 7.94444 1.96816 7.94444 4.53308V7.24554H3.97222H0V7.80165C0 9.90125 1.63428 11.8306 4.17651 12.7386C7.47912 13.9189 11.5081 12.9315 13.3467 10.5028C13.9141 9.75371 14.3 8.65284 14.3 7.80165V7.24554H11.7464H9.19285V4.48768C9.19285 2.0703 9.1588 1.68443 8.97722 1.28721C8.72753 0.719748 8.19412 0.254432 7.62666 0.0955429C7.13865 -0.0406475 7.11595 -0.0292978 6.58254 0.118241Z" fill="#17627C"/>
<path d="M4.60155 14.0879C4.5448 14.2273 4.36321 15.7819 4.19297 17.5508C4.03408 19.3198 3.87519 20.9601 3.84114 21.2067C3.72765 22 3.72765 22 7.07571 22C9.31154 22 10.0379 21.9678 10.1968 21.8606C10.3897 21.7213 10.3897 21.5604 10.0492 18.0225C9.84496 15.9963 9.64067 14.2273 9.58392 14.0879C9.47043 13.8521 9.45908 13.8521 7.08706 13.8521C4.71504 13.8521 4.7037 13.8521 4.60155 14.0879Z" fill="#17627C"/>
</svg>
