<svg width="21" height="26" viewBox="0 0 21 26" fill="none" xmlns="http://www.w3.org/2000/svg">
<path d="M6.99992 0.670153C4.57051 1.87449 3.82933 3.89466 3.25286 10.8099C2.75874 16.5207 2.75874 16.7927 3.49992 17.2977C3.91168 17.6085 4.61168 17.8416 5.02345 17.8416C5.55874 17.8416 5.76462 18.1524 5.76462 18.9682C5.76462 20.328 7.24698 21.0273 10.2117 21.0661C13.1764 21.105 14.8234 20.3668 14.8234 18.9682C14.8234 18.0358 14.9882 17.8416 15.8117 17.8416C17.747 17.8416 17.8705 17.1812 17.294 10.6156C16.6764 3.70041 16.0176 1.87449 13.5882 0.670153C11.7764 -0.223384 8.81168 -0.223384 6.99992 0.670153ZM13.1764 5.91483C13.7117 6.18677 14.2882 6.80836 14.4529 7.35226C14.6999 8.24579 14.7411 8.20694 14.7823 7.04146C14.8234 6.22562 15.0293 5.79828 15.4411 5.79828C15.894 5.79828 16.0587 6.26447 16.0587 7.74075C16.0587 9.17818 15.894 9.68322 15.4411 9.68322C15.1117 9.68322 14.6587 10.3048 14.4117 11.1983C13.4646 14.6171 9.71757 15.8214 7.28815 13.4905C6.54698 12.7912 5.8058 12.2084 5.55874 12.2084C4.9411 12.2084 4.07639 9.29473 4.19992 7.74075C4.36462 5.79828 5.1058 6.07022 5.27051 8.12924L5.43521 9.87747L6.09404 7.935C6.62933 6.49757 7.04109 5.95368 7.82345 5.75943C9.51168 5.33208 12.0646 5.37093 13.1764 5.91483ZM16.0587 12.7912C16.0587 13.8013 15.1117 15.5883 14.247 16.2876C13.794 16.6373 13.7117 16.9092 13.9999 17.2589C14.2882 17.5697 14.0823 17.997 13.3411 18.6574C11.8176 19.9783 8.72933 19.9783 7.2058 18.6186C5.39404 17.0646 4.11757 13.1797 5.35286 13.1797C5.8058 13.1797 5.92933 13.4516 6.38227 15.2775C6.5058 15.8991 7.16462 16.8704 7.82345 17.492C9.22345 18.8517 10.994 18.9682 12.394 17.8028C13.3411 17.0646 13.3411 17.0258 12.4764 17.4143C11.1999 18.0358 9.88227 17.9581 9.88227 17.2589C9.88227 16.9092 10.2529 16.6761 10.8705 16.6761C12.1882 16.6761 14.3705 14.6948 14.6587 13.2185C14.947 11.8976 16.0587 11.548 16.0587 12.7912Z" fill="#17627C"/>
<path d="M2.71765 19.0459C0.494118 19.6287 0 20.4057 0 23.3582V26H21V23.2805C21 20.328 20.5882 19.7841 17.7882 19.0459C16.5941 18.6963 16.5118 18.7352 16.3882 19.9006C16.2647 20.9884 16.0176 21.2215 14.2059 21.8431C10.1294 23.2805 4.32353 22.1539 4.03529 19.8618C3.91176 18.8517 3.82941 18.774 2.71765 19.0459Z" fill="#17627C"/>
</svg>
