<svg width="16" height="37" viewBox="0 0 16 37" fill="none" xmlns="http://www.w3.org/2000/svg">
<path d="M1.51293 22.2092C1.51283 22.2092 1.51522 22.2087 1.52041 22.2079C1.51563 22.2089 1.51303 22.2093 1.51293 22.2092ZM2.05273 22.5145C2.05273 22.3846 2.05327 22.2737 2.05431 22.1788C2.10684 22.1774 2.16402 22.176 2.22628 22.1746C3.07311 22.1568 4.67455 22.1548 7.75935 22.1548C10.7171 22.1548 12.3221 22.1568 13.2055 22.1737C13.3149 22.1758 13.4111 22.1781 13.4956 22.1806C13.4963 22.2752 13.4965 22.3831 13.4965 22.5068C13.4965 22.653 13.4962 22.7766 13.4952 22.882C13.4501 22.8833 13.4011 22.8846 13.3479 22.8859C12.5292 22.9046 10.9418 22.9047 7.77463 22.9047C4.6075 22.9047 3.02006 22.9046 2.20136 22.8859C2.14811 22.8846 2.09909 22.8833 2.05398 22.882C2.05307 22.7785 2.05273 22.6574 2.05273 22.5145ZM14.0545 22.2164C14.0536 22.2168 14.0424 22.2152 14.0233 22.2104C14.0458 22.2136 14.0554 22.216 14.0545 22.2164ZM13.4783 21.6709C13.4777 21.6681 13.4775 21.6665 13.4775 21.6664C13.4776 21.6664 13.4778 21.6678 13.4783 21.6709ZM13.4778 23.3379C13.4777 23.3379 13.4779 23.3369 13.4782 23.335L13.4778 23.3379ZM2.07137 23.3377C2.07135 23.3378 2.07117 23.3368 2.07088 23.3349L2.07137 23.3377Z" stroke="#17627C" stroke-width="2"/>
</svg>
