<svg width="23" height="18" viewBox="0 0 23 18" fill="none" xmlns="http://www.w3.org/2000/svg">
<path d="M5.69363 14.6328C5.57958 14.5227 5.48862 14.3909 5.42604 14.2452C5.36346 14.0996 5.33052 13.9429 5.32915 13.7843C5.32777 13.6258 5.35798 13.4686 5.41802 13.3218C5.47805 13.1751 5.56671 13.0418 5.67883 12.9296C5.79094 12.8175 5.92425 12.7289 6.07099 12.6688C6.21774 12.6088 6.37497 12.5786 6.53351 12.58C6.69205 12.5813 6.84873 12.6143 6.99441 12.6769C7.14009 12.7394 7.27184 12.8304 7.38199 12.9444C8.21693 13.7796 9.28081 14.3484 10.4391 14.5788C11.5973 14.8093 12.7979 14.6911 13.8889 14.2391C14.98 13.7872 15.9124 13.0218 16.5684 12.0398C17.2244 11.0578 17.5745 9.9033 17.5742 8.72235C17.5742 8.40568 17.7 8.10197 17.924 7.87804C18.1479 7.65412 18.4516 7.52832 18.7683 7.52832C19.0849 7.52832 19.3887 7.65412 19.6126 7.87804C19.8365 8.10197 19.9623 8.40568 19.9623 8.72235C19.9624 10.3755 19.4723 11.9916 18.5539 13.3662C17.6355 14.7409 16.3301 15.8122 14.8027 16.4449C13.2754 17.0776 11.5947 17.2431 9.97331 16.9205C8.35189 16.598 6.86255 15.8018 5.69363 14.6328Z" fill="white"/>
<path d="M15.8539 12.104C15.7235 12.191 15.5772 12.2515 15.4233 12.282C15.2695 12.3125 15.1112 12.3123 14.9574 12.2816C14.8036 12.2509 14.6574 12.1902 14.527 12.103C14.3967 12.0158 14.2848 11.9037 14.1978 11.7733C14.0221 11.5098 13.9582 11.1873 14.0202 10.8767C14.0822 10.5661 14.2651 10.2929 14.5286 10.1171L18.1107 7.72907C18.2411 7.64204 18.3874 7.58156 18.5413 7.55109C18.6951 7.52061 18.8534 7.52073 19.0072 7.55145C19.161 7.58216 19.3072 7.64286 19.4376 7.73009C19.5679 7.81731 19.6798 7.92935 19.7668 8.05981C19.8538 8.19027 19.9143 8.3366 19.9448 8.49043C19.9752 8.64426 19.9751 8.80259 19.9444 8.95637C19.9137 9.11016 19.853 9.25639 19.7658 9.38671C19.6785 9.51704 19.5665 9.62891 19.436 9.71593L15.8539 12.104Z" fill="white"/>
<path d="M22.1497 11.6418C22.3255 11.9053 22.3894 12.2278 22.3273 12.5384C22.2653 12.849 22.0825 13.1222 21.819 13.2979C21.5555 13.4737 21.233 13.5376 20.9224 13.4756C20.6118 13.4135 20.3386 13.2307 20.1629 12.9672L17.7748 9.38511C17.6878 9.25465 17.6273 9.10832 17.5968 8.95449C17.5663 8.80066 17.5665 8.64233 17.5972 8.48855C17.6592 8.17796 17.8421 7.90474 18.1055 7.72898C18.369 7.55323 18.6915 7.48934 19.0021 7.55136C19.3127 7.61339 19.5859 7.79626 19.7617 8.05973L22.1497 11.6418ZM17.4034 2.57435C17.5175 2.68449 17.6085 2.81625 17.671 2.96193C17.7336 3.1076 17.7665 3.26428 17.7679 3.42283C17.7693 3.58137 17.7391 3.7386 17.6791 3.88534C17.619 4.03208 17.5304 4.1654 17.4182 4.27751C17.3061 4.38962 17.1728 4.47828 17.0261 4.53832C16.8793 4.59836 16.7221 4.62857 16.5636 4.62719C16.405 4.62581 16.2483 4.59287 16.1027 4.53029C15.957 4.46772 15.8252 4.37675 15.7151 4.26271C14.8801 3.42754 13.8163 2.85876 12.658 2.62831C11.4998 2.39786 10.2992 2.51609 9.20816 2.96805C8.11712 3.42001 7.18462 4.18539 6.52863 5.16738C5.87263 6.14937 5.52261 7.30386 5.52283 8.48481C5.52283 8.80148 5.39703 9.10519 5.17311 9.32911C4.94918 9.55304 4.64547 9.67884 4.3288 9.67884C4.01212 9.67884 3.70841 9.55304 3.48449 9.32911C3.26057 9.10519 3.13477 8.80148 3.13477 8.48481C3.13465 6.83162 3.62478 5.21552 4.54319 3.84091C5.46159 2.4663 6.76701 1.39491 8.29435 0.762246C9.82169 0.129582 11.5023 -0.0359396 13.1238 0.286614C14.7452 0.609168 16.2345 1.40531 17.4034 2.57435Z" fill="white"/>
<path d="M7.24467 5.10309C7.50814 4.92734 7.83065 4.86345 8.14123 4.92547C8.45181 4.9875 8.72504 5.17037 8.90079 5.43384C9.07655 5.69732 9.14044 6.01982 9.07841 6.3304C9.01639 6.64099 8.83352 6.91421 8.57004 7.08996L4.98676 9.47803C4.8563 9.56505 4.70997 9.62553 4.55614 9.65601C4.40231 9.68648 4.24398 9.68636 4.09019 9.65565C3.93641 9.62494 3.79018 9.56423 3.65985 9.47701C3.52953 9.38978 3.41766 9.27774 3.33063 9.14728C3.15488 8.88381 3.09099 8.5613 3.15301 8.25072C3.21504 7.94014 3.39791 7.66691 3.66138 7.49116L7.24467 5.10309Z" fill="white"/>
<path d="M0.947816 5.56585C0.860791 5.43539 0.800314 5.28907 0.769837 5.13524C0.739361 4.9814 0.739483 4.82308 0.770196 4.66929C0.800908 4.51551 0.86161 4.36928 0.948836 4.23895C1.03606 4.10862 1.1481 3.99676 1.27856 3.90973C1.40902 3.8227 1.55535 3.76223 1.70918 3.73175C1.86301 3.70128 2.02134 3.7014 2.17512 3.73211C2.32891 3.76282 2.47514 3.82352 2.60546 3.91075C2.73579 3.99798 2.84766 4.11002 2.93469 4.24048L5.32275 7.82257C5.40977 7.95303 5.47025 8.09936 5.50073 8.25319C5.5312 8.40702 5.53108 8.56535 5.50037 8.71913C5.46966 8.87292 5.40895 9.01915 5.32173 9.14947C5.2345 9.2798 5.12246 9.39167 4.992 9.47869C4.86154 9.56572 4.71522 9.6262 4.56139 9.65667C4.40755 9.68715 4.24923 9.68703 4.09544 9.65631C3.94166 9.6256 3.79543 9.5649 3.6651 9.47767C3.53477 9.39045 3.42291 9.27841 3.33588 9.14795L0.947816 5.56585Z" fill="white"/>
</svg>
