<svg width="31" height="31" viewBox="0 0 31 31" fill="none" xmlns="http://www.w3.org/2000/svg">
<circle cx="15.5" cy="15.5" r="15.5" fill="#19657E"/>
<path d="M9.69363 21.6327C9.57958 21.5225 9.48862 21.3908 9.42604 21.2451C9.36346 21.0994 9.33052 20.9428 9.32915 20.7842C9.32777 20.6257 9.35798 20.4684 9.41802 20.3217C9.47805 20.175 9.56671 20.0416 9.67883 19.9295C9.79094 19.8174 9.92425 19.7288 10.071 19.6687C10.2177 19.6087 10.375 19.5785 10.5335 19.5798C10.6921 19.5812 10.8487 19.6142 10.9944 19.6767C11.1401 19.7393 11.2718 19.8303 11.382 19.9443C12.2169 20.7795 13.2808 21.3483 14.4391 21.5787C15.5973 21.8092 16.7979 21.6909 17.8889 21.239C18.98 20.787 19.9124 20.0216 20.5684 19.0397C21.2244 18.0577 21.5745 16.9032 21.5742 15.7222C21.5742 15.4056 21.7 15.1018 21.924 14.8779C22.1479 14.654 22.4516 14.5282 22.7683 14.5282C23.0849 14.5282 23.3887 14.654 23.6126 14.8779C23.8365 15.1018 23.9623 15.4056 23.9623 15.7222C23.9624 17.3754 23.4723 18.9915 22.5539 20.3661C21.6355 21.7407 20.3301 22.8121 18.8027 23.4448C17.2754 24.0775 15.5947 24.243 13.9733 23.9204C12.3519 23.5979 10.8625 22.8017 9.69363 21.6327Z" fill="white"/>
<path d="M19.8539 19.1035C19.7235 19.1905 19.5772 19.251 19.4233 19.2815C19.2695 19.312 19.1112 19.3118 18.9574 19.2811C18.8036 19.2504 18.6574 19.1897 18.527 19.1025C18.3967 19.0153 18.2848 18.9032 18.1978 18.7728C18.0221 18.5093 17.9582 18.1868 18.0202 17.8762C18.0822 17.5656 18.2651 17.2924 18.5286 17.1166L22.1107 14.7286C22.2411 14.6416 22.3874 14.5811 22.5413 14.5506C22.6951 14.5201 22.8534 14.5202 23.0072 14.551C23.161 14.5817 23.3072 14.6424 23.4376 14.7296C23.5679 14.8168 23.6798 14.9289 23.7668 15.0593C23.8538 15.1898 23.9143 15.3361 23.9448 15.4899C23.9752 15.6438 23.9751 15.8021 23.9444 15.9559C23.9137 16.1097 23.853 16.2559 23.7658 16.3862C23.6785 16.5166 23.5665 16.6284 23.436 16.7154L19.8539 19.1035Z" fill="white"/>
<path d="M26.1497 18.6416C26.3255 18.9051 26.3894 19.2276 26.3273 19.5381C26.2653 19.8487 26.0825 20.1219 25.819 20.2977C25.5555 20.4735 25.233 20.5374 24.9224 20.4753C24.6118 20.4133 24.3386 20.2304 24.1629 19.967L21.7748 16.3849C21.6878 16.2544 21.6273 16.1081 21.5968 15.9542C21.5663 15.8004 21.5665 15.6421 21.5972 15.4883C21.6592 15.1777 21.8421 14.9045 22.1055 14.7287C22.369 14.553 22.6915 14.4891 23.0021 14.5511C23.3127 14.6131 23.5859 14.796 23.7617 15.0595L26.1497 18.6416ZM21.4034 9.5741C21.5175 9.68425 21.6085 9.81601 21.671 9.96168C21.7336 10.1074 21.7665 10.264 21.7679 10.4226C21.7693 10.5811 21.7391 10.7384 21.6791 10.8851C21.619 11.0318 21.5304 11.1652 21.4182 11.2773C21.3061 11.3894 21.1728 11.478 21.0261 11.5381C20.8793 11.5981 20.7221 11.6283 20.5636 11.6269C20.405 11.6256 20.2483 11.5926 20.1027 11.53C19.957 11.4675 19.8252 11.3765 19.7151 11.2625C18.8801 10.4273 17.8163 9.85852 16.658 9.62807C15.4998 9.39761 14.2992 9.51584 13.2082 9.9678C12.1171 10.4198 11.1846 11.1851 10.5286 12.1671C9.87263 13.1491 9.52261 14.3036 9.52283 15.4846C9.52283 15.8012 9.39703 16.1049 9.17311 16.3289C8.94918 16.5528 8.64547 16.6786 8.3288 16.6786C8.01212 16.6786 7.70841 16.5528 7.48449 16.3289C7.26057 16.1049 7.13477 15.8012 7.13477 15.4846C7.13465 13.8314 7.62478 12.2153 8.54319 10.8407C9.46159 9.46605 10.767 8.39467 12.2944 7.762C13.8217 7.12934 15.5023 6.96382 17.1238 7.28637C18.7452 7.60892 20.2345 8.40506 21.4034 9.5741Z" fill="white"/>
<path d="M11.2447 12.103C11.5081 11.9272 11.8306 11.8633 12.1412 11.9254C12.4518 11.9874 12.725 12.1702 12.9008 12.4337C13.0765 12.6972 13.1404 13.0197 13.0784 13.3303C13.0164 13.6409 12.8335 13.9141 12.57 14.0898L8.98676 16.4779C8.8563 16.5649 8.70997 16.6254 8.55614 16.6559C8.40231 16.6864 8.24398 16.6862 8.09019 16.6555C7.93641 16.6248 7.79018 16.5641 7.65985 16.4769C7.52953 16.3897 7.41766 16.2776 7.33063 16.1472C7.15488 15.8837 7.09099 15.5612 7.15301 15.2506C7.21504 14.94 7.39791 14.6668 7.66138 14.491L11.2447 12.103Z" fill="white"/>
<path d="M4.94782 12.5651C4.86079 12.4347 4.80031 12.2883 4.76984 12.1345C4.73936 11.9807 4.73948 11.8223 4.7702 11.6686C4.80091 11.5148 4.86161 11.3685 4.94884 11.2382C5.03606 11.1079 5.1481 10.996 5.27856 10.909C5.40902 10.822 5.55535 10.7615 5.70918 10.731C5.86301 10.7005 6.02134 10.7007 6.17512 10.7314C6.32891 10.7621 6.47514 10.8228 6.60546 10.91C6.73579 10.9972 6.84766 11.1093 6.93469 11.2397L9.32275 14.8218C9.40977 14.9523 9.47025 15.0986 9.50073 15.2525C9.5312 15.4063 9.53108 15.5646 9.50037 15.7184C9.46966 15.8722 9.40895 16.0184 9.32173 16.1487C9.2345 16.2791 9.12246 16.3909 8.992 16.478C8.86154 16.565 8.71522 16.6255 8.56139 16.6559C8.40755 16.6864 8.24923 16.6863 8.09544 16.6556C7.94166 16.6249 7.79543 16.5642 7.6651 16.4769C7.53477 16.3897 7.42291 16.2777 7.33588 16.1472L4.94782 12.5651Z" fill="white"/>
</svg>
