<svg width="33" height="19" viewBox="0 0 33 19" fill="none" xmlns="http://www.w3.org/2000/svg">
<path d="M9.8065 0.826072C10.0111 0.727583 10.3293 0.598788 10.5187 0.553332C10.7081 0.500299 11.0641 0.454842 11.3142 0.447266C11.5642 0.447266 11.9202 0.47757 12.1096 0.523027C12.2991 0.568484 12.6021 0.67455 12.7915 0.757887C12.9809 0.841225 13.2688 1.02305 13.4355 1.15942C13.6021 1.28822 13.8825 1.58369 14.0567 1.81097C14.2385 2.03825 14.3976 2.28827 14.4128 2.3716C14.4279 2.45494 14.4961 2.62162 14.5643 2.75041C14.6325 2.8792 14.7083 3.1974 14.731 3.47014C14.7613 3.76561 14.7461 4.15957 14.6931 4.45504C14.6401 4.72778 14.5113 5.12174 14.4052 5.3263C14.2992 5.53843 14.1097 5.8339 13.9734 5.993C13.8446 6.15967 13.587 6.39453 13.3976 6.5309C13.2082 6.66727 12.9051 6.8491 12.7157 6.94001C12.5263 7.03093 12.1854 7.13699 11.9581 7.17487C11.7081 7.22033 11.3066 7.22033 10.9353 7.17487C10.5717 7.13699 10.1702 7.03093 9.9353 6.91729C9.71559 6.81122 9.51861 6.68242 9.49588 6.63697C9.48073 6.58393 9.37466 6.51575 9.2686 6.48545C9.16253 6.44756 9.04131 6.34907 8.98828 6.25816C8.94282 6.15967 8.82918 6.03088 8.74584 5.96269C8.65493 5.89451 8.49583 5.6748 8.38219 5.47024C8.26855 5.26569 8.11702 4.84142 8.04884 4.5308C7.97308 4.14442 7.94277 3.81865 7.98065 3.50802C8.01096 3.25801 8.0943 2.88678 8.17763 2.67465C8.26097 2.46252 8.42765 2.13674 8.54886 1.93976C8.67766 1.73521 8.80645 1.57611 8.85191 1.57611C8.89737 1.57611 9.04131 1.44732 9.18526 1.29579C9.32163 1.13669 9.60952 0.924562 9.8065 0.826072Z" fill="#4C7380"/>
<path d="M20.1555 1.91704C20.3601 1.81097 20.701 1.68218 20.9207 1.62157H20.9131C21.1328 1.56096 21.4359 1.50792 21.5798 1.50792C21.7238 1.50035 22.0344 1.53065 22.2617 1.57611C22.489 1.62157 22.8678 1.74278 23.095 1.85643C23.3223 1.97007 23.7011 2.25039 23.9436 2.48525C24.2012 2.73526 24.4436 3.06861 24.5572 3.31862C24.6633 3.54591 24.7845 3.93986 24.8376 4.18988C24.9133 4.54596 24.9133 4.76566 24.8451 5.17477C24.7921 5.46267 24.6633 5.89451 24.5572 6.12179C24.4436 6.36423 24.1709 6.72031 23.9208 6.97032C23.6708 7.21275 23.292 7.49307 23.0723 7.59914C22.8602 7.7052 22.4586 7.82642 22.1859 7.87945C21.8298 7.94006 21.5571 7.94764 21.201 7.88703C20.9283 7.84915 20.5192 7.72036 20.2919 7.61429C20.0646 7.50822 19.7918 7.31882 19.6858 7.1976C19.5797 7.08396 19.4585 6.97032 19.413 6.95517C19.3676 6.93244 19.2009 6.75061 19.0494 6.53848C18.8903 6.33392 18.7009 5.93996 18.6175 5.66722C18.5342 5.39448 18.4736 4.98537 18.4736 4.75809C18.4736 4.5308 18.5191 4.152 18.5797 3.92471C18.6403 3.69743 18.7615 3.37165 18.86 3.20498C18.9585 3.0383 19.2085 2.72011 19.413 2.5004C19.6252 2.28069 19.9585 2.01553 20.1555 1.91704Z" fill="#4C7380"/>
<path d="M0.321182 2.1822C0.457552 1.9928 0.692412 1.78067 0.836359 1.71248C0.980305 1.63672 1.2682 1.57611 1.47275 1.57611C1.71519 1.57611 1.97278 1.63672 2.18491 1.75036C2.37431 1.84127 2.60917 2.01553 2.70766 2.14432C2.81373 2.27311 2.9501 2.49282 3.01829 2.63677C3.08647 2.78071 3.32133 3.18983 3.54861 3.54591C3.79105 3.92471 4.2532 4.48535 4.68504 4.91719C5.08657 5.31114 5.72297 5.84147 6.0942 6.09906C6.46543 6.34908 7.16243 6.75061 7.63215 6.98547C8.0943 7.22033 8.49583 7.40973 8.51856 7.40973C8.54129 7.40973 8.67008 7.45519 8.80645 7.5158C8.93525 7.57641 9.20041 7.6749 9.38982 7.73551C9.57922 7.79612 10.0565 7.92491 10.4505 8.01582C10.8444 8.10674 11.6324 8.29614 12.193 8.43251C12.7536 8.56888 13.5718 8.8189 14.0113 8.99315C14.4507 9.17497 14.9962 9.42498 15.2234 9.55378C15.4507 9.68257 15.7916 9.88713 15.9811 10.0159C16.1629 10.1447 16.3523 10.2735 16.3977 10.3038C16.4356 10.3341 16.7084 10.5614 17.0038 10.8038C17.2993 11.0539 17.6857 11.4251 17.8751 11.6296C18.0645 11.8418 18.3297 12.1524 18.466 12.3266C18.5948 12.4933 18.7085 12.6524 18.7085 12.6751C18.7085 12.6979 18.7766 12.7888 18.86 12.8797C18.9433 12.9782 19.2161 13.4631 19.4585 13.9631C19.7085 14.4631 19.9282 14.9556 19.9585 15.0616C19.9813 15.1677 20.0343 15.3192 20.0722 15.4026C20.1025 15.4859 20.1858 15.7435 20.254 15.9708C20.3222 16.198 20.4282 16.645 20.4964 16.9557C20.5646 17.2663 20.6252 17.7436 20.6404 18.5088L19.1479 18.5239C18.3221 18.5391 17.6478 18.5391 17.6478 18.5239C17.6478 18.5163 17.5948 18.2209 17.5266 17.8648C17.4584 17.5087 17.322 16.986 17.216 16.6905C17.1099 16.395 16.9129 15.9405 16.7765 15.6677C16.6326 15.395 16.375 14.9631 16.1932 14.7131C16.0189 14.4555 15.7235 14.0843 15.2159 13.5085L15.1856 18.5088L7.49578 18.5467V14.4783C7.4882 10.7205 7.48063 10.3947 7.35941 10.3114C7.29123 10.2584 7.17001 10.2129 7.10182 10.2129C7.02606 10.2129 6.90484 10.1826 6.83666 10.1447C6.7609 10.1068 6.49573 9.98562 6.24572 9.87198C5.99571 9.75834 5.55629 9.52348 5.26082 9.3568C4.97293 9.18255 4.70019 9.01587 4.65473 8.98557C4.61685 8.94769 4.35926 8.75829 4.08652 8.56131C3.81378 8.36433 3.48043 8.09916 3.33648 7.97794C3.19254 7.84915 2.88192 7.55368 2.6319 7.31882C2.38947 7.07638 2.19249 6.86425 2.19249 6.84152C2.19249 6.8188 2.07885 6.69 1.95005 6.54605C1.81368 6.40211 1.66216 6.23543 1.6167 6.1824C1.57124 6.12937 1.31366 5.75814 1.04849 5.36418C0.77575 4.97022 0.4424 4.40201 0.306029 4.11411C0.169659 3.82622 0.0332886 3.46257 0.0105602 3.31862C-0.00459207 3.17467 -0.00459207 2.93224 0.0181363 2.78829C0.0484409 2.64434 0.177235 2.3716 0.321182 2.1822Z" fill="#4C7380"/>
<path d="M30.0727 2.93224C30.2166 2.8186 30.4212 2.6898 30.5272 2.64434C30.6333 2.60646 30.8227 2.56858 30.9439 2.56858C31.0727 2.56858 31.3 2.60646 31.4667 2.6595C31.6258 2.70495 31.8758 2.8792 32.0122 3.0383C32.1561 3.18983 32.3076 3.46257 32.3531 3.64439C32.3985 3.81865 32.4213 4.08381 32.4061 4.22776C32.3834 4.3717 32.2243 4.78081 32.05 5.13689C31.8682 5.49297 31.6637 5.84905 31.5879 5.93239C31.5121 6.01573 31.3985 6.19755 31.3303 6.33392C31.2621 6.46272 31.1788 6.57636 31.1333 6.57636C31.0954 6.57636 31.05 6.62939 31.0424 6.69C31.0273 6.75061 30.853 6.98547 30.6409 7.22791C30.4363 7.46277 30.0878 7.82642 29.8757 8.03855C29.6636 8.25826 29.3226 8.58403 29.1181 8.76586C28.9135 8.94769 28.6105 9.19013 28.4438 9.30377C28.2771 9.42499 28.0877 9.53105 28.0271 9.53863C27.9665 9.55378 27.868 9.62197 27.7998 9.69773C27.7392 9.76591 27.4589 9.94016 27.1786 10.0917C26.8907 10.2432 26.6179 10.3644 26.5649 10.3644C26.5119 10.3644 26.421 10.4099 26.3679 10.4629C26.3149 10.5084 26.0649 10.6372 25.3376 10.9402L25.2618 18.5088L21.9283 18.5542L21.8298 17.7739C21.7844 17.342 21.6556 16.645 21.5495 16.2132C21.4434 15.7889 21.2389 15.1071 21.0874 14.7056C20.9358 14.2964 20.6555 13.6525 20.4661 13.2812C20.2691 12.91 19.9131 12.3115 19.6782 11.9554C19.4358 11.5993 19.0948 11.1599 18.913 10.9705C18.7312 10.7811 18.5115 10.5311 18.4206 10.4023C18.3221 10.2735 18.2463 10.1447 18.2463 10.0993C18.2463 10.0538 18.4963 9.90986 18.7994 9.77349C19.1024 9.62954 19.4585 9.50075 19.5797 9.47044C19.7085 9.44771 19.8752 9.3871 19.9585 9.33407C20.0419 9.28104 20.3828 9.17497 20.7161 9.09164C21.0495 9.0083 21.5419 8.90223 21.8147 8.8492C22.0874 8.79617 22.595 8.66737 22.9511 8.56888C23.3072 8.47039 23.9057 8.26584 24.2769 8.11431C24.6557 7.97037 25.1482 7.75066 25.3755 7.62944C25.6027 7.5158 26.0649 7.25064 26.3982 7.0385C26.7316 6.82637 27.0498 6.65212 27.1028 6.65212C27.1483 6.65212 27.1937 6.62939 27.1937 6.59151C27.1937 6.56121 27.5422 6.1824 27.9741 5.74298C28.3983 5.30357 28.8756 4.75809 29.0272 4.5308C29.1711 4.30352 29.4135 3.89441 29.5499 3.62924C29.6939 3.36408 29.9287 3.05346 30.0727 2.93224Z" fill="#4C7380"/>
</svg>
