<svg width="23" height="25" viewBox="0 0 23 25" fill="none" xmlns="http://www.w3.org/2000/svg">
<path d="M8.94974 3.67021L4.13523 7.34039L6.16114 7.3781L8.19896 7.40324L12.3938 5.70641C14.7057 4.76372 16.6482 3.97187 16.6959 3.93416C16.8269 3.85875 14.0741 -0.0125386 13.8953 3.05402e-05C13.8238 3.05402e-05 11.5953 1.64658 8.94974 3.67021Z" fill="#68909D"/>
<path d="M14.0383 5.68127C11.8337 6.5234 9.98653 7.26498 9.93886 7.31526C9.89119 7.36553 11.9767 7.40324 14.5746 7.40324C18.2808 7.40324 19.3057 7.36553 19.3057 7.23984C19.2938 6.95075 18.2808 4.21068 18.1617 4.18555C18.1021 4.16041 16.243 4.83914 14.0383 5.68127Z" fill="#68909D"/>
<path d="M0.607772 6.3223C0 6.6868 0.0119171 6.46055 0 15.7868C0 24.3338 0 24.4972 0.238342 24.7486C0.476684 25 0.631607 25 10.8207 25H21.1767L21.4269 24.7109C21.6772 24.4344 21.6891 24.3087 21.6891 22.1594V19.9095H20.3425C18.7933 19.8969 18.3166 19.7084 17.5896 18.8286C17.0534 18.1498 16.8865 17.6094 16.9461 16.7044C17.0176 15.7366 17.4943 14.8944 18.2808 14.3791C18.829 14.0272 18.9482 14.002 20.2829 13.9643L21.6891 13.914V8.27051L21.3912 7.96885L21.1052 7.65462H11.3451C2.94352 7.65462 1.56114 7.62948 1.43005 7.46608C1.16788 7.12672 1.43005 7.02617 2.55026 7.02617C3.58705 7.02617 3.68238 7.00103 4.14715 6.64909C4.42124 6.43542 4.64767 6.24688 4.64767 6.20917C4.64767 6.17147 3.80155 6.14633 2.77668 6.14633C1.44197 6.1589 0.810363 6.20917 0.607772 6.3223Z" fill="#68909D"/>
<path d="M19.544 6.1966C19.544 6.20917 19.6036 6.41028 19.6751 6.63652L19.8062 7.02617H20.7477C22.2135 7.02617 22.1658 6.91304 22.1658 10.357C22.1658 11.9156 22.1896 13.185 22.2254 13.185C22.2731 13.185 22.4518 13.097 22.6425 12.9965L23 12.7954V10.0302C23 6.23431 22.9523 6.14633 20.8311 6.14633C20.1161 6.14633 19.544 6.17147 19.544 6.1966Z" fill="#68909D"/>
<path d="M22.1658 14.002L21.5104 14.5551L20.4021 14.5676C18.8528 14.5676 18.2212 14.8693 17.7446 15.8497C17.3275 16.7044 17.4824 17.823 18.0902 18.5018C18.6383 19.1051 19.0316 19.2559 20.3187 19.3188L21.5104 19.369L22.2611 18.7154L23 18.0618V15.7491C23 14.4797 22.9642 13.4364 22.9166 13.4364C22.857 13.4364 22.5233 13.6878 22.1658 14.002ZM20.3902 16.1891C21.0575 16.9055 20.6642 17.9613 19.7228 17.9613C18.7813 17.9613 18.3881 16.9055 19.0554 16.1891C19.5083 15.7114 19.9373 15.7114 20.3902 16.1891Z" fill="#68909D"/>
<path d="M22.4995 19.0422L22.1658 19.2308V21.4806C22.1658 22.9764 22.2135 23.7431 22.285 23.7431C22.3565 23.7431 22.5471 23.6048 22.7021 23.4289C23 23.1272 23 23.0895 23 20.9779C23 19.809 22.9642 18.8411 22.9166 18.8411C22.857 18.8537 22.6782 18.9417 22.4995 19.0422Z" fill="#68909D"/>
</svg>
