<svg width="38" height="38" viewBox="0 0 38 38" fill="none" xmlns="http://www.w3.org/2000/svg">
<path d="M17.1027 34.2C16.5988 34.2 16.1155 34.4002 15.7591 34.7565C15.4028 35.1128 15.2026 35.5961 15.2026 36.1C15.2026 36.6039 15.4028 37.0872 15.7591 37.4435C16.1155 37.7998 16.5988 38 17.1027 38C17.6066 38 18.0899 37.7998 18.4462 37.4435C18.8026 37.0872 19.0028 36.6039 19.0028 36.1C19.0028 35.5961 18.8026 35.1128 18.4462 34.7565C18.0899 34.4002 17.6066 34.2 17.1027 34.2ZM23.753 32.3C23.2491 32.3 22.7658 32.5002 22.4094 32.8565C22.0531 33.2128 21.8529 33.6961 21.8529 34.2C21.8529 34.7039 22.0531 35.1872 22.4094 35.5435C22.7658 35.8998 23.2491 36.1 23.753 36.1C24.2569 36.1 24.7402 35.8998 25.0966 35.5435C25.4529 35.1872 25.6531 34.7039 25.6531 34.2C25.6531 33.6961 25.4529 33.2128 25.0966 32.8565C24.7402 32.5002 24.2569 32.3 23.753 32.3ZM10.4524 32.3C9.94844 32.3 9.46515 32.5002 9.10881 32.8565C8.75248 33.2128 8.55229 33.6961 8.55229 34.2C8.55229 34.7039 8.75248 35.1872 9.10881 35.5435C9.46515 35.8998 9.94844 36.1 10.4524 36.1C10.9563 36.1 11.4396 35.8998 11.7959 35.5435C12.1523 35.1872 12.3525 34.7039 12.3525 34.2C12.3525 33.6961 12.1523 33.2128 11.7959 32.8565C11.4396 32.5002 10.9563 32.3 10.4524 32.3ZM17.0989 7.61726C11.0794 7.61726 7.66305 11.6015 7.16713 16.4142H7.01512C6.09497 16.413 5.18359 16.593 4.33302 16.944C3.48246 17.295 2.70938 17.8101 2.05794 18.46C1.40651 19.1098 0.889465 19.8816 0.536362 20.7312C0.183254 21.5809 0.000995636 22.4918 0 23.4119C0.00124741 24.3318 0.183685 25.2425 0.536903 26.092C0.890121 26.9414 1.4072 27.7129 2.05861 28.3626C2.71003 29.0122 3.48302 29.5271 4.33346 29.878C5.1839 30.2289 6.09513 30.4089 7.01512 30.4076H27.1845C28.1045 30.4089 29.0158 30.2289 29.8662 29.878C30.7166 29.5271 31.4896 29.0122 32.1411 28.3626C32.7925 27.7129 33.3095 26.9414 33.6628 26.092C34.016 25.2425 34.1984 24.3318 34.1997 23.4119C34.1987 22.4918 34.0164 21.5809 33.6633 20.7312C33.3102 19.8816 32.7932 19.1098 32.1417 18.46C31.4903 17.8101 30.7172 17.295 29.8666 16.944C29.0161 16.593 28.1047 16.413 27.1845 16.4142H27.0325C26.5328 11.5692 23.1184 7.61726 17.0989 7.61726ZM33.5061 15.5117C33.374 15.8299 33.3616 16.1852 33.4713 16.5118C33.581 16.8384 33.8053 17.1143 34.1028 17.2882L34.2757 17.3737L36.0371 18.1033C36.3702 18.2391 36.7425 18.2438 37.079 18.1166C37.4156 17.9893 37.6915 17.7395 37.8515 17.4172C38.0114 17.0949 38.0435 16.724 37.9413 16.3791C37.8392 16.0341 37.6103 15.7405 37.3006 15.5573L37.1277 15.4699L35.3663 14.7403C35.1934 14.6687 35.0081 14.6318 34.8209 14.6318C34.6337 14.6318 34.4484 14.6687 34.2755 14.7403C34.1026 14.812 33.9455 14.917 33.8131 15.0493C33.6808 15.1817 33.5777 15.3388 33.5061 15.5117ZM21.1803 6.32906L21.5052 6.43926C24.8968 7.63626 27.3252 10.2487 28.374 13.7029L28.507 14.1779L28.6191 14.6301L29.0105 14.7042C30.1473 14.9429 31.2257 15.4039 32.1837 16.0608C33.0545 14.5641 33.3798 12.8118 33.1042 11.1022C32.8286 9.39263 31.969 7.83137 30.6719 6.68412C29.3747 5.53688 27.7201 4.87453 25.9896 4.80979C24.259 4.74506 22.5595 5.28193 21.1803 6.32906ZM36.2157 6.38796L36.0162 6.45446L34.2567 7.18406C33.9267 7.32315 33.6612 7.58137 33.513 7.90733C33.3647 8.2333 33.3447 8.60311 33.4568 8.9432C33.5689 9.28328 33.8049 9.5687 34.1179 9.74267C34.4309 9.91663 34.7979 9.96639 35.1459 9.88204L35.3473 9.81744L37.1068 9.08785C37.4377 8.94917 37.704 8.69081 37.8527 8.36436C38.0014 8.0379 38.0216 7.66737 37.909 7.32675C37.7965 6.98612 37.5597 6.70045 37.2458 6.52678C36.9319 6.35312 36.564 6.30232 36.2157 6.38796ZM28.9668 0.714591L28.8813 0.887491L28.1517 2.64688C28.0139 2.98035 28.0078 3.35367 28.1345 3.69148C28.2612 4.0293 28.5114 4.30648 28.8345 4.46706C29.1576 4.62765 29.5296 4.65969 29.8755 4.55672C30.2213 4.45376 30.5152 4.22345 30.6978 3.91228L30.7852 3.73748L31.5148 1.97808C31.6507 1.64491 31.6554 1.2727 31.5281 0.936175C31.4008 0.59965 31.151 0.323721 30.8287 0.163783C30.5064 0.00384428 30.1355 -0.0282644 29.7905 0.0739022C29.4455 0.176069 29.1501 0.404948 28.9668 0.714591ZM20.6957 0.108495C20.3799 0.239086 20.1216 0.478822 19.9677 0.783994C19.8139 1.08917 19.7749 1.43945 19.8578 1.77099L19.9243 1.97048L20.652 3.72988C20.7891 4.06289 21.0472 4.33167 21.3744 4.48215C21.7016 4.63263 22.0736 4.65366 22.4157 4.54101C22.7577 4.42836 23.0444 4.19038 23.2182 3.87493C23.3919 3.55949 23.4397 3.18997 23.3521 2.84068L23.2856 2.63928L22.5578 0.879891C22.4862 0.706968 22.3813 0.549841 22.2489 0.417486C22.1166 0.28513 21.9595 0.180137 21.7866 0.108504C21.6137 0.0368716 21.4283 1.71059e-06 21.2412 0C21.054 -1.71047e-06 20.8687 0.0368648 20.6957 0.108495Z" fill="#446874"/>
</svg>
