<svg width="87" height="87" viewBox="0 0 87 87" fill="none" xmlns="http://www.w3.org/2000/svg">
<g filter="url(#filter0_d_2214_2018)">
<circle cx="43.5" cy="39.5" r="31.5" fill="#436672"/>
</g>
<path d="M41.1027 55.2C40.5988 55.2 40.1155 55.4002 39.7591 55.7565C39.4028 56.1128 39.2026 56.5961 39.2026 57.1C39.2026 57.6039 39.4028 58.0872 39.7591 58.4435C40.1155 58.7998 40.5988 59 41.1027 59C41.6066 59 42.0899 58.7998 42.4462 58.4435C42.8026 58.0872 43.0028 57.6039 43.0028 57.1C43.0028 56.5961 42.8026 56.1128 42.4462 55.7565C42.0899 55.4002 41.6066 55.2 41.1027 55.2ZM47.753 53.3C47.2491 53.3 46.7658 53.5002 46.4094 53.8565C46.0531 54.2128 45.8529 54.6961 45.8529 55.2C45.8529 55.7039 46.0531 56.1872 46.4094 56.5435C46.7658 56.8998 47.2491 57.1 47.753 57.1C48.2569 57.1 48.7402 56.8998 49.0966 56.5435C49.4529 56.1872 49.6531 55.7039 49.6531 55.2C49.6531 54.6961 49.4529 54.2128 49.0966 53.8565C48.7402 53.5002 48.2569 53.3 47.753 53.3ZM34.4524 53.3C33.9484 53.3 33.4651 53.5002 33.1088 53.8565C32.7525 54.2128 32.5523 54.6961 32.5523 55.2C32.5523 55.7039 32.7525 56.1872 33.1088 56.5435C33.4651 56.8998 33.9484 57.1 34.4524 57.1C34.9563 57.1 35.4396 56.8998 35.7959 56.5435C36.1523 56.1872 36.3525 55.7039 36.3525 55.2C36.3525 54.6961 36.1523 54.2128 35.7959 53.8565C35.4396 53.5002 34.9563 53.3 34.4524 53.3ZM41.0989 28.6173C35.0794 28.6173 31.6631 32.6015 31.1671 37.4142H31.0151C30.095 37.413 29.1836 37.593 28.333 37.944C27.4825 38.295 26.7094 38.8101 26.0579 39.46C25.4065 40.1098 24.8895 40.8816 24.5364 41.7312C24.1833 42.5809 24.001 43.4918 24 44.4119C24.0012 45.3318 24.1837 46.2425 24.5369 47.092C24.8901 47.9414 25.4072 48.7129 26.0586 49.3626C26.71 50.0122 27.483 50.5271 28.3335 50.878C29.1839 51.2289 30.0951 51.4089 31.0151 51.4076H51.1845C52.1045 51.4089 53.0158 51.2289 53.8662 50.878C54.7166 50.5271 55.4896 50.0122 56.1411 49.3626C56.7925 48.7129 57.3095 47.9414 57.6628 47.092C58.016 46.2425 58.1984 45.3318 58.1997 44.4119C58.1987 43.4918 58.0164 42.5809 57.6633 41.7312C57.3102 40.8816 56.7932 40.1098 56.1417 39.46C55.4903 38.8101 54.7172 38.295 53.8666 37.944C53.0161 37.593 52.1047 37.413 51.1845 37.4142H51.0325C50.5328 32.5692 47.1184 28.6173 41.0989 28.6173ZM57.5061 36.5117C57.374 36.8299 57.3616 37.1852 57.4713 37.5118C57.581 37.8384 57.8053 38.1143 58.1028 38.2882L58.2757 38.3737L60.0371 39.1033C60.3702 39.2391 60.7425 39.2438 61.079 39.1166C61.4156 38.9893 61.6915 38.7395 61.8515 38.4172C62.0114 38.0949 62.0435 37.724 61.9413 37.3791C61.8392 37.0341 61.6103 36.7405 61.3006 36.5573L61.1277 36.4699L59.3663 35.7403C59.1934 35.6687 59.0081 35.6318 58.8209 35.6318C58.6337 35.6318 58.4484 35.6687 58.2755 35.7403C58.1026 35.812 57.9455 35.917 57.8131 36.0493C57.6808 36.1817 57.5777 36.3388 57.5061 36.5117ZM45.1803 27.3291L45.5052 27.4393C48.8968 28.6363 51.3252 31.2487 52.374 34.7029L52.507 35.1779L52.6191 35.6301L53.0105 35.7042C54.1473 35.9429 55.2257 36.4039 56.1837 37.0608C57.0545 35.5641 57.3798 33.8118 57.1042 32.1022C56.8286 30.3926 55.969 28.8314 54.6719 27.6841C53.3747 26.5369 51.7201 25.8745 49.9896 25.8098C48.259 25.7451 46.5595 26.2819 45.1803 27.3291ZM60.2157 27.388L60.0162 27.4545L58.2567 28.1841C57.9267 28.3232 57.6612 28.5814 57.513 28.9073C57.3647 29.2333 57.3447 29.6031 57.4568 29.9432C57.5689 30.2833 57.8049 30.5687 58.1179 30.7427C58.4309 30.9166 58.7979 30.9664 59.1459 30.882L59.3473 30.8174L61.1068 30.0878C61.4377 29.9492 61.704 29.6908 61.8527 29.3644C62.0014 29.0379 62.0216 28.6674 61.909 28.3267C61.7965 27.9861 61.5597 27.7005 61.2458 27.5268C60.9319 27.3531 60.564 27.3023 60.2157 27.388ZM52.9668 21.7146L52.8813 21.8875L52.1517 23.6469C52.0139 23.9804 52.0078 24.3537 52.1345 24.6915C52.2612 25.0293 52.5114 25.3065 52.8345 25.4671C53.1576 25.6276 53.5296 25.6597 53.8755 25.5567C54.2213 25.4538 54.5152 25.2234 54.6978 24.9123L54.7852 24.7375L55.5148 22.9781C55.6507 22.6449 55.6554 22.2727 55.5281 21.9362C55.4008 21.5996 55.151 21.3237 54.8287 21.1638C54.5064 21.0038 54.1355 20.9717 53.7905 21.0739C53.4455 21.1761 53.1501 21.4049 52.9668 21.7146ZM44.6957 21.1085C44.3799 21.2391 44.1216 21.4788 43.9677 21.784C43.8139 22.0892 43.7749 22.4395 43.8578 22.771L43.9243 22.9705L44.652 24.7299C44.7891 25.0629 45.0472 25.3317 45.3744 25.4821C45.7016 25.6326 46.0736 25.6537 46.4157 25.541C46.7577 25.4284 47.0444 25.1904 47.2182 24.8749C47.3919 24.5595 47.4397 24.19 47.3521 23.8407L47.2856 23.6393L46.5578 21.8799C46.4862 21.707 46.3813 21.5498 46.2489 21.4175C46.1166 21.2851 45.9595 21.1801 45.7866 21.1085C45.6137 21.0369 45.4283 21 45.2412 21C45.054 21 44.8687 21.0369 44.6957 21.1085Z" fill="#D8E4E8"/>
<defs>
<filter id="filter0_d_2214_2018" x="0" y="0" width="87" height="87" filterUnits="userSpaceOnUse" color-interpolation-filters="sRGB">
<feFlood flood-opacity="0" result="BackgroundImageFix"/>
<feColorMatrix in="SourceAlpha" type="matrix" values="0 0 0 0 0 0 0 0 0 0 0 0 0 0 0 0 0 0 127 0" result="hardAlpha"/>
<feOffset dy="4"/>
<feGaussianBlur stdDeviation="6"/>
<feComposite in2="hardAlpha" operator="out"/>
<feColorMatrix type="matrix" values="0 0 0 0 0 0 0 0 0 0 0 0 0 0 0 0 0 0 0.25 0"/>
<feBlend mode="normal" in2="BackgroundImageFix" result="effect1_dropShadow_2214_2018"/>
<feBlend mode="normal" in="SourceGraphic" in2="effect1_dropShadow_2214_2018" result="shape"/>
</filter>
</defs>
</svg>
