<svg width="26" height="24" viewBox="0 0 26 24" fill="none" xmlns="http://www.w3.org/2000/svg">
<path d="M12.6504 0.285131C11.9001 0.63029 10.6845 1.98091 10.3994 2.77628C9.93418 4.1269 10.2343 5.67261 11.1647 6.63305C11.9751 7.47344 12.5154 7.71355 13.6409 7.72855C14.4663 7.72855 14.7214 7.66853 15.3217 7.27835C16.2821 6.66306 16.6723 5.95774 16.6123 4.84723C16.5672 4.03686 16.5372 3.97683 16.162 3.93181C15.7869 3.88679 15.7719 3.9168 15.7118 4.68215C15.6368 5.71763 15.5918 5.83768 15.1116 6.36293C14.7964 6.72309 14.5713 6.81313 13.911 6.87316C12.7105 6.9632 11.9601 6.54301 11.4649 5.49253C11.2548 5.05733 11.0897 4.47206 11.0897 4.18693C11.0897 3.64668 11.3748 2.71625 11.63 2.3861C11.72 2.26604 11.8401 2.05595 11.8851 1.90588C11.9451 1.77081 12.0802 1.65076 12.2152 1.65076C12.3353 1.65076 12.4403 1.60574 12.4403 1.5307C12.4403 1.41065 13.4908 0.975449 14.1511 0.82538C14.7364 0.705324 16.147 1.02047 16.7773 1.42566C17.8428 2.10097 18.5932 3.13644 18.7282 4.09688C19.1034 6.81313 18.3831 8.62897 16.3271 9.9946C14.8114 11.0151 12.3803 10.82 9.07879 9.39432C8.0133 8.92911 7.08287 8.55393 7.00784 8.55393C6.91779 8.55393 6.40756 8.34384 5.86731 8.08872C4.48668 7.45843 2.34069 6.90318 1.26019 6.90318C0.239722 6.90318 -0.0754227 7.03824 0.0146187 7.44342C0.0596394 7.68353 0.254729 7.74356 1.18516 7.8186C1.80044 7.87862 2.5808 7.99868 2.91095 8.08872C3.2411 8.16375 3.8864 8.32883 4.33661 8.44889C4.78681 8.56894 5.8373 8.97413 6.66268 9.33429C8.13335 10.0096 9.9792 10.6999 11.765 11.2702C13.5959 11.8555 15.6968 11.5703 17.0174 10.5499C17.8428 9.91956 18.5632 9.24425 18.5181 9.15421C18.4881 9.09418 18.6232 8.86908 18.8333 8.62897C19.4486 7.90864 19.8537 6.31791 19.7487 4.96728C19.6737 3.85677 19.2985 2.70124 18.8783 2.23603C18.7582 2.11597 18.5932 1.87586 18.5031 1.72579C18.293 1.32061 16.4922 0.120055 16.2371 0.210097C16.132 0.255117 16.042 0.225104 16.042 0.150069C16.042 0.0600276 15.4567 0 14.6614 0C13.6259 0 13.1006 0.0750345 12.6504 0.285131Z" fill="#FCFDFD"/>
<path d="M21.1294 10.2646C21.0844 10.3096 20.9193 10.3697 20.7543 10.3997C20.199 10.5047 19.9439 10.6848 19.9439 10.97C19.9439 11.4052 20.259 11.4502 21.1144 11.18C21.7597 10.97 21.9698 10.9549 22.45 11.12C23.4255 11.4352 23.9657 11.8854 24.2959 12.6507C24.6561 13.4911 24.611 13.9263 24.0408 15.0518C23.5305 16.0723 23.8457 16.8076 24.491 16.0873C25.4064 15.0818 25.6465 12.9359 24.9562 11.9154C24.2509 10.8499 23.4255 10.3547 22.1199 10.2496C21.6247 10.2046 21.1745 10.2196 21.1294 10.2646Z" fill="#FCFDFD"/>
<path d="M4.42664 12.1405C4.36661 12.2156 4.36661 12.3656 4.41163 12.4857C4.51668 12.7558 5.71723 13.4762 6.24248 13.5962C6.34752 13.6112 6.78273 13.7913 7.21793 14.0014C8.11834 14.4216 10.1143 15.0819 11.0147 15.247C11.3448 15.322 13.1306 15.367 14.9915 15.367C18.7282 15.382 18.5481 15.337 19.7787 16.4925C20.7542 17.408 21.1293 19.5389 20.5441 20.8145C20.394 21.1747 20.2889 21.4598 20.334 21.4598C20.6191 21.4598 19.6737 22.3753 19.0134 22.7354C16.6423 24.041 13.851 22.1802 14.5713 19.7791C14.9465 18.5035 16.027 17.9632 17.3326 18.4134C18.0829 18.6685 18.3831 18.5485 18.233 18.0533C18.1129 17.6781 17.5277 17.408 16.6122 17.3029C16.117 17.2429 15.8919 17.2729 15.8919 17.393C15.8919 17.483 15.8469 17.543 15.7869 17.543C15.1266 17.438 14.3312 18.0983 13.851 19.1338C13.1907 20.5144 13.4308 21.6999 14.5863 22.8705C15.0215 23.3057 15.5618 23.7409 15.7869 23.8309C16.6122 24.1761 19.4936 23.951 19.4936 23.5308C19.4936 23.4708 19.5836 23.4107 19.6887 23.4107C19.9438 23.4107 21.0243 22.1051 21.3544 21.4148C22.2548 19.4639 21.5945 16.6876 19.9138 15.397C18.6982 14.4666 18.308 14.4066 14.8865 14.4366C12.0802 14.4666 11.63 14.4366 10.4144 14.1365C9.67906 13.9414 8.9137 13.7613 8.71862 13.7163C8.53853 13.6863 7.62311 13.2811 6.69268 12.8309C4.9969 12.0055 4.57671 11.8854 4.42664 12.1405Z" fill="#FCFDFD"/>
</svg>
