<svg width="19" height="18" viewBox="0 0 19 18" fill="none" xmlns="http://www.w3.org/2000/svg">
<circle cx="10.3281" cy="2.58201" r="2.58201" fill="#17627C"/>
<path d="M10.9727 7.05754C10.9727 6.0118 11.8204 5.16406 12.8661 5.16406C15.7419 5.16406 18.0732 7.49534 18.0732 10.3711V15.4921H10.9727V7.05754Z" fill="#17627C"/>
<path d="M8.3916 14.9082C8.3916 13.8036 9.28703 12.9082 10.3916 12.9082H12.2646V15.4902H8.3916V14.9082Z" fill="#17627C"/>
<rect x="8.3916" y="15.4922" width="1.93651" height="1.93651" fill="#17627C"/>
<rect x="8.23926" y="7.11523" width="5.53287" height="2.15663" rx="1.07832" transform="rotate(31.8671 8.23926 7.11523)" fill="#17627C"/>
<rect y="0.646484" width="6.45503" height="2.58201" fill="#17627C"/>
<path d="M4.51855 1.9375H6.45506V4.19676C6.45506 4.73151 6.02156 5.16501 5.48681 5.16501C4.95206 5.16501 4.51855 4.73151 4.51855 4.19676V1.9375Z" fill="#17627C"/>
<rect x="5.02246" y="5.80859" width="0.645503" height="1.29101" rx="0.322751" transform="rotate(22.9907 5.02246 5.80859)" fill="#17627C"/>
<rect x="6.31348" y="5.80859" width="0.645503" height="1.29101" rx="0.322751" transform="rotate(22.9907 6.31348 5.80859)" fill="#17627C"/>
<rect x="5.02246" y="7.74609" width="0.645503" height="1.29101" rx="0.322751" transform="rotate(22.9907 5.02246 7.74609)" fill="#17627C"/>
<path d="M6.45503 10.3281H0V17.4287L5.80952 11.6191H6.45503V10.3281Z" fill="#17627C"/>
</svg>
