<svg width="122" height="134" viewBox="0 0 122 134" fill="none" xmlns="http://www.w3.org/2000/svg">
<path d="M112.385 68.4425C111.976 68.2537 111.252 67.9706 110.716 67.8448C110.181 67.6875 108.512 67.656 106.938 67.7189C105.364 67.7819 102.687 68.065 100.955 68.3481C99.2234 68.6312 96.3266 69.1975 94.5003 69.6064C92.674 70.0154 89.2733 71.022 86.9433 71.8085C84.6132 72.6264 80.8661 74.042 78.599 75.0172C76.3319 75.9609 72.0811 77.9428 69.1527 79.4213C66.2244 80.8684 61.9735 83.1019 55.676 86.5938L59.2656 86.9398C61.2493 87.1285 64.0517 87.6633 65.5316 88.1037C67.0116 88.5756 69.1212 89.4564 70.2548 90.1171C71.3569 90.7777 73.2146 92.2247 74.3482 93.3572C75.7022 94.7414 76.8357 96.2514 77.6859 97.9186C78.4101 99.3028 79.1658 101.002 79.3862 101.694C79.5751 102.386 79.7956 103.141 79.89 103.361C79.9845 103.613 80.7717 103.329 82.4405 102.449C83.7945 101.725 86.1875 100.309 87.7304 99.2399C89.2733 98.2018 91.8868 96.2828 93.5242 94.9616C95.1615 93.6404 97.9954 91.0922 99.8217 89.2677C101.679 87.4431 104.387 84.4861 105.867 82.6615C107.379 80.8369 109.646 77.817 110.937 75.898C112.228 73.9791 113.361 71.9658 113.487 71.431C113.613 70.8647 113.55 70.0468 113.393 69.6064C113.235 69.166 112.763 68.6627 112.385 68.4425Z" fill="#959595"/>
<path d="M39.6488 100.75C40.1526 99.2084 40.7193 97.667 40.8453 97.3209C41.0657 96.8176 41.0027 96.7862 40.4674 97.0693C40.1526 97.258 38.5152 98.5163 36.8779 99.9005C35.2405 101.285 32.4066 103.959 30.5488 105.815C28.7225 107.702 26.3295 110.376 25.2274 111.76C24.1254 113.144 22.2991 115.692 21.1655 117.423C20.032 119.153 18.741 121.26 18.3001 122.078C17.6074 123.368 17.5759 123.62 17.9853 123.871C18.2372 124.06 18.9614 124.343 19.5596 124.501C20.1579 124.689 21.6378 124.973 22.8658 125.13C24.2198 125.319 26.361 125.319 28.3762 125.13C30.2025 124.973 32.9734 124.564 34.5163 124.218C36.0592 123.903 38.7356 123.179 40.436 122.645C42.6086 121.953 43.4273 121.544 43.2699 121.292C43.1439 121.072 42.6086 120.317 42.0733 119.625C41.5695 118.933 40.7508 117.517 40.2785 116.479C39.8062 115.441 39.1765 113.679 38.8931 112.547C38.5152 111.005 38.4208 109.621 38.5152 107.041C38.6412 104.242 38.8616 103.015 39.6488 100.75Z" fill="#959595"/>
<path d="M45.8518 12.6674C44.4664 12.2584 42.6401 11.7551 41.7584 11.5978C40.8768 11.4405 38.2003 11.3147 35.7758 11.3776C32.4066 11.4405 30.7377 11.6293 26.0146 12.8876L25.2274 14.4919C24.8181 15.4042 22.976 16.8828 21.9999 17.858C21.0553 18.8332 19.3501 18.9176 18.4999 19.358C17.6182 19.7984 16.4445 20.5749 15.4999 20.858C14.5553 21.1411 13.3251 22.3564 12.0341 22.4823C9.70397 22.7339 9.70397 22.7339 8.12959 24.4641C7.27942 25.4079 5.95694 27.201 5.20123 28.3964C4.47702 29.6232 3.46942 31.6051 3.02859 32.8005C2.55628 34.0274 1.98949 35.9463 1.73759 37.1417C1.48569 38.3057 1.29677 40.665 1.29677 42.3952C1.29677 45.0377 1.4857 46.3275 2.55628 50.5114C3.24901 53.2168 4.88636 58.5646 6.14587 62.371C7.43686 66.1775 9.51505 71.777 10.7431 74.797C12.0026 77.8169 13.4195 81.4975 13.8918 82.976C14.3956 84.4546 14.9624 86.9398 15.1513 88.4812C15.4033 90.1485 15.4662 92.3505 15.3403 93.829C15.2143 95.2132 14.7735 97.4153 14.3327 98.705C13.8918 99.9948 12.9787 101.851 12.3175 102.795C11.6247 103.738 10.4912 105.689 9.79844 107.136C9.10571 108.551 8.19257 110.942 7.75174 112.484C7.31091 113.994 6.87008 116.196 6.74413 117.423C6.61818 118.964 6.71264 120.222 7.09049 121.669C7.37389 122.802 8.00364 124.501 8.47595 125.444C8.94827 126.388 10.1763 128.024 11.2154 129.093C12.2545 130.163 13.7974 131.358 14.679 131.799C15.5292 132.239 17.0406 132.837 17.9852 133.12C18.9299 133.403 20.7876 133.718 22.0786 133.812C23.779 133.938 25.5423 133.812 28.3762 133.34C30.5488 132.963 34.5792 132.145 37.3502 131.547C40.1211 130.918 44.8757 129.723 47.8985 128.842C50.9213 127.992 53.4718 127.206 53.5663 127.143C53.6608 127.08 52.6532 126.545 51.3622 125.979C50.0712 125.413 48.2764 124.469 47.4262 123.871C46.5446 123.305 45.3795 122.393 44.7812 121.858C44.2145 121.323 43.2069 120.191 42.5456 119.31C41.9159 118.461 41.1602 117.265 40.8768 116.73C40.5619 116.164 40.2785 115.755 40.1841 115.85C40.0896 115.944 40.373 116.668 40.7823 117.517C41.1917 118.335 41.9788 119.562 42.5141 120.254C43.0809 120.946 43.5217 121.544 43.4902 121.606C43.4902 121.638 42.1048 122.11 40.4045 122.645C38.7356 123.179 36.0592 123.903 34.5163 124.218C32.9734 124.564 30.2025 124.973 28.3762 125.13C26.361 125.319 24.2198 125.319 22.8658 125.13C21.6378 124.973 20.1579 124.689 19.5596 124.501C18.9614 124.343 18.2372 124.06 17.9853 123.871C17.5759 123.62 17.6074 123.368 18.3001 122.078C18.741 121.26 20.032 119.153 21.1655 117.423C22.2991 115.692 24.1254 113.144 25.2274 111.76C26.3295 110.376 28.7225 107.702 30.5488 105.846C32.4066 103.959 35.0201 101.473 36.4055 100.309C37.791 99.1455 39.4913 97.7613 40.1526 97.258C40.8453 96.7546 41.3176 96.5344 41.1917 96.7547C41.0657 96.9434 41.0657 97.1321 41.1917 97.1321C41.3491 97.1321 41.7269 96.6917 42.0733 96.1255C42.4197 95.5593 43.7107 94.0493 44.9702 92.8224C46.6705 91.1237 47.93 90.2114 49.8508 89.2362C51.2992 88.5441 53.2514 87.7891 54.1961 87.5689C55.1407 87.3487 55.8964 87.0341 55.8649 86.8768C55.8334 86.7195 57.5967 85.5871 59.8009 84.3287C62.005 83.1019 66.2244 80.8684 69.1527 79.4213C72.0811 77.9428 76.3319 75.9609 78.599 75.0172C80.8661 74.042 84.5187 72.6264 86.7858 71.8714C89.0529 71.0849 92.3591 70.1097 94.1854 69.6693C96.0117 69.2603 99.129 68.6312 101.113 68.3166C103.096 67.9706 106.151 67.7189 107.883 67.7189C110.244 67.7189 111.283 67.8762 112.039 68.2851C112.606 68.5683 113.235 69.166 113.393 69.6064C113.55 70.0468 113.613 70.8647 113.487 71.431C113.361 71.9658 112.228 73.9791 110.937 75.898C109.646 77.817 107.379 80.8369 105.867 82.6615C104.387 84.4861 101.679 87.4431 99.8217 89.2677C97.9954 91.0922 95.1615 93.6404 93.5242 94.9616C91.8868 96.2828 89.2733 98.2018 87.7304 99.2399C86.1875 100.309 83.7945 101.725 82.4405 102.449C80.7717 103.329 79.9845 103.613 79.89 103.361C79.7956 103.141 79.5122 102.26 79.2288 101.379C78.9454 100.53 78.3786 99.1769 77.9378 98.3905C77.4969 97.604 77.245 97.258 77.371 97.604C77.4969 97.9501 77.9693 99.2084 78.4101 100.435C79.1343 102.449 79.1973 103.078 79.2288 107.513C79.2288 110.187 79.1343 112.924 78.7565 114.749L80.7087 113.553C81.8108 112.861 84.3298 111.288 86.3135 109.967C88.2972 108.677 91.9183 106.129 94.3428 104.305C96.7674 102.48 100.514 99.4286 102.687 97.5411C104.86 95.6222 107.757 92.8853 109.111 91.4382C110.496 89.9912 112.354 87.8835 113.235 86.751C114.149 85.6185 115.597 83.6367 116.447 82.3469C117.329 81.0571 118.525 79.0123 119.155 77.7855C119.753 76.5586 120.509 74.6711 120.792 73.5386C121.107 72.4062 121.359 70.3614 121.359 68.9772C121.359 67.3729 121.139 65.8 120.761 64.5731C120.446 63.5035 119.564 61.8677 118.746 60.8296C117.959 59.7915 116.479 58.3759 115.44 57.6523C114.401 56.9288 112.7 56.0165 111.661 55.639C110.622 55.2301 108.701 54.6324 107.41 54.3178C106.119 53.9718 101.522 53.3741 97.1767 52.9336C92.8629 52.5247 88.8955 52.0528 88.3602 51.8955C87.8249 51.7382 86.8488 51.3293 86.1561 50.9832C85.4633 50.6057 83.8889 49.5676 82.6924 48.6239C81.4959 47.6802 79.4177 45.6354 78.1267 44.0939C76.8357 42.5525 74.852 39.8156 73.7184 38.054C72.5849 36.2609 69.9714 32.6432 67.9247 30.0322C65.8465 27.3897 62.8237 23.8979 61.1548 22.2621C59.486 20.5948 57.2189 18.5815 56.0853 17.795C54.9518 17.0086 52.7476 15.6873 51.2047 14.9009C49.6618 14.083 47.2373 13.0763 45.8518 12.6674Z" fill="#BCBFC4"/>
<path d="M28.3499 7.34014C32.5816 14.4621 25.6413 15.9288 18.5194 20.1605C11.3974 24.3922 6.79081 29.7864 2.5591 22.6645C-1.67262 15.5426 0.670364 6.33866 7.79229 2.10695C14.9142 -2.12476 24.1181 0.218216 28.3499 7.34014Z" fill="#959595"/>
<path d="M80.9997 108.358C80.9997 120.784 70.9261 130.858 58.4997 130.858C46.0733 130.858 35.9997 120.784 35.9997 108.358C33.9997 96.858 50.4997 87.358 58.4997 85.858C70.9261 85.858 80.9997 95.9316 80.9997 108.358Z" fill="#19657E"/>
</svg>
