<svg width="122" height="135" viewBox="0 0 122 135" fill="none" xmlns="http://www.w3.org/2000/svg">
<path d="M112.385 68.9977C111.976 68.8089 111.252 68.5258 110.717 68.3999C110.181 68.2427 108.512 68.2112 106.938 68.2741C105.364 68.337 102.687 68.6202 100.955 68.9033C99.2235 69.1864 96.3267 69.7526 94.5004 70.1616C92.6741 70.5705 89.2734 71.5772 86.9433 72.3637C84.6133 73.1816 80.8662 74.5972 78.5991 75.5724C76.332 76.5161 72.0812 78.498 69.1528 79.9765C66.2245 81.4236 61.9736 83.6571 55.6761 87.1489L59.2657 87.495C61.2494 87.6837 64.0518 88.2185 65.5317 88.6589C67.0117 89.1308 69.1213 90.0116 70.2549 90.6722C71.3569 91.3329 73.2147 92.7799 74.3483 93.9124C75.7022 95.2966 76.8358 96.8065 77.686 98.4738C78.4102 99.858 79.1659 101.557 79.3863 102.249C79.5752 102.941 79.7956 103.696 79.8901 103.916C79.9846 104.168 80.7718 103.885 82.4406 103.004C83.7946 102.28 86.1876 100.865 87.7305 99.7951C89.2734 98.7569 91.8869 96.838 93.5243 95.5168C95.1616 94.1955 97.9955 91.6474 99.8218 89.8229C101.68 87.9983 104.388 85.0412 105.867 83.2167C107.379 81.3921 109.646 78.3721 110.937 76.4532C112.228 74.5343 113.361 72.521 113.487 71.9862C113.613 71.4199 113.55 70.602 113.393 70.1616C113.236 69.7212 112.763 69.2179 112.385 68.9977Z" fill="#959595"/>
<path d="M39.6489 101.305C40.1527 99.7636 40.7194 98.2222 40.8454 97.8761C41.0658 97.3728 41.0028 97.3413 40.4675 97.6245C40.1527 97.8132 38.5153 99.0715 36.8779 100.456C35.2406 101.84 32.4067 104.514 30.5489 106.37C28.7226 108.257 26.3296 110.931 25.2275 112.315C24.1254 113.699 22.2992 116.248 21.1656 117.978C20.0321 119.708 18.741 121.816 18.3002 122.634C17.6075 123.923 17.576 124.175 17.9853 124.427C18.2372 124.615 18.9615 124.899 19.5597 125.056C20.158 125.245 21.6379 125.528 22.8659 125.685C24.2199 125.874 26.3611 125.874 28.3763 125.685C30.2026 125.528 32.9735 125.119 34.5164 124.773C36.0593 124.458 38.7357 123.735 40.4361 123.2C42.6087 122.508 43.4274 122.099 43.2699 121.847C43.144 121.627 42.6087 120.872 42.0734 120.18C41.5696 119.488 40.7509 118.072 40.2786 117.034C39.8063 115.996 39.1765 114.234 38.8932 113.102C38.5153 111.56 38.4208 110.176 38.5153 107.597C38.6413 104.797 38.8617 103.57 39.6489 101.305Z" fill="#959595"/>
<path d="M45.8519 13.2226C44.4665 12.8136 42.6402 12.3103 41.7585 12.153C40.8769 11.9957 38.2004 11.8699 35.7759 11.9328C32.4067 11.9957 30.7378 12.1844 26.0147 13.4428L25.2275 15.0471C24.8182 15.9594 22.9761 17.438 22 18.4132C21.0554 19.3884 19.3502 19.4728 18.5 19.9132C17.6183 20.3536 16.4446 21.1301 15.5 21.4132C14.5554 21.6963 13.3252 22.9116 12.0342 23.0375C9.70407 23.2891 9.70407 23.2891 8.12968 25.0193C7.27951 25.9631 5.95703 27.7562 5.20133 28.9516C4.47711 30.1784 3.46951 32.1603 3.02868 33.3557C2.55637 34.5826 1.98958 36.5015 1.73768 37.6969C1.48578 38.8608 1.29686 41.2202 1.29686 42.9504C1.29686 45.5929 1.48579 46.8826 2.55637 51.0666C3.2491 53.7719 4.88645 59.1198 6.14596 62.9262C7.43695 66.7326 9.51514 72.3322 10.7432 75.3521C12.0027 78.3721 13.4196 82.0527 13.8919 83.5312C14.3957 85.0098 14.9625 87.4949 15.1514 89.0364C15.4033 90.7036 15.4663 92.9057 15.3404 94.3842C15.2144 95.7684 14.7736 97.9704 14.3328 99.2602C13.8919 100.55 12.9788 102.406 12.3175 103.35C11.6248 104.294 10.4913 106.244 9.79853 107.691C9.10581 109.107 8.19266 111.497 7.75183 113.039C7.31101 114.549 6.87017 116.751 6.74422 117.978C6.61827 119.519 6.71273 120.778 7.09059 122.225C7.37398 123.357 8.00373 125.056 8.47605 126C8.94837 126.943 10.1764 128.579 11.2155 129.649C12.2546 130.718 13.7975 131.914 14.6791 132.354C15.5293 132.794 17.0407 133.392 17.9853 133.675C18.93 133.958 20.7877 134.273 22.0787 134.367C23.7791 134.493 25.5424 134.367 28.3763 133.896C30.5489 133.518 34.5793 132.7 37.3503 132.102C40.1212 131.473 44.8758 130.278 47.8986 129.397C50.9214 128.548 53.4719 127.761 53.5664 127.698C53.6609 127.635 52.6533 127.101 51.3623 126.534C50.0713 125.968 48.2765 125.024 47.4263 124.427C46.5446 123.86 45.3796 122.948 44.7813 122.413C44.2146 121.879 43.207 120.746 42.5457 119.865C41.916 119.016 41.1602 117.82 40.8769 117.286C40.562 116.719 40.2786 116.31 40.1841 116.405C40.0897 116.499 40.3731 117.223 40.7824 118.072C41.1917 118.89 41.9789 120.117 42.5142 120.809C43.081 121.501 43.5218 122.099 43.4903 122.162C43.4903 122.193 42.1049 122.665 40.4045 123.2C38.7357 123.735 36.0593 124.458 34.5164 124.773C32.9735 125.119 30.2026 125.528 28.3763 125.685C26.3611 125.874 24.2199 125.874 22.8659 125.685C21.6379 125.528 20.158 125.245 19.5597 125.056C18.9615 124.899 18.2372 124.615 17.9853 124.427C17.576 124.175 17.6075 123.923 18.3002 122.634C18.741 121.816 20.0321 119.708 21.1656 117.978C22.2992 116.248 24.1254 113.699 25.2275 112.315C26.3296 110.931 28.7226 108.257 30.5489 106.401C32.4067 104.514 35.0202 102.029 36.4056 100.865C37.7911 99.7006 39.4914 98.3165 40.1526 97.8131C40.8454 97.3098 41.3177 97.0896 41.1917 97.3098C41.0658 97.4986 41.0658 97.6873 41.1917 97.6873C41.3492 97.6873 41.727 97.2469 42.0734 96.6807C42.4198 96.1144 43.7108 94.6044 44.9703 93.3776C46.6706 91.6788 47.9301 90.7666 49.8509 89.7914C51.2993 89.0993 53.2515 88.3443 54.1962 88.1241C55.1408 87.9039 55.8965 87.5893 55.865 87.432C55.8335 87.2747 57.5968 86.1422 59.801 84.8839C62.0051 83.6571 66.2245 81.4236 69.1528 79.9765C72.0812 78.498 76.332 76.5161 78.5991 75.5724C80.8662 74.5972 84.5188 73.1815 86.7859 72.4265C89.053 71.6401 92.3592 70.6649 94.1855 70.2245C96.0118 69.8155 99.1291 69.1864 101.113 68.8718C103.097 68.5257 106.151 68.2741 107.883 68.2741C110.244 68.2741 111.283 68.4314 112.039 68.8403C112.606 69.1234 113.236 69.7212 113.393 70.1616C113.55 70.602 113.613 71.4199 113.487 71.9862C113.361 72.521 112.228 74.5343 110.937 76.4532C109.646 78.3721 107.379 81.3921 105.867 83.2167C104.388 85.0412 101.68 87.9983 99.8218 89.8229C97.9955 91.6474 95.1616 94.1955 93.5243 95.5168C91.8869 96.838 89.2734 98.7569 87.7305 99.7951C86.1876 100.865 83.7946 102.28 82.4406 103.004C80.7718 103.885 79.9846 104.168 79.8901 103.916C79.7956 103.696 79.5122 102.815 79.2289 101.934C78.9455 101.085 78.3787 99.7321 77.9379 98.9456C77.497 98.1592 77.2451 97.8131 77.3711 98.1592C77.497 98.5052 77.9693 99.7635 78.4102 100.99C79.1344 103.004 79.1974 103.633 79.2289 108.068C79.2289 110.742 79.1344 113.479 78.7565 115.304L80.7088 114.108C81.8108 113.416 84.3299 111.843 86.3136 110.522C88.2973 109.232 91.9184 106.684 94.3429 104.86C96.7675 103.035 100.515 99.9838 102.687 98.0963C104.86 96.1773 107.757 93.4405 109.111 91.9934C110.496 90.5464 112.354 88.4387 113.236 87.3062C114.149 86.1737 115.597 84.1918 116.447 82.9021C117.329 81.6123 118.525 79.5675 119.155 78.3406C119.754 77.1138 120.509 75.2263 120.793 74.0938C121.107 72.9613 121.359 70.9165 121.359 69.5324C121.359 67.928 121.139 66.3551 120.761 65.1283C120.446 64.0587 119.565 62.4229 118.746 61.3848C117.959 60.3467 116.479 58.9311 115.44 58.2075C114.401 57.484 112.7 56.5717 111.661 56.1942C110.622 55.7852 108.701 55.1875 107.41 54.873C106.119 54.5269 101.522 53.9292 97.1768 53.4888C92.863 53.0799 88.8956 52.608 88.3603 52.4507C87.825 52.2934 86.8489 51.8845 86.1561 51.5384C85.4634 51.1609 83.889 50.1228 82.6925 49.1791C81.496 48.2353 79.4178 46.1906 78.1268 44.6491C76.8358 43.1077 74.8521 40.3708 73.7185 38.6092C72.585 36.8161 69.9715 33.1984 67.9248 30.5874C65.8466 27.9449 62.8238 24.4531 61.1549 22.8172C59.4861 21.15 57.219 19.1367 56.0854 18.3502C54.9519 17.5638 52.7477 16.2425 51.2048 15.4561C49.6619 14.6382 47.2374 13.6315 45.8519 13.2226Z" fill="#BCBFC4"/>
<path d="M28.3499 7.89531C32.5817 15.0172 25.6414 16.4839 18.5195 20.7156C11.3975 24.9474 6.7909 30.3416 2.55919 23.2197C-1.67252 16.0978 0.670456 6.89383 7.79238 2.66212C14.9143 -1.56959 24.1182 0.773392 28.3499 7.89531Z" fill="#959595"/>
</svg>
