<svg width="48" height="56" viewBox="0 0 48 56" fill="none" xmlns="http://www.w3.org/2000/svg">
<path d="M22.2155 0.0963855C16.0858 0.96073 11.3664 5.56128 10.3053 11.7232C10.04 13.2707 10.2075 16.0728 10.6683 17.5785C11.3804 19.9903 12.5952 21.9978 14.3963 23.7404C21.2241 30.3485 32.4223 28.3131 36.4994 19.7114C37.5326 17.5506 37.7281 16.5886 37.7421 13.898C37.7561 11.9045 37.7142 11.4444 37.4349 10.4128C36.3179 6.34197 33.6231 3.12159 29.7973 1.26743C27.7308 0.277619 24.4914 -0.224259 22.2155 0.0963855Z" fill="#3E717E"/>
<path d="M12.3997 27.8112C8.79728 29.8466 6.38172 32.1329 4.38505 35.4091C3.03066 37.6396 2.59781 38.9083 0.824539 45.7533C0.0286613 48.8482 -0.0411526 49.1968 0.0146985 50.2842C0.0565868 51.26 0.154326 51.6504 0.517358 52.4171C1.00605 53.4767 2.05326 54.6059 3.07254 55.2053C4.4409 56.0139 4.00805 56 23.9469 56C36.5971 56 42.5034 55.9582 43.0759 55.8466C45.0027 55.4981 46.5666 54.2992 47.4183 52.5287C47.8651 51.6225 47.9349 51.3019 47.9908 50.2842C48.0327 49.1689 47.9768 48.8482 46.8458 44.4986C45.4635 39.2289 45.296 38.7131 44.3884 36.8868C42.4196 32.9276 39.4874 29.9023 35.5499 27.7972C35.0333 27.5045 34.5446 27.2814 34.4608 27.2814C34.3771 27.2814 33.8884 27.5602 33.3717 27.8948C29.6577 30.3485 24.9522 31.2686 20.6796 30.4042C18.5293 29.9721 15.5553 28.6755 14.1729 27.5881C13.6424 27.1838 13.4888 27.1978 12.3997 27.8112Z" fill="#3E717E"/>
</svg>
