<svg width="19" height="18" viewBox="0 0 19 18" fill="none" xmlns="http://www.w3.org/2000/svg">
<path d="M8.26207 8.49555C8.80989 8.49548 9.35225 8.60441 9.85757 8.81599C10.3629 9.02757 10.821 9.33758 11.2054 9.72796C11.5897 10.1183 11.8926 10.5813 12.0962 11.0898C12.2999 11.5984 12.4004 12.1424 12.3918 12.6901C12.3904 12.7808 12.4099 12.8706 12.4489 12.9525C12.4878 13.0344 12.5451 13.1063 12.6164 13.1624C12.6876 13.2186 12.7708 13.2576 12.8596 13.2763C12.9483 13.2951 13.0402 13.2932 13.128 13.2707C13.3897 13.2036 13.6631 13.1972 13.9276 13.252C14.1921 13.3067 14.4405 13.4212 14.6541 13.5865C14.8676 13.7519 15.0405 13.9639 15.1596 14.2062C15.2788 14.4486 15.341 14.715 15.3415 14.9851C15.3415 15.4545 15.1551 15.9046 14.8232 16.2366C14.4912 16.5685 14.0411 16.7549 13.5717 16.7549H3.54241C3.22868 16.7532 2.91844 16.6888 2.62986 16.5658C2.34128 16.4427 2.08014 16.2632 1.86171 16.038C1.64329 15.8128 1.47197 15.5463 1.35778 15.2541C1.24359 14.9618 1.18881 14.6498 1.19665 14.3361C1.2045 14.0225 1.27481 13.7136 1.40347 13.4274C1.53213 13.1413 1.71656 12.8837 1.94597 12.6696C2.17537 12.4556 2.44516 12.2895 2.73954 12.181C3.03391 12.0725 3.34697 12.0237 3.66041 12.0376C3.79636 12.0446 3.93055 12.0044 4.04022 11.9238C4.1499 11.8431 4.22831 11.727 4.26216 11.5952C4.49102 10.7083 5.0081 9.92251 5.73213 9.36145C6.45616 8.80038 7.34609 8.49579 8.26207 8.49555ZM13.5398 12.0353C13.4071 10.839 12.8718 9.72335 12.0218 8.87119C11.1718 8.01903 10.0575 7.48096 8.86156 7.34518C7.66564 7.2094 6.45906 7.48398 5.43966 8.1239C4.42026 8.76382 3.64852 9.73111 3.25098 10.8672C2.34001 10.9417 1.4932 11.3658 0.887804 12.0505C0.282405 12.7353 -0.0346491 13.6277 0.0030084 14.541C0.0406659 15.4542 0.430116 16.3175 1.08984 16.9501C1.74956 17.5827 2.62841 17.9355 3.54241 17.9348H13.5717C14.354 17.9348 15.1043 17.6241 15.6575 17.0709C16.2107 16.5177 16.5215 15.7674 16.5215 14.9851C16.5215 14.2027 16.2107 13.4524 15.6575 12.8993C15.1043 12.3461 14.354 12.0353 13.5717 12.0353H13.5398Z" fill="#121212"/>
<path d="M12.3923 0.826285C12.3923 0.669818 12.3302 0.519761 12.2195 0.409122C12.1089 0.298484 11.9588 0.236328 11.8023 0.236328C11.6459 0.236328 11.4958 0.298484 11.3852 0.409122C11.2745 0.519761 11.2124 0.669818 11.2124 0.826285V2.0062C11.2124 2.16266 11.2745 2.31272 11.3852 2.42336C11.4958 2.534 11.6459 2.59615 11.8023 2.59615C11.9588 2.59615 12.1089 2.534 12.2195 2.42336C12.3302 2.31272 12.3923 2.16266 12.3923 2.0062V0.826285ZM16.8087 3.14363C16.8651 3.08921 16.91 3.02411 16.9409 2.95214C16.9718 2.88016 16.9881 2.80275 16.9888 2.72441C16.9895 2.64608 16.9746 2.56839 16.9449 2.49589C16.9152 2.42339 16.8714 2.35752 16.816 2.30212C16.7606 2.24673 16.6948 2.20292 16.6223 2.17326C16.5498 2.1436 16.4721 2.12867 16.3937 2.12935C16.3154 2.13003 16.238 2.14631 16.166 2.17722C16.094 2.20814 16.0289 2.25309 15.9745 2.30944L15.1391 3.14363C15.0284 3.25441 14.9661 3.40466 14.9661 3.56132C14.9661 3.71799 15.0284 3.86823 15.1391 3.97901C15.2499 4.08979 15.4002 4.15202 15.5568 4.15202C15.7135 4.15202 15.8637 4.08979 15.9745 3.97901L16.8087 3.14363ZM7.63018 2.30944C7.51891 2.20197 7.36989 2.14251 7.2152 2.14385C7.06052 2.14519 6.91255 2.20724 6.80317 2.31662C6.69378 2.426 6.63174 2.57397 6.63039 2.72866C6.62905 2.88334 6.68851 3.03237 6.79598 3.14363L7.63018 3.97901C7.68503 4.03386 7.75015 4.07737 7.82181 4.10706C7.89348 4.13675 7.97029 4.15202 8.04787 4.15202C8.12544 4.15202 8.20225 4.13675 8.27392 4.10706C8.34559 4.07737 8.4107 4.03386 8.46556 3.97901C8.52041 3.92416 8.56392 3.85904 8.5936 3.78737C8.62329 3.71571 8.63857 3.63889 8.63857 3.56132C8.63857 3.48375 8.62329 3.40694 8.5936 3.33527C8.56392 3.2636 8.52041 3.19849 8.46556 3.14363L7.63018 2.30944ZM9.67615 6.29046C9.82279 5.98656 10.0329 5.71765 10.2923 5.50185C10.5517 5.28606 10.8544 5.12841 11.1799 5.03954C11.5054 4.95066 11.8462 4.93263 12.1793 4.98666C12.5124 5.04068 12.83 5.16551 13.1107 5.35273C13.3915 5.53994 13.6288 5.78518 13.8067 6.07191C13.9846 6.35863 14.0989 6.68018 14.142 7.01485C14.1851 7.34952 14.1559 7.68954 14.0563 8.01196C13.9568 8.33439 13.7893 8.63172 13.5651 8.88391C13.7999 9.21547 14.0041 9.57062 14.174 9.94347C14.5738 9.58218 14.8859 9.13436 15.0865 8.63415C15.287 8.13393 15.3707 7.59454 15.3311 7.05709C15.2915 6.51963 15.1297 5.99831 14.8581 5.53286C14.5865 5.06741 14.2122 4.67013 13.7637 4.37131C13.3152 4.07248 12.8044 3.88 12.2703 3.80854C11.7361 3.73708 11.1927 3.78852 10.6815 3.95895C10.1702 4.12937 9.70463 4.41429 9.3202 4.79196C8.93578 5.16964 8.64266 5.6301 8.4632 6.13825C8.87853 6.15123 9.28442 6.20315 9.67615 6.29046ZM14.9669 11.0974C15.6748 11.3511 16.2943 11.7936 16.7627 12.3623C16.8269 12.3103 16.8795 12.2453 16.9171 12.1717C16.9546 12.098 16.9762 12.0173 16.9806 11.9348C16.9849 11.8522 16.9718 11.7697 16.9422 11.6925C16.9126 11.6154 16.8671 11.5453 16.8087 11.4868L15.9745 10.6526C15.8904 10.568 15.7826 10.5109 15.6654 10.4888C15.5482 10.4667 15.427 10.4806 15.3179 10.5288C15.2087 10.577 15.1168 10.6571 15.0541 10.7586C14.9914 10.8602 14.961 10.9783 14.9669 11.0974ZM17.112 6.72585C16.9555 6.72585 16.8054 6.78801 16.6948 6.89864C16.5842 7.00928 16.522 7.15934 16.522 7.31581C16.522 7.47227 16.5842 7.62233 16.6948 7.73297C16.8054 7.84361 16.9555 7.90576 17.112 7.90576H18.2919C18.4483 7.90576 18.5984 7.84361 18.709 7.73297C18.8197 7.62233 18.8818 7.47227 18.8818 7.31581C18.8818 7.15934 18.8197 7.00928 18.709 6.89864C18.5984 6.78801 18.4483 6.72585 18.2919 6.72585H17.112Z" fill="#121212"/>
</svg>
