<svg width="19" height="19" viewBox="0 0 19 19" fill="none" xmlns="http://www.w3.org/2000/svg">
<path d="M9.5 14.25C8.24022 14.25 7.03204 13.7496 6.14124 12.8588C5.25044 11.968 4.75 10.7598 4.75 9.5C4.75 8.24022 5.25044 7.03204 6.14124 6.14124C7.03204 5.25044 8.24022 4.75 9.5 4.75C10.7598 4.75 11.968 5.25044 12.8588 6.14124C13.7496 7.03204 14.25 8.24022 14.25 9.5C14.25 10.7598 13.7496 11.968 12.8588 12.8588C11.968 13.7496 10.7598 14.25 9.5 14.25ZM9.5 12.4688C10.2874 12.4688 11.0425 12.156 11.5992 11.5992C12.156 11.0425 12.4688 10.2874 12.4688 9.5C12.4688 8.71264 12.156 7.95753 11.5992 7.40078C11.0425 6.84403 10.2874 6.53125 9.5 6.53125C8.71264 6.53125 7.95753 6.84403 7.40078 7.40078C6.84403 7.95753 6.53125 8.71264 6.53125 9.5C6.53125 10.2874 6.84403 11.0425 7.40078 11.5992C7.95753 12.156 8.71264 12.4688 9.5 12.4688ZM16.2177 2.78231C16.3004 2.86502 16.3661 2.96323 16.4109 3.07132C16.4557 3.17941 16.4787 3.29527 16.4787 3.41228C16.4787 3.52929 16.4557 3.64515 16.4109 3.75324C16.3661 3.86133 16.3004 3.95954 16.2177 4.04225L14.9577 5.301C14.8489 5.41824 14.7104 5.50394 14.5569 5.54908C14.4035 5.59422 14.2406 5.59713 14.0856 5.5575C13.9306 5.51787 13.7892 5.43717 13.6762 5.32389C13.5633 5.21062 13.4829 5.06897 13.4437 4.91388C13.404 4.75905 13.4068 4.5964 13.4517 4.44302C13.4966 4.28964 13.5821 4.15119 13.699 4.04225L14.9577 2.7835C15.1247 2.61672 15.3511 2.52303 15.5871 2.52303C15.8231 2.52303 16.0495 2.61672 16.2165 2.7835L16.2177 2.78231ZM5.301 13.699C5.46779 13.866 5.56147 14.0924 5.56147 14.3284C5.56147 14.5644 5.46779 14.7908 5.301 14.9577L4.04225 16.2177C3.96013 16.3028 3.86189 16.3707 3.75325 16.4174C3.64461 16.4641 3.52776 16.4888 3.4095 16.4898C3.29125 16.4909 3.17396 16.4684 3.06448 16.4237C2.95501 16.379 2.85554 16.3129 2.77188 16.2293C2.68821 16.1457 2.62204 16.0463 2.5772 15.9369C2.53237 15.8275 2.50978 15.7102 2.51075 15.5919C2.51172 15.4737 2.53624 15.3568 2.58286 15.2481C2.62949 15.1394 2.69729 15.0411 2.78231 14.9589L4.04106 13.699C4.12377 13.6162 4.22198 13.5506 4.33007 13.5058C4.43816 13.461 4.55402 13.4379 4.67103 13.4379C4.78804 13.4379 4.9039 13.461 5.01199 13.5058C5.12008 13.5506 5.21829 13.6162 5.301 13.699ZM9.5 0C9.73621 0 9.96274 0.0938334 10.1298 0.260858C10.2968 0.427883 10.3906 0.654417 10.3906 0.890625V2.67188C10.3906 2.90808 10.2968 3.13462 10.1298 3.30164C9.96274 3.46867 9.73621 3.5625 9.5 3.5625C9.26379 3.5625 9.03726 3.46867 8.87023 3.30164C8.70321 3.13462 8.60938 2.90808 8.60938 2.67188V0.890625C8.60938 0.654417 8.70321 0.427883 8.87023 0.260858C9.03726 0.0938334 9.26379 0 9.5 0ZM3.5625 9.5C3.5625 9.73621 3.46867 9.96274 3.30164 10.1298C3.13462 10.2968 2.90808 10.3906 2.67188 10.3906H0.890625C0.654417 10.3906 0.427883 10.2968 0.260858 10.1298C0.0938334 9.96274 0 9.73621 0 9.5C0 9.26379 0.0938334 9.03726 0.260858 8.87023C0.427883 8.70321 0.654417 8.60938 0.890625 8.60938H2.67188C2.90808 8.60938 3.13462 8.70321 3.30164 8.87023C3.46867 9.03726 3.5625 9.26379 3.5625 9.5ZM19 9.5C19 9.73621 18.9062 9.96274 18.7391 10.1298C18.5721 10.2968 18.3456 10.3906 18.1094 10.3906H16.3281C16.0919 10.3906 15.8654 10.2968 15.6984 10.1298C15.5313 9.96274 15.4375 9.73621 15.4375 9.5C15.4375 9.26379 15.5313 9.03726 15.6984 8.87023C15.8654 8.70321 16.0919 8.60938 16.3281 8.60938H18.1094C18.3456 8.60938 18.5721 8.70321 18.7391 8.87023C18.9062 9.03726 19 9.26379 19 9.5ZM9.5 15.4375C9.73621 15.4375 9.96274 15.5313 10.1298 15.6984C10.2968 15.8654 10.3906 16.0919 10.3906 16.3281V18.1094C10.3906 18.3456 10.2968 18.5721 10.1298 18.7391C9.96274 18.9062 9.73621 19 9.5 19C9.26379 19 9.03726 18.9062 8.87023 18.7391C8.70321 18.5721 8.60938 18.3456 8.60938 18.1094V16.3281C8.60938 16.0919 8.70321 15.8654 8.87023 15.6984C9.03726 15.5313 9.26379 15.4375 9.5 15.4375ZM13.699 13.699C13.866 13.5322 14.0924 13.4385 14.3284 13.4385C14.5644 13.4385 14.7908 13.5322 14.9577 13.699L16.2177 14.9577C16.38 15.1256 16.4699 15.3506 16.468 15.5841C16.466 15.8176 16.3725 16.041 16.2074 16.2063C16.0424 16.3715 15.819 16.4652 15.5855 16.4674C15.352 16.4695 15.127 16.3798 14.9589 16.2177L13.699 14.9589C13.6162 14.8762 13.5506 14.778 13.5058 14.6699C13.461 14.5618 13.4379 14.446 13.4379 14.329C13.4379 14.212 13.461 14.0961 13.5058 13.988C13.5506 13.8799 13.6162 13.7817 13.699 13.699ZM2.78231 2.78231C2.86502 2.69955 2.96323 2.6339 3.07132 2.5891C3.17941 2.54431 3.29527 2.52125 3.41228 2.52125C3.52929 2.52125 3.64515 2.54431 3.75324 2.5891C3.86133 2.6339 3.95954 2.69955 4.04225 2.78231L5.301 4.04225C5.45824 4.21119 5.54386 4.4345 5.53987 4.66525C5.53589 4.896 5.4426 5.11622 5.27962 5.27962C5.11622 5.4426 4.896 5.53589 4.66525 5.53987C4.4345 5.54386 4.21119 5.45824 4.04225 5.301L2.7835 4.04225C2.61672 3.87526 2.52303 3.64889 2.52303 3.41288C2.52303 3.17686 2.61672 2.95049 2.7835 2.7835L2.78231 2.78231Z" fill="#121212"/>
</svg>
