<svg width="20" height="15" viewBox="0 0 20 15" fill="none" xmlns="http://www.w3.org/2000/svg">
<path d="M1 10H5C5 8.67392 5.52678 7.40215 6.46447 6.46447C7.40215 5.52678 8.67392 5 10 5C11.3261 5 12.5979 5.52678 13.5355 6.46447C14.4732 7.40215 15 8.67392 15 10H19C19.2652 10 19.5196 10.1054 19.7071 10.2929C19.8946 10.4804 20 10.7348 20 11C20 11.2652 19.8946 11.5196 19.7071 11.7071C19.5196 11.8946 19.2652 12 19 12H1C0.734784 12 0.48043 11.8946 0.292893 11.7071C0.105357 11.5196 0 11.2652 0 11C0 10.7348 0.105357 10.4804 0.292893 10.2929C0.48043 10.1054 0.734784 10 1 10ZM13 10C13 9.20435 12.6839 8.44129 12.1213 7.87868C11.5587 7.31607 10.7956 7 10 7C9.20435 7 8.44129 7.31607 7.87868 7.87868C7.31607 8.44129 7 9.20435 7 10H13ZM10 0L12.39 3.42C11.65 3.15 10.84 3 10 3C9.16 3 8.35 3.15 7.61 3.42L10 0ZM1.34 5L5.5 4.65C4.87935 5.17424 4.3519 5.79974 3.94 6.5C3.5 7.24 3.25 8 3.11 8.79L1.34 5ZM18.65 5L16.88 8.79C16.5968 7.17076 15.7546 5.70217 14.5 4.64L18.65 5Z" fill="#121212"/>
<rect y="13" width="20" height="2" rx="1" fill="#121212"/>
</svg>
