<svg width="15" height="14" viewBox="0 0 15 14" fill="none" xmlns="http://www.w3.org/2000/svg">
<path d="M13.843 8.36759C13.7727 8.29715 13.6846 8.24718 13.588 8.22304C13.4915 8.19891 13.3902 8.20152 13.295 8.23059C12.2501 8.54648 11.139 8.57297 10.0802 8.30723C9.02145 8.04148 8.05459 7.49346 7.2827 6.72157C6.5108 5.94967 5.96278 4.98281 5.69704 3.92403C5.43129 2.86524 5.45778 1.75419 5.77367 0.709268C5.80299 0.614054 5.8058 0.512649 5.78179 0.415959C5.75779 0.319269 5.70788 0.230952 5.63743 0.160506C5.56699 0.0900602 5.47867 0.0401509 5.38198 0.0161459C5.28529 -0.00785916 5.18388 -0.00505175 5.08867 0.0242661C3.64402 0.466808 2.37575 1.35371 1.46432 2.55877C0.667265 3.617 0.181078 4.87653 0.0603881 6.19584C-0.0603022 7.51516 0.189285 8.84199 0.781109 10.0273C1.37293 11.2126 2.28355 12.2093 3.41064 12.9056C4.53774 13.6019 5.83666 13.9701 7.16149 13.9689C8.70709 13.9736 10.2116 13.4712 11.4441 12.5386C12.6492 11.6271 13.5361 10.3589 13.9786 8.91422C14.0076 8.81936 14.0103 8.71842 13.9864 8.62215C13.9625 8.52588 13.913 8.4379 13.843 8.36759ZM10.7851 11.6631C9.62444 12.5374 8.187 12.9629 6.73744 12.8614C5.28787 12.7599 3.92376 12.1382 2.89621 11.1107C1.86866 10.0833 1.24685 8.71922 1.14523 7.26966C1.04361 5.82011 1.46904 4.38263 2.34318 3.22186C2.9127 2.46977 3.64898 1.8601 4.49409 1.44085C4.44595 1.77871 4.42168 2.11955 4.42148 2.46082C4.42347 4.34961 5.17468 6.16048 6.51026 7.49606C7.84584 8.83164 9.6567 9.58285 11.5455 9.58484C11.8875 9.58473 12.229 9.56047 12.5675 9.51223C12.1479 10.3575 11.5377 11.0938 10.7851 11.6631Z" fill="#121212"/>
</svg>
