<svg width="18" height="16" viewBox="0 0 18 16" fill="none" xmlns="http://www.w3.org/2000/svg">
<path d="M14.094 4.74667C14.3301 4.74569 14.5564 4.65311 14.724 4.48889L15.363 3.85778C15.4572 3.77809 15.5337 3.68003 15.5878 3.56975C15.6418 3.45947 15.6721 3.33935 15.6769 3.21694C15.6817 3.09452 15.6608 2.97245 15.6156 2.85838C15.5703 2.74431 15.5017 2.64072 15.414 2.55409C15.3263 2.46746 15.2214 2.39968 15.1059 2.35499C14.9904 2.3103 14.8668 2.28967 14.7429 2.2944C14.6189 2.29913 14.4973 2.32911 14.3856 2.38247C14.274 2.43582 14.1747 2.51139 14.094 2.60444L13.5 3.23556C13.3324 3.4021 13.2383 3.62739 13.2383 3.86222C13.2383 4.09705 13.3324 4.32234 13.5 4.48889C13.6587 4.64477 13.8704 4.73667 14.094 4.74667ZM9 2.66667C9.23869 2.66667 9.46761 2.57302 9.6364 2.40632C9.80518 2.23962 9.9 2.01353 9.9 1.77778V0.888889C9.9 0.653141 9.80518 0.427048 9.6364 0.260349C9.46761 0.0936505 9.23869 0 9 0C8.7613 0 8.53239 0.0936505 8.3636 0.260349C8.19482 0.427048 8.1 0.653141 8.1 0.888889V1.77778C8.1 2.01353 8.19482 2.23962 8.3636 2.40632C8.53239 2.57302 8.7613 2.66667 9 2.66667ZM1.8 8H0.9C0.661305 8 0.432387 8.09365 0.263604 8.26035C0.0948211 8.42705 0 8.65314 0 8.88889C0 9.12464 0.0948211 9.35073 0.263604 9.51743C0.432387 9.68413 0.661305 9.77778 0.9 9.77778H1.8C2.03869 9.77778 2.26761 9.68413 2.4364 9.51743C2.60518 9.35073 2.7 9.12464 2.7 8.88889C2.7 8.65314 2.60518 8.42705 2.4364 8.26035C2.26761 8.09365 2.03869 8 1.8 8ZM3.276 4.48889C3.44363 4.65311 3.66989 4.74569 3.906 4.74667C4.02445 4.74734 4.14186 4.72492 4.25152 4.68069C4.36117 4.63645 4.4609 4.57127 4.545 4.48889C4.71263 4.32234 4.80671 4.09705 4.80671 3.86222C4.80671 3.62739 4.71263 3.4021 4.545 3.23556L3.906 2.60444C3.73383 2.45882 3.51236 2.38273 3.28585 2.39137C3.05934 2.40001 2.84448 2.49275 2.68419 2.65105C2.52391 2.80936 2.43001 3.02157 2.42126 3.24529C2.41251 3.469 2.48956 3.68773 2.637 3.85778L3.276 4.48889ZM17.1 8H16.2C15.9613 8 15.7324 8.09365 15.5636 8.26035C15.3948 8.42705 15.3 8.65314 15.3 8.88889C15.3 9.12464 15.3948 9.35073 15.5636 9.51743C15.7324 9.68413 15.9613 9.77778 16.2 9.77778H17.1C17.3387 9.77778 17.5676 9.68413 17.7364 9.51743C17.9052 9.35073 18 9.12464 18 8.88889C18 8.65314 17.9052 8.42705 17.7364 8.26035C17.5676 8.09365 17.3387 8 17.1 8ZM8.1 14.2222H5.4C5.1613 14.2222 4.93239 14.3159 4.7636 14.4826C4.59482 14.6493 4.5 14.8754 4.5 15.1111C4.5 15.3469 4.59482 15.573 4.7636 15.7397C4.93239 15.9064 5.1613 16 5.4 16H8.1C8.33869 16 8.56761 15.9064 8.7364 15.7397C8.90518 15.573 9 15.3469 9 15.1111C9 14.8754 8.90518 14.6493 8.7364 14.4826C8.56761 14.3159 8.33869 14.2222 8.1 14.2222ZM14.4 10.6667H13.608C13.8353 10.1009 13.9514 9.49756 13.95 8.88889C13.95 7.59228 13.4285 6.34877 12.5002 5.43192C11.5719 4.51508 10.3128 4 9 4C7.68718 4 6.42813 4.51508 5.49982 5.43192C4.57152 6.34877 4.05 7.59228 4.05 8.88889C4.04863 9.49756 4.1647 10.1009 4.392 10.6667H3.6C3.3613 10.6667 3.13239 10.7603 2.9636 10.927C2.79482 11.0937 2.7 11.3198 2.7 11.5556C2.7 11.7913 2.79482 12.0174 2.9636 12.1841C3.13239 12.3508 3.3613 12.4444 3.6 12.4444H14.4C14.6387 12.4444 14.8676 12.3508 15.0364 12.1841C15.2052 12.0174 15.3 11.7913 15.3 11.5556C15.3 11.3198 15.2052 11.0937 15.0364 10.927C14.8676 10.7603 14.6387 10.6667 14.4 10.6667ZM11.565 10.6667H6.435C6.05689 10.1489 5.85232 9.52726 5.85 8.88889C5.85 8.06377 6.18187 7.27245 6.77261 6.689C7.36335 6.10556 8.16457 5.77778 9 5.77778C9.83543 5.77778 10.6366 6.10556 11.2274 6.689C11.8181 7.27245 12.15 8.06377 12.15 8.88889C12.1477 9.52726 11.9431 10.1489 11.565 10.6667ZM12.6 14.2222H11.7C11.4613 14.2222 11.2324 14.3159 11.0636 14.4826C10.8948 14.6493 10.8 14.8754 10.8 15.1111C10.8 15.3469 10.8948 15.573 11.0636 15.7397C11.2324 15.9064 11.4613 16 11.7 16H12.6C12.8387 16 13.0676 15.9064 13.2364 15.7397C13.4052 15.573 13.5 15.3469 13.5 15.1111C13.5 14.8754 13.4052 14.6493 13.2364 14.4826C13.0676 14.3159 12.8387 14.2222 12.6 14.2222Z" fill="#121212"/>
</svg>
