<svg width="26" height="26" viewBox="0 0 26 26" fill="none" xmlns="http://www.w3.org/2000/svg">
<path fill-rule="evenodd" clip-rule="evenodd" d="M0.140833 6.41622C1.05517 6.12589 1.77956 5.95833 2.52778 5.95833C3.27383 5.95833 3.99606 6.12444 4.90533 6.41333C4.26256 3.47678 2.52778 0 2.52778 0C2.52778 0 0.741722 3.60822 0.140833 6.41622ZM5.05556 7.98344L4.82733 7.90761C3.75411 7.54939 3.12578 7.40206 2.52778 7.40206C1.92978 7.40206 1.30072 7.54939 0.228222 7.90761L0 7.98344V26H5.05556V7.98344ZM7.94444 15.8889V18.7778H6.5H9.38889V18.0556C9.38889 17.864 9.46498 17.6803 9.60042 17.5449C9.73586 17.4094 9.91957 17.3333 10.1111 17.3333C10.3027 17.3333 10.4864 17.4094 10.6218 17.5449C10.7572 17.6803 10.8333 17.864 10.8333 18.0556V18.7778H12.2778V18.0556C12.2778 17.864 12.3539 17.6803 12.4893 17.5449C12.6248 17.4094 12.8085 17.3333 13 17.3333C13.1915 17.3333 13.3752 17.4094 13.5107 17.5449C13.6461 17.6803 13.7222 17.864 13.7222 18.0556V18.7778H15.1667V18.0556C15.1667 17.864 15.2428 17.6803 15.3782 17.5449C15.5136 17.4094 15.6973 17.3333 15.8889 17.3333C16.0804 17.3333 16.2641 17.4094 16.3996 17.5449C16.535 17.6803 16.6111 17.864 16.6111 18.0556V18.7778H19.5H18.0556V15.8889H7.94444ZM18.9273 14.4444H7.07272C6.70439 13.6096 6.5 12.6418 6.5 11.5556C6.5 8.83639 8.79306 6.86183 10.7149 5.20794C11.2941 4.70961 11.8394 4.24017 12.2778 3.78806V1.44444H13.7222V3.78806C14.1606 4.24017 14.7059 4.70961 15.2851 5.20794C17.2062 6.86183 19.5 8.83639 19.5 11.5556C19.5 12.6418 19.2949 13.6096 18.9273 14.4444ZM20.9444 26H26V7.94444C25.9224 7.94453 25.8454 7.93209 25.7718 7.90761C24.6993 7.54939 24.0702 7.40206 23.4722 7.40206C22.8742 7.40206 22.2452 7.54939 21.1727 7.90761L20.9444 7.98344V26ZM21.0853 6.41622C21.9996 6.12589 22.724 5.95833 23.4722 5.95833C24.2176 5.95833 24.9405 6.12444 25.8498 6.41333C25.207 3.47678 23.4722 0 23.4722 0C23.4722 0 21.6862 3.60822 21.0853 6.41622ZM19.5 26V20.2222H6.5V26H9.38889V25.1911C9.38896 24.6415 9.54583 24.1032 9.84109 23.6396C10.1363 23.176 10.5577 22.8063 11.0558 22.5738L13 21.6667L14.9442 22.5738C15.4424 22.8063 15.8638 23.1762 16.1591 23.6399C16.4544 24.1037 16.6112 24.6421 16.6111 25.1918V26H19.5Z" fill="#213787"/>
</svg>
