<svg width="28" height="34" viewBox="0 0 28 34" fill="none" xmlns="http://www.w3.org/2000/svg">
<path d="M13.4626 0.0840073C9.66532 0.715157 6.41975 3.17996 4.67363 6.75426C3.89469 8.35539 3.60259 9.67748 3.60259 11.6573V12.8731L2.04471 14.9127C1.03209 16.2414 0.39596 17.1317 0.240173 17.4572C0 17.9489 0 17.9555 0 18.786C0 19.6098 0 19.6231 0.240173 20.1147C0.629642 20.9385 1.22034 21.4302 2.38225 21.9019C2.70681 22.0347 2.75874 22.0812 2.84312 22.3271C3.33645 23.7687 4.27118 26.393 4.38802 26.6587C4.771 27.5423 5.61484 28.499 6.44571 29.004C7.39991 29.5687 8.14639 29.748 9.58743 29.748H10.5806L10.996 31.4555C11.4699 33.4286 11.5607 33.6811 11.8593 33.8671C12.0735 34 12.1644 34 18.6621 34C25.0753 34 25.2571 33.9934 25.4583 33.8671C25.5751 33.8007 25.7114 33.6678 25.7699 33.5748C26.023 33.1828 26.0035 33.0832 24.9325 29.2498L23.9134 25.609L25.5167 21.9151C26.3995 19.8822 27.2109 17.9954 27.3148 17.723C27.7497 16.5936 27.9444 15.5704 27.9898 14.1686C28.1002 10.9331 27.3083 7.85711 25.7828 5.53183C23.9978 2.8212 21.0248 0.947685 17.2665 0.177017C16.3512 -0.0090065 14.3195 -0.0621529 13.4626 0.0840073ZM16.7277 2.17012C20.6224 2.85442 23.5953 5.09334 24.9844 8.38861C25.3155 9.16592 25.64 10.3286 25.8088 11.3118C26.0035 12.4811 26.0295 14.6735 25.8478 15.5306C25.653 16.4607 25.4713 16.9191 23.6473 21.1113C22.6866 23.3236 21.8882 25.2503 21.8687 25.4031C21.8362 25.6223 21.9855 26.2468 22.6866 28.7581C23.1604 30.4523 23.5629 31.8807 23.5759 31.9205C23.6018 31.987 22.5438 32.0069 18.4089 32.0069H13.216L13.1511 31.7544C13.1121 31.6216 12.9109 30.7911 12.6967 29.9208C12.132 27.6154 12.2813 27.735 10.0743 27.6885C8.60077 27.6553 8.39955 27.6354 8.04903 27.5025C7.29605 27.2168 6.62097 26.6189 6.29642 25.9346C6.21203 25.7485 5.75765 24.5062 5.29029 23.1708C4.56328 21.0714 4.42047 20.7193 4.23223 20.5465C4.1089 20.427 3.72592 20.221 3.31049 20.0549C2.51857 19.7294 2.21997 19.5367 2.07717 19.251C1.96033 19.0185 1.95384 18.5933 2.05769 18.3541C2.10313 18.2545 2.84312 17.2446 3.71294 16.1086C4.58275 14.9659 5.3552 13.9029 5.43309 13.7368C5.56941 13.4577 5.58239 13.3116 5.62134 11.8101C5.66028 10.3352 5.67976 10.1226 5.83554 9.56454C6.54957 6.96022 8.25025 4.63493 10.3793 3.34605C11.3465 2.76141 12.4046 2.36279 13.5665 2.15019C14.3519 2.00403 15.8384 2.01732 16.7277 2.17012Z" fill="#19657E"/>
<path d="M11.1997 19.0444L13.8886 20.0376C13.1417 20.3334 11.6137 20.9377 11.4771 20.9884C11.3406 21.0391 11.2353 20.9109 11.1997 20.8405V19.0444Z" fill="#19657E"/>
<path d="M17.5557 19.0444L15.1112 20.0376C15.7902 20.3334 17.1793 20.9377 17.3035 20.9884C17.4276 21.0391 17.5233 20.9109 17.5557 20.8405V19.0444Z" fill="#19657E"/>
<path d="M9.24765 11.2222C9.24765 11.2222 9.55722 11.3651 9.78424 11.4264C9.79202 11.4285 9.80488 11.4264 9.80488 11.4264V16.9599C9.80488 17.1559 9.98374 17.3002 10.0732 17.3479L13.788 18.9814H15.2533C16.4847 18.4369 18.964 17.3356 19.03 17.2866C19.0961 17.2376 19.1814 17.0756 19.2158 17.0007V11.4264C19.374 11.3583 19.7193 11.2222 19.8349 11.2222C19.9505 11.2222 19.9931 11.3311 20 11.3855V17.6746C20 17.7072 19.9587 17.7562 19.9381 17.7767L14.4897 19.7777C12.7217 19.1243 9.17336 17.8134 9.12383 17.7971C9.0743 17.7807 9.0344 17.7086 9.02064 17.6746C9.01376 15.6327 9 11.5162 9 11.3855C9 11.2548 9.1651 11.2222 9.24765 11.2222Z" fill="#19657E" stroke="#1C667F" stroke-width="0.2"/>
<path d="M12.5599 16.768C12.0513 16.6894 11.3666 16.4963 11.1906 16.3555L10.4668 17.1019L13.7336 18.5555H14.1249C14.1835 17.868 13.9354 17.3417 13.5847 17.1019C13.2387 16.8654 12.8125 16.807 12.5599 16.768Z" fill="#19657E"/>
<path d="M16.3005 16.768C16.8431 16.6894 17.5734 16.4963 17.7612 16.3555L18.5332 17.1019L15.0486 18.5555H14.6313C14.5687 17.868 14.8334 17.3417 15.2075 17.1019C15.5765 16.8654 16.0311 16.807 16.3005 16.768Z" fill="#19657E"/>
<path d="M11.1997 10.2444C12.3174 10.7506 13.7858 10.5076 14.3775 11.3784L14.3337 17.0888C13.5447 16.2181 11.7914 16.5016 11.1997 15.9751V10.2444Z" fill="#19657E"/>
<path d="M17.5557 10.2444C16.5239 10.7506 15.1685 10.5076 14.6223 11.3784L14.6628 17.0888C15.3911 16.2181 17.0095 16.5016 17.5557 15.9751V10.2444Z" fill="#19657E"/>
<path d="M10.2222 10.1331C10.2222 9.9684 10.9555 10.003 10.9555 10.003V16.2062L10.2222 16.8444C10.2222 16.8444 10.2222 10.2978 10.2222 10.1331Z" fill="#19657E"/>
<path d="M18.7778 10.1331C18.7778 9.9684 18.0445 10.003 18.0445 10.003V16.2062L18.7778 16.8444C18.7778 16.8444 18.7778 10.2978 18.7778 10.1331Z" fill="#19657E"/>
</svg>
