<svg width="29" height="23" viewBox="0 0 29 23" fill="none" xmlns="http://www.w3.org/2000/svg">
<path fill-rule="evenodd" clip-rule="evenodd" d="M13.5984 0C13.9088 0 14.0073 0.0378578 14.2268 0.249862C14.3707 0.378578 16.7784 4.0205 19.5723 8.32872C24.1682 15.4233 24.6528 16.1956 24.6452 16.4681C24.6452 16.6347 24.5847 16.877 24.5089 16.9982C24.4105 17.1572 23.0325 18.0885 19.9433 20.0949C17.369 21.7607 15.4231 22.9721 15.2944 22.9948C15.1506 23.0176 14.9461 22.9645 14.7417 22.851C14.4388 22.692 14.0603 22.1317 9.60821 15.2567C6.96576 11.1756 4.64888 7.61699 4.46716 7.34442C4.19459 6.94312 4.12644 6.79169 4.12644 6.51154C4.12644 6.30711 4.18702 6.07997 4.2703 5.94368C4.36116 5.79982 5.02745 5.31524 6.17832 4.57322C7.15505 3.93721 9.13878 2.65762 10.5925 1.71117C13.1138 0.0757156 13.2501 0 13.5984 0ZM5.99661 6.54183C5.92089 6.58726 5.88303 6.67055 5.91332 6.73869C5.93603 6.79926 7.68505 9.51745 9.78993 12.7732C11.9024 16.029 13.6514 18.6942 13.6893 18.7018C13.7195 18.7018 15.4307 17.6039 17.4902 16.2561C19.5572 14.916 21.2456 13.7954 21.238 13.7575C21.238 13.7272 19.6102 11.1908 17.6189 8.11672C15.6276 5.05023 13.8937 2.35476 13.7725 2.13518C13.6514 1.92318 13.5151 1.74146 13.4773 1.74146C13.4318 1.74146 11.7661 2.80148 9.76722 4.09622C7.76834 5.39095 6.07232 6.4964 5.99661 6.54183ZM17.793 17.9522C17.7476 17.99 17.8687 18.2399 18.111 18.626L18.5123 19.2318L19.7995 18.3989C19.2392 17.46 19.0423 17.1874 19.0045 17.1874C18.959 17.1874 18.694 17.3465 18.3987 17.5357C18.1034 17.7326 17.8384 17.9143 17.793 17.9522Z" fill="white"/>
<path d="M21.2305 2.97562C21.2229 2.80148 21.2759 2.69548 21.4349 2.5819C21.5485 2.49104 21.6999 2.4229 21.7832 2.4229C21.8589 2.4229 22.6918 2.75605 23.6382 3.15734C24.5923 3.56621 25.4403 3.97507 25.5311 4.06593C25.7053 4.24007 25.7053 4.27807 25.7053 7.68514L27.265 8.36658C28.4764 8.89659 28.8474 9.09345 28.9232 9.23731C29.0064 9.38874 29.014 9.85818 28.9837 11.3952C28.9459 13.2654 28.9307 13.3714 28.7793 13.538C28.6809 13.644 28.537 13.7045 28.3931 13.7045C28.2644 13.7045 28.0903 13.6288 27.9919 13.5304C27.8253 13.3638 27.8177 13.3335 27.8253 9.88089L26.3337 9.23731C25.5084 8.88144 24.7664 8.53315 24.6831 8.46501C24.5392 8.34386 24.5317 8.27572 24.5847 4.80794L23.0779 4.17193C22.2527 3.82364 21.5031 3.46778 21.4046 3.37692C21.2986 3.27849 21.2305 3.12706 21.2305 2.97562Z" fill="white"/>
<path d="M18.5123 4.74737C18.5199 4.6338 18.6032 4.45208 18.7016 4.35365C18.8 4.24765 18.9439 4.16436 19.0196 4.16436C19.0953 4.16436 19.9585 4.50508 20.9352 4.92909C21.9119 5.34552 22.7675 5.73925 22.8281 5.79982C22.9189 5.89068 22.9492 6.24654 23.0174 9.47203L24.4938 10.108C25.41 10.5018 26.0384 10.8198 26.1368 10.9409C26.311 11.1302 26.311 11.1378 26.2656 13.0458C26.2428 14.0907 26.2126 15.0296 26.1898 15.128C26.1747 15.2188 26.0536 15.3476 25.9324 15.4081C25.8113 15.4687 25.6295 15.5066 25.5311 15.4838C25.4403 15.4611 25.3115 15.393 25.251 15.3248C25.1601 15.2188 25.1298 14.8554 25.0617 11.6299L23.5701 10.9863C22.7448 10.6305 22.0104 10.2746 21.9422 10.1989C21.8211 10.0778 21.8059 9.88846 21.8059 6.55697L20.2538 5.89068C19.3982 5.51967 18.6562 5.16381 18.6032 5.08809C18.5502 5.01995 18.5123 4.86094 18.5123 4.74737Z" fill="white"/>
<path d="M2.74089 10.8652C2.77874 9.01773 2.79389 8.88902 2.93774 8.73001C3.03617 8.61644 3.18003 8.55587 3.32389 8.55587C3.46018 8.55587 3.62675 8.63158 3.73275 8.73001C3.89933 8.89659 3.9069 8.92687 3.89933 12.3795L5.45906 13.0609C6.66292 13.5834 7.0415 13.7878 7.12479 13.9317C7.2005 14.0755 7.20807 14.492 7.13993 17.4525L8.63909 18.096C9.46438 18.4519 10.2215 18.8002 10.3124 18.8759C10.4335 18.9592 10.4865 19.0803 10.4865 19.2545C10.4865 19.3983 10.4184 19.5649 10.3124 19.6709C10.2215 19.7618 10.0625 19.8375 9.95653 19.8375C9.85053 19.8375 9.00252 19.5119 8.06365 19.1106C7.12479 18.7093 6.28435 18.308 6.18592 18.2172C6.01935 18.0582 6.01178 18.0355 6.01935 14.5753L4.45962 13.8938C3.24818 13.3638 2.87717 13.1669 2.80146 13.0231C2.71817 12.8717 2.7106 12.4022 2.74089 10.8652Z" fill="white"/>
<path d="M0.0227145 12.0918C0.045429 10.7062 0.0530005 10.6608 0.227145 10.4866C0.325575 10.3806 0.484576 10.2973 0.583006 10.2973C0.681435 10.2898 0.840437 10.3579 1.13573 10.585L1.21144 14.1664L2.68788 14.8024C3.60404 15.1961 4.23247 15.5141 4.3309 15.6353C4.50505 15.8246 4.50505 15.8321 4.40662 19.1939L5.98149 19.8754C6.8825 20.2691 7.59422 20.6249 7.65479 20.7082C7.71536 20.7915 7.76079 20.9505 7.76079 21.0717C7.76079 21.1852 7.69265 21.3442 7.60936 21.4275C7.52608 21.5108 7.39736 21.5865 7.32165 21.5865C7.2535 21.5941 7.13993 21.5865 7.07936 21.579C7.01879 21.5714 6.20106 21.2382 5.2622 20.8369C4.32333 20.4357 3.49804 20.0419 3.42232 19.9738C3.30875 19.8526 3.29361 19.6482 3.29361 16.3167L1.80202 15.6731C0.976724 15.3173 0.234717 14.9766 0.15143 14.9008C0.0227145 14.7948 0 14.6888 0 14.1437C0 13.803 0.00757151 12.8717 0.0227145 12.0918Z" fill="white"/>
</svg>
