<svg width="28" height="28" viewBox="0 0 28 28" fill="none" xmlns="http://www.w3.org/2000/svg">
<path d="M5.59996 23.0222L12.4444 25.5502C10.5432 26.3032 6.65378 27.8415 6.30613 27.9705C5.95847 28.0996 5.69049 27.7733 5.59996 27.594V23.0222Z" fill="#19657E"/>
<path d="M21.7778 23.0222L15.5555 25.5502C17.2839 26.3032 20.8197 27.8415 21.1358 27.9705C21.4518 28.0996 21.6954 27.7733 21.7778 27.594V23.0222Z" fill="#19657E"/>
<path d="M0.630394 3.11112C0.630394 3.11112 1.41839 3.47495 1.99625 3.63088C2.01604 3.63622 2.04878 3.63088 2.04878 3.63088V17.7163C2.04878 18.2152 2.50407 18.5825 2.73171 18.7038L12.1876 22.8619H15.9174C19.0519 21.4758 25.3629 18.6726 25.531 18.5479C25.6991 18.4231 25.9162 18.0108 26.0038 17.8202V3.63088C26.4065 3.45763 27.2856 3.11112 27.5797 3.11112C27.8739 3.11112 27.9825 3.38832 28 3.52693V19.5354C28 19.6186 27.8949 19.7433 27.8424 19.7953L13.9737 24.8889C9.47342 23.2257 0.441276 19.8888 0.315197 19.8473C0.189118 19.8057 0.0875547 19.622 0.0525328 19.5354C0.0350219 14.3379 0 3.85957 0 3.52693C0 3.19428 0.420263 3.11112 0.630394 3.11112Z" fill="#19657E"/>
<path d="M9.06123 17.2278C7.7666 17.0278 6.02364 16.5364 5.57567 16.1778L3.7333 18.0778L12.0489 21.7778H13.0447C13.1941 20.0278 12.5625 18.6881 11.6697 18.0778C10.7891 17.4757 9.70413 17.3271 9.06123 17.2278Z" fill="#19657E"/>
<path d="M18.5836 17.2278C19.9645 17.0278 21.8237 16.5364 22.3015 16.1778L24.2667 18.0778L15.3968 21.7778H14.3345C14.1752 20.0278 14.8489 18.6881 15.8012 18.0778C16.7406 17.4757 17.8978 17.3271 18.5836 17.2278Z" fill="#19657E"/>
<path d="M5.59996 0.622234C8.44501 1.91086 12.1826 1.29232 13.6888 3.50876L13.5773 18.0445C11.569 15.828 7.10616 16.5497 5.59996 15.2095V0.622234Z" fill="#19657E"/>
<path d="M21.7778 0.622234C19.1515 1.91086 15.7014 1.29232 14.3111 3.50876L14.4141 18.0445C16.2679 15.828 20.3874 16.5497 21.7778 15.2095V0.622234Z" fill="#19657E"/>
<path d="M3.11101 0.33879C3.11101 -0.0804349 4.97768 0.00772828 4.97768 0.00772828V15.7977L3.11101 17.4222C3.11101 17.4222 3.11101 0.758016 3.11101 0.33879Z" fill="#19657E"/>
<path d="M24.889 0.33879C24.889 -0.0804349 23.0223 0.00772828 23.0223 0.00772828V15.7977L24.889 17.4222C24.889 17.4222 24.889 0.758016 24.889 0.33879Z" fill="#19657E"/>
</svg>
